<?xml version="1.0" encoding="UTF-8" standalone="no"?>
<!-- Created with Inkscape (http://www.inkscape.org/) -->

<svg
   width="73.737503"
   height="69.996452"
   viewBox="0 0 19.509714 18.519895"
   version="1.1"
   id="svg1"
   inkscape:version="1.3 (0e150ed6c4, 2023-07-21)"
   sodipodi:docname="star.svg"
   xmlns:inkscape="http://www.inkscape.org/namespaces/inkscape"
   xmlns:sodipodi="http://sodipodi.sourceforge.net/DTD/sodipodi-0.dtd"
   xmlns="http://www.w3.org/2000/svg"
   xmlns:svg="http://www.w3.org/2000/svg">
  <sodipodi:namedview
     id="namedview1"
     pagecolor="#ffffff"
     bordercolor="#000000"
     borderopacity="0.25"
     inkscape:showpageshadow="2"
     inkscape:pageopacity="0.0"
     inkscape:pagecheckerboard="0"
     inkscape:deskcolor="#d1d1d1"
     inkscape:document-units="px"
     inkscape:zoom="2.6333614"
     inkscape:cx="-7.215113"
     inkscape:cy="17.65804"
     inkscape:window-width="1920"
     inkscape:window-height="974"
     inkscape:window-x="-11"
     inkscape:window-y="-11"
     inkscape:window-maximized="1"
     inkscape:current-layer="layer1" />
  <defs
     id="defs1" />
  <g
     inkscape:label="Layer 1"
     inkscape:groupmode="layer"
     id="layer1"
     transform="translate(0.27102262,-0.26485313)">
    <path
       style="opacity:1;fill:#fcfefb;fill-opacity:1;stroke-width:8.00127;stroke-linejoin:round;stroke-miterlimit:3.1;paint-order:markers stroke fill"
       d="m 38.967465,7.7681621 c -2.052278,0.3731441 -3.025964,2.4802269 -4.177125,3.9811879 -3.148028,4.5871 -5.778638,9.521646 -9.107208,13.983605 -0.287919,0.477349 -0.632591,0.841683 -1.225379,0.831779 -3.841835,0.879679 -7.581536,2.253215 -11.532697,2.606256 -2.005932,0.336474 -4.2159997,0.293316 -5.9800191,1.426243 -1.4920242,0.947024 -1.3330852,3.374262 0.2493763,4.141325 5.3318238,2.690408 10.6150178,5.46106 15.7133698,8.589385 0.454057,0.345848 1.101368,0.646152 1.362742,1.126062 -1.036442,3.952593 -1.486356,8.072745 -3.098717,11.861499 -0.439499,1.42884 -1.294499,3.256204 -0.09594,4.539093 0.889685,1.123785 2.67043,0.965815 3.591663,-0.04114 3.748337,-2.19987 7.941824,-3.667771 11.387658,-6.362372 1.287664,-0.980532 1.773888,-2.565339 2.398312,-3.985038 1.31538,1.297434 3.177558,1.840437 4.527644,3.111894 2.76442,2.382191 5.152819,5.213774 8.253217,7.195134 1.307573,0.797642 2.521546,1.830038 3.96932,2.351211 0.993492,0.279643 1.925606,-0.296073 2.584739,-0.971121 1.698303,-0.957098 2.032614,-3.273969 1.122849,-4.892862 -1.846398,-4.388198 -4.477727,-8.444679 -5.956711,-12.932689 2.908136,-2.329272 6.328096,-3.90456 9.463743,-5.895239 1.704485,-1.106354 3.707076,-2.137067 4.656566,-4.02317 0.665588,-1.579069 -0.616044,-3.203454 -2.127959,-3.611629 C 60.841758,29.455527 56.514894,28.996897 52.292485,28.155381 50.344186,27.787647 48.371191,27.459038 46.474975,26.888319 45.151676,22.868587 44.504428,18.661681 43.454222,14.566661 42.862349,12.558402 42.635942,10.289467 41.244106,8.635079 40.662795,8.0201107 39.820194,7.6513066 38.967465,7.7681621 Z M 24.74489,27.525527 c -0.006,-0.008 0.02487,-0.131156 0,0 z"
       id="path2"
       transform="matrix(0.26458333,0,0,0.26458333,-0.27102262,0.26485313)" />
    <path
       id="path1"
       style="opacity:1;fill:#111b09;fill-opacity:1;stroke-width:2.117;stroke-linejoin:round;stroke-miterlimit:3.1;paint-order:markers stroke fill"
       d="M 10.513849,0.26588666 C 9.4158789,0.19086523 6.3635653,5.3416126 6.0639912,6.1342623 l -0.1281575,0.091984 c -0.017829,-0.024604 -0.063562,-0.091984 -0.063562,-0.091984 0,0 -4.1534804,1.2955444 -5.37848302,1.0361125 C -2.3737615,9.10765 3.6884848,11.460811 4.503363,11.990752 c 0.5370849,0.349296 0.2314932,2.864697 -0.090434,4.729944 -0.1496443,0.123422 -0.3173598,0.325695 -0.4831746,0.657324 -0.4492979,0.898597 -0.1778845,1.052744 0.280603,1.221631 -0.145767,0.606232 5.5007547,-2.40227 5.9112674,-3.368786 0.411619,-0.969121 3.236747,2.392762 5.368664,3.165181 1.327591,0.481002 0.773012,-5.344923 -0.447518,-6.215124 C 14.602683,11.867154 18.737216,9.4827166 19.209442,8.7547742 19.68167,8.0268319 14.249178,6.4212155 13.442869,6.1719861 12.636557,5.9227437 11.81597,1.0106443 10.704535,0.42143272 10.661318,0.32122527 10.59682,0.27155568 10.513849,0.26588666 Z M 10.114907,2.8900159 c 0.01597,-0.00338 0.03058,-0.00287 0.04341,0.00155 0.445875,0.1537212 1.042956,4.6185406 1.463993,4.9552531 0.421046,0.3366606 4.758826,0.8071057 5.265312,1.2019938 0.506485,0.3949134 -3.555519,2.0940159 -3.74034,2.7677899 -0.115089,0.41956 0.696386,1.950209 1.35909,3.191019 0.0053,0.125181 0.378866,0.795409 0.372989,0.905104 -0.0233,0.434877 -0.381911,0.236272 -0.363171,0.514965 -0.749185,-0.40733 -1.835605,-1.188032 -2.33009,-1.770435 -0.804807,-0.947903 -1.844848,-1.368392 -1.844848,-1.368392 0,0 0.008,-0.231524 -0.4087611,-0.427881 C 9.5157331,12.664642 9.4519358,13.308 9.103599,13.982879 8.7552642,14.657745 6.021193,15.653932 5.8433328,15.932631 5.6654683,16.211312 5.6749839,15.792743 6.0159321,15.000388 6.3568711,14.208035 6.5992941,12.446982 6.7021952,12.204693 6.8050987,11.962422 6.8372579,11.897227 6.5140929,11.527215 6.1909264,11.157214 2.2024093,9.0547566 2.0451151,9.0100558 1.8878142,8.9654066 1.3792196,8.7564497 3.1308369,8.5749402 4.8824532,8.3934175 5.644821,7.938215 6.5466491,7.827699 6.7413054,7.8038419 6.8342424,7.7088744 6.8665262,7.5786186 7.6589213,6.7424882 9.619885,2.9948126 10.114907,2.8900159 Z"
       sodipodi:nodetypes="cccccccscsssscccscccscscscccccccccccs" />
  </g>
</svg>
