<?xml version="1.0" encoding="UTF-8" standalone="no"?>
<!-- Created with Inkscape (http://www.inkscape.org/) -->

<svg
   width="57.795002"
   height="59.672798"
   viewBox="0 0 57.795002 59.672795"
   version="1.1"
   id="svg1"
   inkscape:version="1.4.4 (dcaf3e7, 2026-05-05)"
   sodipodi:docname="hand_2_1.svg"
   xml:space="preserve"
   inkscape:export-filename="hand.png"
   inkscape:export-xdpi="96"
   inkscape:export-ydpi="96"
   xmlns:inkscape="http://www.inkscape.org/namespaces/inkscape"
   xmlns:sodipodi="http://sodipodi.sourceforge.net/DTD/sodipodi-0.dtd"
   xmlns="http://www.w3.org/2000/svg"
   xmlns:svg="http://www.w3.org/2000/svg"><sodipodi:namedview
     id="namedview1"
     pagecolor="#6c6c6c"
     bordercolor="#000000"
     borderopacity="0.25"
     inkscape:showpageshadow="2"
     inkscape:pageopacity="0.0"
     inkscape:pagecheckerboard="0"
     inkscape:deskcolor="#d1d1d1"
     inkscape:document-units="px"
     inkscape:zoom="5.2667228"
     inkscape:cx="-18.417525"
     inkscape:cy="48.132398"
     inkscape:window-width="1920"
     inkscape:window-height="1009"
     inkscape:window-x="-8"
     inkscape:window-y="-8"
     inkscape:window-maximized="1"
     inkscape:current-layer="layer6"
     showgrid="false"><inkscape:page
       x="0"
       y="0"
       width="57.795002"
       height="59.672794"
       id="page2"
       margin="0"
       bleed="0" /></sodipodi:namedview><defs
     id="defs1" /><g
     inkscape:groupmode="layer"
     id="layer6"
     inkscape:label="Layer 3"
     transform="translate(8.4432466,-144.92012)"
     style="display:inline"><path
       style="fill:#fffff0;fill-opacity:1;stroke-width:2.11699;stroke-linejoin:round;stroke-miterlimit:3.1;paint-order:markers stroke fill"
       d="m 22.574255,152.13175 c -1.626825,-1.00487 -6.906138,-9.94058 -16.6058093,-0.93912 -9.6996972,9.0014 -10.2861095,15.93364 -8.0807335,21.35188 2.20538031,5.41822 28.9697168,29.23859 28.9697168,29.23859 0,0 -1.902063,-7.22126 7.365437,-18.51937 3.893278,-4.74628 14.103163,-4.07078 13.5825,-4.85022 -8.155909,-12.20843 -12.50387,-16.39293 -25.231111,-26.28172 z"
       id="path13"
       sodipodi:nodetypes="ccccssc" /><path
       id="path12"
       style="fill:#edd2b8;fill-opacity:1;stroke-width:2.11699;stroke-linejoin:round;stroke-miterlimit:3.1;paint-order:markers stroke fill"
       d="m 25.106466,182.91702 c -3.157587,0.40355 -3.312723,-1.03153 -6.393557,-3.91228 -2.281968,-2.13371 -13.2814043,-14.96709 -19.1757786,-22.53503 -5.7929557,6.48293 -6.9180513,11.13463 -5.1116891,15.57249 2.2053983,5.41824 31.6458887,30.13337 31.6458887,30.13337 0,0 1.861966,-9.80828 5.771458,-15.02575 4.543087,-5.27249 16.155246,-7.92926 15.47062,-8.56945 -0.131529,-0.12306 -3.195742,-6.13491 -4.879391,-7.8165 -4.148298,-0.0186 -16.521899,12.05018 -17.327551,12.15315 z"
       sodipodi:nodetypes="ccccccccc" /><path
       style="display:inline;fill:#111b09;fill-opacity:1;stroke-width:2.11699;stroke-linejoin:round;stroke-miterlimit:3.1;paint-order:markers stroke fill"
       d="m 49.351754,178.3476 c -0.356623,-0.33334 -8.059902,-12.54643 -18.04578,-21.88372 -9.985825,-9.33727 -16.445312,-11.54376 -16.445312,-11.54376 l -2.272047,1.44042 c 0,0 7.618701,6.06409 16.635236,13.39969 9.016532,7.33565 13.760868,17.17769 15.893333,18.96737 0.534959,0.50021 4.234566,-0.3799 4.234566,-0.3799 z"
       id="path1"
       sodipodi:nodetypes="cccccccc" /><path
       style="display:inline;fill:#111b09;fill-opacity:1;stroke-width:2.11699;stroke-linejoin:round;stroke-miterlimit:3.1;paint-order:markers stroke fill"
       d="m -6.3930625,170.76341 c 0,0 -2.996418,1.28999 11.3751872,14.98633 14.3716793,13.69625 22.0846503,18.84318 22.0846503,18.84318 0,0 0.79165,-4.04799 -1.102395,-5.56085 -22.3042205,-17.81436 -32.4223805,-34.40309 -34.0376197,-32.96441 -1.4139177,1.25954 1.6801772,4.69575 1.6801772,4.69575 z"
       id="path2"
       sodipodi:nodetypes="cccccc" /></g></svg>
