<?xml version="1.0" encoding="UTF-8" standalone="no"?>
<!-- Created with Inkscape (http://www.inkscape.org/) -->

<svg
   width="54.707951"
   height="58.080559"
   viewBox="0 0 54.70795 58.080556"
   version="1.1"
   id="svg1"
   inkscape:version="1.4.4 (dcaf3e7, 2026-05-05)"
   sodipodi:docname="hand_2_3.svg"
   xml:space="preserve"
   inkscape:export-filename="hand.png"
   inkscape:export-xdpi="96"
   inkscape:export-ydpi="96"
   xmlns:inkscape="http://www.inkscape.org/namespaces/inkscape"
   xmlns:sodipodi="http://sodipodi.sourceforge.net/DTD/sodipodi-0.dtd"
   xmlns="http://www.w3.org/2000/svg"
   xmlns:svg="http://www.w3.org/2000/svg"><sodipodi:namedview
     id="namedview1"
     pagecolor="#6c6c6c"
     bordercolor="#000000"
     borderopacity="0.25"
     inkscape:showpageshadow="2"
     inkscape:pageopacity="0.0"
     inkscape:pagecheckerboard="0"
     inkscape:deskcolor="#d1d1d1"
     inkscape:document-units="px"
     inkscape:zoom="2.6333614"
     inkscape:cx="-37.024922"
     inkscape:cy="-75.758686"
     inkscape:window-width="1920"
     inkscape:window-height="1009"
     inkscape:window-x="-8"
     inkscape:window-y="-8"
     inkscape:window-maximized="1"
     inkscape:current-layer="svg1"
     showgrid="false"><inkscape:page
       x="0"
       y="0"
       width="54.707951"
       height="58.080555"
       id="page2"
       margin="0"
       bleed="0" /></sodipodi:namedview><defs
     id="defs1" /><g
     inkscape:groupmode="layer"
     id="layer1"
     inkscape:label="Hand3"
     style="display:inline"
     transform="translate(-47.163048,-38.086771)"><path
       style="display:inline;opacity:1;fill:#dcb195;fill-opacity:1;stroke-width:2.11699;stroke-linejoin:round;stroke-miterlimit:3.1;paint-order:markers stroke fill"
       d="m 73.385237,187.39847 c -4.246663,-1.4791 -13.644244,-4.28218 -21.139976,0.13019 -7.495759,4.41232 -11.579825,15.12601 -12.582899,17.63599 -1.270506,3.17911 1.878428,20.49272 4.287471,19.69771 0,0 2.384175,5.80409 7.900144,9.10828 5.516024,3.30417 14.821395,1.2814 24.711052,-5.75589 9.889695,-7.03717 12.257218,-13.95862 8.145607,-22.30459 -4.111644,-8.34598 -7.852385,-15.20645 -11.321399,-18.51169 z"
       id="path8"
       sodipodi:nodetypes="ccsccssc"
       transform="translate(10.346243,-143.45425)" /><path
       style="display:inline;opacity:1;fill:#c08167;fill-opacity:1;stroke-width:2.11699;stroke-linejoin:round;stroke-miterlimit:3.1;paint-order:markers stroke fill"
       d="m 41.686662,218.19512 c 0,0 7.161479,16.39993 8.508631,-2.45401 0.699495,-9.78971 -1.386576,-16.7035 8.977239,-30.0638 5.656148,-2.26532 22.565766,1.46401 26.457574,10.41457 6.26319,16.01093 0.413394,22.62524 -2.15067,27.66676 -3.308904,4.24506 -12.321555,10.81169 -19.800587,12.56631 -1.166272,-0.15449 -8.88432,-0.0543 -14.619756,-3.73211 -5.735435,-3.67782 -7.839449,-13.89825 -7.839449,-13.89825 z"
       id="path9"
       sodipodi:nodetypes="csccccscc"
       transform="translate(10.346243,-143.45425)" /><path
       style="opacity:1;fill:#111b09;stroke-width:2.11699;stroke-linejoin:round;stroke-miterlimit:3.1;paint-order:markers stroke fill"
       d="m 36.851732,207.18042 c 0,0 -1.14264,21.68619 9.643471,29.12391 16.214761,11.18108 49.87835,-7.29181 44.442084,-34.61832 -2.867689,-14.41518 -31.373283,-29.32966 -43.917331,-13.06211 -5.285133,6.85389 -4.196337,8.94647 -1.635425,6.47958 28.596719,-27.54641 65.370859,24.30099 19.016033,39.80996 0,0 -17.489296,1.6766 -21.522845,-11.83113 -4.033476,-13.5077 -0.693582,-16.823 -1.872824,-17.36394 -1.179234,-0.54099 -4.153163,1.46205 -4.153163,1.46205 z"
       id="path6"
       sodipodi:nodetypes="csssscssc"
       transform="translate(10.346243,-143.45425)" /></g></svg>
