<?xml version="1.0" encoding="UTF-8" standalone="no"?>
<!-- Created with Inkscape (http://www.inkscape.org/) -->

<svg
   width="36.619614"
   height="39.26939"
   viewBox="0 0 36.619614 39.269388"
   version="1.1"
   id="svg1"
   inkscape:version="1.4.4 (dcaf3e7, 2026-05-05)"
   sodipodi:docname="hand_2_2.svg"
   xml:space="preserve"
   inkscape:export-filename="hand.png"
   inkscape:export-xdpi="96"
   inkscape:export-ydpi="96"
   xmlns:inkscape="http://www.inkscape.org/namespaces/inkscape"
   xmlns:sodipodi="http://sodipodi.sourceforge.net/DTD/sodipodi-0.dtd"
   xmlns="http://www.w3.org/2000/svg"
   xmlns:svg="http://www.w3.org/2000/svg"><sodipodi:namedview
     id="namedview1"
     pagecolor="#6c6c6c"
     bordercolor="#000000"
     borderopacity="0.25"
     inkscape:showpageshadow="2"
     inkscape:pageopacity="0.0"
     inkscape:pagecheckerboard="0"
     inkscape:deskcolor="#d1d1d1"
     inkscape:document-units="px"
     inkscape:zoom="1.3166807"
     inkscape:cx="-84.302899"
     inkscape:cy="-186.45371"
     inkscape:window-width="1920"
     inkscape:window-height="1009"
     inkscape:window-x="-8"
     inkscape:window-y="-8"
     inkscape:window-maximized="1"
     inkscape:current-layer="layer5"
     showgrid="false"><inkscape:page
       x="0"
       y="0"
       width="36.619614"
       height="39.269386"
       id="page2"
       margin="0"
       bleed="0" /></sodipodi:namedview><defs
     id="defs1" /><g
     inkscape:groupmode="layer"
     id="layer5"
     inkscape:label="Hand2"
     transform="translate(-24.163367,-175.75705)"
     style="display:inline"><path
       style="display:inline;opacity:1;fill:#ffffff;fill-opacity:1;stroke-width:2.11699;stroke-linejoin:round;stroke-miterlimit:3.1;paint-order:markers stroke fill"
       d="m 54.03759,186.34267 -15.529362,25.80078 c 0,0 -5.330903,3.01652 -8.707315,-2.49651 -3.086225,-6.79594 -4.552301,-15.71756 -4.080716,-16.22191 0.471593,-0.50441 8.946872,-13.01591 16.1323,-13.62354 7.185392,-0.6076 10.791588,-2.93353 15.103235,1.80707 4.31165,4.7406 -2.918142,4.73411 -2.918142,4.73411 z"
       id="path7"
       sodipodi:nodetypes="cccscsc"
       sodipodi:insensitive="true" /><path
       style="opacity:1;fill:#111b09;stroke-width:2.11699;stroke-linejoin:round;stroke-miterlimit:3.1;paint-order:markers stroke fill"
       d="m 60.756838,184.35689 c 0,0 1.060618,-7.52873 -10.32994,-8.48974 -32.934444,-2.77874 -32.728364,48.05354 -11.381064,37.78809 2.442783,-1.32564 1.019587,-4.91541 1.003982,-5.72156 0,0 -4.768017,6.98086 -7.207121,4.09185 -18.83346,-22.30745 18.439999,-42.23127 25.2765,-26.75983 z"
       id="path5"
       sodipodi:nodetypes="csccscc" /></g></svg>
