<?xml version="1.0" encoding="UTF-8" standalone="no"?>
<!-- Created with Inkscape (http://www.inkscape.org/) -->

<svg
   width="88.463318mm"
   height="59.155243mm"
   viewBox="0 0 88.463318 59.155243"
   version="1.1"
   id="svg1"
   inkscape:version="1.3 (0e150ed6c4, 2023-07-21)"
   sodipodi:docname="back.svg"
   xmlns:inkscape="http://www.inkscape.org/namespaces/inkscape"
   xmlns:sodipodi="http://sodipodi.sourceforge.net/DTD/sodipodi-0.dtd"
   xmlns="http://www.w3.org/2000/svg"
   xmlns:svg="http://www.w3.org/2000/svg">
  <sodipodi:namedview
     id="namedview1"
     pagecolor="#ffffff"
     bordercolor="#000000"
     borderopacity="0.25"
     inkscape:showpageshadow="2"
     inkscape:pageopacity="0.0"
     inkscape:pagecheckerboard="0"
     inkscape:deskcolor="#d1d1d1"
     inkscape:document-units="mm"
     inkscape:zoom="1.3166807"
     inkscape:cx="196.70676"
     inkscape:cy="58.860132"
     inkscape:window-width="1920"
     inkscape:window-height="974"
     inkscape:window-x="-11"
     inkscape:window-y="-11"
     inkscape:window-maximized="1"
     inkscape:current-layer="svg1" />
  <defs
     id="defs1">
    <pattern
       id="EMFhbasepattern"
       patternUnits="userSpaceOnUse"
       width="6"
       height="6"
       x="0"
       y="0" />
  </defs>
  <g
     inkscape:label="Layer 1"
     inkscape:groupmode="layer"
     id="layer1"
     transform="translate(-54.422531,-189.21452)">
    <path
       id="path4"
       style="fill:#7fa1a7;fill-opacity:1;stroke-width:2.117;stroke-linejoin:round;stroke-miterlimit:3.1;paint-order:markers stroke fill"
       d="m 108.99372,190.50526 c -0.25864,-0.01 -0.54532,-0.006 -0.86558,0.0124 -2.56208,0.15071 -4.37083,0 -5.52628,0 -1.15544,0 -4.521063,0.20094 -5.977928,0.70331 -1.456866,0.50237 -3.265582,0.85407 -3.265582,0.85407 -10.866541,0.94687 -25.743891,12.04648 -27.027143,13.36315 -0.904263,0.10048 -2.310824,0.10011 -3.31556,1.80816 -1.004733,1.70805 -2.822815,5.8709 -4.669999,7.36286 -1.847184,1.49195 -1.278838,3.48123 -0.14211,3.83646 1.136727,0.35522 1.350077,0.4973 1.563212,1.77612 0.213137,1.27882 1.207927,6.03888 3.05511,7.81502 1.847183,1.77614 2.131366,5.39937 3.836459,6.96237 1.705092,1.563 1.775833,4.47566 5.399153,6.1097 3.62332,1.63405 3.316208,1.60479 27.429851,6.42752 24.113647,4.82273 37.979077,-12.86071 37.979077,-12.86071 0,0 7.12879,-0.74229 3.43442,-13.81467 -3.69436,-13.07237 -7.25227,-13.66479 -7.25227,-13.66479 0,0 2.38543,-0.43774 0.89348,-1.68104 -1.49195,-1.24329 -3.50367,-4.26012 -4.74234,-4.72477 -1.04873,-0.39341 -1.74021,-0.35477 -2.29082,-0.90538 -1.47687,-1.47685 -1.77651,-2.29123 -2.8422,-2.53989 -1.06568,-0.24866 -1.56257,-2.09583 -2.48615,-1.77612 -0.9236,0.3197 -1.91822,0.6036 -1.77613,-0.21343 0.14209,-0.81702 1.3379,-1.32151 -2.17868,-2.42672 -3.51657,-1.10521 -4.62175,-1.00485 -5.87767,-1.35651 -1.09893,-0.3077 -1.54383,-0.99981 -3.35432,-1.06712 z"
       sodipodi:nodetypes="ssssccsssssssscscsssssssss" />
    <path
       id="path2"
       style="fill:#b6d0d5;fill-opacity:1;stroke-width:2.117;stroke-linejoin:round;stroke-miterlimit:3.1;paint-order:markers stroke fill"
       d="m 100.88879,192.07881 c -0.37743,0.009 -1.069954,0.20409 -2.43758,0.54156 -2.735251,0.67494 -6.145361,1.59836 -6.145361,1.59836 0,0 0.38758,-1.27709 0.415995,-2.05414 -3.600645,0.43414 -7.579344,1.89799 -11.350211,3.72432 -1.199204,1.3866 -2.717797,2.48862 -1.321367,2.62826 1.420912,0.14209 6.855722,-2.16704 7.35304,-2.096 0.497318,0.0711 0.639795,1.3857 1.883089,1.31465 1.243298,-0.071 5.896455,-2.09594 7.175273,-2.62878 1.278819,-0.53284 5.186482,-1.63399 4.973342,-2.45101 -0.10657,-0.40851 -0.16879,-0.58611 -0.54622,-0.57722 z" />
    <path
       style="fill:#b6d0d5;fill-opacity:1;stroke-width:2.117;stroke-linejoin:round;stroke-miterlimit:3.1;paint-order:markers stroke fill"
       d="m 76.679853,202.02186 c 0,0 -7.485282,4.97344 -8.490019,6.17913 -1.004737,1.20568 -2.411368,2.76302 -1.557343,2.66255 0.854028,-0.10047 10.72556,-8.33931 10.549731,-8.69097 -0.175829,-0.35166 -0.502369,-0.15071 -0.502369,-0.15071 z"
       id="path3" />
    <path
       style="fill:#31585f;fill-opacity:1;stroke-width:2.117;stroke-linejoin:round;stroke-miterlimit:3.1;paint-order:markers stroke fill"
       d="m 78.806952,209.20957 c 0,0 -10.372654,9.80429 -11.012064,14.84852 -0.639411,5.04424 1.847183,6.32306 3.907507,8.02815 2.060321,1.70509 2.566093,2.08718 7.187877,4.49854 4.621786,2.41137 5.726996,2.00948 5.726996,2.00948 0,0 4.169656,1.25592 6.932681,1.85876 2.763023,0.60284 6.631257,0.90426 6.631257,0.90426 0,0 1.10521,-1.45687 1.306158,-2.41137 0.200946,-0.9545 0.100473,-1.35639 0.100473,-1.35639 0,0 -1.607579,-1.65781 -7.987651,-3.11468 -6.380076,-1.45687 -7.485285,-1.3564 -7.485285,-1.3564 0,0 1.808525,-1.05497 1.054973,-2.81326 -0.753552,-1.75829 -0.401894,-1.15544 -0.401894,-1.15544 0,0 2.160182,0.60284 3.315628,-1.65782 1.155446,-2.26065 1.356395,-2.26065 1.356395,-2.26065 0,0 -0.552606,0.45213 1.054973,-0.15071 1.607577,-0.60285 1.55734,-0.85403 1.55734,-0.85403 0,0 1.004737,0.75355 3.014207,0.35166 2.009474,-0.4019 8.289077,-1.40663 8.289077,-1.40663 0,0 0.0331,3.51522 4.58003,6.57018 4.54692,3.05496 6.32306,4.19169 8.0992,2.98391 1.77614,-1.20777 2.06032,-2.3445 2.06032,-2.3445 0,0 0.49732,0.0711 0.99464,0.14209 0.49732,0.071 1.06568,-0.21314 1.06568,-0.21314 0,0 1.13674,2.13137 2.20242,2.34451 1.06568,0.21313 1.98928,-0.99464 1.98928,-0.99464 0,0 6.25201,-0.28418 5.39946,-6.03887 -0.85255,-5.7547 -1.91823,-6.96247 -1.91823,-6.96247 0,0 0.3197,-1.42091 0.24866,-1.81166 -0.071,-0.39076 -0.071,-0.39076 -0.071,-0.39076 0,0 0.76942,-0.46852 1.12107,-1.92538 0.35166,-1.45687 0.61955,-3.61617 -0.233,-4.82394 -0.85254,-1.20778 -13.00134,-6.89143 -15.84316,-6.96247 -2.84183,-0.071 -7.88606,0.35523 -7.88606,0.35523 0,0 -2.38003,-0.42627 -2.98392,-0.56837 -0.60388,-0.14209 -0.81702,-0.10657 -0.81702,-0.10657 0,0 0.85255,-1.24329 0.14209,-1.84718 -0.71046,-0.60389 -5.257371,-0.35523 -5.257371,-0.35523 0,0 1.314342,-1.81166 0.888069,-2.94839 -0.426273,-1.13673 -12.006701,2.62869 -15.772116,4.90214 -3.765415,2.27346 -2.55764,7.03352 -2.55764,7.03352 z"
       id="path5" />
    <path
       style="opacity:1;fill:#111b09;fill-opacity:1;stroke-width:2.117;stroke-linejoin:round;stroke-miterlimit:3.1;paint-order:markers stroke fill"
       d="m 139.63391,232.20367 c 0,0 2.9402,-10.17293 -1.13673,-17.05094 -6.3934,-10.78603 -20.45488,-23.58157 -34.47487,-24.15549 -12.553776,-0.5139 -25.611716,6.68311 -36.215475,13.64075 -11.497814,7.54428 -12.556424,23.03122 -11.154155,22.34383 0,0 0.248659,0 -0.852547,0.39075 -1.101206,0.39075 -1.314343,-0.14209 -1.314343,-0.14209 -0.305787,-4.09579 0.412853,-9.49727 4.020603,-14.97802 6.845119,-10.39884 20.175224,-16.64689 26.575271,-19.14023 15.834476,-6.16882 27.583716,-5.21146 40.698356,4.27911 11.34903,8.21287 14.04496,16.63648 15.13271,18.75603 1.6315,3.17909 3.0768,10.65684 0.7815,15.98526 z"
       id="path1"
       sodipodi:nodetypes="cssscscsssscc" />
    <path
       style="opacity:1;fill:#111b09;fill-opacity:1;stroke-width:2.117;stroke-linejoin:round;stroke-miterlimit:3.1;paint-order:markers stroke fill"
       d="m 67.423426,212.52876 c 0,0 -0.200947,0.5526 -0.452131,0.9545 -0.251184,0.40189 -0.351658,0.75355 -0.653079,0.70331 -0.301421,-0.0502 -1.456867,1.70806 -1.507104,2.68767 -0.05024,0.97962 -0.175829,2.93886 0.276302,2.21042 0.452132,-0.72843 1.029855,-2.61231 1.130329,-2.96397 0.100473,-0.35166 0.552604,0.0502 0.678196,0.0754 0.125592,0.0251 0.276303,-0.22607 0.47725,-0.10048 0.200947,0.12559 0.02512,0.4019 0.728434,-0.0251 0.703315,-0.42701 0.753552,-1.40663 0.929381,-1.15544 0.175828,0.25118 0.351657,0.65308 1.054972,0.5526 0.703316,-0.10047 2.135065,-1.5071 1.507105,-1.63269 -0.62796,-0.1256 -1.029855,-0.15072 -1.381512,0 -0.351658,0.15071 0.07536,-0.82891 -0.276303,-1.68294 -0.351658,-0.85402 -1.230802,-2.56207 -2.03459,-1.7834 -0.803789,0.77867 -0.47725,1.65781 -0.351658,1.73317 0.125592,0.0753 -0.125592,0.42701 -0.125592,0.42701 z"
       id="path6" />
    <path
       style="opacity:1;fill:#111b09;fill-opacity:1;stroke-width:2.117;stroke-linejoin:round;stroke-miterlimit:3.1;paint-order:markers stroke fill"
       d="m 72.271278,207.93209 c -1.657815,3.71753 -2.963972,4.27013 0.552604,2.26066 3.516577,-2.00947 8.590494,-8.84168 16.67862,-10.95163 8.088125,-2.10994 17.231228,-1.55734 17.482408,-1.40663 0.25118,0.15071 1.65782,-0.25118 0.25118,-0.70331 -1.40663,-0.45213 -8.59049,-0.9545 -12.157303,-0.55261 -12.78608,1.4407 -22.394711,10.42785 -22.807509,11.35352 z"
       id="path7"
       sodipodi:nodetypes="sscsscs" />
    <path
       style="opacity:1;fill:#111b09;fill-opacity:1;stroke-width:2.117;stroke-linejoin:round;stroke-miterlimit:3.1;paint-order:markers stroke fill"
       d="m 110.47637,196.70417 c 0,0 -1.28104,1.13032 -2.13507,2.03459 -0.85402,0.90426 -1.75828,2.13506 -0.70331,1.73317 1.05497,-0.4019 4.06918,-3.39099 3.56681,-3.66729 -0.50237,-0.2763 -0.72843,-0.10047 -0.72843,-0.10047 z"
       id="path8" />
    <path
       style="opacity:1;fill:#111b09;fill-opacity:1;stroke-width:2.117;stroke-linejoin:round;stroke-miterlimit:3.1;paint-order:markers stroke fill"
       d="m 112.51096,197.48284 c 0,0 -2.33601,1.83364 -2.81326,2.78814 -0.47725,0.9545 -0.6782,1.25592 0.10047,0.92938 0.77867,-0.32654 4.44596,-3.69241 3.61705,-3.94359 -0.82891,-0.25119 -0.90426,0.22607 -0.90426,0.22607 z"
       id="path9"
       sodipodi:nodetypes="csssc" />
    <path
       style="opacity:1;fill:#111b09;fill-opacity:1;stroke-width:2.117;stroke-linejoin:round;stroke-miterlimit:3.1;paint-order:markers stroke fill"
       d="m 112.56555,199.94898 c 0.49731,0.42627 19.75066,11.29625 20.53216,19.96381 0.7815,8.66756 1.42092,3.33914 1.42092,3.33914 0,0 0.85254,-4.8311 -3.33914,-10.37265 -4.19169,-5.54155 -11.43834,-13.35657 -14.84853,-13.42761 -3.41019,-0.071 -3.76541,0.49736 -3.76541,0.49736 z"
       id="path10"
       sodipodi:nodetypes="cscsccc" />
  </g>
</svg>
