<?xml version="1.0" encoding="UTF-8" standalone="no"?>
<!-- Created with Inkscape (http://www.inkscape.org/) -->

<svg
   width="87.272957mm"
   height="51.460026mm"
   viewBox="0 0 87.272957 51.460026"
   version="1.1"
   id="svg1"
   inkscape:version="1.3 (0e150ed6c4, 2023-07-21)"
   sodipodi:docname="front.svg"
   xmlns:inkscape="http://www.inkscape.org/namespaces/inkscape"
   xmlns:sodipodi="http://sodipodi.sourceforge.net/DTD/sodipodi-0.dtd"
   xmlns="http://www.w3.org/2000/svg"
   xmlns:svg="http://www.w3.org/2000/svg">
  <sodipodi:namedview
     id="namedview1"
     pagecolor="#ffffff"
     bordercolor="#000000"
     borderopacity="0.25"
     inkscape:showpageshadow="2"
     inkscape:pageopacity="0.0"
     inkscape:pagecheckerboard="0"
     inkscape:deskcolor="#d1d1d1"
     inkscape:document-units="mm"
     inkscape:zoom="1.8620677"
     inkscape:cx="283.01872"
     inkscape:cy="28.194464"
     inkscape:window-width="1920"
     inkscape:window-height="974"
     inkscape:window-x="-11"
     inkscape:window-y="-11"
     inkscape:window-maximized="1"
     inkscape:current-layer="layer2" />
  <defs
     id="defs1">
    <pattern
       id="EMFhbasepattern"
       patternUnits="userSpaceOnUse"
       width="6"
       height="6"
       x="0"
       y="0" />
    <pattern
       id="EMFhbasepattern-2"
       patternUnits="userSpaceOnUse"
       width="6"
       height="6"
       x="0"
       y="0" />
    <pattern
       id="EMFhbasepattern-3"
       patternUnits="userSpaceOnUse"
       width="6"
       height="6"
       x="0"
       y="0" />
  </defs>
  <g
     inkscape:label="Layer 1"
     inkscape:groupmode="layer"
     id="layer1"
     transform="translate(-22.922234,-21.567745)">
    <g
       inkscape:groupmode="layer"
       id="layer2"
       inkscape:label="Layer 2">
      <path
         style="opacity:1;fill:#7fa1a7;fill-opacity:1;stroke-width:2.117;stroke-linejoin:round;stroke-miterlimit:3.1;paint-order:markers stroke fill"
         d="m 23.711773,32.955346 c 0,0 -0.150711,-2.612316 0.301421,-3.466341 0.452131,-0.854024 0.401894,-0.200948 0.904262,-2.310892 0.502368,-2.109947 0.954499,-5.425576 1.607578,-5.576286 0.653079,-0.150711 2.813262,0.200947 3.61705,1.004736 0.803789,0.803789 2.411368,2.310893 2.411368,2.310893 0,0 0.200946,5.124155 2.009471,8.238836 1.808525,3.114683 12.860623,10.750677 19.793301,12.961096 6.932679,2.210419 15.673885,1.607579 21.501354,1.507103 5.827469,-0.100472 13.36299,-1.708049 15.472936,-3.11468 2.109946,-1.406631 7.435048,-5.023681 7.435048,-5.023681 l 3.255878,-4.496186 c 0,0 3.09405,-0.660217 4.33735,0.83174 1.2433,1.491956 1.59496,2.045607 1.59496,2.045607 0,0 -2.1048,9.204597 -2.75788,11.063358 -0.65307,1.858762 -11.956358,14.166779 -11.956358,14.166779 0,0 -13.965833,7.334575 -16.779092,8.03789 C 73.647159,71.838634 52.949593,70.33153 48.327807,68.121108 43.706023,65.910689 35.969553,61.590324 34.060556,59.379905 32.151555,57.169486 27.429296,51.44249 26.525034,48.830176 25.620771,46.217863 23.58713,36.339811 23.58713,35.132036 c 0,-1.207775 0.124643,-2.17669 0.124643,-2.17669 z"
         id="path2"
         sodipodi:nodetypes="csscscssssccscscsssssc" />
      <path
         style="opacity:1;fill:#447983;fill-opacity:1;stroke-width:2.117;stroke-linejoin:round;stroke-miterlimit:3.1;paint-order:markers stroke fill"
         d="m 23.962957,32.653925 c 0,0 -1.155447,7.183863 1.356393,13.212281 2.51184,6.028414 4.923207,10.700437 8.540257,13.463463 3.61705,2.763025 8.741204,7.334572 9.946889,6.480547 1.205682,-0.854024 3.164919,-2.310891 1.255919,-2.712786 -1.908998,-0.401896 -5.023681,-2.763025 -5.274863,-3.868234 -0.251185,-1.10521 0.502367,-0.854028 -0.301422,-1.255922 -0.803788,-0.401894 -5.425574,-3.365865 -6.63126,-5.475811 -1.205682,-2.109946 -3.617049,-4.471075 -2.160182,-4.018944 1.456867,0.45213 5.073917,2.310892 5.626523,3.014207 0.552606,0.703316 1.255922,1.004737 1.255922,1.004737 l 0.05024,-0.854025 c 0,0 -1.406631,-1.858764 -1.758288,-3.315631 -0.351658,-1.456867 -0.48981,-2.248096 -0.175829,-2.147623 0.313978,0.100473 1.306155,0.665639 1.469427,0.879144 0.163269,0.213508 0.45213,0.200949 0.502367,-0.01257 0.05024,-0.213505 0.03768,-0.125589 -0.163269,-0.313978 -0.200949,-0.188389 0.200945,-0.01257 -0.100473,-0.414454 -0.301422,-0.401894 -1.620139,-1.456867 -2.788145,-1.657815 -1.168006,-0.200946 -1.985478,-0.0439 -2.216378,-0.0084 -0.230899,0.03552 -3.711564,-6.773592 -5.168431,-7.878802 -1.456868,-1.105209 -3.265393,-4.119417 -3.265393,-4.119417 z"
         id="path3" />
      <path
         style="opacity:1;fill:#447983;fill-opacity:1;stroke-width:2.117;stroke-linejoin:round;stroke-miterlimit:3.1;paint-order:markers stroke fill"
         d="m 40.495976,48.648455 c 0,0 3.765415,2.184652 6.536193,3.214812 2.770777,1.030163 5.399463,0.959117 5.363943,0.461799 -0.03552,-0.497319 0.248658,-0.781503 -0.142092,-0.852549 -0.390753,-0.07105 -1.101207,-0.03552 -2.415551,-0.461796 -1.314341,-0.426272 -6.038874,-2.344504 -6.78485,-2.45107 -0.74598,-0.106569 -2.557643,0.0888 -2.557643,0.0888 z"
         id="path4" />
      <path
         style="opacity:1;fill:#447983;fill-opacity:1;stroke-width:2.117;stroke-linejoin:round;stroke-miterlimit:3.1;paint-order:markers stroke fill"
         d="m 73.697395,58.827301 c 0,0 0.502367,0.401895 0.904264,0.803789 0.401894,0.401894 1.255919,0.602842 1.255919,0.602842 0,0 -4.270129,1.10521 -5.978181,1.607577 -1.708049,0.502367 -2.66255,0.401894 -2.51184,1.306158 0.150712,0.904261 0.351657,2.160182 1.858764,2.260655 1.507103,0.100473 9.092861,-0.251184 9.092861,-0.251184 0,0 -1.708052,1.758288 -1.708052,2.361131 0,0.602839 0.9545,2.612313 0.9545,2.612313 0,0 9.143098,-2.210419 11.906123,-4.018944 2.763025,-1.808525 4.471075,-3.114683 7.736467,-6.530785 3.26539,-3.416104 8.23884,-12.25778 8.23884,-12.25778 l 1.80852,-8.037891 c 0,0 -2.05971,-1.10521 -3.71752,0.05024 -1.65782,1.155449 -4.471076,4.270129 -4.722261,5.526051 -0.251185,1.255919 0.200946,1.255919 0.200946,1.255919 0,0 -5.676757,4.471077 -8.037888,5.02368 -2.361131,0.552607 -6.229364,1.959237 -7.284337,2.511841 -1.054973,0.552606 -3.416104,0.9545 -2.059709,1.105209 1.356394,0.150712 4.018944,0.904264 7.68623,-0.904261 3.667289,-1.808525 6.681496,-3.164919 6.681496,-3.164919 0,0 -1.657815,1.858761 -3.717522,2.913734 -2.05971,1.054973 -5.22463,1.758289 -4.471078,1.959237 0.753552,0.200946 3.114683,0.100473 4.11942,0.60284 1.004736,0.50237 1.908998,1.255922 1.155446,2.763025 -0.753552,1.507104 -1.054973,1.507104 -1.306158,1.657816 -0.251182,0.150709 -1.858762,1.858761 -3.315629,1.758286 -1.456867,-0.100473 -1.105209,-0.552604 -2.763025,-0.351658 -1.657813,0.200949 -1.921558,0.452133 -2.285772,0.150712 -0.364218,-0.301421 -0.427014,-0.640519 -0.653079,-0.854027 -0.226066,-0.213506 -0.427014,-0.715873 -0.288862,-0.866585 0.13815,-0.150709 0.540044,-0.640519 0.728432,-0.640519 0.188389,0 0.48981,0.01257 0.175829,-0.150709 -0.313978,-0.163269 -0.766111,-0.96706 -0.816348,-1.130329 -0.05024,-0.163269 -1.678805,-0.101299 -2.566876,-0.03025 -0.888069,0.07104 -5.292894,-0.177613 -5.292894,-0.177613 z"
         id="path5" />
      <path
         style="opacity:1;fill:#b6d0d5;fill-opacity:1;stroke-width:2.117;stroke-linejoin:round;stroke-miterlimit:3.1;paint-order:markers stroke fill"
         d="m 67.990613,51.721178 c 0,0 4.120645,1.491956 6.536193,1.491956 2.41555,0 10.798926,-1.77614 13.853887,-2.699731 3.054959,-0.923592 10.656835,-4.546918 11.225199,-6.252012 0.568368,-1.705094 1.491958,-2.841821 -0.07104,-2.131367 -1.563005,0.710457 -11.509383,6.038874 -12.361931,6.465147 -0.852546,0.426275 0.07105,0.142092 -0.923592,0.426275 -0.994637,0.284181 -9.662199,1.491957 -10.585791,1.349865 -0.923591,-0.142092 -8.276809,0.710456 -8.116956,0.994637 0.159853,0.284184 0.444034,0.35523 0.444034,0.35523 z"
         id="path6" />
      <path
         style="opacity:1;fill:#b6d0d5;fill-opacity:1;stroke-width:2.117;stroke-linejoin:round;stroke-miterlimit:3.1;paint-order:markers stroke fill"
         d="m 64.453822,50.437753 c -0.879144,0.07536 -3.667286,0.02511 -4.420838,0.326541 -0.753552,0.301421 -0.452131,1.883878 1.406631,2.260655 1.858761,0.376778 2.712786,0.703316 2.98909,0.200949 0.276302,-0.50237 0.376775,-0.904264 0.502367,-0.904264 0.125593,0 1.481987,-0.05024 1.356395,-0.627959 -0.125593,-0.577723 -0.477251,-0.778672 -0.904264,-0.979618 -0.427011,-0.200948 -0.929381,-0.276304 -0.929381,-0.276304 z"
         id="path7" />
      <path
         style="opacity:1;fill:#b6d0d5;fill-opacity:1;stroke-width:2.117;stroke-linejoin:round;stroke-miterlimit:3.1;paint-order:markers stroke fill"
         d="m 30.407506,26.606568 c 0,0 -1.349867,2.735255 -0.319706,5.932305 1.03016,3.197051 1.243298,3.907507 2.060321,4.617961 0.817025,0.710457 1.953755,2.16689 2.131369,1.77614 0.177612,-0.39075 -0.745979,-3.445711 -1.527482,-4.440349 -0.781499,-0.994637 -1.740617,-5.008713 -1.740617,-6.00335 0,-0.994638 -0.426272,-1.811663 -0.603885,-1.882707 z"
         id="path8" />
      <path
         style="opacity:1;fill:#b6d0d5;fill-opacity:1;stroke-width:2.117;stroke-linejoin:round;stroke-miterlimit:3.1;paint-order:markers stroke fill"
         d="m 104.5428,34.763871 c 0,0 -1.93412,4.295246 -2.71279,4.797615 -0.77867,0.502367 -1.00474,0.452131 -1.00474,0.778669 0,0.326541 -0.10047,0.828908 0.82891,1.004737 0.92938,0.175829 2.88862,-1.632696 3.56681,-3.1398 0.6782,-1.507104 1.28104,-3.390985 1.28104,-3.390985 -0.75797,-0.226536 -1.81474,-1.05066 -1.95923,-0.05024 z"
         id="path9"
         sodipodi:nodetypes="csssscc" />
    </g>
    <g
       inkscape:groupmode="layer"
       id="g1"
       inkscape:label="Layer 2">
      <path
         style="opacity:1;fill:#111b09;fill-opacity:1;stroke-width:2.117;stroke-linejoin:round;stroke-miterlimit:3.1;paint-order:markers stroke fill"
         d="m 23.036527,30.673926 c 0,0 -0.799263,11.704759 1.829424,17.139745 2.628686,5.434986 8.692235,16.690388 19.041018,20.809807 10.348782,4.119417 11.253043,3.014207 13.262517,3.516577 2.009473,0.502367 15.472936,2.210419 24.816982,-1.105209 9.344046,-3.315632 17.582883,-12.860623 20.396142,-15.774358 2.81326,-2.913734 6.53079,-10.750677 6.53079,-13.463466 0,-2.712786 1.58246,-6.957798 1.2308,-6.932678 -0.35166,0.02511 -1.909,0.07536 -2.08483,0.703315 -0.17583,0.62796 -3.24027,6.103771 -4.21989,7.083391 -0.97962,0.979617 -1.93412,2.310892 -2.51184,3.014207 -0.57772,0.703316 -2.562078,3.591933 -2.763026,3.416104 -0.200946,-0.175829 1.532226,-2.310894 1.205685,-2.135065 -0.326541,0.175828 -0.854027,1.230801 -1.657815,1.908997 -0.803789,0.678199 -1.029854,0.653079 -1.632697,1.130329 -0.602842,0.477251 -2.637432,2.21042 -2.763025,2.562077 -0.125592,0.351658 -0.150709,0.678199 0.47725,0.276302 0.62796,-0.401894 6.354958,-3.968708 7.862058,-5.701877 1.50711,-1.733169 3.91847,-4.245009 3.91847,-4.245009 0,0 -1.13032,5.450692 -3.16492,8.163481 -2.03459,2.712788 -2.26065,3.566813 -2.76302,4.06918 -0.502369,0.50237 -10.458131,11.8862 -20.049285,13.591294 -9.591151,1.705094 -20.39008,0.7815 -25.647451,-0.497319 C 49.092492,66.92493 37.298926,62.804288 32.325736,55.983912 27.352545,49.163536 25.721245,44.786113 25.495179,42.600813 c -0.226065,-2.185302 -1.130328,-7.786706 -0.753552,-7.535521 0.376776,0.251182 1.205684,2.612313 2.160182,4.471075 0.9545,1.858761 1.858764,2.637433 1.858764,2.637433 0,0 -0.427014,0.577723 0.175826,0.427013 0.602843,-0.150712 2.185303,-1.155448 1.532224,-1.733171 -0.653079,-0.577723 -2.486721,-4.420839 -3.541694,-6.606141 -1.054974,-2.185299 -0.929382,-4.395718 -1.155447,-4.471074 -0.226066,-0.07536 -1.682933,0.01257 -2.147624,0.150709 -0.46469,0.138152 -0.587331,0.73279 -0.587331,0.73279 z"
         id="path10" />
      <path
         style="opacity:1;fill:#111b09;fill-opacity:1;stroke-width:2.117;stroke-linejoin:round;stroke-miterlimit:3.1;paint-order:markers stroke fill"
         d="m 44.545575,55.273455 c 0,0 10.301607,3.694372 18.898121,4.475872 8.596516,0.781502 18.791555,-2.273459 17.477213,-2.095844 -1.314344,0.177615 -3.623326,0.177615 -5.221851,-0.355227 -1.598525,-0.532842 -1.811663,-0.781503 -2.699731,-0.497322 -0.888069,0.284184 -8.347856,1.456436 -14.102546,-0.177612 -5.754693,-1.634048 -6.820376,-1.77614 -9.022789,-1.634048 -2.202413,0.142092 -5.328417,0.284181 -5.328417,0.284181 z"
         id="path11" />
      <path
         style="opacity:1;fill:#111b09;fill-opacity:1;stroke-width:2.117;stroke-linejoin:round;stroke-miterlimit:3.1;paint-order:markers stroke fill"
         d="m 32.396781,23.83579 c 0,0 -1.341187,6.317306 1.456434,10.550267 2.779823,4.206031 15.024625,15.68565 36.481903,15.061662 19.842207,-0.577021 14.163191,-2.149766 15.017215,-2.250239 0.854028,-0.100473 1.356395,-0.05024 2.109947,-0.175828 0.753551,-0.125593 7.183863,-3.215156 8.389548,-4.219893 1.205682,-1.004737 1.255919,-1.406631 2.310892,-2.310892 1.054973,-0.904264 2.21042,-1.909 2.76303,-2.763025 0.5526,-0.854025 2.71278,-4.973444 2.91373,-6.380075 0.20095,-1.406631 -0.91221,-1.366536 -1.33848,-0.691603 -0.42627,0.674934 0.071,1.474195 -0.74598,2.55764 -0.81702,1.083448 -0.37299,1.26106 -0.81702,1.829425 -0.44404,0.568364 -2.89511,3.960791 -2.89511,3.960791 0,0 -1.847183,0.639411 -2.983912,1.456433 -9.366537,7.567962 -24.325497,7.427357 -35.679073,4.953619 -2.260656,-0.753552 -10.951623,-2.662549 -12.961096,-3.918471 -2.009471,-1.255919 -7.033151,-5.17439 -9.143098,-7.334573 -2.109946,-2.160182 -4.119419,-6.12889 -4.169656,-8.188599 -0.05024,-2.059709 0.163269,-2.336011 -0.113032,-2.398808 -0.276302,-0.0628 -0.596242,0.262169 -0.596242,0.262169 z"
         id="path12"
         sodipodi:nodetypes="cssssssssscscssssccc" />
    </g>
  </g>
</svg>
