<?xml version="1.0" encoding="UTF-8" standalone="no"?>
<!-- Created with Inkscape (http://www.inkscape.org/) -->

<svg
   width="21.799829mm"
   height="19.784498mm"
   viewBox="0 0 21.799829 19.784498"
   version="1.1"
   id="svg1"
   inkscape:version="1.3 (0e150ed6c4, 2023-07-21)"
   sodipodi:docname="particle_02.svg"
   xmlns:inkscape="http://www.inkscape.org/namespaces/inkscape"
   xmlns:sodipodi="http://sodipodi.sourceforge.net/DTD/sodipodi-0.dtd"
   xmlns="http://www.w3.org/2000/svg"
   xmlns:svg="http://www.w3.org/2000/svg">
  <sodipodi:namedview
     id="namedview1"
     pagecolor="#ffffff"
     bordercolor="#000000"
     borderopacity="0.25"
     inkscape:showpageshadow="2"
     inkscape:pageopacity="0.0"
     inkscape:pagecheckerboard="0"
     inkscape:deskcolor="#d1d1d1"
     inkscape:document-units="mm"
     inkscape:zoom="0.65834035"
     inkscape:cx="-200.50419"
     inkscape:cy="-245.31384"
     inkscape:window-width="1920"
     inkscape:window-height="974"
     inkscape:window-x="-11"
     inkscape:window-y="-11"
     inkscape:window-maximized="1"
     inkscape:current-layer="svg1" />
  <defs
     id="defs1">
    <pattern
       id="EMFhbasepattern"
       patternUnits="userSpaceOnUse"
       width="6"
       height="6"
       x="0"
       y="0" />
  </defs>
  <g
     inkscape:groupmode="layer"
     id="layer3"
     inkscape:label="Layer 2"
     transform="translate(-68.565279,-149.57148)">
    <g
       inkscape:groupmode="layer"
       id="layer4"
       inkscape:label="Layer 3">
      <path
         style="opacity:1;fill:#fbebb6;fill-opacity:1;stroke-width:2.117;stroke-linejoin:round;stroke-miterlimit:3.1;paint-order:markers stroke fill"
         d="m 73.747632,154.02605 c 0,0 -7.987652,3.81799 -3.566814,8.89191 4.420838,5.07392 6.430312,4.27013 7.183864,4.62179 0.753551,0.35165 3.416101,1.25592 6.078653,0.90426 2.66255,-0.35166 6.078654,-2.00947 6.078654,-5.27486 0,-3.2654 -3.315631,-6.32984 -3.315631,-6.32984 0,0 -0.502367,-4.42084 -2.411365,-5.02368 -1.909,-0.60284 -3.767762,-1.20569 -5.325102,-1.45687 -1.55734,-0.25118 -1.657815,-0.85403 -3.215156,0.60284 -1.55734,1.45687 -1.507103,3.06445 -1.507103,3.06445 z"
         id="path2" />
      <path
         style="opacity:1;fill:#e6c07e;fill-opacity:1;stroke-width:2.117;stroke-linejoin:round;stroke-miterlimit:3.1;paint-order:markers stroke fill"
         d="m 82.466147,156.44235 c -0.639408,-0.37299 -1.314341,0 -1.722855,0.17761 -0.408512,0.17762 -1.847184,0.39075 -2.113606,1.74062 -0.266419,1.34987 0.390753,1.88271 0.266422,2.32674 -0.12433,0.44404 -0.781502,1.7051 -0.976876,1.82943 -0.195376,0.12433 -0.177614,0.12433 -0.426275,-0.0711 -0.248658,-0.19537 -0.763738,-1.13673 -1.740614,-0.99464 -0.976879,0.14209 -1.65181,-0.65717 -2.291221,0.6927 -0.63941,1.34986 0.355227,2.22017 0.355227,2.48659 0,0.26642 -0.461796,0.37299 0.337468,0.81703 0.799262,0.44403 1.491957,0.85254 3.516755,0.7815 2.024798,-0.0711 2.486596,-1.63405 2.610924,-1.0124 0.12433,0.62165 -0.213135,1.70509 0.888071,2.43331 1.101207,0.72822 3.765415,-0.12433 3.765415,-0.12433 l 1.648153,-1.29187 c 0,0 1.004737,-0.57772 0.251185,-2.23554 -0.753552,-1.65781 -2.160183,-2.03459 -2.913734,-2.03459 -0.753555,0 -1.356395,-0.25118 -1.004737,-0.47725 l 0.527486,-0.72843 c 0.502367,-0.37678 0.979618,-1.02986 1.507104,-1.28104 0.527487,-0.25118 1.255919,-0.52749 1.255919,-0.52749 l -1.054973,-1.48198 c 0,0 -1.068951,0.8045 -1.317609,0.98212 -0.248661,0.17761 -0.39075,0.42627 -0.417394,0.30194 0.06042,-0.76964 0.369605,-1.53929 -0.950235,-2.30893 z"
         id="path3"
         sodipodi:nodetypes="csssscsssscssccssccsccscc" />
      <path
         style="opacity:1;fill:#e6c07e;fill-opacity:1;stroke-width:2.117;stroke-linejoin:round;stroke-miterlimit:3.1;paint-order:markers stroke fill"
         d="m 73.390076,154.09785 c 0,0 0.763741,1.563 1.065684,1.81166 0.301942,0.24866 0.51508,0.60389 0.674933,1.06568 0.159851,0.4618 0.230897,1.17225 0.355227,-0.46179 0.124331,-1.63405 0.515081,-3.05496 1.278822,-3.99632 0.763738,-0.94135 2.380025,-1.74061 2.220174,-1.77614 -0.159853,-0.0355 -1.118968,-0.19537 -2.380028,0.10657 -1.261059,0.30195 -3.214812,3.25034 -3.214812,3.25034 z"
         id="path4" />
    </g>
    <g
       inkscape:groupmode="layer"
       id="g2"
       inkscape:label="Layer 3">
      <path
         style="opacity:1;fill:#111b09;fill-opacity:1;stroke-width:2.117;stroke-linejoin:round;stroke-miterlimit:3.1;paint-order:markers stroke fill"
         d="m 73.395974,154.52841 c 0,0 -5.726996,3.61705 -2.612313,7.53553 3.11468,3.91847 4.06918,3.16492 5.274863,3.76776 1.205685,0.60284 2.51184,2.26065 6.078654,1.80852 3.566813,-0.45213 5.274865,-2.16018 5.827469,-3.818 0.552606,-1.65781 -0.803789,-3.49145 -1.481985,-4.29524 -0.678198,-0.80379 -2.336011,-2.73791 -1.984353,-3.03933 0.351657,-0.30142 2.963971,0.2763 3.290509,0.55261 0.32654,0.2763 4.797615,6.45543 1.155446,9.59523 -3.642167,3.1398 -4.822733,2.71278 -7.083388,2.68767 -2.260656,-0.0251 -3.190039,-1.13033 -3.491458,-1.13033 -0.301421,0 -3.114683,0.5526 -5.777232,-1.60758 -2.662553,-2.16018 -4.822735,-4.89809 -3.742643,-8.4649 1.08009,-3.56682 3.692404,-4.37061 3.968708,-4.37061 0.276302,0 0.427011,-0.0251 0.427011,-0.0251 0,0 0.100476,-0.25118 -0.02511,-0.47725 -0.125592,-0.22606 -0.200948,-1.70805 1.456867,-2.63743 1.657813,-0.92938 3.16492,-1.33127 5.299983,-0.80379 2.135066,0.52749 1.883881,0.90427 2.461604,0.87915 0.577723,-0.0251 1.155446,-0.0754 1.808525,0.30142 0.653079,0.37677 1.657815,0.57772 2.587196,2.53696 0.929381,1.95923 0.427011,3.79287 0.427011,3.79287 l -0.703315,-0.17582 c 0,0 -0.202123,-0.23659 -1.232284,-1.60421 -1.03016,-1.36763 -2.468832,-2.69973 -2.788539,-2.68197 -0.319704,0.0178 -1.332103,0.21313 -1.687332,0.37299 -0.355227,0.15985 -0.230897,0.35522 -0.230897,0.35522 0,0 -0.852548,-0.3197 -0.888071,-0.65717 -0.03552,-0.33746 0.657172,-1.03016 0.657172,-1.03016 0,0 -2.895108,-1.50972 -4.280496,0 -1.38539,1.50972 -1.598525,2.52212 -1.935993,2.59317 -0.337465,0.071 -0.775602,0.0398 -0.775602,0.0398 z"
         id="path5" />
    </g>
  </g>
</svg>
