<?xml version="1.0" encoding="UTF-8" standalone="no"?>
<!-- Created with Inkscape (http://www.inkscape.org/) -->

<svg
   width="66.096565mm"
   height="49.719936mm"
   viewBox="0 0 66.096565 49.719936"
   version="1.1"
   id="svg1"
   inkscape:version="1.3 (0e150ed6c4, 2023-07-21)"
   sodipodi:docname="spice.svg"
   xmlns:inkscape="http://www.inkscape.org/namespaces/inkscape"
   xmlns:sodipodi="http://sodipodi.sourceforge.net/DTD/sodipodi-0.dtd"
   xmlns="http://www.w3.org/2000/svg"
   xmlns:svg="http://www.w3.org/2000/svg">
  <sodipodi:namedview
     id="namedview1"
     pagecolor="#ffffff"
     bordercolor="#000000"
     borderopacity="0.25"
     inkscape:showpageshadow="2"
     inkscape:pageopacity="0.0"
     inkscape:pagecheckerboard="0"
     inkscape:deskcolor="#d1d1d1"
     inkscape:document-units="mm"
     inkscape:zoom="0.23275846"
     inkscape:cx="870.00059"
     inkscape:cy="148.22232"
     inkscape:window-width="1920"
     inkscape:window-height="974"
     inkscape:window-x="-11"
     inkscape:window-y="-11"
     inkscape:window-maximized="1"
     inkscape:current-layer="svg1" />
  <defs
     id="defs1">
    <pattern
       id="EMFhbasepattern"
       patternUnits="userSpaceOnUse"
       width="6"
       height="6"
       x="0"
       y="0" />
  </defs>
  <g
     inkscape:label="Layer 1"
     inkscape:groupmode="layer"
     id="layer1"
     transform="translate(-36.733662,-208.67502)">
    <g
       inkscape:groupmode="layer"
       id="layer3"
       inkscape:label="Layer 2">
      <path
         style="opacity:1;fill:#fbebb6;fill-opacity:1;stroke-width:2.117;stroke-linejoin:round;stroke-miterlimit:3.1;paint-order:markers stroke fill"
         d="m 38.707459,234.68124 c -0.301421,-0.47725 -1.381511,-2.16018 0.452131,-3.86824 1.833644,-1.70805 3.868234,-1.88387 3.868234,-1.88387 l 2.461604,-4.84786 c 0,0 -2.637432,-2.21042 -1.657815,-3.6924 0.979617,-1.48199 5.199509,-2.1853 5.199509,-2.1853 0,0 9.117981,-6.38008 10.750677,-6.48055 1.632696,-0.10048 3.466341,-0.50237 6.254483,-1.58246 2.788142,-1.08009 6.932678,-0.65308 7.68623,0.77867 0.753552,1.43175 1.306158,2.51184 1.306158,2.51184 0,0 1.55734,-0.40189 3.089563,1.5071 1.532224,1.909 5.475812,3.64217 5.475812,3.64217 0,0 3.089563,-2.7379 4.395721,-0.67819 1.306155,2.0597 0.577723,5.55116 0.577723,5.55116 0,0 3.22339,4.60298 6.349397,6.02389 3.126004,1.42091 6.394104,3.05496 5.257374,4.97319 -1.136732,1.91823 -3.552283,2.98391 -2.486599,3.97855 1.065686,0.99464 5.328419,0.35523 3.339139,5.04424 -1.989272,4.68901 -4.191685,4.19168 -5.115277,5.54155 -0.923594,1.34987 -1.136729,6.82037 -6.891422,7.67292 -5.75469,0.85255 -4.760052,-0.35522 -5.967828,0.071 -1.207775,0.42627 -6.109919,0.85254 -10.656834,0.071 -4.546918,-0.7815 -7.815014,-1.563 -12.077748,-1.98927 -4.262733,-0.42628 -9.093834,-0.99464 -12.930295,-3.55228 -3.836461,-2.55764 -5.612599,-4.61796 -6.323055,-5.18633 -0.710457,-0.56836 -4.33378,-2.98391 -3.907507,-5.11528 0.426273,-2.13136 1.563002,-1.77614 1.563002,-1.77614 z"
         id="path2" />
      <path
         style="opacity:1;fill:#e6c07e;fill-opacity:1;stroke-width:2.117;stroke-linejoin:round;stroke-miterlimit:3.1;paint-order:markers stroke fill"
         d="m 96.806326,237.92151 c 0,0 1.858761,-0.80379 -0.05024,-1.55734 -1.909,-0.75355 -3.064446,-1.85876 -5.626523,-0.40189 -2.562077,1.45686 -5.325102,4.01894 -5.978181,3.66728 -0.653076,-0.35165 -2.51184,-3.4161 -5.676757,-2.00947 -3.164919,1.40663 -4.822735,3.11468 -5.124156,3.46634 -0.301419,0.35166 -0.502367,0.75356 -0.502367,0.75356 0,0 1.004736,-1.20569 -2.712787,1.5071 -3.717525,2.71278 1.40221,8.58051 0.407573,8.50946 -0.994638,-0.071 -4.831099,-3.9075 -6.607239,-1.563 -1.776137,2.3445 -1.136729,4.19169 -0.7815,4.33378 0.355227,0.14209 8.951741,1.98928 11.047587,2.13137 2.095844,0.14209 9.235924,-0.4618 9.235924,-0.4618 0,0 1.953753,0.14209 3.800938,-0.10657 1.847184,-0.24866 3.019436,-0.53284 3.800938,-1.13673 0.7815,-0.60388 2.355419,-2.91507 2.355419,-2.91507 l 1.406631,-4.21989 c 0,0 0.753552,-1.909 -1.255919,-2.81326 -2.009473,-0.90427 -3.114683,-3.01421 -1.004737,-3.71753 2.109947,-0.70331 3.265393,-3.46634 3.265393,-3.46634 z"
         id="path4" />
      <path
         style="opacity:1;fill:#e6c07e;fill-opacity:1;stroke-width:2.117;stroke-linejoin:round;stroke-miterlimit:3.1;paint-order:markers stroke fill"
         d="m 45.79085,224.33246 c 0,0 1.607576,1.83364 2.737905,1.55734 1.130327,-0.2763 1.858762,-1.15545 1.758289,-0.47725 -0.100476,0.67819 0.653076,1.95923 -2.05971,3.56681 -2.712789,1.60758 -4.420838,1.20568 -4.420838,1.20568 0,0 0.753552,-3.46633 1.155446,-4.29524 0.401894,-0.82891 0.828908,-1.55734 0.828908,-1.55734 z"
         id="path5" />
      <path
         style="opacity:1;fill:#e6c07e;fill-opacity:1;stroke-width:2.117;stroke-linejoin:round;stroke-miterlimit:3.1;paint-order:markers stroke fill"
         d="m 61.18843,220.08745 c -0.401894,0.15071 -2.411368,-1.75829 -4.973444,1.70805 -2.562077,3.46634 -4.119417,6.17913 -1.456868,7.63599 2.66255,1.45687 6.329839,1.00474 6.128891,1.00474 -0.200946,0 -4.923208,-0.70332 -4.169656,3.01421 0.753554,3.71752 2.612316,5.62652 4.320365,5.92794 1.708052,0.30142 11.654941,-4.97344 11.253046,-7.93741 -0.401894,-2.96398 -2.109946,-2.96398 -3.064446,-1.85877 -0.954498,1.10521 -3.868235,3.31563 -5.124154,3.818 -1.255918,0.50237 -2.662549,0.55261 -2.662549,0.55261 l 0.351657,-5.57629 c 0,0 1.205683,-2.66255 2.21042,-5.27487 1.004736,-2.61231 2.00947,-4.62178 2.612313,-5.67675 0.602842,-1.05498 2.310892,-3.46634 1.55734,-3.86824 -0.753552,-0.40189 -2.863498,-0.90426 -4.018944,0.70332 -1.155446,1.60757 -2.963971,5.82747 -2.963971,5.82747 z"
         id="path6" />
      <path
         style="opacity:1;fill:#e6c07e;fill-opacity:1;stroke-width:2.117;stroke-linejoin:round;stroke-miterlimit:3.1;paint-order:markers stroke fill"
         d="m 88.984578,232.46111 c 0,0 2.622238,0.26089 1.893803,1.56705 -0.728432,1.30616 -0.929381,1.88388 -1.481984,1.75829 -0.552606,-0.12559 -4.144537,-3.39099 -3.61705,-3.96871 0.527487,-0.57772 1.632696,-0.60284 2.009471,-0.30142 0.376777,0.30142 1.19576,0.94479 1.19576,0.94479 z"
         id="path7" />
      <path
         style="opacity:1;fill:#e6c07e;fill-opacity:1;stroke-width:2.117;stroke-linejoin:round;stroke-miterlimit:3.1;paint-order:markers stroke fill"
         d="m 77.972517,225.56969 c 0,0 1.065683,4.5114 3.232573,5.79022 2.16689,1.27882 2.095844,1.03016 2.628686,0.14209 0.532842,-0.88807 1.42091,-3.2681 0.63941,-3.2681 -0.781502,0 -1.03016,-0.14209 -1.03016,-0.14209 0,0 0.106566,0.14209 -0.213138,-1.52748 -0.319704,-1.66957 1.491956,-7.10456 1.491956,-7.10456 0,0 -2.948389,-2.13136 -4.333779,-2.84182 -1.385388,-0.71045 -3.090482,-3.83646 -4.298257,-3.16153 -1.207775,0.67494 -1.77614,4.33378 -1.77614,4.33378 0,0 1.491956,2.8063 2.237936,3.12601 0.745979,0.3197 0.852548,0.3197 0.852548,0.3197 0,0 -0.355229,0.10657 -0.426275,0.53284 -0.07105,0.42628 -0.106567,0.4618 -0.106567,0.4618 0,0 -0.888071,-0.39075 -3.232575,0.17762 -2.344502,0.56836 -3.516755,1.24329 -4.262734,1.42091 -0.745977,0.17761 -1.207776,-0.0711 -0.568365,1.31434 0.639411,1.38539 0.639411,1.70509 2.16689,1.95375 1.527482,0.24866 5.790216,0.31971 6.35858,-0.39075 0.568365,-0.71045 0.639411,-1.13673 0.639411,-1.13673 z"
         id="path8" />
      <path
         style="opacity:1;fill:#eb9d8b;fill-opacity:1;stroke-width:2.117;stroke-linejoin:round;stroke-miterlimit:3.1;paint-order:markers stroke fill"
         d="m 59.252008,234.628 c 0,0 0.852546,1.06569 2.273459,0.88807 1.42091,-0.17761 3.268096,-4.65348 4.760052,-5.71917 1.491957,-1.06568 2.486594,-1.1012 1.918229,-1.81166 -0.568364,-0.71045 -5.115279,-3.2681 -5.115279,-3.2681 0,0 -2.202413,1.17226 -3.978553,3.48124 -1.77614,2.30898 -1.918229,4.689 -1.918229,4.689 z"
         id="path21" />
      <path
         id="path24"
         style="opacity:1;fill:#e05439;fill-opacity:1;stroke-width:2.117;stroke-linejoin:round;stroke-miterlimit:3.1;paint-order:markers stroke fill"
         d="m 60.033545,227.39904 c 0,0 -0.241102,0.13235 -0.571541,0.36329 -0.118577,0.14073 -0.236231,0.28575 -0.351917,0.43614 -0.751493,0.97694 -1.208313,1.96451 -1.487764,2.78123 0.26099,1.27593 1.263536,2.98806 1.769917,3.79718 0.293706,0.28519 1.044782,0.87503 2.133204,0.73898 1.137084,-0.14214 2.546671,-3.03354 3.829223,-4.73046 -0.853542,0.36001 -1.430482,0.33299 -3.278353,-0.47336 -1.953753,-0.85254 -2.042769,-2.913 -2.042769,-2.913 z" />
      <path
         style="opacity:1;fill:#eb9d8b;fill-opacity:1;stroke-width:2.117;stroke-linejoin:round;stroke-miterlimit:3.1;paint-order:markers stroke fill"
         d="m 74.903078,221.1173 c 0,0 1.708052,0.57773 3.365865,0.50237 1.657815,-0.0754 1.833644,-4.89809 1.833644,-4.89809 0,0 -2.336011,-2.16018 -2.813261,-2.43648 -0.47725,-0.27631 -2.712786,-0.9545 -2.863498,-0.45214 -0.15071,0.50237 -0.452131,2.41137 -0.452131,2.41137 l -0.301421,0.25119 c 0,0 0.678196,0.57772 1.155446,1.95923 0.47725,1.38151 0.07536,2.66255 0.07536,2.66255 z"
         id="path22" />
      <path
         style="opacity:1;fill:#e05439;fill-opacity:1;stroke-width:2.117;stroke-linejoin:round;stroke-miterlimit:3.1;paint-order:markers stroke fill"
         d="m 74.988602,221.30696 c 0,0 2.397789,0.74598 3.534518,0.44403 1.136727,-0.30194 1.740614,-4.54691 1.740614,-4.54691 0,0 -0.177612,-0.7815 -0.710453,-0.51508 -0.532842,0.26642 -0.834787,0.58612 -0.852549,0.65717 -0.01775,0.071 -0.07105,-0.33747 -1.261057,-0.33747 -1.190014,0 -1.77614,0.24866 -1.77614,0.24866 z"
         id="path23" />
      <path
         style="opacity:1;fill:#b5e05c;fill-opacity:1;stroke-width:2.117;stroke-linejoin:round;stroke-miterlimit:3.1;paint-order:markers stroke fill"
         d="m 66.563768,218.85664 c 0,0 4.772496,3.71753 5.325102,2.08483 0.552604,-1.63269 2.361129,-3.91847 2.235536,-3.9687 -0.125592,-0.0502 -5.526047,-2.51184 -5.526047,-2.51184 z"
         id="path25" />
      <path
         style="opacity:1;fill:#b5e05c;fill-opacity:1;stroke-width:2.117;stroke-linejoin:round;stroke-miterlimit:3.1;paint-order:markers stroke fill"
         d="m 54.732999,234.75659 c 0,0 1.080092,-0.35165 0.97962,-1.65781 -0.100476,-1.30616 -1.004737,-2.43649 -1.054974,-3.1398 -0.05024,-0.70332 -0.401894,-2.8635 -0.703315,-3.31563 -0.301421,-0.45213 -1.58246,-1.30616 -1.58246,-1.30616 0,0 -3.792878,7.35969 -3.94359,8.06301 -0.15071,0.70332 -0.301419,1.2308 0,1.45687 0.301421,0.22606 0.803791,2.33601 2.98909,1.73317 2.185302,-0.60284 3.315629,-1.83365 3.315629,-1.83365 z"
         id="path28" />
      <path
         id="path26"
         style="opacity:1;fill:#79b146;fill-opacity:1;stroke-width:2.117;stroke-linejoin:round;stroke-miterlimit:3.1;paint-order:markers stroke fill"
         d="m 50.193319,229.63353 c -0.873994,1.75151 -1.696851,3.44742 -1.765267,3.76669 -0.15071,0.70332 -0.301419,1.23069 0,1.45676 0.30142,0.22606 0.804185,2.33607 2.989481,1.73323 2.1853,-0.60284 3.31556,-1.83348 3.31556,-1.83348 0,0 1.079741,-0.35162 0.979269,-1.65778 -0.06442,-0.83749 -0.457369,-1.60107 -0.745691,-2.22777 -0.24738,0.276 -0.512681,0.53205 -0.687814,0.57774 -0.408511,0.10657 -1.865234,0.26632 -2.61121,0.10646 -0.649353,-0.13915 -1.306543,-1.54298 -1.474328,-1.92185 z" />
      <path
         style="opacity:1;fill:#79b146;fill-opacity:1;stroke-width:2.117;stroke-linejoin:round;stroke-miterlimit:3.1;paint-order:markers stroke fill"
         d="m 66.427611,218.89141 c 0,0 0,1.98927 1.065684,2.98391 1.065683,0.99464 3.019435,1.84719 3.019435,1.84719 l 3.090484,-0.39075 c 0,0 1.989275,-4.29826 1.918229,-5.11529 -0.07105,-0.81702 -1.172252,-1.24329 -1.172252,-1.24329 0,0 -1.278821,0.49732 -2.415548,1.45643 -1.136729,0.95912 -1.456436,1.49196 -1.918232,1.27882 -0.461795,-0.21313 -3.19705,-1.95375 -3.19705,-1.95375 z"
         id="path27" />
      <path
         style="opacity:1;fill:#eb9d8b;fill-opacity:1;stroke-width:2.117;stroke-linejoin:round;stroke-miterlimit:3.1;paint-order:markers stroke fill"
         d="m 61.95174,245.49797 c 0,0 1.669571,2.98392 1.172252,3.19706 -0.497319,0.21313 -0.74598,0.39075 -0.248661,0.56836 0.497319,0.17761 4.706771,-0.88807 5.150805,-0.26642 0.444035,0.62165 0.07105,0.71046 0.692693,0.56836 0.621649,-0.14209 1.634048,-0.56836 1.634048,-0.56836 0,0 2.138833,-3.13804 2.138833,-3.71576 0,-0.57773 -0.125592,-1.80853 -0.577723,-1.98436 -0.45213,-0.17583 -3.642167,-2.10994 -5.500931,-1.73317 -1.858761,0.37678 -4.461316,3.93429 -4.461316,3.93429 z"
         id="path30" />
      <path
         id="path29"
         style="opacity:1;fill:#e05439;fill-opacity:1;stroke-width:2.117;stroke-linejoin:round;stroke-miterlimit:3.1;paint-order:markers stroke fill"
         d="m 66.967489,241.51549 c -0.194308,-0.002 -0.38023,0.0127 -0.554489,0.0481 -1.858759,0.37678 -4.461226,3.93464 -4.461226,3.93464 0,0 1.66934,2.98357 1.172022,3.19671 -0.497319,0.21313 -0.745883,0.39083 -0.248564,0.56844 0.296358,0.10584 1.908799,-0.22798 3.259233,-0.38499 0.143283,-0.68177 0.321954,-1.75262 0.577225,-2.63447 0.356404,-1.2312 1.975426,-3.82968 2.269112,-4.29637 -0.683545,-0.24405 -1.390874,-0.42579 -2.013313,-0.43202 z" />
    </g>
    <g
       inkscape:groupmode="layer"
       id="g1"
       inkscape:label="Layer 2">
      <path
         style="opacity:1;fill:#111b09;fill-opacity:1;stroke-width:2.117;stroke-linejoin:round;stroke-miterlimit:3.1;paint-order:markers stroke fill"
         d="m 93.139039,239.37838 c 0,0 1.255919,0.90426 4.119417,-0.5526 2.863494,-1.45687 3.817994,-5.17439 3.114684,-6.22937 -0.703316,-1.05497 -0.401895,-2.16018 -1.808526,-2.76302 -1.406631,-0.60284 -1.959237,-1.15545 -4.973444,-2.8635 -3.014208,-1.70805 -4.521314,-4.27013 -4.521314,-4.27013 0,0 -0.954498,0.70332 -0.753552,1.25592 0.200949,0.5526 3.61705,4.7725 6.731733,6.68149 3.114683,1.90901 4.621787,2.91374 4.621787,2.91374 0,0 -1.205685,2.31089 -2.863498,3.56681 -1.657816,1.25592 -3.667287,2.26066 -3.667287,2.26066 z"
         id="path3" />
      <path
         style="opacity:1;fill:#111b09;fill-opacity:1;stroke-width:2.117;stroke-linejoin:round;stroke-miterlimit:3.1;paint-order:markers stroke fill"
         d="m 66.312583,240.53383 c 0,0 -3.566813,1.75829 -4.320365,2.96397 -0.753552,1.20568 -1.356394,3.11468 -0.45213,2.66255 0.904261,-0.45213 2.662549,-1.35639 3.114682,-1.909 0.452131,-0.5526 0.653077,-2.56208 2.612314,-1.95923 1.959234,0.60284 4.722259,1.20568 4.621786,2.86349 -0.100475,1.65782 -2.109946,4.32037 -1.657815,4.11942 0.45213,-0.20095 4.169656,-4.42084 2.712788,-5.57628 -1.456869,-1.15545 -4.370604,-3.41611 -5.325102,-3.36587 -0.9545,0.0502 -1.306158,0.20095 -1.306158,0.20095 z"
         id="path9" />
      <path
         style="opacity:1;fill:#111b09;fill-opacity:1;stroke-width:2.117;stroke-linejoin:round;stroke-miterlimit:3.1;paint-order:markers stroke fill"
         d="m 38.826405,239.49462 c 0,0 -1.811663,0.88807 -0.426273,2.87735 1.385388,1.98928 1.989275,1.20777 2.770778,2.4866 0.7815,1.27881 3.836461,4.26273 6.536192,5.61259 2.699732,1.34987 5.766881,2.07935 5.837927,2.25696 0.07105,0.17762 -0.04771,0.62039 0.733789,0.40725 0.781499,-0.21313 1.314341,-0.39075 1.314341,-0.39075 0,0 7.51804,0.88648 10.337131,1.66957 2.557642,0.71046 7.151703,1.80608 8.997907,2.14518 1.846202,0.3391 9.722602,-1.36367 11.036946,-0.90188 1.314344,0.4618 4.724529,0.28418 5.790213,-1.03016 1.065683,-1.31434 1.456436,-1.20777 2.41555,-3.16153 0.959115,-1.95375 1.149492,-4.38142 1.598525,-4.15616 1.128448,0.5661 -0.005,7.70673 -4.049598,9.44906 -5.518512,2.37728 -7.92158,0.3197 -7.92158,0.3197 0,0 -6.24592,1.37925 -9.413539,1.31434 -5.227496,-0.10711 -5.967828,-1.563 -9.093832,-1.91822 -3.126007,-0.35523 -12.077748,-1.63405 -13.285523,-2.13137 -1.207775,-0.49732 -1.349867,-0.63941 -1.349867,-0.63941 0,0 -3.314009,-0.27894 -6.70771,-2.89994 -1.329597,-1.02687 -2.883441,-4.13357 -2.883441,-4.13357 0,0 -3.349059,-1.72812 -3.901665,-3.46129 -0.552603,-1.73317 -0.816348,-4.16966 0.766112,-4.18222 1.582459,-0.0126 0.897617,0.4679 0.897617,0.4679 z"
         id="path10"
         sodipodi:nodetypes="cssssscssssssscssscscssc" />
      <path
         style="opacity:1;fill:#111b09;fill-opacity:1;stroke-width:2.117;stroke-linejoin:round;stroke-miterlimit:3.1;paint-order:markers stroke fill"
         d="m 95.851825,247.64233 c 0,0 4.672025,-1.05497 4.270125,-4.21989 -0.40189,-3.16491 -3.365861,-4.84785 -3.365861,-4.84785 1.518162,-1.63677 8.532791,1.58189 5.174391,7.43505 -1.27299,2.21861 -6.656378,3.818 -6.656378,3.818 z"
         id="path11"
         sodipodi:nodetypes="cscscc" />
      <path
         style="opacity:1;fill:#111b09;fill-opacity:1;stroke-width:2.117;stroke-linejoin:round;stroke-miterlimit:3.1;paint-order:markers stroke fill"
         d="m 52.573724,225.46312 c 0,0 -2.451074,5.22185 -3.197051,6.8559 -0.745979,1.63405 -0.959114,1.98928 -0.284183,2.13137 0.674933,0.14209 1.420913,0.071 1.77614,0.71045 0.355227,0.63941 -0.07105,0.9236 0.426272,0.85255 0.497319,-0.071 1.953755,-2.0248 2.841824,-1.84718 0.888069,0.17761 1.989275,-0.24866 1.349867,0.53284 -0.639411,0.7815 -1.669571,1.84718 -3.978553,2.20241 -2.308981,0.35523 -4.049598,-2.66421 -4.049598,-2.66421 0,0 -2.131367,-0.071 -3.481232,0.74598 -1.349867,0.81702 -1.563002,0.95912 -1.563002,0.56837 0,-0.39076 -0.106569,-2.09585 1.882706,-2.55765 1.989275,-0.46179 3.94303,0.0355 3.94303,0.0355 0,0 -0.142092,-1.56301 1.065683,-3.87199 1.207776,-2.30898 2.877347,-4.65348 3.232574,-4.29825 0.355227,0.35522 0.03552,0.60388 0.03552,0.60388 z"
         id="path12" />
      <path
         style="opacity:1;fill:#111b09;fill-opacity:1;stroke-width:2.117;stroke-linejoin:round;stroke-miterlimit:3.1;paint-order:markers stroke fill"
         d="m 43.621981,233.73993 c 0,0 -0.7815,-1.45643 -2.060321,-1.563 -1.278822,-0.10657 -2.628686,1.38539 -2.628686,1.38539 0,0 -0.923592,-0.10657 0.142092,-1.59853 1.065683,-1.49195 2.024798,-2.13136 2.664208,-2.23793 0.639411,-0.10657 0.674934,-0.10657 0.674934,-0.10657 0,0 0.284181,3.23257 1.101204,2.16689 0.817025,-1.06569 0.426275,-2.38003 0.959117,-3.62332 0.532842,-1.2433 1.563002,-4.15617 1.385387,-4.15617 -0.177612,0 -0.426272,-0.85255 -1.207775,0.71045 -0.7815,1.56301 -1.349864,2.73526 -1.491956,3.2681 -0.142092,0.53284 -0.355227,0.95912 -0.355227,0.95912 0,0 -0.248661,-0.71046 -2.983915,0.67493 -2.735255,1.38539 -2.664209,3.62332 -2.380025,4.22721 0.284181,0.60389 0.568364,1.06569 0.568364,1.06569 0,0 -0.426275,1.38538 -0.142091,2.52211 0.284181,1.13673 0.568364,1.95376 0.745976,1.84719 0.177615,-0.10657 1.349867,-2.66421 1.811663,-3.69437 0.461796,-1.03016 1.38539,-1.42091 1.740617,-0.85255 0.355227,0.56837 1.491957,-0.28418 1.491957,-0.28418 z"
         id="path13" />
      <path
         style="opacity:1;fill:#111b09;fill-opacity:1;stroke-width:2.117;stroke-linejoin:round;stroke-miterlimit:3.1;paint-order:markers stroke fill"
         d="m 86.888734,224.69938 c 0,0 -0.461796,0.60389 0.408514,0.53285 0.870307,-0.071 3.534518,-3.74765 2.007036,-6.76709 -1.527479,-3.01944 -2.912868,-3.92527 -5.559316,-1.36763 -2.646447,2.55764 -2.273458,5.50603 -1.491956,4.8311 0.7815,-0.67494 3.516754,-5.64813 5.061995,-3.74766 1.545244,1.90047 1.38539,4.12065 0.657172,5.5238 -0.728215,1.40315 -1.083445,0.99463 -1.083445,0.99463 z"
         id="path14"
         sodipodi:nodetypes="cssssssc" />
      <path
         style="opacity:1;fill:#111b09;fill-opacity:1;stroke-width:2.117;stroke-linejoin:round;stroke-miterlimit:3.1;paint-order:markers stroke fill"
         d="m 73.887395,216.29825 c 0,0 0.161658,-0.19207 0.550992,-0.89539 0.389335,-0.70331 0.313981,-1.33127 0.715876,-1.00473 0.401894,0.32654 1.306155,0.20095 1.55734,0.42701 0.251184,0.22607 1.481986,1.51966 2.963971,2.37369 1.481986,0.85403 3.365867,1.13033 3.365867,1.13033 l 1.306156,-0.65308 c 0,0 -0.753552,0.32654 -1.657813,-0.25118 -0.904264,-0.57773 -0.929381,-0.6782 -1.758289,-1.00474 -0.828908,-0.32654 -2.135066,-1.48199 -2.687669,-2.66255 -0.552606,-1.18057 -1.230802,-1.15545 -1.758289,-1.15545 -0.527486,0 -1.281038,-0.20094 -2.210419,1.05497 -0.92938,1.25593 -1.180565,1.53223 -1.004736,2.41137 0.175828,0.87915 0.617013,0.22975 0.617013,0.22975 z"
         id="path15" />
      <path
         style="opacity:1;fill:#111b09;fill-opacity:1;stroke-width:2.117;stroke-linejoin:round;stroke-miterlimit:3.1;paint-order:markers stroke fill"
         d="m 48.524125,220.38336 c 0,0 -0.7815,0.071 0.106569,-1.66957 0.888071,-1.74061 1.278821,-2.80629 1.989278,-2.77077 0.710453,0.0355 3.481231,-1.42091 5.221848,-2.73526 1.740617,-1.31434 1.77614,-2.16689 3.658846,-2.09584 1.882709,0.071 3.516757,-0.14209 4.475872,-0.56837 0.959114,-0.42627 -0.177615,-0.49732 1.243298,-0.92359 1.42091,-0.42627 0.568365,-1.34987 3.800938,-0.74598 3.232573,0.60389 5.115282,0.95912 5.719167,1.95376 0.603888,0.99463 1.030163,2.27346 1.030163,2.27346 0,0 -0.603888,0.35522 -0.817025,0.28418 -0.213138,-0.071 -1.598526,-2.55764 -2.522117,-2.66421 -0.923594,-0.10657 -1.669571,0.35522 -2.841824,-0.17762 -1.172252,-0.53284 -1.065683,-0.56836 -1.776139,-0.35522 -0.710457,0.21313 -3.090482,2.16689 -4.369303,2.52211 -1.278821,0.35523 -2.486594,-0.24866 -3.658846,0.24866 -1.172253,0.49732 -4.866622,4.08512 -6.074397,4.40483 -1.207775,0.3197 -1.491956,0.14209 -1.918232,0.3197 -0.426273,0.17762 -1.634048,1.63405 -2.237936,2.06032 -0.603885,0.42628 -1.03016,0.63941 -1.03016,0.63941 z"
         id="path16" />
      <path
         style="opacity:1;fill:#111b09;fill-opacity:1;stroke-width:2.117;stroke-linejoin:round;stroke-miterlimit:3.1;paint-order:markers stroke fill"
         d="m 48.524125,219.38873 c 0,0 -3.694369,0 -3.694369,1.45643 0,1.45644 1.03016,2.30898 1.101206,2.91287 0.07105,0.60389 -0.39075,1.38539 -0.39075,1.38539 0,0 -4.014075,-4.3693 -2.273458,-5.75469 1.740617,-1.38539 6.358577,-1.49196 6.358577,-1.49196 z"
         id="path17" />
      <path
         style="opacity:1;fill:#111b09;fill-opacity:1;stroke-width:2.117;stroke-linejoin:round;stroke-miterlimit:3.1;paint-order:markers stroke fill"
         d="m 65.894769,219.70843 c 0,0 -0.497318,0.31971 0.248658,-1.74061 0.74598,-2.06032 1.669572,-2.9484 2.060321,-3.90751 0.390753,-0.95911 1.207776,0.0711 1.207776,0.0711 0,0 -0.639411,1.77614 -1.77614,3.5878 -1.13673,1.81166 -1.740615,1.98927 -1.740615,1.98927 z"
         id="path18" />
      <path
         style="opacity:1;fill:#111b09;fill-opacity:1;stroke-width:2.117;stroke-linejoin:round;stroke-miterlimit:3.1;paint-order:markers stroke fill"
         d="m 68.985251,215.09047 c 0,0 0.39075,1.17225 1.598525,1.49196 1.207775,0.3197 2.415551,0.17761 2.948392,0.67493 0.532842,0.49732 1.491957,0.88807 1.172253,2.66421 -0.319707,1.77614 -0.888072,2.45107 -1.456436,2.55764 -0.568365,0.10657 -2.628686,0.39075 -3.054959,0.67493 -0.426273,0.28419 -0.959117,1.06569 -0.355229,0.9236 0.603887,-0.1421 4.156167,-0.31971 5.079759,-0.17762 0.923591,0.14209 1.491956,0.81702 1.634048,0.35523 0.142092,-0.4618 0.106569,-0.92359 -0.568365,-1.13673 -0.674933,-0.21314 -1.740617,-0.10657 -1.527479,-0.4618 0.213138,-0.35522 1.527479,-2.06032 1.634048,-3.51675 0.106569,-1.45644 -0.710456,-3.01944 -1.278821,-3.05496 -0.568365,-0.0355 -1.13673,0 -2.131367,-0.53284 -0.994638,-0.53285 -2.095844,-1.10121 -2.55764,-1.10121 -0.461796,0 -1.882709,0.17761 -1.882709,0.17761 z"
         id="path19" />
      <path
         style="opacity:1;fill:#111b09;fill-opacity:1;stroke-width:2.117;stroke-linejoin:round;stroke-miterlimit:3.1;paint-order:markers stroke fill"
         d="m 63.159515,224.11326 c 0,0 -4.156168,1.63405 -5.790216,4.65348 -1.634048,3.01944 -1.456433,4.01408 -0.355227,4.90215 1.101207,0.88807 0.461796,1.66957 2.131367,1.91823 1.669571,0.24866 2.593163,0.3197 2.202413,-0.42628 -0.39075,-0.74597 0,-1.98927 -1.172252,-2.41554 -1.172253,-0.42628 -1.811663,-0.49732 -1.847186,-1.31435 -0.03552,-0.81702 3.16153,-4.97319 3.765417,-5.43498 0.603885,-0.4618 1.278819,-0.78151 1.278819,-0.78151 0,0 2.770777,1.74062 3.516757,2.20242 0.745977,0.46179 0.7815,1.24329 1.314341,0.85254 0.532842,-0.39075 0.781503,-0.63941 -0.319704,-1.38539 -1.101206,-0.74597 -3.161527,-2.13136 -3.374665,-2.45107 -0.213135,-0.3197 -0.497318,-1.1012 -1.065683,-0.92359 -0.568365,0.17761 -0.284181,0.60389 -0.284181,0.60389 z"
         id="path20" />
    </g>
  </g>
</svg>
