<?xml version="1.0" encoding="UTF-8" standalone="no"?>
<!-- Created with Inkscape (http://www.inkscape.org/) -->

<svg
   width="48.868504mm"
   height="35.834866mm"
   viewBox="0 0 48.868503 35.834866"
   version="1.1"
   id="svg1"
   inkscape:version="1.3 (0e150ed6c4, 2023-07-21)"
   sodipodi:docname="ulekan.svg"
   xmlns:inkscape="http://www.inkscape.org/namespaces/inkscape"
   xmlns:sodipodi="http://sodipodi.sourceforge.net/DTD/sodipodi-0.dtd"
   xmlns="http://www.w3.org/2000/svg"
   xmlns:svg="http://www.w3.org/2000/svg">
  <sodipodi:namedview
     id="namedview1"
     pagecolor="#ffffff"
     bordercolor="#000000"
     borderopacity="0.25"
     inkscape:showpageshadow="2"
     inkscape:pageopacity="0.0"
     inkscape:pagecheckerboard="0"
     inkscape:deskcolor="#d1d1d1"
     inkscape:document-units="mm"
     inkscape:zoom="7.4482711"
     inkscape:cx="64.243097"
     inkscape:cy="105.32646"
     inkscape:window-width="1920"
     inkscape:window-height="974"
     inkscape:window-x="-11"
     inkscape:window-y="-11"
     inkscape:window-maximized="1"
     inkscape:current-layer="g3" />
  <defs
     id="defs1">
    <pattern
       id="EMFhbasepattern"
       patternUnits="userSpaceOnUse"
       width="6"
       height="6"
       x="0"
       y="0" />
  </defs>
  <g
     inkscape:label="Layer 1"
     inkscape:groupmode="layer"
     id="layer1"
     transform="translate(-80.95437,-130.52102)">
    <g
       inkscape:groupmode="layer"
       id="layer2"
       inkscape:label="Layer 2">
      <path
         style="opacity:1;fill:#bbcfd4;fill-opacity:1;stroke-width:2.117;stroke-linejoin:round;stroke-miterlimit:3.1;paint-order:markers stroke fill"
         d="m 128.69905,131.86058 c 0,0 -11.34587,13.52474 -13.90795,14.27829 -2.56207,0.75355 -9.64547,5.727 -9.94689,9.19333 -0.30142,3.46634 -0.5526,6.6815 -0.5526,6.6815 0,0 -4.11942,1.909 -7.485284,2.76302 -3.365868,0.85403 -8.33931,-0.65307 -10.449256,-2.00947 -2.109946,-1.35639 -4.270129,-4.62179 -4.270129,-4.62179 0,0 3.164919,-10.95162 6.380075,-13.01133 3.215156,-2.05971 15.523174,-9.59523 18.939274,-10.19807 3.4161,-0.60284 11.65494,-2.91373 11.65494,-2.91373 0,0 6.2796,-1.05498 6.93268,-0.85403 0.65308,0.20095 2.70514,0.69228 2.70514,0.69228 z"
         id="path7" />
      <path
         style="opacity:1;fill:#86a0a6;fill-opacity:1;stroke-width:2.117;stroke-linejoin:round;stroke-miterlimit:3.1;paint-order:markers stroke fill"
         d="m 82.945704,153.20978 c 0.248661,0 3.836461,-1.10121 3.694372,-0.1421 -0.142092,0.95912 -0.852548,3.37467 -1.136729,3.33915 -0.284184,-0.0355 -0.568365,-0.0711 -0.568365,-0.0711 0,0 -0.603887,2.34451 -0.817025,2.84182 -0.213135,0.49732 -0.745977,0.71046 -0.319704,0.71046 0.426273,0 0.745979,0.0711 0.745979,0.0711 0,0 -0.106569,-1.20778 0.923592,-1.81167 1.03016,-0.60388 1.918229,0.10657 1.953752,0.78151 0.03552,0.67493 -0.355227,1.81166 0.106569,1.66957 0.461796,-0.14209 2.841823,-1.10121 4.227211,-1.91823 1.38539,-0.81703 5.008713,-4.58244 4.546917,-4.47588 -0.461796,0.10657 -1.989275,2.20242 -3.161527,1.74062 -1.172253,-0.46179 -1.989278,-2.8063 -1.420913,-3.94303 0.568364,-1.13673 0.390752,-0.85254 1.065683,-0.67493 0.674934,0.17761 1.38539,-0.24866 2.202413,-1.06569 0.817025,-0.81702 0.781502,-1.52747 1.101206,-1.24329 0.319707,0.28418 0.568365,1.10121 1.38539,1.06568 0.817023,-0.0355 1.811663,-1.66957 2.237936,-4.19169 0.426269,-2.52212 -1.136729,-2.98391 -2.095844,-2.87734 -0.959117,0.10656 -1.953754,0.46179 -1.953754,0.46179 0,0 -0.355227,-0.3197 0,-0.35523 0.355229,-0.0355 1.065683,-0.49731 1.705094,-0.92359 0.63941,-0.42627 -0.603888,-0.74597 1.207775,-0.3197 1.811658,0.42627 3.481238,0.92359 3.978548,1.27882 0.49732,0.35523 0.35523,0.99464 0.53285,1.2433 0.17761,0.24866 1.66957,1.8827 1.66957,3.55228 0,1.66957 -0.071,2.06032 0.42627,2.06032 0.49732,0 1.81166,-0.0711 2.62869,-0.31971 0.81702,-0.24866 1.13673,-0.67493 1.13673,-0.67493 0,0 -2.20242,-3.19705 -2.09585,-4.08512 0.10657,-0.88807 -0.53284,-0.24866 0.81702,-0.88807 1.34987,-0.63941 11.01207,-5.50603 9.87534,-7.88606 -1.13673,-2.38003 -7.6374,0.21314 -8.84518,1.03016 -1.20777,0.81702 -4.22721,2.45107 -4.47586,1.66957 -0.24866,-0.7815 -0.39076,-1.70509 -0.39076,-1.70509 0,0 4.50257,-2.51884 5.08029,-2.64443 0.57773,-0.12559 8.84168,-1.93412 8.84168,-1.93412 0,0 6.98292,-1.20568 7.18387,-1.20568 0.20094,0 3.71752,0.40189 3.71752,0.40189 0,0 -7.93742,9.1431 -10.75068,11.40376 -2.81326,2.26065 -10.90138,8.89191 -10.90138,8.89191 0,0 -0.75356,9.34405 -2.81327,10.49949 -2.0597,1.15545 -8.037883,2.81326 -9.04262,2.8635 -1.004737,0.0502 -7.535521,-2.8635 -9.092861,-3.56681 -1.55734,-0.70332 -4.521314,-1.909 -4.672023,-2.71279 -0.15071,-0.80379 1.562078,-5.94042 1.562078,-5.94042 z"
         id="path9" />
      <path
         style="opacity:1;fill:#86a0a6;fill-opacity:1;stroke-width:2.117;stroke-linejoin:round;stroke-miterlimit:3.1;paint-order:markers stroke fill"
         d="m 93.038564,145.33508 c 0,0 -5.048798,3.79288 -5.450692,7.43505 -0.401894,3.64217 -0.150712,3.49145 -0.150712,3.71752 0,0.22607 -0.552603,1.33128 0.125592,0.47725 0.678199,-0.85403 3.315629,-9.64547 5.124154,-10.42414 1.808525,-0.77867 0.351658,-1.20568 0.351658,-1.20568 z"
         id="path10" />
      <path
         style="opacity:1;fill:#3a575e;fill-opacity:1;stroke-width:2.117;stroke-linejoin:round;stroke-miterlimit:3.1;paint-order:markers stroke fill"
         d="m 102.83474,154.55353 c 0,0 -0.32654,-0.67819 -1.2308,0.0251 -0.90426,0.70332 -2.084828,2.53696 -1.33128,2.93886 0.75356,0.40189 0.77867,1.00473 2.0346,-0.10048 1.25592,-1.10521 1.65781,-1.65781 1.65781,-1.65781 z"
         id="path11" />
      <path
         style="opacity:1;fill:#3a575e;fill-opacity:1;stroke-width:2.117;stroke-linejoin:round;stroke-miterlimit:3.1;paint-order:markers stroke fill"
         d="m 91.782645,164.17388 c 0,0 2.135063,-3.39098 3.667286,-3.66728 1.532223,-0.27631 1.55734,0.10047 2.260656,-0.0754 0.703315,-0.17583 1.381514,-0.70332 2.913733,-1.18057 1.53222,-0.47725 2.89991,-1.73273 3.11468,-1.65781 1.08007,0.37678 1.25593,2.81326 0.55261,3.76776 -0.70332,0.9545 -2.63743,1.43175 -4.16966,2.33601 -1.532219,0.90427 -4.219888,2.43649 -5.375334,1.98436 -1.155446,-0.45213 -2.863498,-1.45687 -2.863498,-1.45687 z"
         id="path12"
         sodipodi:nodetypes="cscssssscc" />
    </g>
    <g
       inkscape:groupmode="layer"
       id="g3"
       inkscape:label="Layer 2">
      <path
         id="path3"
         style="fill:#111b09;stroke-width:2.117;stroke-linejoin:round;stroke-miterlimit:3.1;paint-order:markers stroke fill;opacity:1"
         d="m 128.53826,130.72821 c -0.10869,0.0524 -0.24939,0.10639 -0.3282,0.19542 -0.26146,-0.0178 -0.26465,-0.0624 -0.39895,-0.0579 -8.69026,0.29192 -16.76682,0.78147 -25.50542,5.47047 -8.738589,4.68901 -11.881712,7.13953 -13.870985,8.34729 -1.952881,1.18568 -7.609135,7.55638 -7.478096,13.32167 0.02608,1.14748 0.03531,2.77087 1.314132,2.62878 1.278816,-0.14209 0.355325,-1.27876 0.710551,-3.41013 0.355229,-2.13135 3.765335,-8.66734 5.186246,-9.94616 1.42091,-1.27882 16.482492,-10.94108 20.532082,-11.9357 4.04959,-0.99464 10.43526,-2.43167 14.05857,-2.6448 2.15361,-0.12669 3.42075,-0.27367 4.26744,-0.46096 -3.14556,3.45936 -10.88513,11.69128 -14.22859,12.67933 -2.91177,0.86049 -5.44097,4.58927 -6.39547,5.34283 -0.95449,0.75355 -2.51193,3.76751 -3.01429,3.86798 -0.50237,0.10047 -0.87931,-0.15034 -0.97978,0.30179 -0.10047,0.45213 -0.0249,1.13009 0.60306,1.63246 0.62796,0.50237 0.77891,0.72864 1.88412,0.72864 1.10521,0 2.10994,0.10007 2.23553,-0.75396 0.12559,-0.85403 -0.37702,-0.45201 0.22582,-1.58234 0.60285,-1.13032 2.56219,-3.29038 4.87309,-5.09891 2.31089,-1.80852 10.65016,-8.1884 13.8653,-12.75994 3.21516,-4.57154 3.9689,-5.92822 3.66748,-5.97845 -0.28661,-0.17125 -0.77305,-0.0958 -1.22364,0.11259 z"
         sodipodi:nodetypes="ccsccsscsccccssscsscsccc" />
      <path
         style="fill:#111b09;stroke-width:2.117;stroke-linejoin:round;stroke-miterlimit:3.1;paint-order:markers stroke fill;opacity:1"
         d="m 83.052273,158.57372 c 0,0 6.394104,4.54691 9.093835,5.32841 2.699732,0.78151 4.227211,0.10657 4.227211,0.10657 0,0 1.634048,-0.49732 3.481234,-0.92359 1.847187,-0.42627 6.536197,-3.72989 6.607237,-2.94839 0.071,0.7815 -4.07918,6.9509 -12.41849,6.14711 -8.339309,-0.80379 -11.523868,-4.88605 -11.825811,-5.61427 -0.301945,-0.72821 -1.563002,-2.27346 -0.621649,-2.46883 0.941353,-0.19538 1.456433,0.37299 1.456433,0.37299 z"
         id="path4" />
      <path
         style="fill:#111b09;stroke-width:2.117;stroke-linejoin:round;stroke-miterlimit:3.1;paint-order:markers stroke fill;opacity:1"
         d="m 104.40147,155.94503 c 0,0 -0.42627,3.94303 -0.63941,4.86662 -0.21314,0.92359 -0.24866,1.06569 -0.24866,1.06569 0,0 1.10121,0.3197 1.74062,0.0355 0.63941,-0.28418 0.42627,0.10657 0.85254,-0.7815 0.42627,-0.88807 1.45644,-8.06368 1.45644,-8.06368 z"
         id="path5" />
    </g>
  </g>
</svg>
