<?xml version="1.0" encoding="UTF-8" standalone="no"?>
<!-- Created with Inkscape (http://www.inkscape.org/) -->

<svg
   width="240"
   height="240"
   viewBox="0 0 63.5 63.500001"
   version="1.1"
   id="svg1"
   inkscape:version="1.3 (0e150ed6c4, 2023-07-21)"
   sodipodi:docname="dish_icon_bg.svg"
   xmlns:inkscape="http://www.inkscape.org/namespaces/inkscape"
   xmlns:sodipodi="http://sodipodi.sourceforge.net/DTD/sodipodi-0.dtd"
   xmlns="http://www.w3.org/2000/svg"
   xmlns:svg="http://www.w3.org/2000/svg">
  <sodipodi:namedview
     id="namedview1"
     pagecolor="#ffffff"
     bordercolor="#000000"
     borderopacity="0.25"
     inkscape:showpageshadow="2"
     inkscape:pageopacity="0.0"
     inkscape:pagecheckerboard="0"
     inkscape:deskcolor="#d1d1d1"
     inkscape:document-units="px"
     inkscape:zoom="0.93103385"
     inkscape:cx="-1.0740748"
     inkscape:cy="-2.685187"
     inkscape:window-width="1920"
     inkscape:window-height="974"
     inkscape:window-x="-11"
     inkscape:window-y="-11"
     inkscape:window-maximized="1"
     inkscape:current-layer="layer2" />
  <defs
     id="defs1">
    <pattern
       id="EMFhbasepattern"
       patternUnits="userSpaceOnUse"
       width="6"
       height="6"
       x="0"
       y="0" />
  </defs>
  <g
     inkscape:groupmode="layer"
     id="layer2"
     inkscape:label="Layer 2"
     transform="translate(-100.77814,-86.582921)">
    <g
       inkscape:groupmode="layer"
       id="g2"
       inkscape:label="F">
      <path
         style="opacity:1;fill:#f9f7f0;fill-opacity:1;stroke-width:2.117;stroke-linejoin:round;stroke-miterlimit:3.1;paint-order:markers stroke fill"
         d="m 103.29811,91.064228 1.51967,35.580212 c 0,0 0.90426,2.00948 0.65307,2.10995 -0.25118,0.10047 0.60285,17.08051 0.60285,17.08051 0,0 25.3077,-2.03529 29.3573,-1.82215 4.0496,0.21314 21.02949,0.42627 21.02949,0.42627 l -0.42628,-14.52882 2.59317,1.06569 c 0,0 2.38026,-27.66644 2.58121,-29.04795 0.20095,-1.38152 1.34384,-9.105423 1.14289,-9.256135 -0.20095,-0.15071 -7.91579,-1.09069 -9.69193,-0.984121 -1.77614,0.106569 -16.94437,-0.745979 -19.39544,-0.63941 -2.45107,0.106569 -12.75268,0.497319 -12.75268,0.497319 0,0 -1.20034,2.193745 -2.30555,2.319337 -1.10521,0.125592 -3.79287,-2.637433 -3.79287,-2.637433 z"
         id="path5" />
      <path
         style="opacity:1;fill:#7fcdcb;fill-opacity:1;stroke-width:2.117;stroke-linejoin:round;stroke-miterlimit:3.1;paint-order:markers stroke fill"
         d="m 110.01594,132.93711 c 0,0 0.13926,0.28558 1.02728,0.29441 0.88803,0.009 11.07053,-0.79742 25.47464,-0.25025 10.15319,0.38569 17.07638,0.99288 16.93924,0.49417 -0.13714,-0.49871 2.97779,-27.96375 3.80303,-32.36059 0.82524,-4.396841 1.33101,-5.244402 0.33359,-4.97012 -0.99741,0.274285 -31.19272,0.138953 -32.75248,0.374645 -1.55976,0.235696 -4.17694,0.712076 -4.17694,0.712076 0,0 0.099,0.151703 0.29541,0.605809 0.19645,0.454104 0.19046,1.056918 0.19046,1.056918 0,0 -5.82669,-0.108153 -7.58937,0.326485 -1.7627,0.434633 -5.07617,0.200746 -5.07617,0.200746 0,0 0.22844,22.509471 0.77402,23.218251 0.54559,0.70876 0.74303,1.0624 0.73654,1.71545 -0.006,0.65305 -0.62278,2.00338 -0.38658,3.51291 0.23619,1.50953 0.40733,5.06909 0.40733,5.06909 z"
         id="path6"
         sodipodi:nodetypes="csssssscscscsssc" />
    </g>
    <g
       inkscape:groupmode="layer"
       id="g3"
       inkscape:label="O">
      <path
         style="opacity:1;fill:#111b09;stroke-width:2.117;stroke-linejoin:round;stroke-miterlimit:3.1;paint-order:markers stroke fill"
         d="m 102.98413,91.579155 c 0,0 0.90263,34.068315 1.29338,34.849815 0.39076,0.7815 0.84169,0.76808 0.84169,1.57187 0,0.80379 -0.62796,0.22606 -0.62796,0.85402 0,0.62797 0.15071,10.37391 0.60284,12.05684 0.45213,1.68293 0.17583,5.47581 0.62796,5.62652 0.45213,0.15071 0.62796,-0.20095 0.62796,-0.20095 0,0 0.37859,0.44625 2.36786,0.30416 1.98928,-0.14209 20.95845,-2.48659 32.53888,-1.98927 11.58042,0.49732 16.21204,0.9861 16.26227,0.50885 0.0502,-0.47725 -1.08291,-13.64359 -0.7564,-14.1962 0.32654,-0.5526 1.38151,1.08009 2.05971,1.05497 0.6782,-0.0251 0.71087,-0.63538 0.56878,-0.813 -0.14209,-0.17761 0.94135,-13.83612 0.90583,-15.89644 -0.0355,-2.06033 1.52748,-14.20912 1.45643,-14.9551 -0.0674,-0.745976 1.41579,-8.023501 0.60389,-7.743964 -1.43602,0.494424 -4.15617,31.189004 -4.15617,32.503354 0,1.31434 0.28419,5.32841 -0.35523,4.93766 -0.6394,-0.39075 -2.20241,-2.3445 -2.3445,0.49732 -0.14209,2.84183 0.49732,13.39209 0.60389,13.60523 0.10656,0.21314 -33.73738,-1.98389 -45.54021,0 -3.88864,0.65363 -4.08512,0.95911 -4.08512,0.95911 0,0 -0.39075,-11.79356 -0.39075,-13.35656 0,-1.56301 -0.35523,-2.59317 -0.071,-2.30898 0.28418,0.28418 1.49196,1.27881 1.59853,1.06568 0.10656,-0.21314 0.28418,-0.88807 -0.28419,-1.66957 -0.56836,-0.7815 -1.74061,-2.30898 -1.81166,-3.16153 -0.071,-0.85255 -2.03431,-34.028479 -2.03431,-34.028479 z"
         id="path3"
         sodipodi:nodetypes="cssssscssssssscsssssscssssccc" />
      <path
         style="opacity:1;fill:#111b09;stroke-width:2.117;stroke-linejoin:round;stroke-miterlimit:3.1;paint-order:markers stroke fill"
         d="m 102.35928,91.350216 c 0,0 0.24866,0.301945 1.17226,0.532842 0.92359,0.230899 10.58579,-0.26642 10.79892,-0.08881 0.21314,0.177612 0.74818,1.945085 2.82045,2.397215 2.07227,0.452131 3.21516,-2.072267 3.41611,-2.160182 0.20094,-0.08791 12.28289,-0.653079 16.75397,-0.703316 4.47107,-0.05024 22.3805,1.431751 23.66154,1.682933 1.28104,0.251185 1.6688,0.164537 1.6688,0.164537 0,0 0.21162,-0.690147 -0.2763,-0.932713 -0.20994,-0.104371 -31.6853,-3.07494 -38.36679,-2.019966 -6.6815,1.054973 -1.88388,1.054973 -1.88388,1.054973 0,0 0.75355,0.276301 0.57772,-0.226066 -0.17583,-0.502369 -2.21199,0.01098 -2.21199,0.01098 0,0 -1.41734,2.401165 -2.32317,2.454449 -0.90583,0.05329 -2.98391,-1.93599 -2.98391,-1.93599 0,0 0.26642,0.213137 0,-0.39075 -0.26642,-0.603888 -11.15646,-0.992722 -11.79698,-0.816896 -0.64052,0.175829 -1.02675,0.976746 -1.02675,0.976746 z"
         id="path4"
         sodipodi:nodetypes="cccsssscsscscccsccc" />
    </g>
  </g>
</svg>
