<?xml version="1.0" encoding="UTF-8" standalone="no"?>
<!-- Created with Inkscape (http://www.inkscape.org/) -->

<svg
   width="960"
   height="1080"
   viewBox="0 0 254 285.75"
   version="1.1"
   id="svg1"
   inkscape:version="1.3 (0e150ed6c4, 2023-07-21)"
   sodipodi:docname="bg.svg"
   xml:space="preserve"
   inkscape:export-filename="bg.png"
   inkscape:export-xdpi="96"
   inkscape:export-ydpi="96"
   xmlns:inkscape="http://www.inkscape.org/namespaces/inkscape"
   xmlns:sodipodi="http://sodipodi.sourceforge.net/DTD/sodipodi-0.dtd"
   xmlns="http://www.w3.org/2000/svg"
   xmlns:svg="http://www.w3.org/2000/svg"><sodipodi:namedview
     id="namedview1"
     pagecolor="#ffffff"
     bordercolor="#000000"
     borderopacity="0.25"
     inkscape:showpageshadow="2"
     inkscape:pageopacity="0.0"
     inkscape:pagecheckerboard="0"
     inkscape:deskcolor="#d1d1d1"
     inkscape:document-units="px"
     inkscape:zoom="0.46551693"
     inkscape:cx="467.22254"
     inkscape:cy="686.3338"
     inkscape:window-width="1920"
     inkscape:window-height="974"
     inkscape:window-x="-11"
     inkscape:window-y="-11"
     inkscape:window-maximized="1"
     inkscape:current-layer="layer11" /><defs
     id="defs1"><pattern
       id="EMFhbasepattern"
       patternUnits="userSpaceOnUse"
       width="6"
       height="6"
       x="0"
       y="0" /><pattern
       id="EMFhbasepattern-2"
       patternUnits="userSpaceOnUse"
       width="6"
       height="6"
       x="0"
       y="0" /><pattern
       id="EMFhbasepattern-24"
       patternUnits="userSpaceOnUse"
       width="6"
       height="6"
       x="0"
       y="0" /></defs><g
     inkscape:groupmode="layer"
     id="layer2"
     inkscape:label="ART"><g
       inkscape:groupmode="layer"
       id="layer3"
       inkscape:label="Wall"><g
         inkscape:groupmode="layer"
         id="layer6"
         inkscape:label="Wall-F"><path
           style="opacity:1;fill:#dbae6a;fill-opacity:1;stroke-width:2.117;stroke-linejoin:round;stroke-miterlimit:3.1;paint-order:markers stroke fill"
           d="m -5.6248594,292.69238 c 0,0 257.5152494,-3.71021 256.1987994,-2.07336 -1.31643,1.63686 -1.72149,1.8551 1.01265,1.96424 2.73413,0.10902 4.65818,0.10902 4.55692,-3.49198 -0.10126,-3.60111 -2.71321,-287.1728268 -0.42189,-289.02472775 2.29136,-1.85190755 12.02959,-2.46920835 6.30121,-4.32110865 -5.72837,-1.8519001 -232.285682,1.8519003 -234.290613,0.3086519 -2.004932,-1.5432527 -9.953046,-1.929066 -16.540686,0.2314824 -6.5876248,2.1605549 -3.508626,-3.3179875 -9.5234201,-2.7006894 -6.0147931,0.6173016 -8.8789792,0.6173016 -8.8789792,5.55570989 0,4.93840941 4.0098625,8.64221501 3.1506079,12.03736861 -0.8592684,3.395154 1.6758619,268.855993 -2.3747217,273.657453 -4.0505699,4.80147 -6.8859779,4.36498 -3.6455159,5.67448 3.2404616,1.30948 4.4556386,2.18248 4.4556386,2.18248 z"
           id="path22"
           sodipodi:nodetypes="cssssssssssssc" /><path
           style="opacity:1;fill:#b08545;fill-opacity:1;stroke-width:2.117;stroke-linejoin:round;stroke-miterlimit:3.1;paint-order:markers stroke fill"
           d="m 122.2121,134.86546 c 0,0 -1.04706,0.17452 0.34904,2.96673 1.39611,2.79222 15.7062,23.38478 17.62584,25.12991 1.91964,1.74515 0.1745,2.26868 2.96672,2.44319 2.79221,0.17451 8.20212,-1.91964 6.63149,-0.17451 -1.57061,1.74513 -4.88636,1.22159 -5.06086,3.66477 -0.17453,2.44319 1.31529,78.90405 0.96626,83.44138 -0.34901,4.53735 -1.91965,28.27115 -0.17451,32.63399 1.74513,4.36282 4.71185,7.85308 6.28246,8.55114 1.57064,0.69805 28.44565,1.3961 28.62019,0 0.17449,-1.3961 -2.09418,-1.04708 -0.17454,-3.83929 1.91965,-2.79221 0,-34.03007 1.91965,-35.25167 1.91967,-1.2216 4.18831,-4.71186 2.96674,-7.50407 -1.2216,-2.79221 -4.36285,-4.01381 -3.83928,-6.98053 0.52353,-2.96673 1.30239,-65.64103 -0.0937,-66.68811 -1.3961,-1.04708 -4.71185,-5.4099 -2.96674,-5.58443 1.74513,-0.17451 1.74513,-0.17451 2.96674,-1.91964 1.22158,-1.74514 15.8807,-2.26867 17.80035,-2.61771 1.91964,-0.34902 3.83928,-1.74513 5.40989,-0.87256 1.57064,0.87256 4.43857,1.12332 5.79596,0.81482 1.35741,-0.3085 3.9488,-3.08498 5.36788,-1.72759 1.41911,1.3574 -0.92551,1.2957 2.28291,1.66589 3.20838,0.3702 14.30086,0.29396 16.6568,0.90476 2.35593,0.61079 4.45009,0 5.32263,-0.34903 0.87258,-0.34902 3.14124,-2.18142 7.50406,-1.65787 4.36286,0.52354 8.81293,2.0069 8.81293,2.0069 l 5.32526,-32.61844 z"
           id="path23"
           sodipodi:nodetypes="cssssssssssssssssssssssssccc" /><path
           style="opacity:1;fill:#b08545;fill-opacity:1;stroke-width:2.117;stroke-linejoin:round;stroke-miterlimit:3.1;paint-order:markers stroke fill"
           d="m 188.21325,21.454813 c 0,0 1.48078,1.974393 -2.09778,1.789295 -3.57861,-0.185101 -6.3551,-0.863797 -6.91038,0.185098 -0.55531,1.048895 -1.23401,3.393486 -1.97439,1.604195 -0.74042,-1.789293 -0.55533,-3.270088 -0.55533,-3.270088 0,0 -7.52736,1.357393 -7.71245,0.0617 -0.1851,-1.295695 0.0616,-1.727593 0.0616,-1.727593 0,0 7.15719,-0.740394 8.94646,-0.123398 1.78929,0.616999 10.24217,1.480792 10.24217,1.480792 z"
           id="path24" /><path
           style="opacity:1;fill:#b08545;fill-opacity:1;stroke-width:2.117;stroke-linejoin:round;stroke-miterlimit:3.1;paint-order:markers stroke fill"
           d="m 234.33859,21.351948 c 0,0.741682 1.70149,3.83929 -0.0436,4.101061 -1.74515,0.261768 -8.90017,1.134335 -8.72566,0.218143 0.17449,-0.916195 0.82892,-1.177967 -0.5672,-1.265224 -1.3961,-0.08725 -2.22502,-0.08725 -2.22502,-0.08725 0,0 -1.87603,-0.916196 -3.054,-0.218142 -1.17796,0.698053 -0.61079,1.701501 -1.26521,1.439733 -0.65443,-0.261771 0.0872,-1.221591 -1.30886,-1.177965 -1.3961,0.04363 -2.92307,-0.305397 -3.35936,0.523541 -0.43629,0.828935 -4.36284,0.523539 -4.36284,0.523539 0,0 -0.4799,2.879469 -0.87255,2.923098 -0.39267,0.04363 -0.30542,-0.174515 -0.56717,0 -0.26179,0.17451 -0.3054,2.486812 -0.91621,0.959821 -0.61078,-1.526993 -0.87258,-3.403008 -0.65443,-4.319201 0.21815,-0.916195 0.69807,-1.745134 0.13089,-1.876019 -0.56718,-0.130882 -1.7015,-0.08726 -1.876,0.392656 -0.17454,0.479911 -0.69807,1.876016 -1.43974,1.221592 -0.74169,-0.654424 -0.74169,-4.188317 -0.74169,-4.188317 0,0 17.53859,1.134334 23.47202,0.610795 5.93346,-0.523539 8.37664,0.218143 8.37664,0.218143 z"
           id="path25" /><path
           style="opacity:1;fill:#b08545;fill-opacity:1;stroke-width:2.117;stroke-linejoin:round;stroke-miterlimit:3.1;paint-order:markers stroke fill"
           d="m 140.82782,23.367508 c 0,0 0,1.419092 1.72759,1.85099 1.72761,0.431899 2.40629,0.185099 3.0233,0.987196 0.61702,0.802097 1.3574,6.601872 4.19559,4.565783 2.8382,-2.036092 -0.18509,-4.072185 4.1956,-5.923177 4.38066,-1.850992 4.62746,-5.429577 4.62746,-5.429577 0,0 -11.84635,-0.246799 -12.46333,0.493598 -0.617,0.740398 -0.8638,2.591389 -1.4808,2.714788 -0.61699,0.123398 -3.82541,0.740399 -3.82541,0.740399 z"
           id="path26" /><path
           style="opacity:1;fill:#b08545;fill-opacity:1;stroke-width:2.117;stroke-linejoin:round;stroke-miterlimit:3.1;paint-order:markers stroke fill"
           d="m 107.55476,21.30832 c 0,0 2.26864,0.523538 -0.95985,2.268673 -3.22847,1.74513 -2.44317,4.79911 -3.66476,6.456987 -1.22159,1.657877 -0.61081,-0.436282 -2.87948,-1.308849 -2.26865,-0.872567 -2.879469,-2.006901 -2.879469,-2.006901 0,0 -1.832389,-1.483363 -2.96672,-0.785311 -1.134352,0.698054 0.523542,2.792212 -1.396101,1.832388 -1.919634,-0.95982 -0.698072,-1.396106 -2.35592,-1.919645 -1.657892,-0.523539 -2.617713,-0.698052 -2.617713,-0.698052 0,0 -7.678557,-0.785311 -8.027593,0.349028 -0.349035,1.134335 -0.610784,2.792212 -1.832392,1.745131 -1.22157,-1.047078 -0.959821,-2.006902 -2.617677,-1.919646 -1.657893,0.08726 -19.981767,0.08726 -19.981767,-2.443183 0,-2.530444 -0.785322,-2.617699 0,-2.704955 0.785284,-0.08727 11.954126,0.523538 12.477661,-0.174513 0.523573,-0.698054 -0.436249,-4.537343 1.221608,-4.188318 1.657892,0.349026 2.268677,0.959823 2.268677,1.483363 0,0.523538 -0.610785,1.657872 0.261749,2.094158 0.872572,0.436282 3.054001,1.483363 2.530465,0.436282 -0.523535,-1.047079 -0.174499,-4.10106 -0.523535,-6.282474 -0.349036,-2.181416 -0.959822,-6.2824763 0.174499,-3.315753 1.134357,2.966725 1.657892,3.577522 1.657892,3.577522 l 0.04348,5.799569 11.212614,1.006445 z"
           id="path27" /><path
           style="opacity:1;fill:#b08545;fill-opacity:1;stroke-width:2.117;stroke-linejoin:round;stroke-miterlimit:3.1;paint-order:markers stroke fill"
           d="m 66.603075,19.418723 c 0,0 -1.542493,-3.393486 -7.712491,-3.084986 -6.169961,0.308499 -9.13154,-0.431898 -9.13154,-0.431898 0,0 1.542494,-1.048895 -1.48079,-1.357395 -3.023283,-0.308498 -4.997689,0.185098 -4.997689,-0.185101 0,-0.370195 1.604185,-2.221191 0.431901,-2.344588 -1.172308,-0.123399 -1.41911,1.727592 -2.097814,1.542494 -0.678667,-0.185101 -4.380653,-3.023287 -5.182776,-4.442381 -0.802086,-1.4190957 4.355525,-10.2801399 4.355525,-10.2801399 0,0 -27.080006,-2.7323116 -34.237177,-0.017524 C -0.60694591,1.531996 2.311938,14.976342 5.7671211,16.703935 c 3.4551846,1.727593 3.8253816,2.838187 5.3061719,3.331785 1.480801,0.493597 19.126919,0.246799 19.126919,0.246799 l 1.665912,1.727593 0.308482,-2.529689 27.333002,0.678699 z"
           id="path28"
           sodipodi:nodetypes="cscssssscsssccccc" /></g><g
         inkscape:groupmode="layer"
         id="layer7"
         inkscape:label="Wall-O"><path
           style="opacity:1;fill:#111b09;fill-opacity:1;stroke-width:2.117;stroke-linejoin:round;stroke-miterlimit:3.1;paint-order:markers stroke fill"
           d="m 234.83565,26.031409 c -0.66282,0 -10.18286,0.148076 -13.19679,0.241035 -14.91274,0.459961 -22.84168,-1.244895 -23.94484,-0.74212 -1.25278,0.570959 -4.8575,2.72703 -2.38614,2.556589 2.47138,-0.17044 7.65057,-0.307981 8.4942,0.05357 0.84363,0.361557 1.5366,-0.06026 1.71738,0.482078 0.18078,0.542334 0.15066,2.7418 0.72312,1.687261 0.57244,-1.054537 -0.0904,-1.898168 0.66284,-1.898168 0.75324,0 1.8078,-0.723115 2.13922,-0.15065 0.33143,0.572465 0.87375,1.144927 0.75325,1.83791 -0.12054,0.692985 -1.05456,2.892452 -0.0301,2.952711 1.02444,0.06026 0.75324,-1.536615 0.93402,-2.410374 0.1808,-0.873763 0.21092,-1.687264 0.0602,-2.139211 -0.15065,-0.451944 -0.0904,-0.482075 0.5122,-0.241036 0.6026,0.241036 1.20522,-0.482075 1.56677,0.301295 0.36154,0.783372 0.75324,1.747523 1.1449,1.175061 0.3917,-0.572465 0.0904,-1.20519 0.48209,-1.20519 0.39169,0 1.35583,-0.391687 1.62699,-0.180778 0.2712,0.210907 0.36158,0.421815 0.9039,0.451946 0.54236,0.03012 18.44746,0.561867 18.27704,-0.801647 -0.17043,-1.363515 -0.44026,-1.970284 -0.44026,-1.970284 z"
           id="path8"
           sodipodi:nodetypes="sssssssssssssssssssscs" /><path
           style="opacity:1;fill:#111b09;fill-opacity:1;stroke-width:2.117;stroke-linejoin:round;stroke-miterlimit:3.1;paint-order:markers stroke fill"
           d="m 210.34021,26.724392 c -0.18077,-0.331428 0.0301,-4.609847 -0.39167,-4.941273 -0.42181,-0.331425 -1.11482,-0.391685 -1.05455,-0.06026 0.0603,0.331427 0.5122,-0.09039 0.45193,0.753242 -0.0602,0.843632 -0.15062,4.398936 -0.0602,4.519457 0.0904,0.120518 1.05452,-0.271167 1.05452,-0.271167 z"
           id="path9" /><path
           style="opacity:1;fill:#111b09;fill-opacity:1;stroke-width:2.117;stroke-linejoin:round;stroke-miterlimit:3.1;paint-order:markers stroke fill"
           d="m 207.02596,26.694261 c 0,0 0.0301,-3.223879 -0.27116,-3.404655 -0.30132,-0.18078 0.1205,-0.451947 -0.12054,-0.692983 -0.24104,-0.241038 -0.39168,0.09038 -0.54232,0.873759 -0.15066,0.783373 -0.0603,3.374528 -0.0603,3.374528 z"
           id="path10" /><path
           style="opacity:1;fill:#111b09;fill-opacity:1;stroke-width:2.117;stroke-linejoin:round;stroke-miterlimit:3.1;paint-order:markers stroke fill"
           d="m 170.2107,26.552961 c -0.51132,-0.213049 -1.91745,-0.55393 1.02262,-1.065247 2.94009,-0.511318 12.44207,0.17044 13.84821,0.553927 1.40611,0.383491 4.72969,0.468711 4.94274,0.894807 0.21305,0.426098 0.72436,1.448736 -0.4261,1.065245 -1.15047,-0.383487 -9.58722,-1.022635 -11.76032,-1.022635 -2.17309,0 -7.62715,-0.426097 -7.62715,-0.426097 z"
           id="path11" /><path
           style="opacity:1;fill:#111b09;fill-opacity:1;stroke-width:2.117;stroke-linejoin:round;stroke-miterlimit:3.1;paint-order:markers stroke fill"
           d="m 176.98564,26.467742 c 0,0 1.10786,3.238347 1.96005,3.195736 0.8522,-0.04261 1.74703,-0.553927 0.80962,-1.448734 -0.93742,-0.894809 -1.19309,-1.960052 -1.19309,-1.960052 z"
           id="path12" /><path
           style="opacity:1;fill:#111b09;fill-opacity:1;stroke-width:2.117;stroke-linejoin:round;stroke-miterlimit:3.1;paint-order:markers stroke fill"
           d="m 181.14011,26.361217 c 0,0 0.0426,0.617842 -0.21305,1.04394 -0.25567,0.426097 -1.02263,0.745672 -0.51132,0.937418 0.51132,0.191741 0.57524,0.447402 1.19307,-0.553931 0.61785,-1.001329 0.74568,-1.661782 0.74568,-1.661782 z"
           id="path13" /><path
           style="opacity:1;fill:#111b09;fill-opacity:1;stroke-width:2.117;stroke-linejoin:round;stroke-miterlimit:3.1;paint-order:markers stroke fill"
           d="m 148.42369,27.176335 c 0,0 4.21816,0.361558 8.37605,-0.120517 4.15789,-0.482076 6.26697,0.06026 5.48361,-0.482076 -0.78337,-0.542333 -1.38599,-1.868042 -3.37453,-1.747522 -1.98858,0.120518 -5.00152,0.06026 -7.41191,0.06026 -2.4104,0 -2.71168,0.96415 -2.95272,0.723114 -0.24104,-0.241039 0.75324,-0.451947 0.33144,-1.38597 -0.42182,-0.934017 -2.98284,-1.506482 -3.61558,-0.994277 -0.6327,0.512203 -1.56672,1.506484 -1.17506,2.561023 0.3917,1.054541 1.02441,1.596874 1.44622,0.512206 0.42182,-1.084671 0.0301,-1.657135 0.87378,-1.627004 0.84364,0.03012 1.20518,-0.301298 1.17506,0.241035 -0.0301,0.542338 -1.83791,2.470637 -1.8078,2.982843 0.0301,0.512207 0.48209,0.723114 -0.0602,0.783373 -0.54233,0.06026 -1.74751,0.120518 -1.77765,-0.06026 -0.0301,-0.180779 0.21092,-0.301297 -0.5122,-0.602595 -0.7231,-0.301298 -1.59688,0.0904 -1.68728,0.964149 -0.0904,0.873763 0.9039,2.229601 1.8982,1.928303 0.99428,-0.301299 2.25973,-1.416096 2.44051,-1.265448 0.18077,0.15065 0.27116,1.235317 1.1449,0.03012 0.87379,-1.20519 0.33144,-1.687264 0.69302,-2.139211 0.36154,-0.451944 0.5122,-0.361557 0.5122,-0.361557 z"
           id="path14" /><path
           style="opacity:1;fill:#111b09;fill-opacity:1;stroke-width:2.117;stroke-linejoin:round;stroke-miterlimit:3.1;paint-order:markers stroke fill"
           d="m 248.26588,144.76641 c 0,0 0,0.68176 -1.40614,1.23568 -1.40611,0.55393 -16.87349,7.66978 -14.87083,7.7976 2.00266,0.12783 16.91612,-7.62715 17.17176,-8.30891 0.25568,-0.68176 -0.89479,-0.72437 -0.89479,-0.72437 z"
           id="path15" /><path
           style="opacity:1;fill:#111b09;fill-opacity:1;stroke-width:2.117;stroke-linejoin:round;stroke-miterlimit:3.1;paint-order:markers stroke fill"
           d="m 252.95295,145.95948 c 0,0 -9.28893,4.09055 -10.31159,5.02797 -1.02262,0.93741 -3.92008,2.98269 -1.96004,2.08788 1.96004,-0.89481 13.16645,-6.30625 12.86816,-6.81758 -0.29826,-0.51131 -0.59653,-0.29827 -0.59653,-0.29827 z"
           id="path16" /><path
           style="opacity:1;fill:#111b09;fill-opacity:1;stroke-width:2.117;stroke-linejoin:round;stroke-miterlimit:3.1;paint-order:markers stroke fill"
           d="m 124.31992,27.537893 c 0,0 11.87111,0.120518 11.44929,-0.903891 -0.42182,-1.024409 -3.91688,-1.747522 -4.88102,-1.144929 -0.96416,0.602595 0.24104,1.205188 -1.32571,1.265447 -1.56673,0.06026 -5.66438,-0.542334 -5.84516,0.120521 -0.18076,0.662852 0.6026,0.662852 0.6026,0.662852 z"
           id="path17" /><path
           style="opacity:1;fill:#111b09;fill-opacity:1;stroke-width:2.117;stroke-linejoin:round;stroke-miterlimit:3.1;paint-order:markers stroke fill"
           d="m 142.24708,22.7774 c 0,0 -1.14492,-0.361557 -2.19948,0.361556 -1.05452,0.723115 -2.35008,0.903891 -1.50645,1.205189 0.84363,0.301295 2.35009,-0.210908 2.22959,0.210909 -0.12052,0.421816 -2.22959,2.380246 -2.22959,3.163616 0,0.783372 0.30127,1.837912 -0.15065,1.868044 -0.45198,0.03012 -1.44623,0.180776 -1.41611,-0.06026 0.0301,-0.241038 1.65715,-2.259728 0.96413,-2.621285 -0.69297,-0.361557 -1.47633,-0.301298 -1.80776,0.512206 -0.33143,0.813501 -0.21092,1.295576 -0.24104,1.627005 -0.0301,0.331426 -1.627,1.355835 -0.18078,1.68726 1.44622,0.33143 3.31426,0 4.33866,-1.596873 1.02444,-1.596874 0.60262,-1.9283 0.9943,-1.898172 0.3917,0.03012 2.59116,0.0904 2.0488,-0.723111 -0.54232,-0.813504 -1.50646,-0.421816 -1.38594,-0.723114 0.1205,-0.301297 1.56675,-2.561023 1.11478,-2.771931 -0.45193,-0.210907 -0.57246,-0.241039 -0.57246,-0.241039 z"
           id="path18" /><path
           style="opacity:1;fill:#111b09;fill-opacity:1;stroke-width:2.117;stroke-linejoin:round;stroke-miterlimit:3.1;paint-order:markers stroke fill"
           d="m 14.165733,23.749023 0.883227,3.643894 c 0,0 12.402063,-0.247744 15.970878,-0.178108 3.568804,0.06964 6.362342,-0.609762 6.236169,0.07962 -0.126183,0.689385 -0.252356,6.105983 0.252357,5.909016 0.5047,-0.196967 0.693964,-3.496167 0.630872,-4.579487 -0.06305,-1.083322 -0.126172,-1.674222 0.567792,-1.526498 0.693976,0.147727 12.933097,-0.344692 23.027195,0.04924 10.094111,0.393935 15.519676,0.246211 15.772033,0.689385 0.252356,0.443179 0.378553,0.714008 0.851707,0.418556 0.47314,-0.29545 -0.315461,-0.517039 0.662405,-0.418556 0.977904,0.09848 4.637,-0.196965 4.889356,0 0.252357,0.196969 0.419155,0.31884 0.776044,0.31884 0.35689,0 0.02223,-0.278555 0.468407,-0.278555 0.446104,0 6.803045,0 11.66553,0.139277 4.862495,0.139278 6.468455,-0.278556 6.602295,-0.104453 0.13383,0.174096 -0.62455,1.706141 1.73978,2.22843 2.36436,0.522287 3.88109,-0.591927 3.92572,-1.218674 0.0446,-0.626745 0.35685,-1.114215 0.35685,-1.114215 0,0 -1.20447,-0.574516 -1.33828,-0.174094 -0.13384,0.40042 0.13381,1.061986 -0.46843,1.253489 -0.60223,0.191508 -2.81042,0.243736 -3.01118,-0.243732 -0.20071,-0.487468 -0.4684,-0.835663 -0.0222,-0.731204 0.44611,0.104453 4.41642,-0.43524 7.20454,-0.174098 2.78813,0.261146 6.13386,0.278556 7.0707,0 0.93679,-0.278552 0.84758,-0.295962 1.62828,-0.295962 0.78066,0 1.829,0.08705 0.62452,-0.226326 -1.20447,-0.313371 -1.18217,-0.121864 -1.20447,-0.313371 -0.0222,-0.191508 0.49069,-0.45265 -0.24534,-0.557108 -0.73608,-0.104453 -0.57994,-0.278552 -1.02605,-0.43524 -0.4461,-0.156687 -8.18594,-0.226326 -8.54283,-0.156687 -0.35689,0.06964 -0.22306,0.295964 -0.75838,0.226326 -0.53531,-0.06964 -0.64682,-0.139277 -1.82899,-0.139277 -1.18218,0 -6.49079,-0.156688 -6.75845,-0.08705 -0.26766,0.06964 -0.40146,0.208917 -0.60222,0.121868 -0.200754,-0.08705 0.44611,-0.313374 -2.966594,-0.243735 -3.412645,0.06964 -3.011174,0.01739 -3.434949,-0.08705 -0.4238,-0.104453 -4.505617,-0.330785 -5.687792,-0.139279 -1.182175,0.191505 -5.397824,0.104465 -5.531668,-0.03481 -0.133808,-0.139279 0.66916,-3.09891 0.379181,-4.822462 -0.289931,-1.723551 -1.784377,-2.733308 -1.67286,-2.332887 0.111518,0.400419 0.446103,3.9868 0.646858,4.718002 0.200754,0.731204 0.08916,2.541804 -0.111518,2.506985 -0.20073,-0.03482 -1.026014,-0.06964 -1.717467,-0.06964 -0.691477,0 -1.226793,0.156688 -1.226793,-0.174097 0,-0.330781 0.02223,-1.949875 -0.468408,-2.367704 -0.490722,-0.417833 -0.624529,-0.243735 -0.802981,-0.03482 -0.178439,0.208913 -0.490698,1.932465 -0.55762,2.054332 -0.06693,0.121868 -0.04459,0.400421 -0.289967,0.365602 -0.24535,-0.03482 -0.267677,-0.191507 -0.780666,-0.139279 -0.513027,0.05223 -0.267677,0.295965 -0.758363,0.226327 -0.490735,-0.06964 -5.464746,0.05223 -5.777017,-0.03482 -0.312258,-0.08705 -1.182175,-0.3656 -1.33831,-0.174096 -0.156123,0.191506 0.111518,0.522288 -0.223046,0.435242 -0.334599,-0.08705 -0.401485,-0.191507 -0.646859,-0.295965 -0.245348,-0.104453 -2.765834,0.03482 -3.189609,-0.104453 -0.423812,-0.139275 -0.08916,-0.156685 -0.513025,-0.139275 -0.423801,0.01739 -4.594831,0.01739 -4.84018,0 -0.245373,-0.01739 -0.200754,-0.208916 -0.691477,-0.156688 -0.490698,0.05223 -28.022455,0.798034 -41.842861,-0.686737 -0.667002,-0.07166 -1.95582,-0.393933 -1.95582,-0.393933 z"
           id="path19"
           sodipodi:nodetypes="ccsssssssssssssssscsssssssssssssssssssssssssssssssssssssssssc" /><path
           style="opacity:1;fill:#111b09;fill-opacity:1;stroke-width:2.117;stroke-linejoin:round;stroke-miterlimit:3.1;paint-order:markers stroke fill"
           d="m 74.304605,121.31242 c 1.596868,0 8.07477,0.21091 11.087752,-0.45194 3.01297,-0.66285 8.195272,-1.38597 7.110594,-1.98856 -1.084666,-0.6026 -5.965689,0.60259 -7.713191,0.60259 -1.747526,0 -13.136558,1.627 -11.931377,1.80778 1.205205,0.18079 1.446222,0.0301 1.446222,0.0301 z"
           id="path20" /><path
           style="opacity:1;fill:#111b09;fill-opacity:1;stroke-width:2.117;stroke-linejoin:round;stroke-miterlimit:3.1;paint-order:markers stroke fill"
           d="m 80.752375,122.27658 c 0,0 -1.988578,0.5122 -5.031668,0.75324 -3.043102,0.24104 -8.10489,0.0904 -7.44203,0.3013 0.662848,0.2109 6.20673,0.36156 9.159436,0.18077 2.952719,-0.18077 4.971381,-0.99427 4.097625,-1.23531 -0.873745,-0.24105 -0.783363,0 -0.783363,0 z"
           id="path21" /><path
           style="opacity:1;fill:#111b09;fill-opacity:1;stroke-width:2.117;stroke-linejoin:round;stroke-miterlimit:3.1;paint-order:markers stroke fill"
           d="m 161.76791,193.72512 c -0.17043,0.0426 -2.04529,0.51132 -2.51398,0.93742 -0.46873,0.42609 -0.72437,1.15046 -1.19309,1.27829 -0.46869,0.12783 -0.98001,-0.63914 -1.49132,0.38349 -0.51135,1.02264 -3.15313,3.79227 -3.87749,4.34621 -0.72439,0.55393 -4.81492,5.49667 -2.55661,4.00532 2.25832,-1.49135 3.40878,-3.06791 3.28097,-2.42876 -0.12783,0.63914 -1.53397,2.55659 -1.2783,3.40878 0.25565,0.8522 1.2783,0.8522 0.89479,1.96005 -0.38348,1.10786 -0.80958,2.04528 -0.0852,2.72704 0.72436,0.68176 1.10787,0.12783 1.10787,0.8948 0,0.76698 -1.02266,1.15047 0.0852,0.98002 1.10784,-0.17043 6.00796,-5.70971 5.49664,-6.56191 -0.51131,-0.85219 -0.63914,-0.59653 -1.10784,0 -0.46872,0.59654 -1.10787,1.40613 -0.98003,1.15047 0.12783,-0.25566 0.72436,-0.93741 0.25567,-0.98002 -0.46873,-0.0426 -0.63915,0.17044 -0.34088,-0.51133 0.29825,-0.68175 -0.12785,-0.25565 0.25567,-1.53395 0.38347,-1.27829 5.2836,-7.07323 5.2836,-8.35152 0,-1.2783 -1.23568,-1.7044 -1.23568,-1.7044 z"
           id="path29" /><path
           style="opacity:1;fill:#111b09;fill-opacity:1;stroke-width:2.117;stroke-linejoin:round;stroke-miterlimit:3.1;paint-order:markers stroke fill"
           d="m 165.43235,198.15654 c 0,0 -0.89479,0.95873 -1.91744,1.55527 -1.02263,0.59652 -2.38615,1.3209 -2.27961,1.85352 0.10652,0.53262 -0.34088,1.38482 1.2996,1.12916 1.64048,-0.25566 4.26097,-4.83621 3.77095,-4.7723 -0.49003,0.0639 -0.8735,0.23435 -0.8735,0.23435 z"
           id="path30" /><path
           style="opacity:1;fill:#111b09;fill-opacity:1;stroke-width:2.117;stroke-linejoin:round;stroke-miterlimit:3.1;paint-order:markers stroke fill"
           d="m 165.2193,209.49077 c 0,0 1.96004,0.21304 2.04529,2.00266 0.0852,1.7896 -0.72439,3.15312 -0.98003,4.3888 -0.25568,1.2357 0.12783,3.4514 -1.44873,2.25833 -1.57657,-1.19308 -2.13051,-2.51398 -2.13051,-3.32358 0,-0.80958 0.0852,-1.23568 0.0852,-1.23568 0,0 -2.00266,1.40613 -2.30093,0.0852 -0.29826,-1.32091 -0.68174,-0.85221 0.12784,-2.21572 0.80957,-1.36352 1.78961,-1.10785 0.93742,-1.15046 -0.85221,-0.0426 -1.70441,1.32091 -2.00268,0.68175 -0.29825,-0.63914 0.46872,-2.38614 2.13051,-3.11051 1.66177,-0.72437 2.30093,-1.96006 2.47135,-2.08789 0.17047,-0.12783 -0.0852,-0.85219 0.76699,-0.51131 0.8522,0.34087 1.4061,0.38348 0.89479,0.93741 -0.51132,0.55393 -1.06521,0.98004 -0.46869,0.98004 0.59653,0 2.13051,-1.40614 1.36352,0.12781 -0.76699,1.53396 -2.1731,1.49135 -1.747,1.83223 0.42608,0.34089 0.25564,0.34089 0.25564,0.34089 z"
           id="path31" /><path
           style="opacity:1;fill:#111b09;fill-opacity:1;stroke-width:2.117;stroke-linejoin:round;stroke-miterlimit:3.1;paint-order:markers stroke fill"
           d="m 158.97624,52.553747 c 1.0244,-2.28986 4.15788,-6.447757 1.98856,-5.845164 -2.16934,0.602593 -6.92985,6.025941 -8.31581,6.869572 -1.38596,0.843633 -7.1106,1.868042 -6.32724,4.700235 0.78337,2.83219 4.51948,1.084668 4.76048,0.90389 0.24104,-0.180776 7.89401,-6.628533 7.89401,-6.628533 z"
           id="path32" /><path
           style="opacity:1;fill:#111b09;fill-opacity:1;stroke-width:2.117;stroke-linejoin:round;stroke-miterlimit:3.1;paint-order:markers stroke fill"
           d="m 144.09216,55.024381 c 1.47635,-1.05454 1.71739,-2.410375 2.7418,-3.012971 1.02441,-0.602593 2.71167,-1.868041 1.05455,-1.385966 -1.65714,0.482076 -3.10337,1.355839 -4.03739,2.500765 -0.93402,1.144929 -1.2052,2.259728 -0.60258,2.169338 0.60258,-0.09038 0.84362,-0.271166 0.84362,-0.271166 z"
           id="path33" /><path
           style="opacity:1;fill:#111b09;fill-opacity:1;stroke-width:2.117;stroke-linejoin:round;stroke-miterlimit:3.1;paint-order:markers stroke fill"
           d="m 191.8176,47.130399 c -1.32572,-0.482074 0.36156,-2.530895 -1.9283,-2.651413 -2.28985,-0.120518 -5.54385,0.602593 -7.83373,0.602593 -2.28985,0 -5.42335,0.12052 -7.59269,0.843631 -2.16931,0.723115 -0.1205,0.120522 -3.13348,1.205189 -3.01295,1.084671 -3.97711,2.289857 -3.97711,2.289857 l 13.61864,-1.205186 z"
           id="path34" /></g></g><g
       inkscape:groupmode="layer"
       id="layer4"
       inkscape:label="Window"><g
         inkscape:groupmode="layer"
         id="layer8"
         inkscape:label="Window-F"><path
           style="opacity:1;fill:#c6eef4;fill-opacity:1;stroke-width:2.117;stroke-linejoin:round;stroke-miterlimit:3.1;paint-order:markers stroke fill"
           d="m 257.2593,93.183047 0.48209,-36.637726 c 0,0 -15.18537,-0.96414 -16.87263,-0.48207 -1.68727,0.48207 -20.8106,-0.117792 -22.17412,1.160499 -1.36351,1.278291 -1.96004,1.533942 -1.87483,5.113175 0.0853,3.579221 0.25566,29.571225 0.25566,29.571225 0,0 27.61117,1.02264 31.78693,0.596539 4.17576,-0.426101 8.3969,0.678358 8.3969,0.678358 z"
           id="path35" /><path
           style="opacity:1;fill:#ffb253;fill-opacity:1;stroke-width:2.117;stroke-linejoin:round;stroke-miterlimit:3.1;paint-order:markers stroke fill"
           d="m 254.54764,47.793254 c 0,0 1.74753,7.472165 1.44622,7.532425 -0.30128,0.06026 -13.60815,0.940074 -16.84649,1.53661 -3.23834,0.596538 -23.77628,0 -23.77628,0 0,0 -43.37683,0.511318 -47.89344,2.215711 -4.51665,1.704395 -7.66978,4.431424 -9.28897,6.050597 -1.61916,1.619175 -8.52198,12.527298 -12.69773,17.981349 -4.17576,5.454063 -15.68042,31.616534 -15.68042,31.616534 0,0 0.0852,16.70305 1.96005,16.87349 1.87483,0.17044 36.18429,2.42453 43.77698,1.58089 7.59269,-0.84363 42.18159,-1.20518 47.48442,-1.44622 5.30284,-0.24104 32.6606,0.96415 33.02215,2.04882 0.36155,1.08466 4.09765,6.26698 2.04881,6.74905 -2.04881,0.48208 -36.03513,-0.60259 -36.03513,-0.60259 0,0 -21.9344,1.92829 -26.87568,1.32571 -4.94129,-0.6026 -39.28912,0.12051 -42.78418,-0.6026 -3.49503,-0.72311 -13.01603,-0.12052 -15.54692,-0.24104 -2.5309,-0.12051 -14.46225,-2.5309 -14.58278,-3.37452 -0.12051,-0.84364 -1.80777,-25.79103 -1.80777,-25.79103 0,0 13.73915,-27.237284 15.06483,-29.165587 1.32572,-1.928304 10.84671,-18.559896 13.85966,-21.452348 3.01298,-2.892449 10.24411,-9.400468 13.85969,-9.762021 3.61553,-0.361557 13.13652,-3.012972 13.13652,-3.012972 0,0 12.05189,-1.084669 12.65449,-1.084669 0.60259,0 22.53701,0.602595 22.53701,0.602595 0,0 18.68044,0.120518 21.45235,0.120518 2.77194,0 10.72617,0.241036 10.72617,0.241036 z"
           id="path44" /><path
           style="opacity:1;fill:#6bd4f9;fill-opacity:1;stroke-width:2.117;stroke-linejoin:round;stroke-miterlimit:3.1;paint-order:markers stroke fill"
           d="m 250.14871,59.423316 c 0,0 -28.44245,28.683476 -30.97334,27.11674 -2.5309,-1.566748 -3.97712,-26.634661 0.24104,-26.514143 4.21816,0.120518 30.7323,-0.602597 30.7323,-0.602597 z"
           id="path36" /><path
           style="opacity:1;fill:#6bd4f9;fill-opacity:1;stroke-width:2.117;stroke-linejoin:round;stroke-miterlimit:3.1;paint-order:markers stroke fill"
           d="m 246.65367,92.44547 c 0,0 12.17239,-10.967202 13.37757,-9.400466 1.20522,1.566749 -0.48204,7.231133 0,7.472162 0.48208,0.241041 -1.9283,2.289859 -1.9283,2.289859 L 247.37677,92.44547 Z"
           id="path37" /><path
           style="opacity:1;fill:#5ca4ce;fill-opacity:1;stroke-width:2.117;stroke-linejoin:round;stroke-miterlimit:3.1;paint-order:markers stroke fill"
           d="m 258.57744,55.072674 c 0.4261,0.340881 3.40879,5.1984 1.7044,5.794941 -1.7044,0.596537 -13.37948,-0.937418 -17.2996,1.107854 -3.92009,2.045272 -16.27696,0.08523 -18.06654,1.619173 -1.78962,1.533955 -2.55661,2.130492 -3.15314,5.880159 -0.59656,3.749671 0.51132,15.169098 0.34086,17.470029 -0.17043,2.30093 0.34088,2.812256 0.4261,3.664446 0.0853,0.852202 0.8522,1.789617 0.25567,1.87483 -0.59653,0.08517 -3.15313,-0.681752 -4.77231,-1.960043 -1.61915,-1.278303 -1.78962,-7.073241 -1.44873,-8.266307 0.34089,-1.193078 0.4261,-24.884149 0.4261,-24.884149 0,0 31.87215,-1.363515 34.08787,-1.278294 2.21572,0.08523 7.49932,-1.022639 7.49932,-1.022639 z"
           id="path38" /><path
           style="opacity:1;fill:#ffb152;fill-opacity:1;stroke-width:2.117;stroke-linejoin:round;stroke-miterlimit:3.1;paint-order:markers stroke fill"
           d="m 216.88551,57.495017 c 0,0 -0.74746,31.23943 0.27519,32.432507 1.02263,1.193066 2.89746,2.300931 2.89746,2.300931 l 37.83754,0.255651 c 0,0 1.96004,5.454063 1.19308,5.36885 -0.76698,-0.08517 -6.22104,0.08516 -11.16379,0.170438 -4.94275,0.08517 -30.25297,0.511313 -30.25297,0.511313 l -1.10787,4.090553 1.02263,29.31558 -4.4314,0.17045 c 0,0 -0.59656,-32.724381 -2.1305,-33.491358 -1.53395,-0.766976 -4.34619,-1.533965 -4.34619,-1.533965 0,0 -69.36884,1.960054 -69.28363,1.533965 0.0853,-0.4261 0.59657,-5.454062 2.55661,-5.198399 1.96004,0.25565 40.13846,-0.681764 43.88812,-1.107865 3.74969,-0.426101 28.20771,1.533953 28.71903,-1.193078 0.51135,-2.727019 -0.51132,-28.122486 -0.51132,-28.122486 0,0 -1.36351,-6.050594 -0.0852,-5.880158 1.2783,0.170441 4.92322,0.377071 4.92322,0.377071 z"
           id="path39" /><path
           style="opacity:1;fill:#fad5aa;fill-opacity:1;stroke-width:2.117;stroke-linejoin:round;stroke-miterlimit:3.1;paint-order:markers stroke fill"
           d="m 216.64936,118.05005 c 0,0 -2.98267,3.9201 -3.23834,2.81224 -0.25564,-1.10785 -1.53394,-22.838896 -1.53394,-22.838896 l -2.81225,-0.511326 c 0,0 4.8575,-3.664447 5.96538,-4.601861 1.10784,-0.937415 1.10784,-1.87483 2.04526,-1.619167 0.93741,0.255651 5.96536,3.238345 11.16378,2.215706 5.19839,-1.02264 18.32222,-0.85219 16.27697,-0.170438 -2.04529,0.681751 -10.3968,4.772299 -10.8229,4.772299 -0.4261,0 -13.54995,-0.08517 -15.08389,0.08516 -1.53396,0.170437 -1.70439,0.511313 -1.70439,1.107852 0,0.596539 -0.25568,18.748361 -0.25568,18.748361 z"
           id="path40" /><path
           style="opacity:1;fill:#fad5aa;fill-opacity:1;stroke-width:2.117;stroke-linejoin:round;stroke-miterlimit:3.1;paint-order:markers stroke fill"
           d="m 252.44164,48.084662 c 0,0 5.79495,-0.340877 3.40877,1.363516 -2.38615,1.704392 -2.38615,1.022635 -8.35152,1.533955 -5.96538,0.511317 -43.29159,0.681758 -49.4274,1.533952 -6.13582,0.852197 -17.38484,-0.170438 -28.6338,2.215712 -11.24901,2.386149 -20.36751,11.845534 -21.73103,11.675094 -1.36351,-0.17044 -1.87483,0.255661 -1.53394,-0.511318 0.34089,-0.766976 6.73235,-8.948063 10.05591,-11.675092 3.32356,-2.727031 18.06656,-6.050599 20.62315,-6.476696 2.55661,-0.4261 18.91878,-0.4261 18.91878,-0.4261 0,0 24.62849,0.255661 26.4181,0.4261 1.78962,0.170438 16.87349,-0.340879 18.74832,-0.340879 1.87483,0 11.50466,0.681756 11.50466,0.681756 z"
           id="path41" /><path
           style="opacity:1;fill:#fad5aa;fill-opacity:1;stroke-width:2.117;stroke-linejoin:round;stroke-miterlimit:3.1;paint-order:markers stroke fill"
           d="m 144.46832,67.855627 c 0.68177,-0.08523 2.64182,0.511316 2.47135,2.556588 -0.17042,2.045268 -4.00529,7.584556 -5.45406,10.055924 -1.44873,2.471369 -5.11317,10.226362 -7.58453,11.589878 -2.47138,1.363516 -3.8349,0.766977 -3.49402,0.170438 0.34089,-0.596539 6.39148,-11.41944 8.26631,-14.913448 1.87483,-3.494008 5.79495,-9.45938 5.79495,-9.45938 z"
           id="path42" /><path
           style="opacity:1;fill:#fad5aa;fill-opacity:1;stroke-width:2.117;stroke-linejoin:round;stroke-miterlimit:3.1;paint-order:markers stroke fill"
           d="m 202.66431,132.93983 c 0,0 -11.20825,-0.36156 -12.41347,0.60258 -1.20517,0.96416 -7.35163,7.71322 -8.67732,7.71322 -1.32572,0 -28.68349,0.60258 -28.08089,0 0.60258,-0.6026 6.14645,-8.07477 12.41343,-7.83373 6.26697,0.24104 24.22428,-1.32571 24.22428,-1.32571 z"
           id="path43" /><path
           style="opacity:1;fill:#6bd4f9;fill-opacity:1;stroke-width:2.117;stroke-linejoin:round;stroke-miterlimit:3.1;paint-order:markers stroke fill"
           d="m 212.06476,57.253978 0.24105,34.588907 -72.67284,1.687251 c 0,0 10.24408,-18.439375 14.1007,-23.380649 3.85661,-4.941266 11.81084,-9.882538 11.81084,-9.882538 l 6.86956,-2.169339 26.15259,-1.205185 z"
           id="path45" /><path
           style="opacity:1;fill:#c6eef4;fill-opacity:1;stroke-width:2.117;stroke-linejoin:round;stroke-miterlimit:3.1;paint-order:markers stroke fill"
           d="m 169.43769,92.398893 40.56456,-32.553916 -43.46205,3.749665 c 0,0 -16.53261,17.555249 -19.43006,22.497998 -2.8975,4.942737 -3.23835,7.158443 -2.04529,7.158443 1.19308,0 24.37284,-0.85219 24.37284,-0.85219 z"
           id="path46" /><path
           style="opacity:1;fill:#c6eef4;fill-opacity:1;stroke-width:2.117;stroke-linejoin:round;stroke-miterlimit:3.1;paint-order:markers stroke fill"
           d="m 132.45235,119.32834 c 2.21572,-0.68176 23.52061,-12.95341 20.79359,-13.63517 -2.72703,-0.68177 -13.4647,0.68176 -13.4647,0.68176 z"
           id="path47" /><path
           style="opacity:1;fill:#5ca4ce;fill-opacity:1;stroke-width:2.117;stroke-linejoin:round;stroke-miterlimit:3.1;paint-order:markers stroke fill"
           d="m 146.02044,93.409621 c 1.44626,-1.928291 15.57704,-25.042678 20.51976,-26.576633 4.94274,-1.533951 45.5073,-3.749664 45.5073,-3.749664 0,0 0.85221,-6.817571 0,-6.135817 -0.8522,0.681757 -37.70512,1.270624 -37.70512,1.270624 l -11.32876,2.892449 -8.79787,9.279948 -8.07477,11.328769 c 0,0 -6.9901,11.56981 -6.3875,11.690324 0.60258,0.120515 6.26696,0 6.26696,0 z"
           id="path48" /><path
           style="opacity:1;fill:#c6eef4;fill-opacity:1;stroke-width:2.117;stroke-linejoin:round;stroke-miterlimit:3.1;paint-order:markers stroke fill"
           d="m 204.83363,100.76127 c -8.31579,3.37453 -38.32498,31.69648 -37.7224,31.93752 0.6026,0.24104 34.22736,1.44622 36.15567,-0.48207 1.92831,-1.9283 -3.73611,-0.24104 -3.73611,-0.24104 0,0 4.94129,-2.5309 8.43633,-5.42335 3.49506,-2.89245 4.09764,-4.70024 4.09764,-4.70024 0,0 1.08468,-22.657558 -0.12053,-23.260154 -1.20518,-0.602596 -3.01295,-1.325707 -3.01295,-1.325707 z"
           id="path49" /><path
           style="opacity:1;fill:#c6eef4;fill-opacity:1;stroke-width:2.117;stroke-linejoin:round;stroke-miterlimit:3.1;paint-order:markers stroke fill"
           d="m 257.50035,133.78346 0.96417,-30.00922 -37.84293,0.6026 c 0,0 0.96417,25.79105 2.28985,26.63469 1.32572,0.84362 14.22124,1.56674 16.75214,1.56674 2.5309,0 17.83677,1.20519 17.83677,1.20519 z"
           id="path50" /><path
           style="opacity:1;fill:#6bd5f9;fill-opacity:1;stroke-width:2.117;stroke-linejoin:round;stroke-miterlimit:3.1;paint-order:markers stroke fill"
           d="m 239.14737,132.11129 c 3.06792,-1.87484 23.35019,-17.55525 23.17975,-22.32755 -0.17045,-4.77234 -3.23834,-7.6698 -3.23834,-7.6698 0,0 -23.52063,-2.727031 -24.20241,-1.53397 -0.68174,1.19308 -3.23834,6.47672 -7.84021,8.69245 -4.60186,2.21571 -10.05591,7.32889 -10.05591,7.32889 l 4.261,16.36217 z"
           id="path51" /><path
           style="opacity:1;fill:#5ba3ce;fill-opacity:1;stroke-width:2.117;stroke-linejoin:round;stroke-miterlimit:3.1;paint-order:markers stroke fill"
           d="m 257.62088,97.627784 c 0,0 5.30281,4.218156 1.92832,5.784896 -3.37454,1.56675 -33.26322,0.24105 -34.58892,2.65143 -1.32571,2.41038 -1.08466,24.8269 -1.08466,24.8269 0,0 -5.78493,1.92829 -5.90543,1.20518 -0.12054,-0.72311 -1.56676,-15.78796 -0.96416,-18.92145 0.60262,-3.13349 0.24104,-14.582804 0.24104,-14.582804 0,0 2.16934,-1.687263 4.09765,-1.325707 1.9283,0.361555 26.27309,0.48207 28.80399,0.48207 2.53088,0 7.47217,-0.120515 7.47217,-0.120515 z"
           id="path52" /><path
           style="opacity:1;fill:#6bd5f9;fill-opacity:1;stroke-width:2.117;stroke-linejoin:round;stroke-miterlimit:3.1;paint-order:markers stroke fill"
           d="m 212.48658,121.37002 c 0,0 -4.27842,4.94127 -6.14646,5.66438 -1.86804,0.72312 -7.59269,5.72465 -7.59269,5.72465 0,0 14.34174,-1.32571 14.34174,-1.74752 0,-0.42182 -0.60259,-9.64151 -0.60259,-9.64151 z"
           id="path53" /><path
           style="opacity:1;fill:#6bd5f9;fill-opacity:1;stroke-width:2.117;stroke-linejoin:round;stroke-miterlimit:3.1;paint-order:markers stroke fill"
           d="m 203.86641,103.81833 c -1.36352,0.34088 -29.31556,22.49803 -31.53126,24.88417 -2.21572,2.38615 -2.72704,3.92011 -2.72704,3.92011 l -25.225,0.8522 -13.63516,-1.53397 0.17044,-12.95338 c 0,0 14.65777,-7.66977 17.3848,-9.54461 2.72703,-1.87484 5.9654,-5.9654 7.15845,-5.9654 1.19309,0 48.40477,0.34088 48.40477,0.34088 z"
           id="path54" /><path
           style="opacity:1;fill:#5ba4ce;fill-opacity:1;stroke-width:2.117;stroke-linejoin:round;stroke-miterlimit:3.1;paint-order:markers stroke fill"
           d="m 212.21797,106.03405 c -2.72704,0.17044 -14.99868,0.34088 -18.40747,0.34088 -3.40877,0 -44.29499,1.19567 -46.52461,1.43672 -2.22959,0.24104 -5.30279,-0.48209 -5.84515,0.24104 -0.54232,0.72311 -4.94125,8.37606 -4.88102,9.52099 0.0603,1.14493 -0.0602,13.61862 -0.0602,13.91992 0,0.3013 -0.30132,1.20519 -1.92831,0.48208 -1.62699,-0.72311 -2.47063,-1.08467 -2.77193,-1.14493 -0.30132,-0.0602 -2.35013,-13.67889 -0.0602,-19.04197 2.28986,-5.36312 6.26697,-13.437885 6.26697,-13.437885 l 31.26129,0.35425 23.17975,-1.022639 17.21438,0.17045 2.04529,1.022627 z"
           id="path55" /></g><path
         style="opacity:1;fill:#111b09;fill-opacity:1;stroke-width:2.117;stroke-linejoin:round;stroke-miterlimit:3.1;paint-order:markers stroke fill"
         d="m 253.12338,45.655903 c 1.40613,-0.852197 2.21571,-1.491345 2.76965,-0.937417 0.55394,0.553927 -0.72436,1.235685 -0.17043,1.619175 0.55391,0.383487 2.30093,1.448732 0.93742,2.343539 -1.36352,0.894808 -14.41809,-1.114969 -28.29598,-0.04255 -10.08836,0.779589 -46.56249,-4.154762 -66.19406,4.276644 -20.53088,8.817644 -39.81931,59.637966 -40.01224,60.379966 -0.48904,1.88077 -2.77193,-0.36155 0.96414,-8.67738 3.73608,-8.315806 22.63332,-50.173649 39.26491,-54.512326 16.63159,-4.338677 32.80534,-3.698277 45.09827,-3.457237 12.29289,0.241036 13.49811,0.361556 20.00612,0.241036 6.50801,-0.120518 10.46644,-0.82442 15.90242,-0.452833 3.28124,0.224297 6.5949,0.769454 9.72978,-0.78062 z"
         id="path2"
         sodipodi:nodetypes="sssssssssssss" /><path
         style="opacity:1;fill:#111b09;fill-opacity:1;stroke-width:2.117;stroke-linejoin:round;stroke-miterlimit:3.1;paint-order:markers stroke fill"
         d="m 262.75322,139.0993 c 0,0 -18.49268,0.0852 -21.56058,0 -3.0679,-0.0852 -10.81724,-0.33943 -16.70305,0 -55.25939,3.18669 -96.939,-1.3297 -97.08929,-1.33872 -3.01298,-0.18078 -4.4592,-2.04882 -5.00152,-1.627 -0.54235,0.4218 -2.10907,2.16933 -0.0602,3.19374 7.6681,3.83406 91.62591,3.63722 97.03788,2.92511 3.23837,-0.4261 22.75366,-0.4261 30.42343,-0.34087 7.66978,0.0852 16.36216,1.44872 16.36216,-0.25567 0,-1.70439 -3.40877,-2.55659 -3.40877,-2.55659 z"
         id="path3"
         sodipodi:nodetypes="csssssssscc" /><path
         style="opacity:1;fill:#111b09;fill-opacity:1;stroke-width:2.117;stroke-linejoin:round;stroke-miterlimit:3.1;paint-order:markers stroke fill"
         d="m 122.31119,112.16988 c 0,0 -0.21305,3.11053 -0.21305,4.98536 0,1.87483 0.2983,16.31957 0.51134,17.25698 0.21306,0.93742 0.42607,3.36618 0.42607,3.36618 0,0 -0.80957,0.80958 -1.4061,0.51132 -0.59653,-0.29827 -0.55394,-4.7723 -0.8522,-6.39148 -0.29827,-1.61917 -0.61411,-10.45425 -0.63916,-12.05858 -0.0426,-2.72704 0.0426,-4.34621 -0.0852,-5.83755 -0.10423,-1.2157 -0.12784,-3.06791 0.55393,-4.00532 0.68174,-0.93742 3.11051,-5.75237 3.06789,-5.24104 -0.0426,0.51131 -1.36352,7.41413 -1.36352,7.41413 z"
         id="path4"
         sodipodi:nodetypes="csscssssssc" /><path
         id="path5"
         style="opacity:1;fill:#111b09;fill-opacity:1;stroke-width:2.117;stroke-linejoin:round;stroke-miterlimit:3.1;paint-order:markers stroke fill"
         d="m 259.12749,54.30127 c 0,0 -28.16153,2.646097 -41.45579,1.964344 -13.29428,-0.681757 -46.95576,0.767253 -51.21675,2.045546 -4.26096,1.278293 -9.88537,6.760541 -14.82811,12.470254 -4.94273,5.709714 -16.4471,30.779146 -17.7254,33.250516 -1.2783,2.47138 -4.77214,8.7915 -4.34604,11.34808 0.4261,2.5566 -0.42682,15.70862 -0.93805,15.70862 -0.51131,0 -1.78951,1.10776 0.8523,1.61907 2.64181,0.51133 4.17609,0.85237 6.98833,1.19325 2.81228,0.34088 23.31948,0.67524 37.55115,0.16392 14.2317,-0.51132 43.49235,-0.33445 49.62816,-0.67531 6.13581,-0.34087 16.10653,-2.4e-4 23.0093,0.5963 6.90279,0.59654 13.46516,1.27865 12.61296,-0.0849 -0.85219,-1.36351 -12.52771,-1.96045 -19.17482,-2.89786 -6.29478,-0.88772 -6.0786,-0.76382 -25.86934,-0.17107 -0.0225,-0.58973 -0.12685,-3.23006 -0.34279,-5.60542 -0.24106,-2.65142 0.36184,-12.17243 -0.12025,-14.34176 -0.48208,-2.16936 -0.60276,-9.15913 -0.48225,-10.84639 0.12054,-1.687259 0.53144,-3.452087 -7.06124,-3.572602 -7.59269,-0.120526 -27.66843,0.338881 -35.38165,0.700436 -7.71318,0.361556 -32.03793,0.46152 -32.03793,0.46152 l 1.44614,-2.892275 c 0,0 34.34791,-1.446402 37.96348,-1.325888 3.61557,0.120515 15.30582,-0.241029 19.16242,0 3.85657,0.241041 8.07468,0.241041 10.7261,0 2.65139,-0.241029 5.06226,0.481794 5.4238,-3.254274 0.36156,-3.736093 -0.36191,-13.256737 -0.12087,-16.751789 0.241,-3.49504 -0.36138,-15.306263 -0.36138,-15.306263 0,0 27.31134,-0.808872 33.44715,-0.467996 6.13581,0.34088 13.4349,-1.46031 13.4349,-2.062902 0,-0.602596 -0.7835,-1.265139 -0.7835,-1.265139 z m -56.82465,4.27829 c 6.74904,0.0108 8.97871,-0.304341 8.97871,-0.120253 0,0 0.72318,18.138251 0.24112,22.717957 -0.48208,4.579718 0.96397,9.520572 -0.48225,9.761601 -1.44622,0.241041 -14.46213,0.542513 -16.3904,0.48225 -1.9283,-0.06022 -31.275,0.421998 -36.69834,0.482249 -5.42332,0.06022 -16.6916,1.204797 -16.14928,0.180382 0.54236,-1.024403 13.37736,-28.261705 25.30871,-31.69649 7.31496,-2.105821 16.75205,-1.988208 19.28295,-1.927949 2.58864,0.06164 9.11932,0.109431 15.90878,0.120253 z m -1.09964,39.726365 c 4.77555,-0.07533 9.1138,0.105077 9.41509,1.370521 0.6026,2.530894 0.84401,27.598704 0.96451,29.044924 0.0993,1.19191 0.32401,1.9104 0.41345,2.17758 -0.26806,0.008 -0.35558,0.0108 -0.6304,0.0192 -23.43541,0.68176 -51.84746,0.93723 -61.00686,0.93723 -9.15945,0 -18.1983,-0.3621 -18.3188,-1.44675 -0.12054,-1.08467 -0.24113,-15.90815 -0.24113,-15.90815 L 138.307,99.315045 c 0,0 18.07795,0.723305 27.23738,0.482262 9.1594,-0.241029 19.52407,-1.807957 23.62171,-1.325888 2.04882,0.241041 7.26155,-0.0902 12.03711,-0.165508 z"
         sodipodi:nodetypes="sssssssssssssscsssssccssssscsscsssssssssssssccssccsssss" /><path
         style="opacity:1;fill:#111b09;fill-opacity:1;stroke-width:2.117;stroke-linejoin:round;stroke-miterlimit:3.1;paint-order:markers stroke fill"
         d="m 216.04189,57.615534 c 0,0 0,3.856603 0.1205,8.135021 0.12054,4.278418 -1.32568,23.922986 0.36158,25.549985 1.68726,1.627012 2.10908,1.988567 4.88102,2.350122 2.77191,0.361556 18.86117,1.205181 25.00764,0.48207 6.14646,-0.723111 6.74906,-0.723111 9.15941,-0.602596 2.4104,0.120526 4.70024,1.084678 4.3387,0.241041 -0.36154,-0.843625 -1.08468,0.602596 -1.14494,-0.542333 -0.0602,-1.14493 1.56676,-1.807777 -0.0602,-1.928304 -1.62702,-0.120514 -17.59576,0.783374 -20.66898,0.723123 -3.07325,-0.06021 -18.43939,-0.120527 -19.82535,-1.687275 -1.38598,-1.566736 -0.48208,-32.660594 -0.48208,-32.660594 z"
         id="path6" /><path
         style="opacity:1;fill:#111b09;fill-opacity:1;stroke-width:2.117;stroke-linejoin:round;stroke-miterlimit:3.1;paint-order:markers stroke fill"
         d="m 216.47894,131.34432 c 0,0 -0.51132,-6.90279 -0.4261,-11.41944 0.0852,-4.51665 -1.982,-21.86922 1.21678,-22.952123 2.91037,-0.985263 12.33315,-0.398104 14.03755,-0.227666 1.70437,0.17045 19.68574,-0.766977 22.75366,-0.340876 3.06788,0.426101 4.8575,0.511326 5.2836,0.681752 0.4261,0.17045 2.30093,1.960054 -0.17043,1.533965 -2.47139,-0.4261 -14.06126,-0.08517 -18.5779,0 -4.51664,0.08517 -7.34757,0.258578 -10.8229,0.340876 -8.45455,0.20021 -11.42773,-1.235756 -11.85713,1.197362 -0.25565,1.44872 -0.14108,5.51316 -0.17951,9.05753 -0.0542,5.0005 0.61721,15.31104 0.61721,16.50412 0,1.19307 -0.17044,1.02262 0.0852,2.55659 0.25567,1.53395 -0.17043,3.57922 -0.17043,3.57922 z"
         id="path7"
         sodipodi:nodetypes="csssssssssssscc" /><g
         inkscape:groupmode="layer"
         id="layer9"
         inkscape:label="Window-O" /></g><g
       inkscape:groupmode="layer"
       id="layer5"
       inkscape:label="Stool"><g
         inkscape:groupmode="layer"
         id="layer10"
         inkscape:label="Stool-F"><path
           style="opacity:1;fill:#5f5377;fill-opacity:1;stroke-width:2.117;stroke-linejoin:round;stroke-miterlimit:3.1;paint-order:markers stroke fill"
           d="m 231.61484,223.9305 2.47063,12.35317 c 0,0 -12.89552,4.63998 -15.06484,4.7605 -2.16934,0.12052 -15.84822,-1.50649 -19.34329,-3.13349 -3.49504,-1.62701 -2.59114,-1.02441 -2.59114,-1.02441 0,0 -0.3013,-2.65142 -0.24104,-2.89245 0.0602,-0.24104 3.79635,-8.55684 4.15789,-8.67735 0.36156,-0.12053 10.90695,-3.19376 15.18538,-3.67583 4.27842,-0.48208 9.40045,1.32571 9.76203,1.38597 0.36156,0.0602 5.66438,0.90389 5.66438,0.90389 z"
           id="path57" /><path
           style="opacity:1;fill:#a68dab;fill-opacity:1;stroke-width:2.117;stroke-linejoin:round;stroke-miterlimit:3.1;paint-order:markers stroke fill"
           d="m 226.84756,226.34448 c 0,0 1.40613,0.55394 -1.83224,0.98002 -3.23834,0.42611 -11.16376,1.66179 -11.71769,1.87485 -0.55395,0.21304 -1.27831,0.85219 -1.91746,0.89479 -0.63911,0.0426 -0.38347,-0.21304 -1.44873,-0.17044 -1.06525,0.0426 -4.47402,-0.12781 -6.34885,-0.51131 -1.87483,-0.38348 -2.08787,-0.17044 -2.08787,-0.59654 0,-0.4261 -2.25835,-1.61916 0.51131,-2.85485 2.76962,-1.2357 7.62715,-2.21572 9.84287,-1.87484 2.21572,0.34088 0.17042,0.17044 3.23834,0.12783 3.06791,-0.0426 2.9827,-0.38348 5.28363,0.12783 2.30093,0.51132 3.11051,1.66179 3.74966,1.747 0.63916,0.0853 1.15047,-0.38348 1.78961,-0.12782 0.63915,0.25565 0.93742,0.38348 0.93742,0.38348 z"
           id="path58" /><path
           style="opacity:1;fill:#909bc4;fill-opacity:1;stroke-width:2.117;stroke-linejoin:round;stroke-miterlimit:3.1;paint-order:markers stroke fill"
           d="m 205.70538,240.14211 c 0,0 -1.7044,12.9534 -1.91744,14.40213 -0.21305,1.44874 -1.34511,27.98416 -1.34511,27.98416 0,0 -3.88066,0.57681 -4.05109,-0.0197 -0.17044,-0.59654 0.81772,-17.44509 0.76433,-20.53192 -0.0227,-1.31243 2.37354,-22.94249 2.37354,-22.94249 z"
           id="path67"
           sodipodi:nodetypes="cscsscc" /><path
           style="opacity:1;fill:#c6e2e2;fill-opacity:1;stroke-width:2.117;stroke-linejoin:round;stroke-miterlimit:3.1;paint-order:markers stroke fill"
           d="m 200.11373,256.44333 c 0,0 0.0509,2.77049 1.18321,2.37355 1.13234,-0.39695 0.4452,-3.0935 0.95878,-6.53164 0.51358,-3.43816 1.4402,-5.08287 0.49418,-6.10291 -0.94603,-1.02001 -1.45471,-0.41972 -1.9864,1.78214 -0.53169,2.20186 -0.64977,8.47886 -0.64977,8.47886 z"
           id="path68"
           sodipodi:nodetypes="cssssc" /><path
           style="opacity:1;fill:#909bc4;fill-opacity:1;stroke-width:2.117;stroke-linejoin:round;stroke-miterlimit:3.1;paint-order:markers stroke fill"
           d="m 200.27681,243.57995 -1.1148,4.63998 c 0,0 -2.38025,-0.57246 -2.35012,-1.74753 0.0301,-1.17506 0.96415,-2.56102 2.04882,-2.56102 1.08468,0 1.4161,-0.33143 1.4161,-0.33143 z"
           id="path69" /><path
           style="opacity:1;fill:#909bc4;fill-opacity:1;stroke-width:2.117;stroke-linejoin:round;stroke-miterlimit:3.1;paint-order:markers stroke fill"
           d="m 205.06744,245.05631 c 0,0 -1.05455,3.31427 -0.54235,3.52518 0.51222,0.21091 9.65964,1.36088 11.83274,1.53132 2.17311,0.17044 10.95074,-1.87483 10.95074,-1.87483 l -0.34088,-4.7723 c 0,0 -3.96272,1.61918 -8.94807,2.21571 -4.98536,0.59654 -12.95218,-0.62508 -12.95218,-0.62508 z"
           id="path70" /><path
           style="opacity:1;fill:#909bc4;fill-opacity:1;stroke-width:2.117;stroke-linejoin:round;stroke-miterlimit:3.1;paint-order:markers stroke fill"
           d="m 230.28599,237.19245 1.24516,22.42652 c 0,0 1.87819,22.29291 0.9743,22.35316 -0.9039,0.0602 -3.29398,-0.0601 -3.29398,-0.0601 0,0 -1.75767,-28.26872 -1.75767,-29.65469 0,-1.38596 -1.02441,-13.07628 -1.02441,-13.07628 z"
           id="path71"
           sodipodi:nodetypes="ccscscc" /><path
           style="opacity:1;fill:#909bc4;fill-opacity:1;stroke-width:2.117;stroke-linejoin:round;stroke-miterlimit:3.1;paint-order:markers stroke fill"
           d="m 230.88859,242.64594 c 0,0 0.75324,-0.9039 1.86804,0.42181 1.1148,1.3257 1.56674,3.01297 0.75324,3.19375 -0.8135,0.18077 -2.10908,0.54233 -2.25972,0.51221 -0.15065,-0.0301 -0.36156,-4.12777 -0.36156,-4.12777 z"
           id="path72" /><path
           style="opacity:1;fill:#c6e2e2;fill-opacity:1;stroke-width:2.117;stroke-linejoin:round;stroke-miterlimit:3.1;paint-order:markers stroke fill"
           d="m 210.62209,248.80086 c -1.02264,-0.25566 -4.38882,-1.23568 -0.8522,-1.23568 3.53661,0 5.58189,0.4687 5.49667,0.8948 -0.0852,0.4261 -0.89481,0.76698 -1.83222,0.80959 -0.93742,0.0426 -2.81225,-0.46871 -2.81225,-0.46871 z"
           id="path73" /><path
           style="opacity:1;fill:#c6e2e2;fill-opacity:1;stroke-width:2.117;stroke-linejoin:round;stroke-miterlimit:3.1;paint-order:markers stroke fill"
           d="m 230.80257,244.24029 c -0.25566,-0.17043 -0.76697,-2.21571 -1.49134,-0.4687 -0.72437,1.747 -0.68175,5.96537 0.76697,5.75232 1.44873,-0.21305 0.72437,-5.28362 0.72437,-5.28362 z"
           id="path74" /><path
           style="opacity:1;fill:#c6e2e2;fill-opacity:1;stroke-width:2.117;stroke-linejoin:round;stroke-miterlimit:3.1;paint-order:markers stroke fill"
           d="m 230.03028,255.91306 c -0.21304,-0.0852 -0.72437,-0.29827 -0.80958,0.55392 -0.0853,0.8522 -0.0426,8.05326 1.06525,8.05326 1.10785,0 1.44872,-0.89481 1.15045,-2.72703 -0.29826,-1.83222 -0.4687,-4.90013 -0.8948,-5.15579 -0.4261,-0.25566 -0.51132,-0.72436 -0.51132,-0.72436 z"
           id="path75" /></g><g
         inkscape:groupmode="layer"
         id="layer11"
         inkscape:label="Stool-O"><path
           id="path56"
           style="opacity:1;fill:#111b09;fill-opacity:1;stroke-width:2.117;stroke-linejoin:round;stroke-miterlimit:3.1;paint-order:markers stroke fill"
           d="m 216.70095,220.28564 c -3.40261,0.0302 -6.41517,0.46902 -7.87721,0.73268 -2.59922,0.46871 -6.90275,2.85506 -8.8628,3.83509 -1.96004,0.98002 -2.25849,5.70961 -3.66462,8.3514 -1.40614,2.64181 -1.7473,3.87727 -1.06555,5.19817 0.68177,1.32091 2.47139,-0.12768 2.47139,-0.12768 0,0 3.32372,3.66462 14.82836,3.66462 11.50463,0 20.87893,-4.51666 21.56067,-4.77232 0.68178,-0.25566 0.34085,-1.2786 -0.17046,-4.51694 -0.51131,-3.23835 -2.21539,-8.94772 -2.21539,-8.94772 0,0 -1.02263,-0.767 -6.90278,-2.47139 -2.57258,-0.74566 -5.45513,-0.96943 -8.10161,-0.94591 z m -0.0272,1.88191 c 7.11083,-0.0775 13.24465,3.10532 13.73616,3.26915 0.54232,0.18077 2.47037,7.77375 2.65115,9.15971 0.18078,1.38597 -9.09903,5.30292 -18.07768,5.30292 -8.97865,0 -14.42601,-2.68917 -15.23559,-3.07265 -0.80958,-0.38352 -0.8949,-0.12821 -1.83231,-0.42648 -0.93742,-0.29827 -0.17036,-1.70422 0.68185,-3.40861 0.8522,-1.70439 2.42861,-6.60464 2.42861,-6.60464 0,0 5.40057,-3.17977 13.41506,-4.08365 0.75136,-0.0848 1.49716,-0.12774 2.23275,-0.13575 z" /><path
           style="opacity:1;fill:#111b09;fill-opacity:1;stroke-width:2.117;stroke-linejoin:round;stroke-miterlimit:3.1;paint-order:markers stroke fill"
           d="m 200.94515,238.03931 0.16886,1.95376 c 0,0 -0.74312,-0.19322 -0.97751,1.29758 -0.23439,1.49081 -3.36688,39.38169 -2.6842,40.65881 0.68269,1.27714 0.77659,2.61819 0.96802,2.03134 0.19141,-0.58683 0.62305,-2.72446 0.86178,-5.18353 0.23875,-2.45908 2.08516,-35.87356 2.32898,-37.0002 0.24385,-1.12663 0.53207,-2.24896 0.53207,-2.24896 z"
           id="path59"
           sodipodi:nodetypes="ccssssscc" /><path
           style="opacity:1;fill:#111b09;fill-opacity:1;stroke-width:2.117;stroke-linejoin:round;stroke-miterlimit:3.1;paint-order:markers stroke fill"
           d="m 225.82491,239.55354 c 0,0 2.01514,44.18676 2.79854,43.94572 0.78336,-0.24104 1.05863,1.23121 0.81759,-1.23942 -0.24104,-2.47063 -2.22512,-44.16838 -2.22512,-44.16838 z"
           id="path60"
           sodipodi:nodetypes="csscc" /><path
           style="opacity:1;fill:#111b09;fill-opacity:1;stroke-width:2.117;stroke-linejoin:round;stroke-miterlimit:3.1;paint-order:markers stroke fill"
           d="m 229.41518,237.66964 c 0.0603,2.2296 2.22122,43.66029 2.22122,43.66029 0,0 0.0602,2.16933 0.96416,2.35011 0.9039,0.18078 1.38596,-1.44622 0.78337,-3.73608 -0.60259,-2.28986 -2.43195,-42.51536 -2.43195,-42.51536 z"
           id="path61"
           sodipodi:nodetypes="ccsscc" /><path
           style="opacity:1;fill:#111b09;fill-opacity:1;stroke-width:2.117;stroke-linejoin:round;stroke-miterlimit:3.1;paint-order:markers stroke fill"
           d="m 231.07249,241.49612 c 0,0 2.0891,-0.01 2.50078,1.05453 0.96073,2.48378 0.64292,5.29637 -2.38538,5.574 0,0 -0.2461,-1.75755 -0.0955,-1.78768 0.15065,-0.0301 1.87826,-0.0502 1.99876,-1.25542 0.29876,-1.787 -1.28813,-2.33171 -2.16931,-2.38025 z"
           id="path62"
           sodipodi:nodetypes="cscsscc" /><path
           style="opacity:1;fill:#111b09;fill-opacity:1;stroke-width:2.117;stroke-linejoin:round;stroke-miterlimit:3.1;paint-order:markers stroke fill"
           d="m 205.54265,243.98496 c 0,0 2.04526,1.19308 9.88547,1.10786 5.47765,-0.0595 11.50466,-1.87483 11.50466,-1.87483 l -0.17046,1.53394 c 0,0 -7.91366,2.13304 -11.58985,1.96005 -7.24367,-0.34087 -10.14114,-1.27829 -10.14114,-1.27829 z"
           id="path63"
           sodipodi:nodetypes="csccscc" /><path
           style="opacity:1;fill:#111b09;fill-opacity:1;stroke-width:2.117;stroke-linejoin:round;stroke-miterlimit:3.1;paint-order:markers stroke fill"
           d="m 206.12369,241.04417 c 0,0 0.13325,2.35012 -0.39978,3.43479 -0.53307,1.08466 -0.69327,5.4557 -0.9598,7.56478 -0.26649,2.10908 -1.48175,31.0337 -2.21471,31.27474 -0.73297,0.24105 -0.7996,0.42182 -0.86621,-0.36155 -0.0667,-0.78338 2.04173,-36.00734 2.10836,-37.45356 0.0667,-1.44623 0.79958,-4.7605 0.79958,-4.7605 z"
           id="path64"
           sodipodi:nodetypes="cssssscc" /><path
           style="opacity:1;fill:#111b09;fill-opacity:1;stroke-width:2.117;stroke-linejoin:round;stroke-miterlimit:3.1;paint-order:markers stroke fill"
           d="m 204.25707,249.66126 c 0.42182,0 5.96567,0.9039 10.54541,0.96415 4.57971,0.0602 12.17238,-1.74751 12.17238,-1.74751 l -0.12052,-1.92831 c 0,0 -5.8154,2.07672 -10.51561,2.2575 -4.70025,0.18078 -11.78038,-1.23309 -11.78038,-1.23309 z"
           id="path65"
           sodipodi:nodetypes="csccscc" /><path
           style="opacity:1;fill:#111b09;fill-opacity:1;stroke-width:2.117;stroke-linejoin:round;stroke-miterlimit:3.1;paint-order:markers stroke fill"
           d="m 199.7376,248.69712 0.30131,-1.44622 c 0,0 -2.71166,0.24103 -2.71166,-0.9039 0,-1.14493 0.66284,-1.86804 1.38594,-1.86804 0.72313,0 1.20518,0.0602 1.20518,0.0602 l 0.42182,-1.50648 c 0,0 -1.92828,-0.54234 -3.254,0.12051 -1.3257,0.66286 -1.80779,4.27843 -0.18076,4.82076 1.62698,0.54233 2.83217,0.72311 2.83217,0.72311 z"
           id="path66" /><path
           style="fill:#111b09;stroke:none;stroke-width:2.64583;stroke-linejoin:round;stroke-miterlimit:3.1;fill-opacity:1"
           d="m 203.26138,238.57103 c 0,0 -0.71045,-2.3445 1.84719,-0.92359 2.55764,1.42091 3.72989,2.69973 2.98391,2.52212 -0.74598,-0.17762 -4.76005,-1.34987 -4.76005,-1.34987 z"
           id="path76" /></g></g><path
       id="path1"
       style="display:none;fill:#111b09;fill-opacity:1;stroke-width:2.11701;stroke-linejoin:round;stroke-miterlimit:3.1;paint-order:markers stroke fill"
       d="m 24.230598,11.260709 c -3.924871,0.180342 -3.852802,1.92701 -5.021136,4.708181 -1.551535,3.693367 -0.435671,40.09546 -0.549402,42.331123 -0.223476,4.393003 1.105168,45.007957 2.211341,62.713627 0.527053,8.43611 2.534393,30.67705 1.962148,37.59024 -0.572246,6.91319 -1.143793,72.54955 -2.097536,78.7476 -0.953742,6.19803 0.100065,38.54209 1.406982,39.39316 0.610481,0.39755 7.271604,-0.45678 9.942081,-0.77464 2.670477,-0.31785 58.464664,-3.57624 90.319644,-3.49681 31.85498,0.0794 88.88931,3.97259 96.42387,3.57528 7.53455,-0.39731 10.68213,-1.82634 11.92201,-4.28967 1.23985,-2.46333 1.90924,-44.00703 2.44876,-51.87337 0.53952,-7.86633 -0.67551,-65.74118 -0.81039,-74.39415 -0.13494,-8.65299 -3.30424,-84.8993 -3.30424,-84.8993 0,0 -0.33755,-20.943255 0.13927,-32.067942 0.47688,-11.124684 -0.76336,-13.746034 -2.95696,-15.255812 -2.1936,-1.50978 -10.9673,0.477122 -18.59723,-0.158575 -7.6299,-0.635696 -41.77336,-0.159859 -55.03036,-0.318782 -13.25701,-0.158924 -47.40206,1.271219 -76.586563,1.191757 -29.184497,-0.07946 -43.966563,-2.382816 -49.879762,-2.700664 -0.73915,-0.03973 -1.381831,-0.04702 -1.942527,-0.02125 z M 216.26602,14.59894 c 4.99523,-0.09933 9.28625,0.177963 9.33394,1.767203 0.0954,3.178481 1.0501,32.818672 1.33621,37.109618 0.28612,4.290952 1.52543,40.049681 1.14394,44.181707 -0.3815,4.132022 1.9072,42.829562 1.9072,46.246432 0,3.41686 0.95369,54.11419 0.4768,59.51761 -0.47686,5.40343 -0.95339,61.50213 -2.384,64.5217 -1.43061,3.01956 -3.14764,4.52993 -6.10425,4.92725 -2.95659,0.3973 -27.75412,0.0798 -39.10364,-1.35034 -11.34952,-1.43031 -85.837115,-2.62195 -92.513315,-1.98626 -6.676186,0.63569 -39.674628,1.82767 -39.674628,1.82767 -1.621361,0 -20.696812,1.0325 -22.890417,1.35034 -2.193607,0.31785 -3.05156,0.55606 -2.860813,-1.03318 0.190749,-1.58924 -0.09614,-39.57184 -0.09614,-46.88236 0,-7.31051 1.240077,-60.39196 1.240077,-66.82838 0,-6.43642 -3.242589,-59.755133 -3.624086,-65.476401 -0.381497,-5.721269 -2.381606,-46.690384 -1.967381,-60.134365 0.151289,-4.910267 1.489392,-17.97637 4.255244,-17.658521 2.765852,0.317848 55.795475,1.509491 75.919429,1.986263 20.12396,0.476772 35.38274,-1.827162 50.83337,-0.953079 15.45061,0.874081 45.49353,-0.794856 51.21598,-0.635932 2.86123,0.07946 8.56126,-0.397647 13.55648,-0.496975 z"
       sodipodi:nodetypes="ssssssssssssscssssssssssssssssscsssssssssss"
       inkscape:export-filename="frame_thick-o.svg"
       inkscape:export-xdpi="96"
       inkscape:export-ydpi="96"
       inkscape:label="o" /></g></svg>
