<?xml version="1.0" encoding="UTF-8" standalone="no"?>
<!-- Created with Inkscape (http://www.inkscape.org/) -->

<svg
   width="39.286156mm"
   height="34.009388mm"
   viewBox="0 0 39.286156 34.009388"
   version="1.1"
   id="svg1"
   inkscape:version="1.3 (0e150ed6c4, 2023-07-21)"
   sodipodi:docname="egg_bubble_bottom.svg"
   xmlns:inkscape="http://www.inkscape.org/namespaces/inkscape"
   xmlns:sodipodi="http://sodipodi.sourceforge.net/DTD/sodipodi-0.dtd"
   xmlns="http://www.w3.org/2000/svg"
   xmlns:svg="http://www.w3.org/2000/svg">
  <sodipodi:namedview
     id="namedview1"
     pagecolor="#ffffff"
     bordercolor="#000000"
     borderopacity="0.25"
     inkscape:showpageshadow="2"
     inkscape:pageopacity="0.0"
     inkscape:pagecheckerboard="0"
     inkscape:deskcolor="#d1d1d1"
     inkscape:document-units="mm"
     inkscape:zoom="0.65834035"
     inkscape:cx="-95.695183"
     inkscape:cy="-78.227015"
     inkscape:window-width="1920"
     inkscape:window-height="974"
     inkscape:window-x="-11"
     inkscape:window-y="-11"
     inkscape:window-maximized="1"
     inkscape:current-layer="layer2" />
  <defs
     id="defs1">
    <pattern
       id="EMFhbasepattern"
       patternUnits="userSpaceOnUse"
       width="6"
       height="6"
       x="0"
       y="0" />
  </defs>
  <g
     inkscape:groupmode="layer"
     id="layer2"
     inkscape:label="Layer 2"
     transform="translate(-92.889108,-189.16769)">
    <path
       style="opacity:1;fill:#f9f7ef;fill-opacity:1;stroke-width:2.117;stroke-linejoin:round;stroke-miterlimit:3.1;paint-order:markers stroke fill"
       d="m 130.4901,199.91737 c 0,0 1.05498,6.58102 0.6782,8.59049 -0.37677,2.00948 -0.80379,6.50567 -4.11942,8.76632 -3.31563,2.26066 -3.51657,3.36587 -6.07865,4.01895 -2.56208,0.65308 -3.46634,0.9545 -5.47581,0.90426 -2.00948,-0.0502 -5.82747,-0.50236 -8.64073,-1.45686 -2.81326,-0.9545 -5.57629,-2.00948 -7.284342,-4.72226 -1.708049,-2.71279 -3.11468,-2.26066 -3.164917,-5.37534 -0.05024,-3.11469 0.15071,-5.17439 1.10521,-6.83221 0.954498,-1.65781 3.014209,-4.67202 3.014209,-4.67202 0,0 -0.25119,-2.78814 -0.753553,-3.29051 -0.502368,-0.50237 -1.883881,-3.66729 -1.331275,-3.44122 0.552603,0.22606 6.103768,3.54169 6.103768,3.54169 0,0 3.69514,-2.42052 6.71458,-2.77575 3.01943,-0.35523 5.47051,-0.92359 7.92158,-0.56836 2.45107,0.35522 5.79021,1.91823 5.79021,1.91823 0,0 2.98392,1.38539 4.36931,3.126 1.38538,1.74062 1.15163,2.26859 1.15163,2.26859 z"
       id="path3" />
    <path
       style="opacity:1;fill:#f1edd9;fill-opacity:1;stroke-width:2.117;stroke-linejoin:round;stroke-miterlimit:3.1;paint-order:markers stroke fill"
       d="m 122.77875,191.45247 3.21516,8.69097 -3.86824,7.73646 c 0,0 -5.07391,2.71279 -5.47581,2.76303 -0.40189,0.0502 -7.58575,-1.00474 -8.28907,-1.30616 -0.70331,-0.30142 -4.67202,-5.57628 -4.67202,-5.57628 l 1.55734,-3.61705 c 0,0 3.56681,-5.27487 4.01894,-5.77724 0.45214,-0.50237 5.27487,-4.16965 5.27487,-4.16965 l 3.46634,-0.50237 z"
       id="path9" />
    <path
       style="opacity:1;fill:#d3c9b3;fill-opacity:1;stroke-width:2.117;stroke-linejoin:round;stroke-miterlimit:3.1;paint-order:markers stroke fill"
       d="m 104.86326,202.55093 c 0,0 -0.52141,5.07779 6.41127,6.28347 6.93267,1.20569 10.70044,-1.85876 12.70991,-5.67676 2.00947,-3.81799 2.00947,-4.57155 2.00947,-4.57155 0,0 0.75355,6.43031 0.25118,7.28434 -0.50237,0.85403 -3.61705,5.87771 -3.61705,5.87771 0,0 -3.76776,2.51184 -4.27012,2.66255 -0.50237,0.15071 -4.62179,0.5526 -4.62179,0.5526 0,0 -3.36587,-1.40663 -3.76776,-1.5071 -0.4019,-0.10048 -3.86823,-1.45687 -4.27013,-3.26539 -0.4019,-1.80853 -1.45687,-5.62653 -1.45687,-5.62653 z"
       id="path8" />
    <path
       id="path2"
       style="opacity:1;fill:#111b09;fill-opacity:1;stroke-width:2.117;stroke-linejoin:round;stroke-miterlimit:3.1;paint-order:markers stroke fill"
       d="m 98.256535,191.19763 c -0.800116,0.10973 -1.204225,0.6078 -0.923236,0.92002 0.319704,0.35523 1.818476,3.68843 2.102659,4.93173 0.284181,1.2433 0.702822,1.8783 0.205502,2.09144 -0.497316,0.21314 -5.257191,7.38881 -3.516581,11.9357 1.740613,4.54692 2.942336,7.45342 12.386841,10.91975 9.4445,3.46634 17.78378,-1.45665 20.19515,-5.02347 2.41136,-3.56679 3.88088,-7.83315 3.36569,-13.16198 -0.62777,-6.4933 -4.28828,-9.7086 -8.64805,-11.11095 l 1.01131,2.18022 c 1.43187,0.75631 2.66714,1.75932 3.56774,3.05305 4.54212,6.5249 3.32372,13.81157 -0.85422,18.23609 -6.37278,6.74893 -12.5119,5.90831 -18.68826,4.27003 -4.87995,-1.29441 -9.863686,-5.36699 -11.152294,-10.24847 -0.85086,-3.22322 2.411338,-9.72078 3.064414,-9.51983 0.65308,0.20095 1.10518,0.0253 0.95447,-1.38132 -0.15071,-1.40661 -1.456696,-4.19514 -1.959061,-5.225 -0.376775,-0.77239 -0.188536,-0.89449 -0.0708,-0.90744 0.03925,-0.004 0.0708,0.003 0.0708,0.003 0,0 2.659171,2.00168 3.441141,2.58744 0.27704,0.20752 0.4689,0.39982 0.49402,0.82682 0.0251,0.42701 0.70259,1.70134 1.16376,0.85628 0.8372,-1.53413 2.89494,-2.7665 5.48958,-3.53053 l 2.2164,-1.72444 c -2.20272,0.36615 -3.9904,0.91715 -4.91804,1.38648 -1.54499,0.78166 -3.09335,1.91771 -3.09335,1.91771 0,0 -4.272138,-3.76378 -5.515431,-4.22558 -0.07771,-0.0289 -0.149867,-0.0469 -0.216524,-0.0558 -0.06249,-0.008 -0.120292,-0.008 -0.173633,-0.001 z"
       sodipodi:nodetypes="csssssssccsssssssccsssccscsscc" />
    <path
       style="opacity:1;fill:#f9510d;fill-opacity:1;stroke-width:2.117;stroke-linejoin:round;stroke-miterlimit:3.1;paint-order:markers stroke fill"
       d="m 93.616287,203.53442 c 0.778671,1.45687 3.918471,5.82747 4.822735,5.45069 0.904261,-0.37677 1.783408,-2.08482 1.783408,-2.21042 0,-0.12559 -2.436487,-7.20898 -2.788145,-7.03315 -0.351658,0.17583 -3.817998,3.79288 -3.817998,3.79288 z"
       id="path10" />
    <path
       style="opacity:1;fill:#f9510d;fill-opacity:1;stroke-width:2.117;stroke-linejoin:round;stroke-miterlimit:3.1;paint-order:markers stroke fill"
       d="m 99.958685,211.82349 c 0.07536,0.20095 0.992175,2.51184 1.419195,2.54952 0.42701,0.0377 1.94667,-1.04241 1.92155,-1.10521 -0.0251,-0.0628 -0.57772,-2.57464 -0.57772,-2.57464 z"
       id="path11" />
    <path
       id="path4"
       style="opacity:1;fill:#111b09;fill-opacity:1;stroke-width:2.117;stroke-linejoin:round;stroke-miterlimit:3.1;paint-order:markers stroke fill"
       d="m 97.026636,198.84006 c -0.186703,-0.004 -0.491099,0.21635 -1.470195,0.97565 -1.740613,1.34987 -2.344712,2.27332 -2.522326,2.84169 -0.177615,0.56836 -0.142111,0.88832 -0.142111,0.88832 0,0 -0.0952,0.98616 1.600973,2.4735 0.733392,0.64311 3.123709,3.56544 3.372367,3.84962 0.248661,0.28418 2.202126,-2.23839 2.663916,-2.45153 0.4618,-0.21314 0.53285,-0.60361 0,-1.84691 -0.532833,-1.24329 -2.415562,-6.18106 -3.01945,-6.46524 -0.2642,-0.12433 -0.337961,-0.26231 -0.483174,-0.2651 z m 0.217041,1.47278 c 0,0 1.598656,4.74223 1.953886,5.32835 0.355226,0.58612 0.923227,1.11901 0.656807,1.24334 -0.266422,0.12433 -1.171867,1.63431 -1.473812,1.50998 -0.301942,-0.12432 -2.593525,-3.26807 -3.179651,-3.69434 -0.586125,-0.42628 -1.100997,-1.04781 -0.834574,-1.54513 0.266419,-0.49731 2.877344,-2.8422 2.877344,-2.8422 z"
       sodipodi:nodetypes="ssscsssssscsssssc" />
    <path
       id="path5"
       style="opacity:1;fill:#111b09;fill-opacity:1;stroke-width:2.117;stroke-linejoin:round;stroke-miterlimit:3.1;paint-order:markers stroke fill"
       d="m 102.68727,210.02801 c -0.0452,-0.002 -0.0954,-0.002 -0.15089,5.1e-4 -0.88807,0.0355 -3.356807,1.26102 -3.605468,1.63401 -0.248657,0.37299 -0.14211,0.37311 -0.14211,0.37311 0,0 0.95938,1.47389 1.509988,2.04225 0.5506,0.56837 0.58601,0.56844 0.58601,0.56844 0,0 -0.60414,1.11892 0.55035,0.67489 1.15449,-0.44404 2.93097,-2.4334 2.55799,-2.62878 -0.37299,-0.19537 -0.31964,0.28416 -0.39068,-0.14211 -0.071,-0.42627 -0.32003,-1.86457 -0.49764,-1.95337 -0.16652,-0.0832 0.26021,-0.54131 -0.41755,-0.56895 z m -0.54518,1.11569 c 0.22103,-0.008 0.39634,1.66314 0.71778,1.88567 0.32654,0.22606 -1.35646,0.89135 -1.60765,0.94155 -0.25116,0.0502 -0.10048,-0.0626 -0.28887,-0.64027 -0.18839,-0.57773 -0.64027,-1.28106 -0.64027,-1.28106 0,0 1.58208,-0.84154 1.80815,-0.90434 0.004,-9.8e-4 0.007,-0.001 0.0109,-0.002 z" />
    <path
       id="path6"
       style="opacity:1;fill:#111b09;fill-opacity:1;stroke-width:2.117;stroke-linejoin:round;stroke-miterlimit:3.1;paint-order:markers stroke fill"
       d="m 117.78041,189.16778 c -6.12854,-0.0282 -12.49956,6.68836 -13.91181,12.67261 -1.47204,6.23759 1.67187,12.26033 9.16481,13.49892 3.07993,0.50911 7.03369,-0.92377 9.09402,-2.23811 2.06032,-1.31434 2.06034,-1.77611 2.06034,-1.77611 0,0 3.39516,-3.89628 2.80603,-9.41338 -0.52947,-4.95853 -3.06682,-11.86702 -7.99228,-12.64626 -0.40487,-0.064 -0.81254,-0.0958 -1.22111,-0.0977 z m 0.72375,1.30541 c 6.08156,1.24346 8.30663,10.66969 6.39416,16.12712 -2.03037,5.79387 -7.96942,8.56337 -12.64626,7.2471 -4.55026,-1.28064 -8.75302,-6.30838 -6.82025,-12.43335 1.69953,-5.38584 9.39694,-11.69236 13.07235,-10.94087 z"
       sodipodi:nodetypes="sssscssssssss" />
    <path
       style="opacity:1;fill:#111b09;fill-opacity:1;stroke-width:2.117;stroke-linejoin:round;stroke-miterlimit:3.1;paint-order:markers stroke fill"
       d="m 111.75439,209.12264 c 0,0 1.86796,1.34987 4.45132,1.10121 2.58335,-0.24866 5.66351,-1.22554 5.88211,-1.65181 0.21859,-0.42627 -0.57629,-0.60389 -0.79488,-0.39075 -0.21859,0.21313 -3.10003,0.63941 -4.51093,0.71045 -1.41091,0.0711 -3.85518,-0.35522 -4.78915,-0.33746 -0.93399,0.0178 -1.53015,0.15985 -1.09297,0.37299 0.43719,0.21313 0.8545,0.19537 0.8545,0.19537 z"
       id="path7" />
  </g>
  <g
     inkscape:label="Layer 1"
     inkscape:groupmode="layer"
     id="layer1"
     transform="translate(-92.889108,-189.16769)" />
</svg>
