<?xml version="1.0" encoding="UTF-8" standalone="no"?>
<!-- Created with Inkscape (http://www.inkscape.org/) -->

<svg
   width="108.13447mm"
   height="86.706055mm"
   viewBox="0 0 108.13447 86.706055"
   version="1.1"
   id="svg1"
   inkscape:version="1.3 (0e150ed6c4, 2023-07-21)"
   sodipodi:docname="table.svg"
   xmlns:inkscape="http://www.inkscape.org/namespaces/inkscape"
   xmlns:sodipodi="http://sodipodi.sourceforge.net/DTD/sodipodi-0.dtd"
   xmlns="http://www.w3.org/2000/svg"
   xmlns:svg="http://www.w3.org/2000/svg">
  <sodipodi:namedview
     id="namedview1"
     pagecolor="#ffffff"
     bordercolor="#000000"
     borderopacity="0.25"
     inkscape:showpageshadow="2"
     inkscape:pageopacity="0.0"
     inkscape:pagecheckerboard="0"
     inkscape:deskcolor="#d1d1d1"
     inkscape:document-units="mm"
     inkscape:zoom="0.46551692"
     inkscape:cx="-21.481496"
     inkscape:cy="276.03722"
     inkscape:window-width="1920"
     inkscape:window-height="974"
     inkscape:window-x="-11"
     inkscape:window-y="-11"
     inkscape:window-maximized="1"
     inkscape:current-layer="svg1" />
  <defs
     id="defs1">
    <pattern
       id="EMFhbasepattern"
       patternUnits="userSpaceOnUse"
       width="6"
       height="6"
       x="0"
       y="0" />
  </defs>
  <g
     inkscape:groupmode="layer"
     id="layer24"
     inkscape:label="Layer 2"
     transform="translate(-49.146942,-48.499369)">
    <g
       inkscape:groupmode="layer"
       id="layer25"
       inkscape:label="F">
      <path
         style="opacity:1;fill:#b97751;fill-opacity:1;stroke-width:2.117;stroke-linejoin:round;stroke-miterlimit:3.1;paint-order:markers stroke fill"
         d="m 150.74757,74.384714 c 0,0 -0.70763,10.159518 -0.28306,14.493298 0.42458,4.33378 -0.49534,35.167558 -0.49534,36.268758 0,1.10121 0.31844,5.86127 0.31844,5.86127 0,0 1.34447,1.84718 -1.62753,1.98927 -2.97201,0.14209 -22.21933,1.7051 -22.36085,0.99464 -0.14153,-0.71046 -47.835245,-0.85255 -52.364024,-0.56837 -4.52878,0.28419 -2.688963,1.56301 -7.925366,1.56301 -5.236401,0 -15.426155,-0.42628 -15.56768,-1.42091 -0.141525,-0.99464 0,-19.46649 0.707622,-19.60858 0.70762,-0.14209 39.202252,-0.71046 41.042067,-0.42627 1.839818,0.28418 15.587461,-0.89991 21.291621,0.2053 5.70416,1.10521 11.60845,-0.10047 11.60845,-0.10047 0,0 3.50254,-2.3109 3.50254,-2.81327 0,-0.50237 12.80934,-20.144955 12.80934,-20.144955 l 6.85498,-12.207544 z"
         id="path14" />
      <path
         style="opacity:1;fill:#cd986e;fill-opacity:1;stroke-width:2.117;stroke-linejoin:round;stroke-miterlimit:3.1;paint-order:markers stroke fill"
         d="m 142.82324,94.244249 c 0,0 -3.46634,5.274863 -5.47581,7.836941 -2.00947,2.56208 -6.83221,11.65494 -8.08813,13.01133 -1.25592,1.3564 -3.36586,5.77724 -3.36586,5.77724 0,0 0.35165,3.11468 0.60284,2.86349 0.25118,-0.25118 3.86823,-6.53078 6.32984,-10.59996 2.4616,-4.06918 5.37533,-11.10234 7.33457,-13.764888 1.95924,-2.662549 3.01421,-5.526047 3.01421,-5.526047 z"
         id="path15" />
      <path
         style="opacity:1;fill:#7d4931;fill-opacity:1;stroke-width:2.117;stroke-linejoin:round;stroke-miterlimit:3.1;paint-order:markers stroke fill"
         d="m 150.90079,83.123319 c 0,0 -7.53083,9.591154 -9.5201,12.85925 -1.98928,3.268096 -12.11327,21.349191 -12.75268,22.805631 -0.63941,1.45643 -3.37467,4.01407 -3.23257,4.22721 0.14209,0.21314 0.0355,2.59316 0.21313,2.59316 0.17762,0 4.93767,-5.64812 6.92695,-9.09383 1.98927,-3.44571 9.12935,-18.933646 10.19503,-20.567694 1.06569,-1.634048 6.25202,-9.768766 6.78486,-10.159518 0.53284,-0.39075 1.27882,-1.598525 1.27882,-1.598525 z"
         id="path16" />
      <path
         style="opacity:1;fill:#cd996f;fill-opacity:1;stroke-width:2.117;stroke-linejoin:round;stroke-miterlimit:3.1;paint-order:markers stroke fill"
         d="m 150.1193,117.65147 c 0,0 -4.22722,1.84718 -10.86998,6.57171 -6.64276,4.72453 -7.74396,8.98727 -7.74396,8.98727 l 0.14208,0.92359 c 0,0 1.63405,0.14209 1.91824,0 0.28418,-0.14209 -1.63405,-0.63941 0.35522,-2.4866 1.98928,-1.84718 9.52011,-8.24128 11.86462,-9.87533 2.3445,-1.63405 5.18632,-2.77078 5.18632,-3.05496 0,-0.28418 -0.85254,-1.06568 -0.85254,-1.06568 z"
         id="path17" />
      <path
         style="opacity:1;fill:#7d4931;fill-opacity:1;stroke-width:2.117;stroke-linejoin:round;stroke-miterlimit:3.1;paint-order:markers stroke fill"
         d="m 150.01273,118.21983 c 0,0 -10.55027,7.24665 -12.11327,8.84518 -1.56301,1.59852 -5.47051,4.97319 -5.54156,5.6126 -0.0711,0.63941 0.17762,1.66957 0.17762,1.66957 0,0 1.42091,0.0355 1.45643,-0.21314 0.0355,-0.24866 -0.4618,0.0355 0.071,-1.52748 0.53285,-1.563 8.06368,-7.31769 9.48459,-8.70308 1.42091,-1.38539 6.53619,-4.44035 6.53619,-4.44035 z"
         id="path18" />
      <path
         style="opacity:1;fill:#cd996f;fill-opacity:1;stroke-width:2.117;stroke-linejoin:round;stroke-miterlimit:3.1;paint-order:markers stroke fill"
         d="m 121.1327,121.41688 c 0,0 -41.561658,2.91287 -46.819032,5.39947 -5.257371,2.48659 -15.701071,7.60187 -13.001339,7.60187 2.699732,0 5.683647,1.56301 6.465147,0.28419 0.781502,-1.27883 11.793566,-5.89679 15.558981,-7.10456 3.765415,-1.20778 37.796243,-6.18097 37.796243,-6.18097 z"
         id="path20" />
      <path
         style="opacity:1;fill:#cd996f;fill-opacity:1;stroke-width:2.117;stroke-linejoin:round;stroke-miterlimit:3.1;paint-order:markers stroke fill"
         d="m 104.72117,114.24128 c 0,0 -21.242624,2.84182 -25.221174,3.76541 -3.978553,0.9236 -9.591154,-0.56836 -11.367294,0.63942 -1.776137,1.20777 -5.115279,2.69973 -3.19705,2.41555 1.918232,-0.28419 20.034853,-2.4866 23.445039,-2.69974 3.410188,-0.21313 17.335119,-2.77077 17.832439,-2.98391 0.49732,-0.21314 1.84719,-0.85255 1.84719,-0.85255 z"
         id="path21" />
      <path
         style="opacity:1;fill:#cd996f;fill-opacity:1;stroke-width:2.117;stroke-linejoin:round;stroke-miterlimit:3.1;paint-order:markers stroke fill"
         d="m 150.45923,92.988327 c 0,0 -7.88717,11.805653 -8.89191,14.920333 -1.00474,3.11468 -1.85876,5.17439 -0.20095,5.02368 1.65782,-0.15071 9.04262,-5.32511 7.2341,-4.87298 -1.80853,0.45214 -4.92565,2.96461 -5.3251,1.40663 -0.53235,-2.07636 7.57877,-15.158642 7.73647,-15.071032 z"
         id="path22"
         sodipodi:nodetypes="csssscc" />
      <path
         style="opacity:1;fill:#7d4931;fill-opacity:1;stroke-width:2.117;stroke-linejoin:round;stroke-miterlimit:3.1;paint-order:markers stroke fill"
         d="m 50.136332,120.06597 c 0,0 -0.301422,1.75828 -0.05024,1.70805 0.251185,-0.0502 18.788565,0.0502 32.051083,-1.55734 13.262517,-1.60758 23.812245,-4.06918 25.721245,-4.62179 1.909,-0.55261 3.16492,-1.15545 3.16492,-1.15545 0,0 -1.909,-0.35165 -3.31563,-0.15071 -1.40663,0.20095 -13.413228,2.81326 -16.07578,3.01421 -2.66255,0.20095 -18.135486,2.56208 -22.15443,2.51184 -4.018944,-0.0502 -17.180989,0.4019 -18.035013,0.35166 -0.854028,-0.0502 -1.306158,-0.10047 -1.306158,-0.10047 z"
         id="path23" />
      <path
         style="opacity:1;fill:#7d4931;fill-opacity:1;stroke-width:2.117;stroke-linejoin:round;stroke-miterlimit:3.1;paint-order:markers stroke fill"
         d="m 150.25829,98.1376 c 0,0 -1.93412,2.91373 -2.33602,4.3706 -0.40189,1.45687 0.72844,2.13507 1.45687,1.93412 0.72844,-0.20095 1.25592,-0.2763 1.25592,-0.40189 0,-0.1256 0.0502,-1.55734 0.0502,-1.55734 0,0 -1.40663,0.85402 -1.53222,0.1507 -0.1256,-0.70331 1.20568,-2.788138 1.20568,-2.788138 l -0.12559,-1.557342 z"
         id="path24" />
      <path
         style="opacity:1;fill:#7d4931;fill-opacity:1;stroke-width:2.117;stroke-linejoin:round;stroke-miterlimit:3.1;paint-order:markers stroke fill"
         d="m 150.1193,107.49195 c 0,0 -6.74934,4.26274 -7.7795,3.76542 -1.03016,-0.49732 3.23258,-10.08848 5.07976,-12.681638 1.84719,-2.593163 3.05496,-4.475872 3.05496,-4.475872 l -0.071,-1.243298 c 0,0 -12.71716,16.482578 -10.55027,19.395438 2.16689,2.91287 5.25737,0.67494 7.21112,-0.14209 1.95376,-0.81702 3.16153,-1.70509 3.16153,-1.70509 z"
         id="path25" />
      <path
         style="opacity:1;fill:#7d4931;fill-opacity:1;stroke-width:2.117;stroke-linejoin:round;stroke-miterlimit:3.1;paint-order:markers stroke fill"
         d="m 125.34083,119.51336 c -0.45213,0.15071 -5.3251,1.80853 -7.78671,2.36113 -2.4616,0.55261 -23.912714,3.16492 -31.448235,4.42084 -7.535521,1.25592 -16.075779,4.92321 -18.788565,6.43031 -2.712789,1.50711 -3.164919,2.10995 -3.164919,2.10995 0,0 3.215156,0.75355 6.380075,-0.20095 3.164919,-0.9545 10.599965,-5.52605 15.824594,-6.43031 5.224626,-0.90426 15.4227,-2.76303 21.19993,-3.71752 5.77724,-0.9545 9.44452,-0.65308 13.21228,-1.909 3.76776,-1.25592 5.3251,-2.26066 5.3251,-2.26066 z"
         id="path26" />
      <path
         style="opacity:1;fill:#9b95a7;fill-opacity:1;stroke-width:2.117;stroke-linejoin:round;stroke-miterlimit:3.1;paint-order:markers stroke fill"
         d="m 152.4638,50.904153 4.08512,4.58244 c 0,0 0.39075,-0.106569 0.17761,0.248658 -0.21313,0.35523 -5.04423,7.53083 -5.04423,7.53083 l 0.13333,10.129893 c 0,0 -1.80853,1.657813 -2.96397,4.069181 -1.15545,2.411367 -5.62653,10.399019 -5.62653,10.399019 l -5.8777,10.097598 c 0,0 -10.70044,16.427438 -11.45399,16.326958 -0.75356,-0.10047 -35.567662,-0.75355 -40.289922,-0.45213 -4.722259,0.30142 -32.754397,0.60284 -34.060555,0 -1.306158,-0.60284 0.100472,-7.33457 0.100472,-7.33457 L 51.141068,96.856562 V 50.035859 c 0,0 47.328095,-1.22755 50.738282,-0.58814 3.41019,0.639408 25.93163,0.142089 25.93163,0.142089 l 21.02949,0.497319 z"
         id="path27" />
      <path
         style="fill:#6a6379;fill-opacity:1;stroke-width:2.117;stroke-linejoin:round;stroke-miterlimit:3.1;paint-order:markers stroke fill"
         d="m 152.20038,63.333927 -0.2427,9.370245 -5.42558,9.193337 -9.19334,15.523173 -11.2028,17.080518 c 0,0 -38.444956,-0.93806 -39.723777,-0.79597 -1.278819,0.14209 -33.604554,0.28418 -34.457103,0 -0.852546,-0.28418 -3.126004,0.63941 -2.770777,-1.13673 0.355229,-1.77614 2.273458,-6.03887 2.273458,-6.03887 0,0 17.477211,1.63405 21.597856,1.49196 4.120642,-0.1421 21.242625,-0.9236 25.860586,-0.9236 4.617957,0 25.718497,0.14209 25.718497,0.14209 0,0 13.21447,-20.034839 14.77748,-23.516073 1.563,-3.481234 11.65147,-19.466486 11.65147,-19.466486 z"
         id="path38" />
      <path
         style="opacity:1;fill:#cfc8e2;fill-opacity:1;stroke-width:2.117;stroke-linejoin:round;stroke-miterlimit:3.1;paint-order:markers stroke fill"
         d="m 79.42895,73.674257 c -0.63941,0.213138 -18.542894,8.738606 -18.827078,10.4437 -0.284181,1.705094 5.044237,-1.420911 8.312333,-3.054959 3.268096,-1.634048 9.022789,-5.541555 10.443699,-6.252011 1.420911,-0.710454 1.13673,-0.994638 0.07105,-1.13673 z"
         id="path28" />
      <path
         style="opacity:1;fill:#cfc8e2;fill-opacity:1;stroke-width:2.117;stroke-linejoin:round;stroke-miterlimit:3.1;paint-order:markers stroke fill"
         d="m 80.281496,78.150129 c 0,0 -10.08847,3.907507 -10.372654,4.689009 -0.284181,0.7815 7.815014,-1.705094 9.804289,-2.841823 1.989278,-1.136729 2.91287,-2.344505 1.918232,-2.273459 -0.994638,0.07105 -1.349867,0.426273 -1.349867,0.426273 z"
         id="path29" />
      <path
         style="opacity:1;fill:#cfc8e2;fill-opacity:1;stroke-width:2.117;stroke-linejoin:round;stroke-miterlimit:3.1;paint-order:markers stroke fill"
         d="m 145.28484,53.95433 -2.19906,0.0403 c 0,0 -46.329691,-0.341725 -43.516432,0.964433 2.813262,1.306155 18.889042,1.507103 22.204672,1.507103 3.31563,0 21.7023,-2.210419 20.59709,-1.708052 -1.10521,0.502367 -7.68623,5.073918 -7.68623,5.576287 0,0.502367 -1.85876,8.490019 -3.11469,11.604702 -1.25591,3.11468 -2.66255,3.667286 -2.36112,4.320365 0.30142,0.653079 -1.40664,2.210419 0.70331,0.653079 2.10995,-1.557343 17.18099,-22.958221 16.72886,-23.259642 -0.45213,-0.301421 -1.3564,0.301421 -1.3564,0.301421 z"
         id="path30" />
      <path
         style="opacity:1;fill:#cfc8e2;fill-opacity:1;stroke-width:2.117;stroke-linejoin:round;stroke-miterlimit:3.1;paint-order:markers stroke fill"
         d="m 128.98324,64.615948 c -0.17762,0 -4.47587,4.085119 -5.07976,6.038874 -0.60389,1.953752 -1.81166,4.511394 -0.81703,3.623323 0.99464,-0.888069 5.22185,-8.241286 5.64813,-8.56099 0.42627,-0.319704 1.45643,-0.994638 1.06568,-1.101207 -0.39075,-0.106569 -0.81702,0 -0.81702,0 z"
         id="path31" />
      <path
         style="opacity:1;fill:#cfc8e2;fill-opacity:1;stroke-width:2.117;stroke-linejoin:round;stroke-miterlimit:3.1;paint-order:markers stroke fill"
         d="m 128.20174,71.436322 c -0.31971,0.106569 -3.33915,0.390752 -3.87199,3.623326 -0.53284,3.232573 1.84719,2.557639 1.49196,3.126004 -0.35523,0.568365 -0.21314,2.699732 0.17761,3.445711 0.39075,0.745977 0.63941,1.847183 1.10121,-0.603888 0.4618,-2.451073 2.69973,-6.997988 2.09584,-8.028148 -0.60388,-1.030161 -0.99463,-1.563005 -0.99463,-1.563005 z"
         id="path32" />
      <path
         style="opacity:1;fill:#cfc8e2;fill-opacity:1;stroke-width:2.117;stroke-linejoin:round;stroke-miterlimit:3.1;paint-order:markers stroke fill"
         d="m 127.2071,79.748654 c 0,0 -0.31971,0.603888 0.14209,0.74598 0.46179,0.142091 4.08512,-2.380028 4.86662,-2.344505 0.7815,0.03552 0.81702,0.710457 0.14209,0.852548 -0.67493,0.14209 -0.39075,0.39075 -2.62868,1.740615 -2.23794,1.349867 -3.05496,1.563005 -3.09049,1.101206 -0.0355,-0.461796 0.56837,-2.095844 0.56837,-2.095844 z"
         id="path33" />
      <path
         style="opacity:1;fill:#9e91b4;fill-opacity:1;stroke-width:2.117;stroke-linejoin:round;stroke-miterlimit:3.1;paint-order:markers stroke fill"
         d="m 151.81563,69.427266 c -0.25119,0.05024 -5.27487,9.092862 -8.13836,13.011333 -2.8635,3.918471 -6.1289,9.796176 -7.53553,12.760147 -1.40663,2.963974 -5.62652,9.344044 -7.2341,11.855884 -1.60757,2.51184 -2.91373,3.91847 -2.91373,3.91847 0,0 -16.17625,-0.0502 -19.29093,0.15072 -3.11469,0.20094 -13.563941,-0.10048 -16.578151,-0.10048 -3.014207,0 -19.893774,0.90426 -22.907982,0.40189 -3.01421,-0.50236 -16.779094,-1.10521 -16.879567,-0.10047 -0.100475,1.00474 1.205683,2.81326 1.205683,2.81326 l 35.86908,0.10048 26.926927,-0.50237 12.05683,0.50237 13.16205,-19.69283 c 0,0 5.69482,-10.285621 5.94348,-10.676371 0.24866,-0.390753 6.50067,-11.509383 6.60724,-12.397454 0.10657,-0.888069 -0.29294,-2.044579 -0.29294,-2.044579 z"
         id="path34" />
      <path
         style="opacity:1;fill:#6a6379;fill-opacity:1;stroke-width:2.117;stroke-linejoin:round;stroke-miterlimit:3.1;paint-order:markers stroke fill"
         d="m 154.95039,58.39946 c -0.49732,-0.14209 -0.74598,0 -0.74598,-0.568365 0,-0.568365 0.74598,-0.284181 -0.14209,-0.674931 -0.88807,-0.390752 -1.84718,-1.172252 -1.84718,-1.172252 0,0 -2.55764,2.877343 -2.20241,3.694369 0.35522,0.817023 -0.10657,3.445711 -1.27882,3.374665 -1.17226,-0.07105 -1.13673,-1.101206 -1.31435,-0.142092 -0.17761,0.959115 -2.30898,6.820376 -4.58244,10.017427 -2.27346,3.19705 -11.47386,18.649463 -12.11327,19.857235 -0.63941,1.207775 0.56837,3.126007 0.56837,3.126007 l -1.77614,2.912867 c 0,0 1.27882,-2.344502 0.21314,-2.770778 -1.06569,-0.426272 -0.99464,-1.491956 -1.42092,-0.568362 -0.42627,0.923592 -2.62868,4.120642 -3.26809,4.475869 -0.63941,0.355231 -1.42091,0.497321 -1.42091,0.497321 l 2.53988,4.20945 7.26978,-10.926011 c 0,0 18.48714,-29.689951 18.48714,-30.142082 0,-0.452133 0.80379,-1.959237 0.80379,-1.959237 z"
         id="path35" />
      <path
         style="opacity:1;fill:#6a6379;fill-opacity:1;stroke-width:2.117;stroke-linejoin:round;stroke-miterlimit:3.1;paint-order:markers stroke fill"
         d="m 121.55897,106.67493 c -0.28418,-0.71046 0.99464,-1.98928 -0.53284,-2.87735 -1.52748,-0.88807 -2.77077,-5.221848 -2.77077,-5.221848 l -14.0315,-0.603888 c 0,0 0.6394,-2.202413 1.91822,-2.273458 1.27883,-0.07105 15.63003,0.781502 16.12735,-0.568365 0.49732,-1.349865 0.85255,-2.983913 -1.91823,-3.19705 -2.77078,-0.213138 -12.19136,-0.04985 -12.44254,-0.10009 -0.25118,-0.05024 0.25118,-1.808525 -1.40663,-2.461604 -1.65782,-0.653079 -5.3251,2.310895 -6.02842,2.310895 -0.703313,0 -2.562075,0.100473 -2.81326,-0.200948 -0.251185,-0.301422 -0.251185,-2.009474 -1.456867,-1.858762 -1.205682,0.150709 -3.516577,2.763025 -3.516577,2.763025 0,0 -5.224626,-0.803791 -3.868232,1.155446 1.356392,1.959235 9.595228,0.452131 9.595228,1.155446 0,0.703316 0.753552,2.913735 0.753552,2.913735 l -3.61705,0.602842 2.461604,8.439784 -3.734533,-0.43961 c 0,0 1.207775,-1.70509 -2.983915,-3.41019 -4.191688,-1.70509 -8.880697,0.99464 -9.093832,1.84719 -0.213138,0.85254 -0.284184,2.06032 -0.284184,2.06032 0,0 13.924933,0.63941 18.329756,0.63941 4.40483,0 21.31367,-0.67493 21.31367,-0.67493 z"
         id="path36" />
      <path
         style="opacity:1;fill:#6a6379;fill-opacity:1;stroke-width:2.117;stroke-linejoin:round;stroke-miterlimit:3.1;paint-order:markers stroke fill"
         d="m 83.922583,99.676938 c 0,0 0.230897,-1.03016 -1.687332,-0.692695 -1.918232,0.337468 -1.438675,0.941353 -2.042563,0.923592 -0.603885,-0.01775 -1.225534,-0.05328 -1.065683,0.710455 0.159853,0.76374 1.207775,2.00704 2.024801,2.20241 0.817022,0.19538 0.994637,-0.071 1.207775,-0.0533 0.213135,0.0177 1.527479,-0.72822 1.527479,-1.45643 0,-0.72822 0.03552,-1.634052 0.03552,-1.634052 z"
         id="path37" />
    </g>
    <g
       inkscape:groupmode="layer"
       id="layer26"
       inkscape:label="O">
      <path
         style="opacity:1;fill:#111b09;fill-opacity:1;stroke-width:2.117;stroke-linejoin:round;stroke-miterlimit:3.1;paint-order:markers stroke fill"
         d="m 152.71989,63.147664 c 0,0 -0.0502,8.590494 -0.60284,9.695704 -0.55261,1.105209 -14.56868,25.620771 -16.57815,28.936402 -2.00947,3.31563 -7.73647,13.76488 -9.24357,13.96583 -1.50711,0.20095 -1.95924,-0.32654 -2.05971,-0.5526 -0.10047,-0.22607 -18.44876,-0.24126 -22.99568,-0.31231 -4.546917,-0.071 -21.313671,0.63941 -27.494637,0.42627 -6.180963,-0.21313 -22.166217,0.28419 -22.521446,-0.35522 -0.355227,-0.63941 -0.355227,-2.55764 -0.355227,-2.55764 0,0 14.706433,0.56836 20.674261,0.49732 5.967827,-0.071 18.756031,-0.28419 25.008043,-0.28419 6.252006,0 13.995976,0.071 16.979896,0.071 2.98391,0 10.79892,0.99463 12.14879,0.28418 1.34986,-0.71046 15.98525,-22.805629 17.12198,-25.008042 1.13673,-2.202413 7.38874,-13.782842 7.81501,-14.493296 0.42628,-0.710456 0.65718,-0.745979 0.63941,-1.420913 -0.0178,-0.674931 0.0572,-8.842308 0.25819,-8.892545 0.20094,-0.05024 1.55734,-0.954497 1.20568,-0.854025 -0.35166,0.100473 0,0.854025 0,0.854025 z"
         id="path2" />
      <path
         style="opacity:1;fill:#111b09;fill-opacity:1;stroke-width:2.117;stroke-linejoin:round;stroke-miterlimit:3.1;paint-order:markers stroke fill"
         d="m 123.28112,115.19299 c 0,0 0.0502,5.62652 0.10047,7.83694 0.0502,2.21042 -0.0502,5.87771 0,6.38008 0.0502,0.50237 0.20095,-0.10048 0.50237,1.40663 0.30142,1.5071 -0.0502,2.05971 0.35166,2.10994 0.40189,0.0502 1.80852,0.35166 2.05971,-0.20094 0.25118,-0.55261 -1.25592,-9.1431 -1.15545,-11.0521 0.10047,-1.909 0.35166,-7.38481 0.10047,-7.38481 -0.25118,0 -1.95923,0.90426 -1.95923,0.90426 z"
         id="path3" />
      <path
         style="opacity:1;fill:#111b09;fill-opacity:1;stroke-width:2.117;stroke-linejoin:round;stroke-miterlimit:3.1;paint-order:markers stroke fill"
         d="m 123.58254,107.557 c 0,0 0.70332,3.71753 0.65308,4.47108 -0.0502,0.75355 -0.65308,0.5526 0.10047,1.05497 0.75356,0.50237 0.10048,0.80379 0.85403,0.55261 0.75355,-0.25119 1.00474,0.85402 1.05497,-0.4019 0.0502,-1.25592 -0.5526,-5.57628 -0.5526,-5.57628 0,0 0.62654,-0.66285 1.62117,-1.94167 0.99464,-1.27882 13.07239,-21.810988 14.56435,-24.794904 1.49195,-2.983912 12.21983,-20.709784 12.85924,-21.704422 0.63941,-0.994637 3.41019,-4.653485 2.27346,-4.156167 -1.13672,0.497319 -12.14879,19.182305 -14.91957,22.876677 -2.77077,3.694369 -13.28552,21.029488 -14.63538,23.018766 -1.34987,1.98927 -2.91287,5.04423 -3.33915,5.39946 -0.42627,0.35523 -0.53407,1.20178 -0.53407,1.20178 z"
         id="path4"
         sodipodi:nodetypes="ccssscsssssssc" />
      <path
         style="opacity:1;fill:#111b09;fill-opacity:1;stroke-width:2.117;stroke-linejoin:round;stroke-miterlimit:3.1;paint-order:markers stroke fill"
         d="m 141.86874,65.056665 c 0.90426,-1.758289 9.89665,-13.061572 9.74594,-13.815124 -0.15071,-0.753552 -0.55261,-1.105209 -0.10047,-1.004736 0.45213,0.100475 1.00473,0.251184 1.00473,0.251184 0,0 0.45213,-1.054973 1.3564,0.05024 0.90426,1.105209 3.24027,4.672023 3.24027,4.672023 l -0.45213,0.427014 c 0,0 -0.52749,-0.02511 -1.13033,-0.803789 -0.60284,-0.778671 -3.31563,-3.717525 -3.31563,-3.717525 0,0 -0.12559,0.276304 -0.25118,0.753554 -0.12559,0.477248 -0.70332,1.557341 -1.73317,2.989088 -1.02986,1.431751 -2.16018,3.01421 -3.41611,5.023681 -1.25591,2.009473 -4.54643,5.67676 -4.87296,5.601404 -0.32654,-0.07535 -0.0754,-0.427011 -0.0754,-0.427011 z"
         id="path5" />
      <path
         style="opacity:1;fill:#111b09;fill-opacity:1;stroke-width:2.117;stroke-linejoin:round;stroke-miterlimit:3.1;paint-order:markers stroke fill"
         d="m 118.96581,99.215142 c 0,0 1.31434,4.085118 2.66421,4.120638 1.34986,0.0355 1.2433,-3.26809 1.70509,-2.02479 0.4618,1.24329 2.55764,3.01943 2.55764,2.73525 0,-0.28418 -1.13673,-2.27346 -1.95375,-4.156167 -0.81702,-1.882706 -5.71917,-1.953752 -8.56099,-1.953752 -2.84182,0 -16.837801,-1.740617 -19.679624,-1.03016 -2.841824,0.710456 -8.454422,1.491956 -5.967828,1.705094 2.486594,0.213135 9.733243,0.63941 15.701072,0.852546 5.96783,0.213137 13.53418,-0.248659 13.53418,-0.248659 z"
         id="path6" />
      <path
         style="opacity:1;fill:#111b09;fill-opacity:1;stroke-width:2.117;stroke-linejoin:round;stroke-miterlimit:3.1;paint-order:markers stroke fill"
         d="m 133.77881,81.560317 c -0.67493,0.355227 -6.21648,7.104557 -7.35321,9.626674 -1.13673,2.522119 -3.30362,5.32842 -2.06033,4.724532 1.2433,-0.603887 10.97655,-14.777479 10.124,-14.63539 -0.85255,0.142092 -0.71046,0.284184 -0.71046,0.284184 z"
         id="path7" />
      <path
         style="opacity:1;fill:#111b09;fill-opacity:1;stroke-width:2.117;stroke-linejoin:round;stroke-miterlimit:3.1;paint-order:markers stroke fill"
         d="m 124.43657,106.25084 c 0,0 -46.144349,-0.81921 -51.40172,-0.10876 -5.257374,0.71046 -21.882037,-0.56836 -21.882037,-0.56836 0,0 -0.426275,1.70509 0,2.27346 0.426273,0.56836 16.908846,1.13673 23.72922,0.56836 6.820376,-0.56836 39.217157,0 42.769437,-0.42627 3.55227,-0.42627 6.96246,0.28418 6.96246,0.28418 z"
         id="path8" />
      <path
         style="opacity:1;fill:#111b09;fill-opacity:1;stroke-width:2.117;stroke-linejoin:round;stroke-miterlimit:3.1;paint-order:markers stroke fill"
         d="m 153.31635,50.584449 c -1.42092,-0.568365 -10.08848,-1.13673 -16.62467,-1.278822 -6.53619,-0.142091 -11.08311,0.284181 -21.88204,-0.426272 -10.79892,-0.710457 -42.91152,-0.284184 -46.890073,0.142089 -3.978552,0.426275 -16.624665,0.568364 -16.624665,0.568364 0,0 -1.989275,0.710457 0,1.278822 1.989278,0.568364 13.072385,0.142091 21.029491,0.142091 7.957103,0 41.206437,-1.136729 49.447717,-0.852548 8.24129,0.284184 20.31903,0.852548 23.58713,0.99464 3.2681,0.142089 6.46515,0.213135 6.46515,0.213135 0,0 0.0355,-0.51508 0.19537,-0.532841 0.15986,-0.01775 1.29659,-0.248658 1.29659,-0.248658 z"
         id="path9" />
      <path
         style="opacity:1;fill:#111b09;fill-opacity:1;stroke-width:2.117;stroke-linejoin:round;stroke-miterlimit:3.1;paint-order:markers stroke fill"
         d="m 51.081767,97.545571 c 1.278819,0 9.235924,0.07105 13.427612,0.284181 4.191688,0.213138 10.869973,-0.284181 9.30697,0.35523 -1.563002,0.639408 -4.61796,2.699728 -5.541555,3.481228 -0.923591,0.78151 -2.131367,1.56301 -1.207775,1.63405 0.923594,0.071 3.054961,-1.77614 4.191691,-2.69973 1.136729,-0.923592 3.623323,-2.415548 3.623323,-2.415548 0,0 5.683647,0.355227 5.257374,-0.284184 -0.426276,-0.63941 -2.060324,-1.349864 -4.831101,-1.563002 -2.770778,-0.213138 -14.777479,-1.705094 -18.258711,-1.065683 -3.481234,0.63941 -5.967828,1.278821 -5.967828,1.278821 z"
         id="path10" />
      <path
         style="opacity:1;fill:#111b09;fill-opacity:1;stroke-width:2.117;stroke-linejoin:round;stroke-miterlimit:3.1;paint-order:markers stroke fill"
         d="m 64.950547,90.106339 c 0,0 6.617809,2.712719 8.276992,2.92322 1.659182,0.210506 2.138263,0.394221 2.433281,0.04272 0.295021,-0.351496 0.392463,-0.270419 -1.128683,-0.724249 -1.521146,-0.45383 -4.187221,-1.788704 -6.682764,-2.193664 -2.49554,-0.404962 -2.817636,-0.696849 -2.917779,-0.469751 -0.100147,0.227102 0.01896,0.421717 0.01896,0.421717 z"
         id="path11" />
      <path
         style="opacity:1;fill:#111b09;fill-opacity:1;stroke-width:2.117;stroke-linejoin:round;stroke-miterlimit:3.1;paint-order:markers stroke fill"
         d="m 55.329746,91.585267 c 0,0 -0.175829,0.243442 0.753555,0.59924 0.92938,0.355796 11.680055,2.378226 11.881003,1.629178 0.200948,-0.749048 0.326538,-0.992488 -0.879144,-0.955036 -1.205683,0.03745 -5.048798,-0.318346 -6.731733,-0.674142 -1.682933,-0.355798 -5.023681,-0.59924 -5.023681,-0.59924 z"
         id="path12" />
      <path
         style="opacity:1;fill:#111b09;fill-opacity:1;stroke-width:2.117;stroke-linejoin:round;stroke-miterlimit:3.1;paint-order:markers stroke fill"
         d="m 149.84225,76.666179 c 0,0 -0.85255,35.167561 -0.85255,40.495981 0,5.32841 0.35523,15.70107 0.7815,16.41152 0.42627,0.71046 0.56837,0.78151 0.71046,-0.35522 0.14209,-1.13673 0.28418,-0.9236 0.071,-2.69974 -0.21313,-1.77614 0.71046,-22.37935 0.63941,-26.21581 -0.071,-3.83647 0.28419,-9.875339 0,-14.209119 -0.28418,-4.33378 0.21314,-16.553617 0.21314,-16.553617 z"
         id="path13" />
    </g>
  </g>
</svg>
