<?xml version="1.0" encoding="UTF-8" standalone="no"?>
<!-- Created with Inkscape (http://www.inkscape.org/) -->

<svg
   width="39.631985mm"
   height="39.902676mm"
   viewBox="0 0 39.631985 39.902676"
   version="1.1"
   id="svg1"
   inkscape:version="1.3 (0e150ed6c4, 2023-07-21)"
   sodipodi:docname="shrimp_paste.svg"
   xmlns:inkscape="http://www.inkscape.org/namespaces/inkscape"
   xmlns:sodipodi="http://sodipodi.sourceforge.net/DTD/sodipodi-0.dtd"
   xmlns="http://www.w3.org/2000/svg"
   xmlns:svg="http://www.w3.org/2000/svg">
  <sodipodi:namedview
     id="namedview1"
     pagecolor="#ffffff"
     bordercolor="#000000"
     borderopacity="0.25"
     inkscape:showpageshadow="2"
     inkscape:pageopacity="0.0"
     inkscape:pagecheckerboard="0"
     inkscape:deskcolor="#d1d1d1"
     inkscape:document-units="mm"
     inkscape:zoom="0.93103385"
     inkscape:cx="92.370433"
     inkscape:cy="-26.314833"
     inkscape:window-width="1920"
     inkscape:window-height="974"
     inkscape:window-x="-11"
     inkscape:window-y="-11"
     inkscape:window-maximized="1"
     inkscape:current-layer="layer2" />
  <defs
     id="defs1">
    <pattern
       id="EMFhbasepattern"
       patternUnits="userSpaceOnUse"
       width="6"
       height="6"
       x="0"
       y="0" />
  </defs>
  <g
     inkscape:groupmode="layer"
     id="layer2"
     inkscape:label="Layer 2"
     transform="translate(-125.91914,-127.94491)">
    <path
       style="opacity:0.5;fill:#111b09;fill-opacity:1;stroke-width:2.117;stroke-linejoin:round;stroke-miterlimit:3.1;paint-order:markers stroke fill"
       d="m 135.46756,150.79458 c -2.02484,0.46259 -9.35284,6.75379 -9.54568,8.51163 -0.19285,1.75784 9.83495,8.04906 12.43832,8.51164 2.60337,0.46259 13.01684,-4.62589 13.01684,-4.62589 0,0 3.08548,1.57281 6.07454,-1.20272 2.98905,-2.77554 5.40387,-7.05654 5.59242,-7.86402 1.20529,-5.16181 -15.13812,-6.10618 -15.13812,-6.10618 z"
       id="path63"
       sodipodi:nodetypes="csscsscc" />
    <g
       inkscape:groupmode="layer"
       id="layer3"
       inkscape:label="Layer 3">
      <path
         style="opacity:1;fill:#a43500;fill-opacity:1;stroke-width:2.117;stroke-linejoin:round;stroke-miterlimit:3.1;paint-order:markers stroke fill"
         d="m 148.5107,146.18229 -2.9634,16.07589 c 0,0 -5.0605,2.21149 -5.25967,2.18482 -0.19917,-0.0267 -10.46454,-4.74633 -10.46454,-4.74633 0,0 -0.1525,-0.37523 -0.17562,-0.58105 -0.0235,-0.2058 0.21855,-5.03926 0.14292,-6.36719 -0.0756,-1.32794 -1.06001,-4.19674 0.41729,-4.25236 1.47733,-0.0556 6.48532,-3.38922 6.48532,-3.38922 l 5.52509,-1.89585 5.7951,2.14441 0.44459,0.465 0.0796,0.16271 z"
         id="path21" />
      <path
         style="opacity:1;fill:#c44d07;fill-opacity:1;stroke-width:2.117;stroke-linejoin:round;stroke-miterlimit:3.1;paint-order:markers stroke fill"
         d="m 129.97675,154.95283 c -0.0166,0.12448 -0.43025,3.59173 0.28825,4.09341 0.71844,0.50167 2.46899,1.62304 1.60805,0.67147 -0.86095,-0.95158 -1.53785,-1.57441 -0.79251,-1.65201 0.74531,-0.0776 1.42617,-0.62 1.34325,-0.75782 -0.0829,-0.13781 0.17438,-3.19515 -0.0113,-3.70152 -0.18562,-0.50636 -1.54428,-1.90472 -1.6345,-0.85241 -0.0902,1.0523 -0.80125,2.19888 -0.80125,2.19888 z"
         id="path24" />
      <path
         style="opacity:1;fill:#c44d07;fill-opacity:1;stroke-width:2.117;stroke-linejoin:round;stroke-miterlimit:3.1;paint-order:markers stroke fill"
         d="m 138.70637,148.24014 c 0.61084,-0.0196 3.25641,-2.55441 1.88357,-2.33275 -1.37283,0.22166 -2.04253,1.62721 -2.09743,1.84794 -0.0549,0.22074 -0.59283,0.45282 -0.99449,0.42438 -0.40168,-0.0285 -1.60065,0.97679 -1.97566,0.74919 -0.37501,-0.22762 -1.59628,-0.94868 -1.70629,-0.1271 -0.11,0.82158 0.38949,1.06585 0.68804,1.48596 0.29855,0.42012 -0.55918,2.66213 -1.18689,3.18631 -0.62772,0.52417 -2.23734,-0.32489 -1.13117,1.44512 1.10616,1.77003 0.66187,1.39783 0.64867,1.89784 -0.0132,0.49999 0.22952,0.96257 1.15954,0.1731 0.93001,-0.78939 2.59889,-2.68048 2.71202,-3.52549 0.11315,-0.845 0.40122,-1.79202 0.85827,-2.66267 0.45705,-0.87064 1.14182,-2.56189 1.14182,-2.56189 z"
         id="path23" />
      <path
         style="opacity:1;fill:#e7881c;fill-opacity:1;stroke-width:2.117;stroke-linejoin:round;stroke-miterlimit:3.1;paint-order:markers stroke fill"
         d="m 140.93798,143.87589 c 0.66708,0.31741 1.77231,0.7695 0.86761,0.90179 -0.9047,0.13231 -2.43379,0.76386 -3.04661,1.36606 -0.61283,0.6022 -0.77106,1.59471 -1.67576,1.72701 -0.90471,0.13231 -1.60316,-0.51876 -1.8821,-0.32807 -0.27897,0.19074 -1.21815,-0.36583 -1.04274,0.59532 0.17544,0.96116 -0.66679,2.14088 -0.43473,2.67879 0.23208,0.53793 1.11074,-0.53552 1.23283,0.82397 0.1221,1.35951 -0.50761,2.4663 -1.37117,3.23766 -0.86357,0.77137 -0.77689,0.12409 -0.872,1.02367 -0.0951,0.89959 0.20639,2.05503 -0.27605,0.92605 -0.4824,-1.12898 -0.0443,-0.99429 -0.57979,-2.10504 -0.53553,-1.11074 0.17063,-2.41004 0.013,-2.55785 -0.1576,-0.14781 -0.90292,-0.0702 -0.31302,-1.25835 0.5899,-1.18815 2.03648,-2.71775 1.23293,-2.39452 -0.80355,0.32323 -2.534,1.89086 -2.26127,0.9897 0.2727,-0.90116 -0.5471,-1.21366 0.63479,-1.33418 1.18189,-0.12055 9.09005,-4.10487 9.09005,-4.10487 l 0.80022,-0.29833 z"
         id="path22" />
      <path
         style="opacity:1;fill:#762d0c;fill-opacity:1;stroke-width:2.117;stroke-linejoin:round;stroke-miterlimit:3.1;paint-order:markers stroke fill"
         d="m 133.24314,158.38061 c 0.86607,0.72417 1.55961,1.22251 3.23569,1.95378 1.67607,0.73126 2.1944,-0.11169 2.31003,0.91752 0.11567,1.02917 -4.35052,1.38875 -4.35052,1.38875 0,0 1.9361,0.36606 3.16758,0.63232 1.23147,0.26625 1.50044,0.15024 1.98545,-0.44376 0.48501,-0.59396 1.72356,-1.13773 0.55209,-1.85211 -1.17148,-0.71439 -0.21521,-1.04252 0.031,-2.12462 0.24625,-1.0821 0.0297,0.15604 -0.0952,-1.93878 -0.12499,-2.09483 0.37063,-3.90382 0.37813,-5.47405 0.008,-1.57023 1.48336,-5.02196 0.71919,-3.85714 -0.76418,1.16481 -1.77649,0.77585 -1.98628,1.9642 -0.20976,1.18835 0.49041,1.6369 -0.44977,2.98088 -0.94023,1.34398 -0.88105,2.41629 -1.21356,3.38547 -0.33251,0.96918 -1.71648,0.32772 -2.45359,0.53313 -0.73708,0.20542 -1.29886,0.9805 -1.71193,0.85352 -0.41307,-0.12694 -0.11828,1.08089 -0.11828,1.08089 z"
         id="path25" />
      <path
         style="opacity:1;fill:#762d0c;fill-opacity:1;stroke-width:2.117;stroke-linejoin:round;stroke-miterlimit:3.1;paint-order:markers stroke fill"
         d="m 142.36706,143.99122 c 0,0 2.31795,-1.41295 2.62442,2.73358 0.30644,4.14653 -0.27692,2.44649 0.20645,4.89341 0.48334,2.44692 0.2971,3.08088 0.80479,3.45298 0.50773,0.37209 -0.88437,-3.61569 0.18752,-2.91464 1.07189,0.70106 1.54669,0.56189 1.42356,1.10295 -0.12309,0.54105 -1.54023,5.8253 -1.54023,5.8253 l -0.94461,3.26942 c 0,0 -4.06423,1.5846 -4.44612,1.7869 -0.38188,0.20229 -0.53125,0.18229 -0.53125,0.18229 l -0.8696,-0.31916 c 0,0 3.0586,-2.02337 2.04316,-2.76756 -1.01543,-0.74417 -1.35814,0.67981 -1.07502,-1.05625 0.2831,-1.73609 2.25484,-1.32003 1.764,-2.19671 -0.49084,-0.87668 -0.32064,-2.52649 -0.294,-2.72567 0.0267,-0.19917 0.0169,-0.50458 0.0933,-0.69708 0.0764,-0.19251 0.44854,-0.70024 0.44854,-0.70024 0,0 -0.24812,-1.55377 -0.1914,-2.3571 0.0569,-0.80335 0.40271,-1.87212 0.46272,-2.32025 0.06,-0.44813 0.002,-3.04088 0.0417,-3.33964 0.04,-0.29875 0.008,-1.57023 -0.20816,-1.85251 z"
         id="path26" />
      <path
         style="opacity:1;fill:#c44d07;fill-opacity:1;stroke-width:2.117;stroke-linejoin:round;stroke-miterlimit:3.1;paint-order:markers stroke fill"
         d="m 161.37717,132.11639 c 0.67902,0.2985 3.47021,1.48652 3.40906,2.29777 -0.0612,0.81124 -2.17886,7.10373 -2.17886,7.10373 l 2.58978,2.76643 -2.9301,8.42372 c 0,0 -1.7628,1.27482 -3.60471,2.50558 -1.84192,1.23076 -4.51113,2.83002 -5.49661,2.48041 -0.98549,-0.34961 -6.37563,-2.21185 -6.37563,-2.21185 l 1.84749,-9.04274 -0.38754,-0.75018 c 0,0 -2.19778,-1.17245 -2.41561,-1.21804 -0.21784,-0.0456 -3.10719,-1.20057 -3.75819,-1.14854 -0.651,0.052 -1.75219,-0.0111 -1.75219,-0.0111 0,0 -2.6219,-1.59212 -3.30181,-3.47807 -0.6799,-1.88594 -0.35311,-5.36426 0.55228,-6.01619 0.90544,-0.65194 8.65351,-3.3375 10.5705,-3.94429 1.91698,-0.60679 3.85203,-1.6182 4.6232,-1.42786 0.77116,0.19036 5.08767,1.86123 5.08767,1.86123 z"
         id="path48" />
      <path
         style="fill:#a43500;fill-opacity:1;stroke-width:2.117;stroke-linejoin:round;stroke-miterlimit:3.1;paint-order:markers stroke fill"
         d="m 164.34018,135.24823 c -0.99959,0.73505 -2.89255,1.6423 -3.20902,1.46601 -0.31648,-0.1763 0.18439,-1.47625 -0.59078,-1.71668 -0.77518,-0.24042 -1.62445,-0.77731 -3.42722,-0.63321 -1.80278,0.14409 -1.96902,-0.0442 -4.39664,-1.41249 -2.42762,-1.36827 -2.43759,-2.12343 -4.20834,-1.57873 -1.77076,0.54472 -2.58195,-0.1464 -3.04065,-0.21054 -0.4587,-0.0641 -4.19847,0.43638 -5.19405,1.2215 -0.99559,0.78514 -3.26517,2.02488 -3.31729,2.63381 -0.0521,0.60893 1.85295,-1.40803 1.85295,-1.40803 0,0 0.16028,-0.51678 0.25839,0.0802 0.0981,0.59692 0.36236,2.64208 0.0899,3.01662 -0.27244,0.37456 -1.33608,0.30838 -1.28404,0.95939 0.052,0.651 -1.02182,3.60946 -0.38888,3.96204 0.63294,0.35259 2.42958,2.02328 2.93435,2.03334 0.50477,0.01 1.79077,-0.29432 1.79077,-0.29432 0,0 5.73263,2.36403 5.93293,2.34803 0.20031,-0.016 0.8474,-1.37806 0.8474,-1.37806 0,0 1.04966,-0.73906 1.52242,-1.12962 0.47275,-0.39057 2.77443,-2.48962 3.42944,-2.49158 0.655,-0.002 -1.13399,3.46724 -2.87272,4.41256 -1.73874,0.94533 -1.06177,1.84877 -0.22451,2.23542 0.83725,0.38665 0.69103,0.44874 0.89134,0.43273 0.2003,-0.016 4.46504,-2.77594 4.46504,-2.77594 0,0 -0.93937,-1.03366 0.0281,-0.90939 0.96747,0.12426 0.88734,0.38265 1.23388,0.30455 0.34653,-0.0781 5.21219,-2.88605 5.1261,-3.33274 -0.0861,-0.44669 1.02173,-2.34953 1.02173,-2.34953 l 0.17844,-2.18134 z"
         id="path62" />
      <path
         style="opacity:1;fill:#762d0c;fill-opacity:1;stroke-width:2.117;stroke-linejoin:round;stroke-miterlimit:3.1;paint-order:markers stroke fill"
         d="m 160.05008,142.96262 c 0,0 1.90358,0.63184 -0.5809,2.54095 -2.48448,1.9091 -3.22098,1.61161 -3.73382,3.22059 -0.51285,1.60897 -0.18429,2.1529 -1.39388,2.1783 -1.2096,0.0255 -2.95695,-0.67601 -2.91293,-0.12517 0.044,0.55086 0.76904,2.05521 0.76904,2.05521 0,0 -4.41861,-2.31787 -4.24232,-2.63434 0.1763,-0.31648 -0.37642,-2.18738 0.53698,-2.1092 0.91339,0.0782 1.4622,0.63909 2.33957,0.26658 0.87737,-0.37251 6.94088,-3.32661 7.26341,-3.70516 0.32252,-0.37856 1.95485,-1.68776 1.95485,-1.68776 z"
         id="path49" />
      <path
         style="opacity:1;fill:#762d0c;fill-opacity:1;stroke-width:2.117;stroke-linejoin:round;stroke-miterlimit:3.1;paint-order:markers stroke fill"
         d="m 162.12887,149.3535 c 0,0 1.3074,-1.03104 1.37533,-0.18116 0.0679,0.84984 -1.67728,3.98276 -1.81609,4.0295 -0.13882,0.0467 -1.2408,0.5268 -1.8329,1.1443 -0.59209,0.61751 -2.68844,2.03233 -3.10769,2.1371 -0.41925,0.10484 -2.27197,1.00122 -1.11035,-1.40797 1.16161,-2.40919 4.09931,-3.99815 4.09931,-3.99815 0,0 -1.11469,-0.12473 0.017,-0.67845 1.13173,-0.55372 2.37536,-1.04512 2.37536,-1.04512 z"
         id="path50" />
      <path
         style="opacity:1;fill:#762d0c;fill-opacity:1;stroke-width:2.117;stroke-linejoin:round;stroke-miterlimit:3.1;paint-order:markers stroke fill"
         d="m 150.97005,156.8737 c 0,0 1.98294,-0.15849 1.47029,-1.22223 -0.51266,-1.06375 -4.85945,-2.39122 -4.85945,-2.39122 0,0 -1.03695,2.18542 -0.66587,2.36957 0.37108,0.18416 4.05503,1.24388 4.05503,1.24388 z"
         id="path51" />
      <path
         style="opacity:1;fill:#e4861c;fill-opacity:1;stroke-width:2.117;stroke-linejoin:round;stroke-miterlimit:3.1;paint-order:markers stroke fill"
         d="m 162.54283,144.2779 c -0.13456,0.0998 -3.23385,3.23409 -3.79053,3.84876 -0.55668,0.61468 -2.62125,3.09604 -2.22252,2.95726 0.39872,-0.13878 5.53067,-5.48457 5.89471,-5.83438 0.36403,-0.34983 0.81729,-0.47514 0.60979,-0.61892 -0.20748,-0.14378 -0.49145,-0.35272 -0.49145,-0.35272 z"
         id="path52" />
      <path
         style="opacity:1;fill:#e4861c;fill-opacity:1;stroke-width:2.117;stroke-linejoin:round;stroke-miterlimit:3.1;paint-order:markers stroke fill"
         d="m 157.46041,130.6257 c 0,0 -0.20825,0.51555 -1.2847,0.42341 -1.07645,-0.0922 -5.1599,0.0917 -2.71668,0.78731 2.44321,0.69562 3.70527,-0.0111 3.75338,0.5909 0.0481,0.60197 -0.29895,1.16425 0.6812,0.94337 0.98016,-0.22089 -0.11746,-1.02406 0.23662,-1.05236 0.35409,-0.0283 0.0736,0.0297 0.60196,-0.0481 0.52833,-0.0778 0.92784,-1.32142 0.92784,-1.32142 z"
         id="path53" />
      <path
         style="opacity:1;fill:#e4861c;fill-opacity:1;stroke-width:2.117;stroke-linejoin:round;stroke-miterlimit:3.1;paint-order:markers stroke fill"
         d="m 152.67165,130.01065 c 0,0 0.32447,-1.73648 -0.95739,-1.27766 -1.28186,0.45882 -3.87804,-0.36712 -3.06374,1.3496 0.81429,1.71672 3.43048,0.11781 3.43048,0.11781 z"
         id="path54" />
      <path
         style="opacity:1;fill:#e4861c;fill-opacity:1;stroke-width:2.117;stroke-linejoin:round;stroke-miterlimit:3.1;paint-order:markers stroke fill"
         d="m 146.06415,130.71694 c 1.23507,0.29328 2.65002,0.60783 -0.72103,1.23362 -3.37105,0.6258 -6.48856,1.30261 -3.93332,0.27877 2.55524,-1.02386 4.65435,-1.51237 4.65435,-1.51237 z"
         id="path55" />
      <path
         style="opacity:1;fill:#e4861c;fill-opacity:1;stroke-width:2.117;stroke-linejoin:round;stroke-miterlimit:3.1;paint-order:markers stroke fill"
         d="m 140.59169,140.35453 c 0.33648,0.42668 -0.18644,2.08118 0.79113,1.0707 0.97758,-1.01048 1.90907,-1.96688 0.15842,-2.43172 -1.75065,-0.46484 -1.92089,-0.70322 -1.66255,0.007 0.25834,0.71011 0.713,1.35413 0.713,1.35413 z"
         id="path56" />
      <path
         style="opacity:1;fill:#772d0c;fill-opacity:1;stroke-width:2.117;stroke-linejoin:round;stroke-miterlimit:3.1;paint-order:markers stroke fill"
         d="m 149.6818,138.06567 c -0.11719,0.11016 -1.29205,0.85923 -1.29205,0.85923 0,0 0.046,0.57588 0.672,0.52585 0.62596,-0.05 2.09825,-0.54568 1.41122,-0.94435 -0.68702,-0.39866 -0.79117,-0.44073 -0.79117,-0.44073 z"
         id="path57" />
      <path
         style="opacity:1;fill:#772d0c;fill-opacity:1;stroke-width:2.117;stroke-linejoin:round;stroke-miterlimit:3.1;paint-order:markers stroke fill"
         d="m 153.02869,141.47714 c 0.26937,0.53284 -1.01262,0.88729 0.90934,0.65808 1.92196,-0.22926 2.37573,-1.17263 3.06174,-0.47151 0.686,0.70113 0.25532,0.98754 0.688,0.72617 0.43268,-0.26137 0.69721,-1.99602 1.16988,-1.12664 0.47265,0.86936 0.23014,2.87943 0.52064,2.10025 0.2905,-0.77917 2.01545,-5.0496 1.16512,-4.65405 -0.85033,0.39555 -1.01261,0.88729 -1.07768,0.38852 -0.065,-0.49878 0.37771,-1.89488 0.37771,-1.89488 l 1.15466,-0.65946 c 0,0 -1.49715,0.44038 -1.51268,-0.19983 -0.0156,-0.6402 1.09211,-1.04946 1.07796,-1.22651 -0.0142,-0.17705 -0.51265,-1.06374 -1.52256,-0.7692 -1.0099,0.29453 -0.25636,-0.0864 -1.71383,-0.0412 -1.45745,0.0453 -1.91496,0.11744 -2.40641,-0.23529 -0.49147,-0.35272 -0.17416,-0.84135 -1.87667,-0.74091 -1.7025,0.10046 -1.59055,-0.72814 -2.49567,-0.0144 -0.90512,0.7138 -1.00997,1.18545 -0.77769,1.41634 0.23226,0.23089 -1.90496,-1.09501 -1.58068,-0.15875 0.32429,0.93625 1.2808,-0.18263 1.72929,1.57231 0.30256,1.18391 3.32485,2.3584 0.97845,3.77054 -0.91926,0.53675 -2.9036,0.23208 -0.50995,0.75347 2.39366,0.52141 2.64103,0.80695 2.64103,0.80695 z"
         id="path58"
         sodipodi:nodetypes="ccssssssccssscsssssssscc" />
      <path
         style="opacity:1;fill:#772d0c;fill-opacity:1;stroke-width:2.117;stroke-linejoin:round;stroke-miterlimit:3.1;paint-order:markers stroke fill"
         d="m 141.65484,132.17409 c 0,0 0.16557,1.62602 1.15424,1.51136 0.98865,-0.11463 1.77774,-2.28026 2.41354,-0.12158 0.6358,2.15862 -0.32165,1.77187 0.88077,2.9943 1.20243,1.22243 1.09468,2.54957 1.01959,2.94757 -0.0751,0.398 -0.68115,-1.83426 -0.9687,-1.41928 -0.28756,0.41498 -0.18002,1.76055 -0.18002,1.76055 0,0 -4.11709,-4.69562 -4.82102,-5.03135 -0.70391,-0.33573 -2.64718,-0.57241 -2.20804,-1.32023 0.43913,-0.74782 2.70964,-1.32129 2.70964,-1.32129 z"
         id="path59" />
      <path
         style="opacity:1;fill:#772d0c;fill-opacity:1;stroke-width:2.117;stroke-linejoin:round;stroke-miterlimit:3.1;paint-order:markers stroke fill"
         d="m 140.86286,135.19518 c -0.16857,0.12038 0.11889,0.59632 -0.56801,0.47303 -0.68693,-0.12327 -0.49127,-3.02544 -1.75344,-0.53693 -1.26219,2.4885 -1.12093,7.82261 -0.73419,6.86517 0.38675,-0.95745 0.16039,-4.68115 1.4776,-4.25189 1.31721,0.42926 1.79735,0.64034 1.96742,-0.7987 0.17007,-1.43903 -0.38938,-1.75068 -0.38938,-1.75068 z"
         id="path60" />
      <path
         style="opacity:1;fill:#c44d07;fill-opacity:1;stroke-width:2.117;stroke-linejoin:round;stroke-miterlimit:3.1;paint-order:markers stroke fill"
         d="m 148.57853,146.01579 c 0,0 1.06377,-1.82372 0.73728,-2.12521 -0.32648,-0.30149 -1.83861,-2.82647 -1.83861,-2.82647 0,0 -1.45913,-1.54648 -1.94193,-0.65114 -0.48281,0.89534 -0.22944,1.22787 0.68791,1.9861 0.91735,0.75823 1.24891,0.17736 1.0445,1.40322 -0.2044,1.22587 -0.98455,0.60787 -1.08471,0.61587 -0.10015,0.008 0.59493,-0.12309 1.4602,0.61405 0.86528,0.73719 0.93536,0.98358 0.93536,0.98358 z"
         id="path61" />
    </g>
    <g
       inkscape:groupmode="layer"
       id="layer4"
       inkscape:label="Layer 4">
      <path
         style="opacity:1;fill:#111b09;fill-opacity:1;stroke-width:2.117;stroke-linejoin:round;stroke-miterlimit:3.1;paint-order:markers stroke fill"
         d="m 148.96591,145.43228 c -1.15501,-0.45876 -6.24635,-2.55963 -7.26219,-2.54358 -1.01586,0.016 -10.29664,3.84192 -10.70518,4.24338 -0.40855,0.40147 -0.0369,0.65397 -0.6046,0.73001 -0.56771,0.0761 -0.82292,-0.6677 -0.9171,1.54982 -0.0942,2.21754 0.32125,7.44304 -0.28731,9.33828 -0.60855,1.89524 5.91343,4.28903 6.92574,4.678 1.01231,0.38896 3.13963,1.53545 3.8634,1.42961 0.72377,-0.10581 6.59427,-2.31025 6.2724,-2.55607 -0.32189,-0.24585 -0.31481,-1.05586 -0.98565,-0.58815 -0.67085,0.46772 -4.79508,2.50047 -5.22321,2.29108 -0.42814,-0.20938 -10.30891,-4.01591 -10.18224,-4.96197 0.12667,-0.94605 0.0964,-0.34187 0.31104,-4.2159 0.21459,-3.87402 -0.24249,-5.75989 0.44481,-5.97197 0.6873,-0.21208 9.89558,-5.0107 10.9181,-5.07653 1.02253,-0.0658 6.52906,1.58379 6.54865,2.19463 0.0196,0.61083 -1.38503,7.31595 -1.7117,9.75578 -0.32668,2.43983 -1.3215,6.46281 -1.3215,6.46281 l 0.79355,-0.24855 c 0,0 1.33795,-6.20718 1.63088,-7.63782 0.29292,-1.43066 1.71711,-7.52491 1.77712,-7.97305 0.06,-0.44814 -0.28501,-0.89981 -0.28501,-0.89981 z"
         id="path2" />
      <path
         style="opacity:1;fill:#111b09;fill-opacity:1;stroke-width:2.117;stroke-linejoin:round;stroke-miterlimit:3.1;paint-order:markers stroke fill"
         d="m 141.95663,146.37253 c 0.0371,0.79344 0.67472,2.45576 0.20229,3.57522 -0.47245,1.11945 -0.91189,1.99245 -0.5274,2.86825 0.3845,0.87579 0.4829,1.21152 0.4829,1.21152 0,0 -0.58882,-0.68811 -0.60134,0.7438 -0.0125,1.43192 0.13214,3.02824 0.38832,2.45326 0.25619,-0.57498 -0.18713,-1.27944 0.0128,-1.96946 0.19991,-0.69004 0.8453,-0.42443 0.76354,-1.15217 -0.0817,-0.72775 -0.4499,-1.45799 -0.33205,-2.33821 0.11786,-0.88022 0.65792,-1.1663 0.52961,-2.61707 -0.1283,-1.45077 0.33722,-2.78619 -0.1768,-2.96253 -0.51398,-0.17634 -0.74189,0.18739 -0.74189,0.18739 z"
         id="path3" />
      <path
         style="opacity:1;fill:#111b09;fill-opacity:1;stroke-width:2.117;stroke-linejoin:round;stroke-miterlimit:3.1;paint-order:markers stroke fill"
         d="m 143.82078,147.08898 c 0.16085,0.57974 0.54457,0.79651 0.77901,0.62115 0.23443,-0.17535 0.85801,-0.7224 0.2531,-0.9998 -0.6049,-0.2774 -0.61043,-0.27133 -0.90462,-0.16249 -0.16406,0.0608 -0.12753,0.54109 -0.12753,0.54109 z"
         id="path4"
         sodipodi:nodetypes="csssc" />
      <path
         style="opacity:1;fill:#111b09;fill-opacity:1;stroke-width:2.117;stroke-linejoin:round;stroke-miterlimit:3.1;paint-order:markers stroke fill"
         d="m 139.24748,146.79828 c -0.30053,0.10307 -0.43099,0.72086 -0.0269,0.82565 0.40413,0.10476 0.39845,-0.13672 0.5137,0.0434 0.11526,0.18016 0.64887,0.26428 0.13958,-0.28542 -0.50927,-0.5497 -0.62641,-0.58368 -0.62641,-0.58368 z"
         id="path5" />
      <path
         style="opacity:1;fill:#111b09;fill-opacity:1;stroke-width:2.117;stroke-linejoin:round;stroke-miterlimit:3.1;paint-order:markers stroke fill"
         d="m 139.9188,151.1531 c 0,0 0.16792,1.95783 0.51059,2.07539 0.34267,0.11751 0.0748,0.51177 0.0497,-0.63847 -0.0252,-1.15025 0.53373,-1.57716 0.0197,-1.7535 -0.514,-0.17634 -0.57999,0.31658 -0.57999,0.31658 z"
         id="path6" />
      <path
         style="opacity:1;fill:#111b09;fill-opacity:1;stroke-width:2.117;stroke-linejoin:round;stroke-miterlimit:3.1;paint-order:markers stroke fill"
         d="m 138.09457,151.66149 c -0.67396,0.48319 -1.04299,1.36561 -0.49821,1.04431 0.54478,-0.32129 0.23512,-0.6853 0.54949,-0.35649 0.31436,0.3288 0.23673,0.64097 0.34487,0.36872 0.10818,-0.27223 0.37564,-0.12894 0.2656,-0.64539 -0.11,-0.5165 -0.66175,-0.41115 -0.66175,-0.41115 z"
         id="path7" />
      <path
         style="opacity:1;fill:#111b09;fill-opacity:1;stroke-width:2.117;stroke-linejoin:round;stroke-miterlimit:3.1;paint-order:markers stroke fill"
         d="m 138.95756,153.24646 c -0.0757,1.10091 0.80479,0.68118 0.3185,1.36871 -0.48629,0.68753 -1.35487,0.75043 -0.47053,1.9082 0.88433,1.15775 1.53443,1.38816 1.12887,0.40202 -0.40555,-0.98614 -0.94531,-1.2376 -0.50145,-1.60824 0.44387,-0.37066 1.336,-0.60961 0.73526,-0.94092 -0.60077,-0.33131 -0.50928,-0.21155 -0.55362,-0.6834 -0.0447,-0.47183 0.0849,-0.63376 -0.23202,-0.67618 -0.31688,-0.0424 -0.42501,0.22981 -0.42501,0.22981 z"
         id="path8" />
      <path
         style="opacity:1;fill:#111b09;fill-opacity:1;stroke-width:2.117;stroke-linejoin:round;stroke-miterlimit:3.1;paint-order:markers stroke fill"
         d="m 136.30667,156.58303 c -0.42125,-0.19976 -1.17905,-0.96427 -0.99983,-0.29516 0.17921,0.66912 1.114,1.85155 1.19068,1.14502 0.0767,-0.70651 -0.19085,-0.84986 -0.19085,-0.84986 z"
         id="path9" />
      <path
         style="opacity:1;fill:#111b09;fill-opacity:1;stroke-width:2.117;stroke-linejoin:round;stroke-miterlimit:3.1;paint-order:markers stroke fill"
         d="m 132.47933,156.39312 c 0,0 -0.83757,1.30354 -0.0385,1.62558 0.79912,0.32203 1.52672,0.50904 1.05295,-0.23534 -0.47377,-0.74439 -0.33611,-1.37107 -0.52269,-1.44982 -0.18657,-0.0788 -0.4918,0.0596 -0.4918,0.0596 z"
         id="path10" />
      <path
         style="opacity:1;fill:#111b09;fill-opacity:1;stroke-width:2.117;stroke-linejoin:round;stroke-miterlimit:3.1;paint-order:markers stroke fill"
         d="m 132.87406,153.5788 c -0.18784,0.0645 -0.91293,-0.40895 -0.68215,0.41042 0.23077,0.81938 0.61336,0.90643 0.71095,0.57904 0.0976,-0.32742 0.24771,-0.11019 0.22208,-0.45411 -0.0255,-0.34392 -0.25088,-0.53535 -0.25088,-0.53535 z"
         id="path11" />
      <path
         style="opacity:1;fill:#111b09;fill-opacity:1;stroke-width:2.117;stroke-linejoin:round;stroke-miterlimit:3.1;paint-order:markers stroke fill"
         d="m 132.72373,151.62333 c -0.0127,-0.30636 -0.40542,-1.25492 -0.83279,-1.0075 -0.42736,0.24741 -0.32799,0.97752 0.27055,1.05765 0.59855,0.0801 0.56225,-0.05 0.56225,-0.05 z"
         id="path12" />
      <path
         style="opacity:1;fill:#111b09;fill-opacity:1;stroke-width:2.117;stroke-linejoin:round;stroke-miterlimit:3.1;paint-order:markers stroke fill"
         d="m 135.24931,147.7503 c -0.25021,0.39659 -0.55906,0.69571 -0.29875,1.16063 0.26031,0.46493 0.86594,0.49226 0.56334,0.0754 -0.30259,-0.41682 0.39149,-1.18405 0.1063,-1.32975 -0.28513,-0.1457 -0.37094,0.0936 -0.37094,0.0936 z"
         id="path13" />
      <path
         style="opacity:1;fill:#111b09;fill-opacity:1;stroke-width:2.117;stroke-linejoin:round;stroke-miterlimit:3.1;paint-order:markers stroke fill"
         d="m 140.65876,161.48879 c 0,0 -0.33876,0.25876 -0.69153,0.33824 -0.35277,0.0795 -1.49762,0.77518 -0.83375,0.92741 0.66385,0.15225 1.77756,-1.2572 1.68799,-1.34523 -0.0896,-0.0879 -0.16271,0.0796 -0.16271,0.0796 z"
         id="path14" />
      <path
         style="opacity:1;fill:#111b09;fill-opacity:1;stroke-width:2.117;stroke-linejoin:round;stroke-miterlimit:3.1;paint-order:markers stroke fill"
         d="m 141.39732,158.62261 c 0,0 -0.13668,1.02075 -0.38074,1.14012 -0.24407,0.11933 -0.71299,0.11989 -0.80012,0.1083 -0.0871,-0.0117 10e-4,0.55772 0.4187,0.75298 0.41735,0.19527 0.0818,0.61918 0.50771,0.37209 0.4259,-0.24709 0.36444,-0.16661 0.32898,-0.56417 -0.0358,-0.39753 0.41495,-1.49035 0.27309,-1.66138 -0.14184,-0.17105 -0.34766,-0.14793 -0.34766,-0.14793 z"
         id="path15" />
      <path
         style="opacity:1;fill:#111b09;fill-opacity:1;stroke-width:2.117;stroke-linejoin:round;stroke-miterlimit:3.1;paint-order:markers stroke fill"
         d="m 135.63091,160.14403 c 0,0 -0.27463,-0.12545 -0.40746,-0.0799 -0.1328,0.0456 -0.77297,0.56809 -0.30661,0.68121 0.46637,0.11309 0.79924,-0.007 0.83502,-0.17964 0.0359,-0.1726 -0.12098,-0.42167 -0.12098,-0.42167 z"
         id="path16" />
      <path
         style="fill:#111b09;fill-opacity:1;stroke-width:2.117;stroke-linejoin:round;stroke-miterlimit:3.1;paint-order:markers stroke fill"
         d="m 153.94939,132.85317 c 0.16086,0.57974 0.54458,0.7965 0.77901,0.62115 0.23443,-0.17536 0.85801,-0.72241 0.25311,-0.99981 -0.60491,-0.27739 -0.61043,-0.27132 -0.90463,-0.16249 -0.16406,0.0608 -0.12753,0.54109 -0.12753,0.54109 z"
         id="path4-3"
         sodipodi:nodetypes="csssc" />
      <path
         style="fill:#111b09;fill-opacity:1;stroke-width:2.117;stroke-linejoin:round;stroke-miterlimit:3.1;paint-order:markers stroke fill"
         d="m 159.081,135.83067 c 0,0 2.04665,-1.8342 1.88732,-2.31215 -0.15944,-0.47787 0.50874,-0.51363 -0.75605,0.48266 -1.26473,0.99642 -2.21638,0.73775 -1.97742,1.45463 0.23899,0.71688 0.84614,0.37483 0.84614,0.37483 z"
         id="path6-3" />
      <path
         style="fill:#111b09;fill-opacity:1;stroke-width:2.117;stroke-linejoin:round;stroke-miterlimit:3.1;paint-order:markers stroke fill"
         d="m 149.15819,134.85641 c -0.67397,0.48319 -1.043,1.36561 -0.49821,1.04431 0.54477,-0.32129 0.23512,-0.6853 0.54948,-0.35649 0.31437,0.3288 0.23673,0.64098 0.34488,0.36873 0.10818,-0.27224 0.37564,-0.12894 0.2656,-0.6454 -0.11,-0.5165 -0.66175,-0.41115 -0.66175,-0.41115 z"
         id="path7-6" />
      <path
         style="fill:#111b09;fill-opacity:1;stroke-width:2.117;stroke-linejoin:round;stroke-miterlimit:3.1;paint-order:markers stroke fill"
         d="m 154.43313,135.09442 c -1.07661,0.24211 -0.42278,0.9659 -1.22061,0.69638 -0.79783,-0.26952 -1.10632,-1.0839 -1.96308,0.0944 -0.85673,1.17832 -0.89174,1.86716 -0.0626,1.19669 0.82912,-0.67047 0.91583,-1.25958 1.39787,-0.94016 0.48204,0.31943 0.96599,1.10607 1.11179,0.43569 0.14582,-0.67039 0.0572,-0.54849 0.49668,-0.72583 0.43937,-0.17771 0.63158,-0.0998 0.58168,-0.41559 -0.0499,-0.31577 -0.34169,-0.34161 -0.34169,-0.34161 z"
         id="path8-2" />
      <path
         style="fill:#111b09;fill-opacity:1;stroke-width:2.117;stroke-linejoin:round;stroke-miterlimit:3.1;paint-order:markers stroke fill"
         d="m 148.95103,139.04579 c -0.42125,-0.19976 -1.17905,-0.96426 -0.99983,-0.29516 0.17921,0.66912 1.114,1.85155 1.19068,1.14502 0.0767,-0.70651 -0.19085,-0.84986 -0.19085,-0.84986 z"
         id="path9-8" />
      <path
         style="opacity:1;fill:#111b09;fill-opacity:1;stroke-width:2.117;stroke-linejoin:round;stroke-miterlimit:3.1;paint-order:markers stroke fill"
         d="m 146.39999,148.55333 c 0,0 -0.68408,2.06964 -0.002,1.44771 0.68176,-0.62191 1.12474,-1.4271 0.66857,-1.59624 -0.45613,-0.16912 -0.66625,0.14856 -0.66625,0.14856 z"
         id="path17" />
      <path
         style="opacity:1;fill:#111b09;fill-opacity:1;stroke-width:2.117;stroke-linejoin:round;stroke-miterlimit:3.1;paint-order:markers stroke fill"
         d="m 144.24311,155.34244 c 0,0 -0.54896,2.20733 -1.42877,2.34296 -0.8798,0.13562 0.74126,0.83586 1.17378,-0.25311 0.43252,-1.08896 1.5315,-1.80195 1.08101,-2.18484 -0.4505,-0.38287 -0.82602,0.095 -0.82602,0.095 z"
         id="path18" />
      <path
         style="opacity:1;fill:#111b09;fill-opacity:1;stroke-width:2.117;stroke-linejoin:round;stroke-miterlimit:3.1;paint-order:markers stroke fill"
         d="m 144.90016,159.45393 c 0,0 -1.87388,1.14685 -0.99116,0.97832 0.88272,-0.16856 1.89493,-1.03652 1.51236,-1.12357 -0.38258,-0.0871 -0.5212,0.14525 -0.5212,0.14525 z"
         id="path19" />
      <path
         style="opacity:1;fill:#111b09;fill-opacity:1;stroke-width:2.117;stroke-linejoin:round;stroke-miterlimit:3.1;paint-order:markers stroke fill"
         d="m 142.07095,143.37729 c 0,0 0.40999,1.48849 0.41691,1.70445 0.007,0.21597 0.55008,-1.43162 0.55008,-1.43162 z"
         id="path20" />
      <path
         style="opacity:1;fill:#111b09;fill-opacity:1;stroke-width:2.117;stroke-linejoin:round;stroke-miterlimit:3.1;paint-order:markers stroke fill"
         d="m 146.71527,156.2516 c 0.88946,0.42781 4.37534,1.72268 6.41182,2.19586 0.79883,0.1856 1.77331,-0.10612 2.38522,-0.47573 1.36657,-0.82552 5.5993,-4.40314 6.08938,-4.51359 0.49008,-0.1104 1.19261,-0.23787 1.66294,-1.48708 0.47033,-1.24922 2.36863,-6.03364 2.28373,-7.09593 -0.0849,-1.06229 -2.78436,-3.62615 -2.78436,-3.62615 l -0.66857,0.55234 c 0,0 2.7958,1.98598 2.51529,2.93493 -0.28051,0.94896 -3.93786,4.23472 -4.20982,4.399 -0.27196,0.16428 -1.64874,0.77323 -0.59775,0.54668 1.05097,-0.22654 4.17006,-3.11292 3.99723,-2.6002 -0.17284,0.51272 -1.43087,4.39069 -2.1363,5.37362 -0.70543,0.98292 -3.40804,2.83819 -5.4052,3.71054 -1.99717,0.87235 -2.44762,1.47853 -2.49291,0.91197 -0.0453,-0.56656 1.36802,-2.81696 0.88126,-2.60166 -0.48676,0.2153 -1.05264,0.38652 -1.4453,1.14865 -0.39265,0.76215 -0.53693,1.47924 -1.02467,1.36703 -0.48774,-0.11221 -5.31101,-1.81817 -5.31101,-1.81817 z"
         id="path28"
         sodipodi:nodetypes="csscssccsssssssssscc" />
      <path
         style="opacity:1;fill:#111b09;fill-opacity:1;stroke-width:2.117;stroke-linejoin:round;stroke-miterlimit:3.1;paint-order:markers stroke fill"
         d="m 148.36203,148.35135 c 0,0 0.15219,0.643 1.4622,0.63908 1.31,-0.004 9.28855,-4.2198 9.77535,-5.06506 0.48682,-0.84525 2.69421,-0.9713 3.89419,-2.9823 1.2,-2.01099 1.36428,-2.4777 1.21618,-4.33055 -0.14809,-1.85285 0.91553,-1.78667 -0.22814,-2.8544 -1.14368,-1.06771 -9.40203,-5.39695 -9.95688,-5.40299 -0.55485,-0.006 -1.10766,-0.61703 -2.09319,-0.33667 -0.98553,0.28036 -8.89347,2.68858 -11.14537,3.68785 -0.9004,0.39955 -3.70881,1.83354 -4.0083,2.18507 -0.71749,0.84215 -1.73701,4.75015 -0.93791,6.55097 0.7991,1.80083 1.84858,3.58163 2.76197,3.65982 0.91339,0.0782 2.40575,-0.79705 2.40575,-0.79705 0,0 -3.68356,-1.31829 -4.09404,-3.30136 -0.41049,-1.98308 -0.22691,-4.23242 1.89133,-5.97202 1.08774,-0.8933 13.15258,-5.68778 13.9057,-5.09281 0.7531,0.59497 10.69011,3.85768 10.6219,5.52623 -0.0682,1.66856 -0.44474,0.74111 -0.18644,2.08118 0.2583,1.34008 -0.55513,3.77376 -1.55872,4.45874 -1.00358,0.68497 -1.87099,1.81264 -3.23313,2.42548 -1.36213,0.61284 -7.26145,4.36017 -8.37516,4.29799 -1.1137,-0.0622 -2.13525,-0.23251 -2.13525,-0.23251 z"
         id="path27"
         sodipodi:nodetypes="cssssssssssscsssssssscc" />
      <path
         style="opacity:1;fill:#111b09;fill-opacity:1;stroke-width:2.117;stroke-linejoin:round;stroke-miterlimit:3.1;paint-order:markers stroke fill"
         d="m 147.74086,151.29883 c 2.09715,1.01671 6.38456,3.26948 6.99754,2.74171 0.61298,-0.52777 1.36321,-1.54527 0.40071,-1.29195 -0.9625,0.25332 0.35343,1.58446 -2.54891,-0.0483 -2.90233,-1.63271 -4.09808,-2.72146 -4.09808,-2.72146 l -0.46378,0.81822 z"
         id="path29" />
      <path
         style="opacity:1;fill:#111b09;fill-opacity:1;stroke-width:2.117;stroke-linejoin:round;stroke-miterlimit:3.1;paint-order:markers stroke fill"
         d="m 140.02295,134.94158 c 1.30728,0.75079 9.26819,8.95224 8.74843,8.24542 -0.51976,-0.70682 -0.1118,-0.95323 -1.9303,-3.19551 -1.81848,-2.24227 -5.36204,-5.55828 -6.00508,-5.57815 -0.64304,-0.0199 -0.81305,0.52824 -0.81305,0.52824 z"
         id="path30" />
      <path
         style="opacity:1;fill:#111b09;fill-opacity:1;stroke-width:2.117;stroke-linejoin:round;stroke-miterlimit:3.1;paint-order:markers stroke fill"
         d="m 145.89691,132.19139 c 0.18126,0.48441 0.003,0.92631 0.34837,0.79178 0.34561,-0.13453 0.69405,-0.23366 0.85978,-0.38944 0.16573,-0.15579 1.83848,-0.18256 0.20541,-0.55096 -1.63306,-0.36838 -1.41356,0.14859 -1.41356,0.14859 z"
         id="path31" />
      <path
         style="opacity:1;fill:#111b09;fill-opacity:1;stroke-width:2.117;stroke-linejoin:round;stroke-miterlimit:3.1;paint-order:markers stroke fill"
         d="m 148.4363,146.12795 c 0.64505,-0.75711 -0.37641,-2.18739 1.12395,-2.96247 1.50035,-0.77508 3.99834,-2.94022 6.37206,-4.13789 2.37373,-1.19766 6.18778,-3.92157 5.90528,-3.04223 -0.2825,0.87932 -0.0942,0.71308 -0.6751,1.0115 -0.58092,0.29841 -1.96706,0.6108 -2.06927,1.22373 -0.10219,0.61293 -0.45683,1.85081 -0.60902,1.20781 -0.15218,-0.643 0.30856,-1.1838 0.11626,-1.06764 -0.19231,0.11617 -4.87973,3.26266 -6.02954,4.00972 -1.14982,0.74707 -2.45788,1.40598 -2.7804,1.78454 -0.32252,0.37856 -1.0718,2.35353 -1.0718,2.35353 0,0 -0.39457,-0.52283 -0.28242,-0.3806 z"
         id="path32" />
      <path
         style="opacity:1;fill:#111b09;fill-opacity:1;stroke-width:2.117;stroke-linejoin:round;stroke-miterlimit:3.1;paint-order:markers stroke fill"
         d="m 150.41937,145.71746 c 0,0 0.0662,-1.06363 0.35864,-1.1878 0.29246,-0.12416 6.01948,-3.50494 5.40851,-2.95214 -0.61097,0.55281 -3.76797,2.66983 -4.30682,2.86409 -0.53883,0.19426 -0.35667,1.8428 -1.02368,1.69453 -0.66702,-0.14828 -0.43665,-0.41868 -0.43665,-0.41868 z"
         id="path33" />
      <path
         style="opacity:1;fill:#111b09;fill-opacity:1;stroke-width:2.117;stroke-linejoin:round;stroke-miterlimit:3.1;paint-order:markers stroke fill"
         d="m 140.62174,139.75805 c -0.17987,-0.0212 -1.37459,-0.0327 -1.27831,0.28036 0.0964,0.31302 2.20236,1.69486 2.00415,0.55253 -0.19821,-1.14233 -0.72584,-0.83289 -0.72584,-0.83289 z"
         id="path34" />
      <path
         style="opacity:1;fill:#111b09;fill-opacity:1;stroke-width:2.117;stroke-linejoin:round;stroke-miterlimit:3.1;paint-order:markers stroke fill"
         d="m 138.77006,136.43153 c 0.0311,0.38951 -0.24721,0.69685 0.24072,0.78257 0.48795,0.0857 0.33926,-0.43693 0.7167,0.0496 0.37743,0.48655 1.52752,0.60845 0.813,-0.0828 -0.71451,-0.69125 -0.96949,-0.31451 -1.01339,-0.41791 -0.0439,-0.1034 0.42998,-1.53108 -0.35541,-1.32576 -0.78541,0.20531 -0.40162,0.99427 -0.40162,0.99427 z"
         id="path35" />
      <path
         style="opacity:1;fill:#111b09;fill-opacity:1;stroke-width:2.117;stroke-linejoin:round;stroke-miterlimit:3.1;paint-order:markers stroke fill"
         d="m 145.24522,134.29256 c 0.08,0.33214 -0.31957,2.4666 0.55935,1.648 0.87893,-0.81861 0.0165,-2.24639 -0.21728,-2.04952 -0.23372,0.19685 -0.34209,0.40152 -0.34209,0.40152 z"
         id="path36" />
      <path
         style="opacity:1;fill:#111b09;fill-opacity:1;stroke-width:2.117;stroke-linejoin:round;stroke-miterlimit:3.1;paint-order:markers stroke fill"
         d="m 152.70405,129.5338 c -0.24939,0.0326 -2.48734,0.24916 -1.66362,0.93932 0.82371,0.69012 1.26895,-0.20221 1.6305,-0.0925 0.36155,0.10969 0.83031,-0.33095 0.4242,-0.52528 -0.40611,-0.19433 -0.39108,-0.32152 -0.39108,-0.32152 z"
         id="path37" />
      <path
         style="opacity:1;fill:#111b09;fill-opacity:1;stroke-width:2.117;stroke-linejoin:round;stroke-miterlimit:3.1;paint-order:markers stroke fill"
         d="m 158.06064,138.22752 c -0.13222,0.23736 -1.0357,1.54429 -0.30055,1.28395 0.73514,-0.26034 1.06069,-0.91633 1.01564,-1.16472 -0.045,-0.24838 0.025,-0.63196 -0.14419,-0.54283 -0.16926,0.0891 -0.5709,0.4236 -0.5709,0.4236 z"
         id="path38" />
      <path
         style="opacity:1;fill:#111b09;fill-opacity:1;stroke-width:2.117;stroke-linejoin:round;stroke-miterlimit:3.1;paint-order:markers stroke fill"
         d="m 141.57106,135.13858 c 0.14164,-0.0113 3.04662,0.21975 1.09632,-0.5509 -1.95031,-0.77065 -2.65851,-0.71405 -2.109,-0.0809 0.54952,0.63317 1.01268,0.63179 1.01268,0.63179 z"
         id="path39" />
      <path
         style="opacity:1;fill:#111b09;fill-opacity:1;stroke-width:2.117;stroke-linejoin:round;stroke-miterlimit:3.1;paint-order:markers stroke fill"
         d="m 158.33311,147.34054 c 0,0 -0.87682,1.06788 0.0438,0.9943 0.92066,-0.0736 2.50561,-0.30717 1.30312,-0.6387 -1.20249,-0.33152 -1.34695,-0.3556 -1.34695,-0.3556 z"
         id="path40" />
      <path
         style="opacity:1;fill:#111b09;fill-opacity:1;stroke-width:2.117;stroke-linejoin:round;stroke-miterlimit:3.1;paint-order:markers stroke fill"
         d="m 157.05678,149.65199 c -0.60197,0.0481 -0.49291,0.075 -0.77903,0.0623 -0.2861,-0.0127 -2.64724,0.3185 -1.07368,0.83418 1.57357,0.51568 1.36678,0.60347 1.8271,0.56668 0.46033,-0.0368 1.54672,-0.26617 0.82581,-0.81436 -0.7209,-0.54819 -0.8002,-0.64876 -0.8002,-0.64876 z"
         id="path41" />
      <path
         style="opacity:1;fill:#111b09;fill-opacity:1;stroke-width:2.117;stroke-linejoin:round;stroke-miterlimit:3.1;paint-order:markers stroke fill"
         d="m 153.39981,147.59229 c 0,0 0.31711,2.1841 0.85543,0.89381 0.53832,-1.29029 0.34008,-1.98716 -0.008,-1.88805 -0.34843,0.0992 -0.84707,0.99424 -0.84707,0.99424 z"
         id="path42" />
      <path
         style="opacity:1;fill:#111b09;fill-opacity:1;stroke-width:2.117;stroke-linejoin:round;stroke-miterlimit:3.1;paint-order:markers stroke fill"
         d="m 150.26513,150.72937 c 0.4546,0.7833 0.59334,1.62747 1.04946,1.0921 0.45611,-0.53536 0.90801,-1.56928 -0.0155,-1.53111 -0.92348,0.0382 -1.03399,0.43901 -1.03399,0.43901 z"
         id="path43" />
      <path
         style="opacity:1;fill:#111b09;fill-opacity:1;stroke-width:2.117;stroke-linejoin:round;stroke-miterlimit:3.1;paint-order:markers stroke fill"
         d="m 162.79047,144.12391 c -0.11626,1.06763 0.30232,1.89093 0.36646,1.43222 0.0641,-0.4587 1.00564,-1.28991 -0.36646,-1.43222 z"
         id="path44" />
      <path
         style="opacity:1;fill:#111b09;fill-opacity:1;stroke-width:2.117;stroke-linejoin:round;stroke-miterlimit:3.1;paint-order:markers stroke fill"
         d="m 146.61361,144.76172 c 0.19631,-0.066 2.38973,-0.99736 0.90949,-1.23183 -1.48026,-0.23446 -2.4979,0.90522 -2.03921,0.96935 0.4587,0.0641 1.12972,0.26248 1.12972,0.26248 z"
         id="path45" />
      <path
         style="opacity:1;fill:#111b09;fill-opacity:1;stroke-width:2.117;stroke-linejoin:round;stroke-miterlimit:3.1;paint-order:markers stroke fill"
         d="m 150.73922,154.76336 c -0.34655,0.0781 -3.51945,0.73488 -1.48835,0.92531 2.0311,0.19044 3.14089,-1.0574 2.58604,-1.06344 -0.55485,-0.006 -1.0977,0.1381 -1.0977,0.1381 z"
         id="path46" />
      <path
         style="opacity:1;fill:#111b09;fill-opacity:1;stroke-width:2.117;stroke-linejoin:round;stroke-miterlimit:3.1;paint-order:markers stroke fill"
         d="m 158.81373,153.00925 c -0.45675,0.59088 -0.45283,1.90089 0.054,1.306 0.50683,-0.59488 0.60103,-1.30796 0.1964,-1.32602 -0.40461,-0.018 -0.25038,0.02 -0.25038,0.02 z"
         id="path47" />
    </g>
  </g>
</svg>
