<?xml version="1.0" encoding="UTF-8" standalone="no"?>
<!-- Created with Inkscape (http://www.inkscape.org/) -->

<svg
   width="125.48204mm"
   height="84.932678mm"
   viewBox="0 0 125.48204 84.932678"
   version="1.1"
   id="svg1"
   inkscape:version="1.3 (0e150ed6c4, 2023-07-21)"
   sodipodi:docname="plate.svg"
   xmlns:inkscape="http://www.inkscape.org/namespaces/inkscape"
   xmlns:sodipodi="http://sodipodi.sourceforge.net/DTD/sodipodi-0.dtd"
   xmlns="http://www.w3.org/2000/svg"
   xmlns:svg="http://www.w3.org/2000/svg">
  <sodipodi:namedview
     id="namedview1"
     pagecolor="#beac46"
     bordercolor="#000000"
     borderopacity="0.25"
     inkscape:showpageshadow="2"
     inkscape:pageopacity="0.0"
     inkscape:pagecheckerboard="0"
     inkscape:deskcolor="#d1d1d1"
     inkscape:document-units="mm"
     inkscape:zoom="0.65834035"
     inkscape:cx="212.65596"
     inkscape:cy="240.75693"
     inkscape:window-width="1920"
     inkscape:window-height="974"
     inkscape:window-x="-11"
     inkscape:window-y="-11"
     inkscape:window-maximized="1"
     inkscape:current-layer="g3" />
  <defs
     id="defs1">
    <pattern
       id="EMFhbasepattern"
       patternUnits="userSpaceOnUse"
       width="6"
       height="6"
       x="0"
       y="0" />
  </defs>
  <g
     inkscape:groupmode="layer"
     id="layer2"
     inkscape:label="Layer 2"
     transform="translate(-46.266383,-6.6805881)">
    <g
       inkscape:groupmode="layer"
       id="g2"
       inkscape:label="Layer 2">
      <path
         style="opacity:1;fill:#ffffff;fill-opacity:1;stroke-width:8.00126;stroke-linejoin:round;stroke-miterlimit:3.1;paint-order:markers stroke fill"
         d="M 415.94889,34.316288 C 367.78885,34.029659 314.01436,45.80358 272.61045,72.666626 c -34.95729,21.845801 -67.14748,47.000544 -84.25802,86.051024 -11.91725,27.81959 -4.85898,60.40408 10.67526,84.17685 16.7675,26.26728 42.42696,49.3793 71.36515,61.62603 28.0975,15.02003 67.0596,25.55446 98.41194,29.21241 30.47202,6.14445 57.88674,6.32762 88.71408,4.40131 36.83324,-4.24519 74.35212,-16.86681 106.56533,-35.51782 36.28961,-21.5303 68.87531,-62.98851 74.1596,-105.66046 2.21808,-24.07614 -0.65929,-46.828 -16.78285,-76.18292 C 593.86468,85.463235 562.34408,59.350581 520.48589,44.436734 490.99136,34.845878 446.63259,33.666245 415.94889,34.316288 Z"
         id="path4"
         sodipodi:nodetypes="cccccccccccc"
         transform="scale(0.26458333)" />
      <path
         style="opacity:1;fill:#dadad8;fill-opacity:1;stroke-width:2.117;stroke-linejoin:round;stroke-miterlimit:3.1;paint-order:markers stroke fill"
         d="m 66.285519,71.89812 c 0,0 10.692358,6.926943 13.924931,7.815011 3.232576,0.888072 6.500672,0.99464 7.282172,0.390753 0.781502,-0.603888 0.959115,-1.38539 -0.248658,-1.882709 -1.207775,-0.497319 -6.536193,-2.060321 -7.850537,-2.202413 -1.314344,-0.142092 -7.743968,-5.221848 -9.981903,-5.719167 -2.237936,-0.497321 -2.806301,0.03552 -3.161528,0.603885 -0.355227,0.568365 0.03552,0.99464 0.03552,0.99464 z"
         id="path5" />
      <path
         style="opacity:1;fill:#dadad8;fill-opacity:1;stroke-width:2.117;stroke-linejoin:round;stroke-miterlimit:3.1;paint-order:markers stroke fill"
         d="m 105.64477,77.936994 c 0,0 -3.55228,1.989275 -5.25738,2.699731 -1.705089,0.710454 -2.486592,0.852546 -3.978548,1.065684 -1.491956,0.213135 -7.246649,0.426273 -5.399463,1.42091 1.847183,0.994638 9.306971,1.634048 12.717151,2.060321 3.41019,0.426276 11.01207,-0.142089 18.18767,-0.852545 7.1756,-0.710457 22.4504,-7.175604 26.57105,-8.880698 4.12064,-1.705094 -1.06569,-0.710456 0.28418,-1.634048 1.34987,-0.923591 2.48659,-0.923591 3.05496,-2.415548 0.56836,-1.491959 -0.7815,-2.131369 -1.56301,-1.77614 -0.7815,0.355227 -3.33914,1.420911 -3.83646,1.207776 -0.49732,-0.213138 -2.91286,0.213135 -3.62332,0.568364 -0.71046,0.355227 -7.45978,3.481232 -9.23592,4.617961 -1.77614,1.136729 -1.42091,2.983915 -2.69974,3.054961 -1.27882,0.07104 -2.27345,-0.213137 -3.33914,-0.07105 -1.06568,0.14209 -1.98927,-0.213137 -1.49195,-0.497318 0.49731,-0.284184 1.20777,-1.13673 1.06568,-2.344505 -0.14209,-1.207775 -4.12065,-1.563002 -4.12065,-1.563002 0,0 0.35523,-1.278821 -0.85254,-1.918232 -1.20778,-0.639411 -5.47051,0.426273 -5.96783,0.639411 -0.49732,0.213137 -3.83646,-0.568365 -5.32842,-1.563003 -1.49195,-0.994637 -4.33378,-1.705094 -4.97319,-1.207775 -0.63941,0.497319 -1.13673,1.847186 -1.13673,1.847186 0,0 -2.20241,-0.710457 -2.48659,0.639411 -0.28418,1.349864 1.34987,3.268096 2.41555,3.552277 1.06568,0.284183 0.99464,1.349867 0.99464,1.349867 z"
         id="path6" />
    </g>
    <g
       inkscape:groupmode="layer"
       id="g3"
       inkscape:label="Layer 2">
      <path
         id="path3"
         style="opacity:1;fill:#111b09;fill-opacity:1;stroke-width:2.117;stroke-linejoin:round;stroke-miterlimit:3.1;paint-order:markers stroke fill"
         d="M 112.30219,6.6910645 C 89.293825,7.0362766 61.065192,15.10891 49.305518,37.227702 c -9.507987,21.400575 4.609064,37.563585 24.111265,46.748051 30.265387,12.077732 49.350057,6.394346 58.301797,5.683891 8.95173,-0.710457 55.1972,-20.790281 34.95445,-58.541647 C 156.00613,11.224945 132.28069,6.4226635 112.30219,6.6910645 Z m 6.77013,4.2498695 c 24.95089,0.142091 41.49076,15.061732 47.31649,27.423649 5.82573,12.361917 -2.41546,36.233527 -26.14466,44.474805 -23.72919,8.241279 -36.37544,4.830963 -50.868727,2.841687 C 74.88214,83.691802 58.385005,75.663552 50.996274,54.491994 43.60754,33.320433 82.967122,15.629997 83.677578,15.203723 96.442239,10.831301 105.49931,10.863638 119.07232,10.940934 Z"
         sodipodi:nodetypes="ssssssssssscs" />
    </g>
  </g>
</svg>
