<?xml version="1.0" encoding="UTF-8" standalone="no"?>
<!-- Created with Inkscape (http://www.inkscape.org/) -->

<svg
   width="9.9398832mm"
   height="17.599728mm"
   viewBox="0 0 9.9398832 17.599728"
   version="1.1"
   id="svg1"
   inkscape:version="1.3 (0e150ed6c4, 2023-07-21)"
   sodipodi:docname="serundeng_02.svg"
   xmlns:inkscape="http://www.inkscape.org/namespaces/inkscape"
   xmlns:sodipodi="http://sodipodi.sourceforge.net/DTD/sodipodi-0.dtd"
   xmlns="http://www.w3.org/2000/svg"
   xmlns:svg="http://www.w3.org/2000/svg">
  <sodipodi:namedview
     id="namedview1"
     pagecolor="#ffffff"
     bordercolor="#000000"
     borderopacity="0.25"
     inkscape:showpageshadow="2"
     inkscape:pageopacity="0.0"
     inkscape:pagecheckerboard="0"
     inkscape:deskcolor="#d1d1d1"
     inkscape:document-units="mm"
     inkscape:zoom="0.65834035"
     inkscape:cx="18.227654"
     inkscape:cy="28.100966"
     inkscape:window-width="1920"
     inkscape:window-height="974"
     inkscape:window-x="-11"
     inkscape:window-y="-11"
     inkscape:window-maximized="1"
     inkscape:current-layer="layer1" />
  <defs
     id="defs1" />
  <g
     inkscape:label="Layer 1"
     inkscape:groupmode="layer"
     id="layer1"
     transform="translate(-100.0125,-139.7)">
    <path
       style="fill:#fc9c27;fill-opacity:1;stroke-width:2.117;stroke-linejoin:round;stroke-miterlimit:3.1;paint-order:markers stroke fill"
       d="m 102.3605,145.73805 c 0,0 -0.72843,1.02985 -0.20094,2.23554 0.52748,1.20568 1.38151,1.58246 2.00947,1.10521 0.62796,-0.47726 1.10521,-0.8038 2.66255,-3.21516 1.55734,-2.41137 2.00947,-5.80235 0.5526,-5.19951 -1.45687,0.60284 -5.02368,5.07392 -5.02368,5.07392 z"
       id="path9" />
    <path
       style="fill:#bf874d;fill-opacity:1;stroke-width:2.117;stroke-linejoin:round;stroke-miterlimit:3.1;paint-order:markers stroke fill"
       d="m 103.77369,149.52868 c 0,0 0.71045,-0.10657 1.74061,-1.13673 1.03017,-1.03016 1.49196,-2.45107 1.2433,-3.51676 -0.24866,-1.06568 -0.95911,-2.06032 -1.13673,-2.06032 -0.17761,0 -1.31434,1.74062 -1.98927,2.45107 -0.67494,0.71046 -1.2433,0.88807 -1.52748,1.59853 -0.28419,0.71045 -0.71046,1.17225 -0.35523,1.45643 0.35523,0.28419 1.84718,1.20778 1.84718,1.20778 z"
       id="path10" />
    <path
       style="fill:#fffbc5;fill-opacity:1;stroke-width:2.117;stroke-linejoin:round;stroke-miterlimit:3.1;paint-order:markers stroke fill"
       d="m 104.92245,143.12596 c 0,0 -1.75829,1.21824 0.0251,1.49454 1.7834,0.27631 1.93411,-0.92938 1.93411,-0.92938 l -0.70331,-2.22298 z"
       id="path12" />
    <path
       style="fill:#111b09;fill-opacity:1;stroke-width:2.117;stroke-linejoin:round;stroke-miterlimit:3.1;paint-order:markers stroke fill"
       d="m 101.23017,145.16032 c 0.31398,0.89171 -0.0502,1.83365 0.70332,1.94668 0.75355,0.11303 2.36113,-2.34857 3.39098,-3.4789 1.02986,-1.13033 1.28104,-1.65781 1.78341,-1.45687 0.50237,0.20095 0.50237,0.20095 0.50237,0.20095 0,0 0.32654,1.10521 -0.57773,2.23554 -0.90426,1.13033 -1.60757,2.76302 -1.75828,2.76302 -0.15071,0 -0.87915,0.0251 -0.9545,0.20095 -0.0754,0.17583 0.32654,0.60284 0.0251,0.77867 -0.30142,0.17583 -0.22607,0.47725 -0.65308,0.30142 -0.42701,-0.17583 -2.08483,-0.52749 -1.25592,-0.80379 0.82891,-0.2763 0.9545,-0.12559 0.70331,-0.37677 -0.25118,-0.25119 -0.57772,-0.9545 -0.57772,-0.9545 0,0 -0.82891,-0.12559 -1.08009,0.67819 -0.25118,0.80379 -0.62796,0.42702 -0.15071,1.15545 0.47725,0.72844 0.60284,1.48199 2.08483,1.75829 1.48198,0.2763 2.71278,-1.98436 3.49145,-3.11468 0.77867,-1.13033 2.16019,-3.86824 2.21043,-5.57629 0.0502,-1.70805 -2.68767,-2.00947 -3.08957,-1.48199 -0.40189,0.52749 -0.65308,2.0346 -2.61231,3.2654 -1.95924,1.2308 -2.53696,1.58246 -2.43649,1.83364 0.10047,0.25119 0.25119,0.12559 0.25119,0.12559 z"
       id="path11" />
    <path
       style="fill:#fffbc5;fill-opacity:1;stroke-width:2.117;stroke-linejoin:round;stroke-miterlimit:3.1;paint-order:markers stroke fill"
       d="m 102.74353,152.19289 c 0,0 0.49732,2.06032 1.27882,2.45107 0.7815,0.39075 1.84718,-0.81702 3.30362,-1.31434 1.45643,-0.49732 1.74061,-0.4618 1.74061,-0.4618 0,0 0.24866,-2.98391 0,-3.12601 -0.24866,-0.14209 -1.20777,-0.28418 -1.91823,-0.10656 -0.71045,0.17761 -1.38539,0.67493 -1.63405,0.46179 -0.24866,-0.21313 -0.071,-1.59852 -0.56836,-1.17225 -0.49732,0.42627 -2.62869,1.2433 -2.62869,1.98928 0,0.74598 0.42628,1.27882 0.42628,1.27882 z"
       id="path13" />
    <path
       style="fill:#eec085;fill-opacity:1;stroke-width:2.117;stroke-linejoin:round;stroke-miterlimit:3.1;paint-order:markers stroke fill"
       d="m 105.11097,149.36766 c 0,0 -0.45213,1.06753 0.33909,1.13032 0.79124,0.0628 3.42867,-0.42701 3.4789,-0.30142 0.0502,0.12559 0.70332,-0.48981 0.48981,-0.94194 -0.2135,-0.45213 -1.64525,-1.14288 -2.29833,-0.74099 -0.65308,0.4019 -1.98435,0.94194 -1.98435,0.94194 z"
       id="path14" />
    <path
       style="fill:#eec085;fill-opacity:1;stroke-width:2.117;stroke-linejoin:round;stroke-miterlimit:3.1;paint-order:markers stroke fill"
       d="m 102.83233,151.50019 c 0,0 0.0355,0.71046 0.25754,1.36763 0.22202,0.65717 0.95024,1.74062 0.79039,1.7495 -0.15986,0.009 -2.06921,0.39075 -2.65533,-0.20426 -0.58613,-0.59501 0.11545,-1.42091 0.11545,-1.42091 0,0 -1.14561,-0.20426 -0.19538,-0.93247 0.95023,-0.72822 1.68733,-0.55949 1.68733,-0.55949 z"
       id="path15" />
    <path
       style="fill:#eec085;fill-opacity:1;stroke-width:2.117;stroke-linejoin:round;stroke-miterlimit:3.1;paint-order:markers stroke fill"
       d="m 109.09223,152.41954 c 0,0 -2.10994,0.42701 -2.71279,0.92938 -0.60283,0.50237 -1.88387,1.18057 -1.88387,1.38152 0,0.20094 1.08009,0.87914 2.36113,1.00473 1.28103,0.12559 1.55734,-1.30616 1.95923,-2.16018 0.4019,-0.85403 0.2763,-1.15545 0.2763,-1.15545 z"
       id="path16" />
    <path
       style="fill:#111b09;fill-opacity:1;stroke-width:2.117;stroke-linejoin:round;stroke-miterlimit:3.1;paint-order:markers stroke fill"
       d="m 108.80337,149.98306 c 0,0 0.85403,-0.37678 0.35166,-0.65308 -0.50237,-0.2763 -1.34383,-0.59028 -1.93412,-0.30142 -0.59028,0.28886 -1.58246,0.79123 -1.85876,0.70331 -0.2763,-0.0879 -0.62935,-0.23871 -0.62935,-0.23871 0,0 0.74598,-2.38003 1.563,-2.34451 0.81703,0.0355 1.74062,0.14209 2.52212,0.49732 0.7815,0.35523 1.38539,1.31434 1.03016,2.09584 -0.35522,0.78151 -0.42627,0.78151 -0.42627,0.78151 0,0 0.17761,0.63941 0.28418,1.77613 0.10657,1.13673 0.53284,3.76542 -0.95911,4.5114 -1.49196,0.74598 -3.16153,0.49732 -4.54692,0.17761 -1.38539,-0.3197 -1.77614,-0.74598 -2.06032,-0.88807 -0.28418,-0.14209 -1.97152,-0.72821 -1.97152,-1.52748 0,-0.79926 0.72822,-1.3321 0.53285,-1.63405 -0.19538,-0.30194 -1.154495,-1.50971 -0.40852,-2.32674 0.74598,-0.81702 1.58077,-0.42627 1.79391,-0.51508 0.21313,-0.0888 0.46179,-0.76374 0.97687,-0.83478 0.51508,-0.071 2.55764,-0.87031 2.55764,-0.87031 l 0.15985,0.69269 c 0,0 -0.69269,0.14209 -0.95911,0.40852 -0.26642,0.26642 -2.2557,3.19705 -2.59316,3.03719 -0.33747,-0.15985 -0.65717,-0.37298 -0.79927,-0.15985 -0.14209,0.21314 -0.0888,0.51508 0.17762,0.5506 0.26642,0.0355 0.37299,-0.0533 0.33746,0.0178 -0.0355,0.071 -0.7815,0.37299 -0.76374,0.71045 0.0178,0.33747 0.17762,0.76374 0.81703,0.6927 0.63941,-0.0711 0.33746,-0.60389 1.29658,-0.31971 0.95912,0.28419 3.55228,1.49196 4.1384,1.26106 0.58613,-0.2309 1.38539,-1.86495 1.26106,-2.55764 -0.12433,-0.69269 0.10978,-2.74267 0.10978,-2.74267 z"
       id="path17" />
  </g>
</svg>
