<?xml version="1.0" encoding="UTF-8" standalone="no"?>
<!-- Created with Inkscape (http://www.inkscape.org/) -->

<svg
   width="8.5947456mm"
   height="6.8079391mm"
   viewBox="0 0 8.5947456 6.8079391"
   version="1.1"
   id="svg1"
   inkscape:version="1.3 (0e150ed6c4, 2023-07-21)"
   sodipodi:docname="serundeng_04.svg"
   xmlns:inkscape="http://www.inkscape.org/namespaces/inkscape"
   xmlns:sodipodi="http://sodipodi.sourceforge.net/DTD/sodipodi-0.dtd"
   xmlns="http://www.w3.org/2000/svg"
   xmlns:svg="http://www.w3.org/2000/svg">
  <sodipodi:namedview
     id="namedview1"
     pagecolor="#ffffff"
     bordercolor="#000000"
     borderopacity="0.25"
     inkscape:showpageshadow="2"
     inkscape:pageopacity="0.0"
     inkscape:pagecheckerboard="0"
     inkscape:deskcolor="#d1d1d1"
     inkscape:document-units="mm"
     inkscape:zoom="0.65834035"
     inkscape:cx="17.468168"
     inkscape:cy="12.911255"
     inkscape:window-width="1920"
     inkscape:window-height="974"
     inkscape:window-x="-11"
     inkscape:window-y="-11"
     inkscape:window-maximized="1"
     inkscape:current-layer="layer1" />
  <defs
     id="defs1" />
  <g
     inkscape:label="Layer 1"
     inkscape:groupmode="layer"
     id="layer1"
     transform="translate(-100.54167,-144.99164)">
    <path
       style="fill:#eec084;fill-opacity:1;stroke-width:2.117;stroke-linejoin:round;stroke-miterlimit:3.1;paint-order:markers stroke fill"
       d="m 101.66044,148.76341 c 0.28419,-0.40851 0.071,-2.32674 2.55764,-2.87734 2.4866,-0.55061 3.07273,0.15985 3.21482,0.35522 0.14209,0.19538 1.26106,1.43867 1.15449,1.97152 -0.10657,0.53284 0.0178,1.63404 -0.72822,1.7939 -0.74598,0.15985 -1.2433,0.83478 -3.16153,0.71045 -1.91823,-0.12433 -3.0372,-1.95375 -3.0372,-1.95375 z"
       id="path21" />
    <path
       style="fill:#bf874d;fill-opacity:1;stroke-width:2.117;stroke-linejoin:round;stroke-miterlimit:3.1;paint-order:markers stroke fill"
       d="m 101.78477,149.70477 c 0,0 1.22554,-1.936 2.64645,-2.36227 1.42091,-0.42627 1.38539,0.12433 1.63405,0.2309 0.24866,0.10656 0.72822,-0.26642 0.92359,0.46179 0.19538,0.72822 0.15985,2.53988 0,2.57541 -0.15985,0.0355 -2.0248,0.49731 -3.26809,0.21313 -1.2433,-0.28418 -1.936,-1.03016 -1.936,-1.11896 z"
       id="path22" />
    <path
       id="path24"
       style="display:inline;fill:#111b09;fill-opacity:1;stroke-width:2.117;stroke-linejoin:round;stroke-miterlimit:3.1;paint-order:markers stroke fill"
       d="m 105.39289,144.9922 c -0.22739,0.004 -0.54196,0.0271 -0.96583,0.093 -1.13033,0.17583 -3.34092,1.45728 -3.79305,2.86391 -0.45213,1.40664 0.85449,3.76788 1.78387,3.84318 0.92938,0.0754 2.59932,-0.45234 3.01377,-0.72864 0.41445,-0.27634 1.05516,0.0253 1.55753,-0.0124 0.50236,-0.0377 1.2433,-0.65309 1.78335,-0.99219 0.54004,-0.3391 0.11309,-0.71589 0.32659,-1.69551 0.21351,-0.97962 -0.54021,-1.57011 -0.97978,-2.13527 -0.43957,-0.56517 -1.06732,-0.81643 -2.2102,-1.19321 0,0 -0.13727,-0.049 -0.51625,-0.0429 z m 0.29921,1.51567 c 1.17225,0.24866 1.40359,0.4085 1.82986,0.81701 0.42628,0.40851 0.74569,0.97668 0.74569,0.97668 0,0 0.12452,0.76374 -0.49713,0.95912 -0.62165,0.19537 -1.29658,0.31959 -1.91823,0.58601 -0.62164,0.26643 -0.74605,0.60407 -1.04799,0.46198 -0.30195,-0.14209 -0.99474,-0.56855 -1.66967,-0.94154 -0.67493,-0.37299 -1.08325,-1.01201 -0.49713,-1.47381 0.58613,-0.46179 1.33182,-1.0834 1.70481,-1.15445 0.37299,-0.071 0.51544,0.0174 0.78186,-0.10697 0.26642,-0.12433 0.56793,-0.12403 0.56793,-0.12403 z" />
  </g>
</svg>
