<?xml version="1.0" encoding="UTF-8" standalone="no"?>
<!-- Created with Inkscape (http://www.inkscape.org/) -->

<svg
   width="268.75797"
   height="158.01709"
   viewBox="0 0 71.108877 41.808688"
   version="1.1"
   id="svg1"
   xml:space="preserve"
   inkscape:version="1.4.4 (dcaf3e7, 2026-05-05)"
   sodipodi:docname="continue_button.svg"
   xmlns:inkscape="http://www.inkscape.org/namespaces/inkscape"
   xmlns:sodipodi="http://sodipodi.sourceforge.net/DTD/sodipodi-0.dtd"
   xmlns="http://www.w3.org/2000/svg"
   xmlns:svg="http://www.w3.org/2000/svg"><sodipodi:namedview
     id="namedview1"
     pagecolor="#ffffff"
     bordercolor="#111111"
     borderopacity="1"
     inkscape:showpageshadow="0"
     inkscape:pageopacity="0"
     inkscape:pagecheckerboard="1"
     inkscape:deskcolor="#d1d1d1"
     inkscape:document-units="px"
     inkscape:zoom="0.71673839"
     inkscape:cx="-178.58678"
     inkscape:cy="-6.2784414"
     inkscape:window-width="1920"
     inkscape:window-height="1009"
     inkscape:window-x="-8"
     inkscape:window-y="-8"
     inkscape:window-maximized="1"
     inkscape:current-layer="layer1" /><defs
     id="defs1" /><g
     inkscape:label="Layer 1"
     inkscape:groupmode="layer"
     id="layer1"
     transform="translate(-277.22076,-182.48897)"><path
       style="fill:#ea5e6b;fill-opacity:1;stroke-width:0.264583"
       d="m 344.29182,189.53532 1.65612,9.38475 -6.25649,10.58086 -22.54182,11.04089 -22.72585,0.27602 -9.9368,-2.76022 -6.90054,-8.09666 5.61244,-9.38475 z"
       id="path4"
       sodipodi:nodetypes="ccccccccc" /><path
       style="fill:#ed3648;fill-opacity:1;stroke-width:0.264583"
       d="m 283.3829,201.31226 c 0,0 -2.66037,4.9285 0.46003,7.63662 6.50696,5.64724 16.19462,3.10281 17.09826,4.69211 2.58126,2.76387 4.2435,2.94672 7.09162,2.94707 1.46383,-0.2765 4.03126,-2.73284 5.20233,-3.10692 4.12424,-0.46639 16.04932,-3.28247 19.50712,-6.47375 12.6865,-8.9131 12.20098,-16.90476 12.20098,-16.90476 l -3.70837,-3.38307 c 0,0 -14.24792,-3.90354 -20.88396,-3.12284 -6.63602,0.78071 -25.95856,9.36851 -28.56093,11.19017 -2.60236,1.82165 -8.40708,6.52537 -8.40708,6.52537 z"
       id="path3"
       sodipodi:nodetypes="cscccccccsc" /><path
       style="fill:#ea5e6b;fill-opacity:1;stroke-width:0.264583"
       d="m 291.86638,207.31239 c -0.56372,1.17284 -0.47153,2.55321 1.44913,3.18576 1.92064,0.63255 4.73837,0.10351 4.54287,-1.88616 -0.32095,-3.26593 -5.58935,-2.13732 -5.992,-1.2996 z"
       id="path2"
       sodipodi:nodetypes="ssss" /></g><g
     inkscape:groupmode="layer"
     id="layer2"
     inkscape:label="Layer 2"
     transform="translate(-277.22076,-182.48897)"><path
       id="path1"
       style="fill:#111b09;fill-opacity:1;stroke-width:0.264583"
       d="m 309.55113,184.70294 c -12.46997,3.47367 -27.03861,10.29949 -31.48884,22.25025 -5.79531,15.56287 19.64813,20.10313 36.30326,15.80923 44.99666,-11.60071 35.47192,-33.48823 26.2238,-37.27555 -11.48366,-4.70284 -23.08177,-3.00032 -31.03822,-0.78393 z m 16.11891,0.2713 c 7.238,0.0271 16.22627,1.205 18.49241,6.23889 10.38026,23.05817 -55.41568,39.08389 -63.56253,21.72994 -5.05402,-10.76577 21.95413,-28.05552 45.07012,-27.96883 z"
       sodipodi:nodetypes="sssssssss" /></g></svg>
