<?xml version="1.0" encoding="UTF-8" standalone="no"?>
<!-- Created with Inkscape (http://www.inkscape.org/) -->

<svg
   width="41.05143mm"
   height="34.939613mm"
   viewBox="0 0 41.05143 34.939613"
   version="1.1"
   id="svg1"
   inkscape:version="1.3 (0e150ed6c4, 2023-07-21)"
   sodipodi:docname="coto_makassar.svg"
   xmlns:inkscape="http://www.inkscape.org/namespaces/inkscape"
   xmlns:sodipodi="http://sodipodi.sourceforge.net/DTD/sodipodi-0.dtd"
   xmlns="http://www.w3.org/2000/svg"
   xmlns:svg="http://www.w3.org/2000/svg">
  <sodipodi:namedview
     id="namedview1"
     pagecolor="#ffffff"
     bordercolor="#000000"
     borderopacity="0.25"
     inkscape:showpageshadow="2"
     inkscape:pageopacity="0.0"
     inkscape:pagecheckerboard="0"
     inkscape:deskcolor="#d1d1d1"
     inkscape:document-units="mm"
     inkscape:zoom="1.8620677"
     inkscape:cx="44.037067"
     inkscape:cy="44.842623"
     inkscape:window-width="1920"
     inkscape:window-height="974"
     inkscape:window-x="-11"
     inkscape:window-y="-11"
     inkscape:window-maximized="1"
     inkscape:current-layer="g3" />
  <defs
     id="defs1">
    <pattern
       id="EMFhbasepattern"
       patternUnits="userSpaceOnUse"
       width="6"
       height="6"
       x="0"
       y="0" />
  </defs>
  <g
     inkscape:label="Layer 1"
     inkscape:groupmode="layer"
     id="g1"
     transform="translate(-40.365275,-129.82719)">
    <g
       inkscape:label="F"
       inkscape:groupmode="layer"
       id="g3">
      <path
         style="opacity:1;fill:#7471e4;fill-opacity:1;stroke-width:2.117;stroke-linejoin:round;stroke-miterlimit:3.1;paint-order:markers stroke fill"
         d="m 41.043471,145.48579 c 0,0 3.767759,11.20281 5.877705,13.06157 2.109946,1.85876 6.179127,5.27486 13.86536,5.37534 7.68623,0.10047 8.088124,-1.55734 11.102334,-3.86824 3.014208,-2.31089 5.224627,-3.96871 6.982915,-9.24357 1.758289,-5.27486 2.712789,-8.43978 1.10521,-11.80565 -1.607577,-3.36586 -6.329839,-5.22463 -9.645467,-6.43031 -3.315629,-1.20568 -10.198071,-2.61231 -14.01607,-1.85876 -3.817995,0.75355 -9.846413,3.66729 -11.30328,5.12415 -1.456867,1.45687 -3.064446,1.909 -3.416101,5.22463 -0.351658,3.31563 -0.552606,4.42084 -0.552606,4.42084 z"
         id="path21" />
      <path
         style="opacity:1;fill:#a19ef7;fill-opacity:1;stroke-width:2.117;stroke-linejoin:round;stroke-miterlimit:3.1;paint-order:markers stroke fill"
         d="m 56.126001,154.52412 c 0,0 -0.603885,0.81702 0.35523,1.31434 0.959114,0.49732 2.308981,-0.071 2.8063,0.53284 0.497319,0.60389 -0.284184,0.4618 0.994637,0.88808 1.278822,0.42627 4.546918,-0.81703 5.648124,1.24329 1.101207,2.06032 -0.106569,2.59317 -3.054961,2.66421 -2.948389,0.0711 -2.664208,-1.74061 -4.298257,-2.3445 -1.634048,-0.60389 -4.724529,-0.99464 -5.577077,-0.49732 -0.852546,0.49732 2.06032,2.30898 3.374665,2.59316 1.314344,0.28418 1.882708,0.81702 1.03016,1.17225 -0.852546,0.35523 -0.568365,1.45644 -0.710456,1.49196 -0.14209,0.0355 -7.104558,-1.66957 -8.525468,-4.15616 -1.42091,-2.4866 -3.94303,-4.1917 -4.156165,-4.79558 -0.213138,-0.60389 -3.019438,-10.124 -3.019438,-10.124 0,0 5.292894,5.82574 8.205764,6.99799 2.912869,1.17225 6.926942,3.01944 6.926942,3.01944 z"
         id="path22" />
      <path
         style="opacity:1;fill:#c78c3f;fill-opacity:1;stroke-width:2.117;stroke-linejoin:round;stroke-miterlimit:3.1;paint-order:markers stroke fill"
         d="m 76.912551,140.83889 3.390982,3.81799 -3.943588,5.95306 c 0,0 -10.750677,2.91374 -12.760148,3.16492 -2.009473,0.25119 -14.066305,-0.60284 -16.025542,-2.66255 -1.959234,-2.05971 -6.229363,-7.38481 -6.229363,-7.38481 0,0 2.310892,-3.76776 2.662549,-3.76776 0.351658,0 6.78197,-4.67202 6.78197,-4.67202 0,0 6.681496,-1.55734 7.384812,-1.55734 0.703312,0 9.595228,3.26539 13.162041,4.16965 3.566814,0.90426 5.576287,2.93886 5.576287,2.93886 z"
         id="path38" />
      <path
         style="fill:#ac7732;fill-opacity:1;stroke-width:2.117;stroke-linejoin:round;stroke-miterlimit:3.1;paint-order:markers stroke fill"
         d="m 49.90319,146.24743 -2.235536,0.32654 c 0,0 -5.325102,-0.90427 -0.527487,1.98435 4.797613,2.88862 4.420838,-0.60284 6.606138,0.5526 2.185302,1.15545 4.370604,2.18531 6.028417,0.17583 1.657816,-2.00947 2.436485,-6.80708 0.9545,-7.15874 -1.481986,-0.35166 -10.876269,1.75829 -10.876269,1.75829 z"
         id="path50"
         sodipodi:nodetypes="ccsssscc" />
      <path
         style="fill:#ac7732;fill-opacity:1;stroke-width:2.117;stroke-linejoin:round;stroke-miterlimit:3.1;paint-order:markers stroke fill"
         d="m 78.922034,143.05639 c -0.05024,0.30142 2.05971,1.25592 -0.552604,1.85876 -2.612316,0.60284 -2.260658,-1.10521 -2.963973,0.60284 -0.703316,1.70805 0.452133,4.52131 -1.155446,5.12416 -1.607577,0.60284 -2.009471,1.25591 -2.913735,1.20568 -0.904261,-0.0502 -3.265392,3.01421 -4.722259,-4.21989 -1.456867,-7.2341 0.401894,-12.76015 4.270129,-10.54973 3.868234,2.21042 8.037888,5.97818 8.037888,5.97818 z"
         id="path49" />
      <path
         style="opacity:1;fill:#a19ef7;fill-opacity:1;stroke-width:2.117;stroke-linejoin:round;stroke-miterlimit:3.1;paint-order:markers stroke fill"
         d="m 68.701067,158.68029 c 0,0 0.03552,0.97687 1.758379,0.60388 1.722855,-0.37299 3.516757,-2.04256 3.516757,-2.52211 0,-0.47956 -1.047922,-0.37299 -2.52212,0.60388 -1.474195,0.97688 -1.68733,1.22554 -2.024798,1.19002 -0.337465,-0.0355 -0.799528,-0.3163 -0.799528,-0.16559 0,0.15071 0.07131,0.28992 0.07131,0.28992 z"
         id="path23" />
      <path
         style="opacity:1;fill:#a19ef7;fill-opacity:1;stroke-width:2.117;stroke-linejoin:round;stroke-miterlimit:3.1;paint-order:markers stroke fill"
         d="m 41.455091,140.88337 c 0.142092,-0.14209 7.626849,-8.83141 18.684986,-8.56099 12.740456,0.31156 20.496648,9.73324 20.496648,9.73324 0,0 -1.172252,-4.01407 -2.237935,-4.90214 -1.065684,-0.88807 -5.434986,-3.05496 -6.855899,-3.90751 -1.420911,-0.85255 -8.205764,-2.8063 -11.686995,-2.59316 -3.481234,0.21313 -11.509383,2.66421 -13.747319,3.94303 -2.237936,1.27882 -4.653486,6.28753 -4.653486,6.28753 z"
         id="path24"
         sodipodi:nodetypes="cscssssc" />
      <path
         style="opacity:1;fill:#8ca153;fill-opacity:1;stroke-width:2.117;stroke-linejoin:round;stroke-miterlimit:3.1;paint-order:markers stroke fill"
         d="m 76.01943,143.53948 c 0,0 1.018711,2.00911 1.031271,2.31053 0.01257,0.30142 -0.113033,0.80379 -0.175829,0.80379 -0.0628,0 -2.767856,-1.11577 -2.54179,-2.04515 0.226065,-0.92938 1.686348,-1.06917 1.686348,-1.06917 z"
         id="path25"
         sodipodi:nodetypes="ccssc" />
      <path
         style="opacity:1;fill:#8ca153;fill-opacity:1;stroke-width:2.117;stroke-linejoin:round;stroke-miterlimit:3.1;paint-order:markers stroke fill"
         d="m 47.582772,144.0449 c 0.07105,0 2.397789,-0.2309 2.539878,-0.35523 0.142092,-0.12433 0.03552,-0.53284 -0.01775,-0.60389 -0.05328,-0.071 -0.515081,-1.26106 -0.515081,-1.26106 0,0 -1.54524,-0.28418 -1.971513,0.12433 -0.426273,0.40852 -1.527479,2.13137 -1.13673,2.20242 0.39075,0.071 1.190014,-0.0888 1.190014,-0.0888 z"
         id="path26" />
      <path
         style="opacity:1;fill:#8ca153;fill-opacity:1;stroke-width:2.117;stroke-linejoin:round;stroke-miterlimit:3.1;paint-order:markers stroke fill"
         d="m 71.720505,141.13203 1.403149,1.7939 c 0,0 -0.603885,1.29658 -1.474195,0.92359 -0.870307,-0.37299 -1.332103,-1.82942 -1.332103,-1.82942 0,0 0.763739,-0.97688 0.941354,-0.94136 0.177612,0.0355 0.461795,0.0533 0.461795,0.0533 z"
         id="path27" />
      <path
         style="opacity:1;fill:#8ca153;fill-opacity:1;stroke-width:2.117;stroke-linejoin:round;stroke-miterlimit:3.1;paint-order:markers stroke fill"
         d="m 68.416886,140.52814 c 0.994638,1.03016 1.101207,1.50972 1.065684,1.58077 -0.03552,0.071 -1.740617,2.18465 -1.971514,1.84718 -0.230899,-0.33746 -1.083445,-1.42091 -0.692695,-2.13137 0.39075,-0.71045 1.598525,-1.29658 1.598525,-1.29658 z"
         id="path28" />
      <path
         style="opacity:1;fill:#8ca153;fill-opacity:1;stroke-width:2.117;stroke-linejoin:round;stroke-miterlimit:3.1;paint-order:markers stroke fill"
         d="m 58.097517,138.36125 c -0.05328,0.071 0.213135,-2.84182 0.51508,-2.64645 0.301943,0.19538 1.563003,1.2433 1.563003,1.2433 0,0 0,1.06569 -0.07105,1.13673 -0.07105,0.071 -2.007037,0.26642 -2.007037,0.26642 z"
         id="path29" />
      <path
         style="opacity:1;fill:#8ca153;fill-opacity:1;stroke-width:2.117;stroke-linejoin:round;stroke-miterlimit:3.1;paint-order:markers stroke fill"
         d="m 50.744299,147.26859 c 0.621649,1.42091 0.444035,1.5186 1.047922,1.70509 0.603888,0.1865 2.699732,0.58613 2.610927,0.25754 -0.08881,-0.32858 0.08881,-2.01591 -0.568365,-2.03367 -0.657172,-0.0178 -3.090484,0.071 -3.090484,0.071 z"
         id="path30" />
      <path
         style="opacity:1;fill:#8ca153;fill-opacity:1;stroke-width:2.117;stroke-linejoin:round;stroke-miterlimit:3.1;paint-order:markers stroke fill"
         d="m 52.572819,144.02892 c 0,0 -2.022033,3.07701 -2.386251,2.98909 -0.364215,-0.0879 -1.519663,-0.59028 -1.142886,-1.82108 0.376775,-1.2308 1.620136,-1.79597 1.620136,-1.79597 z"
         id="path31" />
      <path
         style="opacity:1;fill:#cfe06b;fill-opacity:1;stroke-width:2.117;stroke-linejoin:round;stroke-miterlimit:3.1;paint-order:markers stroke fill"
         d="m 71.687922,141.19054 c 0,0 1.004737,1.10521 2.05971,1.40663 1.054973,0.30142 2.109946,-0.35165 2.109946,-0.35165 0,0 1.029854,-3.49146 0.979617,-3.64217 -0.05024,-0.15071 -0.703315,-2.28578 -1.205682,-2.28578 -0.50237,0 -5.224629,-0.15071 -5.350222,0.15071 -0.125592,0.30142 -0.326538,2.98909 -0.326538,2.98909 0,0 -1.281038,1.50711 -1.10521,1.55735 0.175829,0.0502 0.828906,1.15544 1.004734,1.05497 0.175829,-0.10048 -0.188386,-0.0628 0.552607,-0.27631 0.740992,-0.2135 0.967057,-0.71587 0.967057,-0.71587 z"
         id="path32" />
      <path
         style="opacity:1;fill:#f6eb99;fill-opacity:1;stroke-width:2.117;stroke-linejoin:round;stroke-miterlimit:3.1;paint-order:markers stroke fill"
         d="m 71.386501,136.8325 c 0,0 0.979617,0.57772 0.665638,0.97962 -0.313981,0.40189 -0.728435,0.40189 -0.879144,0.50237 -0.150712,0.10047 -0.791231,1.24336 -0.01257,0.77867 0.778672,-0.4647 1.193126,-1.55734 1.971794,-0.64052 0.778672,0.91682 -0.590282,1.88388 0.263745,1.95923 0.854025,0.0754 0.866585,-0.84146 1.808525,-1.39407 0.94194,-0.5526 1.670373,0.87915 1.54478,0.97962 -0.125589,0.10047 -2.00947,1.69549 -2.737905,1.65781 -0.728433,-0.0377 -2.135063,-0.52748 -2.298332,-0.52748 -0.163272,0 -0.326541,-0.15071 -0.577723,0 -0.251185,0.15071 -0.916824,0.13815 -0.941941,-0.62796 -0.02511,-0.76611 -0.125592,-1.10521 -0.07536,-1.34384 0.05024,-0.23862 -0.100473,-1.909 0.188389,-2.1225 0.288861,-0.21351 1.08009,-0.20095 1.08009,-0.20095 z"
         id="path33" />
      <path
         style="opacity:1;fill:#778f62;fill-opacity:1;stroke-width:2.117;stroke-linejoin:round;stroke-miterlimit:3.1;paint-order:markers stroke fill"
         d="m 72.661858,141.79808 c 0,0 0.266423,0.23978 1.340986,-0.39075 1.074565,-0.63053 1.660691,-2.48659 1.90047,-3.20593 0.239778,-0.71934 0.195373,-0.93247 0.38187,-0.65717 0.186494,0.2753 0.65717,3.25033 0.275302,3.79205 -0.381871,0.54173 -1.340985,1.6607 -1.785022,1.50084 -0.444034,-0.15985 -1.731735,-0.595 -1.856065,-0.65717 -0.124328,-0.0622 -0.257541,-0.38187 -0.257541,-0.38187 z"
         id="path34" />
      <path
         style="opacity:1;fill:#cfe06b;fill-opacity:1;stroke-width:2.117;stroke-linejoin:round;stroke-miterlimit:3.1;paint-order:markers stroke fill"
         d="m 66.40985,133.63672 c 0,0 1.172252,0.63941 2.113605,1.36763 0.941353,0.72822 1.580764,3.55228 1.580764,3.55228 0,0 -1.118968,2.39778 -1.26106,2.36226 -0.142092,-0.0355 -0.90583,-0.5506 -1.225537,-0.21313 -0.319704,0.33746 -1.118965,1.70509 -1.118965,1.70509 0,0 -1.722856,0.87031 -2.64645,-0.62165 -0.923591,-1.49196 -2.664208,-3.57004 -2.344502,-5.062 0.319704,-1.49195 1.509718,-3.25033 1.509718,-3.25033 l 3.534516,0.2309 z"
         id="path37" />
      <path
         style="opacity:1;fill:#778f62;fill-opacity:1;stroke-width:2.117;stroke-linejoin:round;stroke-miterlimit:3.1;paint-order:markers stroke fill"
         d="m 67.091255,134.15739 c 0,0 -2.247254,-0.42393 -3.792879,1.38151 -1.290351,1.50726 -1.230802,3.66729 -1.230802,3.66729 0,0 -1.331275,-0.77867 -0.653079,-2.8635 0.678196,-2.08483 1.788238,-2.96449 1.788238,-2.96449 z"
         id="path35"
         sodipodi:nodetypes="cscscc" />
      <path
         style="fill:#fbef9f;fill-opacity:1;stroke-width:2.117;stroke-linejoin:round;stroke-miterlimit:3.1;paint-order:markers stroke fill"
         d="m 68.515533,136.26577 c 0,0 1.15449,-0.55061 0.49732,-0.90584 -0.65717,-0.35522 -3.10825,-0.97687 -3.65885,-0.47955 -0.5506,0.49732 -1.26106,0.94135 0,2.1136 1.26106,1.17226 1.17225,0.94136 1.49196,0.97688 0.3197,0.0355 0.56836,-0.4618 0.51508,0.12433 -0.0533,0.58613 -0.37299,0.97688 -0.62165,1.0124 -0.24866,0.0355 -1.13673,0.12433 -1.38539,-0.10657 -0.24866,-0.2309 -0.79926,-0.14209 -0.92359,-0.0178 -0.12433,0.12433 -0.26642,-0.26642 -0.49732,0.0355 -0.2309,0.30194 -0.39075,0.88807 -0.63941,0.60389 -0.24866,-0.28418 -0.99464,-0.88807 -0.99464,-0.88807 0,0 -0.071,0.67493 1.22554,1.66957 1.29658,0.99464 1.45643,1.0124 1.98927,1.06568 0.53284,0.0533 1.13673,0.81703 1.45644,0.39075 0.3197,-0.42627 0.94135,-1.29658 0.94135,-1.66957 0,-0.37299 0.67493,-2.29122 0.67493,-2.94839 0,-0.65717 -0.071,-0.97687 -0.071,-0.97687 z"
         id="path36" />
      <path
         style="opacity:1;fill:#c68359;fill-opacity:1;stroke-width:2.117;stroke-linejoin:round;stroke-miterlimit:3.1;paint-order:markers stroke fill"
         d="m 55.397786,142.64175 2.522116,6.96246 c 0,0 4.440349,0.56837 5.861259,0.26642 1.420913,-0.30194 4.475872,-0.49731 4.475872,-0.49731 0,0 0.976879,-1.20778 1.154491,-1.17226 0.177614,0.0355 1.101206,0.47956 1.38539,0.17762 0.284181,-0.30195 1.634048,-1.72286 1.278818,-1.95376 -0.355227,-0.23089 -4.404825,-2.64644 -4.404825,-2.64644 0,0 0.05328,0.21313 -0.284181,-0.0533 -0.337466,-0.26642 -0.603888,-1.13673 -0.692695,-1.17225 -0.08881,-0.0355 -2.930629,-0.5506 -2.930629,-0.5506 l -2.628688,-3.46347 c 0,0 -3.356903,0.74598 -4.316018,0.49732 -0.959115,-0.24867 -3.232573,-1.63405 -3.232573,-1.63405 0,0 -2.664209,2.00703 -2.770778,2.85958 -0.106569,0.85255 -0.408511,2.62869 0.213138,3.05496 0.621649,0.42627 0.710454,0.51508 1.29658,0.60389 0.586126,0.0888 1.77614,1.47419 2.504358,1.36763 0.728215,-0.10657 1.118968,-0.0533 1.012399,-0.35523 -0.106569,-0.30195 -0.444034,-2.29122 -0.444034,-2.29122 z"
         id="path39" />
      <path
         style="opacity:1;fill:#845236;fill-opacity:1;stroke-width:2.117;stroke-linejoin:round;stroke-miterlimit:3.1;paint-order:markers stroke fill"
         d="m 59.252008,143.79624 c 0,0 -1.243298,0.17761 -1.314344,0.28418 -0.07105,0.10657 -0.959115,0.21314 -1.047922,0.72822 -0.08881,0.51508 0.852548,1.26106 1.03016,0.76374 0.177615,-0.49732 -0.213135,-0.87031 0.444035,-1.04792 0.657172,-0.17762 1.012401,0.3197 1.332105,0.0533 0.319704,-0.26642 -0.444034,-0.7815 -0.444034,-0.7815 z"
         id="path41" />
      <path
         style="opacity:1;fill:#845236;fill-opacity:1;stroke-width:2.117;stroke-linejoin:round;stroke-miterlimit:3.1;paint-order:markers stroke fill"
         d="m 62.520104,144.3646 c -0.888071,0.60389 -1.225537,-0.35522 -1.687332,0.95912 -0.461796,1.31434 -0.319707,1.49196 -0.603888,1.77614 -0.284184,0.28418 -0.213138,1.08344 -0.674934,1.11896 -0.461795,0.0355 -1.101206,0.0888 -1.261057,-0.0355 -0.159853,-0.12433 -0.408514,0.15986 0.213136,0.58613 0.621649,0.42627 0.230899,0.72822 0.799263,0.44403 0.568365,-0.28418 0.568365,-0.46179 1.030161,-0.72821 0.461796,-0.26643 0.195374,-1.33211 0.568365,-1.10121 0.372988,0.2309 0.799261,0.51508 1.083445,0.90583 0.284181,0.39075 -0.07105,1.17225 0.142089,1.33211 0.213137,0.15985 0.301945,0.8703 1.083447,0.51508 0.7815,-0.35523 1.314342,-0.58613 1.314342,-0.71046 0,-0.12433 0.710456,-0.35523 -0.444035,-0.79926 -1.15449,-0.44404 -1.42091,-0.4618 -1.882708,-1.06569 -0.461796,-0.60388 -1.243296,-1.42091 -0.923592,-1.97151 0.319704,-0.5506 1.225537,-0.37299 1.349867,-0.6927 0.124328,-0.3197 -0.106569,-0.53284 -0.106569,-0.53284 z"
         id="path42" />
      <path
         style="opacity:1;fill:#845236;fill-opacity:1;stroke-width:2.117;stroke-linejoin:round;stroke-miterlimit:3.1;paint-order:markers stroke fill"
         d="m 56.3569,138.89409 c 0,0 0.177615,0.62165 -0.01775,0.74598 -0.195377,0.12433 -0.355227,0.60389 -0.692695,1.10121 -0.337466,0.49732 -0.852546,0.60389 -1.065684,0.3197 -0.213135,-0.28418 -0.994637,-0.0355 -0.834784,-1.08344 0.159853,-1.04792 0.710456,-1.42091 0.284181,-1.38539 -0.426273,0.0355 -0.674931,-0.10657 -0.7815,0.85255 -0.106569,0.95911 0.03552,1.34986 0.355227,1.68733 0.319704,0.33747 0.337466,0.56836 0.106569,0.65717 -0.230899,0.0888 -0.763741,0.87031 -0.51508,1.10121 0.248658,0.2309 0.51508,0.37299 0.39075,0.62165 -0.124331,0.24865 -0.994638,0.62165 -0.355227,0.85254 0.63941,0.2309 0.90583,0.55061 1.491956,0.58613 0.586126,0.0355 1.403149,0.31971 1.332106,-0.0355 -0.07105,-0.35523 -0.781503,-1.7051 -0.408514,-2.0248 0.372991,-0.31971 1.793901,-0.15986 1.793901,-0.15986 0,0 0.550603,-1.1012 0.426273,-2.06032 -0.124328,-0.95911 -0.195374,-1.91823 -0.444034,-1.88271 -0.248659,0.0355 -1.065684,0.10657 -1.065684,0.10657 z"
         id="path43" />
      <path
         style="opacity:1;fill:#845236;fill-opacity:1;stroke-width:2.117;stroke-linejoin:round;stroke-miterlimit:3.1;paint-order:markers stroke fill"
         d="m 59.607235,138.85857 c 0,0 0.923592,2.0248 1.598525,2.66421 0.674934,0.63941 1.563002,1.59852 1.563002,1.59852 l 0.674934,-0.39075 c 0,0 1.278821,2.30899 2.308982,3.09049 1.03016,0.7815 2.024798,3.55228 2.024798,3.55228 l 1.847185,-1.22554 c 0,0 0.159854,0.49732 0.550604,0.17761 0.39075,-0.3197 2.397786,-1.19001 1.971513,-1.54524 -0.426273,-0.35523 -3.534516,-2.39779 -4.227211,-2.75301 -0.692695,-0.35523 -1.047922,-0.47956 -1.190013,-0.99464 -0.142092,-0.51508 0.51508,-0.51508 -0.195377,-0.67493 -0.710454,-0.15986 -2.930628,-0.63941 -2.930628,-0.63941 0,0 -1.527479,-3.09049 -2.29122,-3.07272 -0.763741,0.0177 -1.705094,0.21313 -1.705094,0.21313 z"
         id="path44" />
      <path
         style="opacity:1;fill:#d5a452;fill-opacity:1;stroke-width:2.117;stroke-linejoin:round;stroke-miterlimit:3.1;paint-order:markers stroke fill"
         d="m 46.463804,138.25468 c -0.603888,1.59853 -1.634048,1.38539 0.03552,2.59317 1.669571,1.20777 3.19705,0.92359 3.19705,0.92359 l 0.284184,0.4618 c 0,0 1.598525,0.74597 1.243296,-0.7815 -0.355227,-1.52749 -0.745977,-1.98928 -0.745977,-1.98928 0,0 -2.699732,-1.10121 -3.161528,-1.17225 -0.461798,-0.0711 -0.852548,-0.0355 -0.852548,-0.0355 z"
         id="path45" />
      <path
         style="opacity:1;fill:#d5a452;fill-opacity:1;stroke-width:2.117;stroke-linejoin:round;stroke-miterlimit:3.1;paint-order:markers stroke fill"
         d="m 62.996955,150.10758 c -0.527487,-0.0502 -1.080093,-1.0801 -2.687669,-0.17583 -1.607577,0.90426 -2.361131,2.36113 0.100473,3.36586 2.461603,1.00474 4.044063,-1.53222 4.044063,-1.53222 0,0 -0.02511,0.62796 1.381511,0.42701 1.406631,-0.20094 2.813262,-2.21042 2.813262,-2.21042 l -3.566813,-0.22606 z"
         id="path46" />
      <path
         style="opacity:1;fill:#d5a452;fill-opacity:1;stroke-width:2.117;stroke-linejoin:round;stroke-miterlimit:3.1;paint-order:markers stroke fill"
         d="m 47.582772,146.40716 c 0,0 -1.190014,-1.04792 -2.912869,-0.72821 -1.722853,0.3197 -2.362264,2.52211 -0.372989,2.8951 1.989275,0.37299 3.907507,-1.93599 3.907507,-1.93599 z"
         id="path47" />
      <path
         style="opacity:1;fill:#d5a452;fill-opacity:1;stroke-width:2.117;stroke-linejoin:round;stroke-miterlimit:3.1;paint-order:markers stroke fill"
         d="m 54.154487,137.40214 c 0,0 -0.426272,-0.78151 1.154491,-0.99464 1.580764,-0.21314 2.664209,0.26642 2.664209,0.33746 0,0.0711 -0.497319,2.55764 -0.497319,2.55764 z"
         id="path48" />
    </g>
    <g
       inkscape:label="O"
       inkscape:groupmode="layer"
       id="layer1">
      <path
         id="path3"
         style="opacity:1;fill:#111b09;fill-opacity:1;stroke-width:2.117;stroke-linejoin:round;stroke-miterlimit:3.1;paint-order:markers stroke fill"
         d="m 60.375643,129.82722 c -4.54758,-0.007 -8.981318,1.18815 -13.379028,3.20549 -0.959114,0.39075 -2.060398,1.2434 -2.48667,1.81177 -0.426276,0.56836 -0.710285,0.60405 -1.598352,1.27899 -0.888072,0.67493 -4.404954,5.68328 -0.994772,10.72751 0.0027,0.004 10.121809,14.96847 33.888888,4.61833 2.202411,-0.95912 6.536016,-5.15073 5.43481,-9.98182 -2.025959,-8.88809 -16.556376,-11.6535 -20.864876,-11.66027 z m -0.470772,1.39379 c 7.15072,0.0901 17.765016,2.92737 19.915063,10.58429 1.101206,4.31536 -3.972016,8.17777 -6.216675,8.91677 -20.92374,6.88864 -27.844506,-2.13599 -29.128493,-3.55681 -7.236729,-8.00792 2.990807,-15.78863 15.430105,-15.94425 z"
         sodipodi:nodetypes="scsssssssssss" />
      <path
         style="opacity:1;fill:#111b09;fill-opacity:1;stroke-width:2.117;stroke-linejoin:round;stroke-miterlimit:3.1;paint-order:markers stroke fill"
         d="m 40.541104,141.36637 c 0,0 -0.175829,2.8635 -0.175829,3.16492 0,0.30142 2.084826,11.35352 8.113244,16.22649 6.028415,4.87297 14.468199,4.06918 16.075776,3.76776 1.607579,-0.30142 6.731733,-1.80853 10.650204,-6.38008 3.918471,-4.57155 4.923205,-7.3848 5.475811,-9.64546 0.552606,-2.26066 0.684631,-5.75168 0.684631,-5.75168 l -1.65181,4.31601 c 0.07118,0.0356 -3.481056,12.8452 -13.498658,15.41689 -7.824012,2.00856 -13.089625,-0.0976 -17.690348,-3.9075 -5.224758,-4.32663 -6.891419,-13.35657 -6.891419,-13.35657 z"
         id="path4"
         sodipodi:nodetypes="csssssccsscc" />
      <path
         id="path5"
         style="opacity:1;fill:#111b09;fill-opacity:1;stroke-width:2.117;stroke-linejoin:round;stroke-miterlimit:3.1;paint-order:markers stroke fill"
         d="m 58.188696,133.12572 c -9.251849,-0.0373 -18.289025,9.39964 -16.769002,8.96535 0,0 0.745709,2.06054 0.887801,1.98954 0.142089,-0.071 0.284525,-1.31446 0.639754,-1.81177 0.355227,-0.49732 -0.243113,-0.84758 4.3038,-3.90253 4.546913,-3.05496 9.470359,-4.19325 13.652823,-3.46869 0.297753,0.0516 0.980723,0.27863 0.980723,0.27863 0.300715,-0.46206 0.703991,-0.90217 0.999422,-1.19941 -0.405266,-0.1215 -0.806204,-0.24243 -1.28726,-0.37569 -1.150049,-0.3186 -2.289937,-0.46569 -3.408061,-0.47543 z"
         sodipodi:nodetypes="cccsssccsc" />
      <path
         style="opacity:1;fill:#111b09;fill-opacity:1;stroke-width:2.117;stroke-linejoin:round;stroke-miterlimit:3.1;paint-order:markers stroke fill"
         d="m 55.45107,149.71078 c 0.106566,0.31971 0.870307,1.58077 1.385387,1.45644 0.515081,-0.12433 -0.301942,-0.53284 1.403152,-0.87031 1.705091,-0.33747 3.570039,0.10657 3.570039,0.10657 0,0 -0.479558,0.24866 -0.124331,0.62165 0.35523,0.37298 0.532842,0.94135 1.172253,0.53284 0.63941,-0.40851 0.852548,-1.11897 1.634048,-1.22554 0.781502,-0.10657 1.563002,0.31971 1.598525,-0.21313 0.03552,-0.53285 -0.621649,-0.97688 -1.545241,-0.97688 -0.923591,0 -1.474195,0.40851 -1.474195,0.40851 0,0 -2.788539,-1.08344 -4.937667,-0.76374 -2.149128,0.31971 -2.131367,0.33747 -2.522119,0.63941 -0.39075,0.30194 -0.159851,0.28418 -0.159851,0.28418 z"
         id="path6" />
      <path
         style="opacity:1;fill:#111b09;fill-opacity:1;stroke-width:2.117;stroke-linejoin:round;stroke-miterlimit:3.1;paint-order:markers stroke fill"
         d="m 65.877008,149.76407 c 0.266419,0.33746 -0.07105,0.3197 0.497319,0.44403 0.568364,0.12433 1.367626,-0.10657 1.367626,0.0355 0,0.14208 0,0.65716 0.372991,0.7815 0.372988,0.12433 0.870307,-0.81703 0.870307,-1.04793 0,-0.2309 -0.05329,-0.5506 -0.05329,-0.5506 0,0 0.444035,-0.35523 0.568365,-0.56836 0.12433,-0.21314 -0.195376,-0.47956 0.355227,-0.24866 0.550603,0.2309 0.745979,0.0355 1.083445,0.10656 0.337468,0.0711 1.367629,0.6927 1.811663,0.88807 0.444034,0.19538 1.136729,0.12433 0.852548,-0.071 -0.284183,-0.19538 -0.301945,-0.21314 -0.301945,-0.21314 0,0 0.657172,-0.30194 0.05328,-0.49732 -0.603887,-0.19537 -1.882708,-0.3197 -1.829424,-0.67493 0.05328,-0.35523 1.829424,-0.0888 1.829424,-0.0888 0,0 0.692696,-0.2309 0.142092,-0.79926 -0.550603,-0.56836 -1.349867,-0.87031 -2.308981,-0.42627 -0.959115,0.44403 -1.438672,1.17225 -1.438672,1.17225 0,0 -0.444037,-0.5506 -0.728218,0.0178 -0.284184,0.56837 -0.799264,0.85255 -1.047922,0.85255 -0.248661,0 -1.509718,-0.0355 -1.864948,0.15985 -0.355226,0.19538 -0.657172,0.51508 -0.657172,0.51508 z"
         id="path7"
         sodipodi:nodetypes="csssscsscsccsscsscssscc" />
      <path
         id="path8"
         style="opacity:1;fill:#111b09;fill-opacity:1;stroke-width:2.117;stroke-linejoin:round;stroke-miterlimit:3.1;paint-order:markers stroke fill"
         d="m 75.408614,142.81503 c -0.226134,-0.006 -0.503673,0.1112 -0.828373,0.53692 -0.799263,1.04792 -0.781693,1.4922 -0.461987,2.32699 0.09124,0.23823 0.192976,0.43467 0.298689,0.59479 -0.563185,-0.0915 -0.298293,-0.17555 -0.518314,-0.30127 -0.351213,0 0.252486,0.81689 0.959114,0.92346 0.30895,0.0466 0.579862,-0.13155 0.743107,-0.27596 0.06897,-0.0215 0.155445,-0.0153 0.293522,0.0538 0.390752,0.19538 0.532955,0.37302 0.852662,0.28422 0.319703,-0.0888 0.408511,-0.31988 0.479557,-0.31988 0.07105,0 0.461814,-0.0711 0.14211,-0.23099 -0.09421,-0.0471 -0.177461,-0.0473 -0.257349,-0.0341 0.0266,-0.073 0.06221,-0.15248 0.115239,-0.23203 0.106569,-0.15985 0.444131,-0.23106 0.230994,-0.79943 -0.213135,-0.56836 -0.319878,-0.37277 -0.319878,-0.69247 0,-0.31971 0.01783,-0.71053 -0.390673,-1.04799 -0.408511,-0.33747 -0.692981,-0.53279 -0.692981,-0.53279 -0.09491,0.0316 -0.314935,-0.24375 -0.645439,-0.25321 z m 0.266517,0.98964 c 0.474757,-0.001 0.771662,1.16475 0.876566,1.55439 0.12433,0.4618 0.284028,0.63938 0.30179,0.817 0.0081,0.0814 -0.03989,0.16948 -0.09405,0.24185 -0.07904,-0.014 -0.163833,-0.0558 -0.260966,-0.15296 -0.355227,-0.35523 -0.14209,-0.56812 -0.479557,-0.55036 -0.337465,0.0178 -0.284163,0.0886 -0.337447,0.0176 -0.05329,-0.071 -0.940079,-0.37856 -0.923765,-1.02998 0.0083,-0.33248 0.829512,-0.8973 0.91743,-0.89751 z"
         sodipodi:nodetypes="sssccscssssccssscscsscccssc" />
      <path
         style="opacity:1;fill:#111b09;fill-opacity:1;stroke-width:2.117;stroke-linejoin:round;stroke-miterlimit:3.1;paint-order:markers stroke fill"
         d="m 76.462796,141.62935 c 0.515081,0.5506 1.225537,1.11897 1.864948,1.4742 0.63941,0.35522 0.39075,0.97687 0.852545,1.19001 0.461796,0.21313 0.817026,1.1012 0.799264,0.95911 -0.01775,-0.14209 1.012399,-2.22017 0.426273,-2.39779 -0.586126,-0.17761 -1.509718,-1.06568 -2.113605,-1.68733 -0.603888,-0.62165 -1.349867,-1.06568 -1.349867,-1.06568 z"
         id="path9" />
      <path
         style="opacity:1;fill:#111b09;fill-opacity:1;stroke-width:2.117;stroke-linejoin:round;stroke-miterlimit:3.1;paint-order:markers stroke fill"
         d="m 71.235792,140.87656 c 0.703313,0.10048 0.627959,-0.11303 0.728432,0.13816 0.100475,0.25118 1.054973,0.65307 1.281038,1.15544 0.226068,0.50237 0.577723,1.00474 0.125592,1.02986 -0.45213,0.0251 -0.979617,-0.6782 -1.255918,-1.05498 -0.276305,-0.37677 -0.678199,-0.9545 -0.728435,-0.85402 -0.05024,0.10047 -1.14019,0.92445 -0.784964,1.19088 0.355227,0.26642 1.030161,1.34986 1.385388,1.08344 0.355229,-0.26642 0.976879,-0.83479 0.976879,-0.83479 0,0 0.230896,0.0355 0.284181,0.24866 0.05328,0.21314 0.147989,0.13917 0.147989,0.13917 0,0 -0.238625,0.40818 -0.527487,0.72215 -0.288861,0.31399 -0.45213,0.741 -0.828907,0.72844 -0.376775,-0.0126 -1.871322,-0.92938 -2.05971,-1.83365 -0.188386,-0.90426 0.02511,-1.2308 0.427014,-1.46942 0.401894,-0.23863 0.537387,-0.43099 0.828908,-0.38934 z"
         id="path10"
         sodipodi:nodetypes="sssssssscscscsss" />
      <path
         style="opacity:1;fill:#111b09;fill-opacity:1;stroke-width:2.117;stroke-linejoin:round;stroke-miterlimit:3.1;paint-order:markers stroke fill"
         d="m 72.573051,142.05562 c 0.728218,0.12433 1.563005,0.33747 2.007039,0.24866 0.444035,-0.0888 1.420911,-1.22554 1.634048,-2.68197 0.213135,-1.45643 -0.603887,-2.41555 -1.90047,-2.52212 -1.29658,-0.10656 -1.935991,-0.21313 -2.664209,0.14209 -0.728218,0.35523 -1.172252,0.72822 -1.172252,1.04793 0,0.3197 0.07105,0.81702 -0.550603,1.75837 -0.621649,0.94136 -0.870307,1.0124 -0.870307,1.0124 0,0 -0.603888,0.0178 -0.51508,-0.19537 0.08881,-0.21314 1.539128,-1.38312 0.911166,-3.71913 -0.627959,-2.33601 -2.63743,-3.08956 -4.420838,-3.19004 -4.332758,-0.24409 -2.918549,4.14171 -2.712785,4.72226 0.703315,1.98436 2.788142,3.19004 2.788142,3.19004 0,0 -0.929381,0.35166 -1.205685,0.25119 -0.276302,-0.10048 -1.020989,-0.81642 -1.744835,-1.89229 -0.548296,-0.81494 -0.66653,-1.17216 -1.018188,-2.37784 -0.813108,-2.78782 1.878714,-6.57668 5.526048,-4.92321 1.883881,0.85402 2.687669,2.1853 2.687669,2.1853 0,0 0.854025,0.47725 1.507104,0.65308 0.653079,0.17583 0.803791,0.2763 0.803791,0.2763 0,0 2.1853,-0.30142 3.692403,-0.32654 1.507104,-0.0251 2.411368,1.50711 2.285775,1.6327 -0.125592,0.12559 -0.276301,1.35639 -0.351657,2.61231 -0.07536,1.25592 -0.100473,1.53222 -0.602843,2.05971 -0.502367,0.52749 -1.05497,1.38151 -1.281038,1.43175 -0.226066,0.0502 -2.135063,-0.50237 -2.135063,-0.50237 z"
         id="path11"
         sodipodi:nodetypes="csssssscsssscsssscscssssccc" />
      <path
         id="path12"
         style="opacity:1;fill:#111b09;fill-opacity:1;stroke-width:2.117;stroke-linejoin:round;stroke-miterlimit:3.1;paint-order:markers stroke fill"
         d="M 68.652437 140.19968 C 68.532366 140.20468 68.374705 140.23405 68.168229 140.29735 C 67.067025 140.63482 66.72908 140.82984 66.533704 141.43372 C 66.428593 141.75862 66.427087 141.88566 66.447404 141.93601 L 66.40968 141.91327 C 66.40968 141.91327 65.62787 141.64693 64.135917 142.00216 C 62.643964 142.35738 62.146986 142.53534 62.377885 143.12147 C 62.608784 143.70759 62.697399 143.90257 63.354569 143.49406 C 64.011742 143.08554 64.775387 142.81916 65.521362 142.81916 C 65.756662 142.81916 65.938193 142.83029 66.085152 142.84758 C 66.138265 142.54551 66.224882 142.26534 66.262402 142.16029 C 66.627057 142.49021 66.871577 142.5985 67.153821 142.77472 C 67.082154 142.48212 67.036763 142.18498 67.040133 142.02024 C 67.049033 141.58509 68.310339 141.03426 68.310339 141.03426 C 68.310339 141.03426 68.35457 141.0433 68.470019 141.0787 C 68.585467 141.1142 68.931642 141.56735 69.109257 141.92258 C 69.286869 142.27781 68.887372 142.21549 68.425578 142.46414 C 68.086868 142.64653 67.95817 143.0284 67.808561 143.31422 C 67.970423 143.49354 68.122442 143.69835 68.246777 143.88111 C 68.617514 143.52206 68.958493 142.99837 69.21571 142.78402 C 69.641983 142.42879 70.192875 142.23333 69.908691 141.59391 C 69.624511 140.9545 68.985233 140.59914 68.985233 140.59914 C 68.985233 140.59914 69.172747 140.17697 68.652437 140.19968 z " />
      <path
         style="opacity:1;fill:#111b09;fill-opacity:1;stroke-width:2.117;stroke-linejoin:round;stroke-miterlimit:3.1;paint-order:markers stroke fill"
         d="m 65.89813,142.76044 c 0,0 3.089563,2.54952 4.194772,3.11468 1.10521,0.56517 1.180566,0.56517 1.381514,0.70332 0.200946,0.13815 0.163269,0.45213 0.301422,0.41445 0.138149,-0.0377 1.105209,0.18839 1.017293,-0.0628 -0.08791,-0.25118 0.226066,-0.85403 -0.175828,-1.00474 -0.401895,-0.15071 -0.690756,-0.15071 -1.607577,-0.69075 -0.916824,-0.54005 -1.358929,-0.92477 -1.783408,-1.09265 -0.390923,-0.15461 -2.880451,-2.38594 -3.014209,-2.18531 z"
         id="path13"
         sodipodi:nodetypes="cssssssscc" />
      <path
         style="opacity:1;fill:#111b09;fill-opacity:1;stroke-width:2.117;stroke-linejoin:round;stroke-miterlimit:3.1;paint-order:markers stroke fill"
         d="m 63.621311,142.28652 c -0.248661,-0.0533 -1.491959,-2.20241 -2.273459,-2.69973 -0.781502,-0.49732 -2.930631,-0.14209 -3.090482,-0.0533 -0.159853,0.0888 -0.05328,1.11897 0,2.22018 0.05328,1.1012 -0.07105,2.06032 -0.568364,1.98927 -0.497319,-0.071 -1.065684,-0.51508 -0.834787,-1.08344 0.230899,-0.56837 -0.213135,-2.4866 0.177615,-3.49899 0.39075,-1.0124 -0.568365,-1.04793 0.63941,-1.20778 1.207773,-0.15985 2.024798,-0.0888 2.912867,0.17761 0.888071,0.26642 1.225537,0.72822 1.26106,0.88807 0.03552,0.15986 2.68197,3.17929 2.451073,3.2681 -0.230899,0.0888 -0.674933,0 -0.674933,0 z"
         id="path14" />
      <path
         style="opacity:1;fill:#111b09;fill-opacity:1;stroke-width:2.117;stroke-linejoin:round;stroke-miterlimit:3.1;paint-order:markers stroke fill"
         d="m 57.521144,142.54694 c -0.64052,0 -1.431751,-0.4019 -1.996914,-0.21351 -0.565163,0.18839 -0.389334,1.38151 -0.138152,2.12251 0.251185,0.74099 1.218242,1.87132 1.293598,2.28577 0.07536,0.41445 -0.113033,1.11777 0.08792,1.5699 0.200945,0.45213 0.364215,0.77867 0.427011,0.79123 0.0628,0.0126 0.615402,0.25118 0.653079,0.0126 0.03768,-0.23863 -0.213506,-0.6154 -0.251185,-1.15545 -0.03768,-0.54004 -0.08791,-1.44431 -0.288862,-2.39881 -0.200945,-0.9545 -1.620136,-2.44904 -1.368951,-2.54952 0.251185,-0.10047 1.268479,0.13816 1.306155,0.0879 0.03768,-0.0502 0.276305,-0.55261 0.276305,-0.55261 z"
         id="path15" />
      <path
         style="opacity:1;fill:#111b09;fill-opacity:1;stroke-width:2.117;stroke-linejoin:round;stroke-miterlimit:3.1;paint-order:markers stroke fill"
         d="m 55.850768,144.55641 c -0.12559,0.0628 -0.301418,0.65308 -1.381511,0.0628 -1.08009,-0.59029 -1.381511,-1.40664 -1.645256,-1.58246 -0.263742,-0.17583 -0.373474,-0.39054 -0.60284,-0.35166 -0.260558,0.0442 -0.514929,0.60284 -0.514929,0.60284 0,0 -0.879145,-0.87914 -2.097387,0.18839 -1.218242,1.06753 -1.368951,2.67511 -0.992177,2.96397 0.376778,0.28886 1.180566,0.77867 1.10521,0.0502 -0.07535,-0.72844 -0.452131,-2.00948 0.653079,-2.49928 1.105209,-0.48981 1.5699,0.0251 1.55734,0.0753 -0.01257,0.0502 -0.715873,0.71587 -1.10521,1.50711 -0.389334,0.79122 -0.477247,0.92938 -0.477247,0.92938 0,0 -1.871321,-0.26375 -2.348571,-0.16328 -0.47725,0.10048 -1.230802,-0.0628 -0.678199,0.22607 0.552606,0.28886 1.934118,0.87914 2.637433,0.90426 0.703315,0.0251 0.439573,-0.23862 0.527486,0.22607 0.08792,0.46469 -0.251182,0.81635 0.678199,1.19312 0.929381,0.37678 0.816348,-0.47725 0.753552,-0.77867 -0.0628,-0.30142 -0.602843,-0.56516 0.03768,-0.54004 0.64052,0.0251 0.866585,0.2135 1.13033,0.22606 0.263742,0.0126 0.46469,-0.40189 0.640519,0.28886 0.175829,0.69076 0.0628,1.09266 0.0628,1.09266 0,0 0.565163,0.11303 0.565163,-0.11304 0,-0.22606 0.527487,-0.60284 -0.01257,-1.82108 -0.540047,-1.21824 -2.19786,-0.47725 -2.222979,-0.97962 -0.02511,-0.50237 0.317489,-1.95964 0.653079,-1.38151 0.05659,0.0975 0.640898,0.59922 1.40663,0.75355 1.354282,0.27295 2.009474,-0.59028 1.946678,-0.64052 -0.0628,-0.0502 -0.276305,-0.43957 -0.276305,-0.43957 z"
         id="path16"
         sodipodi:nodetypes="cssscsssssscssssssscscsssssccc" />
      <path
         style="opacity:1;fill:#111b09;fill-opacity:1;stroke-width:2.117;stroke-linejoin:round;stroke-miterlimit:3.1;paint-order:markers stroke fill"
         d="m 51.348187,143.51206 c 0.266422,-0.81703 0.39075,-0.53285 0.372991,-1.61629 -0.01775,-1.08344 -0.834787,-1.50972 -0.586126,-1.91823 0.248658,-0.40851 1.349864,-1.29658 1.509718,-1.4742 0.159853,-0.17761 0.337465,-0.14209 0.408511,-0.17761 0.07105,-0.0355 0.692695,-0.30194 0.692695,-0.30194 0,0 -0.08881,-0.0178 1.42091,0.76373 1.509718,0.78151 2.717493,0.40852 2.699732,0.28419 -0.01775,-0.12433 -0.426273,-0.63941 -0.426273,-0.63941 0,0 -0.994637,-0.0355 -2.095844,-0.71046 -1.101206,-0.67493 -0.710456,-0.7815 -1.491956,-0.72821 -0.781503,0.0533 -0.834787,-0.0178 -1.172252,0.37298 -0.337469,0.39075 -1.190014,0.39075 -1.793902,1.06569 -0.603888,0.67493 -0.710456,0.90583 -0.621649,0.99464 0.08881,0.0888 -0.106569,1.82942 0.195376,2.45107 0.301943,0.62165 0.319704,1.52748 0.426273,1.59852 0.106569,0.0711 0.461796,0.0355 0.461796,0.0355 z"
         id="path17" />
      <path
         style="opacity:1;fill:#111b09;fill-opacity:1;stroke-width:2.117;stroke-linejoin:round;stroke-miterlimit:3.1;paint-order:markers stroke fill"
         d="m 57.173926,138.46782 c -0.05329,-0.28418 0.639408,-1.50972 0.603885,-2.45107 -0.03552,-0.94136 0.284183,-0.76374 1.083444,-0.53284 0.799264,0.23089 1.083445,-0.44404 1.385391,0.49732 0.301942,0.94135 0.479557,1.06568 0.301942,1.52748 -0.177612,0.46179 0.03552,0.81702 -0.319704,0.76373 -0.355227,-0.0533 -0.603888,0 -0.621649,-0.19537 -0.01775,-0.19538 0.799264,-0.90583 0.07105,-1.29658 -0.728218,-0.39075 -0.763741,-0.88807 -0.923592,-0.24866 -0.159853,0.63941 -0.408514,1.74061 -0.497319,1.77614 -0.08881,0.0355 -1.083444,0.15985 -1.083444,0.15985 z"
         id="path18" />
      <path
         style="opacity:1;fill:#111b09;fill-opacity:1;stroke-width:2.117;stroke-linejoin:round;stroke-miterlimit:3.1;paint-order:markers stroke fill"
         d="m 50.584449,143.38773 c 0,0 -0.426276,-0.95912 -0.47956,-1.43868 -0.05328,-0.47955 0.142092,-0.88807 -0.497319,-0.72821 -0.639408,0.15985 -0.444034,-0.28418 -1.634048,-0.0355 -1.190011,0.24866 -0.976876,0.26643 -1.278819,0.81703 -0.301945,0.5506 -0.24866,1.38539 -0.497319,1.49196 -0.24866,0.10656 -1.545243,0.3197 -1.278821,0.44403 0.26642,0.12433 0.03552,0.0177 1.26106,0.4618 1.225534,0.44403 2.983913,0.0355 3.054959,-0.0888 0.07104,-0.12433 0.76374,-0.71046 0.63941,-0.72822 -0.12433,-0.0178 -0.692695,0.15985 -1.598525,0.0355 -0.905833,-0.12433 -1.26106,0.40851 -1.083445,-0.28419 0.177612,-0.69269 0.142092,-1.11897 0.923592,-1.2433 0.781502,-0.12432 1.296582,0.15986 1.563002,0.60389 0.266422,0.44404 0.142092,0.81703 0.355229,0.85255 0.213136,0.0355 0.550604,-0.15985 0.550604,-0.15985 z"
         id="path19" />
      <path
         style="opacity:1;fill:#111b09;fill-opacity:1;stroke-width:2.117;stroke-linejoin:round;stroke-miterlimit:3.1;paint-order:markers stroke fill"
         d="m 51.530403,148.80142 c 0.3391,-0.0251 1.255921,0.0753 1.507106,0.10047 0.251182,0.0251 1.042413,-0.15071 1.444308,0.0628 0.401894,0.21351 0.778668,0.52748 0.414454,0.59028 -0.364218,0.0628 -0.226066,-0.0502 -0.427014,0.0754 -0.200949,0.12559 0.313981,0.35165 -0.740992,0.17583 -1.054973,-0.17583 -0.96706,-0.17583 -1.193126,-0.26375 -0.226065,-0.0879 -0.653078,-0.0502 -1.054973,-0.22606 -0.401894,-0.17583 -0.01257,-0.55261 0.05024,-0.51493 z"
         id="path20" />
    </g>
  </g>
</svg>
