<?xml version="1.0" encoding="UTF-8" standalone="no"?>
<!-- Created with Inkscape (http://www.inkscape.org/) -->

<svg
   width="42.392914mm"
   height="29.142273mm"
   viewBox="0 0 42.392913 29.142273"
   version="1.1"
   id="svg1"
   inkscape:version="1.3 (0e150ed6c4, 2023-07-21)"
   sodipodi:docname="fried_rice.svg"
   xmlns:inkscape="http://www.inkscape.org/namespaces/inkscape"
   xmlns:sodipodi="http://sodipodi.sourceforge.net/DTD/sodipodi-0.dtd"
   xmlns="http://www.w3.org/2000/svg"
   xmlns:svg="http://www.w3.org/2000/svg">
  <sodipodi:namedview
     id="namedview1"
     pagecolor="#ffffff"
     bordercolor="#000000"
     borderopacity="0.25"
     inkscape:showpageshadow="2"
     inkscape:pageopacity="0.0"
     inkscape:pagecheckerboard="0"
     inkscape:deskcolor="#d1d1d1"
     inkscape:document-units="mm"
     inkscape:zoom="3.7241354"
     inkscape:cx="61.759301"
     inkscape:cy="32.625022"
     inkscape:window-width="1920"
     inkscape:window-height="974"
     inkscape:window-x="-11"
     inkscape:window-y="-11"
     inkscape:window-maximized="1"
     inkscape:current-layer="layer5-8" />
  <defs
     id="defs1">
    <pattern
       id="EMFhbasepattern"
       patternUnits="userSpaceOnUse"
       width="6"
       height="6"
       x="0"
       y="0" />
  </defs>
  <g
     inkscape:groupmode="layer"
     id="layer6"
     inkscape:label="Layer 4"
     style="display:inline"
     transform="translate(-114.46185,-134.33168)">
    <g
       inkscape:groupmode="layer"
       id="layer5-8"
       inkscape:label="F">
      <path
         style="opacity:1;fill:#f7f7f2;fill-opacity:1;stroke-width:2.117;stroke-linejoin:round;stroke-miterlimit:3.1;paint-order:markers stroke fill"
         d="m 143.79624,135.83913 8.11986,4.27132 4.16965,7.03316 -1.55734,8.54025 c 0,0 -4.87296,4.72226 -8.54025,5.87771 -3.66729,1.15544 -11.6047,1.00473 -15.52318,0.25118 -3.91847,-0.75355 -10.95162,-3.86823 -13.36299,-7.7867 -2.41136,-3.91847 -3.71752,-9.29381 0.70332,-12.40849 4.42084,-3.11468 6.73173,-5.62653 11.45399,-5.87771 4.72226,-0.25118 7.38481,-1.20568 8.54026,-1.00474 1.15545,0.20095 5.99668,1.10402 5.99668,1.10402 z"
         id="path3" />
      <path
         style="opacity:1;fill:#dad8d2;fill-opacity:1;stroke-width:2.117;stroke-linejoin:round;stroke-miterlimit:3.1;paint-order:markers stroke fill"
         d="m 135.73985,162.36536 c 0,0 12.86062,-14.4682 13.76488,-16.3772 0.90427,-1.909 2.81327,-5.727 2.81327,-5.727 l -4.52132,-3.21515 c 0,0 -11.35351,14.26725 -14.56867,17.68335 -3.21516,3.4161 -6.53078,5.727 -6.53078,5.727 0,0 4.01894,2.00947 5.22462,2.00947 1.20569,0 3.818,-0.10047 3.818,-0.10047 z"
         id="path4" />
      <path
         style="opacity:1;fill:#dad8d2;fill-opacity:1;stroke-width:2.117;stroke-linejoin:round;stroke-miterlimit:3.1;paint-order:markers stroke fill"
         d="m 118.75981,156.03552 c 0,0 8.03789,-6.22936 12.1573,-10.04736 4.11942,-3.818 8.84168,-10.85115 8.84168,-10.85115 l -6.53078,-0.20095 c 0,0 -11.0521,11.85589 -12.9611,12.65968 -1.90899,0.80378 -5.12415,3.11468 -5.12415,3.11468 l 1.70805,4.11942 z"
         id="path5" />
    </g>
    <g
       inkscape:groupmode="layer"
       id="layer4-2"
       inkscape:label="O">
      <path
         id="path2"
         style="opacity:1;fill:#111b09;fill-opacity:1;stroke-width:2.117;stroke-linejoin:round;stroke-miterlimit:3.1;paint-order:markers stroke fill"
         d="m 135.4801,134.33237 c -0.6542,-0.005 -1.21938,0.0173 -1.66811,0.0615 -17.73638,1.74796 -24.21862,13.31631 -15.50272,22.54979 5.45811,5.78222 19.40835,7.82754 27.07617,5.72291 8.1297,-2.23141 16.80919,-11.57917 7.33444,-22.60638 -3.72914,-4.34016 -12.66033,-5.69412 -17.23978,-5.72781 z m -0.2775,1.24954 c 4.24052,0.003 11.84018,1.21012 15.95975,5.18159 8.52025,8.21395 2.65417,19.01879 -6.93239,20.39617 -7.8706,1.13084 -15.73532,1.39378 -23.7138,-4.53822 -9.23453,-6.86588 -4.64158,-19.22389 13.09481,-20.97185 0.44873,-0.0442 0.98584,-0.0681 1.59163,-0.0677 z"
         sodipodi:nodetypes="cccsscccsscccc" />
    </g>
  </g>
  <g
     inkscape:groupmode="layer"
     id="g2"
     inkscape:label="Layer 2"
     transform="translate(-114.46185,-134.33168)">
    <g
       inkscape:groupmode="layer"
       id="layer5"
       inkscape:label="F">
      <path
         style="opacity:1;fill:#dab774;fill-opacity:1;stroke-width:2.117;stroke-linejoin:round;stroke-miterlimit:3.1;paint-order:markers stroke fill"
         d="m 148.50301,139.30261 c 0.21313,0.17761 0.70157,0.67493 1.0568,1.37651 0.35523,0.70157 0.55949,1.43867 0.55949,1.43867 l 1.42979,0.84366 -0.34635,1.23442 1.57188,0.15985 c 0,0 0.43508,3.90565 0.52299,4.11916 0.0879,0.21351 0.9545,0.90426 0.4019,1.75829 -0.55261,0.85402 -1.2936,1.14289 -1.2936,1.14289 0,0 1.44431,-0.32654 1.82108,0.35165 0.37678,0.6782 -0.76611,3.05189 -0.76611,3.05189 l -1.29359,-0.0502 0.33909,1.28104 c 0,0 -0.28886,0.36422 -0.75355,0.41446 -0.46469,0.0502 -1.25592,-0.26375 -1.25592,-0.26375 l -5.56373,0.94194 c 0,0 -0.46469,1.48199 -1.38151,1.60758 -0.91682,0.12559 -1.89644,-0.66564 -1.89644,-0.66564 0,0 -2.05971,1.70805 -2.82582,1.25592 -0.76611,-0.45213 -1.21824,-1.67037 -1.62013,-1.33127 -0.4019,0.33909 -1.26848,1.49454 -2.27322,1.21824 -1.00474,-0.2763 -1.60758,-1.94668 -1.53222,-1.909 0.0753,0.0377 -0.69076,0.66564 -1.40663,0.79123 -0.71588,0.12559 -2.44905,-0.72843 -2.5244,-1.01729 -0.0754,-0.28887 -1.65782,-0.50237 -1.72061,-0.79124 -0.0628,-0.28886 0.0628,-1.18056 0.0628,-1.18056 l -1.99328,-0.84108 c 0,0 -0.80742,0.89132 -1.81215,0.99179 -1.00474,0.10047 -2.8635,-1.80852 -2.83839,-2.08483 0.0251,-0.2763 -5.55116,-1.53222 -3.91846,-2.63743 1.63269,-1.10521 1.65781,-1.53222 1.65781,-1.53222 l -0.0502,-2.8635 c 0,0 0.32654,-1.28104 0.82891,-1.55734 0.50237,-0.2763 0.90426,-0.0251 0.87914,-0.30142 -0.0251,-0.2763 -0.60284,-1.80853 0.4019,-2.13506 1.00474,-0.32655 3.03933,-0.87915 3.03933,-0.87915 0,0 0.50236,-2.36113 2.1853,-2.48672 1.68293,-0.1256 0.72843,-0.45213 0.72843,-0.45213 l -0.15071,-1.45687 2.76302,0.87914 3.34075,-0.30142 0.82891,0.0251 c 0,0 2.26066,-1.48199 2.56208,-0.87914 0.30142,0.60284 0.40189,1.25592 0.40189,1.25592 l 2.96397,-0.72844 2.23554,0.17583 c 0,0 0.20095,-2.10994 1.33128,-1.85876 1.13032,0.25118 3.44122,0.9545 3.44122,1.08009 0,0.12559 0.40189,1.5071 0.40189,1.5071 0,0 -0.20095,0.92939 -0.15071,1.02986 0.0502,0.10047 1.61059,0.27225 1.61059,0.27225 z"
         id="path29" />
      <path
         style="opacity:1;fill:#a78b54;fill-opacity:1;stroke-width:2.117;stroke-linejoin:round;stroke-miterlimit:3.1;paint-order:markers stroke fill"
         d="m 130.67057,154.29322 c -0.0888,-0.19537 -1.2433,-1.91823 -0.35523,-2.39779 0.88807,-0.47955 2.41555,0.47956 2.73526,1.04793 0.3197,0.56836 -0.1421,1.27882 0.26642,1.27882 0.40851,0 1.3321,0.0888 1.3321,0.0888 0,0 3.05496,1.20778 1.82943,1.75838 -1.22554,0.5506 -2.34451,-0.24866 -2.68197,-0.12433 -0.33747,0.12433 -0.19538,0.40851 -0.78151,0.31971 -0.58612,-0.0888 -0.95911,-0.44404 -1.11897,-0.53285 -0.15985,-0.0888 -0.90583,-0.49732 -0.95911,-0.65717 -0.0533,-0.15985 -0.26642,-0.7815 -0.26642,-0.7815 z"
         id="path30" />
      <path
         style="opacity:1;fill:#a78b54;fill-opacity:1;stroke-width:2.117;stroke-linejoin:round;stroke-miterlimit:3.1;paint-order:markers stroke fill"
         d="m 127.52613,148.04787 c 0,0 0.15071,0.25118 1.73317,0.45213 1.58246,0.20095 1.78341,-0.15071 2.00948,0.0753 0.22606,0.22607 -0.82891,0 -0.37678,1.50711 0.45213,1.5071 1.48198,2.26066 2.28577,2.05971 0.80379,-0.20095 0.85403,-0.80379 1.05498,-0.72844 0.20094,0.0754 1.30615,0.62796 2.36112,0.27631 1.05498,-0.35166 0.65308,-1.40663 0.82891,-1.23081 0.17583,0.17583 -0.0251,0.70332 1.13033,0.9545 1.15545,0.25119 2.08483,-0.15071 1.55734,-0.90426 -0.52748,-0.75355 -1.30616,-0.6782 -1.13033,-0.85402 0.17583,-0.17583 0.32654,-0.9545 0.32654,-0.9545 0,0 -0.75355,-2.8635 -0.87914,-2.96398 -0.12559,-0.10047 -1.20568,-0.70331 -1.70805,-1.13032 -0.50237,-0.42702 -0.65308,-2.18531 -0.65308,-2.18531 l 0.15071,-0.90426 c 0,0 0,-1.02985 -0.55261,-1.28104 -0.5526,-0.25118 -1.53222,0.87915 -1.25591,1.40663 0.2763,0.52749 0.77866,0.4019 0.62795,0.80379 -0.1507,0.4019 -0.75355,0.42702 -0.85402,0.75356 -0.10048,0.32654 0.0502,0.35165 -0.10048,0.35165 -0.15071,0 -1.30615,-0.32654 -1.30615,-0.32654 l -2.10995,2.10995 c 0,0 -1.5071,-1.05497 -1.5071,-0.80379 0,0.25118 0.0754,1.33128 0.20094,1.6327 0.1256,0.30142 -0.17582,0.47725 -0.17582,0.47725 0,0 -1.18057,0.75355 -1.43175,1.02985 -0.25119,0.2763 -0.22607,0.37678 -0.22607,0.37678 z"
         id="path31" />
      <path
         style="opacity:1;fill:#a78b54;fill-opacity:1;stroke-width:2.117;stroke-linejoin:round;stroke-miterlimit:3.1;paint-order:markers stroke fill"
         d="m 138.85453,153.52368 c 0,0 -0.48981,-0.25118 -0.45213,0.59028 0.0377,0.84147 1.26848,1.84621 1.26848,1.84621 0,0 -0.0879,0.38933 0.3391,0.54004 0.42701,0.15071 1.94667,0.18839 1.94667,0.18839 0,0 1.00474,0.16327 0.18839,-0.70332 -0.81635,-0.86658 -1.58246,-0.66563 -1.58246,-0.66563 0,0 0.23863,-1.55735 -0.18838,-1.68294 -0.42702,-0.12559 -1.51967,-0.11303 -1.51967,-0.11303 z"
         id="path32" />
      <path
         style="opacity:1;fill:#a78b54;fill-opacity:1;stroke-width:2.117;stroke-linejoin:round;stroke-miterlimit:3.1;paint-order:markers stroke fill"
         d="m 140.83009,149.07137 c 0,0 -1.22554,0.58613 -0.0533,0.88807 1.17225,0.30194 1.59853,0 1.49196,0.14209 -0.10657,0.1421 -0.40851,0.33747 0.2309,0.62165 0.63941,0.28418 1.8827,1.40315 1.8827,1.40315 0,0 1.2433,0.90583 1.68734,0.19538 0.44403,-0.71046 0.7815,-1.59853 0.28418,-1.84719 -0.49732,-0.24866 -0.90583,-0.14209 -0.40851,-0.28418 0.49731,-0.14209 0.51508,-0.15985 0.51508,-0.15985 0,0 0.21313,1.15449 1.08344,0.94135 0.87031,-0.21313 0.60389,-2.45107 0.60389,-2.45107 l -1.75838,0.0711 c 0,0 -1.72285,1.15448 -2.36226,1.11896 -0.63941,-0.0355 -2.39779,-1.47419 -2.39779,-1.47419 0,0 -0.56837,0.21313 -0.53284,0.30194 0.0355,0.0888 -0.17762,0.53284 -0.17762,0.53284 z"
         id="path33" />
      <path
         style="opacity:1;fill:#a78b54;fill-opacity:1;stroke-width:2.117;stroke-linejoin:round;stroke-miterlimit:3.1;paint-order:markers stroke fill"
         d="m 146.47821,144.93297 c 0,0 -0.0178,0.49732 0.58612,-0.90583 0.60389,-1.40315 0.44404,-1.77614 0.44404,-1.77614 l -1.97152,-0.6927 c 0,0 -1.3321,0.79927 -1.34986,0.88807 -0.0178,0.0888 0.3197,1.03016 0.3197,1.03016 0,0 -0.24866,0.28418 -0.0177,0.44404 0.2309,0.15985 1.98928,1.0124 1.98928,1.0124 z"
         id="path34" />
      <path
         style="opacity:1;fill:#a78b54;fill-opacity:1;stroke-width:2.117;stroke-linejoin:round;stroke-miterlimit:3.1;paint-order:markers stroke fill"
         d="m 127.61561,142.46413 c 0,0 -1.0124,-1.13672 -1.49196,-1.08344 -0.47956,0.0533 -1.50972,0.58613 -1.50972,0.58613 0,0 -0.26642,0.79926 1.2433,1.29658 1.50972,0.49731 1.75838,-0.79927 1.75838,-0.79927 z"
         id="path35" />
      <path
         style="opacity:1;fill:#a78b54;fill-opacity:1;stroke-width:2.117;stroke-linejoin:round;stroke-miterlimit:3.1;paint-order:markers stroke fill"
         d="m 125.34083,145.96304 -1.5071,-0.50237 -2.28578,0.4019 c 0,0 -0.60284,-0.65308 -1.5071,-0.30142 -0.90427,0.35165 -0.82891,1.5071 -0.82891,1.5071 0,0 0.52749,0.12559 0.85403,0.20095 0.32654,0.0753 1.98435,1.25592 1.98435,1.25592 0,0 1.33128,-0.60285 2.16018,-0.77867 0.82891,-0.17583 1.50711,-0.4019 1.50711,-0.4019 z"
         id="path36" />
      <path
         style="opacity:1;fill:#a78b54;fill-opacity:1;stroke-width:2.117;stroke-linejoin:round;stroke-miterlimit:3.1;paint-order:markers stroke fill"
         d="m 120.54322,150.35876 c -0.25119,0.0502 -1.23081,0.17583 -1.38152,0.72843 -0.15071,0.55261 0.4019,1.65782 0.90427,1.70806 0.50236,0.0502 2.28577,0.2763 2.28577,0.2763 0,0 0.40189,0.5526 0.97962,-0.62796 0.57772,-1.18057 0.72843,-1.48199 0.72843,-1.48199 l -0.72843,-0.57772 -1.60758,0.42701 z"
         id="path37" />
      <path
         style="opacity:1;fill:#a78b54;fill-opacity:1;stroke-width:2.117;stroke-linejoin:round;stroke-miterlimit:3.1;paint-order:markers stroke fill"
         d="m 150.54557,147.01105 c 0.40851,-0.0355 1.63405,-0.21314 1.49195,-1.19001 -0.14209,-0.97688 -1.86494,-0.37299 -1.84718,-0.28419 0.0178,0.0888 0.35523,1.4742 0.35523,1.4742 z"
         id="path38" />
      <path
         style="opacity:1;fill:#a78b54;fill-opacity:1;stroke-width:2.117;stroke-linejoin:round;stroke-miterlimit:3.1;paint-order:markers stroke fill"
         d="m 144.33034,140.22348 c 0,0 1.82109,-1.19312 1.72061,-1.29359 -0.10047,-0.10048 -0.35165,-2.53696 -0.81634,-2.43649 -1.6327,-0.0377 -1.3564,2.61231 -1.3564,2.61231 z"
         id="path39"
         sodipodi:nodetypes="ccccc" />
      <path
         style="opacity:1;fill:#a78b54;fill-opacity:1;stroke-width:2.117;stroke-linejoin:round;stroke-miterlimit:3.1;paint-order:markers stroke fill"
         d="m 142.10891,138.44118 c -0.0355,-0.0266 -0.62165,-0.39075 -0.62165,-0.39075 0,0 -1.57189,0.75486 -1.53636,0.95023 0.0355,0.19538 -0.23978,1.33211 0.17761,1.55412 0.41739,0.22202 1.35875,0.47956 1.39427,0.37299 0.0355,-0.10657 0.58613,-2.48659 0.58613,-2.48659 z"
         id="path40" />
      <path
         style="opacity:1;fill:#a78b54;fill-opacity:1;stroke-width:2.117;stroke-linejoin:round;stroke-miterlimit:3.1;paint-order:markers stroke fill"
         d="m 129.5516,139.32037 -0.21313,-1.34987 c 0,0 -0.0711,0.62165 -0.39076,0.6927 -0.3197,0.071 -1.09291,0.0889 -1.17225,0.44403 -0.22595,1.01131 0.85255,1.19001 0.85255,1.19001 l 1.13673,-0.67493 z"
         id="path41"
         sodipodi:nodetypes="cccsccc" />
      <path
         style="fill:#4d7933;fill-opacity:1;stroke-width:2.117;stroke-linejoin:round;stroke-miterlimit:3.1;paint-order:markers stroke fill"
         d="m 128.23228,141.17481 4.57155,1.69549 c 0,0 -1.9718,2.37369 -2.02203,2.37369 -0.0502,0 -1.74573,-1.08009 -1.83365,-1.15544 -0.0879,-0.0754 -0.77867,-0.31398 -0.90426,-0.90426 -0.12559,-0.59029 0.18839,-2.00948 0.18839,-2.00948 z"
         id="path74" />
      <path
         style="opacity:1;fill:#e3d6b7;fill-opacity:1;stroke-width:2.117;stroke-linejoin:round;stroke-miterlimit:3.1;paint-order:markers stroke fill"
         d="m 137.33997,153.94687 c 0.24866,0.009 1.50972,0.91472 1.57188,-0.14209 0.0622,-1.0568 -0.85254,-1.62516 -1.42979,-1.44755 -0.57724,0.17761 -0.85254,0.37299 -0.85254,0.37299 z"
         id="path42" />
      <path
         style="opacity:1;fill:#e3d6b7;fill-opacity:1;stroke-width:2.117;stroke-linejoin:round;stroke-miterlimit:3.1;paint-order:markers stroke fill"
         d="m 141.33628,152.41052 c -0.11544,-0.0533 -0.38186,0.0266 -0.70157,-0.29307 -0.3197,-0.3197 -1.57188,-0.88807 -1.96263,-0.28418 -0.39075,0.60389 0.69269,1.26994 0.95911,1.73173 0.26642,0.4618 0.44404,1.05681 1.34099,0.51509 0.89695,-0.54173 0.70157,-1.63405 0.52396,-1.63405 -0.17762,0 -0.15986,-0.0355 -0.15986,-0.0355 z"
         id="path43" />
      <path
         style="opacity:1;fill:#e3d6b7;fill-opacity:1;stroke-width:2.117;stroke-linejoin:round;stroke-miterlimit:3.1;paint-order:markers stroke fill"
         d="m 145.11058,156.22033 c 0.70158,0.0977 0.76374,0.40851 1.18113,0.0888 0.4174,-0.3197 0.59501,-1.34098 -0.009,-1.42979 -0.60388,-0.0888 -1.35874,0.0533 -1.42979,0.0355 -0.071,-0.0178 -0.0355,-0.41739 -0.5062,-0.0622 -0.47067,0.35522 -0.70157,0.47955 -0.53284,0.60388 0.16873,0.12433 0.87031,0.89695 0.95912,0.89695 0.0888,0 0.33746,-0.13321 0.33746,-0.13321 z"
         id="path44" />
      <path
         style="opacity:1;fill:#e3d6b7;fill-opacity:1;stroke-width:2.117;stroke-linejoin:round;stroke-miterlimit:3.1;paint-order:markers stroke fill"
         d="m 147.56165,144.73759 c -0.23089,0.0178 -0.8703,-0.15985 -0.72821,0.25754 0.14209,0.41739 0.48843,0.60389 0.63941,0.83479 0.15097,0.2309 0.90583,0.64829 1.30546,0.23978 0.39963,-0.40851 0.76608,-1.57223 0.36411,-1.66957 -0.93064,-0.22536 -1.08935,0.19623 -1.58077,0.33746 z"
         id="path45"
         sodipodi:nodetypes="cssssc" />
      <path
         style="opacity:1;fill:#e3d6b7;fill-opacity:1;stroke-width:2.117;stroke-linejoin:round;stroke-miterlimit:3.1;paint-order:markers stroke fill"
         d="m 151.09975,148.63815 c 0.0502,0 1.40663,-0.47725 1.55734,-1.14289 0.15072,-0.66564 -0.35165,-1.24336 -1.06753,-1.04241 -0.71587,0.20095 -1.24336,1.75829 -1.20568,1.80852 0.0377,0.0502 0.71587,0.37678 0.71587,0.37678 z"
         id="path46" />
      <path
         style="opacity:1;fill:#e3d6b7;fill-opacity:1;stroke-width:2.117;stroke-linejoin:round;stroke-miterlimit:3.1;paint-order:markers stroke fill"
         d="m 150.47179,148.62559 c -0.48981,0.0126 -1.08009,-0.72843 -1.59502,0.0754 -0.51492,0.80378 0.35166,1.99691 1.09265,1.99691 0.741,0 1.98436,-0.42701 2.05971,-0.8917 0.0754,-0.46469 -1.55734,-1.18057 -1.55734,-1.18057 z"
         id="path47" />
      <path
         style="opacity:1;fill:#e3d6b7;fill-opacity:1;stroke-width:2.117;stroke-linejoin:round;stroke-miterlimit:3.1;paint-order:markers stroke fill"
         d="m 130.81664,140.06022 c 0,0 0.35166,1.33127 2.38625,1.1052 2.03459,-0.22606 3.19004,-2.10994 1.43175,-2.48672 -1.75829,-0.37677 -2.53696,-0.60284 -3.19004,0.17583 -0.65307,0.77867 -0.62796,1.20569 -0.62796,1.20569 z"
         id="path48" />
      <path
         style="opacity:1;fill:#e3d6b7;fill-opacity:1;stroke-width:2.117;stroke-linejoin:round;stroke-miterlimit:3.1;paint-order:markers stroke fill"
         d="m 121.61075,144.45594 c 0,0 -1.44431,-0.38934 -0.0754,-0.90427 1.36896,-0.51492 1.73317,-0.54004 1.83365,-0.0251 0.10047,0.51493 -0.13816,1.6327 -0.13816,1.6327 0,0 -0.42701,0.25118 -1.02985,-0.10048 -0.60284,-0.35165 -0.59028,-0.60284 -0.59028,-0.60284 z"
         id="path49" />
      <path
         style="opacity:1;fill:#e3d6b7;fill-opacity:1;stroke-width:2.117;stroke-linejoin:round;stroke-miterlimit:3.1;paint-order:markers stroke fill"
         d="m 124.24094,151.13169 c -0.24866,0.0355 -1.49195,-0.24866 -1.24329,0.72822 0.24866,0.97688 0,1.33211 1.59852,1.49196 1.59853,0.15985 1.52748,-0.76374 1.52748,-0.76374 l 0.24866,-1.22554 -2.06032,-0.21313 z"
         id="path50" />
      <path
         style="opacity:1;fill:#f2dd86;fill-opacity:1;stroke-width:2.117;stroke-linejoin:round;stroke-miterlimit:3.1;paint-order:markers stroke fill"
         d="m 144.02714,139.91537 c 0,0 0.42627,-0.39963 -0.009,-0.95911 -0.43516,-0.55949 -1.57188,-0.64829 -1.57188,-0.64829 0,0 -1.03905,1.11009 -0.94136,1.95375 0.0977,0.84367 0.53284,1.16337 1.04792,0.57725 0.51508,-0.58613 1.4742,-0.9236 1.4742,-0.9236 z"
         id="path51" />
      <path
         style="opacity:1;fill:#f2dd86;fill-opacity:1;stroke-width:2.117;stroke-linejoin:round;stroke-miterlimit:3.1;paint-order:markers stroke fill"
         d="m 143.99161,152.17962 c -0.28418,0.0178 -1.17225,0.0178 -1.59852,0.62165 -0.42627,0.60388 -1.03016,1.27882 0.30194,1.61628 1.33211,0.33747 2.04256,-0.2309 2.04256,-0.2309 0,0 0.47956,-1.04792 0.4618,-1.11897 -0.0178,-0.071 -1.20778,-0.88806 -1.20778,-0.88806 z"
         id="path52" />
      <path
         style="opacity:1;fill:#f2dd86;fill-opacity:1;stroke-width:2.117;stroke-linejoin:round;stroke-miterlimit:3.1;paint-order:markers stroke fill"
         d="m 141.30358,147.36967 -0.38934,1.46943 c 0,0 -1.00473,0.36421 -1.64525,-0.30142 -0.64053,-0.66564 -0.62797,-1.87132 -0.51493,-1.87132 0.11303,0 2.54952,0.70331 2.54952,0.70331 z"
         id="path53" />
      <path
         style="opacity:1;fill:#f2dd86;fill-opacity:1;stroke-width:2.117;stroke-linejoin:round;stroke-miterlimit:3.1;paint-order:markers stroke fill"
         d="m 127.86523,155.09358 c 0.0251,0.0879 -0.91682,1.09265 0,1.54478 0.91682,0.45213 3.22772,-1.21824 3.22772,-1.21824 l -0.47725,-0.97962 c 0,0 -1.33128,-0.43957 -1.64526,0.0377 -0.31398,0.47725 -1.10521,0.6154 -1.10521,0.6154 z"
         id="path54" />
      <path
         style="opacity:1;fill:#f2dd86;fill-opacity:1;stroke-width:2.117;stroke-linejoin:round;stroke-miterlimit:3.1;paint-order:markers stroke fill"
         d="m 122.52757,142.2204 c 0,0 0.39903,1.50479 1.64233,1.87778 1.2433,0.37299 0.74598,-1.84718 0.74598,-1.84718 0,0 -1.27882,-0.49732 -1.4742,-0.42628 -0.19537,0.071 -0.91411,0.39568 -0.91411,0.39568 z"
         id="path55" />
      <path
         style="opacity:1;fill:#d76e5e;fill-opacity:1;stroke-width:2.117;stroke-linejoin:round;stroke-miterlimit:3.1;paint-order:markers stroke fill"
         d="m 149.20331,142.97395 0.47725,-0.75355 -0.25118,-1.98436 -1.38151,-1.13033 -3.1398,0.70332 c 0,0 -0.20095,1.98435 -0.0251,1.98435 0.17583,0 0.62796,-0.30142 1.58246,0.0754 0.9545,0.37678 1.40663,0.97962 1.98435,1.13033 0.57772,0.15071 0.75355,-0.0251 0.75355,-0.0251 z"
         id="path56" />
      <path
         style="opacity:1;fill:#d76e5e;fill-opacity:1;stroke-width:2.117;stroke-linejoin:round;stroke-miterlimit:3.1;paint-order:markers stroke fill"
         d="m 143.814,142.03786 c 0.2309,0.39075 0.79926,2.0248 0.79926,2.0248 l 1.84719,0.95911 0.5506,1.88271 -2.14913,2.2557 c 0,0 -3.07272,-0.26642 -3.32138,-0.83479 -0.24866,-0.56836 -0.4618,-2.77077 -0.4618,-2.77077 0,0 -0.58612,0.28418 -1.68733,0.10657 -1.1012,-0.17762 -3.85422,-0.44404 -3.25033,-2.55764 0.60388,-2.11361 2.8063,-2.14914 3.17929,-2.14914 0.37299,0 4.49363,1.08345 4.49363,1.08345 z"
         id="path57" />
      <path
         style="opacity:1;fill:#e4b796;fill-opacity:1;stroke-width:2.117;stroke-linejoin:round;stroke-miterlimit:3.1;paint-order:markers stroke fill"
         d="m 142.92593,142.09114 c 0,0 -1.22554,-0.37298 -1.75838,-0.19537 -0.53284,0.17761 -1.11897,0.5506 -1.52748,0.65717 -0.40851,0.10657 -1.38539,-0.15985 -1.43867,0.62165 -0.0533,0.7815 -0.85255,0.94135 1.36763,1.17225 2.22017,0.2309 3.41018,-0.0355 3.46347,-0.2309 0.0533,-0.19537 0.44403,-1.81166 0.2309,-1.86494 -0.21314,-0.0533 -0.33747,-0.15986 -0.33747,-0.15986 z"
         id="path58" />
      <path
         style="opacity:1;fill:#e4b796;fill-opacity:1;stroke-width:2.117;stroke-linejoin:round;stroke-miterlimit:3.1;paint-order:markers stroke fill"
         d="m 144.67543,144.14259 c -0.10657,0.009 -1.34987,0.65717 -1.49196,1.24329 -0.14209,0.58613 -0.34635,1.72286 0.28418,2.08697 0.63053,0.3641 0.90583,0.67493 1.38539,0.49732 0.47956,-0.17762 0.39075,-0.62165 0.60389,-0.55061 0.21313,0.0711 -0.0533,0.52396 0.53284,0.21314 0.58613,-0.31083 0.57725,-0.36411 0.1865,-0.79926 -0.39075,-0.43516 -0.72822,-1.16338 -0.60389,-1.57189 0.12433,-0.40851 0.29306,-0.8259 0.29306,-0.8259 z"
         id="path59" />
      <path
         style="opacity:1;fill:#e4b796;fill-opacity:1;stroke-width:2.117;stroke-linejoin:round;stroke-miterlimit:3.1;paint-order:markers stroke fill"
         d="m 148.78719,139.78216 c 0,0 -0.44403,-0.35522 -1.15449,-0.071 -0.71046,0.28418 -1.54524,0.33746 -0.95912,0.87031 0.58613,0.53284 0.87031,2.14912 1.50972,2.36226 0.63941,0.21314 1.58077,-0.49732 1.58077,-0.49732 0,0 -0.62165,-1.97151 -0.58613,-2.1136 0.0355,-0.14209 -0.39075,-0.55061 -0.39075,-0.55061 z"
         id="path60" />
      <path
         style="opacity:1;fill:#d76e5e;fill-opacity:1;stroke-width:2.117;stroke-linejoin:round;stroke-miterlimit:3.1;paint-order:markers stroke fill"
         d="m 127.22471,147.94739 c 0,0 1.28104,1.18057 1.25592,1.33128 -0.0251,0.15071 -1.80852,2.21042 -1.80852,2.21042 0,0 -3.61705,-0.75355 -3.84312,-1.78341 -0.22606,-1.02985 -0.50237,-1.30616 0.72844,-1.68293 1.2308,-0.37678 2.28577,-0.70332 2.28577,-0.70332 0,0 -0.55261,0.45214 0.10047,0.50237 0.65308,0.0502 1.28104,0.12559 1.28104,0.12559 z"
         id="path62" />
      <path
         style="opacity:1;fill:#e4b796;fill-opacity:1;stroke-width:2.117;stroke-linejoin:round;stroke-miterlimit:3.1;paint-order:markers stroke fill"
         d="m 127.32518,147.67109 c 0,0 -1.02985,1.08009 -1.14288,1.08009 -0.11303,0 -0.64052,-0.26374 -1.38152,0.0754 -0.74099,0.3391 -1.34383,0.82891 -0.37677,1.34383 0.96706,0.51493 1.67037,0.56517 1.88388,0.36422 0.21351,-0.20095 0.50237,-0.72843 0.50237,-0.72843 0,0 -0.31398,0.32653 0.32654,0 0.64052,-0.32654 0.9545,-0.97962 0.87914,-1.02986 -0.0754,-0.0502 -0.69076,-1.10521 -0.69076,-1.10521 z"
         id="path61" />
      <path
         style="opacity:1;fill:#dda02d;fill-opacity:1;stroke-width:2.117;stroke-linejoin:round;stroke-miterlimit:3.1;paint-order:markers stroke fill"
         d="m 133.42717,146.81707 c 0,0 1.58822,0.033 1.3989,1.14432 -0.18932,1.1113 -0.49435,1.60644 -1.11491,1.37538 -0.62056,-0.23107 -1.77755,-0.17605 -1.47253,-1.0673 0.30503,-0.89125 1.11492,-1.4524 1.11492,-1.4524 l 0.14725,0.055 z"
         id="path63" />
      <path
         style="fill:#95d661;fill-opacity:1;stroke-width:2.117;stroke-linejoin:round;stroke-miterlimit:3.1;paint-order:markers stroke fill"
         d="m 134.45221,153.81048 c 0,0 -0.0642,0.48132 0.14007,0.57012 0.20426,0.0888 1.12841,0.56021 2.10803,0.196 0.97961,-0.36422 0.10047,-1.75829 0.10047,-1.75829 0,0 -0.8917,-0.11304 -1.02986,-0.0502 -0.13815,0.0628 -0.8917,0.22607 -0.99217,0.43957 -0.10048,0.21351 -0.32654,0.60284 -0.32654,0.60284 z"
         id="path66" />
      <path
         style="opacity:1;fill:#dda02d;fill-opacity:1;stroke-width:2.117;stroke-linejoin:round;stroke-miterlimit:3.1;paint-order:markers stroke fill"
         d="m 129.03324,152.88316 c -0.15072,-0.0377 -1.55734,-0.56516 -2.49928,-0.26374 -0.94194,0.30142 -0.90427,0.38933 -0.50237,1.09265 0.40189,0.70331 0.65308,1.73317 1.87132,1.25592 1.21824,-0.47725 1.70805,-1.00474 1.45686,-1.34384 -0.25118,-0.3391 -0.32653,-0.74099 -0.32653,-0.74099 z"
         id="path64" />
      <path
         style="opacity:1;fill:#dda02d;fill-opacity:1;stroke-width:2.117;stroke-linejoin:round;stroke-miterlimit:3.1;paint-order:markers stroke fill"
         d="m 137.58863,139.81769 0.37299,1.17225 c 0,0 2.17577,0.52396 2.17577,-0.54172 0,-1.06569 -0.25754,-1.6607 -0.25754,-1.6607 z"
         id="path65" />
      <path
         style="opacity:1;fill:#4d7933;fill-opacity:1;stroke-width:2.117;stroke-linejoin:round;stroke-miterlimit:3.1;paint-order:markers stroke fill"
         d="m 134.72017,154.2133 c 0.0355,0.0266 0.31082,0.12433 1.23441,-0.0799 0.92359,-0.20426 1.09233,-1.2433 1.09233,-1.2433 0,0 0.58613,-0.17761 0.7815,0.55949 0.19538,0.73709 0.10657,1.13672 -0.39075,1.29658 -0.49732,0.15985 -1.22554,0.18649 -1.31434,0.15097 -0.0888,-0.0355 -1.40315,-0.68381 -1.40315,-0.68381 z"
         id="path67" />
      <path
         style="opacity:1;fill:#4d7933;fill-opacity:1;stroke-width:2.117;stroke-linejoin:round;stroke-miterlimit:3.1;paint-order:markers stroke fill"
         d="m 151.85991,151.15833 c -0.19537,0.10657 -1.74061,1.12785 -1.90047,1.1989 -0.15985,0.0711 -0.31082,-0.13321 -0.44403,0.39963 -0.13321,0.53284 -0.19538,0.97688 -0.29307,0.86143 -0.0977,-0.11545 -1.71397,-0.80815 -0.92359,-1.41203 0.79038,-0.60389 2.43331,-1.83831 2.4866,-1.82055 0.0533,0.0178 1.07456,0.77262 1.07456,0.77262 z"
         id="path68" />
      <path
         style="opacity:1;fill:#95d661;fill-opacity:1;stroke-width:2.117;stroke-linejoin:round;stroke-miterlimit:3.1;paint-order:markers stroke fill"
         d="m 151.76539,150.86113 c 0,0 -1.40663,1.09265 -1.64525,1.21824 -0.23863,0.12559 -0.20095,0.11303 -0.38934,0.20095 -0.18839,0.0879 -0.46469,1.29359 -0.46469,1.29359 0,0 0.60284,-0.10047 1.62014,-0.42701 1.01729,-0.32654 1.73317,-1.48198 1.73317,-1.48198 z"
         id="path69" />
      <path
         style="opacity:1;fill:#95d661;fill-opacity:1;stroke-width:2.117;stroke-linejoin:round;stroke-miterlimit:3.1;paint-order:markers stroke fill"
         d="m 128.40528,141.01472 c 0,0 0.52748,1.68293 1.88388,1.63269 1.35639,-0.0502 2.71278,-1.18056 2.51184,-1.25592 -0.20095,-0.0754 -3.03933,-1.93412 -3.03933,-1.93412 z"
         id="path70" />
      <path
         style="opacity:1;fill:#95d661;fill-opacity:1;stroke-width:2.117;stroke-linejoin:round;stroke-miterlimit:3.1;paint-order:markers stroke fill"
         d="m 125.39107,145.48579 c 0,0 1.02985,0.35166 1.45686,0.65308 0.42702,0.30142 0.0502,0.5526 0.62796,0.5526 0.57773,0 1.73318,-0.87914 1.65782,-1.05497 -0.0754,-0.17583 -0.20095,-1.909 -0.20095,-1.909 z"
         id="path71" />
      <path
         style="opacity:1;fill:#b9f0a4;fill-opacity:1;stroke-width:2.117;stroke-linejoin:round;stroke-miterlimit:3.1;paint-order:markers stroke fill"
         d="m 125.91855,147.00545 c 0.0754,0.0126 1.20569,-0.17583 1.18057,-0.74099 -0.0251,-0.56516 -0.41445,-0.74099 -0.72844,-0.71587 -0.31397,0.0251 -0.77866,0.11931 -0.77866,0.11931 0,0 -0.13816,0.35794 0.0126,0.76611 0.15071,0.40817 0.31398,0.57144 0.31398,0.57144 z"
         id="path72" />
      <path
         style="opacity:1;fill:#b9f0a4;fill-opacity:1;stroke-width:2.117;stroke-linejoin:round;stroke-miterlimit:3.1;paint-order:markers stroke fill"
         d="m 132.42007,141.79808 c -0.0444,-0.0178 -0.42628,-0.2309 -0.87031,-0.0266 -0.44404,0.20426 -0.60389,0.20426 -0.71934,0.19538 -0.11545,-0.009 -1.26994,0.0177 -1.21665,0.6394 0.0533,0.62165 0.92359,0.97688 1.50083,0.83479 0.57725,-0.14209 1.58077,-0.5506 1.58077,-0.5506 0,0 0.11545,-0.86143 0.0355,-0.88807 -0.0799,-0.0266 -0.31082,-0.20426 -0.31082,-0.20426 z"
         id="path73" />
      <path
         style="opacity:1;fill:#4d7933;fill-opacity:1;stroke-width:2.117;stroke-linejoin:round;stroke-miterlimit:3.1;paint-order:markers stroke fill"
         d="m 129.03652,145.53685 c -0.24866,0.19538 -0.71045,0.58613 -1.3321,0.65718 -0.62165,0.071 -0.44404,-0.0355 -0.83479,0.12433 -0.39075,0.15985 -1.11897,0.92359 -1.11897,0.92359 0,0 0.17762,0.63941 0.53284,0.71046 0.35523,0.071 2.85959,-1.31435 2.85959,-1.31435 0,0 0.24866,-0.26642 0.21314,-0.33746 -0.0355,-0.0711 -0.31971,-0.76375 -0.31971,-0.76375 z"
         id="path75" />
      <path
         style="opacity:1;fill:#6e5f12;fill-opacity:1;stroke-width:2.117;stroke-linejoin:round;stroke-miterlimit:3.1;paint-order:markers stroke fill"
         d="m 133.10242,148.7763 c 0,0 -0.0377,0.42701 0.79123,-0.16327 0.8289,-0.59028 0.41445,-1.21824 0.67819,-0.87914 0.26375,0.3391 0.42702,1.15544 0.1256,1.53222 -0.30142,0.37678 -0.94194,0.0377 -1.0173,0 -0.0753,-0.0377 -0.57772,-0.48981 -0.57772,-0.48981 z"
         id="path76" />
    </g>
    <g
       inkscape:groupmode="layer"
       id="layer4"
       inkscape:label="O">
      <path
         style="opacity:1;fill:#111b09;fill-opacity:1;stroke-width:2.117;stroke-linejoin:round;stroke-miterlimit:3.1;paint-order:markers stroke fill"
         d="m 125.29059,147.14361 c 0,0 -2.58719,0.17582 -2.81326,1.55734 -0.22606,1.38151 -0.25118,1.95923 0.92938,2.58719 1.18057,0.62796 1.9718,0.72843 2.07227,0.6782 0.10048,-0.0502 -0.10047,-0.46469 0.37678,-0.28886 0.47725,0.17583 0.51492,0.25118 0.74099,0.25118 0.22607,0 2.16018,-1.00474 2.47416,-1.92156 0.31398,-0.91682 0.30142,-0.9545 -0.28886,-1.21824 -0.59028,-0.26374 -0.97962,-0.96706 -0.97962,-0.96706 0,0 1.58246,-0.66564 1.73317,-1.21824 0.15072,-0.55261 -0.35077,-0.76854 -0.17582,-1.25592 0.044,-0.12246 0.18838,-0.41445 0.26374,-0.50237 0.0491,-0.0573 0.35166,-1.11777 -0.18839,-1.2936 -0.54005,-0.17583 -1.55734,-0.16327 -2.97653,0.69076 -1.41919,0.85403 -1.49454,1.34383 -1.45687,1.9718 0.0377,0.62795 0.77867,2.27321 1.14289,2.33601 0.36422,0.0628 1.04241,-0.30143 0.69076,-0.70332 -0.35166,-0.4019 -1.2308,-1.53222 -1.06753,-1.89644 0.16327,-0.36421 0.66563,-0.85402 1.46942,-1.21824 0.80379,-0.36422 1.45687,-0.81635 1.50711,-0.36422 0.0502,0.45213 0.10047,1.49455 0.17582,1.64526 0.0754,0.15071 0.3391,0.23862 0.0251,0.38933 -0.31398,0.15071 -1.07104,0.70101 -1.35639,0.72844 -0.75443,0.0725 -1.49121,0.85937 -1.24336,0.8917 0,0 0.0628,0.17583 0.13815,0.18839 0.0754,0.0126 0.65308,-0.30142 0.75355,-0.0879 0.10048,0.21351 0.0126,0.28886 0.28886,0.72844 0.27631,0.43957 0.50237,0.16327 0.43958,0.60284 -0.0628,0.43957 -1.13033,1.64525 -1.34384,1.67037 -0.2135,0.0251 -3.61705,-1.25592 -3.64217,-1.7834 -0.0251,-0.52749 0.4019,-0.87915 1.08009,-1.20569 0.6782,-0.32654 1.6955,-0.43957 1.6955,-0.43957 z"
         id="path6"
         sodipodi:nodetypes="cssssssscssssssssssccsscsscsssscc" />
      <path
         style="opacity:1;fill:#111b09;fill-opacity:1;stroke-width:2.117;stroke-linejoin:round;stroke-miterlimit:3.1;paint-order:markers stroke fill"
         d="m 123.49497,144.86192 c -0.0444,0 -0.87919,0.0178 -1.13673,0.26642 -0.25754,0.24866 -0.5062,0.99464 -0.31971,1.04793 0.1865,0.0533 0.22202,-0.15986 0.91471,-0.30195 0.6927,-0.14209 1.12785,0.26642 1.34099,-0.0444 0.21314,-0.31083 0.0444,-0.66605 -0.2753,-0.81702 -0.31971,-0.15098 -0.52396,-0.15098 -0.52396,-0.15098 z"
         id="path7" />
      <path
         style="opacity:1;fill:#111b09;fill-opacity:1;stroke-width:2.117;stroke-linejoin:round;stroke-miterlimit:3.1;paint-order:markers stroke fill"
         d="m 129.44503,144.87968 c 0,0 0.10657,0.63941 0.37299,0.65717 0.26642,0.0178 0.28418,-0.0177 0.4618,0.0888 0.17761,0.10657 0.40851,0.42627 0.56836,0.15986 0.15986,-0.26643 0.53285,-0.39076 0.65718,-0.51509 0.12433,-0.12433 1.66957,-1.72285 1.77614,-2.94839 0.10656,-1.22553 -0.88808,-1.47419 -1.2433,-1.81166 -0.35523,-0.33747 -1.09233,-0.71934 -1.39427,-1.03016 -0.30195,-0.31083 -1.21666,-0.48844 -1.34099,-0.3197 -0.12433,0.16873 0.31971,0.92359 1.34987,1.47419 1.03016,0.5506 0.87031,0.15985 1.17225,0.58613 0.30194,0.42627 0.44403,0.79926 0.69269,1.0124 0.24866,0.21313 -0.53284,1.63404 -0.92359,1.91823 -0.39075,0.28418 -0.74598,0.63941 -0.97688,0.65717 -0.23089,0.0178 -0.95911,-0.58613 -1.03016,-0.42628 -0.071,0.15986 -0.14209,0.49732 -0.14209,0.49732 z"
         id="path8"
         sodipodi:nodetypes="cccsssssssssscccc" />
      <path
         style="opacity:1;fill:#111b09;fill-opacity:1;stroke-width:2.117;stroke-linejoin:round;stroke-miterlimit:3.1;paint-order:markers stroke fill"
         d="m 128.71682,143.56534 c 0,0 0.28418,-0.60389 0.0177,-1.03016 -0.26642,-0.42627 -0.44403,-0.85255 -0.17762,-1.20777 0.26643,-0.35523 1.42092,-1.61629 1.42092,-1.61629 l -0.31971,-0.2309 c 0,0 -1.97151,1.06568 -2.22017,2.22017 -0.24866,1.15449 0.35523,2.41555 0.35523,2.41555 z"
         id="path9" />
      <path
         style="opacity:1;fill:#111b09;fill-opacity:1;stroke-width:2.117;stroke-linejoin:round;stroke-miterlimit:3.1;paint-order:markers stroke fill"
         d="m 133.12027,146.15053 c -0.0754,0 -1.24865,-0.32564 -1.53752,0.91772 -0.28886,1.24336 0.26375,1.69549 0.92938,2.02203 0.66564,0.32654 1.92156,0.38934 1.6327,0.17583 -0.28886,-0.21351 -1.74573,-1.16801 -1.14289,-1.88388 0.60285,-0.71587 0.90427,0.69076 1.21825,0.37678 0.31398,-0.31399 0.60284,-0.54005 0.23862,-0.89171 -0.36422,-0.35166 -0.51624,-0.71677 -1.33854,-0.71677 z"
         id="path10"
         sodipodi:nodetypes="ssssssss" />
      <path
         style="opacity:1;fill:#111b09;fill-opacity:1;stroke-width:2.117;stroke-linejoin:round;stroke-miterlimit:3.1;paint-order:markers stroke fill"
         d="m 136.7697,152.49382 c 0,0 -1.77084,-0.43957 -2.36112,0.46469 -0.59029,0.90427 -0.59029,1.79597 0.59028,2.17275 1.18056,0.37677 2.44904,-0.55261 1.8462,-0.70332 -0.60284,-0.15071 -2.36113,-0.0502 -2.17274,-0.79123 0.18839,-0.74099 1.92155,-0.81635 2.09738,-0.6782 0.17583,0.13816 0.16328,0.31399 0.30142,0.18839 0.13816,-0.12559 0.16327,-0.47725 -0.0754,-0.56516 -0.23862,-0.0879 -0.22607,-0.0879 -0.22607,-0.0879 z"
         id="path11" />
      <path
         style="opacity:1;fill:#111b09;fill-opacity:1;stroke-width:2.117;stroke-linejoin:round;stroke-miterlimit:3.1;paint-order:markers stroke fill"
         d="m 123.00482,148.24882 c 0,0 -0.61106,-0.28754 -2.06749,-0.0833 -1.45644,0.20426 -1.02129,0.81703 -1.28771,0.77262 -0.26642,-0.0444 -0.37298,0.0444 -0.35522,-0.13321 0.0178,-0.17761 -0.12433,-1.0124 0.25754,-1.21665 0.38187,-0.20426 0.91471,-0.0799 0.94135,-0.2309 0.0266,-0.15097 0.1865,-0.43516 -0.2753,-0.76374 -0.4618,-0.32859 -1.4742,-0.95024 -0.0888,-1.63405 1.38539,-0.68382 1.71398,-0.22202 1.73174,-0.54172 0.0178,-0.31971 -0.98576,-0.6927 -2.0692,-0.34635 -1.08345,0.34635 -1.7939,0.71046 -1.83831,1.42091 -0.0444,0.71046 0.59501,1.31434 0.49732,1.42979 -0.0977,0.11545 -0.41739,0.84367 -0.42627,1.33211 -0.009,0.48844 0.39075,0.5506 0.42627,0.74598 0.0355,0.19537 0.0799,0.19537 0.0355,0.20425 -0.0444,0.009 -0.57724,0.0355 -1.19889,0.81703 -0.62165,0.7815 -0.52396,1.1012 -0.0178,1.58076 0.5062,0.47956 0.86142,1.26994 2.21129,1.46531 1.34986,0.19538 2.39779,0.17762 2.82406,0.26643 0.42627,0.0888 0.95023,-0.009 -0.0444,-0.63053 -0.99464,-0.62165 -0.74598,-0.63941 -1.20778,-0.5062 -0.46179,0.13321 -0.23978,0.22201 -1.36762,-0.0711 -1.12785,-0.29306 -2.87735,-0.70157 -1.73174,-1.44755 1.14561,-0.74598 1.60741,-0.71046 1.65181,-0.63941 0.0444,0.071 -0.53284,0.40851 0.81702,0.76374 1.34987,0.35522 2.43332,0.32858 1.83831,-0.0266 -0.59501,-0.35523 -1.58965,-0.968 -1.96264,-1.07457 -0.37299,-0.10657 -0.56836,-0.63941 -0.16873,-0.57724 0.39963,0.0622 0.52396,0.20425 0.65717,0.15097 0.13321,-0.0533 -0.29306,-0.22202 0.30194,-0.21314 0.59501,0.009 1.11009,-0.071 1.11897,0.0977 0.009,0.16873 -0.33746,0.2753 -0.13321,0.66605 0.20426,0.39075 0.78151,0.47068 0.78151,0.47068 z"
         id="path12" />
      <path
         style="opacity:1;fill:#111b09;fill-opacity:1;stroke-width:2.117;stroke-linejoin:round;stroke-miterlimit:3.1;paint-order:markers stroke fill"
         d="m 134.48927,139.42694 c 0,0 -0.4618,-0.67494 -1.29658,-1.10121 -0.83479,-0.42627 -1.0124,-0.72822 -1.91823,-0.60389 -0.90583,0.12433 -1.31435,0.72822 -1.68734,0.7815 -0.37299,0.0533 -0.30194,0.071 -0.44403,-0.17761 -0.14209,-0.24866 0.19538,-0.30194 -0.76374,-0.63941 -0.95912,-0.33747 -1.40315,-0.12433 -1.17225,0.0355 0.23089,0.15985 0.51508,0.94136 0.72821,1.04792 0.21314,0.10657 0.53285,0.21314 0.37299,0.37299 -0.15985,0.15985 -0.47956,0.15985 -0.71045,0.17762 -0.2309,0.0178 -0.40851,0.15985 -0.71046,0.15985 -0.30194,0 -1.22554,-0.42627 -1.77614,0.0355 -0.5506,0.4618 -0.65717,1.88271 -0.53284,1.936 0.12433,0.0533 -0.0355,0.24865 -0.0355,0.24865 0,0 0.88807,0.28419 0.74598,0.47956 -0.1421,0.19538 -0.26642,0.65717 -0.49732,0.5506 -0.2309,-0.10656 0.0533,-0.12433 -0.4618,-0.35522 -0.51508,-0.2309 -1.52748,-0.24866 -1.29658,-0.12433 0.2309,0.12433 0.49732,0.24866 0.65717,0.7815 0.15985,0.53284 0.76374,1.04792 0.35523,1.06568 -0.40851,0.0178 -1.06569,-0.2309 -1.38539,-0.85255 -0.31971,-0.62164 -0.15985,-1.15449 -0.49732,-1.1012 -0.33747,0.0533 -1.43867,0.24866 -1.49195,0.69269 -0.0533,0.44404 0.33746,1.17226 0.33746,1.17226 0,0 -0.85255,0.28418 -0.94135,0.15985 -0.0888,-0.12433 -0.99464,-1.75838 0.15985,-2.36227 1.15449,-0.60389 2.04256,-0.24866 2.22017,-0.51508 0.17762,-0.26642 0.51508,-0.33747 0.78151,-0.42627 0.26642,-0.0888 0.37298,0.0178 0.37298,-0.0888 0,-0.10657 -0.65717,-1.2433 0.71046,-2.09584 1.36763,-0.85255 2.11361,-0.2309 2.07808,-0.6927 -0.0355,-0.46179 -0.51508,-1.45643 0.35523,-1.74061 0.87031,-0.28418 1.22554,0.42627 1.58077,0.51508 0.35522,0.0888 0.67493,0.5506 1.06568,0.44403 0.39075,-0.10657 2.09584,-0.67493 2.93063,-0.62165 0.83478,0.0533 1.22553,0.83479 1.63405,0.97688 0.40851,0.14209 0.65717,-0.0711 1.01239,0.40851 0.35523,0.47956 0.6927,0.6927 0.40852,1.03016 -0.28418,0.33747 -0.88807,0.42628 -0.88807,0.42628 z"
         id="path13" />
      <path
         style="opacity:1;fill:#111b09;fill-opacity:1;stroke-width:2.117;stroke-linejoin:round;stroke-miterlimit:3.1;paint-order:markers stroke fill"
         d="m 134.48393,137.59861 c 0,0 0.0754,0.97962 -0.47725,0.47725 -0.55261,-0.50237 -1.18056,-1.70805 -0.10047,-1.98435 1.08009,-0.2763 1.93411,-0.4019 2.36113,0.0251 0.42701,0.42701 0.8289,0.80379 0.77867,1.33127 -0.0502,0.52749 -0.27631,1.48199 -0.27631,1.48199 0,0 0.42702,0.12559 0.75356,0.50237 0.32654,0.37677 0.77867,1.58246 0.45213,1.68293 -0.32654,0.10047 -0.32654,0.22607 -0.47725,0.15071 -0.15071,-0.0754 0.40189,-0.50237 -0.52749,-0.97962 -0.92938,-0.47725 -1.28104,0.6782 -2.05971,0.37678 -0.77867,-0.30142 -1.10521,-0.77867 -0.75355,-1.05497 0.35166,-0.27631 1.08009,-0.57773 1.08009,-0.57773 0,0 0.2763,0.17583 0.75355,-0.80379 0.47725,-0.97961 -0.15071,-0.92938 -0.5526,-0.90426 -0.4019,0.0251 -0.9545,0.2763 -0.9545,0.2763 z"
         id="path14" />
      <path
         id="path15"
         style="opacity:1;fill:#111b09;fill-opacity:1;stroke-width:2.117;stroke-linejoin:round;stroke-miterlimit:3.1;paint-order:markers stroke fill"
         d="m 143.47078,134.87404 c -0.35453,-0.0417 -0.49874,-0.0151 -0.65193,0.0214 -0.81703,0.19538 -1.26386,1.42193 -1.67831,1.76103 -0.11304,0.15071 -0.32654,-0.26342 -1.78341,-0.26342 -1.45682,0 -1.15545,0.66547 -1.40663,0.8413 -0.25119,0.17583 -0.25166,-0.11271 -0.66611,-0.18811 -0.41443,-0.0754 -0.38912,0.1757 -0.38912,0.1757 0,0 -0.22133,0.42907 -0.25683,0.60668 -0.0355,0.17763 0.0358,0.0177 0.55087,0.0532 0.51509,0.0355 0.44373,0.15991 0.60358,0.42633 0.15985,0.26642 0.3728,0.39056 0.49713,0.49713 0.12433,0.10653 2.3e-4,2.1e-4 -0.21291,0.12454 -0.21314,0.12433 -0.60387,0.72792 -0.62167,0.79892 -0.0178,0.0711 -0.0177,-0.39045 -0.19534,-0.40825 -0.17767,-0.0178 -0.0713,0.3728 -0.0713,0.49713 0,0.12433 0.78181,-0.0352 1.31465,-0.12402 0.36691,-0.50374 0.6926,-0.42703 1.19011,-0.0713 0.49716,0.35545 -0.65733,0.91468 -0.65733,0.91468 0,0 0.24883,0.25741 1.13689,0.68368 0.88806,0.42626 1.65166,-0.19527 1.74046,-0.24857 0.0888,-0.0533 -0.16004,-0.55059 -0.12454,-0.817 0.0355,-0.26643 0.51544,-1.54492 1.26142,-1.42059 0.74598,0.12433 0.56829,0.49692 0.87023,0.85215 0.30194,0.35523 -0.88834,-0.0707 -1.50999,0.44441 -0.62164,0.51508 -0.19541,1.01243 -0.14211,1.10123 0.0533,0.0888 -0.47948,-0.0533 -0.53278,0.0532 -0.0533,0.10656 1.11931,0.31936 1.11931,0.31936 0,0 -0.018,-0.3729 0.21291,-0.72813 0.2309,-0.35523 0.39066,-0.15976 1.20768,-0.24856 0.81703,-0.0888 0.28443,0.85238 0.40876,1.1188 0.12433,0.26642 0.31936,-0.14211 0.31936,-0.14211 0,0 0.0534,-0.81664 0.23099,-0.99426 0.17761,-0.17761 0.9413,-0.92367 1.97146,-1.048 1.03016,-0.12433 1.45673,0.26651 1.7942,0.71055 0.33744,0.44403 0.30179,1.91797 0.30179,2.32648 0,0.40849 0.40872,0.0357 0.6041,0.0357 0.19539,0 0.26644,-0.79924 0.14211,-1.29656 -0.12433,-0.49732 -0.16005,-0.72852 -1.08365,-1.7942 -0.47938,-0.55313 -0.70247,-0.70159 -1.32089,-0.72471 0.11734,-0.23402 0.28057,-0.94056 0.20875,-1.38587 -0.0888,-0.5506 -1.10091,-1.59633 -1.52718,-1.98709 -0.42628,-0.39075 -0.80639,0.11933 -1.19714,0.10153 -0.21674,0.16947 -10e-4,-0.37977 -1.65759,-0.57437 z m -0.0586,1.26683 c 0.2864,-0.004 0.59737,0.0799 0.93483,0.19534 0.14868,0.0509 0.0605,0.45888 0.072,0.55753 0.0869,0.0242 0.12898,0.31955 0.21847,0.32643 0.13205,0.0102 0.50731,-0.59253 0.66914,-0.5863 0.0194,-0.42025 0.23337,-0.34839 0.97617,0.21755 0.65273,0.49733 0.29906,1.56631 0.21239,1.87327 -0.28048,0.0328 -0.51893,0.0823 -0.67438,0.11628 -0.56837,0.12433 -1.27856,0.83488 -1.36736,0.90588 -0.0888,0.0711 -2.3e-4,-0.31992 0.0176,-0.7462 0.007,-0.15964 -0.0319,-0.26695 -0.0971,-0.35089 -0.45443,0.1366 -0.79708,0.33411 -0.77876,-0.4625 7.7e-4,-0.0335 0.002,-0.0665 0.004,-0.0992 -0.32204,-0.17033 -0.80662,-0.28568 -1.52549,-0.0289 -0.99463,0.35523 -0.76366,2.611 -0.87023,2.5399 -0.10657,-0.071 -0.69281,-0.21284 -0.85266,-0.26614 -0.15985,-0.0533 0.16019,-0.60407 0.16019,-0.94154 0,-0.33746 -0.42651,-0.67473 -0.74621,-0.83457 -0.31971,-0.1599 -0.62137,-2.9e-4 -0.8878,-0.0181 -0.26646,-0.0178 -2.8e-4,-0.33733 -0.0181,-0.4439 -0.0178,-0.10657 0.21301,-0.47939 0.92345,-0.63924 0.71046,-0.15985 0.99482,0.0532 1.279,0.24856 0.28419,0.19538 -0.46157,0.62188 -0.69247,0.74621 -0.2309,0.12433 0.10652,0.21301 0.53279,0.4439 0.42628,0.2309 0.49747,-0.37328 0.65732,-0.69298 0.15988,-0.31971 -0.0178,-0.28391 0.19534,-0.40824 0.21314,-0.12433 0.39067,-0.8351 0.87023,-1.31465 0.23978,-0.23978 0.50166,-0.33301 0.78806,-0.33745 z"
         sodipodi:nodetypes="sccscccccscsccsccccccssccscsssccscssssccccsscscccccccscsccscccsssscssscsc" />
      <path
         id="path16"
         style="opacity:1;fill:#111b09;fill-opacity:1;stroke-width:2.117;stroke-linejoin:round;stroke-miterlimit:3.1;paint-order:markers stroke fill"
         d="m 138.76001,140.42915 c -0.0562,0.004 -0.10121,0.0124 -0.1323,0.0279 -0.24866,0.12433 -0.33759,0.19541 -0.51521,0.28422 -0.17761,0.0888 -2.30911,0.51533 -2.43344,1.36788 -0.12433,0.85249 0.37302,2.2022 0.76377,2.7528 0.39075,0.5506 0.63936,0.79926 1.01235,0.95911 0.37299,0.15985 0.77152,0.19224 0.77152,0.19224 0,0 -0.6533,0.42707 0.10026,1.73323 0.75355,1.30615 0.67829,1.7081 1.48208,1.73322 0.80379,0.0251 1.75803,-0.32659 1.75803,-0.32659 0,0 -0.32602,-0.95463 0.0506,-0.52762 0.37677,0.42701 0.87878,1.60775 1.80816,1.6831 0.92938,0.0754 2.56229,-0.653 2.83859,-1.20561 0.2763,-0.5526 1.56342,-0.0402 1.92753,-0.28008 0.36411,-0.23978 0.16023,-0.81725 -0.27492,-0.98599 -0.43515,-0.16873 -1.01273,-0.0799 -0.9772,-0.19534 0.0355,-0.11545 0.60585,-0.90009 0.0532,-2.35696 -0.55255,-1.45687 -2.13525,-1.55699 -2.26084,-1.68258 -0.12559,-0.12559 -0.0127,-0.21384 0.1757,-0.26407 0.18839,-0.0502 0.57757,0.0501 0.30127,-0.36432 -0.27631,-0.41445 -0.3641,-0.2008 -0.46457,-0.30127 -0.10048,-0.10047 -0.26351,-0.87903 -0.92914,-1.16789 -0.66564,-0.28886 -1.3441,-0.65319 -1.3441,-0.65319 0,0 -1.58808,-0.0746 -2.01435,-0.14573 -0.37299,-0.0621 -1.30367,-0.30098 -1.69705,-0.27647 z m 1.60817,0.863 c 1.34986,0 3.23287,1.34979 3.23287,1.34979 0,0 -0.10691,0.14209 0.0351,0.47956 0.14209,0.33746 0.2309,0.0176 0.47956,0.15968 0.24869,0.14209 0.0181,0.40824 0.0181,0.40824 -6.3e-4,-9.3e-4 -0.0365,-0.0528 -0.12454,-0.0176 -0.0888,0.0355 -0.39089,-0.10655 -1.47433,0.14211 -1.08345,0.24866 -1.91823,1.4211 -1.91823,1.4211 0,0 -1.68731,0.23075 -2.73523,-0.17776 -1.04794,-0.40851 -1.47389,-2.0961 -1.08314,-2.80655 0.39075,-0.71046 2.21995,-0.9586 3.56981,-0.9586 z m 3.75015,3.20756 c 0.0985,-0.003 0.16612,0.003 0.19276,0.007 h 5.1e-4 c 0,0 1.29624,0.15961 1.75804,0.55036 0.46174,0.39075 0.88832,0.90604 -0.0708,2.52232 -0.95911,1.61629 -1.03039,1.42049 -2.66444,1.18959 -1.63404,-0.2309 -1.22539,-1.27862 -1.40301,-1.45624 -0.17761,-0.17761 -0.30188,-0.0178 -0.39068,-0.42633 -0.0888,-0.40851 0.49735,-0.8523 0.56845,-0.8878 0.071,-0.0355 -0.19582,-0.44416 0.56792,-0.99477 0.5728,-0.41297 1.14569,-0.49603 1.44125,-0.50436 z m -3.46283,1.53789 c 0.0831,-0.009 -0.0809,0.14521 -0.11834,0.32504 -0.0444,0.21314 0.0619,0.29314 0.21291,0.56844 0.15094,0.27531 -0.27508,0.0713 -0.93225,-0.26613 -0.65717,-0.33747 -0.56844,-0.38189 -0.56844,-0.38189 v -5.2e-4 c 0,0 0.30174,-0.0264 0.5948,-0.0264 0.29306,0 0.5154,-0.10654 0.73742,-0.19534 0.0347,-0.0139 0.0585,-0.0215 0.0739,-0.0232 z m -1.60766,1.1436 c 0.40153,0.199 1.30876,0.37786 1.7291,0.36277 0.35367,-0.0127 0.12406,0.83459 0.16846,0.97668 0.0444,0.1421 -0.54163,0.47945 -1.16323,-0.0444 -0.4146,-0.34944 -0.63305,-0.93791 -0.73433,-1.29501 z" />
      <path
         style="opacity:1;fill:#111b09;fill-opacity:1;stroke-width:2.117;stroke-linejoin:round;stroke-miterlimit:3.1;paint-order:markers stroke fill"
         d="m 147.8636,151.73558 c 0,0 -0.40851,0.90583 0.26642,1.04792 0.67493,0.1421 2.14913,-2.14912 2.53988,-2.07808 0.39075,0.071 1.11897,0.28418 1.06568,0.56837 -0.0533,0.28418 -0.14209,0.15985 -0.0533,0.28418 0.0888,0.12433 0.53284,0.35522 0.51508,0.42627 -0.0178,0.0711 -0.63941,0.81703 -1.43867,1.03016 -0.79927,0.21314 -1.40316,0.30195 -1.61629,0.26642 -0.21314,-0.0355 -0.58613,-0.99464 -0.63941,-0.92359 -0.0533,0.0711 -0.47956,0.2309 -0.47956,0.2309 0,0 -0.15985,0.88807 0.33747,1.20777 0.49732,0.31971 0.67493,0.35523 1.3321,0.33747 0.65717,-0.0178 2.94839,-1.52748 3.07272,-2.09585 0.12433,-0.56836 -0.33746,-1.01239 -0.76374,-1.22553 -0.42627,-0.21314 -0.72821,-0.76374 -1.06568,-0.69269 -0.33747,0.071 -0.85255,0.3197 -1.43867,0.79926 -0.58613,0.47955 -1.63405,0.81702 -1.63405,0.81702 z"
         id="path17" />
      <path
         style="opacity:1;fill:#111b09;fill-opacity:1;stroke-width:2.117;stroke-linejoin:round;stroke-miterlimit:3.1;paint-order:markers stroke fill"
         d="m 145.38532,152.23008 c 0,0 -0.6782,-0.62796 -1.34384,-0.71587 -0.66564,-0.0879 -1.92155,0.41445 -1.92155,0.9545 0,0.54004 0.38933,0.69075 0.38933,0.69075 0,0 0.47725,-0.40189 0.70331,-0.50237 0.22607,-0.10047 1.62014,0.35166 1.58246,0.61541 -0.0377,0.26374 -0.65307,0.97961 -0.90426,1.00473 -0.25118,0.0251 -0.36421,0.0628 -0.36421,0.0628 0,0 -0.0628,0.30142 0.22606,0.40189 0.28886,0.10048 0.45213,-0.0628 0.45213,-0.0628 0,0 1.45687,-0.47725 1.59502,-1.19313 0.13815,-0.71587 -0.41445,-1.25592 -0.41445,-1.25592 z"
         id="path18" />
      <path
         style="opacity:1;fill:#111b09;fill-opacity:1;stroke-width:2.117;stroke-linejoin:round;stroke-miterlimit:3.1;paint-order:markers stroke fill"
         d="m 144.16923,142.14443 0.63941,-0.79926 c 0,0 1.04792,-0.42628 1.90047,-0.0888 0.85254,0.33746 1.563,1.27882 1.563,1.27882 0,0 0.0711,-0.14209 0.35523,0.0178 0.28418,0.15985 0.39075,0.17762 0.39075,0.17762 0,0 0.53284,-0.99464 1.29658,-0.9236 0.76374,0.071 1.3321,0.94136 1.36763,1.2433 0.0355,0.30195 -0.0533,0.65717 -0.0533,0.65717 0,0 -1.04792,0.81703 -1.03016,0.65717 0.0178,-0.15985 0.85255,-1.36762 0.40851,-1.43867 -0.44403,-0.071 -0.19537,-0.35522 -0.60388,-0.37299 -0.40852,-0.0178 -1.11897,0.58613 -1.11897,0.58613 0,0 0.17761,-0.21314 0.65717,0.14209 0.47956,0.35523 0.81703,0.87031 0.81703,0.87031 0,0 -0.42628,0.71045 -0.51508,0.63941 -0.0888,-0.0711 -0.47956,-0.83479 -1.03017,-1.04792 -0.5506,-0.21314 -1.24329,-0.51508 -1.15449,-0.31971 0.0888,0.19538 0.37299,0.40851 0.0711,0.42627 -0.30195,0.0178 -0.83479,-0.37298 -0.90583,-0.60388 -0.071,-0.2309 0.071,-0.47956 -0.26642,-0.56837 -0.33747,-0.0888 -0.60389,-0.67493 -1.20778,-0.60389 -0.60389,0.071 -1.45643,0.60389 -1.45643,0.60389 z"
         id="path19" />
      <path
         style="opacity:1;fill:#111b09;fill-opacity:1;stroke-width:2.117;stroke-linejoin:round;stroke-miterlimit:3.1;paint-order:markers stroke fill"
         d="m 151.16255,143.88449 c -0.10675,0.0628 -0.52749,0.39562 -0.52749,0.39562 0,0 -0.81771,0.22658 -1.06637,0.75943 -0.24866,0.53284 0.21314,1.27882 0.21314,1.27882 0,0 -0.28418,-0.17762 -0.81703,0.0177 -0.53284,0.19537 -1.03016,1.03016 -0.69269,1.10121 0.33746,0.071 0.62165,-0.28419 1.42091,-0.19538 0.79926,0.0888 0.62165,0.3197 0.62165,0.3197 0,0 0,0.53285 -0.15985,0.67494 -0.15986,0.14209 -0.56837,0.30194 -0.56837,0.30194 0,0 0.19538,0.24866 0.63941,0.31971 0.44404,0.071 0.4618,0.24866 0.7815,0.26642 0.31971,0.0178 0.60389,-0.0355 0.62165,-0.19538 0.0178,-0.15985 -0.0533,-0.40851 -0.35522,-0.5506 -0.30195,-0.14209 -0.60389,-0.19538 -0.56837,-0.33747 0.0355,-0.14209 0.71046,-0.46179 0.40851,-1.0124 -0.30194,-0.5506 -0.49732,-0.28418 -0.44403,-0.76374 0.0533,-0.47955 -0.24866,-0.65717 0.15985,-1.19001 0.40851,-0.53284 0.7815,-0.90583 1.17225,-0.58613 0.39075,0.31971 0.39075,1.10121 0.4618,1.77614 0.071,0.67494 -0.49732,1.03017 -0.0178,1.50972 0.47956,0.47956 0.53285,-0.071 0.53285,-0.21314 0,-0.14208 1.08344,-0.60388 0.49732,-2.27345 -0.64535,-1.9782 -1.48436,-1.63246 -2.31362,-1.40365 z"
         id="path20"
         sodipodi:nodetypes="ccscccscsccscsssssscsscc" />
      <path
         style="opacity:1;fill:#111b09;fill-opacity:1;stroke-width:2.117;stroke-linejoin:round;stroke-miterlimit:3.1;paint-order:markers stroke fill"
         d="m 120.91999,152.94596 c 0,0 -0.42701,1.28103 1.33128,2.21041 1.75829,0.92938 4.57155,-0.47724 4.57155,-0.47724 l -0.6782,-1.00474 c 0,0 -0.0251,0.90426 -2.31089,0.85402 -2.28578,-0.0502 -1.95924,-1.7834 -1.95924,-1.7834 z"
         id="path21" />
      <path
         style="opacity:1;fill:#111b09;fill-opacity:1;stroke-width:2.117;stroke-linejoin:round;stroke-miterlimit:3.1;paint-order:markers stroke fill"
         d="m 126.29533,151.26302 c -0.2763,0.55261 -0.50237,0.99218 -0.55261,1.05498 -0.0502,0.0628 -0.11303,-0.0628 -0.10047,0.45213 0.0126,0.51492 -0.0879,1.55734 0.17583,1.85876 0.26374,0.30142 1.69096,0.97868 1.69096,0.97868 0,0 0.6927,0.69269 1.563,-0.56837 0.87031,-1.26106 0.95912,-1.91823 0.42628,-2.39779 -0.53285,-0.47956 -1.33211,-0.44403 -1.45644,-0.30194 -0.12433,0.14209 -0.30224,-0.38569 -0.40271,0.004 -0.10048,0.38933 0.0126,0.75355 0.0126,0.75355 0,0 0.11304,-0.43957 0.38934,-0.36422 0.2763,0.0754 0.79123,0.48981 0.81635,0.86659 0.0251,0.37678 -0.31399,1.21824 -1.15545,0.85402 -0.84147,-0.36421 -1.45687,-0.60284 -1.39407,-1.75828 0.0628,-1.15545 0.43957,-1.39408 0.43957,-1.39408 z"
         id="path22" />
      <path
         style="opacity:1;fill:#111b09;fill-opacity:1;stroke-width:2.117;stroke-linejoin:round;stroke-miterlimit:3.1;paint-order:markers stroke fill"
         d="m 151.53932,153.02131 c 0,0 0.61541,0.0879 0.43958,0.43957 -0.17583,0.35166 -0.23863,0.3391 -0.0126,0.36422 0.22607,0.0251 0.40189,0.0879 0.45213,0.11303 0.0502,0.0251 0.30142,-0.2135 0.26375,-0.35166 -0.0377,-0.13815 0.35165,-0.94194 0.0126,-1.25591 -0.3391,-0.31399 -1.15545,0.69075 -1.15545,0.69075 z"
         id="path23" />
      <path
         style="opacity:1;fill:#111b09;fill-opacity:1;stroke-width:2.117;stroke-linejoin:round;stroke-miterlimit:3.1;paint-order:markers stroke fill"
         d="m 152.43103,153.34785 c 0,0 0.74099,0.65308 1.65781,0.0251 0.91682,-0.62796 0.99218,-1.64526 0.35166,-1.909 -0.64052,-0.26374 -0.97962,-0.22606 -0.97962,-0.22606 0,0 1.28104,-0.30143 0.97962,-1.85877 -0.30142,-1.55734 -1.11777,-1.74573 -1.11777,-1.79596 0,-0.0502 0.0502,-1.21825 0,-1.20569 -0.0502,0.0126 -0.85402,1.02986 -0.85402,1.02986 0,0 -0.32654,-0.0377 -0.32654,0.66564 0,0.70331 0.66564,0.87914 1.05497,1.06753 0.38933,0.18838 0.50237,0.79123 -0.0251,1.10521 -0.52749,0.31398 -1.15544,0.81635 -1.15544,0.81635 0,0 0.57772,0.59028 0.64051,0.6154 0.0628,0.0251 1.00474,-0.27631 1.3564,0.28886 0.35166,0.56516 -0.10047,0.92938 -0.57772,1.06753 -0.47725,0.13815 -1.16801,0.0126 -1.16801,0.0126 z"
         id="path24" />
      <path
         style="opacity:1;fill:#111b09;fill-opacity:1;stroke-width:2.117;stroke-linejoin:round;stroke-miterlimit:3.1;paint-order:markers stroke fill"
         d="m 149.60421,153.7071 c 0.14209,0.30194 1.13673,0.67493 0.4618,1.7939 -0.67493,1.11896 -1.65181,0.19537 -1.65181,0.19537 0,0 -1.45643,1.06569 0.0355,1.29658 1.49196,0.2309 2.68197,0.35523 2.55764,-1.81166 -0.12433,-2.16689 -1.03016,-1.63405 -1.03016,-1.63405 z"
         id="path25" />
      <path
         style="opacity:1;fill:#111b09;fill-opacity:1;stroke-width:2.117;stroke-linejoin:round;stroke-miterlimit:3.1;paint-order:markers stroke fill"
         d="m 150.56333,156.14041 c 0,0 0.15985,0.83478 1.15449,0.62165 0.99464,-0.21314 1.10121,-1.15449 1.0124,-1.31435 -0.0888,-0.15985 -0.12433,-0.35522 -0.12433,-0.35522 0,0 1.11897,0.5506 1.63405,-0.53285 0.51508,-1.08344 0.21313,-1.88271 0.21313,-1.88271 l -1.04792,0.71046 c 0,0 0.7815,0.21314 0.0178,0.51508 -0.76374,0.30194 -1.75838,0.62165 -1.52749,1.04792 0.2309,0.42628 0.85255,0.83479 0.12433,1.10121 -0.72821,0.26642 -1.36762,-0.14209 -1.36762,-0.14209 z"
         id="path26" />
      <path
         style="opacity:1;fill:#111b09;fill-opacity:1;stroke-width:2.117;stroke-linejoin:round;stroke-miterlimit:3.1;paint-order:markers stroke fill"
         d="m 143.60191,155.53315 c 0,0 0.77867,1.11777 0.80379,1.39407 0.0251,0.2763 -0.22607,1.05498 -0.76611,1.19313 -0.54005,0.13815 -1.06753,-0.0879 -1.0173,-0.10048 0.0502,-0.0126 0.60284,-1.35639 -0.13815,-1.7834 -0.74099,-0.42702 -2.43648,-0.28886 -2.4616,-0.16327 -0.0251,0.12559 0.0628,0.23862 -0.10048,0.2763 -0.16327,0.0377 -0.45213,-0.0126 -0.37677,0.0754 0.0754,0.0879 0.0502,0.0502 0.67819,0.32653 0.62796,0.27631 1.30616,0.79123 1.20569,1.11777 -0.10048,0.32654 -1.20297,1.16635 -2.21537,0.95322 -1.0124,-0.21314 -2.41555,-2.73526 -2.5754,-2.43331 -0.15985,0.30194 -0.28418,2.25569 1.22553,2.94839 1.50972,0.69269 1.50972,1.36762 2.85959,0.83478 1.34986,-0.53284 1.72285,-1.27882 1.72285,-1.27882 0,0 0.0178,1.13673 1.72286,0.40851 1.70509,-0.72821 1.563,-2.06032 1.563,-2.06032 0,0 0.76374,0.35523 1.63405,0.0178 0.87031,-0.33747 1.0124,-1.11897 1.0124,-1.11897 0,0 0.39075,-0.0355 -0.0711,-1.03016 -0.46179,-0.99464 -0.5506,-1.20778 -1.13673,-1.04792 -0.58612,0.15985 -0.83478,0.24865 -0.69269,0.60388 0.14209,0.35523 0.92359,-0.12433 1.04792,0.67494 0.12433,0.79926 -1.04792,1.70509 -2.04256,0.95911 -0.99464,-0.74598 -0.99464,-0.39075 -1.06568,-0.60388 -0.0711,-0.21314 -0.0178,-0.60389 -0.39075,-0.53285 -0.37299,0.071 -0.42523,0.36962 -0.42523,0.36962 z"
         id="path27" />
      <path
         style="opacity:1;fill:#111b09;fill-opacity:1;stroke-width:2.117;stroke-linejoin:round;stroke-miterlimit:3.1;paint-order:markers stroke fill"
         d="m 128.17921,154.85496 c 0,0 -1.18056,0.37677 -0.90426,1.25591 0.2763,0.87915 2.03459,1.10521 2.03459,1.10521 0,0 0.12559,1.18057 1.80852,1.45687 1.68294,0.2763 2.18531,-0.42701 2.18531,-0.42701 0,0 -0.42702,1.15545 1.70804,1.73317 2.13507,0.57772 2.26066,-2.05971 2.26066,-2.05971 l -0.37677,-0.57772 c 0,0 0.0502,0.92938 -1.23081,1.25592 -1.28103,0.32654 -1.73317,-1.13033 -1.73317,-1.13033 0,0 0.97962,-0.55261 0.6782,-0.6782 -0.30142,-0.12559 -0.62796,-0.20095 -0.72843,-0.15071 -0.10048,0.0502 -0.85403,1.2308 -2.48672,1.00474 -1.6327,-0.22607 -1.93412,-1.13033 -0.62796,-1.50711 1.30615,-0.37677 1.46716,0.25308 1.46716,0.25308 0,0 -0.2309,0.56836 0.24866,0.40851 0.47956,-0.15985 0.90583,-0.56837 0.30194,-1.06569 -0.60388,-0.49732 -1.3321,-0.47955 -1.3321,-0.47955 0,0 0.14209,-1.49196 -0.88807,-1.38539 -1.03016,0.10657 -1.2433,0.24866 -1.2433,0.24866 l -0.21313,0.60388 c 0,0 0.39075,0.10657 0.85254,0.30195 0.4618,0.19537 0.7815,0.15985 0.56837,0.33746 -0.21314,0.17762 -0.63941,0.31971 -0.87031,0.53285 -0.2309,0.21313 -0.10657,0.21313 -0.21314,0.26642 -0.10656,0.0533 -0.81702,0.63941 -1.31434,-0.0888 -0.49732,-0.72822 0.19538,-1.06568 0.19538,-1.06568 l -0.071,-0.12433 z"
         id="path28" />
    </g>
  </g>
</svg>
