<?xml version="1.0" encoding="UTF-8" standalone="no"?>
<!-- Created with Inkscape (http://www.inkscape.org/) -->

<svg
   width="155.83226"
   height="107.84831"
   viewBox="0 0 41.230618 28.534866"
   version="1.1"
   id="svg1"
   xml:space="preserve"
   inkscape:version="1.3 (0e150ed6c4, 2023-07-21)"
   sodipodi:docname="kerak_telor.svg"
   xmlns:inkscape="http://www.inkscape.org/namespaces/inkscape"
   xmlns:sodipodi="http://sodipodi.sourceforge.net/DTD/sodipodi-0.dtd"
   xmlns="http://www.w3.org/2000/svg"
   xmlns:svg="http://www.w3.org/2000/svg"><sodipodi:namedview
     id="namedview1"
     pagecolor="#cf8e8e"
     bordercolor="#000000"
     borderopacity="0.25"
     inkscape:showpageshadow="2"
     inkscape:pageopacity="0.0"
     inkscape:pagecheckerboard="0"
     inkscape:deskcolor="#d1d1d1"
     inkscape:document-units="px"
     inkscape:zoom="1.3166807"
     inkscape:cx="63.037303"
     inkscape:cy="136.32766"
     inkscape:window-width="1920"
     inkscape:window-height="974"
     inkscape:window-x="-11"
     inkscape:window-y="-11"
     inkscape:window-maximized="1"
     inkscape:current-layer="layer1" /><defs
     id="defs1"><pattern
       id="EMFhbasepattern"
       patternUnits="userSpaceOnUse"
       width="6"
       height="6"
       x="0"
       y="0" /><pattern
       id="EMFhbasepattern-8"
       patternUnits="userSpaceOnUse"
       width="6"
       height="6"
       x="0"
       y="0" /></defs><g
     inkscape:label="Art"
     inkscape:groupmode="layer"
     id="layer1"
     transform="translate(-116.02625,-55.825294)"><g
       inkscape:groupmode="layer"
       id="layer3"
       inkscape:label="Plate"
       style="display:inline"><path
         style="opacity:1;fill:#fafaf7;fill-opacity:1;stroke-width:2.117;stroke-linejoin:round;stroke-miterlimit:3.1;paint-order:markers stroke fill"
         d="m 149.08657,61.454635 c 0,0 7.28045,5.16677 7.72079,9.394126 0.44035,4.227357 -3.37601,8.57214 -6.89881,10.304183 -3.52279,1.732042 -15.38288,3.229231 -21.37163,1.115552 -5.98876,-2.113678 -12.15366,-6.223609 -11.9188,-9.159273 0.23485,-2.935664 -0.11743,-4.697064 1.93753,-7.574015 2.05497,-2.876951 6.86946,-4.990629 10.45097,-5.753902 3.58151,-0.763273 10.92067,-1.350405 14.61961,-0.293566 3.69894,1.056839 5.46034,1.966895 5.46034,1.966895 z"
         id="path3" /><path
         id="path2"
         style="opacity:1;fill:#111b09;fill-opacity:1;stroke-width:2.117;stroke-linejoin:round;stroke-miterlimit:3.1;paint-order:markers stroke fill"
         d="m 136.03498,58.238968 c -9.63052,0.11581 -19.0795,4.131648 -19.94542,11.934517 -0.97852,8.817507 9.5826,12.999737 18.08372,13.95355 9.20163,1.032409 20.56506,-1.17915 22.83959,-10.372077 1.86387,-7.533208 -7.33877,-13.686608 -14.38478,-14.971824 -2.13852,-0.390073 -4.37068,-0.570892 -6.59311,-0.544166 z m 0.0921,1.074744 c 2.10604,-0.02426 4.2214,0.139918 6.24794,0.494037 6.67705,1.166752 15.39761,6.75324 13.63134,13.592081 -2.15543,8.34558 -12.92367,10.353259 -21.64345,9.416012 -8.05596,-0.865895 -18.06399,-4.66266 -17.13671,-12.667421 0.82057,-7.083646 9.77466,-10.729574 18.90088,-10.834709 z" /></g><g
       inkscape:groupmode="layer"
       id="layer4"
       inkscape:label="Kerak Telor"
       style="display:inline"><g
         inkscape:groupmode="layer"
         id="layer6"
         inkscape:label="Kerak Telor-F"><path
           style="opacity:1;fill:#111b09;fill-opacity:1;stroke-width:2.117;stroke-linejoin:round;stroke-miterlimit:3.1;paint-order:markers stroke fill"
           d="m 152.5213,62.893111 c 0,0 -0.30825,1.188943 0.52841,1.790754"
           id="path15" /><path
           style="opacity:1;fill:#fbec7d;fill-opacity:1;stroke-width:2.117;stroke-linejoin:round;stroke-miterlimit:3.1;paint-order:markers stroke fill"
           d="m 152.83032,63.084057 c 0,0 -0.67464,0.986018 0.12455,1.837107 0.79919,0.85109 2.48563,3.986065 2.50031,5.600681 0.0147,1.614614 -2.14303,5.533728 -3.30262,6.047469 -1.15959,0.51374 -2.18707,0.455027 -2.68613,1.13023 -0.49907,0.675204 -0.32293,0.983449 -1.43848,1.306371 -1.11555,0.322924 -2.93566,0.983448 -4.198,1.570581 -1.26234,0.587133 -4.55028,0.79263 -6.92817,0.264209 -2.37789,-0.528419 -2.67145,-1.526545 -3.87507,-1.321048 -1.20363,0.205496 -6.45847,0 -8.27858,-1.321049 -1.82011,-1.32105 -4.46221,-4.139288 -4.8732,-6.840099 -0.411,-2.700812 -1.99626,-2.642098 -2.40725,-4.697063 -0.411,-2.054966 2.17239,-3.317302 2.6421,-4.315428 0.46971,-0.998125 2.40724,-2.87695 3.40537,-3.434727 0.99812,-0.557777 3.99251,-2.260462 5.31355,-2.260462 1.32105,0 6.1649,0.587133 7.66209,0.557776 1.49719,-0.02936 4.78513,-1.732041 6.66395,-0.17614 1.87883,1.555903 2.1724,1.908182 4.08058,3.287945 1.90818,1.379761 4.28607,1.174265 4.46221,1.761398 0.17614,0.587134 1.13279,1.002249 1.13279,1.002249 z"
           id="path16" /><path
           style="opacity:1;fill:#e7a443;fill-opacity:1;stroke-width:2.117;stroke-linejoin:round;stroke-miterlimit:3.1;paint-order:markers stroke fill"
           d="m 133.18994,57.153885 c 0.38164,0.484385 0.71924,1.218301 1.49719,1.482512 0.77796,0.264209 1.95222,2.216427 2.74485,1.350405 0.79263,-0.86602 0.13211,-1.893503 0.26421,-2.304496 0.13211,-0.410993 0.16146,-0.528421 0.16146,-0.528421 l -4.72642,0.01467 z"
           id="path72" /><path
           id="path45"
           style="opacity:1;fill:#cd772c;fill-opacity:1;stroke-width:2.117;stroke-linejoin:round;stroke-miterlimit:3.1;paint-order:markers stroke fill"
           d="m 133.19004,57.153957 -0.0589,0.0145 0.0698,-3.02e-4 c -0.004,-0.0047 -0.007,-0.0096 -0.0109,-0.0142 z m 0.0109,0.01419 c 0.37721,0.484415 0.71578,1.206525 1.48633,1.468222 0.37992,0.129029 0.85429,0.659966 1.33264,1.069309 0.30199,-0.234436 0.57228,-0.574102 0.40103,-0.980829 -0.18806,-0.44664 -0.63211,-1.086988 -0.98506,-1.563647 z" /><path
           style="opacity:1;fill:#e7a443;fill-opacity:1;stroke-width:2.117;stroke-linejoin:round;stroke-miterlimit:3.1;paint-order:markers stroke fill"
           d="m 148.88107,61.072998 c 0.0881,0.234853 0.38164,2.201749 1.64398,2.524671 1.26233,0.322924 1.64397,0.410993 1.64397,0.410993 0,0 0.49906,0.205497 0.4697,0.02936 -0.0293,-0.176139 0.52842,-1.05684 -0.0881,-1.262336 -0.61649,-0.205497 -3.66958,-1.702685 -3.66958,-1.702685 z"
           id="path74" /><path
           id="path46"
           style="opacity:1;fill:#cd772c;fill-opacity:1;stroke-width:2.117;stroke-linejoin:round;stroke-miterlimit:3.1;paint-order:markers stroke fill"
           d="m 151.63854,62.386651 c -0.25323,0.04019 -0.63475,0.135852 -0.9153,0.365395 -0.27099,0.221724 -0.17646,0.596064 -0.0722,0.877551 1.1453,0.292283 1.51805,0.378984 1.51805,0.378984 0,0 0.49893,0.20543 0.46958,0.02929 -0.0293,-0.176139 0.52831,-1.056776 -0.0882,-1.262273 -0.16423,-0.05474 -0.50569,-0.203595 -0.91198,-0.38895 z" /><path
           style="opacity:1;fill:#e7a443;fill-opacity:1;stroke-width:2.117;stroke-linejoin:round;stroke-miterlimit:3.1;paint-order:markers stroke fill"
           d="m 139.07795,62.585858 c 0.29062,-0.103792 1.07944,-0.352891 0.78882,-1.058673 -0.29061,-0.705782 -1.53611,-0.830331 -2.1381,-0.394408 -0.60199,0.435925 1.34928,1.453081 1.34928,1.453081 z"
           id="path47" /><path
           style="opacity:1;fill:#f7d157;fill-opacity:1;stroke-width:2.117;stroke-linejoin:round;stroke-miterlimit:3.1;paint-order:markers stroke fill"
           d="m 144.97664,58.489613 c 0,0 -0.26421,-0.234853 -1.11556,-0.08807 -0.85133,0.146782 -0.82198,-0.381637 -2.17239,-0.293568 -1.3504,0.08807 -2.96502,1.203623 -2.08432,1.702686 0.8807,0.499064 1.43848,0.616489 1.43848,0.616489 0,0 0.35228,-0.381636 0.46971,-0.381636 0.11742,0 0.93941,1.203623 2.64209,1.350407 1.70268,0.146783 2.34853,-1.379763 2.08432,-1.497189 -0.26421,-0.117427 -1.26233,-1.40912 -1.26233,-1.409119 z"
           id="path48" /><path
           style="opacity:1;fill:#f7d157;fill-opacity:1;stroke-width:2.117;stroke-linejoin:round;stroke-miterlimit:3.1;paint-order:markers stroke fill"
           d="m 123.04723,59.399669 c 0,0 0.91005,1.086195 1.82011,1.115553 0.91005,0.02936 2.14303,-0.675204 2.14303,-0.675204 0,0 0.8807,0.117428 0.76327,0 -0.11742,-0.117425 0.0293,-0.322922 -0.70456,-0.939412 -0.73391,-0.616489 -1.84947,-1.027483 -1.99625,-1.027483 -0.14678,0 -2.0256,1.526546 -2.0256,1.526546 z"
           id="path49" /><path
           style="opacity:1;fill:#f7d157;fill-opacity:1;stroke-width:2.117;stroke-linejoin:round;stroke-miterlimit:3.1;paint-order:markers stroke fill"
           d="m 130.09282,62.951823 c 0,0 -0.17614,0 -1.11556,0.322924 -0.93941,0.322922 -1.17426,-0.17614 -1.17426,-0.17614 0,0 -1.43848,0.469706 -1.11555,-0.02936 0.32292,-0.499064 0.32292,-0.499064 0.32292,-0.499064 0,0 -0.85134,-1.790754 -1.99625,-1.321049 -1.14491,0.469706 -2.64658,0.568663 -1.65019,1.731128 0.9964,1.162464 2.7401,0.04151 3.27981,1.20398 0.53972,1.162464 0.53972,1.785212 1.70218,1.826729 1.16247,0.04151 1.16247,0.04151 1.16247,0.04151 0,0 0.21747,-0.590674 0.73121,-0.942954 0.51374,-0.35228 1.6293,-0.469706 1.29169,-0.910056 -0.3376,-0.44035 -0.96876,-0.748594 -1.1449,-0.866022 -0.17614,-0.117427 -0.29357,-0.381636 -0.29357,-0.381636 z"
           id="path50" /><path
           style="opacity:1;fill:#f7d157;fill-opacity:1;stroke-width:2.117;stroke-linejoin:round;stroke-miterlimit:3.1;paint-order:markers stroke fill"
           d="m 122.01974,64.067375 c -0.14679,-0.02936 -2.37789,-0.557775 -2.90631,0.381637 -0.52842,0.939413 0.17614,1.702685 1.61461,1.643972 1.43848,-0.05871 2.34854,-1.027483 2.34854,-1.027483 0,0 0.14678,-0.117425 0,-0.352278 -0.14678,-0.234855 -0.52842,-0.821987 -0.52842,-0.821987 z"
           id="path51" /><path
           style="opacity:1;fill:#e7a443;fill-opacity:1;stroke-width:2.117;stroke-linejoin:round;stroke-miterlimit:3.1;paint-order:markers stroke fill"
           d="m 120.54081,67.650879 c 0.0415,-0.103792 1.30777,-1.847487 0.58123,-2.096588 -0.72654,-0.249099 -0.74627,-0.268614 -0.92241,-0.0778 -0.17614,0.190819 -0.42567,0.337601 -0.64585,0.190819 -0.22017,-0.146784 0.0881,-0.308245 -0.29356,-0.17614 -0.38164,0.132105 -1.79076,0.455027 -1.68801,0.587133 0.10274,0.132104 -0.0147,1.409118 0.64584,1.776077 0.66053,0.366958 2.32276,-0.203505 2.32276,-0.203505 z"
           id="path52" /><path
           style="opacity:1;fill:#cd772c;fill-opacity:1;stroke-width:2.117;stroke-linejoin:round;stroke-miterlimit:3.1;paint-order:markers stroke fill"
           d="m 120.69869,71.171684 c 0,0 0.57246,-0.851343 0.29357,-2.465957 -0.27889,-1.614616 0.0441,-1.467832 -0.76328,-1.482512 -0.8073,-0.01467 -1.65865,0.44035 -1.84946,0.381637 -0.19082,-0.05871 -0.6165,-0.220175 -0.39632,0.02936 0.22017,0.249531 0.8807,1.39444 1.51187,2.143034 0.63116,0.748594 1.20362,1.394441 1.20362,1.394441 z"
           id="path53" /><path
           style="opacity:1;fill:#f7d157;fill-opacity:1;stroke-width:2.117;stroke-linejoin:round;stroke-miterlimit:3.1;paint-order:markers stroke fill"
           d="m 147.26646,63.832522 c 0.32292,0.146784 2.11367,0.146784 3.64022,1.086197 1.52655,0.939413 2.31917,1.262336 1.87883,2.788881 -0.44035,1.526545 -0.46971,1.555902 -0.46971,1.555902 l -1.58526,-1.203623 c 0,0 -0.55777,-1.614615 -1.0862,-1.937538 -0.52842,-0.322922 -2.37788,-2.289819 -2.37788,-2.289819 z"
           id="path54" /><path
           style="opacity:1;fill:#cd772c;fill-opacity:1;stroke-width:2.117;stroke-linejoin:round;stroke-miterlimit:3.1;paint-order:markers stroke fill"
           d="m 153.11055,69.415333 c 0.24911,-0.06227 1.37005,-0.311375 0.68502,-1.349288 -0.68502,-1.037914 -2.57402,-1.390805 -2.82312,-1.909762 -0.2491,-0.518958 -0.68502,-2.760853 -1.889,-2.90616 -1.20398,-0.145309 -1.20398,0.124549 -1.57763,0.145307 -0.37365,0.02076 -0.4982,0.290616 -0.4982,0.290616 0,0 1.93052,0.97564 2.74009,2.490995 0.80958,1.515355 0.87185,2.034311 1.16247,2.221137 0.29061,0.186824 2.09658,0.996396 2.09658,0.996396 z"
           id="path55" /><path
           style="opacity:1;fill:#f7d157;fill-opacity:1;stroke-width:2.117;stroke-linejoin:round;stroke-miterlimit:3.1;paint-order:markers stroke fill"
           d="m 153.96165,74.065189 c 0,0 -0.58124,-0.788816 -1.53612,-1.162465 -0.95488,-0.373648 -0.83033,-0.124549 -0.83033,-0.124549 0,0 1.19031,-2.13491 0.48575,-2.83947 -0.70457,-0.70456 -0.70457,-1.056839 -0.70457,-1.056839 0,0 -0.27938,0.491951 -0.90213,0.367401 -0.62275,-0.12455 -0.72654,-0.747299 -0.83033,-0.788816 -0.10379,-0.04151 -1.18322,-0.726538 -1.26625,-0.747297 -0.083,-0.02076 -1.61915,0.06227 -1.61915,0.06227 l -0.33213,1.058672 c 0,0 -0.89198,0.282619 -1.2149,-0.480654 -0.32292,-0.763274 -0.93941,-2.02561 -1.61461,-2.260463 -0.67521,-0.234852 -0.93942,-0.410993 -0.93942,-0.410993 0,0 -5.51003,-0.584381 -5.75912,-0.584381 -0.24911,0 -2.40797,0.04152 -2.40797,0.04152 l -2.1958,-0.719471 2.34853,5.049343 c 0,0 -1.52655,3.992504 -3.87508,3.757651 -2.34853,-0.234853 -2.83727,-1.34108 -2.83727,-1.34108 l -0.70577,-0.02076 -0.50817,0.393069 -0.73392,-0.352279 -0.64585,-0.910057 c 0,0 -0.93941,-2.08432 -2.14303,-1.232978 -1.20363,0.851343 -2.49532,3.376015 -2.49532,3.376015 0,0 0.55778,2.407244 2.84759,3.875076 2.28982,1.467832 3.69894,1.820113 6.75204,2.407244 3.05309,0.587134 2.43659,-0.176138 2.43659,-0.176138 0,0 -2.7008,-0.44035 -1.79075,-1.262336 0.91006,-0.821986 1.14491,-0.763273 1.14491,-0.763273 l 3.14116,0.293566 c -2.71672,-1.077465 -0.77319,-3.860985 5.2842,-4.403497 4.10688,-0.367822 3.05309,2.348532 3.05309,2.348532 l -2.14303,1.908182 -1.43848,0.763272 -0.52842,0.08807 c 0,0 1.26233,0.146782 1.05684,0.998125 -0.2055,0.851344 -2.31918,1.555903 -2.31918,1.555903 0,0 3.14117,0.234853 4.8145,-0.264209 1.67332,-0.499064 3.75764,-1.614616 3.75764,-1.614616 0,0 0.26421,0.117427 1.79076,-0.469707 1.52654,-0.587133 1.67333,-1.526546 1.67333,-1.526546 0,0 0.93941,-0.08807 2.05497,-0.821985 1.11554,-0.733917 1.67332,-1.878825 1.67332,-1.878825 z"
           id="path56"
           sodipodi:nodetypes="cscscsssccsscscccscccccscsscsccsccccscscscscc" /><path
           style="opacity:1;fill:#fefbca;fill-opacity:1;stroke-width:2.117;stroke-linejoin:round;stroke-miterlimit:3.1;paint-order:markers stroke fill"
           d="m 142.8336,65.726026 c 0,0 -0.68988,0.44035 0.51375,0.557778 1.20362,0.117425 2.89162,-0.939414 2.14303,-1.262336 -0.74859,-0.322924 -1.98157,-0.499064 -1.99625,-0.440352 -0.0147,0.05871 -0.66053,1.14491 -0.66053,1.14491 z"
           id="path57" /><path
           style="opacity:1;fill:#fefbca;fill-opacity:1;stroke-width:2.117;stroke-linejoin:round;stroke-miterlimit:3.1;paint-order:markers stroke fill"
           d="m 145.16746,67.311286 c 0,0 -0.77796,0.616489 0.0734,0.983448 0.85134,0.366957 2.26046,-0.04404 1.8935,-0.748595 -0.36696,-0.70456 -2.21642,-0.601812 -2.15771,-0.543099 0.0587,0.05871 0.19082,0.308246 0.19082,0.308246 z"
           id="path58"
           sodipodi:nodetypes="csssc" /><path
           style="opacity:1;fill:#8a6c40;fill-opacity:1;stroke-width:2.117;stroke-linejoin:round;stroke-miterlimit:3.1;paint-order:markers stroke fill"
           d="m 141.67274,67.920737 c 0,0 2.2419,-0.996398 1.90976,-2.241895 -0.33213,-1.245497 -5.31412,-2.615544 -5.31412,-2.615544 0,0 -0.12455,1.82673 -0.33213,1.743697 -0.20758,-0.08303 -2.61554,-2.449479 -3.36285,0.124548 -0.74729,2.574027 -1.95127,3.944074 0.66427,2.947677 2.61555,-0.996398 2.65706,-1.826729 2.65706,-1.826729 0,0 2.03431,1.70218 2.57403,1.868246 0.53972,0.166066 1.20398,0 1.20398,0 z"
           id="path59" /><path
           style="opacity:1;fill:#8a6c40;fill-opacity:1;stroke-width:2.117;stroke-linejoin:round;stroke-miterlimit:3.1;paint-order:markers stroke fill"
           d="m 130.59188,66.181055 c -0.29356,0.528419 -2.11368,1.937538 -0.8807,2.583385 1.23298,0.645846 1.23298,0.645846 1.23298,0.645846 0,0 -3.17052,0.880699 -0.99813,1.820112 2.1724,0.939412 1.7614,0.821985 2.28983,0.998125 0.52841,0.17614 -0.11743,1.467832 1.40911,1.702685 1.52655,0.234854 3.99251,-1.643971 3.64023,-1.820111 -0.35228,-0.17614 -4.28608,-5.871329 -4.28608,-5.871329 z"
           id="path60" /><path
           style="opacity:1;fill:#8a6c40;fill-opacity:1;stroke-width:2.117;stroke-linejoin:round;stroke-miterlimit:3.1;paint-order:markers stroke fill"
           d="m 140.13663,68.169836 c 0,0 -2.20038,-0.207583 -1.20398,1.203981 0.99639,1.411562 1.66066,3.113742 3.77801,2.324927 2.11734,-0.788814 2.61554,-2.740093 1.66066,-3.113742 -0.95489,-0.37365 -1.86825,-0.747299 -1.86825,-0.747299 l -2.57403,0.415166 z"
           id="path61" /><path
           style="opacity:1;fill:#e7a443;fill-opacity:1;stroke-width:2.117;stroke-linejoin:round;stroke-miterlimit:3.1;paint-order:markers stroke fill"
           d="m 125.57189,71.406537 c 0,0 1.37977,-1.761398 1.37977,-2.642097 0,-0.8807 -1.40912,-1.790756 -1.40912,-1.790756 0,0 -0.29357,2.612742 -0.44035,3.111805 -0.14678,0.499062 -0.38163,-0.293566 -0.23485,-0.02936 0.14678,0.26421 0.70455,1.350405 0.70455,1.350405 z"
           id="path63" /><path
           id="path62"
           style="opacity:1;fill:#cd772c;fill-opacity:1;stroke-width:2.117;stroke-linejoin:round;stroke-miterlimit:3.1;paint-order:markers stroke fill"
           d="m 125.54241,66.973714 c 0,0 -0.2935,2.612834 -0.44028,3.111896 -0.0399,0.135686 -0.0864,0.175374 -0.12985,0.167296 0.21156,0.398834 0.59972,1.15356 0.59972,1.15356 0,0 0.38467,-0.492781 0.74801,-1.086521 0.0172,-0.22062 0.0264,-0.533371 -0.029,-0.784844 -0.0954,-0.433009 -0.60898,-0.807444 -0.5943,-0.932209 0.0102,-0.08704 0.0849,-0.92702 0.26363,-1.317837 -0.23394,-0.19224 -0.41794,-0.311341 -0.41794,-0.311341 z m -0.57013,3.279192 c -0.0381,-0.07184 -0.0827,-0.156566 -0.1051,-0.19689 -0.10686,-0.192374 -0.0114,0.175256 0.1051,0.19689 z" /><path
           style="opacity:1;fill:#cd772c;fill-opacity:1;stroke-width:2.117;stroke-linejoin:round;stroke-miterlimit:3.1;paint-order:markers stroke fill"
           d="m 125.35172,72.727587 c 0,0 -0.11743,-0.70456 -1.52655,-0.528421 -1.40912,0.176141 -1.92286,0.557778 -1.40912,1.027484 0.51375,0.469705 1.52655,0.851342 2.04029,0.851342 0.51375,0 0.80731,-0.249531 0.83667,0.08807 0.0293,0.337601 -0.48439,0.455027 0.22017,0.587132 0.70456,0.132104 1.10088,-0.381637 0.86602,-0.733916 -0.23485,-0.35228 -0.42567,-0.719238 -0.55778,-0.821986 -0.1321,-0.102748 -0.4697,-0.469706 -0.4697,-0.469705 z"
           id="path64" /><path
           style="opacity:1;fill:#cd772c;fill-opacity:1;stroke-width:2.117;stroke-linejoin:round;stroke-miterlimit:3.1;paint-order:markers stroke fill"
           d="m 122.04176,71.179024 c 0,0 -0.411,-0.381637 -0.75593,-0.05137 -0.34495,0.330262 -0.33027,0.770611 0.15412,1.020143 0.48438,0.24953 0.90271,-0.249532 0.8073,-0.60915 -0.0954,-0.35962 -0.20549,-0.35962 -0.20549,-0.35962 z"
           id="path65" /><path
           style="opacity:1;fill:#e7a443;fill-opacity:1;stroke-width:2.117;stroke-linejoin:round;stroke-miterlimit:3.1;paint-order:markers stroke fill"
           d="m 130.56253,79.097979 c 0,0 0.0293,-1.573964 -1.84947,-2.13174 -1.87883,-0.557775 -1.76827,-1.605153 -3.67646,-1.781292 -1.90818,-0.176141 -2.28651,-0.671031 -3.01686,-1.664732 -0.574,-0.780966 -1.7614,0.05871 -1.70269,0.17614 0.0587,0.117428 0.58714,2.113679 3.61087,3.552155 3.02374,1.438476 4.78514,1.908182 4.93192,1.908182 0.14678,0 1.70269,-0.05871 1.70269,-0.05871 z"
           id="path66"
           sodipodi:nodetypes="cssssssc" /><path
           style="opacity:1;fill:#cd772c;fill-opacity:1;stroke-width:2.117;stroke-linejoin:round;stroke-miterlimit:3.1;paint-order:markers stroke fill"
           d="m 129.47633,79.039266 c 0,0 0.64585,-1.643972 -0.49907,-1.32105 -1.14491,0.322923 -1.02748,0.939414 -1.37976,0.880701 -0.35228,-0.05871 -0.2055,-1.438476 -0.85134,-1.878826 -0.64585,-0.44035 -1.82011,-0.851342 -2.58338,-0.44035 -0.76328,0.410992 -1.5559,0.205497 -0.2055,0.998126 1.3504,0.792629 3.08245,1.144909 3.34665,1.262335 0.26421,0.117428 0.411,0.733917 0.52842,0.763273 0.11743,0.02936 1.64398,-0.264209 1.64398,-0.264209 z"
           id="path67" /><path
           style="opacity:1;fill:#e7a443;fill-opacity:1;stroke-width:2.117;stroke-linejoin:round;stroke-miterlimit:3.1;paint-order:markers stroke fill"
           d="m 152.25709,75.663252 c -0.23486,-0.02936 -0.88071,-2.465959 -2.93567,-0.910057 -2.05496,1.555903 -2.46595,1.849469 -2.90631,2.818239 -0.44035,0.968768 -0.46971,1.144908 -0.46971,1.144908 0,0 -0.61648,-1.115552 -2.14303,-0.410993 -1.52655,0.704561 -2.14303,0.851343 -3.08245,1.438476 -0.93941,0.587134 -1.26233,0.96877 -1.11555,1.086195 0.14679,0.117428 6.72267,-1.115551 7.60337,-1.673328 0.8807,-0.557775 2.28982,-1.23298 2.28982,-1.23298 0,0 0.58713,-0.910055 0.73392,-0.998124 0.14678,-0.08807 2.02561,-1.262336 2.02561,-1.262336 z"
           id="path68" /><path
           style="opacity:1;fill:#fefbca;fill-opacity:1;stroke-width:2.117;stroke-linejoin:round;stroke-miterlimit:3.1;paint-order:markers stroke fill"
           d="m 135.8614,74.533021 c 0,0 1.61462,-0.396316 2.02561,0.366957 0.41099,0.763274 -0.0881,0.983448 0.66052,0.8807 0.7486,-0.102749 1.65865,-1.570581 2.96503,-1.174265 1.30637,0.396314 1.42379,0.117425 1.23297,-0.102749 -0.19082,-0.220175 -0.58713,-1.159587 -2.20175,-0.689881 -1.61461,0.469706 -1.70268,0.748594 -1.95221,0.557775 -0.24954,-0.190818 -0.63117,-0.851343 -1.04216,-0.763272 -0.411,0.08807 -1.52655,0.322922 -1.84947,0.660524 -0.32293,0.337603 0.16146,0.264211 0.16146,0.264211 z"
           id="path69" /><path
           style="opacity:1;fill:#fefbca;fill-opacity:1;stroke-width:2.117;stroke-linejoin:round;stroke-miterlimit:3.1;paint-order:markers stroke fill"
           d="m 129.79901,65.782633 c 0,0 -1.26626,-1.287013 -2.2419,-0.622748 -0.97564,0.664265 -1.55687,1.515354 -0.26986,1.743697 1.28701,0.22834 2.7401,-0.02076 2.78161,-0.352892 0.0415,-0.332132 -0.26985,-0.768057 -0.26985,-0.768057 z"
           id="path70" /><path
           style="opacity:1;fill:#fefbca;fill-opacity:1;stroke-width:2.117;stroke-linejoin:round;stroke-miterlimit:3.1;paint-order:markers stroke fill"
           d="m 126.40856,63.362816 c -0.45769,-0.137306 -1.04216,-0.396314 -0.96877,0.52842 0.0734,0.924734 1.54122,1.277014 1.65865,0.939412 0.11743,-0.337601 0.10093,-0.665166 0.0441,-0.895377 -0.0725,-0.293262 -0.39175,-0.469802 -0.73393,-0.572455 z"
           id="path71"
           sodipodi:nodetypes="sssss" /><path
           style="opacity:1;fill:#e7a443;fill-opacity:1;stroke-width:2.117;stroke-linejoin:round;stroke-miterlimit:3.1;paint-order:markers stroke fill"
           d="m 132.39379,75.705094 c 0,0 1.45308,-1.224739 0.20758,-1.307773 -1.2455,-0.08303 -1.9928,0.622749 -1.95128,0.705782 0.0415,0.08303 1.7437,0.601991 1.7437,0.601991 z"
           id="path73" /><path
           style="opacity:1;fill:#cd772c;fill-opacity:1;stroke-width:2.117;stroke-linejoin:round;stroke-miterlimit:3.1;paint-order:markers stroke fill"
           d="m 149.64434,72.7863 c 4.27548,-0.360822 0.1971,-1.552756 -2.67145,-0.704559 -1.91515,0.566286 -1.79075,2.319175 -2.2311,2.436601 -0.44036,0.117427 -1.14491,-0.821987 -1.14491,-0.821987 0,0 -0.76328,-1.497189 -1.40912,-0.704558 -0.64585,0.792629 0.26421,1.174265 0.85134,1.379761 0.58713,0.205497 -0.29357,0.117428 -0.76328,0.293568 -0.4697,0.17614 -1.30886,0.936176 -1.72403,1.47589 -0.41516,0.539717 -0.66426,0.996398 -1.45308,1.203982 -0.78881,0.207582 -3.27981,0.456681 -3.27981,0.456681 l 2.90616,0.332133 2.40797,-0.622749 1.86824,-1.826728 2.44947,-0.166067 0.95489,-1.411563 1.28701,-0.788815 z"
           id="path75"
           sodipodi:nodetypes="csscssssscccccccc" /><path
           style="opacity:1;fill:#cd772c;fill-opacity:1;stroke-width:2.117;stroke-linejoin:round;stroke-miterlimit:3.1;paint-order:markers stroke fill"
           d="m 130.5463,59.05695 c 0,0 0.60199,0.498198 1.2455,0.415165 0.6435,-0.08303 1.41156,-0.435924 0.66426,-0.560474 -0.7473,-0.124549 -0.60199,0.166067 -0.93412,-0.145307 -0.33213,-0.311375 -0.43592,-0.352891 -0.91337,-0.456683 -0.47743,-0.103792 -0.97564,0.06227 -0.99639,0.145308 -0.0207,0.08303 0.93412,0.601991 0.93412,0.601991 z"
           id="path77" /></g><g
         inkscape:groupmode="layer"
         id="layer7"
         inkscape:label="Kerak Telor-O"><path
           id="path4"
           style="opacity:1;fill:#111b09;fill-opacity:1;stroke-width:2.117;stroke-linejoin:round;stroke-miterlimit:3.1;paint-order:markers stroke fill"
           d="m 133.33589,55.827061 c -0.67237,0.01751 -1.1548,0.157633 -1.54402,0.157633 -0.51896,0 -1.88916,-0.02066 -3.32147,0.186925 -1.43232,0.207581 -4.33844,1.390769 -5.27255,1.99276 -0.93413,0.601989 -1.24557,1.494643 -1.61922,1.453124 -0.37365,-0.04151 -0.72637,0.207381 -1.5567,0.747096 -0.83033,0.539714 -0.60211,1.224728 -0.91348,1.598376 0,0 0.12229,-0.0093 -1.11068,1.076857 -1.23299,1.086194 -1.02741,3.610789 -0.99805,4.28599 0.002,0.04008 -0.002,0.07985 -0.002,0.119584 0.2015,0.83304 0.45576,1.695309 0.72173,2.067651 0.58713,0.821984 1.58514,1.276887 1.62917,1.702558 0.0441,0.425671 1.02753,5.563281 4.37417,6.972396 3.34666,1.409116 4.22729,1.585132 5.92996,1.702559 1.70269,0.117426 2.61299,-0.264143 3.31755,-0.02929 0.70455,0.234853 2.84903,1.552476 6.25338,1.552476 3.40435,0 5.97836,-0.871859 6.47655,-1.203992 0.4982,-0.332131 0.20772,-0.207673 2.11748,-0.664353 1.90975,-0.456682 2.07576,-2.117523 2.94761,-2.449655 0.87185,-0.332132 1.37007,-0.373381 2.40799,-1.369777 1.03791,-0.996397 0.83019,-1.536214 1.24536,-1.868345 0.41516,-0.332132 1.74389,-1.619217 1.4948,-4.982052 -0.2491,-3.362835 -2.78184,-4.732919 -2.78184,-4.732919 l 0.17575,-0.04137 c 0.045,-0.186568 0.22026,-0.499577 0.0942,-0.975695 -0.18683,-0.70578 -1.7229,-1.702222 -2.4702,-2.013597 -0.7473,-0.311373 -1.78521,-0.913286 -2.24189,-1.10011 -0.45667,-0.186825 -1.57781,-0.332121 -1.97222,-0.477429 -0.39441,-0.145306 -0.22816,-1.474006 -2.42852,-2.927083 -2.20038,-1.453077 -6.74657,-0.207528 -7.72221,-0.145253 -0.97564,0.06228 -1.4116,-0.477295 -2.49103,-0.601844 -0.26985,-0.03114 -0.51512,-0.03905 -0.73924,-0.03321 z m 7.58542,1.148728 c 2.47411,0.05031 3.76361,1.365334 4.02598,1.866231 0.32293,0.616489 0.20549,0.352193 -0.411,0.176054 -0.61648,-0.17614 0.1469,0.734003 0.91017,1.056927 0.76328,0.322922 2.3485,1.027485 3.17048,1.232981 0.82199,0.205496 3.31715,1.467835 3.4933,2.054968 0.17614,0.587132 0.20558,0.586896 -0.17606,0.792393 -0.38164,0.205497 0.0294,0.323139 0.64593,0.58735 0.6165,0.264208 0.82182,0.64568 1.99609,2.818069 1.17426,2.172389 0.14696,4.78512 -0.35211,5.489679 -0.49906,0.70456 -0.3231,1.027636 -1.29187,1.849622 -0.96877,0.821985 -1.23283,0.939307 -2.67131,1.555796 -1.43847,0.616489 -0.90998,0.822096 -1.26227,1.321159 -0.35228,0.499062 -1.79099,0.675183 -2.49555,0.557756 -0.70456,-0.117424 -0.44023,-0.381702 -0.88058,0.02929 -0.44035,0.410992 -1.08624,1.790844 -4.2274,1.878914 -3.14116,0.08807 -4.0217,-0.234919 -5.28403,-0.381702 -1.26234,-0.146782 -0.52842,-0.381745 -1.64398,-0.910165 -1.11555,-0.528418 -2.43467,-0.56119 -3.01179,-0.401677 -3.07032,0.848628 -10.7016,-1.235268 -10.68628,-7.992437 -0.0415,-0.518957 -1.51532,-1.639814 -2.55324,-3.258959 -1.03791,-1.619144 0.67487,-3.549585 0.82018,-3.62224 0.14531,-0.07265 0.58111,-0.249133 1.04817,-0.529369 0.46706,-0.280236 0.41504,-0.674599 0.68489,-1.069006 0.31858,-0.855629 1.02328,-1.222932 1.80613,-1.629781 0.23872,-0.134926 0.64358,-0.0413 0.77851,-0.103579 0.13493,-0.06227 0.64346,-0.04157 0.87181,-0.05194 0.22834,-0.01038 0.275,-0.107069 0.11354,-0.407974 -0.16146,-0.300905 -0.63854,-0.40368 -0.69726,-0.433038 0,0 -0.039,0.01077 -0.23102,-0.03594 -0.19202,-0.04671 0.54655,-0.543974 2.89508,-1.45403 2.34853,-0.910055 4.87361,-0.927982 6.02569,-0.647745 1.15208,0.280236 1.74382,1.421696 1.89431,1.535865 0.15051,0.114171 0.12454,-0.176199 0.0571,-0.555037 -0.0675,-0.378839 -0.40995,-0.76291 -0.59158,-0.892651 -0.18164,-0.129752 0.2765,-0.144971 1.01042,0.0018 0.73392,0.146783 0.58729,0.557688 4.31558,-0.23494 0.69906,-0.148618 1.33304,-0.204274 1.90398,-0.192663 z"
           sodipodi:nodetypes="sssssscsscscssssssssssccssssssssssssssssssssssssssscsssssssscssssssssscs" /><path
           style="opacity:1;fill:#111b09;fill-opacity:1;stroke-width:2.117;stroke-linejoin:round;stroke-miterlimit:3.1;paint-order:markers stroke fill"
           d="m 131.20837,77.483363 c 0.49906,0.205496 2.6421,0.17614 4.93192,0.70456 2.28981,0.528419 4.05121,0.469707 5.7539,-0.410993 1.70269,-0.8807 1.17427,-1.614616 2.46596,-1.761399 1.29169,-0.146782 2.31918,-0.528419 2.05496,-0.61649 -0.26421,-0.08807 -0.82198,0.02936 -0.46971,-0.234853 0.35229,-0.26421 1.23299,-1.702686 3.25859,-1.937538 2.02561,-0.234853 2.75953,0.17614 3.69894,-0.998127 0.93942,-1.174265 1.05684,-1.732042 0.58713,-1.321049 -0.4697,0.410994 -1.23297,1.40912 -3.02373,1.643973 -1.79075,0.234853 -1.79075,-0.410993 -3.43473,0.557776 -1.64397,0.968769 -1.11555,1.937539 -1.67333,1.849468 -0.55777,-0.08807 -2.08432,0.17614 -2.96502,0.851343 -0.88069,0.675204 -1.5559,2.025609 -3.25858,2.025609 -1.70269,0 -3.90444,-1.056838 -5.95941,-0.8807 -2.05496,0.17614 -2.61273,0.469707 -2.34853,0.557777 0.26421,0.08807 0.38164,-0.02936 0.38164,-0.02936 z"
           id="path5"
           sodipodi:nodetypes="sssssssssssssssscs" /><path
           style="opacity:1;fill:#111b09;fill-opacity:1;stroke-width:2.117;stroke-linejoin:round;stroke-miterlimit:3.1;paint-order:markers stroke fill"
           d="m 122.31331,64.904041 c 0.46501,0.03137 0.53806,0.107784 0.39127,-0.127071 -0.14678,-0.234854 -1.63893,-0.753631 -1.00776,-1.061876 0.63117,-0.308245 0.98345,-0.205496 1.27701,0.07339 0.29357,0.278888 0.45503,1.086196 0.61649,1.130231 0.16146,0.04403 3.03842,1.262336 2.7742,2.730168 -0.26421,1.467833 -1.39443,2.421924 -0.93941,3.038412 0.45503,0.616489 0.61649,0.513741 0.60181,0.763273 -0.0147,0.249532 -0.0881,0.278888 0.11743,0.293566 0.2055,0.01467 0.27889,0.220175 0.48439,0.161462 0.20549,-0.05871 0.22017,-0.719238 1.02748,-0.440349 0.80731,0.278887 1.04216,0.322922 0.91005,1.115552 -0.1321,0.79263 -0.4697,1.174267 -0.55777,0.895378 -0.0881,-0.278888 0.0441,-0.04404 0.0734,-0.293567 0.0293,-0.249531 0.10275,-1.321049 -0.49907,-1.086196 -0.60181,0.234853 -0.32292,0.866022 -0.55777,0.807309 -0.23485,-0.05871 -0.73392,-0.455029 -0.99813,-0.484385 -0.26421,-0.02936 -0.16146,0.205496 -0.16146,0.205496 0,0 0.35228,0.396314 0.35228,0.68988 0,0.293568 0.11743,0.748596 -0.16146,0.689882 -0.27889,-0.05871 -1.20362,-1.188944 -0.96877,-1.599937 0.23485,-0.410993 0.38163,-0.469706 0.14678,-0.645846 -0.23485,-0.17614 -1.17426,-1.379762 -0.68988,-2.377888 0.48439,-0.998126 1.13023,-2.392567 0.0441,-2.876952 -1.08619,-0.484385 -2.81823,-0.631167 -2.86227,-0.733915 -0.25613,-0.0549 -0.22694,-0.593619 0.58711,-0.866019 z"
           id="path6"
           sodipodi:nodetypes="csssssssssssssssscsssssscc" /><path
           style="opacity:1;fill:#111b09;fill-opacity:1;stroke-width:2.117;stroke-linejoin:round;stroke-miterlimit:3.1;paint-order:markers stroke fill"
           d="m 146.61321,69.020926 c 0,0 0.64351,-1.536114 1.74369,-1.037914 1.10019,0.498197 1.5984,1.598387 1.63991,1.079429 0.0415,-0.518956 -0.20758,-1.224738 -1.01715,-1.536112 -0.80958,-0.311374 -2.63631,-0.643507 -2.7401,0.60199 -0.10379,1.245498 0.0623,1.45308 0.2491,1.22474 0.18683,-0.228342 0.12455,-0.332133 0.12455,-0.332133 z"
           id="path7" /><path
           style="opacity:1;fill:#111b09;fill-opacity:1;stroke-width:2.117;stroke-linejoin:round;stroke-miterlimit:3.1;paint-order:markers stroke fill"
           d="m 126.63336,60.292067 c 0,0 0.78882,-0.300995 1.22474,-0.207582 0.43592,0.09341 1.13133,0.155687 1.08981,-0.09341 -0.0415,-0.249099 0.50858,-1.017156 0.89261,-0.871847 0.38403,0.145307 0.3944,0.46706 0.63312,0.342512 0.23873,-0.124551 0.12455,-0.207584 0.26986,-0.155688 0.14531,0.0519 0.65389,0.342512 0.28024,-0.12455 -0.37365,-0.467061 -0.57085,-1.494597 -1.83711,-0.996396 -1.26625,0.498197 -1.13132,1.245496 -1.31815,1.214359 -0.18682,-0.03113 -1.27664,0.134928 -1.35967,0.518956 -0.083,0.384029 0.0104,0.612369 0.0623,0.529336 0.0519,-0.08303 0.0623,-0.155687 0.0623,-0.155687 z"
           id="path8" /><path
           style="opacity:1;fill:#111b09;fill-opacity:1;stroke-width:2.117;stroke-linejoin:round;stroke-miterlimit:3.1;paint-order:markers stroke fill"
           d="m 153.25521,69.322215 c 0,0 -2.01093,-0.557775 -2.59806,-2.025607 -0.58713,-1.467833 -0.95409,-2.113679 -2.2311,-2.906309 -1.27702,-0.79263 -1.86415,-1.291692 -1.82012,-0.939412 0.0441,0.352279 0.38164,1.247657 0.98345,1.555901 0.60181,0.308246 1.64397,0.924735 2.17239,2.099 0.52842,1.174267 1.83479,2.392567 2.87695,2.495315 1.04216,0.102749 0.61649,-0.278888 0.61649,-0.278888 z"
           id="path9" /><path
           style="opacity:1;fill:#111b09;fill-opacity:1;stroke-width:2.117;stroke-linejoin:round;stroke-miterlimit:3.1;paint-order:markers stroke fill"
           d="m 143.15653,60.88218 c 0,0 -0.89538,-1.585259 -1.79076,-1.277015 -0.89538,0.308245 -1.20362,1.247659 -0.64585,1.423799 0.55778,0.176138 0.38164,-0.543098 0.83667,-0.469708 0.45502,0.07339 1.93754,1.115554 1.82011,0.79263 -0.11742,-0.322922 -0.22017,-0.469706 -0.22017,-0.469706 z"
           id="path10" /><path
           style="opacity:1;fill:#111b09;fill-opacity:1;stroke-width:2.117;stroke-linejoin:round;stroke-miterlimit:3.1;paint-order:markers stroke fill"
           d="m 128.16996,75.956818 c 0,0 0.57245,-1.394441 1.46783,-1.350405 0.89538,0.04403 2.45128,0.616489 2.81824,1.04216 0.36695,0.425672 0.29356,0.954091 -0.0293,0.660525 -0.32292,-0.293567 -0.86602,-0.689882 -1.82012,-0.719238 -0.95408,-0.02936 -2.18706,0.543098 -2.34852,0.513741 -0.16146,-0.02936 -0.0881,-0.146783 -0.0881,-0.146783 z"
           id="path11" /><path
           style="opacity:1;fill:#111b09;fill-opacity:1;stroke-width:2.117;stroke-linejoin:round;stroke-miterlimit:3.1;paint-order:markers stroke fill"
           d="m 145.50506,73.608286 c 0,0 0.35227,-0.52842 -0.23485,-0.851342 -0.58714,-0.322924 -2.17239,-0.513742 -1.93754,0.513741 0.23485,1.027482 0.73391,1.218301 0.64584,0.983447 -0.0881,-0.234853 -0.35228,-0.366957 -0.0441,-0.60181 0.30825,-0.234855 1.05684,-0.205497 1.23298,-0.08807 0.17614,0.117427 0.3376,0.04404 0.3376,0.04404 z"
           id="path12" /><path
           style="opacity:1;fill:#111b09;fill-opacity:1;stroke-width:2.117;stroke-linejoin:round;stroke-miterlimit:3.1;paint-order:markers stroke fill"
           d="m 144.37132,67.920737 c 0,0 -0.84071,-0.581232 -0.31138,-0.986019 0.52934,-0.404787 1.3908,-0.518956 1.5465,-0.08303 0.15568,0.435925 0.18682,0.934124 -0.0727,0.819953 -0.25948,-0.114171 -0.32175,-0.518957 -0.67464,-0.269857 -0.35289,0.249099 -0.2491,0.487819 -0.34251,0.508577 -0.0934,0.02076 -0.14531,0.01037 -0.14531,0.01037 z"
           id="path13" /><path
           id="path14"
           style="opacity:1;fill:#111b09;fill-opacity:1;stroke-width:2.117;stroke-linejoin:round;stroke-miterlimit:3.1;paint-order:markers stroke fill"
           d="m 146.18721,62.52224 c -0.0719,-0.0039 -0.18641,0.06613 -0.37324,0.136192 -0.1473,0.05524 -0.31233,0.206448 -0.43455,0.357544 -0.16072,-0.189793 -0.55862,-0.367477 -1.26771,-0.305603 -0.74447,0.06496 -0.083,0.705903 -0.0311,0.913487 0.0519,0.207589 -0.0101,0.0309 -0.21772,0.217727 -0.20758,0.186824 0.15552,0.716294 0.15552,0.716294 0,0 0.11431,0.02077 0.23886,-0.197192 0.12455,-0.217962 0.44625,-0.176377 0.70573,-0.06221 0.25948,0.114171 0.13489,-0.187037 0.11415,-0.456894 -0.0207,-0.269859 -0.31136,-0.248985 -0.39439,-0.290504 -0.0831,-0.04152 -0.24997,-0.298909 -0.10387,-0.352712 0.86098,0.473258 1.15666,0.258321 1.39091,-0.0314 0.0415,0 -0.16608,0.643597 -0.083,0.944591 0.083,0.300995 0.18688,0.0416 0.41522,-0.259399 0.22832,-0.300995 0.0309,-0.861436 -0.0106,-1.152051 -0.0182,-0.127144 -0.0483,-0.174886 -0.10419,-0.177866 z"
           sodipodi:nodetypes="sscssscssssccssss" /></g></g><g
       inkscape:groupmode="layer"
       id="layer5"
       inkscape:label="Bawang Goreng"
       style="display:inline"><g
         inkscape:groupmode="layer"
         id="layer8"
         inkscape:label="Bawang Goreng-F"><path
           style="opacity:1;fill:#eea247;fill-opacity:1;stroke-width:2.117;stroke-linejoin:round;stroke-miterlimit:3.1;paint-order:markers stroke fill"
           d="m 137.74023,70.364377 c 0,0 0.67519,0.249531 0.9394,0.719238 0.26422,0.469706 0.17615,0.968768 0.17615,0.968768 0,0 -0.32293,0.631169 -1.14491,0.924734 -0.82199,0.293568 -3.17052,-0.08807 -3.64022,-0.821986 -0.46971,-0.733915 -0.70457,-1.04216 -0.33761,-2.818237 0.36696,-1.776077 1.27701,-2.832917 1.51187,-2.128357 0.23485,0.70456 0.27889,1.820112 1.14491,2.509994 0.86602,0.689881 1.35041,0.645846 1.35041,0.645846 z"
           id="path25" /><path
           style="opacity:1;fill:#fefbca;fill-opacity:1;stroke-width:2.117;stroke-linejoin:round;stroke-miterlimit:3.1;paint-order:markers stroke fill"
           d="m 134.12711,68.460451 c 0,0 -0.39441,1.048294 0.11416,1.22474 0.50858,0.176445 0.39441,-0.01037 0.66427,0.518957 0.26986,0.529336 0.60199,1.162463 1.4946,1.32853 0.8926,0.166066 1.45308,-0.373649 1.47384,0.249099 0.0207,0.622749 -0.2491,1.017156 -0.2491,1.017156 0,0 1.18321,-0.145308 1.32852,-0.892605 0.14531,-0.747299 -0.37365,-1.224741 -0.70578,-1.349289 -0.33213,-0.12455 -2.09658,-0.851091 -2.51175,-1.619146 -0.41516,-0.768057 -0.83033,-2.200378 -0.93413,-2.158861 -0.10378,0.04152 -0.67463,1.681419 -0.67463,1.681419 z"
           id="path26" /><path
           style="opacity:1;fill:#eea247;fill-opacity:1;stroke-width:2.117;stroke-linejoin:round;stroke-miterlimit:3.1;paint-order:markers stroke fill"
           d="m 130.13686,68.837831 c 0,0 0.26421,-0.102748 0.88069,0.484384 0.61649,0.587133 0.93942,1.027483 0.48439,1.130231 -0.45503,0.102748 -0.89538,0.17614 -0.89538,0.17614 0,0 -1.92286,-0.08807 -1.6293,-0.880699 0.29357,-0.79263 1.1596,-0.910056 1.1596,-0.910056 z"
           id="path27" /><path
           style="opacity:1;fill:#fefbca;fill-opacity:1;stroke-width:2.117;stroke-linejoin:round;stroke-miterlimit:3.1;paint-order:markers stroke fill"
           d="m 130.93682,69.344233 c -0.0293,0.02202 -0.15412,0.17614 -0.4697,0.322922 -0.31559,0.146784 -0.31559,0.932075 -0.60915,0.770614 -0.29357,-0.161462 -0.93942,-0.146784 -0.64585,-0.770614 0.29356,-0.623827 1.07152,-0.990786 1.2183,-0.792627 0.14678,0.198157 0.5064,0.469705 0.5064,0.469705 z"
           id="path28" /><path
           style="opacity:1;fill:#eea247;fill-opacity:1;stroke-width:2.117;stroke-linejoin:round;stroke-miterlimit:3.1;paint-order:markers stroke fill"
           d="m 141.23682,70.4273 c 0,0 1.70383,-1.266546 1.33687,-1.809644 -0.36696,-0.543098 -2.39256,-0.410993 -2.99437,-0.484385 -0.60182,-0.07339 -1.10088,0.278888 -0.79264,0.35228 0.30825,0.07339 2.15772,0.572454 2.27514,0.8807 0.11743,0.308244 0.175,1.061049 0.175,1.061049 z"
           id="path29" /><path
           style="opacity:1;fill:#fefbca;fill-opacity:1;stroke-width:2.117;stroke-linejoin:round;stroke-miterlimit:3.1;paint-order:markers stroke fill"
           d="m 141.18963,70.246949 c 0,0 1.33573,-0.895376 1.30637,-1.335726 -0.0293,-0.440351 -1.20362,-0.777952 -1.8935,-0.645847 -0.68988,0.132106 -1.71737,0.04404 -1.86415,-0.04403 -0.14678,-0.08807 -0.19082,-0.05871 -0.19082,-0.17614 0,-0.117427 0,-0.763273 0.44035,-0.836665 0.44036,-0.07339 0.85135,-0.396314 0.85135,-0.396314 0,0 1.14491,-0.836664 2.3632,0.322924 1.21831,1.159587 1.4238,2.26046 1.30638,2.465957 -0.11743,0.205496 -0.13211,1.086195 -0.92474,1.688007 -0.79263,0.601811 -1.18894,0.924735 -1.32104,0.924735 -0.13211,0 -0.83668,-0.821986 -0.83668,-0.821986 z"
           id="path30" /><path
           style="opacity:1;fill:#e6c18e;fill-opacity:1;stroke-width:2.117;stroke-linejoin:round;stroke-miterlimit:3.1;paint-order:markers stroke fill"
           d="m 131.2417,60.551546 c 0.11417,0.02076 2.20038,0.435924 2.21076,0.809574 0.0103,0.373648 -0.20758,1.951277 -0.40479,2.03431 -0.1972,0.08303 -1.21435,0.633128 -1.68142,0.37365 -0.46706,-0.259479 -1.02753,-0.975639 -1.02753,-0.975639 0,0 -0.33214,-1.515355 0.11417,-1.712559 0.4463,-0.197204 0.74729,-0.487819 0.74729,-0.487819 z"
           id="path31" /><path
           style="opacity:1;fill:#e6c18e;fill-opacity:1;stroke-width:2.117;stroke-linejoin:round;stroke-miterlimit:3.1;paint-order:markers stroke fill"
           d="m 143.0391,63.010536 c 0,0 0.16146,1.453155 0.13211,1.790756 -0.0293,0.337602 -0.71924,1.203623 -0.71924,1.203623 l -0.79263,0.86602 c 0,0 -1.59994,-1.188944 -1.54123,-1.922859 0.0587,-0.733917 0.71924,-1.58526 0.71924,-1.58526 0,0 0.63117,0.366958 1.13023,0.146784 0.49906,-0.220176 0.64585,-0.513742 0.82199,-0.499064 0.17614,0.01467 0.24953,0 0.24953,0 z"
           id="path32" /><path
           style="opacity:1;fill:#e6c18e;fill-opacity:1;stroke-width:2.117;stroke-linejoin:round;stroke-miterlimit:3.1;paint-order:markers stroke fill"
           d="m 136.46321,61.7482 c 0,0 0.23485,-0.234853 1.17427,0.146784 0.93941,0.381636 1.70268,1.291692 1.70268,1.291692 0,0 -0.73392,1.438476 -0.58713,1.820112 0.14678,0.381637 0.0293,1.027484 0.0293,1.027484 0,0 -0.23486,0.410992 -0.73392,0.322922 -0.49906,-0.08807 -2.28982,-0.61649 -2.28982,-0.61649 0,0 0.91006,-1.409118 0.8807,-2.436601 -0.0293,-1.027483 -0.17614,-1.555903 -0.17614,-1.555903 z"
           id="path33" /><path
           style="opacity:1;fill:#e6c18e;fill-opacity:1;stroke-width:2.117;stroke-linejoin:round;stroke-miterlimit:3.1;paint-order:markers stroke fill"
           d="m 133.76384,62.149933 c 0.22834,0.06228 2.7816,-0.02076 2.84388,-0.456681 0.0623,-0.435924 -0.16607,-0.809574 -0.2491,-0.830332 -0.083,-0.02076 -1.14171,0 -1.41156,0.08303 -0.26986,0.08303 -1.18322,1.20398 -1.18322,1.20398 z"
           id="path34" /><path
           style="opacity:1;fill:#e6c18e;fill-opacity:1;stroke-width:2.117;stroke-linejoin:round;stroke-miterlimit:3.1;paint-order:markers stroke fill"
           d="m 136.12561,62.144516 c 0.1321,0.220174 0.74859,0.440349 0.49906,1.511867 -0.24953,1.071517 -0.57245,1.717363 -0.79262,2.054965 -0.22018,0.337601 -1.14492,1.614616 -1.89351,1.893504 -0.7486,0.278888 -1.82011,0.484385 -2.11368,0.26421 -0.29357,-0.220175 -1.5559,-0.910056 -1.67333,-1.423798 -0.11742,-0.513741 -0.39631,-1.159587 -0.0293,-1.423796 0.36696,-0.264211 1.79076,-0.733918 2.45128,-1.350407 0.66053,-0.61649 1.23298,-1.277013 2.12836,-1.423797 0.89538,-0.146784 1.42379,-0.102748 1.42379,-0.102748 z"
           id="path35" /><path
           style="opacity:1;fill:#eea247;fill-opacity:1;stroke-width:2.117;stroke-linejoin:round;stroke-miterlimit:3.1;paint-order:markers stroke fill"
           d="m 136.60999,62.584865 c -0.0734,0.102749 -0.4697,0.308246 -1.23298,1.027483 -0.76327,0.719238 -1.82011,2.054966 -0.92473,1.952218 0.89538,-0.102749 1.73204,-0.777953 1.73204,-0.998127 0,-0.220176 0.42567,-1.981574 0.42567,-1.981574 z"
           id="path36" /><path
           style="opacity:1;fill:#b68b57;fill-opacity:1;stroke-width:2.117;stroke-linejoin:round;stroke-miterlimit:3.1;paint-order:markers stroke fill"
           d="m 130.25428,66.914971 c 0.13211,-0.05871 0.95409,-0.396314 2.05497,-0.675203 1.10087,-0.278888 2.46595,0.293566 2.40724,0.381637 -0.0587,0.08807 -0.13211,1.262335 -0.91005,1.130231 -0.77796,-0.132106 -1.71737,-0.01467 -2.11368,-0.08807 -0.39632,-0.07339 -1.43848,-0.748594 -1.43848,-0.748595 z"
           id="path38" /><path
           style="opacity:1;fill:#fefbca;fill-opacity:1;stroke-width:2.117;stroke-linejoin:round;stroke-miterlimit:3.1;paint-order:markers stroke fill"
           d="m 134.40824,66.797543 c 0,0 -0.8073,0.07339 -1.15958,-0.396314 -0.35228,-0.469706 -0.52842,-0.79263 0.64585,-1.232979 1.17426,-0.44035 1.32104,-0.631167 1.79075,-0.587134 0.46971,0.04404 0.55778,0.07339 0.55778,0.07339 0,0 -0.16146,0.689882 -0.42567,0.954091 -0.26421,0.264211 -1.40913,1.188944 -1.40913,1.188944 z"
           id="path39" /><path
           style="opacity:1;fill:#b68b57;fill-opacity:1;stroke-width:2.117;stroke-linejoin:round;stroke-miterlimit:3.1;paint-order:markers stroke fill"
           d="m 138.6109,64.526757 c -0.0519,-0.03114 0.0104,0.02076 -0.57086,-0.207583 -0.58123,-0.228341 -1.41156,-1.702178 -1.37004,-1.639905 0.0415,0.06227 -1.03792,2.916539 -0.46707,3.144882 0.57085,0.22834 2.63631,1.089808 2.71934,0.114169 0.083,-0.975639 -0.23872,-1.370046 -0.23872,-1.370046 z"
           id="path40" /><path
           style="opacity:1;fill:#fefbca;fill-opacity:1;stroke-width:2.117;stroke-linejoin:round;stroke-miterlimit:3.1;paint-order:markers stroke fill"
           d="m 137.89473,64.412587 c 0,0 0.49301,-0.524148 0.29062,-0.944503 -0.2024,-0.420355 -0.52934,-0.290615 -0.8459,0.285428 -0.31656,0.576041 -0.1505,0.768055 0.10898,0.794004 0.25947,0.02595 0.4463,-0.134929 0.4463,-0.134929 z"
           id="path41" /><path
           style="opacity:1;fill:#b68b57;fill-opacity:1;stroke-width:2.117;stroke-linejoin:round;stroke-miterlimit:3.1;paint-order:markers stroke fill"
           d="m 133.32791,62.284863 c 0,0 0.0207,0.342512 -0.5501,0.155686 -0.57085,-0.186824 -1.93051,-0.36327 -1.57763,0.280237 0.3529,0.643507 1.56725,0.73692 1.56725,0.73692 0,0 0.59162,-0.508578 0.63314,-0.716162 0.0415,-0.207582 -0.0727,-0.456681 -0.0727,-0.456681 z"
           id="path42" /><path
           style="opacity:1;fill:#b68b57;fill-opacity:1;stroke-width:2.117;stroke-linejoin:round;stroke-miterlimit:3.1;paint-order:markers stroke fill"
           d="m 142.01161,66.401229 c 0,0 -1.20362,-0.954091 -0.70455,-1.48251 0.49906,-0.52842 1.8935,-0.132106 1.8935,-0.132106 l -0.41099,0.998126 z"
           id="path43" /><path
           style="opacity:1;fill:#fefbca;fill-opacity:1;stroke-width:2.117;stroke-linejoin:round;stroke-miterlimit:3.1;paint-order:markers stroke fill"
           d="m 143.15696,63.644529 c 0,0 -0.42555,-0.23872 -0.87185,0.25948 -0.4463,0.498199 -0.26986,0.550094 -0.083,0.830331 0.18682,0.280237 -0.45668,0.622749 0.32175,0.477441 0.77844,-0.145308 0.68502,-0.643507 0.67464,-0.695402 -0.0104,-0.0519 -0.0415,-0.87185 -0.0415,-0.87185 z"
           id="path44" /><path
           style="opacity:1;fill:#fefbca;fill-opacity:1;stroke-width:2.117;stroke-linejoin:round;stroke-miterlimit:3.1;paint-order:markers stroke fill"
           d="m 132.7882,63.333155 c 0,0.207584 0.26985,1.453081 1.05867,1.017156 0.78881,-0.435923 0.60199,-1.079429 0.83033,-1.266255 0.22834,-0.186824 0.47744,-0.934123 0.47744,-0.934123 0,0 -0.53972,-0.207582 -0.89261,0.186826 -0.35289,0.394406 -1.47383,0.996396 -1.47383,0.996396 z"
           id="path76" /></g><g
         inkscape:groupmode="layer"
         id="layer9"
         inkscape:label="Bawang Goreng-O"><path
           id="path17"
           style="opacity:1;fill:#010000;fill-opacity:1;stroke-width:2.117;stroke-linejoin:round;stroke-miterlimit:3.1;paint-order:markers stroke fill"
           d="m 129.66805,68.452808 c -0.31267,0.01038 -0.64751,0.147646 -0.86547,0.682171 -0.43592,1.069052 -0.44618,1.505143 0.35302,1.806137 0.79919,0.300996 1.46344,0.612459 2.15884,0.384118 0.6954,-0.228341 1.25581,-1.432611 0.90292,-1.598678 -0.35289,-0.166065 -0.41522,-0.103579 -0.41522,-0.103579 -0.15569,-0.103792 -1.1417,-1.141739 -1.40119,-1.089843 -0.12973,0.02595 -0.42023,-0.0907 -0.7329,-0.08033 z m 0.52756,0.568627 c 0.25687,0.0073 1.07142,0.851279 1.07142,0.851279 0,0 -0.10281,0.271592 -0.0441,0.528463 0.0587,0.25687 -1.37972,0.0218 -1.76869,-0.345161 -0.38897,-0.366958 0.48449,-1.041927 0.74136,-1.034581 z" /><path
           id="path18"
           style="opacity:1;fill:#010000;fill-opacity:1;stroke-width:2.117;stroke-linejoin:round;stroke-miterlimit:3.1;paint-order:markers stroke fill"
           d="m 131.19033,60.382718 c -0.12632,-0.01076 -0.29219,0.01521 -0.49585,0.103277 -0.5431,0.234852 -0.73381,0.719119 -0.73381,0.80719 0,0.08807 0.0719,0.381948 0.0459,0.387137 -0.0259,0.0052 -0.0311,-0.0079 -0.0311,-0.0079 0,0 -1.34941,-0.830208 -2.03443,-0.487696 -0.68503,0.342511 -1.35962,0.798982 -1.34924,0.944289 0.0104,0.145308 0.0311,0.737097 0.28023,0.768235 0.2491,0.03114 0.17639,-0.103848 0.62268,-0.415222 0.44631,-0.311373 1.01726,-0.820052 1.58811,-0.467161 0.57085,0.352889 0.77836,0.384162 0.81988,0.716294 0.0415,0.332132 0.052,0.954768 0.5813,1.131214 0.52934,0.176444 0.6852,0.280237 0.6852,0.280237 0,0 -0.38409,0.31152 -0.9757,0.519102 -0.88332,0.301902 -0.98996,0.866344 -0.70449,1.707681 0.23872,0.653884 0.95352,1.374698 2.08484,1.675693 1.13132,0.300995 1.61917,0.249346 1.56727,0.425791 -0.0519,0.176446 -0.26999,0.62277 -0.15582,1.006798 0.11417,0.384028 0.37362,0.165933 0.11415,0.404652 -0.25948,0.23872 -0.71692,1.70025 0.25185,2.199314 0.96877,0.499062 1.1451,0.880873 1.1451,0.880873 0,0 1.1743,0.763015 2.73019,0.528162 1.5559,-0.234853 2.4071,-1.819921 1.84933,-2.142844 -0.55778,-0.322922 -0.54803,-0.002 -0.41311,0.184811 0.13493,0.186824 -0.0416,0.820051 -0.7163,1.027635 -0.67464,0.207582 -1.15188,0.311364 -1.86804,0.197192 -0.71616,-0.11417 -1.21457,-0.09365 -1.2976,-0.342746 -0.083,-0.249099 -0.92365,-0.902762 -0.93402,-1.141481 -0.0104,-0.238721 -0.13484,-1.017267 0.0209,-1.390916 0.15568,-0.373649 0.69546,-1.774698 0.7785,-2.086072 0.083,-0.311374 0.31134,-0.404852 0.31134,-0.218028 0,0.186824 -0.0209,1.743515 0.76793,2.314367 0.78882,0.570852 2.14837,0.986086 2.5324,0.778503 0.38402,-0.207583 0.16623,-0.332098 -0.43576,-0.591578 -0.60198,-0.259477 -1.61921,-0.944334 -1.89944,-1.836939 -0.28024,-0.892604 -0.50841,-1.422186 -0.43576,-1.546737 0.0726,-0.12455 1.0584,-0.767923 1.36978,-2.926781 0.31137,-2.15886 -0.37354,-2.241815 -0.85098,-2.221057 -0.47744,0.02076 -0.66417,-2.13e-4 -0.93403,0.103579 -0.26985,0.103791 -1.03793,0.529404 -1.8475,1.058739 -0.80957,0.529336 -1.14182,1.037891 -1.39092,0.954858 -0.2491,-0.08303 -1.37007,-0.498008 -1.28704,-0.830141 0.083,-0.332132 -0.22821,-1.474083 0.35302,-1.826974 0.58123,-0.352891 0.5605,-0.21775 0.58644,-0.383815 0.0162,-0.103792 -0.0848,-0.223646 -0.29533,-0.241584 z m 3.70619,2.074596 c 0.2966,0.0012 0.69158,0.156803 1.24385,0.05405 0,0 0.30818,0.587299 0.0293,1.776241 -0.27888,1.188944 -1.23306,1.981409 -1.46792,1.996082 -0.23485,0.01468 -0.92451,0.983423 -1.05662,0.96875 -0.1321,-0.01469 -0.52751,0.09526 -1.4816,0.09526 -1.24712,0 -2.10113,-0.784908 -1.80635,-1.78302 0.11905,-0.403109 1.57055,-0.939458 2.27511,-1.350451 0.70456,-0.410992 1.8346,-1.687933 2.14284,-1.746647 0.0385,-0.0073 0.079,-0.01044 0.1214,-0.01027 z"
           sodipodi:nodetypes="sssscscssscscssssssscsssssscsssssssssssssssssscsssssssssc" /><path
           id="path19"
           style="opacity:1;fill:#010000;fill-opacity:1;stroke-width:2.117;stroke-linejoin:round;stroke-miterlimit:3.1;paint-order:markers stroke fill"
           d="m 142.95181,62.501706 c -0.021,-8.77e-4 -0.0425,-4.15e-4 -0.0646,0.0012 -0.70578,0.0519 -1.15226,0.498041 -1.60895,0.5188 -0.45668,0.02076 -0.44624,-0.07272 -0.70572,0.06221 -0.25949,0.13493 -0.55007,0.61248 -0.67462,1.110679 -0.12456,0.498198 -0.052,0.861547 -0.052,0.861547 0,0 0.64357,1.619223 1.61921,1.702257 0.97564,0.08303 2.24197,-1.972148 2.26272,-2.511863 0.0201,-0.52285 -0.12531,-1.717843 -0.77608,-1.744835 z m -0.41582,0.821081 c 0.27315,-0.01235 0.40041,0.691555 0.52755,1.172886 0.1453,0.550094 -0.67465,1.525812 -1.20399,1.702257 -0.52933,0.176446 -0.46207,0.05445 -1.07927,-0.446325 -0.6396,-0.518958 0.0544,-2.179686 0.19719,-2.179686 0,0 0.20752,0.06217 0.34245,0.09331 0.13493,0.03113 0.72657,-0.02065 1.08984,-0.290504 0.0454,-0.03373 0.0872,-0.05017 0.12623,-0.05194 z"
           sodipodi:nodetypes="ssssscssssssscsss" /><path
           style="opacity:1;fill:#010000;fill-opacity:1;stroke-width:2.117;stroke-linejoin:round;stroke-miterlimit:3.1;paint-order:markers stroke fill"
           d="m 133.07881,62.92837 c 0,0 0.34251,-1.411564 -0.10379,-1.619147 -0.4463,-0.207583 -1.1417,-0.155687 -1.43232,-0.394407 -0.29062,-0.23872 0.11278,-0.733127 0.67464,-0.529336 0.57232,0.207583 0.28168,0.27942 0.58124,0.34251 0.3952,0.08324 0.91336,-0.425543 1.0379,0.25948 0.12455,0.685025 -0.0415,1.473838 -0.0415,1.473838 z"
           id="path20"
           sodipodi:nodetypes="cssssscc" /><path
           style="opacity:1;fill:#010000;fill-opacity:1;stroke-width:2.117;stroke-linejoin:round;stroke-miterlimit:3.1;paint-order:markers stroke fill"
           d="m 142.78957,66.724153 c -0.3836,-0.613749 -2.70149,-0.29464 -3.15584,-0.146784 -0.45465,0.147951 -0.74859,0.675204 0.0441,0.763273 0.79263,0.08807 1.40911,-0.396315 2.46596,0.322925 1.05683,0.719238 1.3504,2.069643 0.29356,3.199874 -1.05684,1.130232 -1.05684,0.895379 -1.4238,0.807309 -0.36696,-0.08807 -0.45502,-0.484385 -0.45502,-0.484385 l -0.35228,0.249532 c 0,0 -0.0734,0.469706 0.45502,0.616489 0.52842,0.146783 0.44035,0.396315 0.70456,0.381636 0.26421,-0.01467 1.67333,-0.910056 1.87883,-1.365084 0.2055,-0.455027 1.10087,-1.144908 0.79263,-2.62742 -0.30824,-1.482509 -1.24766,-1.717363 -1.24766,-1.717363 z"
           id="path21"
           sodipodi:nodetypes="csssssccsssscc" /><path
           style="opacity:1;fill:#010000;fill-opacity:1;stroke-width:2.117;stroke-linejoin:round;stroke-miterlimit:3.1;paint-order:markers stroke fill"
           d="m 139.35484,66.75351 c 0,0 -1.59993,0.792629 -1.17427,1.585258 0.42567,0.792629 0.91006,1.086195 1.43848,1.188943 0.52842,0.102749 1.13023,-0.08807 1.24766,-0.04403 0.11743,0.04403 0.10275,0.513742 -0.17614,0.968769 -0.27889,0.455028 -1.15959,1.159587 -0.57246,1.262336 0.58714,0.102748 0.92474,-0.366958 1.14492,-0.719238 0.22017,-0.352279 0.36695,-1.056839 0.2642,-1.291692 -0.10274,-0.234854 -0.24953,-0.425671 -0.1321,-0.499063 0.11743,-0.07339 0.51374,-0.146784 0.29356,-0.35228 -0.22017,-0.205497 -1.02748,-0.396315 -1.82011,-0.396315 -0.79263,0 -1.48251,-0.425672 -0.98345,-0.939413 0.49907,-0.513741 0.57246,-0.337601 0.58714,-0.499062 0.0147,-0.161461 -0.11743,-0.26421 -0.11743,-0.26421 z"
           id="path22" /><path
           style="opacity:1;fill:#010000;fill-opacity:1;stroke-width:2.117;stroke-linejoin:round;stroke-miterlimit:3.1;paint-order:markers stroke fill"
           d="m 135.66322,66.052491 c 0.20758,0.04152 0.80957,0.705782 2.10696,0.664265 1.2974,-0.04152 1.59839,-1.037914 1.45308,-1.463459 -0.14531,-0.425544 -0.29061,-0.259479 -0.14531,-0.47744 0.14531,-0.217962 0.59162,-1.131328 0.65389,-1.743697 0.0623,-0.612369 -2.10696,-1.619146 -2.50137,-1.691799 -0.39441,-0.07265 -0.70578,-0.176446 -0.88223,-0.02076 -0.17644,0.155686 -0.15569,0.643506 0.64351,0.809572 0.79919,0.166067 2.07583,0.840712 1.99279,1.224738 -0.083,0.384029 -0.90298,1.504977 -0.70578,1.743697 0.19721,0.23872 0.65389,0.674644 0.0623,0.788814 -0.59162,0.114171 -1.38043,-0.04151 -1.76446,-0.217962 -0.38403,-0.176444 -0.32175,-0.36327 -0.43593,-0.197203 -0.11416,0.166066 -0.47743,0.581232 -0.47743,0.581232 z"
           id="path23" /><path
           style="opacity:1;fill:#010000;fill-opacity:1;stroke-width:2.117;stroke-linejoin:round;stroke-miterlimit:3.1;paint-order:markers stroke fill"
           d="m 133.77421,61.714009 c 0.0104,-0.07265 0.083,-0.425544 0.51896,-0.778435 0.43593,-0.352891 1.72294,-0.736919 2.17962,-0.373649 0.45668,0.36327 0.34251,0.944502 0.34251,0.944502 0,0 -0.25948,-0.01037 -0.30099,-0.01037 -0.0416,0 0.11417,-0.394407 -0.57086,-0.425545 -0.68502,-0.03114 -1.02753,0.352891 -1.23512,0.570854 -0.20758,0.217961 -0.1972,0.570853 -0.1972,0.570853 l -1.28701,0.633127 z"
           id="path24" /></g></g></g></svg>
