<?xml version="1.0" encoding="UTF-8" standalone="no"?>
<!-- Created with Inkscape (http://www.inkscape.org/) -->

<svg
   width="43.601124mm"
   height="33.439865mm"
   viewBox="0 0 43.601124 33.439865"
   version="1.1"
   id="svg1"
   inkscape:version="1.3 (0e150ed6c4, 2023-07-21)"
   sodipodi:docname="klepon.svg"
   xmlns:inkscape="http://www.inkscape.org/namespaces/inkscape"
   xmlns:sodipodi="http://sodipodi.sourceforge.net/DTD/sodipodi-0.dtd"
   xmlns="http://www.w3.org/2000/svg"
   xmlns:svg="http://www.w3.org/2000/svg">
  <sodipodi:namedview
     id="namedview1"
     pagecolor="#ffffff"
     bordercolor="#000000"
     borderopacity="0.25"
     inkscape:showpageshadow="2"
     inkscape:pageopacity="0.0"
     inkscape:pagecheckerboard="0"
     inkscape:deskcolor="#d1d1d1"
     inkscape:document-units="mm"
     inkscape:zoom="3.7241354"
     inkscape:cx="56.657446"
     inkscape:cy="51.958369"
     inkscape:window-width="1920"
     inkscape:window-height="974"
     inkscape:window-x="-11"
     inkscape:window-y="-11"
     inkscape:window-maximized="1"
     inkscape:current-layer="g4" />
  <defs
     id="defs1">
    <pattern
       id="EMFhbasepattern"
       patternUnits="userSpaceOnUse"
       width="6"
       height="6"
       x="0"
       y="0" />
  </defs>
  <g
     inkscape:groupmode="layer"
     id="layer2"
     inkscape:label="Layer 2"
     transform="translate(-63.102656,-149.55027)">
    <path
       style="opacity:1;fill:#111b09;stroke-width:2.117;stroke-linejoin:round;stroke-miterlimit:3.1;paint-order:markers stroke fill"
       d="m 85.603518,153.92557 c -9.890831,-0.84038 -21.358477,4.19852 -22.405617,12.15731 -1.147822,8.72402 8.223519,16.41583 20.295671,16.87957 10.401988,0.39958 23.066698,-3.49144 23.209408,-13.96584 0.11414,-8.37772 -12.044398,-14.30167 -21.099462,-15.07104 z"
       id="path22"
       sodipodi:nodetypes="sssss" />
    <path
       style="opacity:1;fill:#f1f5f6;fill-opacity:1;stroke-width:2.117;stroke-linejoin:round;stroke-miterlimit:3.1;paint-order:markers stroke fill"
       d="m 85.674563,155.0623 c -9.890831,-0.84038 -19.864927,3.65218 -21.123226,11.58033 -1.147822,7.23206 7.107599,13.8338 18.256159,15.07904 10.345326,1.15553 21.947044,-3.95486 22.758754,-12.36983 0.68843,-7.13688 -10.836623,-13.52017 -19.891687,-14.28954 z"
       id="path23"
       sodipodi:nodetypes="sssss" />
  </g>
  <g
     inkscape:groupmode="layer"
     id="layer3"
     inkscape:label="Food"
     transform="rotate(-1.2104884,16.526947,2.7302945)">
    <g
       inkscape:label="F"
       inkscape:groupmode="layer"
       id="layer1"
       transform="translate(-63.102657,-150.26217)">
      <path
         style="opacity:1;fill:#4c6b3d;fill-opacity:1;stroke-width:2.117;stroke-linejoin:round;stroke-miterlimit:3.1;paint-order:markers stroke fill"
         d="m 79.411189,150.74094 c 0.301942,0.14209 1.651809,0.31971 2.220174,1.77614 0.568365,1.45644 2.255697,5.59484 2.007037,5.50603 -0.248659,-0.0888 4.351541,-4.28049 5.399463,-4.72453 1.047922,-0.44403 1.989277,0.1421 1.989277,0.1421 0,0 -1.172252,4.42258 -1.491959,4.3693 -0.319704,-0.0533 -0.21414,6.41414 -2.977165,6.06248 -2.763023,-0.35166 -5.335164,-0.006 -5.335164,-0.006 0,0 -2.255698,-2.39779 -2.362266,-3.62332 -0.106569,-1.22554 0.550603,-9.50235 0.550603,-9.50235 z"
         id="path24" />
      <path
         style="opacity:1;fill:#719d5a;fill-opacity:1;stroke-width:2.117;stroke-linejoin:round;stroke-miterlimit:3.1;paint-order:markers stroke fill"
         d="m 89.925934,156.81534 c -0.07105,-0.0177 -1.136729,-0.19538 -1.474197,-0.24866 -0.337466,-0.0533 -0.603885,-1.19001 -1.616287,-1.04792 -1.012399,0.14209 -3.392424,2.06032 -3.481231,2.48659 -0.08881,0.42628 0.248658,1.50972 0.63941,1.84719 0.39075,0.33746 5.434986,0.33746 5.381702,0.12433 -0.05329,-0.21314 0.550603,-3.16153 0.550603,-3.16153 z"
         id="path25" />
      <path
         style="opacity:1;fill:#719d5a;fill-opacity:1;stroke-width:2.117;stroke-linejoin:round;stroke-miterlimit:3.1;paint-order:markers stroke fill"
         d="m 81.009714,152.05529 c -0.301943,0.12433 -0.763741,-0.0533 -1.26106,0.56836 -0.497319,0.62165 -0.657169,0.99464 -0.657169,1.17225 0,0.17762 -0.195377,5.31066 -0.195377,5.45275 0,0.14209 1.101207,-1.58076 1.420911,-2.85958 0.319706,-1.27882 1.456436,-3.17929 1.456436,-3.17929 z"
         id="path26" />
      <path
         style="opacity:1;fill:#719d5a;fill-opacity:1;stroke-width:2.117;stroke-linejoin:round;stroke-miterlimit:3.1;paint-order:markers stroke fill"
         d="m 80.849861,159.44403 c 0,0 -0.639411,0.28418 -0.01775,1.04792 0.621649,0.76374 1.154491,0.92359 1.190014,0.81702 0.03552,-0.10657 0.888071,-2.5754 0.319706,-2.73525 -0.568364,-0.15985 -0.461798,-0.51508 -0.923594,-0.14209 -0.461796,0.37299 -0.568364,1.0124 -0.568364,1.0124 z"
         id="path27" />
      <path
         style="opacity:1;fill:#1d4306;fill-opacity:1;stroke-width:2.117;stroke-linejoin:round;stroke-miterlimit:3.1;paint-order:markers stroke fill"
         d="m 80.755666,151.67748 c -0.03768,0.18839 -0.05024,0.41445 -0.48981,0.96705 -0.43957,0.55261 -0.828907,2.19787 -0.92938,2.05971 -0.100473,-0.13815 -0.263742,-4.0315 0.02511,-3.95614 0.288861,0.0754 1.394071,0.92938 1.394071,0.92938 z"
         id="path28" />
      <path
         style="opacity:1;fill:#1d4306;fill-opacity:1;stroke-width:2.117;stroke-linejoin:round;stroke-miterlimit:3.1;paint-order:markers stroke fill"
         d="m 80.245973,161.45106 c 0.284184,-0.0355 0.745979,-1.2433 0.834787,-2.23793 0.08881,-0.99464 0.08881,-4.88439 -0.106569,-4.61796 -0.195376,0.26642 -1.989275,4.689 -1.989275,4.689 0,0 0.124328,1.27882 0.142089,1.45644 0.01775,0.17761 1.118968,0.71045 1.118968,0.71045 z"
         id="path29" />
      <path
         style="opacity:1;fill:#1d4306;fill-opacity:1;stroke-width:2.117;stroke-linejoin:round;stroke-miterlimit:3.1;paint-order:markers stroke fill"
         d="m 82.093159,160.4209 c 0,0 -0.445237,1.18786 -0.550603,1.72286 -0.227811,1.15673 0.637591,1.39109 0.90583,0.83478 0.12258,-0.25422 1.207775,-2.46883 0.923594,-2.49547 -0.284184,-0.0266 -0.408514,0.42627 -0.657172,0.32858 -0.248661,-0.0977 -0.621649,-0.39075 -0.621649,-0.39075 z"
         id="path30"
         sodipodi:nodetypes="csscsc" />
      <path
         style="opacity:1;fill:#1d4306;fill-opacity:1;stroke-width:2.117;stroke-linejoin:round;stroke-miterlimit:3.1;paint-order:markers stroke fill"
         d="m 86.558016,156.09831 c 0,0 -0.01257,2.14763 -0.01257,2.66256 0,0.51492 0.13815,0.77867 0.200946,0.70331 0.0628,-0.0753 0.427013,-1.18056 0.703315,-1.43175 0.276302,-0.25118 0.62796,-0.35166 0.62796,-0.35166 0,0 0.866587,-2.78814 0.02511,-2.68766 -0.841468,0.10047 -1.544783,1.1052 -1.544783,1.1052 z"
         id="path31" />
      <path
         style="opacity:1;fill:#6ab138;fill-opacity:1;stroke-width:2.117;stroke-linejoin:round;stroke-miterlimit:3.1;paint-order:markers stroke fill"
         d="m 84.597514,152.36611 c 0.03552,0 1.056804,0.5062 1.269942,0.67493 0.213135,0.16874 1.927111,-0.47067 2.255697,-0.0355 0.328584,0.43516 0.479557,0.77262 0.435152,0.77262 -0.0444,0 -4.724529,3.83646 -4.919905,3.78318 -0.195374,-0.0533 -1.616287,-4.20945 -1.616287,-4.20945 0,0 1.563002,0.37299 1.90047,0.17761 0.337466,-0.19537 0.674931,-1.16337 0.674931,-1.16337 z"
         id="path32" />
      <path
         style="opacity:1;fill:#e6eee6;fill-opacity:1;stroke-width:2.117;stroke-linejoin:round;stroke-miterlimit:3.1;paint-order:markers stroke fill"
         d="m 84.234564,153.57391 c 0,0 -0.414454,0.70332 0.301421,0.9545 0.715875,0.25119 2.07227,0.36422 1.645256,-0.0377 -0.427014,-0.4019 -1.067533,-0.51493 -0.94194,-0.60284 0.125592,-0.0879 0.376777,-0.50237 0.326538,-0.6154 -0.05024,-0.11304 -0.113033,-0.97962 -0.389335,-0.99218 -0.276301,-0.0126 -0.94194,1.29359 -0.94194,1.29359 z"
         id="path34" />
      <path
         id="path33"
         style="opacity:1;fill:#a5c3a8;fill-opacity:1;stroke-width:2.117;stroke-linejoin:round;stroke-miterlimit:3.1;paint-order:markers stroke fill"
         d="m 85.554985,154.09602 c -0.08827,0.0459 -0.220309,0.0953 -0.441317,0.16226 -0.265299,0.0804 -0.53529,0.13938 -0.75706,0.18397 0.05,0.0324 0.108926,0.0616 0.179317,0.0863 0.715875,0.25119 2.072391,0.3642 1.645378,-0.0377 -0.196086,-0.18456 -0.435047,-0.30654 -0.626318,-0.39481 z" />
      <path
         id="path35"
         style="opacity:1;fill:#6bb138;fill-opacity:1;stroke-width:2.117;stroke-linejoin:round;stroke-miterlimit:3.1;paint-order:markers stroke fill"
         d="m 90.547492,154.73735 -0.994771,3.12591 c 0,0 -0.461605,-0.31977 -1.216463,-0.18656 -0.754858,0.13321 -1.474329,1.88258 -1.474329,1.88258 0,0 -1.696212,-0.4971 -2.158008,0.36432 -0.461794,0.86142 -0.648022,2.30011 -0.648022,2.30011 0,0 -0.169,1.47429 -0.311092,1.42989 -0.142092,-0.0444 -2.113566,0.0351 -2.113566,0.0351 0,0 -0.372815,-0.92341 -0.15968,-1.59835 0.213137,-0.67493 -0.639755,-0.51522 -0.639755,-0.51522 0,0 -1.616095,-0.14188 -1.935799,-0.83457 -0.319706,-0.6927 -0.195337,-2.84169 -0.195337,-2.84169 0,0 -0.639468,0.18653 -0.905888,0.524 -0.266421,0.33746 -0.621667,1.10123 -0.621667,1.10123 0,0 -5.861898,2.12538 -6.339148,2.2133 -0.477249,0.0879 -1.256125,0.31416 -1.431954,0.56534 -0.175829,0.25119 -0.0124,1.60714 -0.0124,1.60714 l 0.02532,3.2153 -2.599841,-0.13797 -0.163298,2.73781 c 0,0 -0.941951,1.0426 -0.992187,1.97198 -0.05024,0.92938 -0.803785,2.17232 0.703316,3.30264 1.507103,1.13033 2.729072,2.11676 5.890597,2.82722 3.161523,0.71045 4.262789,-0.85215 4.262789,-0.85215 0,0 0.639371,0.0976 0.914672,0.10645 0.275301,0.009 0.532784,-0.13332 0.532784,-0.13332 l 0.08888,-1.31413 0.639237,-0.15141 c 0,0 -0.470581,2.23834 2.868559,3.94342 3.339139,1.7051 5.185963,0.92317 6.891052,0.71004 1.705093,-0.21314 4.191993,-2.62826 4.191993,-2.62826 0,0 3.872135,2.30865 4.014225,2.3797 0.120344,0.0601 3.826279,-0.18997 5.094779,-1.80506 0.20031,0.0754 0.62861,0.22946 0.81597,0.24288 0.24866,0.0178 1.50947,-0.79892 1.50947,-0.79892 0,0 0.1425,-0.56879 0.1602,-0.72864 0.0172,-0.15504 -0.86916,-0.50429 -0.92346,-0.52555 0.42417,-0.79616 0.76688,-1.63779 0.76688,-1.92598 0,-0.49732 0.0713,-1.95388 0.0713,-1.95388 0,0 -1.17246,-1.10106 -1.56321,-1.74047 -0.39075,-0.63941 -0.817,-2.52232 -0.817,-2.52232 0,0 -1.12305,0.27723 -1.07281,-0.36329 0.0502,-0.64052 0.6154,-0.94227 0,-1.25625 -0.6154,-0.31398 -1.746145,-0.79117 -1.746145,-0.79117 0,0 -1.293444,-1.74591 -2.122351,-1.97197 -0.828905,-0.22607 -0.954464,-0.22583 -0.954464,-0.22583 l 0.125574,-1.98437 c 0,0 0.468531,0.53609 0.628385,-0.29869 0.159853,-0.83479 0.12454,-1.29656 0.12454,-1.29656 0,0 -0.20435,-0.43498 -0.230993,-0.39946 -0.02664,0.0355 -2.957443,-0.84388 -2.957443,-0.84388 l -0.479557,-1.04748 -0.887801,-0.28422 c 0,0 -0.568576,0.0355 -0.604098,-0.19534 -0.03552,-0.2309 -1.047998,-2.43344 -1.047998,-2.43344 z"
         sodipodi:nodetypes="ccscscscccscccccccccsccccccccccccccccscsccsccccsccccccc" />
      <path
         style="opacity:1;fill:#a2dd7e;fill-opacity:1;stroke-width:2.117;stroke-linejoin:round;stroke-miterlimit:3.1;paint-order:markers stroke fill"
         d="m 91.305395,159.67769 c 0,0 0.02511,0.45213 -1.306158,0.82891 -1.331275,0.37677 -1.883879,-0.35166 -2.536957,-0.30143 -0.653079,0.0502 -0.904264,0.30143 -0.62796,1.10521 0.276302,0.80379 0.552604,0.50237 0.200946,1.48199 -0.351658,0.97962 -1.783406,2.16018 0.02511,2.88862 1.808525,0.72843 0.854025,-1.93412 1.808525,-1.65782 0.954497,0.2763 -0.175829,1.00474 1.481984,1.75829 1.657816,0.75355 2.813262,0.40189 1.783408,-0.60284 -1.029856,-1.00474 -0.50237,-1.53222 0.125592,-2.43649 0.62796,-0.90426 1.908998,-0.90426 1.381512,-1.55734 -0.527487,-0.65308 -0.854025,-0.15071 -1.054973,-0.65308 -0.200946,-0.50236 -1.230802,-0.16327 -1.09265,-0.43957 0.138149,-0.2763 -0.188389,-0.41445 -0.188389,-0.41445 z"
         id="path36" />
      <path
         style="opacity:1;fill:#a2dd7e;fill-opacity:1;stroke-width:2.117;stroke-linejoin:round;stroke-miterlimit:3.1;paint-order:markers stroke fill"
         d="m 98.665087,168.77055 c -0.125592,0 -0.803788,0.40189 -1.180566,0.35166 -0.376774,-0.0502 -0.301421,-1.58246 -1.507103,-1.00474 -1.205683,0.57772 -2.562077,2.1853 -0.47725,2.33601 2.084826,0.15071 2.562076,0.0251 2.662552,0.22607 0.100473,0.20095 -0.552606,1.80852 1.105209,2.38625 1.657811,0.57772 1.331271,-0.90427 1.708051,-0.82891 0.37678,0.0754 2.10995,1.15545 1.53222,-0.50237 -0.57772,-1.65781 -0.42701,-2.31089 -0.42701,-2.31089 0,0 -1.65781,0.50237 -1.83364,0.45213 -0.17583,-0.0502 -0.627963,-0.15071 -0.979621,-0.72843 -0.351657,-0.57773 -0.602842,-0.37678 -0.602842,-0.37678 z"
         id="path37" />
      <path
         style="opacity:1;fill:#a2dd7e;fill-opacity:1;stroke-width:2.117;stroke-linejoin:round;stroke-miterlimit:3.1;paint-order:markers stroke fill"
         d="m 95.525287,172.83973 c -0.100475,0.0502 -1.507104,1.08009 -0.828908,2.71279 0.678196,1.63269 0.527487,2.38625 1.632696,2.10994 1.10521,-0.2763 -0.07536,-1.40663 0.552607,-1.33127 0.627959,0.0754 2.96397,0.42701 1.180562,-1.30616 -1.783405,-1.73317 -1.130326,-1.25592 -1.582459,-1.85876 -0.452131,-0.60284 -0.954498,-0.32654 -0.954498,-0.32654 z"
         id="path38" />
      <path
         style="opacity:1;fill:#a2dd7e;fill-opacity:1;stroke-width:2.117;stroke-linejoin:round;stroke-miterlimit:3.1;paint-order:markers stroke fill"
         d="m 90.677435,175.67811 c 0,0 -0.301421,0.62796 -0.891704,0.80379 -0.590282,0.17583 -0.188388,-0.3391 -0.678196,-0.13815 -0.489809,0.20095 -0.489809,0.66564 -0.828907,0.71587 -0.339098,0.0502 -0.276302,-0.67819 -0.916821,0.18839 -0.64052,0.86659 0.113032,0.41445 0.401894,0.64052 0.288861,0.22607 0.552603,0.20095 0.640519,0.47725 0.08791,0.2763 -0.389337,0.20095 -0.678199,0.2763 -0.288861,0.0754 0.51493,0.41446 0.954501,0.46469 0.439571,0.0502 0.45213,-0.36422 0.527486,-0.59028 0.07536,-0.22607 0.992177,-0.46469 0.439571,-0.6782 -0.552603,-0.2135 -0.766109,-0.67819 -0.351658,-0.79123 0.414454,-0.11303 0.866588,-0.23862 1.054973,-0.28886 0.188389,-0.0502 1.720612,-0.12559 1.255922,-0.79123 -0.46469,-0.66564 -0.929381,-0.28886 -0.929381,-0.28886 z"
         id="path39" />
      <path
         style="opacity:1;fill:#a2dd7e;fill-opacity:1;stroke-width:2.117;stroke-linejoin:round;stroke-miterlimit:3.1;paint-order:markers stroke fill"
         d="m 88.693081,171.65917 c 0,0 0.854025,-1.70806 -0.728434,-1.80853 -1.58246,-0.10047 -1.507104,0.37678 -2.411365,0.50237 -0.904264,0.12559 -1.532224,-1.28104 -2.109947,-0.10047 -0.577723,1.18056 0.502367,1.25591 0.879145,1.25591 0.376774,0 0.577723,-0.0251 0.276301,0.10048 -0.301421,0.12559 -1.105209,0 -1.481986,0.50237 -0.376775,0.50236 0.150712,-0.20095 0.452133,1.02985 0.301419,1.2308 -1.180566,2.21042 0.954497,1.85876 2.135066,-0.35166 0.376778,-2.08482 1.682933,-2.56207 1.306158,-0.47725 2.109946,-0.20095 2.260658,-0.22607 0.15071,-0.0251 0.226065,-0.5526 0.226065,-0.5526 z"
         id="path40" />
      <path
         style="opacity:1;fill:#a2dd7e;fill-opacity:1;stroke-width:2.117;stroke-linejoin:round;stroke-miterlimit:3.1;paint-order:markers stroke fill"
         d="m 83.478546,176.74362 c 0,0 0.337468,0.53284 -0.426273,0.72822 -0.763738,0.19537 -2.788539,-0.28418 -2.237935,0.3197 0.550603,0.60389 2.29122,1.36763 3.641087,1.54525 1.349864,0.17761 3.481231,-0.65717 2.308979,-0.60389 -1.17225,0.0533 -1.616287,-0.44404 -1.190011,-0.63941 0.426273,-0.19538 0.284181,-0.90583 -0.301945,-0.65717 -0.586127,0.24866 -0.159851,-0.55061 -0.692695,-0.88807 -0.532842,-0.33747 -1.101207,0.19537 -1.101207,0.19537 z"
         id="path41" />
      <path
         style="opacity:1;fill:#a2dd7e;fill-opacity:1;stroke-width:2.117;stroke-linejoin:round;stroke-miterlimit:3.1;paint-order:markers stroke fill"
         d="m 76.800265,161.41554 c -0.319707,0.0711 -0.532842,0.10657 -1.847186,0.56836 -1.314344,0.4618 -2.735255,0.63942 -1.349865,1.49196 1.385388,0.85255 3.019436,-0.53284 3.019436,-0.53284 0,0 0.745979,-0.42627 0.888068,0.56836 0.142092,0.99464 0.74598,1.77614 -0.284181,1.59853 -1.03016,-0.17761 -2.131367,-0.63941 -1.918231,0.0355 0.213137,0.67494 1.811663,0.4618 1.811663,1.2433 0,0.7815 0.177614,2.16689 1.065683,1.63405 0.888071,-0.53284 -0.817023,-1.59853 0.497319,-1.66957 1.314344,-0.071 2.522119,-1.42091 0.888071,-1.59853 -1.634048,-0.17761 0.497319,-1.06568 -0.497319,-1.74061 -0.99464,-0.67494 -1.527482,-1.10121 -1.669571,-1.38539 -0.142092,-0.28419 -0.603887,-0.21314 -0.603887,-0.21314 z"
         id="path42" />
      <path
         style="opacity:1;fill:#a2dd7e;fill-opacity:1;stroke-width:2.117;stroke-linejoin:round;stroke-miterlimit:3.1;paint-order:markers stroke fill"
         d="m 74.509044,172.71179 c -0.941353,0.67493 -1.101206,1.06568 -1.261059,0.8703 -0.159854,-0.19537 0.106568,-0.85254 -0.728216,-0.69269 -0.834787,0.15985 -1.243298,1.59853 -0.959117,1.86495 0.284184,0.26642 -1.136729,0.76374 0.426273,1.42091 1.563005,0.65717 1.207775,0 0.888071,-0.21314 -0.319706,-0.21314 0.213135,-1.36763 0.497319,-1.26106 0.284181,0.10657 0.657172,0.79926 0.852546,0.81703 0.195376,0.0178 0.888071,0.47955 0.888071,-0.12433 0,-0.60389 -0.390753,-0.26642 0.284181,-1.06569 0.674934,-0.79926 2.113605,-1.29658 0.763741,-1.13672 -1.349867,0.15985 -1.047922,-0.24867 -1.225537,-0.373 -0.177615,-0.12433 -0.426273,-0.10656 -0.426273,-0.10656 z"
         id="path43" />
      <path
         style="opacity:1;fill:#a2dd7e;fill-opacity:1;stroke-width:2.117;stroke-linejoin:round;stroke-miterlimit:3.1;paint-order:markers stroke fill"
         d="m 70.050934,169.37265 c -0.63941,0.19537 -0.781502,0.46179 -1.42091,0.71045 -0.639411,0.24866 -1.491959,0.44403 -1.136729,1.19001 0.355226,0.74598 -1.616287,1.0124 -0.08881,1.65181 1.527479,0.63941 1.811663,-0.60388 1.438672,-0.99463 -0.372988,-0.39075 2.912869,-1.42092 2.095844,-2.14913 -0.817023,-0.72822 -0.888069,-0.40851 -0.888069,-0.40851 z"
         id="path44" />
      <path
         style="opacity:1;fill:#e6eee6;fill-opacity:1;stroke-width:2.117;stroke-linejoin:round;stroke-miterlimit:3.1;paint-order:markers stroke fill"
         d="m 93.653966,159.12508 c -0.144431,0.0879 -0.665639,0.0691 -0.282583,0.45841 0.383056,0.38934 0.565166,0.49609 0.81007,0.55261 0.244903,0.0565 0.194667,-0.16955 0.383055,0.0126 0.188389,0.18211 0.464691,0.13815 0.200946,0.21351 -0.263742,0.0754 -0.05024,0.54004 -0.439571,0.70331 -0.389334,0.16327 -0.590282,0.12559 -0.841467,0.69076 -0.251182,0.56516 0,1.45059 0.207227,1.27476 0.207227,-0.17583 0.07536,-0.1256 0.3077,-0.54633 0.232346,-0.42073 -0.169548,-0.80379 0.150711,-0.84147 0.32026,-0.0377 0.477251,-0.33909 0.609122,0.0816 0.131871,0.42073 0.09419,0.79123 0.07536,1.04241 -0.01884,0.25119 -0.445852,0.86659 0.0063,0.92938 0.452131,0.0628 0.357936,-0.60912 0.646798,-0.57144 0.288864,0.0377 0.420735,-0.28258 0.200948,-0.54633 -0.219786,-0.26374 -0.01884,-1.29359 -0.01884,-1.29359 0,0 0.270023,-0.73472 0.339098,-0.58401 0.06907,0.15071 0.16955,0.96078 0.16955,0.96078 0,0 0.546325,-0.50236 0.60284,-0.79751 0.05652,-0.29514 0.213508,-0.96705 0.02511,-1.13032 -0.188389,-0.16328 -2.901175,-0.86031 -2.970252,-0.76612 -0.06907,0.0942 -0.156991,0.15699 -0.182108,0.15699 z"
         id="path45" />
      <path
         style="opacity:1;fill:#e6eee6;fill-opacity:1;stroke-width:2.117;stroke-linejoin:round;stroke-miterlimit:3.1;paint-order:markers stroke fill"
         d="m 97.421725,166.93691 -0.0094,0.41538 c 0,0 -0.324146,0.56836 -0.284184,0.70601 0.03996,0.13765 0.444035,1.3099 0.661612,1.37651 0.217578,0.0666 1.13229,0.41295 0.603888,-0.55504 -0.528402,-0.968 -0.603888,-1.19002 -0.244219,-0.99908 0.359667,0.19093 0.821463,-0.15541 0.821463,-0.15541 0,0 0.950235,-0.0355 1.372075,-0.1865 0.42183,-0.15097 0.54172,-0.98576 0.24422,-1.11453 -0.29751,-0.12877 -0.740077,-0.25184 -0.933967,-0.25025 -0.193889,0.002 -2.231524,0.76291 -2.231524,0.76291 z"
         id="path46" />
      <path
         style="opacity:1;fill:#e6eee6;fill-opacity:1;stroke-width:2.117;stroke-linejoin:round;stroke-miterlimit:3.1;paint-order:markers stroke fill"
         d="m 100.92024,168.37801 c -0.009,0.0533 -1.012405,1.26994 -0.84367,1.86494 0.16873,0.59501 1.13673,0.53284 1.10121,0.15097 -0.0355,-0.38187 -0.11545,-0.54172 0.0178,-0.69269 0.13321,-0.15097 0.91471,-1.03016 0.91471,-1.03016 0,0 -0.10657,-0.40851 -0.14209,-0.40851 -0.0355,0 -1.04792,0.11545 -1.04792,0.11545 z"
         id="path47" />
      <path
         style="opacity:1;fill:#e6eee6;fill-opacity:1;stroke-width:2.117;stroke-linejoin:round;stroke-miterlimit:3.1;paint-order:markers stroke fill"
         d="m 94.375162,167.60539 c -0.355227,0.22201 -0.506198,-0.0622 -0.479557,0.34634 0.02664,0.40851 0.479557,0.42628 0.319704,1.05681 -0.159851,0.63053 0.195376,0.95911 0.328586,1.15449 0.133212,0.19537 0.728218,1.34986 0.763741,0.68381 0.03552,-0.66605 -0.399632,-1.31434 0.115448,-1.36763 0.51508,-0.0533 1.118968,-0.17761 0.639411,-0.54172 -0.479558,-0.36411 -0.799264,0.28418 -0.586127,-0.49732 0.213138,-0.7815 -0.115448,-1.13673 -0.159853,-1.12785 -0.0444,0.009 -0.568365,-0.009 -0.568365,-0.009 l -0.426272,0.31971 z"
         id="path48" />
      <path
         style="opacity:1;fill:#e6eee6;fill-opacity:1;stroke-width:2.117;stroke-linejoin:round;stroke-miterlimit:3.1;paint-order:markers stroke fill"
         d="m 85.02379,167.96949 c 0,0 -0.896951,0.61277 -0.310825,1.71398 0.586126,1.10121 1.438672,1.96263 1.287701,1.13673 -0.150972,-0.82591 -0.621649,-1.14561 -0.248661,-1.82942 0.372991,-0.68382 0.630531,-0.95024 0.639411,-0.98576 0.0089,-0.0355 0.319706,-0.39963 0.319706,-0.45292 0,-0.0533 -0.230899,-0.39075 -0.230899,-0.39075 l -0.754859,-0.0533 z"
         id="path49" />
      <path
         style="opacity:1;fill:#e6eee6;fill-opacity:1;stroke-width:2.117;stroke-linejoin:round;stroke-miterlimit:3.1;paint-order:markers stroke fill"
         d="m 102.69637,172.54305 c -0.0266,0.0711 -0.15097,0.42628 -0.35522,0.53284 -0.20426,0.10657 -0.43516,0.75486 -0.66605,0.6927 -0.2309,-0.0622 0.16873,-0.3197 -0.35523,-0.63053 -0.52396,-0.31082 -1.04793,-0.71046 -1.19002,-0.32859 -0.142087,0.38188 0.53285,0.49732 0.58613,0.63942 0.0533,0.14208 0.12433,0.15097 -0.0355,0.21313 -0.15986,0.0622 -0.58613,0.14209 -0.790384,0.5062 -0.204258,0.36411 0.142094,0.33747 -0.248661,0.49732 -0.39075,0.15985 -0.754859,0.37299 -0.355227,0.4618 0.39963,0.0888 0.781502,0.0355 1.021282,-0.4618 0.23978,-0.49732 0.39963,-0.77262 0.65717,-0.68381 0.25754,0.0888 0.595,-0.0622 0.37299,0.36411 -0.22202,0.42627 -0.66605,0.60388 -0.66605,0.94135 0,0.33746 0.15097,0.61277 -0.30195,0.71933 -0.452913,0.10657 -0.843663,0.55061 -1.012398,0.72822 -0.168733,0.17762 -0.106567,0.7371 0.648288,0.47956 0.75486,-0.25754 0.40852,-0.71046 0.77262,-0.67493 0.36411,0.0355 0.4618,0.071 0.53285,0.28418 0.071,0.21314 -1.403151,1.92711 -0.95912,1.98928 1.25509,0.005 6.42442,-2.34917 2.3445,-2.06033 0,0 -0.74597,-0.13321 -0.81702,-0.25754 -0.071,-0.12433 -0.31971,-0.0355 -0.47068,-0.28418 -0.15097,-0.24866 0.15097,0.15097 0.22202,-0.47956 0.071,-0.63053 0.54172,-0.80814 0.87919,-1.32322 0.33747,-0.51508 0.7815,-0.80814 0.7815,-0.80814 0,0 0.92359,-0.47068 0.75486,-0.87031 -0.16873,-0.39963 -1.06568,-1.2877 -1.06568,-1.2877 z"
         id="path50"
         sodipodi:nodetypes="cscssccsscsccscsscccccccscscc" />
      <path
         style="opacity:1;fill:#e6eee6;fill-opacity:1;stroke-width:2.117;stroke-linejoin:round;stroke-miterlimit:3.1;paint-order:markers stroke fill"
         d="m 70.218495,163.80966 c 0,0 -0.646798,0.89171 -0.119311,0.89799 0.527486,0.006 0.571444,-0.74099 0.734713,-1.08009 0.163269,-0.3391 0.828908,-0.69076 0.879144,-1.13033 0.05024,-0.43957 -0.106754,-1.23708 -0.14443,-1.22452 -0.03768,0.0126 -0.891704,0.43329 -1.092653,0.65307 -0.200945,0.21979 -1.318715,0.27631 -1.312436,0.42702 0.0063,0.15071 0.04396,1.31872 0.301421,1.43803 0.257463,0.11931 0.753552,0.0188 0.753552,0.0188 z"
         id="path51" />
      <path
         style="opacity:1;fill:#e6eee6;fill-opacity:1;stroke-width:2.117;stroke-linejoin:round;stroke-miterlimit:3.1;paint-order:markers stroke fill"
         d="m 76.472978,160.29309 c 0,0 0.653079,0.70331 0.602842,1.15545 -0.05024,0.45213 0.301421,0.50236 -0.01257,0.59028 -0.313981,0.0879 -1.670372,0.37677 -1.733169,0.10047 -0.0628,-0.2763 0.125593,-0.9545 -0.351657,-0.81635 -0.47725,0.13815 -0.891704,-0.26374 -1.11777,0.18839 -0.226065,0.45213 -0.46469,0.99218 0.301422,1.18057 0.766111,0.18838 1.193122,-0.31398 1.331275,0.11303 0.138152,0.42701 0.138152,0.71587 0.326538,0.76611 0.188388,0.0502 0.313981,0.16327 0.3391,0.50237 0.02511,0.3391 -0.05024,0.74099 -0.414454,0.69075 -0.364217,-0.0502 -0.376777,-0.28886 -0.653079,-0.0754 -0.276301,0.2135 -0.590282,0.54005 -0.590282,0.81635 0,0.2763 0.728432,1.5071 0.94194,1.59502 0.213506,0.0879 0.828908,0.11303 0.414454,-0.16327 -0.414454,-0.27631 -0.728435,-0.90427 -0.665639,-1.14289 0.0628,-0.23863 0.916821,-0.37678 1.10521,-0.70332 0.188388,-0.32654 0.113032,-0.32654 0.213505,-0.41445 0.100476,-0.0879 0.590283,-1.62014 0.200949,-1.73317 -0.389335,-0.11303 -0.866585,-0.12559 -0.326538,-0.36422 0.540043,-0.23862 1.117766,-0.5526 1.105209,-0.18839 -0.01257,0.36422 0.13815,0.6782 0.364215,0.75356 0.226068,0.0754 -0.150709,0.0251 -0.251182,0.5526 -0.100476,0.52749 -0.288862,0.91682 -0.0628,0.99218 0.226065,0.0754 -1.004737,0.45213 -0.740993,1.24336 0.263742,0.79123 0.64052,0.76611 0.690756,1.14289 0.05024,0.37677 0.326538,0.5526 0.577723,0.65308 0.251185,0.10047 -0.288861,0.40189 -0.791231,0.5526 -0.502367,0.15071 -0.828905,0.35166 -0.489807,0.47725 0.339098,0.12559 0.489807,-0.13815 0.678196,0.11303 0.188388,0.25119 0.351657,0.77867 0.665638,0.36422 0.313979,-0.41445 0.401894,-0.45213 0.401894,-0.86658 0,-0.41446 0.288862,-0.72844 0.376775,-0.60285 0.08792,0.12559 0.439574,0.81635 0.640519,0.96706 0.200949,0.15071 -0.01257,1.10521 0.339101,0.45213 0.351658,-0.65308 0.60284,-0.86658 0.653076,-0.86658 0.05024,0 0.47725,-0.87915 1.180566,-0.86659 0.703315,0.0126 0.602842,-0.12559 0.640519,-0.35165 0.03768,-0.22607 0.439573,-1.99692 0.188389,-2.00948 -0.251185,-0.0126 -0.728435,-0.6154 -0.816349,-0.59028 -0.08791,0.0251 -0.552606,0.72844 -0.866584,0.69076 -0.313981,-0.0377 -1.306158,-0.45213 -1.205685,-0.10048 0.100475,0.35166 0.163272,0.65308 0.640522,0.71588 0.477247,0.0628 0.791228,-0.15071 0.703313,0.2135 -0.08791,0.36422 0.03768,0.42702 0.188388,0.51493 0.150712,0.0879 0.527487,0.4019 -0.02511,0.50237 -0.552606,0.10047 -0.678198,0.0377 -0.891704,0.22607 -0.213505,0.18838 -0.200948,0.52748 -0.401894,0.41445 -0.200948,-0.11303 -0.326541,-0.55261 -0.728435,-0.59028 -0.401894,-0.0377 -0.287501,-0.3259 -0.678251,-0.25486 -0.390753,0.071 -0.479558,-0.8703 -0.959118,-1.03016 -0.479557,-0.15985 -0.639408,-0.0355 -0.461795,-0.3197 0.177614,-0.28418 0.63941,-0.56836 0.852548,-0.5506 0.213135,0.0178 0.657169,-0.0888 0.639411,-0.31971 -0.01775,-0.2309 -0.62165,-0.65717 0.230896,-0.60389 0.852548,0.0533 2.16689,-0.67493 2.16689,-0.67493 0,0 0.603888,-1.22553 0.532842,-1.3321 -0.07105,-0.10657 -0.106569,-0.19538 -0.39075,-0.21314 -0.284184,-0.0178 -1.101207,0.071 -1.172253,0.12433 -0.07104,0.0533 0.03552,0.0533 -0.444034,0.31971 -0.479557,0.26642 0.26642,0.33746 -0.195376,0.51508 -0.461796,0.17761 -0.728215,0.76373 -0.817023,0.19537 -0.08881,-0.56837 0.142089,-0.67493 -0.248661,-0.88807 -0.390749,-0.21314 -0.817022,-1.22554 -0.745979,-1.40315 0.07105,-0.17761 -0.05328,-0.79926 -0.177612,-0.83479 -0.124331,-0.0355 -1.403152,-0.37298 -1.38539,-0.28418 0.01775,0.0888 0.578546,0.76026 0.578546,0.76026 z"
         id="path52" />
      <path
         style="opacity:1;fill:#e6eee6;fill-opacity:1;stroke-width:2.117;stroke-linejoin:round;stroke-miterlimit:3.1;paint-order:markers stroke fill"
         d="m 71.681643,164.01689 c 0,0 -0.527486,-0.13187 -0.835186,0.3391 -0.307702,0.47097 -0.728435,0.40817 -0.527487,0.79123 0.200946,0.38306 0.464691,-0.21979 0.590281,0.0753 0.125592,0.29515 0.665638,1.49455 0.690758,1.09266 0.02511,-0.4019 -0.313981,-0.92938 -0.131874,-1.13033 0.18211,-0.20095 0.119314,-0.0942 -0.106751,-0.28259 -0.226066,-0.18838 -0.0314,-0.49608 0.169547,-0.5212 0.200949,-0.0251 0.232347,-0.20723 0.175829,-0.23863 -0.05652,-0.0314 -0.02511,-0.12559 -0.02511,-0.12559 z"
         id="path53" />
      <path
         style="opacity:1;fill:#e6eee6;fill-opacity:1;stroke-width:2.117;stroke-linejoin:round;stroke-miterlimit:3.1;paint-order:markers stroke fill"
         d="m 72.931284,161.99486 c -0.188389,0.14443 -0.452131,0.44585 -0.690756,0.70332 -0.238625,0.25746 -0.02511,0.35793 -0.07536,0.75983 -0.05024,0.40189 -0.182107,0.94822 0.150709,0.91682 0.33282,-0.0314 0.05652,-0.55888 0.376778,-1.17429 0.320259,-0.6154 0.722153,-1.2622 0.521205,-1.27476 -0.200946,-0.0126 -0.28258,0.0691 -0.28258,0.0691 z"
         id="path54" />
      <path
         style="opacity:1;fill:#e6eee6;fill-opacity:1;stroke-width:2.117;stroke-linejoin:round;stroke-miterlimit:3.1;paint-order:markers stroke fill"
         d="m 73.700901,167.85405 c -0.09769,0.0355 -0.103981,-0.0192 -0.198173,0.14411 -0.09419,0.16327 -0.125592,0.37678 -0.351658,0.42701 -0.226068,0.0502 -0.391522,0.36135 -0.0097,0.4324 0.381871,0.071 0.364109,-0.29307 1.021281,-0.23979 0.657172,0.0533 1.00352,0.20426 0.666052,0.29307 -0.337466,0.0888 0,0.45291 0.408514,0.49732 0.408511,0.0444 0.976876,0.25754 0.976876,0.25754 0,0 0.319704,-0.22202 0.310824,-0.76374 -0.0089,-0.54173 -0.07993,-1.29658 -0.213137,-1.30546 -0.13321,-0.009 -2.516731,-0.19459 -2.516731,-0.19459 z"
         id="path55"
         sodipodi:nodetypes="csscssscsccc" />
      <path
         style="opacity:1;fill:#e6eee6;fill-opacity:1;stroke-width:2.117;stroke-linejoin:round;stroke-miterlimit:3.1;paint-order:markers stroke fill"
         d="m 68.647785,167.45441 c 0,0.10657 -0.05328,0.90583 -0.195376,1.36763 -0.142092,0.4618 -0.497319,0.44404 -0.142092,0.51508 0.35523,0.0711 0.710457,-0.42627 1.438675,-0.56836 0.728215,-0.14209 0.834784,-0.31971 1.385387,-0.15986 0.550603,0.15986 0.568365,0.31971 0.692695,0.35523 0.124331,0.0355 0.284181,-0.30194 0.444035,-0.19537 0.159853,0.10656 0.888068,0.40851 0.390749,0.58612 -0.497318,0.17762 -0.372988,0.12433 -0.497318,0.17762 -0.124331,0.0533 -0.497319,0.21313 -0.728218,0.19537 -0.230897,-0.0178 0.12433,-0.39075 -0.710454,-0.30194 -0.834787,0.0888 -1.208669,0.48208 -1.404042,0.53536 -0.195377,0.0533 -1.118078,0.45928 -1.118078,0.45928 0,0 -0.773395,0.66087 -1.01202,0.71111 -0.238625,0.0502 -0.665639,0.8917 -0.967058,0.97962 -0.301421,0.0879 -1.092652,0.0879 -0.527486,-0.86659 0.565163,-0.9545 1.117769,-1.90899 1.117769,-2.14762 0,-0.23863 -0.891704,-1.82108 -0.163272,-1.98435 0.728435,-0.16328 0.64052,-0.25119 0.854028,-0.16328 0.213505,0.0879 1.08009,0.46469 1.08009,0.46469 z"
         id="path56"
         sodipodi:nodetypes="cscsssssscssccssssscc" />
      <path
         style="opacity:1;fill:#e6eee6;fill-opacity:1;stroke-width:2.117;stroke-linejoin:round;stroke-miterlimit:3.1;paint-order:markers stroke fill"
         d="m 71.009726,169.81296 c 0,0 -0.50237,-0.2449 -0.596564,0.0691 -0.09419,0.31398 -0.0314,0.48981 0.156991,0.6154 0.188388,0.12559 0.03768,0.70332 0.508648,0.46469 0.470969,-0.23863 0.131871,-0.50865 0.213505,-0.6782 0.08164,-0.16955 0.150712,-0.35165 0.01884,-0.29514 -0.131874,0.0565 -0.301422,-0.17583 -0.301422,-0.17583 z"
         id="path57" />
      <path
         id="path58"
         style="opacity:1;fill:#e6eee6;fill-opacity:1;stroke-width:2.117;stroke-linejoin:round;stroke-miterlimit:3.1;paint-order:markers stroke fill"
         d="m 89.2514,168.44812 c -0.0997,-0.006 -0.16443,0.0233 -0.15658,0.12144 0.02511,0.31398 0.06305,0.32659 0.06305,0.32659 -0.05024,0.0628 -0.314101,0.088 -0.238745,0.48989 0.07536,0.4019 0.515029,0.48987 0.364319,1.02991 -0.150712,0.54004 0.225883,0.75363 -0.150895,0.90434 -0.376774,0.15071 -1.26826,-0.10091 -1.506885,0.20051 -0.238625,0.30143 0.0877,0.30163 -0.314193,0.31419 -0.401894,0.0126 -0.728289,-0.46482 -1.004589,-0.11317 -0.276305,0.35166 -0.439657,0.60275 -0.489893,0.62787 -0.05024,0.0251 -0.728442,-0.0125 -0.288871,0.20102 0.43957,0.21351 1.055057,0.18837 1.193209,0.12557 0.138149,-0.0628 0.514835,-0.31396 0.627868,-0.12557 0.113033,0.18839 0.200929,0.40228 0.82889,0.17621 0.627959,-0.22607 1.017538,-0.40215 1.180807,-0.35191 0.163271,0.0502 0.03772,0.35191 0.03772,0.35191 0,0 -0.163381,0.28887 -0.653191,0.70332 -0.489809,0.41446 -0.678545,0.5148 -0.427364,0.87902 0.251185,0.36421 0.741328,0.66542 1.256254,0.10025 0.514927,-0.56516 0.514635,-1.1802 0.602548,-1.39371 0.08791,-0.21351 -0.50191,-0.32696 0.08837,-0.33952 0.590283,-0.0126 0.514827,0.46494 1.042314,0.0631 0.527485,-0.4019 0.65319,-0.54002 0.65319,-0.54002 0,0 0.577394,1.09253 0.853695,1.16789 0.276304,0.0753 0.866456,-0.113 0.879016,-0.25115 0.01257,-0.13815 0.301383,-1.69569 0.251147,-1.8464 -0.05024,-0.15071 -1.130163,-2.0221 -1.130163,-2.0221 l -1.758033,0.96738 -0.74104,-0.74104 c 0,0 -0.05025,-0.80392 -0.288871,-0.81648 -0.164054,-0.009 -0.553745,-0.19548 -0.773079,-0.20929 z m 0.992704,1.29552 1.080037,1.35651 c 0,0 -0.496199,1.02377 -0.65319,0.64699 -0.156988,-0.37677 -0.395619,-0.0819 -0.496093,-0.18862 -0.10047,-0.10675 0.038,-0.28216 0.05684,-0.57102 0.01887,-0.28886 -0.0064,-1.15596 0.0124,-1.24386 z" />
      <path
         style="opacity:1;fill:#e6eee6;fill-opacity:1;stroke-width:2.117;stroke-linejoin:round;stroke-miterlimit:3.1;paint-order:markers stroke fill"
         d="m 72.617456,170.70475 c 0,0 0.381871,-1.12785 0.488437,-0.64829 0.106569,0.47956 -0.346345,0.53284 0.266422,0.57724 0.612767,0.0444 1.012399,0.2309 1.234416,0.0977 0.222017,-0.13321 0.51508,-0.70157 0.497319,0.0266 -0.01775,0.72822 0.186494,0.79038 0.328586,1.2877 0.142092,0.49732 0.06217,1.08345 0.435155,0.90584 0.372988,-0.17762 -0.204256,-0.48844 0.25754,-0.47068 0.461796,0.0178 0.808143,0.0533 0.843666,-0.0977 0.03552,-0.15097 0.230897,-1.76726 0.230897,-1.76726 0,0 1.607407,0.0178 1.545243,0.19538 -0.06217,0.17761 -0.99464,3.19705 -0.99464,3.19705 l 0.05328,0.83478 c 0,0 -0.02664,0.47956 -0.0089,0.51508 0.01775,0.0355 0.337466,0.30195 0.248659,0.54173 -0.0888,0.23977 -0.14209,1.08344 -0.346345,1.11008 -0.204259,0.0266 -0.799264,0.33747 -0.932474,-0.0888 -0.13321,-0.42628 -0.13321,-1.66957 -0.115451,-1.74062 0.01775,-0.0711 0.27023,-0.35749 0.257543,-0.44403 -0.07067,-0.48207 -0.22142,-1.0044 -0.284184,-0.9858 -0.239778,0.071 -0.239778,0.8259 -0.701574,0.69269 -0.461796,-0.13321 -0.275302,-1.06568 -0.817026,-0.95911 -0.541721,0.10656 -1.367626,-0.28419 -0.985755,-0.59501 0.381868,-0.31082 0.896948,0.15985 0.737097,-0.21314 -0.159853,-0.37299 -0.550603,-0.99464 -0.754859,-1.03904 -0.204255,-0.0444 -0.390752,0.28418 -0.666054,0.1865 -0.275301,-0.0977 -0.266419,-0.5062 -0.364106,-0.10657 -0.09769,0.39963 0.115448,0.23978 -0.142092,0.70157 -0.25754,0.4618 -0.06217,0.34635 -0.284184,0.63941 -0.222017,0.29307 -0.834784,0.35523 -1.172252,0.32859 -0.337465,-0.0266 -0.745977,-0.55948 -1.136727,-0.47068 -0.390752,0.0888 -0.266422,-0.12433 -0.417393,0.42628 -0.150971,0.5506 0.01775,0.38187 0.497319,0.81702 0.479557,0.43515 0.155109,0.401 0.958897,0.55171 0.803791,0.15071 1.657816,-0.11303 1.670376,-0.0502 0.01257,0.0628 -0.03768,0.35166 -0.452131,0.50237 -0.414454,0.15071 -0.703315,0.31398 -1.58246,0.11304 -0.879144,-0.20095 -1.40663,-0.90427 -1.657815,-0.99218 -0.251185,-0.0879 -0.401894,0.64052 -0.364218,1.18057 0.03768,0.54004 0.226066,0.60284 0.0628,0.6154 -0.16327,0.0126 -1.645256,0.13815 -1.595017,-0.20095 0.05024,-0.3391 0.401894,-0.55261 0.401894,-0.55261 0,0 0.125592,-0.75355 0.60284,-1.39407 0.47725,-0.64052 0.514929,-0.32654 0.703315,-0.52748 0.188389,-0.20095 -0.276302,-1.0173 0.992177,-1.20569 1.268481,-0.18839 1.331278,0.6154 1.720612,0.2763 0.389334,-0.33909 0.489807,-0.10047 0.401894,-0.35165 -0.08792,-0.25119 -0.577723,-0.22607 -0.213505,-0.79123 0.364214,-0.56517 0.552757,-0.62788 0.552757,-0.62788 z"
         id="path59"
         sodipodi:nodetypes="csssssscscsccsscssscssssssssscssssssssscscsssssscc" />
      <path
         style="opacity:1;fill:#e6eee6;fill-opacity:1;stroke-width:2.117;stroke-linejoin:round;stroke-miterlimit:3.1;paint-order:markers stroke fill"
         d="m 88.34517,174.82539 -0.586126,0.26642 c 0,0 -0.05328,0.35523 -0.745979,0.0888 -0.692695,-0.26642 -1.118968,-0.51508 -0.923592,-0.24866 0.195374,0.26642 0.248658,0.49732 0.834784,0.67493 0.586126,0.17762 0.497319,-0.15985 0.781503,0.14209 0.284181,0.30195 0.142092,0.74598 0.355227,0.31971 0.213137,-0.42627 0.142091,-0.65717 0.266422,-0.79926 0.124328,-0.14209 0.01775,-0.44404 0.01775,-0.44404 z"
         id="path60" />
      <path
         style="opacity:1;fill:#e6eee6;fill-opacity:1;stroke-width:2.117;stroke-linejoin:round;stroke-miterlimit:3.1;paint-order:markers stroke fill"
         d="m 81.507033,169.95877 c -0.106569,0.49732 0.24866,0.58613 0.319706,1.45644 0.07104,0.8703 -0.230899,0.95911 0.497319,1.26105 0.728215,0.30195 0.657169,0.62165 0.745977,0.9236 0.08881,0.30194 0.106569,0.79926 0.106569,0.79926 0,0 -0.781503,0.071 -0.959115,-0.24866 -0.177615,-0.31971 0.142092,-1.0124 -0.301945,-0.87031 -0.444034,0.14209 -0.834784,1.0124 -0.90583,1.19001 -0.07105,0.17762 -0.159853,0.40852 -0.159853,0.40852 0,0 -0.745977,-1.11897 -1.261058,-1.36763 -0.51508,-0.24866 -1.261059,-0.67493 -0.586126,0.40851 0.674931,1.08345 0.870308,0.81703 1.172253,1.38539 0.301942,0.56837 0.710454,1.22553 0.408511,1.38539 -0.301945,0.15985 -0.745979,0.15985 -0.657172,0.37299 0.08881,0.21313 0.177615,0.85254 0.248661,0.83478 0.07104,-0.0178 0.603885,-0.3197 0.870307,-0.0888 0.266419,0.2309 0.621649,1.03016 0.852546,0.47955 0.230899,-0.5506 0,-0.88807 -0.03552,-1.17225 -0.03552,-0.28418 -0.432774,-0.32748 -0.497319,-0.56836 -0.06454,-0.24089 -0.124328,-0.71046 -0.01775,-1.0124 0.106569,-0.30195 0.301945,-1.42091 0.444037,-1.06569 0.142089,0.35523 0.230897,0.2309 0.106566,0.79927 -0.124327,0.56836 -0.15985,0.76374 0.159854,0.85254 0.319706,0.0888 1.243298,0 0.941353,-0.19537 -0.301943,-0.19538 -0.550603,0.19537 -0.497319,-0.30195 0.05329,-0.49731 -0.248658,-0.7815 0.159853,-0.65717 0.408512,0.12433 0.959115,0.0533 1.278822,0.24866 0.319704,0.19538 0.781499,0.14209 0.763738,0.58613 -0.01775,0.44403 -0.337466,0.42627 -0.444034,0.62165 -0.106569,0.19537 -0.142092,0.5506 -0.213138,1.04792 -0.07104,0.49732 -0.301943,0.24866 0.07105,0.83478 0.372991,0.58613 0.51508,0.10657 0.710456,0.0178 0.195377,-0.0888 0.710457,0.30194 1.047922,-0.15985 0.337466,-0.4618 0.372989,-0.58613 -0.142092,-0.51509 -0.51508,0.0711 -0.817022,0.42628 -0.745976,-0.0355 0.07104,-0.46179 0.15985,-0.62164 0.319704,-0.88807 0.159853,-0.26642 0.426272,-0.37299 0.177614,-0.56836 -0.24866,-0.19538 0.124331,-0.44404 0.01775,-0.67494 -0.106569,-0.23089 -0.01775,-0.46179 -0.337468,-0.56836 -0.319704,-0.10657 0.284183,-0.4618 0.550603,-0.92359 0.266422,-0.4618 0.745979,-1.3321 0.319707,-1.10121 -0.426273,0.2309 -0.728218,0.39075 -0.87031,0.79927 -0.142089,0.40851 -0.159851,0.58612 -0.444035,0.56836 -0.284181,-0.0178 -0.497318,0.14209 -0.568364,-0.33747 -0.07105,-0.47955 0.426273,-1.68733 0.05328,-1.65181 -0.372988,0.0355 -0.39075,0.19538 -0.621649,0.15986 -0.230896,-0.0355 -0.372988,0.58612 -0.497319,0.37298 -0.12433,-0.21313 0.266423,-0.58612 -0.08881,-0.85254 -0.355227,-0.26642 -0.213135,0.15985 -0.408511,-0.88807 -0.195377,-1.04792 0.408511,-1.563 -0.213136,-1.58077 -0.621649,-0.0177 -1.527481,0.0533 -1.456436,0.17762 0.07105,0.12433 0.532842,0.17761 0.532842,0.17761 z"
         id="path61" />
      <path
         style="opacity:1;fill:#e6eee6;fill-opacity:1;stroke-width:2.117;stroke-linejoin:round;stroke-miterlimit:3.1;paint-order:markers stroke fill"
         d="m 87.010149,159.51442 c -0.175829,0.12559 -0.678199,0.40189 -1.243362,0.50237 -0.565163,0.10047 -1.41919,-0.79123 -1.532223,0.43957 -0.113033,1.2308 -0.238625,2.13506 -0.150709,2.2481 0.08791,0.11303 0.565163,-0.20095 0.841465,-0.25119 0.276304,-0.0502 0.05024,-1.05497 0.313981,-0.91682 0.263742,0.13815 0.414454,0.0251 0.590282,0.42701 0.175829,0.4019 0.502367,0.71588 0.602843,0.77867 0.100473,0.0628 0.766109,-0.0502 0.954498,-0.37677 0.188388,-0.32654 1.117769,-0.71588 0.540046,-0.74099 -0.577723,-0.0251 -0.565163,0.28886 -1.004737,0.35165 -0.439571,0.0628 -0.678196,-0.20095 -0.879144,-0.32654 -0.200946,-0.12559 -0.301421,0.12559 -0.351658,-0.25118 -0.05024,-0.37678 0.301421,-1.04242 0.552606,-1.19313 0.251183,-0.15071 0.766112,-0.69075 0.766112,-0.69075 z"
         id="path62" />
      <path
         style="opacity:1;fill:#e6eee6;fill-opacity:1;stroke-width:2.117;stroke-linejoin:round;stroke-miterlimit:3.1;paint-order:markers stroke fill"
         d="m 85.779347,164.93371 c -0.02511,0.0628 -0.709597,-0.0691 -0.345379,0.89799 0.364217,0.96706 1.224523,0.39561 1.607579,0.25746 0.383056,-0.13815 0.313978,-0.25118 0.389334,-1.05497 0.07536,-0.80379 0.0063,-0.78495 0.313981,-0.99218 0.3077,-0.20723 0.760159,0.10878 0.706875,1.13895 -0.05328,1.03016 -0.106567,1.1012 0.76374,1.63404 0.870308,0.53284 0.976877,0.4618 1.52748,0.56837 0.550603,0.10657 1.935993,0.19537 1.296582,0.0177 -0.63941,-0.17761 -1.580763,-0.071 -1.012399,-0.40851 0.568365,-0.33747 0.621649,-0.0711 0.959115,-0.4618 0.337465,-0.39075 0.177615,-1.06568 0.39075,-0.62164 0.213138,0.44403 0.461796,0.65717 0.817025,0.79926 0.355227,0.14209 -0.08881,0.10657 0.621649,0.33746 0.710454,0.2309 1.083445,0.28419 1.083445,0.28419 l 0.994638,-0.12433 c 0,0 -0.177615,-1.0124 -0.444035,-1.13673 -0.266422,-0.12433 -0.550603,0.3197 -1.190013,0.0178 -0.639411,-0.30194 -0.674934,-0.33747 -1.083445,-0.47956 -0.408512,-0.14209 1.083445,0.4618 -0.657172,-1.0124 -1.740617,-1.47419 -1.314344,-2.71749 -1.882709,-2.46883 -0.568365,0.24866 -1.13673,0.58613 -1.491956,0.67493 -0.355227,0.0888 -0.337466,0.24866 -0.905831,0.17762 -0.568364,-0.0711 -0.728218,-0.24866 -0.834786,-0.14209 -0.106567,0.10656 -0.03552,0.30194 0.817025,0.51508 0.852546,0.21313 0.994637,-0.12433 1.634048,-0.0178 0.639411,0.10657 0.763738,-0.39075 1.136729,0.2309 0.372989,0.62165 0.230897,0.79926 0.479558,1.19001 0.248658,0.39075 0.568364,0.62165 0.213135,0.90583 -0.355227,0.28419 -0.674931,0.62165 -1.367626,0.53285 -0.692695,-0.0888 -0.976876,0.33746 -1.118968,-0.4618 -0.142092,-0.79926 -0.39075,-0.97688 -0.568365,-1.20777 -0.177614,-0.2309 -0.159853,-0.58613 -0.550603,-0.76374 -0.39075,-0.17762 -1.225537,-0.67494 -1.509718,0.0888 -0.284183,0.76374 0.248658,1.49196 -0.213137,1.7051 -0.461796,0.21313 -0.461796,-0.14209 -0.497319,-0.33747 -0.03552,-0.19537 -0.07923,-0.28277 -0.07923,-0.28277 z"
         id="path63" />
      <path
         style="opacity:1;fill:#e6eee6;fill-opacity:1;stroke-width:2.117;stroke-linejoin:round;stroke-miterlimit:3.1;paint-order:markers stroke fill"
         d="m 98.984243,169.08846 c -0.230896,0.0355 -0.248658,-0.21314 -0.888068,0.2309 -0.639411,0.44404 -1.083445,0.53284 -1.190014,0.74598 -0.106569,0.21314 -0.03552,0.47956 -0.177615,0.5506 -0.142089,0.0711 -0.763738,0 -0.994638,0.28418 -0.230896,0.28419 -0.834784,1.03017 -0.301942,1.0124 0.532842,-0.0178 0.888069,-0.10656 1.03016,-0.21313 0.142092,-0.10657 0.639411,-0.24866 0.639411,-0.24866 0,0 -0.142092,0.60389 -0.142092,0.95911 0,0.35523 0,1.04792 0.586126,1.19002 0.586127,0.14209 1.190014,0.0355 0.959115,-0.10657 -0.230899,-0.14209 -0.674934,0.0178 -0.799264,-0.72822 -0.124328,-0.74598 -0.159851,-0.71045 -0.05328,-1.10121 0.106566,-0.39075 0.284181,-0.51508 0.106566,-0.6394 -0.177612,-0.12434 -0.710453,-0.17762 -0.248658,-0.47956 0.461796,-0.30195 0.550604,-0.44404 0.905831,-0.67494 0.355229,-0.23089 0.852548,-0.0888 0.852548,-0.0888 0,0 0.586126,-0.62165 0.301942,-0.71046 -0.284181,-0.0888 -0.586126,0.0178 -0.586126,0.0178 z"
         id="path64" />
      <path
         style="opacity:1;fill:#e6eee6;fill-opacity:1;stroke-width:2.117;stroke-linejoin:round;stroke-miterlimit:3.1;paint-order:markers stroke fill"
         d="m 99.534846,170.46497 c -0.266419,0.0622 -0.612767,0.22202 -0.879189,0.15985 -0.266419,-0.0622 -0.657172,-0.10657 -0.674931,0.0799 -0.01775,0.18649 0.03552,0.33747 0.444035,0.42627 0.408511,0.0888 1.909349,0.41739 1.767259,0.0533 -0.14209,-0.36411 -0.15097,-0.55061 -0.337467,-0.62165 -0.186497,-0.071 -0.319707,-0.0977 -0.319707,-0.0977 z"
         id="path65" />
      <path
         style="opacity:1;fill:#e6eee6;fill-opacity:1;stroke-width:2.117;stroke-linejoin:round;stroke-miterlimit:3.1;paint-order:markers stroke fill"
         d="m 94.295237,172.3388 c 0,0 0.728215,-0.12433 0.728215,0.071 0,0.19538 -0.106566,0.15986 -0.177612,0.60389 -0.07105,0.44403 -0.248661,0.7815 0.124328,1.04792 0.372991,0.26642 0.301945,0.0888 0.834786,0.31971 0.532842,0.2309 0.586127,0.0888 0.639411,0.47956 0.05328,0.39075 -0.07105,0.39075 0.461796,0.56836 0.532842,0.17761 1.225537,-0.35523 1.438672,-0.30194 0.213137,0.0533 1.047922,0.12433 0.532841,0.30194 -0.51508,0.17761 -0.799261,-0.17761 -0.479557,0.35523 0.319707,0.53284 0.888071,0.63941 0.372991,0.72822 -0.515083,0.0888 -0.390752,-0.19538 -0.888071,-0.12433 -0.497319,0.071 -1.030161,-0.0533 -1.101207,0 -0.07104,0.0533 0.177615,0.19537 0.177615,0.67493 0,0.47956 0.444035,0.47956 0.568365,0.69269 0.12433,0.21314 0.248658,1.11897 0.106569,1.42091 -0.142092,0.30195 -0.195376,0.53285 -0.550603,0.55061 -0.35523,0.0178 -1.580764,-0.44404 -1.38539,-0.72822 0.195376,-0.28418 0.284183,0.51508 0.177614,-0.62165 -0.106569,-1.13673 -0.195376,-1.20777 0.106569,-1.70509 0.301943,-0.49732 0.603888,-0.47956 0.426273,-0.55061 -0.177615,-0.071 -1.154491,-0.19537 -1.154491,-0.58612 0,-0.39075 0.337466,-0.67493 0.08881,-0.72822 -0.248661,-0.0533 -0.994638,-0.24866 -1.065684,-0.7815 -0.07105,-0.53284 -0.07105,-0.87031 -0.03552,-0.95912 0.03552,-0.0888 -0.408511,-0.19537 -0.319706,-0.3197 0.08881,-0.12433 0.372991,-0.40851 0.372991,-0.40851 z"
         id="path66" />
      <path
         style="opacity:1;fill:#e6eee6;fill-opacity:1;stroke-width:2.117;stroke-linejoin:round;stroke-miterlimit:3.1;paint-order:markers stroke fill"
         d="m 92.171979,174.77385 c -0.376774,-0.0502 -0.590283,-0.41446 -1.117769,-0.50237 -0.527487,-0.0879 -1.08009,-0.50237 -0.552604,0.18839 0.527487,0.69075 1.142887,0.76611 1.130327,1.04241 -0.01257,0.2763 0.47725,0.21351 -0.03768,0.43957 -0.514927,0.22607 -1.105209,0.0377 -0.916821,0.64052 0.188389,0.60284 0.941941,0.64052 1.09265,0.64052 0.150712,0 2.04715,-0.64052 2.04715,-0.64052 0,0 0.276302,-1.13032 0.163269,-1.28104 -0.113032,-0.15071 -1.054973,-2.14762 -1.230802,-1.82108 -0.175829,0.32654 -0.577723,1.2936 -0.577723,1.2936 z"
         id="path67" />
      <path
         style="opacity:1;fill:#e6eee6;fill-opacity:1;stroke-width:2.117;stroke-linejoin:round;stroke-miterlimit:3.1;paint-order:markers stroke fill"
         d="m 86.906496,158.98223 c 0.142092,0.51508 0.230899,1.27882 0.657172,1.45643 0.426273,0.17762 0.461796,-0.51508 0.586126,-0.42627 0.12433,0.0888 0.337465,0.31971 0.728218,0.33747 0.39075,0.0178 0.728215,0.12433 0.355227,-0.15986 -0.372988,-0.28418 -0.12433,-0.74597 0.39075,-0.67493 0.51508,0.071 0.745979,0.35523 1.012399,0.071 0.266422,-0.28419 0.99464,-0.76374 0.99464,-0.76374 0,0 1.616287,-0.39075 1.545241,-0.51508 -0.07105,-0.12433 -0.124331,-0.60389 -0.284184,-0.67494 -0.159851,-0.071 -1.190014,-0.5506 -1.261057,-0.51508 -0.07105,0.0355 -1.474197,1.10121 -1.705094,1.10121 -0.230899,0 -1.278821,-0.4618 -1.278821,-0.4618 0,0 -0.621649,-0.0177 -0.710457,0.0888 -0.0888,0.10657 -0.90583,1.19001 -0.90583,1.19001 z"
         id="path68" />
      <path
         style="opacity:1;fill:#e6eee6;fill-opacity:1;stroke-width:2.117;stroke-linejoin:round;stroke-miterlimit:3.1;paint-order:markers stroke fill"
         d="m 93.051938,161.09584 c -0.319704,-0.0533 -0.941353,-0.0355 -1.136729,0.0533 -0.195376,0.0888 -0.763741,0.33747 -0.674934,0.7815 0.08881,0.44403 -0.372988,0.65717 0.159854,0.87031 0.532842,0.21314 0.692695,0.0178 0.745979,-0.67493 0.05329,-0.6927 0.07105,-0.51508 0.692693,-0.53285 0.621649,-0.0178 1.563004,0.15986 0.99464,-0.12433 -0.568365,-0.28418 -0.905833,-0.39075 -0.905833,-0.39075 z"
         id="path69" />
    </g>
    <g
       inkscape:label="O"
       inkscape:groupmode="layer"
       id="g4"
       transform="translate(-63.102657,-150.26217)">
      <path
         style="opacity:1;fill:#111b09;stroke-width:2.117;stroke-linejoin:round;stroke-miterlimit:3.1;paint-order:markers stroke fill"
         d="m 78.878347,151.00736 c 0,0 0,5.16857 -0.213138,6.34082 -0.213135,1.17225 -0.05328,3.55228 -0.05328,3.55228 l 0.63941,0.28418 c 0,0 -0.195373,-1.52748 0.07105,-3.07272 0.266422,-1.54524 0.444035,-5.34618 0.284184,-6.30529 -0.159853,-0.95912 -0.444037,-1.17225 -0.603888,-1.17225 -0.159853,0 -0.12433,0.37298 -0.12433,0.37298 z"
         id="path6" />
      <path
         style="opacity:1;fill:#111b09;stroke-width:2.117;stroke-linejoin:round;stroke-miterlimit:3.1;paint-order:markers stroke fill"
         d="m 78.6206,151.18767 c 0,0 0.175829,0.40189 0.401895,0.42701 0.226068,0.0251 0.07536,-0.80379 0.929383,-0.10047 0.854025,0.70331 1.908998,2.96397 2.63743,4.72226 0.728435,1.75829 0.02511,2.61231 0.97962,2.33601 0.954497,-0.2763 -1.280393,-7.35198 -3.038771,-8.09796 -1.758379,-0.74598 -1.909557,0.71315 -1.909557,0.71315 z"
         id="path7" />
      <path
         style="opacity:1;fill:#111b09;stroke-width:2.117;stroke-linejoin:round;stroke-miterlimit:3.1;paint-order:markers stroke fill"
         d="m 83.317743,157.56774 c 0,0 3.59193,-3.76776 5.626521,-4.52131 2.034593,-0.75355 1.909,0.0754 1.909,0.0754 l -0.226065,0.72844 c 0,0 -0.226065,-1.25592 -2.260658,0.37677 -2.034591,1.6327 -4.872969,4.19478 -4.872969,4.19478 z"
         id="path8" />
      <path
         style="opacity:1;fill:#111b09;stroke-width:2.117;stroke-linejoin:round;stroke-miterlimit:3.1;paint-order:markers stroke fill"
         d="m 90.137389,153.58648 -1.054973,4.54643 0.854027,-0.0377 c 0,0 0.565163,-2.64999 1.092649,-3.52914 0.527487,-0.87914 1.142887,-2.47416 0.740993,-2.58719 -1.021352,-0.38921 -1.36056,0.77678 -1.632696,1.6076 z"
         id="path9"
         sodipodi:nodetypes="cccssc" />
      <path
         style="opacity:1;fill:#111b09;stroke-width:2.117;stroke-linejoin:round;stroke-miterlimit:3.1;paint-order:markers stroke fill"
         d="m 78.931631,156.36242 c 0,0 -0.25754,-0.009 -0.372991,0.43516 -0.115448,0.44403 0.03552,0.5062 -0.346345,0.74598 -0.38187,0.23977 -1.021281,0.70157 -1.127849,1.29658 -0.106569,0.595 0.05328,0.72822 0.05328,0.72822 l 0.595008,0.22201 c 0,0 -0.257543,-0.37299 0.293061,-1.03904 0.550603,-0.66605 0.923594,-0.79038 0.923594,-0.79038 z"
         id="path10" />
      <path
         style="opacity:1;fill:#111b09;stroke-width:2.117;stroke-linejoin:round;stroke-miterlimit:3.1;paint-order:markers stroke fill"
         d="m 89.570704,157.77446 h -0.266419 c 0,0 0.337465,-0.6927 -0.710457,-0.55061 -1.047922,0.14209 -1.563002,0.90583 -1.829424,1.36763 -0.26642,0.46179 0.47956,0.2309 -0.284181,0.46179 -0.763741,0.2309 -0.106569,0.33747 -1.101206,0.26643 -0.994638,-0.0711 -1.634049,0.56836 -1.811663,1.04792 -0.177613,0.47956 0.266422,0.97687 0.159853,1.15449 -0.106569,0.17761 -0.284181,0.63941 -0.319704,2.52212 -0.03552,1.8827 1.29658,3.19705 1.29658,3.19705 0,0 1.154491,0.0178 1.101206,-0.10657 -0.05328,-0.12433 -1.243295,-2.3445 -1.349864,-3.28586 -0.106569,-0.94135 0.355227,-1.31434 0.266419,-1.59852 -0.08881,-0.28419 -0.692695,-0.0355 -0.177612,-1.10121 0.515081,-1.06568 1.083445,-0.65717 1.083445,-0.65717 0,0 0.03552,0.62165 0.213135,0.53284 0.177615,-0.0888 0.674934,-0.69269 0.994638,-0.88807 0.319706,-0.19537 0.603888,0.17761 0.692695,-0.21314 0.08881,-0.39075 -0.852546,-0.81702 0.213138,-1.59852 1.065683,-0.7815 1.033433,-0.20471 0.989475,-0.13564 -0.04396,0.0691 -0.492157,0.49087 -0.172453,0.49087 0.319707,0 0.74598,-0.1421 1.083445,-0.0888 0.337468,0.0533 0.159854,0.33747 0.497319,0.0888 0.337468,-0.24866 0.372991,-0.79927 1.580764,-0.99464 1.207775,-0.19538 1.136729,0.49732 1.136729,0.49732 0,0 -0.7815,-0.19538 -1.243295,0.0355 -0.461799,0.2309 -1.101207,1.11897 -0.568365,0.94135 0.532842,-0.17761 1.29658,0.44404 2.397786,0.19538 1.101207,-0.24866 1.758379,-0.0888 1.758379,-0.0888 l 0.05328,-0.33746 c 0,0 -0.426273,0.28418 -0.674933,0.0888 -0.248658,-0.19537 -0.03552,-0.0178 -0.319704,-0.37299 -0.284184,-0.35522 -0.461796,-0.2753 -0.639411,-0.36411 -0.177612,-0.0888 0.355167,-0.48831 -0.923592,-1.14561 -1.328054,-0.68264 -2.975925,0.45613 -2.610926,0.6927 0.169941,0.11015 -0.515081,-0.0533 -0.515081,-0.0533 z"
         id="path11"
         sodipodi:nodetypes="ccssscssscsssscssssssssscsssccssssscc" />
      <path
         style="opacity:1;fill:#111b09;stroke-width:2.117;stroke-linejoin:round;stroke-miterlimit:3.1;paint-order:markers stroke fill"
         d="m 94.206569,158.79854 c 0.113033,0.0126 0.188389,0.1256 0.728435,-0.0628 0.540047,-0.18839 1.507104,-0.0126 1.758289,0.35166 0.251182,0.36421 0.376775,1.60757 0.276302,2.08482 -0.100473,0.47725 -0.502367,0.72844 -0.502367,0.72844 0,0 -0.11167,1.71728 -0.11167,2.7652 0,1.04793 -0.327904,1.69331 -0.327904,1.69331 0,0 0.401894,-0.0502 0.401894,0.70332 0,0.75355 -0.401894,0.8289 -1.054973,0.75355 -0.653076,-0.0753 0.376777,-0.15071 -0.125592,-0.37678 -0.502367,-0.22606 -0.477248,0.60285 -0.753552,0.37678 -0.276302,-0.22607 -0.427011,-0.9545 0.02511,-0.87914 0.45213,0.0753 1.230802,0.5526 1.004737,-0.0251 -0.226066,-0.57772 -1.205685,-0.4019 -0.879145,-0.90427 0.326538,-0.50236 0.226066,0.15072 0.703316,-1.68293 0.47725,-1.83364 0.37557,-2.75808 0.269002,-2.81136 -0.106569,-0.0533 -0.248661,-0.24866 -0.417394,-0.2753 -0.168733,-0.0266 -0.568365,0.26642 -0.497319,0.0533 0.07105,-0.21313 0.719336,-1.02128 1.198894,-0.94135 0.479557,0.0799 0.03552,0.92359 0.346347,0.80814 0.310825,-0.11545 0.61277,-0.90583 0.346348,-1.25218 -0.26642,-0.34634 -0.799262,-0.16873 -1.092325,-0.2309 -0.293063,-0.0622 -1.500838,-0.595 -1.456436,-0.63052 0.0444,-0.0355 0.159994,-0.24586 0.159994,-0.24586 z"
         id="path12" />
      <path
         style="opacity:1;fill:#111b09;stroke-width:2.117;stroke-linejoin:round;stroke-miterlimit:3.1;paint-order:markers stroke fill"
         d="m 94.463969,167.13471 c -0.03552,-0.009 0.07993,-0.42628 -1.225536,0.2753 -1.305462,0.70158 -2.140247,1.92711 -2.140247,1.92711 0,0 -1.207775,-0.47955 -2.0248,-0.99464 -0.817023,-0.51508 -1.953752,-0.71045 -1.971514,-0.94135 -0.01775,-0.2309 -0.07105,-0.51508 -0.337468,-0.63941 -0.26642,-0.12433 -1.456433,-0.0178 -1.456433,-0.0178 0,0 -0.994638,0.90583 -1.545241,0.76374 -0.550603,-0.1421 -0.923592,-0.56837 -0.923592,-0.56837 0,0 -0.834787,0.95912 -0.568364,1.03016 0.266419,0.071 0.532842,0.99464 1.136729,1.08345 0.603885,0.0888 0.03552,-0.15985 0.568362,-0.26642 0.532845,-0.10657 0.497322,0.26642 0.781503,-0.0533 0.284184,-0.3197 0.426272,-1.08344 1.136729,-1.40315 0.710456,-0.3197 0.674933,0.35523 0.674933,0.35523 0,0 -0.532842,0.33746 -0.532842,0.65717 0,0.3197 0.07105,0.40852 0.07105,0.40852 0,0 0.248658,-0.0178 0.976876,0 0.728218,0.0178 1.900468,0.56836 1.900468,0.56836 0,0 0.230899,-0.60389 0.817026,-0.42628 0.586126,0.17762 0.159853,1.17226 0.461795,1.26106 0.301946,0.0888 0.532842,1.38539 0.994638,1.19002 0.461796,-0.19538 -0.124328,-0.0533 0.372991,-0.44404 0.497319,-0.39075 0.639408,-0.35523 0.639408,-0.35523 0,0 -0.372988,-0.51508 0.195376,-0.37299 0.568365,0.1421 0.213138,0.31971 0.51508,0.47956 0.301946,0.15986 0.248661,0.33747 0.479558,1.03016 0.230899,0.6927 0,1.49196 -0.479558,1.36763 -0.479557,-0.12433 -0.444034,-1.27882 -0.710456,-1.19001 -0.26642,0.0888 -0.976876,0.0888 -0.497319,0.49732 0.479557,0.40851 0.248661,1.31434 0.74598,1.47419 0.497318,0.15985 1.385387,0.30195 1.332105,0.0533 -0.05328,-0.24866 -0.266422,-0.60389 -0.12433,-0.6927 0.142092,-0.0888 1.207775,-0.72821 0.426273,-2.39779 -0.781503,-1.66957 -1.065684,-1.29658 -1.083445,-1.66957 -0.01775,-0.37299 0.07105,-0.51508 0.284181,-0.69269 0.213138,-0.17761 1.332106,-0.81702 1.332106,-0.81702 z"
         id="path13"
         sodipodi:nodetypes="cscssscsccsssscscscsssscsssssssssssscc" />
      <path
         style="opacity:1;fill:#111b09;stroke-width:2.117;stroke-linejoin:round;stroke-miterlimit:3.1;paint-order:markers stroke fill"
         d="m 90.551843,169.36083 c -0.01257,-0.10047 0.04325,-1.20138 -0.471677,-1.36465 -0.514927,-0.16327 -1.52539,0.57379 -1.52539,0.57379 l 0.879298,0.22574 0.100472,-0.0628 c 0,0 0.577726,0.31398 0.627963,0.35166 0.05024,0.0377 0.389334,0.2763 0.389334,0.2763 z"
         id="path14"
         sodipodi:nodetypes="sscccscs" />
      <path
         style="opacity:1;fill:#111b09;stroke-width:2.117;stroke-linejoin:round;stroke-miterlimit:3.1;paint-order:markers stroke fill"
         d="m 92.572381,177.96916 c 0,0 0.657172,0.74598 1.65181,1.13673 0.994637,0.39075 2.042559,1.72285 2.948389,1.58076 0.905833,-0.14209 0.550604,-0.99464 1.118968,-0.60389 0.568365,0.39075 0.213138,0.53285 1.332106,0.30195 1.118966,-0.2309 0.905826,-1.10121 1.971516,-1.33211 1.06568,-0.2309 1.31434,-0.0533 2.3445,-1.06568 1.03016,-1.0124 0.63941,-2.0248 0.17762,-2.13137 -0.4618,-0.10657 0.14209,-0.21313 0.14209,-0.21313 0,0 0.94905,-3.17946 0.43412,-3.54368 -0.51492,-0.36422 -0.79123,-0.0879 -0.86658,-0.38934 -0.0754,-0.30142 -0.0879,-0.54004 -0.46469,-1.02985 -0.37678,-0.48981 -0.17583,-1.45687 -0.92938,-2.31089 -0.75356,-0.85403 -1.38829,-1.25171 -1.38829,-1.25171 0,0 0.2309,-0.49732 -0.42627,-1.03016 -0.657171,-0.53284 -0.941352,-0.2309 -0.941352,-0.2309 0,0 0.195377,-0.15985 -0.39075,-1.15449 -0.586126,-0.99464 -1.012401,-1.15449 -1.456436,-1.36763 -0.444034,-0.21314 -1.81166,-0.19537 -1.81166,-0.19537 v 1.04792 c 0,0 0.870307,-0.10657 1.420911,0.40851 0.550603,0.51508 0.781502,1.68733 0.532841,1.70509 -0.24866,0.0178 -1.705094,0.0533 -1.93599,0.10657 -0.2309,0.0533 0.106566,1.06569 0.106566,1.06569 0,0 0.905833,0.071 1.083445,0.071 0.177615,0 -0.142089,0.35523 0.177615,0 0.319704,-0.35523 0.568364,-0.74598 0.923591,-0.56836 0.35523,0.17761 0.284184,0.28418 0.390753,0.21313 0.106566,-0.071 0.870307,-0.14209 0.941353,-0.33746 0.07105,-0.19538 -0.248661,-0.90583 0.266419,-0.47956 0.515084,0.42627 0.781504,0.67493 0.532844,0.90583 -0.24866,0.2309 -0.728217,0.33747 -0.799263,0.33747 -0.07105,0 -1.349867,-0.0711 -0.976876,0.14209 0.372988,0.21313 0.550603,0.0533 1.190014,0.37299 0.639405,0.3197 0.781495,0.65717 0.870305,0.67493 0.0888,0.0178 0.10657,-0.40851 0.53284,-0.37299 0.42628,0.0355 0.65129,0.0401 0.55061,0.28418 -0.10021,0.24296 -0.76365,0.76379 -0.58613,0.85255 0,0 0.0888,-0.47956 0.71046,0.83479 0.62165,1.31434 -0.0178,0.81702 0.30194,1.40315 0.31971,0.58612 0.26642,1.17225 0.49732,0.99463 0.2309,-0.17761 0.19537,-1.0124 0.63941,-0.58612 0.44403,0.42627 0.47956,0.67493 0.14209,1.04792 -0.33747,0.37299 -0.4618,0.39075 -0.56836,0.74598 -0.10657,0.35522 0.12433,1.08344 -0.12433,1.70509 -0.24866,0.62165 -0.51508,1.0124 -0.51508,1.0124 0,0 0.12433,0.28418 0.63941,0.28418 0.51508,0 1.3321,-0.21313 0.99463,0.071 -0.33746,0.28418 -1.04792,0.71045 -1.34986,0.71045 -0.30195,0 -0.87031,-0.19537 -0.87031,-0.19537 0,0 -0.53284,1.04792 -0.95912,0.97688 -0.42627,-0.071 -0.49731,-0.47956 -0.74597,-0.19538 -0.248663,0.28418 -0.426278,0.71046 -1.190019,0.74598 -0.763738,0.0355 -1.207772,-0.0888 -1.29658,-0.12433 -0.08881,-0.0355 -0.444034,0.51508 -0.745979,0.44403 -0.301943,-0.071 -0.90583,-0.53284 -1.172252,-0.69269 -0.26642,-0.15985 -1.474195,-0.79926 -1.722856,-0.90583 -0.248658,-0.10657 -0.266419,-0.51508 -0.266419,-0.51508 0,0 -0.319704,-0.28418 -0.710457,-0.0178 -0.39075,0.26643 -0.355227,0.65718 -0.355227,0.65718 z"
         id="path15"
         sodipodi:nodetypes="cssssssscscsscscssccscscssscsssscscsscssssssscscscsssscsscccc" />
      <path
         style="opacity:1;fill:#111b09;stroke-width:2.117;stroke-linejoin:round;stroke-miterlimit:3.1;paint-order:markers stroke fill"
         d="m 82.643762,167.88069 c -0.142092,0.0888 -0.941353,0.87031 -1.953752,1.75838 -1.012402,0.88806 -2.16689,2.68197 -2.273459,4.99095 -0.106569,2.30898 0.857128,4.0623 2.565181,5.26798 1.708052,1.20569 2.612313,1.30616 5.62652,1.10521 3.01421,-0.20095 4.697143,-1.93411 5.425578,-2.43648 0.728432,-0.50237 1.934114,-1.33128 2.00947,-1.93412 0.07536,-0.60284 0.150712,-2.13506 0.02511,-2.53696 -0.125592,-0.40189 -0.351657,-0.65308 -0.351657,-0.65308 l -1.12662,0.0596 c 0,0 -0.150971,0.2753 -0.239779,0.68381 -0.08881,0.40851 -0.603887,0.79926 -0.399632,0.87919 0.204256,0.0799 0.417394,0.10657 0.417394,0.10657 0,0 -0.03552,-1.1989 0.364109,-0.77262 0.399629,0.42627 0.435152,0.66605 0.372988,1.00352 -0.06216,0.33746 -0.408511,0.15097 -0.07105,0.35522 0.337466,0.20426 0.603888,-0.5506 0.737098,0.11546 0.13321,0.66605 -0.541721,1.01239 -0.985756,0.86142 -0.444037,-0.15097 -0.08881,-0.7371 -0.38187,-0.5506 -0.293063,0.18649 0.222017,0.53284 -0.319707,0.75486 -0.541721,0.22202 -0.754859,0.11545 -0.754859,0.11545 0,0 -1.882706,3.33026 -6.038873,2.86846 -4.156165,-0.46179 -4.59734,-2.17253 -4.748051,-2.23533 -0.15071,-0.0628 0.113032,-0.30142 -0.238623,-0.66563 -0.351658,-0.36422 -0.401897,0.20094 -0.527486,-0.47725 -0.125593,-0.6782 -0.326541,-2.75047 0.02511,-3.95615 0.351658,-1.20569 0.301422,-0.32654 1.13033,-0.97962 0.828907,-0.65308 0.552603,-0.90426 0.678195,-1.00474 0.125593,-0.10047 0.427014,-0.87914 0.552607,-0.77867 0.125592,0.10048 -0.200949,0.80379 0.276301,0.52749 0.47725,-0.2763 0.653079,-1.05497 1.130329,-1.25592 0.477248,-0.20095 0.552604,-0.77867 0.552604,-0.77867 z"
         id="path16" />
      <path
         style="opacity:1;fill:#111b09;stroke-width:2.117;stroke-linejoin:round;stroke-miterlimit:3.1;paint-order:markers stroke fill"
         d="m 83.869299,163.01407 c 0,0 -0.266422,-0.0533 -0.905833,0.14209 -0.639408,0.19537 -0.90583,0.37299 -1.118968,0.23089 -0.213135,-0.14209 -0.248658,-0.37298 -0.26642,-0.58612 -0.01775,-0.21313 0.532842,-0.83479 -0.195373,-1.33211 -0.728215,-0.49731 -0.568364,0.0178 -0.959114,-0.21308 -0.39075,-0.2309 -0.479558,-0.30195 -0.959115,-0.62165 -0.479557,-0.31971 -2.131367,-1.26106 -2.344504,-1.34987 -0.213138,-0.0888 -2.628686,-0.0888 -4.316019,0.47956 -1.687332,0.56837 -2.326743,1.61629 -2.788539,1.82942 -0.461795,0.21314 -1.261059,0.65718 -1.207775,1.1545 0.05328,0.49731 0,0.76373 0.390753,0.8703 0.390749,0.10657 0.461795,-0.17761 0.461795,-0.17761 0,0 -0.568364,-0.88807 0.01775,-1.06569 0.586126,-0.17761 0.7815,0.071 1.118968,-0.17761 0.337465,-0.24866 0.461796,-0.60389 0.657169,-0.40851 0.195377,0.19537 -0.01775,0.51508 0.213138,0.37299 0.230899,-0.14209 -0.177615,-0.49732 1.545241,-1.03016 1.722855,-0.53284 3.445711,-0.0888 3.410188,-0.4618 -0.03552,-0.37299 -0.230899,-0.79926 0.01775,-0.81702 0.248661,-0.0178 0.337466,-0.12433 0.568365,0.39075 0.230899,0.51508 0.177615,0.79926 0.444034,0.81702 0.266423,0.0178 0.90583,0.49732 1.403152,0.74598 0.497319,0.24866 0.568365,0.56836 0.834784,0.60389 0.266422,0.0355 0.959115,-0.4618 1.101207,-0.40851 0.142091,0.0533 0.355226,0.14209 0.195376,0.53284 -0.159854,0.39075 -0.959117,0.72822 -0.710457,1.06568 0.248661,0.33747 0.372989,0.28419 0.479558,0.7815 0.106568,0.49732 -0.195377,0.81703 0.159853,0.76374 0.355227,-0.0533 0.692695,-0.30194 0.710456,0.10657 0.01775,0.40851 -0.532844,0.58613 -0.03552,0.58613 0.497319,0 0.408512,-0.4618 0.479558,-0.14209 0.07105,0.3197 -0.124331,0.49731 -0.159854,0.83478 -0.03552,0.33747 0.301943,0.60389 -0.05328,0.55061 -0.355227,-0.0533 -1.65181,0.88806 -1.687333,1.27881 -0.03552,0.39076 -0.603887,1.2433 -0.408511,1.38539 0.195376,0.1421 1.118968,0.0533 1.118968,0.0533 0,0 1.136729,-1.11897 1.065683,-1.11897 -0.07105,0 -0.444034,-0.0355 -0.337465,-0.44403 0.106566,-0.40852 0.888069,-0.49732 0.888069,-0.49732 0,0 0.106568,-1.10121 0.355226,-1.49196 0.248661,-0.39075 0.568365,-1.17225 0.08881,-1.38539 -0.479557,-0.21314 -0.834784,0 -0.834784,-0.19538 0,-0.19537 -0.284184,-0.56836 -0.142092,-0.67493 0.142092,-0.10656 1.42091,-0.0888 1.42091,-0.0888 z"
         id="path17"
         sodipodi:nodetypes="csssscsssssscscsssscscsssssssssssssscsscsssscc" />
      <path
         style="opacity:1;fill:#111b09;stroke-width:2.117;stroke-linejoin:round;stroke-miterlimit:3.1;paint-order:markers stroke fill"
         d="m 69.063049,163.44545 c 0,0 -0.01257,0.21351 0,0.6782 0.01257,0.46469 -0.414454,0.32653 -0.339098,0.81634 0.07536,0.48981 0.326538,0.50237 0.326538,0.80379 0,0.30142 -0.0628,0.97962 0.226065,1.04242 0.288862,0.0628 1.017297,0.0753 0.992177,-0.11304 -0.02511,-0.18839 -0.188386,-0.56516 -0.163269,-1.48198 0.02511,-0.91682 0.690756,-1.3564 0.113033,-1.62014 -0.577723,-0.26374 -0.967057,-0.36422 -0.979617,-0.31398 -0.01257,0.0502 -0.175829,0.18839 -0.175829,0.18839 z"
         id="path18" />
      <path
         id="path19"
         style="opacity:1;fill:#111b09;stroke-width:2.117;stroke-linejoin:round;stroke-miterlimit:3.1;paint-order:markers stroke fill"
         d="m 68.803552,166.01467 c -0.979304,0.0223 -0.398023,0.44046 -0.830957,0.64027 -0.461795,0.21314 -0.248605,-0.88807 -1.491898,0 -1.243298,0.88807 0.284296,2.43335 -0.106454,2.68201 -0.390752,0.24866 -1.509395,2.23815 -1.420585,4.44056 0.08881,2.2024 2.61058,2.55743 2.717147,3.23236 0.106569,0.67494 5.047089,1.70773 4.645194,1.43143 -0.401893,-0.27631 0.552313,0.52714 2.00918,0.27596 1.456866,-0.25119 2.185561,-0.92942 2.461865,-1.15549 0.276301,-0.22605 0.502536,-0.0749 0.979785,-0.2005 0.477253,-0.12559 0.451958,-0.77872 0.426848,-1.15549 -0.02512,-0.37678 0.527634,-0.47723 0.402042,-0.82889 -0.125592,-0.35166 -0.238739,-0.50761 -0.389451,-0.53271 -0.150709,-0.0251 0.01238,-0.30902 -0.125763,-0.52252 -0.138151,-0.21351 0.409187,-1.24625 0.585016,-1.67326 0.175828,-0.42701 -0.0954,-1.08987 0.38185,-1.50432 0.47725,-0.41445 0.904741,-0.12538 0.954981,-0.13798 0.05024,-0.0126 0.740567,-0.85392 0.778247,-1.04231 0.03768,-0.18838 -0.288852,-0.43964 -0.414445,-0.61547 -0.12559,-0.17583 -1.343846,0.48981 -1.695504,0.70332 -0.351654,0.21351 -1.56993,0 -1.56993,0 l -0.08733,-0.64338 c 0,0 -0.124558,-0.40882 -0.26665,-1.31464 -0.142092,-0.90583 -0.319517,-0.88784 -0.976685,-1.17203 -0.657171,-0.28418 -0.408551,0.17757 -0.763778,0.24857 -0.355226,0.071 -0.28426,-0.0354 -1.047998,-0.24857 -0.76374,-0.21314 0.03583,-0.23115 -0.60358,-0.40876 -0.63941,-0.17756 -0.515216,-0.23064 -1.474329,-0.0708 -0.959117,0.15986 -1.580954,-0.39083 -2.859774,-0.42633 -0.07993,-0.002 -0.151754,-0.003 -0.217041,-0.001 z m -1.361157,1.15549 c 0.179834,-0.004 0.379477,1e-4 0.459404,0.0357 0.159852,0.071 0.337388,0.33736 0.390673,0.58602 0.05328,0.24866 0.03566,0.817 0.03566,0.817 0,0 0.408376,-1.04789 1.882572,-1.15445 1.474193,-0.10657 1.90066,0.0713 1.90066,0.0713 0,0 -0.05318,0.26619 0.230993,0.21291 0.284182,-0.0533 0.319245,-2.3e-4 0.425814,0.0176 0.106569,0.0178 0.675411,0.33745 0.675411,0.33745 0,0 1.225404,-0.47935 1.882573,-0.35502 0.657171,0.12433 0.799318,0.28397 0.905887,0.35502 0.106569,0.071 0.230759,0.74619 -0.03566,1.08365 -0.266422,0.33747 -0.976685,0.0532 -0.976685,0.0532 0,0 -0.284184,0.15989 0,0.28422 0.284181,0.12433 0.976457,0.97701 1.189592,1.47433 0.213137,0.49732 0.249041,1.38551 0.444417,1.47432 0.195374,0.0888 0.141861,0.17719 0.212907,0.0884 0.07105,-0.0888 0.24868,-1.72263 0.621667,-1.65158 0.372989,0.071 0.906039,0.0356 0.604098,0.42633 -0.301943,0.39075 -0.159835,0.8345 -0.337447,1.22525 -0.177614,0.39075 -0.195489,1.22577 -0.373104,1.22577 -0.177612,0 -0.213399,0.33746 -0.07131,0.47955 0.142092,0.14209 0.160197,0.37324 0.160197,0.88832 0,0.51508 0.195261,0.24858 0.106454,0.87023 -0.08881,0.62165 0.0175,1.15413 -0.408761,0.65681 -0.426274,-0.49732 -0.230553,-1.54526 -0.31936,-1.58078 -0.08881,-0.0355 -0.195259,-0.0887 -0.106454,-0.24857 0.08881,-0.15985 -0.160006,-0.8345 -0.177767,-0.74569 -0.01775,0.0888 0.0179,0.99457 -0.781347,1.82935 -0.79926,0.83479 -0.817272,0.67485 -0.888318,0.87023 -0.07104,0.19538 0.550699,0.58634 -0.728121,0.6041 -1.278821,0.0178 -1.687352,0.12431 -2.060339,-0.14211 -0.372989,-0.26642 -0.621745,-0.0713 -1.190109,-0.46199 -0.568364,-0.39075 -0.639199,-0.44426 -1.314131,-0.74621 -0.674931,-0.30194 -1.332063,-0.12387 -1.634009,-0.42581 -0.301942,-0.30194 0.248256,-0.17781 -0.10697,-0.46199 -0.355229,-0.28418 -0.816947,0.42607 -1.349789,-1.08365 -0.532841,-1.50972 -0.515022,-1.9003 -0.532784,-2.07791 -0.01775,-0.17762 -0.07096,-0.74601 0.230994,-0.76378 0.301942,-0.0178 0.37297,-0.14232 0.337447,-0.26665 -0.03552,-0.12433 -0.408511,-0.85248 0,-1.01234 l 0.408244,-0.15968 c 0,0 -0.265955,-1.58099 0.05374,-1.70532 0.319707,-0.12433 0.354749,-0.42594 0.283704,-0.46147 -0.07105,-0.0355 -0.408052,0.10625 -0.425814,-0.0713 -0.01775,-0.17762 0.03514,-0.37259 0.03514,-0.37259 0,0 0.160197,-0.0136 0.340031,-0.0181 z"
         sodipodi:nodetypes="sssssssssssssssscsssccsscscsscscscscsscscscsssscsssssssssssscscsssssssccssscscc" />
      <path
         style="opacity:1;fill:#111b09;stroke-width:2.117;stroke-linejoin:round;stroke-miterlimit:3.1;paint-order:markers stroke fill"
         d="m 82.181967,153.19202 c -0.0146,-0.0876 1.42091,0.44403 1.634047,-0.0888 0.213135,-0.53284 -0.51508,-1.11897 0.426273,-1.17225 0.941353,-0.0533 1.403152,0.42627 1.65181,0.51508 0.24866,0.0888 0.51508,-0.12433 1.243298,0.0355 0.728215,0.15985 1.687333,0.88807 1.616287,0.88807 -0.07105,0 -0.444035,-0.0355 -0.497319,0.0533 -0.05328,0.0888 -0.08881,-0.0178 -0.74598,-0.0533 -0.657172,-0.0355 -2.095844,0.56836 -2.184651,0.37299 -0.08881,-0.19538 0.177615,-0.83479 -0.177615,-0.97688 -0.355227,-0.14209 -0.372988,-0.0178 -0.603885,0.39075 -0.230899,0.40851 -0.284183,0.95912 -0.284183,0.95912 0,0 -1.438674,0.72821 -1.580766,0.69269 -0.142089,-0.0355 -0.408509,-1.08344 -0.408509,-1.08344 z"
         id="path20"
         sodipodi:nodetypes="ssssssssssscscs" />
      <path
         style="opacity:1;fill:#111b09;stroke-width:2.117;stroke-linejoin:round;stroke-miterlimit:3.1;paint-order:markers stroke fill"
         d="m 90.316684,155.2257 c 0,0 0.577244,0.71933 0.683813,1.1456 0.106569,0.42628 0.115451,0.82591 0.115451,0.82591 0,0 0.896948,-0.1865 0.861425,-0.20426 -0.03552,-0.0178 -0.115448,-0.77262 -0.586124,-1.5186 -0.470677,-0.74597 -0.683815,-1.0568 -0.692695,-0.98575 -0.0089,0.071 -0.470678,0.595 -0.435155,0.66605 0.03552,0.071 0.05328,0.071 0.05328,0.071 z"
         id="path21" />
    </g>
  </g>
</svg>
