<?xml version="1.0" encoding="UTF-8" standalone="no"?>
<!-- Created with Inkscape (http://www.inkscape.org/) -->

<svg
   width="754.03479"
   height="285.37332"
   viewBox="0 0 199.50503 75.505021"
   version="1.1"
   id="svg1"
   inkscape:version="1.3 (0e150ed6c4, 2023-07-21)"
   sodipodi:docname="wok_front.svg"
   xmlns:inkscape="http://www.inkscape.org/namespaces/inkscape"
   xmlns:sodipodi="http://sodipodi.sourceforge.net/DTD/sodipodi-0.dtd"
   xmlns="http://www.w3.org/2000/svg"
   xmlns:svg="http://www.w3.org/2000/svg">
  <sodipodi:namedview
     id="namedview1"
     pagecolor="#ffffff"
     bordercolor="#000000"
     borderopacity="0.25"
     inkscape:showpageshadow="2"
     inkscape:pageopacity="0.0"
     inkscape:pagecheckerboard="0"
     inkscape:deskcolor="#d1d1d1"
     inkscape:document-units="px"
     showgrid="false"
     inkscape:zoom="0.46551693"
     inkscape:cx="284.62982"
     inkscape:cy="-74.111161"
     inkscape:window-width="1920"
     inkscape:window-height="974"
     inkscape:window-x="-11"
     inkscape:window-y="-11"
     inkscape:window-maximized="1"
     inkscape:current-layer="layer6" />
  <defs
     id="defs1">
    <pattern
       id="EMFhbasepattern"
       patternUnits="userSpaceOnUse"
       width="6"
       height="6"
       x="0"
       y="0" />
    <pattern
       id="EMFhbasepattern-7"
       patternUnits="userSpaceOnUse"
       width="6"
       height="6"
       x="0"
       y="0" />
  </defs>
  <g
     inkscape:groupmode="layer"
     id="layer5"
     inkscape:label="Art"
     transform="translate(-19.299256,-83.868428)">
    <g
       inkscape:groupmode="layer"
       id="layer6"
       inkscape:label="F">
      <path
         style="opacity:1;fill:#5d6a92;fill-opacity:1;stroke-width:2.117;stroke-linejoin:round;stroke-miterlimit:3.1;paint-order:markers stroke fill"
         d="m 212.21113,98.367391 c 0,0 -21.93008,23.327529 -35.17819,30.837259 -21.77653,12.3441 -42.77387,12.55201 -64.74938,12.40989 -10.05329,-0.065 -23.541154,-4.4687 -29.545445,-6.05987 l -2.221455,-0.55536 c 0,0 -1.666095,-3.47103 -3.609869,-4.30409 -1.943775,-0.83304 -6.80321,-0.97188 -6.80321,-0.97188 l -5.970165,0.41653 c 0,0 -15.550201,-7.63626 -20.131953,-8.74699 -4.581755,-1.11073 -4.720595,-11.52381 -7.636257,-13.32875 -2.915662,-1.80492 -5.553641,-1.52725 -7.358577,-1.11073 -1.804933,0.41654 -3.471025,1.52725 -3.471025,1.52725 0,0 8.191623,19.02123 16.660928,27.76822 8.469303,8.74699 30.128505,15.82788 30.128505,15.82788 0,0 29.850823,6.66437 42.624203,5.83132 12.77337,-0.83304 41.65231,-5.55363 54.14801,-11.66264 12.4957,-6.10901 28.87893,-14.856 35.68215,-27.62937 6.80321,-12.77338 10.96843,-17.07745 7.77509,-17.07745 -3.19334,0 -0.34336,-3.171219 -0.34336,-3.171219 z"
         id="path12"
         sodipodi:nodetypes="csaccsccssscscssssc" />
      <path
         style="opacity:1;fill:#9ea7c4;fill-opacity:1;stroke-width:2.117;stroke-linejoin:round;stroke-miterlimit:3.1;paint-order:markers stroke fill"
         d="m 67.538142,138.50427 c 0,0 10.013896,4.71243 14.529966,4.0252 4.51607,-0.68723 7.264981,-2.35622 3.828843,-3.2398 -3.436143,-0.88358 -12.370108,-4.61424 -12.370108,-4.61424 0,0 -4.123371,0.29453 -4.614247,1.37445 -0.490876,1.07993 -1.374454,2.45439 -1.374454,2.45439 z"
         id="path13" />
      <path
         style="opacity:1;fill:#9ea7c4;fill-opacity:1;stroke-width:2.117;stroke-linejoin:round;stroke-miterlimit:3.1;paint-order:markers stroke fill"
         d="m 123.14086,142.14962 c 0,0.93744 -25.060808,-1.87172 -28.948358,-2.56857 -4.019378,-0.72048 -5.20654,2.77683 -0.763626,3.60988 4.442913,0.83304 14.786574,3.54045 23.394714,2.84622 6.21686,-0.50135 17.5634,-2.01318 17.5634,-2.01318 0,0 -3.74871,2.08261 -1.6661,4.0264 2.08262,1.94377 2.49914,3.12391 3.88754,1.94377 1.38842,-1.18015 5.69249,-8.60815 5.69249,-8.60815 l -5.34537,-0.20826 z"
         id="path14"
         sodipodi:nodetypes="cssscssccc" />
      <path
         style="opacity:1;fill:#9ea7c4;fill-opacity:1;stroke-width:2.117;stroke-linejoin:round;stroke-miterlimit:3.1;paint-order:markers stroke fill"
         d="m 151.72359,140.56595 c -1.66899,0.49088 -0.73632,-1.76715 -4.56516,1.37446 -3.82885,3.14161 -4.51606,7.55951 -1.47263,6.87228 3.04344,-0.68722 5.69417,-6.08687 5.69417,-6.08687 0,0 2.30592,3.38076 5.08274,1.99236 2.77682,-1.38842 -0.46849,-6.31209 6.60014,-6.31209 7.06863,0 19.24239,-3.1416 27.09642,-10.60295 7.85404,-7.46132 11.78106,-16.68981 11.78106,-16.68981 0,0 -10.60295,10.79929 -11.38836,10.99564 -0.7854,0.19635 -11.19199,6.47959 -13.74456,7.65768 -2.55256,1.17811 -12.7628,5.49784 -14.13726,5.89054 -1.37446,0.39269 -9.9648,1.9635 -10.16115,2.45438 -0.19635,0.49088 -0.78541,2.45438 -0.78541,2.45438 z"
         id="path15"
         sodipodi:nodetypes="csscssscssssc" />
    </g>
    <g
       inkscape:groupmode="layer"
       id="layer7"
       inkscape:label="O">
      <path
         style="opacity:1;fill:#111b09;fill-opacity:1;stroke-width:2.117;stroke-linejoin:round;stroke-miterlimit:3.1;paint-order:markers stroke fill"
         d="m 23.522408,88.556972 c 0,0 -1.277889,22.397778 19.928007,43.210968 21.205897,20.81319 48.891376,23.56211 57.334465,24.34752 2.05741,0.19139 79.12755,2.63053 103.86961,-41.6264 9.82366,-17.571902 10.21025,-29.158104 11.19201,-29.845332 0.98175,-0.687231 3.14162,-1.374457 2.94525,0.09817 -0.19633,1.472632 -5.22695,30.056442 -18.7515,43.197212 -18.75739,18.22513 -43.40181,25.67714 -69.22355,29.82848 -21.29615,3.42378 -45.341913,1.43439 -65.374984,-6.5609 C 51.798538,145.76162 41.870544,136.13324 32.353699,124.9433 19.822056,110.20857 19.299256,85.625476 19.299256,85.625476 c 1.50994,-3.046586 5.520905,0.812993 4.223152,2.93149 z"
         id="path1"
         sodipodi:nodetypes="cssssssssscc" />
      <path
         style="opacity:1;fill:#111b09;fill-opacity:1;stroke-width:2.117;stroke-linejoin:round;stroke-miterlimit:3.1;paint-order:markers stroke fill"
         d="m 132.62847,146.45648 c 0,0 -3.04345,-0.83449 -6.72503,0.88358 -3.68157,1.71807 -2.35621,2.94527 -1.71807,2.94527 0.63814,0 0.93267,-0.63815 1.27628,-0.4418 0.34362,0.19635 0.0982,0.34362 1.66899,0.58906 1.5708,0.24544 5.54691,-1.17811 5.54691,-1.81625 0,-0.63813 -0.58905,-0.49087 -0.049,-0.73632 0.53996,-0.24543 0.93266,-0.58904 0.53996,-0.78539 -0.3927,-0.19637 -0.53996,-0.63815 -0.53996,-0.63815 z"
         id="path8" />
      <path
         style="opacity:1;fill:#111b09;fill-opacity:1;stroke-width:2.117;stroke-linejoin:round;stroke-miterlimit:3.1;paint-order:markers stroke fill"
         d="m 150.98727,132.66284 c 0,0 -1.03084,-1.61991 -1.71807,-0.49089 -0.68723,1.12902 -2.06169,6.33232 -3.09252,6.03779 -1.03084,-0.29453 -0.63815,-1.22719 -1.47264,-1.03084 -0.83449,0.19635 -7.11771,6.38141 -6.18505,7.80495 0.93266,1.42355 1.37446,2.30713 2.11077,1.86533 0.73631,-0.44178 3.53432,-3.9761 3.82885,-3.87793 0.29451,0.0981 -0.19635,0.24545 -0.63815,1.07993 -0.44178,0.83449 -2.84708,4.12338 -2.06169,5.30147 0.78541,1.17811 2.15987,0.88358 2.69984,-0.93266 0.53996,-1.81624 3.43613,-7.1668 4.12336,-9.22849 0.68723,-2.06169 2.25804,-5.10512 2.25804,-5.64509 0,-0.53996 0.14726,-0.88357 0.14726,-0.88357 z"
         id="path9" />
      <path
         style="opacity:1;fill:#111b09;fill-opacity:1;stroke-width:2.117;stroke-linejoin:round;stroke-miterlimit:3.1;paint-order:markers stroke fill"
         d="m 80.51666,135.55467 c 0,0 10.829599,4.72059 24.29718,6.94205 13.46758,2.22146 37.07056,-0.69421 37.07056,-0.69421 l 2.08262,-1.24957 c 0,0 -23.60298,0.55536 -34.57142,-0.13885 -10.968445,-0.69419 -27.768212,-5.97015 -28.60126,-5.97015 -0.833047,0 -0.27768,1.11073 -0.27768,1.11073 z"
         id="path10" />
      <path
         style="opacity:1;fill:#111b09;fill-opacity:1;stroke-width:2.117;stroke-linejoin:round;stroke-miterlimit:3.1;paint-order:markers stroke fill"
         d="m 153.14713,134.28273 c 0,0 0.0491,0.44179 -1.22719,2.798 -1.27628,2.3562 -1.32537,9.76845 -0.8345,8.68852 0.49088,-1.07993 1.61989,-6.57775 1.61989,-6.57775 0,0 25.27774,-5.02525 42.63287,-19.60355 17.35513,-14.57832 19.99311,-24.297188 19.99311,-24.297188 l 1.80494,-9.441191 c 0,0 -6.27172,18.743029 -26.96306,33.637309 -20.33659,14.63891 -36.20961,17.17852 -36.20961,17.17852 0,0 1.59666,-3.40162 0.69421,-3.54046 -0.90247,-0.13883 -1.51066,1.15779 -1.51066,1.15779 z"
         id="path11"
         sodipodi:nodetypes="csscsccscsc" />
    </g>
    <g
       inkscape:groupmode="layer"
       id="layer8"
       inkscape:label="That thingy">
      <g
         inkscape:groupmode="layer"
         id="layer9"
         inkscape:label="That thingy F">
        <path
           style="opacity:1;fill:#5e6b92;fill-opacity:1;stroke-width:2.117;stroke-linejoin:round;stroke-miterlimit:3.1;paint-order:markers stroke fill"
           d="m 40.599856,117.01938 c 0,0 -0.06943,-3.47102 -1.527252,-5.97016 -1.457831,-2.49914 -6.594949,-1.04131 -6.594949,-1.04131 l 0.06943,2.36031 c 0,0 -4.165231,9.8577 -4.373492,14.02293 -0.208262,4.16524 0.833046,7.91395 6.247847,11.38498 5.414801,3.47102 13.537002,7.01146 17.910495,7.01146 4.373495,0 14.092366,-7.35858 17.146868,-8.46931 3.054506,-1.11071 5.623065,-1.73551 5.623065,-1.73551 l 1.110727,2.15204 c 0,0 2.985083,3.0545 1.943775,-2.22145 -1.041308,-5.27596 -5.48422,-7.56685 -7.983359,-7.70568 -2.499139,-0.13884 -15.897301,7.15031 -18.951803,6.38669 -3.054503,-0.76363 -7.150317,-0.90247 -9.302352,-6.4561 -2.152035,-5.55365 -1.318991,-9.71889 -1.318991,-9.71889 z"
           id="path4" />
        <path
           style="opacity:1;fill:#9ea7c4;fill-opacity:1;stroke-width:2.117;stroke-linejoin:round;stroke-miterlimit:3.1;paint-order:markers stroke fill"
           d="m 36.539651,123.56849 c 0,0 2.372912,-7.11752 1.596322,-7.63603 -0.776592,-0.51849 -2.114052,-2.35678 -3.149504,0.94272 -1.035455,3.29951 -0.949167,7.58888 -0.949167,7.58888 0,0 -0.34515,0.8013 -0.04314,2.07397 0.30201,1.27269 -0.819731,0.89559 1.812047,4.00656 2.631777,3.11096 5.910712,4.57218 6.55787,4.52503 0.647158,-0.0471 2.502345,-2.4982 -0.949166,-6.36333 -3.451512,-3.86515 -4.616396,-3.58232 -4.788973,-4.3365 -0.172573,-0.75417 -0.08628,-0.8013 -0.08628,-0.8013 z"
           id="path5" />
        <path
           style="opacity:1;fill:#9ea7c4;fill-opacity:1;stroke-width:2.117;stroke-linejoin:round;stroke-miterlimit:3.1;paint-order:markers stroke fill"
           d="m 49.224,141.05886 c 0,0 1.527252,0.34711 1.110728,-1.21486 -0.416524,-1.56196 -6.004873,-4.72059 -7.393284,-2.84624 -1.388411,1.87435 5.241249,6.73379 5.484221,5.55364 0.242972,-1.18014 0.13884,-1.83964 0.451232,-1.63138 0.312392,0.20826 0.347103,0.13884 0.347103,0.13884 z"
           id="path6" />
        <path
           style="opacity:1;fill:#9ea7c4;fill-opacity:1;stroke-width:2.117;stroke-linejoin:round;stroke-miterlimit:3.1;paint-order:markers stroke fill"
           d="m 72.325035,128.75145 c -0.416523,-0.0694 -14.231204,4.99828 -16.10556,6.59495 -1.874355,1.59668 -1.596671,2.29089 -1.596671,2.29089 0,0 -1.457831,0.55536 -0.06943,1.24957 1.388411,0.6942 9.302351,-4.51234 10.899023,-5.34539 1.596675,-0.83305 6.594953,-3.95696 7.56684,-4.02639 0.971887,-0.0694 3.123923,-0.55536 1.66609,-0.97188 -1.457831,-0.41653 -2.360298,0.20825 -2.360297,0.20825 z"
           id="path7" />
      </g>
      <g
         inkscape:groupmode="layer"
         id="layer10"
         inkscape:label="That thingy O">
        <path
           style="opacity:1;fill:#111b09;fill-opacity:1;stroke-width:2.117;stroke-linejoin:round;stroke-miterlimit:3.1;paint-order:markers stroke fill"
           d="m 31.575188,110.07733 c 0,0 1.527252,0.69421 -0.416524,3.0545 -1.943771,2.3603 -6.525526,10.89903 -4.720594,15.96673 1.804935,5.06769 7.636257,11.59322 12.426275,13.8841 4.790018,2.29088 10.690759,5.27595 18.882382,2.77682 8.19162,-2.49914 13.884106,-10.20481 16.313824,-9.78829 2.429719,0.41652 1.180148,2.22146 2.221456,1.87435 1.041307,-0.3471 1.3215,-3.76061 -1.943774,-4.44291 -4.651177,-0.97189 -12.565115,9.16351 -21.381523,9.92713 -8.816404,0.76363 -21.520361,-7.84452 -22.839353,-13.12047 -1.318989,-5.27596 -0.763624,-8.74699 0.902467,-12.21801 1.666092,-3.47103 3.919548,-7.28122 2.749452,-8.37093 -1.868822,-1.74044 -1.819734,-0.17601 -1.819734,-0.17601 z"
           id="path2"
           sodipodi:nodetypes="cssssssssssscc" />
        <path
           style="opacity:1;fill:#111b09;fill-opacity:1;stroke-width:2.117;stroke-linejoin:round;stroke-miterlimit:3.1;paint-order:markers stroke fill"
           d="m 39.459963,116.66023 c 0,0 0.898979,0.9432 0.260836,3.15208 -0.63814,2.20896 -1.224159,4.28015 -0.228598,7.91504 0.687181,2.50897 2.428427,3.75116 4.445208,4.95377 5.352882,3.19193 12.647025,2.43055 15.668251,0.3204 2.818332,-1.96844 5.835213,-3.24885 6.967567,-3.86952 0.51929,-0.28462 1.607877,-0.28461 2.456429,-0.40461 0.02172,-0.64168 0.0745,-2.72874 -1.977463,-2.24119 -1.887148,0.44839 -13.421901,8.56392 -21.60353,3.18228 -5.853726,-3.8504 -2.259425,-10.89015 -4.123369,-13.35186 -1.172954,-1.54913 -1.865331,0.34361 -1.865331,0.34361 z"
           id="path3"
           sodipodi:nodetypes="cssssscsssc" />
      </g>
    </g>
  </g>
</svg>
