<?xml version="1.0" encoding="UTF-8" standalone="no"?>
<!-- Created with Inkscape (http://www.inkscape.org/) -->

<svg
   width="157.1348mm"
   height="78.453239mm"
   viewBox="0 0 157.1348 78.45324"
   version="1.1"
   id="svg1"
   xml:space="preserve"
   inkscape:version="1.3 (0e150ed6c4, 2023-07-21)"
   sodipodi:docname="plate_new.svg"
   xmlns:inkscape="http://www.inkscape.org/namespaces/inkscape"
   xmlns:sodipodi="http://sodipodi.sourceforge.net/DTD/sodipodi-0.dtd"
   xmlns="http://www.w3.org/2000/svg"
   xmlns:svg="http://www.w3.org/2000/svg"><sodipodi:namedview
     id="namedview1"
     pagecolor="#ffffff"
     bordercolor="#000000"
     borderopacity="0.25"
     inkscape:showpageshadow="2"
     inkscape:pageopacity="0.0"
     inkscape:pagecheckerboard="0"
     inkscape:deskcolor="#d1d1d1"
     inkscape:document-units="mm"
     inkscape:zoom="0.48441477"
     inkscape:cx="-108.3782"
     inkscape:cy="-126.95732"
     inkscape:window-width="1920"
     inkscape:window-height="974"
     inkscape:window-x="-11"
     inkscape:window-y="-11"
     inkscape:window-maximized="1"
     inkscape:current-layer="layer1" /><defs
     id="defs1" /><g
     inkscape:label="Layer 1"
     inkscape:groupmode="layer"
     id="layer1"
     transform="translate(-41.293308,-209.54581)"><path
       style="opacity:1;fill:#e0dbdc;fill-opacity:1;stroke:none;stroke-width:0.699999;stroke-linejoin:round;stroke-miterlimit:3.1"
       d="m 114.63318,211.28743 c -18.440027,-0.32012 -37.366281,3.70263 -53.202471,12.38719 -10.888887,6.04917 -20.190398,17.41532 -17.707082,29.44659 3.611568,12.37344 16.763701,19.84127 28.907609,24.84703 15.253796,6.07171 32.114204,8.78431 48.754304,7.48092 19.51861,-0.29293 38.8591,-5.76326 55.47403,-14.90248 9.3283,-5.44786 19.58247,-13.65684 18.8618,-24.62294 -1.35827,-13.14579 -14.29203,-22.49075 -27.1581,-26.92871 -14.61647,-5.35267 -30.28277,-8.44177 -46.07952,-7.78491 -2.60077,-0.01 -5.20153,9.6e-4 -7.8023,0.004 z"
       id="path2"
       sodipodi:nodetypes="ccccccccccc" /><path
       style="fill:#eeeeee;fill-opacity:1;stroke:none;stroke-width:0.699999;stroke-linejoin:round;stroke-miterlimit:3.1"
       d="m 146.31652,283.14546 c 16.70309,-6.01892 14.07832,-22.57097 24.5774,-23.86073 10.49909,-1.28978 5.24955,5.15908 12.40802,-0.42993 7.15847,-5.589 -7.0187,-12.94799 -22.76734,-23.69608 -15.74863,-10.74809 -27.88948,-25.03944 -69.20846,-16.87318 -38.318276,7.57319 -71.237299,22.29753 -31.627104,46.80314 24.403292,15.09758 20.043716,1.7197 27.202177,4.94412 13.558757,6.10732 17.657557,8.59847 29.588347,7.73862 11.93079,-0.85984 23.62296,1.50474 26.48633,1.93466 2.8634,0.42991 3.34063,3.43938 3.34063,3.43938 z"
       id="path4"
       sodipodi:nodetypes="cssssssssc" /><path
       id="path1"
       style="opacity:1;fill:#111b09;stroke:none;stroke-width:0.699999;stroke-linejoin:round;stroke-miterlimit:3.1"
       d="m 119.49192,209.5508 c -39.014823,-0.28034 -76.068866,11.24428 -78.149799,38.13705 -2.069106,26.73989 61.995609,55.72964 124.648129,30.81182 14.2819,-5.68012 33.38825,-17.38807 32.40111,-31.46325 -1.73208,-24.69663 -39.8846,-37.2053 -78.89944,-37.48562 z m 0.24344,1.97129 c 36.90798,-0.01 73.73196,11.87708 75.39168,34.65855 0.94592,12.98366 -15.26185,23.2562 -28.74984,28.95039 C 105.60145,300.78854 41.859072,272.9132 43.841752,248.24692 45.83577,223.43963 82.827358,211.53221 119.73536,211.52209 Z"
       sodipodi:nodetypes="ssssscscsc" /><path
       style="opacity:1;fill:#e0dbdc;fill-opacity:1;stroke:none;stroke-width:0.699999;stroke-linejoin:round;stroke-miterlimit:3.1"
       d="m 128.7814,222.56282 c -16.73708,-1.0367 -39.610201,1.28975 -49.632053,7.52364 -10.021867,6.23389 -8.590169,18.05678 -5.249552,18.91663 3.340618,0.85984 16.703102,-1.50475 25.293256,-5.15909 8.590169,-3.65435 21.475429,-10.53312 19.089269,-6.66382 -2.38616,3.86932 -10.02186,4.29925 -2.62479,4.94413 7.39709,0.64488 12.64664,-6.87877 19.56649,-5.589 6.91985,1.28977 -6.44262,4.08428 -3.102,6.01893 3.34062,1.93465 13.6011,1.71969 17.65755,5.15906 4.05646,3.4394 15.51002,8.16855 18.85063,3.22444 3.34061,-4.94412 8.35155,-11.39296 -3.34061,-18.05676 -11.69215,-6.66383 -23.78401,-9.53005 -36.50819,-10.31816 z"
       id="path3"
       sodipodi:nodetypes="ssssssssssss" /><path
       style="opacity:0.220382;fill:#534646;fill-opacity:1;stroke:none;stroke-width:0.699999;stroke-linejoin:round;stroke-miterlimit:3.1"
       d="m 156.7289,248.19892 c 6.04056,-5.79724 -0.76165,-15.62825 -25.76807,-17.44794 -42.019198,-3.0577 -62.979323,18.72229 -29.96819,25.54604 33.01113,6.82377 48.60103,-1.25025 55.73626,-8.0981 z"
       id="path8"
       sodipodi:nodetypes="ssss" /><path
       style="opacity:1;fill:#ccc3c5;fill-opacity:1;stroke:none;stroke-width:0.699999;stroke-linejoin:round;stroke-miterlimit:3.1"
       d="m 117.11076,235.28359 c 0,0 -18.222506,6.53604 -24.802847,5.47203 -6.580341,-1.064 6.749074,7.29604 12.485777,7.44804 5.7367,0.152 16.02905,-13.07207 14.84797,-13.37608 -1.1811,-0.30399 -2.5309,0.45601 -2.5309,0.45601 z"
       id="path5" /><path
       style="opacity:1;fill:#e8e4e4;fill-opacity:1;stroke:none;stroke-width:0.699999;stroke-linejoin:round;stroke-miterlimit:3.1"
       d="m 127.79452,252.46669 c -6.44262,3.00947 -21.47541,7.95359 -7.6357,10.53312 13.83971,2.57955 36.98542,1.28978 30.3042,-5.80395 -6.68126,-7.09374 -20.75957,-14.6174 -17.89619,-10.53312 2.8634,4.08426 6.68124,8.59846 1.67032,7.30869 -5.01093,-1.28978 -6.44263,-1.50474 -6.44263,-1.50474 z"
       id="path6" /><path
       style="fill:#e8e4e4;fill-opacity:1;stroke:none;stroke-width:0.699999;stroke-linejoin:round;stroke-miterlimit:3.1"
       d="m 64.91854,239.8523 c -1.367579,3.36915 2.863788,12.07321 -3.238072,11.14665 -6.101846,-0.9266 -25.129976,-4.30784 -13.294706,1.28476 11.835245,5.59262 34.411918,16.11578 32.848474,1.00783 -1.563467,-15.10794 -5.627243,-16.25463 -9.616222,-16.62919 -3.988982,-0.37457 -6.699474,3.18995 -6.699474,3.18995 z"
       id="path7" /></g></svg>
