<?xml version="1.0" encoding="UTF-8" standalone="no"?>
<!-- Created with Inkscape (http://www.inkscape.org/) -->

<svg
   width="414.13409"
   height="323.12366"
   viewBox="0 0 109.57298 85.493135"
   version="1.1"
   id="svg1"
   inkscape:version="1.3 (0e150ed6c4, 2023-07-21)"
   sodipodi:docname="red_arrow.svg"
   xmlns:inkscape="http://www.inkscape.org/namespaces/inkscape"
   xmlns:sodipodi="http://sodipodi.sourceforge.net/DTD/sodipodi-0.dtd"
   xmlns="http://www.w3.org/2000/svg"
   xmlns:svg="http://www.w3.org/2000/svg">
  <sodipodi:namedview
     id="namedview1"
     pagecolor="#ffffff"
     bordercolor="#000000"
     borderopacity="0.25"
     inkscape:showpageshadow="2"
     inkscape:pageopacity="0.0"
     inkscape:pagecheckerboard="0"
     inkscape:deskcolor="#d1d1d1"
     inkscape:document-units="px"
     inkscape:zoom="0.96882954"
     inkscape:cx="153.27774"
     inkscape:cy="83.089952"
     inkscape:window-width="1920"
     inkscape:window-height="974"
     inkscape:window-x="-11"
     inkscape:window-y="-11"
     inkscape:window-maximized="1"
     inkscape:current-layer="layer1" />
  <defs
     id="defs1" />
  <g
     inkscape:label="Layer 1"
     inkscape:groupmode="layer"
     id="layer1"
     transform="translate(-37.502269,-92.291922)">
    <path
       style="fill:#fd5946;fill-opacity:1;stroke-width:44.444;stroke-linejoin:round;stroke-miterlimit:3.1"
       d="M 144.44891,24.042508 C 124.41354,27.18586 110.17859,43.82528 95.365825,56.228582 69.586322,82.009966 43.871574,108.24032 21.978382,137.44685 c -6.172485,11.60616 3.033895,24.14684 6.389097,35.26691 16.791441,36.63537 43.273336,67.82736 69.531548,98.0116 13.763103,14.19095 31.031023,29.55441 49.047803,38.41593 13.7347,3.57159 15.70299,-11.81753 16.60095,-22.70958 3.70268,-25.31574 2.5936,-52.09735 4.47038,-76.80316 18.14529,4.10415 37.13167,1.3621 55.58491,3.15539 53.8838,2.44124 108.26418,2.25577 161.68146,-5.69849 12.7834,-2.95681 11.76643,-17.73829 10.53731,-27.8486 -2.87258,-21.25262 -4.61633,-43.66632 -14.47169,-63.03567 -9.37639,-14.52177 -29.1041,-9.47399 -43.60256,-10.24071 -53.03092,0.68555 -105.7527,6.29409 -158.67325,1.414 -4.36815,-0.76141 -11.08648,-0.63461 -9.44822,-7.01061 -2.57176,-21.633015 1.36706,-44.571701 -6.5573,-65.265163 -3.43124,-6.841257 -10.87093,-11.590622 -18.61991,-11.056189 z"
       id="path4"
       transform="matrix(0.26458334,0,0,0.26458334,37.502269,92.291922)"
       sodipodi:nodetypes="ccccccccccccccccc" />
    <path
       style="fill:#d43725;fill-opacity:1;stroke-width:11.7591;stroke-linejoin:round;stroke-miterlimit:3.1"
       d="m 44.454155,124.92716 c 0,0 24.331599,32.05592 26.06957,28.00065 1.737974,-4.05526 0.882727,-18.03351 4.441484,-18.15214 5.793238,-0.19311 5.793237,3.08973 6.56567,3.08973 0.772432,0 47.311441,3.47593 50.594281,0.57932 3.28283,-2.89662 7.68717,-9.89335 7.68717,-9.89335 0,0 2.2276,17.07148 0.68274,17.84391 -1.54487,0.77243 -58.867636,1.41517 -58.867636,1.41517 0,0 0.17453,25.85789 -4.846277,25.85789 -5.020805,0 -21.732214,-19.02328 -31.940786,-35.80294 -5.739357,-9.43369 -0.386216,-12.93824 -0.386216,-12.93824 z"
       id="path5"
       sodipodi:nodetypes="csssscscssc" />
    <path
       id="path1"
       style="fill:#111b09;fill-opacity:1;stroke-width:11.7591;stroke-linejoin:round;stroke-miterlimit:3.1"
       d="m 43.75639,123.68441 c -6.891805,10.45024 -4.032502,9.08286 0.134636,7.90537 1.160825,-0.32801 28.755227,-36.390351 33.89664,-29.42042 3.365764,4.56276 -0.179974,18.33077 2.885612,20.16414 6.94105,4.1511 48.699512,-0.68273 54.376522,1.00511 2.71405,0.8069 4.44214,14.06788 4.72323,21.07985 -32.64481,3.64241 -39.04605,0.71188 -58.90855,1.1529 0,0 -1.645017,2.71444 0.598757,4.18631 2.243842,1.47187 39.949313,-0.37641 42.834253,-0.37641 2.88495,0 5.31557,-0.71691 9.32243,-0.12816 0.79765,0.1172 1.47798,0.016 2.06137,-0.23461 -0.64726,1.59569 -0.67051,1.83089 3.5786,1.83089 6.93083,0 3.34561,-24.29631 0.34061,-29.39706 -4.08862,-6.94012 -32.29119,-0.15956 -50.533083,-1.62534 -1.616696,-0.12991 -4.671476,-0.64339 -4.824189,-0.63439 -0.01508,-8.72437 -0.08378,-22.433707 -8.566667,-21.105849 C 64.241609,99.876698 53.634146,113.57034 43.75639,123.68441 Z"
       sodipodi:nodetypes="csccsccssscssscsc" />
    <path
       style="fill:#111b09;fill-opacity:1;stroke-width:11.7591;stroke-linejoin:round;stroke-miterlimit:3.1"
       d="m 41.28603,129.11477 c 0.737559,12.88241 16.392841,35.57909 30.984433,44.57361 14.18677,8.74498 10.185182,-22.07224 10.233154,-25.7868 0.02661,-2.06062 -3.373357,-5.25626 -3.433336,-3.04846 -0.0605,2.22665 0.386807,26.88423 -2.724675,26.93516 -3.375224,0.0553 -36.026725,-34.5838 -30.291946,-45.77505 z"
       id="path2"
       sodipodi:nodetypes="csssscc" />
  </g>
</svg>
