<?xml version="1.0" encoding="UTF-8" standalone="no"?>
<!-- Created with Inkscape (http://www.inkscape.org/) -->

<svg
   width="520"
   height="80"
   viewBox="0 0 137.58334 21.166667"
   version="1.1"
   id="svg1"
   sodipodi:docname="minigame_progress_bar_outline.svg"
   inkscape:version="1.3 (0e150ed6c4, 2023-07-21)"
   xmlns:inkscape="http://www.inkscape.org/namespaces/inkscape"
   xmlns:sodipodi="http://sodipodi.sourceforge.net/DTD/sodipodi-0.dtd"
   xmlns="http://www.w3.org/2000/svg"
   xmlns:svg="http://www.w3.org/2000/svg">
  <sodipodi:namedview
     id="namedview1"
     pagecolor="#f660c1"
     bordercolor="#000000"
     borderopacity="0.25"
     inkscape:showpageshadow="2"
     inkscape:pageopacity="0.0"
     inkscape:pagecheckerboard="0"
     inkscape:deskcolor="#d1d1d1"
     inkscape:document-units="px"
     inkscape:zoom="1.9376591"
     inkscape:cx="87.476689"
     inkscape:cy="-0.77412999"
     inkscape:window-width="1920"
     inkscape:window-height="974"
     inkscape:window-x="-11"
     inkscape:window-y="-11"
     inkscape:window-maximized="1"
     inkscape:current-layer="layer1" />
  <defs
     id="defs1" />
  <g
     inkscape:label="Layer 1"
     inkscape:groupmode="layer"
     id="layer1">
    <path
       id="path2"
       style="fill:#111b09;fill-opacity:1;stroke:none;stroke-width:11.7591;stroke-linejoin:round;stroke-miterlimit:3.1"
       d="M 129.08484,0.56509228 C 124.02229,0.75234804 114.13659,0.69802288 96.829705,0.88528015 91.343841,0.94463626 65.512453,0.78549405 61.980443,0.79173579 L 35.490097,0.83854986 C 32.84109,0.8432312 14.091936,0.51043595 12.590831,0.51043595 c -6.0710343,0 -9.2580337,-0.71377782 -10.4855132,0.45680211 C -0.22292883,3.1875595 -0.24678715,18.351892 0.91659475,19.909473 c 0.42660295,2.244353 5.37019635,1.288104 8.66673875,1.100849 3.2965445,-0.187256 5.8404595,-0.627423 9.3136045,-0.346539 3.473144,0.280884 28.896275,-0.210219 30.956616,0.02385 2.060339,0.234076 11.519032,0.199212 14.638973,0.105595 3.119945,-0.09364 19.442426,-0.187089 21.6205,-0.187089 2.178074,0 11.724912,-0.08279 14.815413,-0.223231 3.09052,-0.140446 19.57886,0.179247 23.16973,0.226066 3.59089,0.04682 11.42685,0.05935 12.07438,-0.876923 0.64754,-0.936277 0.65647,-3.727505 0.62707,-5.834133 -0.0294,-2.106628 0.90668,-11.4161373 -0.0905,-12.3505222 -1.94741,-1.82471938 -5.41578,-1.08035804 -7.62425,-0.98229641 z M 6.1619026,3.6489035 C 29.749123,3.6305922 62.734826,4.5398796 129.70377,3.1804247 c 1.1331,-0.023002 3.6046,0.1175124 4.17855,0.8197217 0.57395,0.7022092 0.48219,1.5376628 0.51901,3.6359175 -0.3204,6.0016821 1.64684,10.6754571 -2.8142,10.6302151 -1.79544,0 -24.22664,-0.26497 -26.34585,-0.26497 -2.11922,0 -20.987035,-0.197372 -24.601756,0.0038 C 56.326642,19.357973 35.429873,17.886654 12.764633,18.203197 9.0265874,18.250015 5.9250216,18.663332 4.6578618,17.891904 3.2058339,17.007919 3.229851,11.174053 3.3961637,8.601816 3.5230696,6.6390539 3.7535555,3.6507732 6.1619026,3.6489035 Z"
       sodipodi:nodetypes="sssssscssssssssssssscsssssssss" />
  </g>
</svg>
