<?xml version="1.0" encoding="UTF-8" standalone="no"?>
<!-- Created with Inkscape (http://www.inkscape.org/) -->

<svg
   width="600"
   height="60"
   viewBox="0 0 158.75 15.875"
   version="1.1"
   id="svg1"
   inkscape:version="1.3 (0e150ed6c4, 2023-07-21)"
   sodipodi:docname="minigame_progress_bar.svg"
   xmlns:inkscape="http://www.inkscape.org/namespaces/inkscape"
   xmlns:sodipodi="http://sodipodi.sourceforge.net/DTD/sodipodi-0.dtd"
   xmlns="http://www.w3.org/2000/svg"
   xmlns:svg="http://www.w3.org/2000/svg">
  <sodipodi:namedview
     id="namedview1"
     pagecolor="#f660c1"
     bordercolor="#000000"
     borderopacity="0.25"
     inkscape:showpageshadow="2"
     inkscape:pageopacity="0.0"
     inkscape:pagecheckerboard="0"
     inkscape:deskcolor="#d1d1d1"
     inkscape:document-units="px"
     inkscape:zoom="2.7402637"
     inkscape:cx="62.585217"
     inkscape:cy="11.495244"
     inkscape:window-width="1920"
     inkscape:window-height="974"
     inkscape:window-x="-11"
     inkscape:window-y="-11"
     inkscape:window-maximized="1"
     inkscape:current-layer="layer1" />
  <defs
     id="defs1" />
  <g
     inkscape:label="Layer 1"
     inkscape:groupmode="layer"
     id="layer1">
    <path
       style="fill:#f3f1e8;fill-opacity:1;stroke:none;stroke-width:11.7591;stroke-linejoin:round;stroke-miterlimit:3.1"
       d="m 1.2354955,13.596339 c 0.505274,1.032885 0.7489494,1.5936 2.7763781,1.511382 2.0274287,-0.08222 6.4278574,-0.592241 12.0177264,-0.685263 5.589869,-0.09302 34.213852,0.279063 46.020038,0.418592 11.80619,0.13953 65.086842,-0.665876 75.884432,-0.528276 11.05665,0.1409 13.76757,0.450796 18.95059,0.31898 1.95078,-0.04962 0.96377,-2.604572 1.10833,-5.1626343 0.14457,-2.5580627 0.75933,-7.5466266 -0.49353,-8.2442798 -1.25295,-0.69765343 -7.394,0.8677345 -33.54075,0.2278766 C 117.27915,1.2892556 51.399976,1.2600648 40.220237,1.2600648 29.040501,1.2600648 20.489167,1.0946015 3.0909826,0.74845237 -0.10774465,0.6848114 0.68279767,12.466511 1.2354955,13.596339 Z"
       id="path1"
       sodipodi:nodetypes="ssssssscssss" />
    <path
       id="path2"
       style="fill:#111b09;fill-opacity:1;stroke:none;stroke-width:11.7591;stroke-linejoin:round;stroke-miterlimit:3.1"
       d="M 5.1843265,0.29010248 C 4.1122131,0.30130367 2.9398128,0.3443397 2.3136766,0.38233728 -0.34285616,0.54355113 0.09623343,11.599728 0.89220646,14.232607 c 0.49477494,1.636592 6.10028114,1.072696 9.92361754,0.936149 3.823339,-0.136548 6.773585,-0.457738 10.801745,-0.252916 4.028159,0.204822 33.787395,0.05177 36.176983,0.222451 2.389584,0.170689 13.359421,0.144888 16.977936,0.07662 3.618518,-0.06828 22.549669,-0.136425 25.075803,-0.136425 2.526129,0 13.598199,-0.06023 17.182569,-0.162644 3.58438,-0.102415 22.70761,0.130624 26.87231,0.164764 4.16472,0.03414 13.34976,0.09188 14.10077,-0.590855 0.75102,-0.682738 0.37516,-3.34571 0.34106,-4.881872 -0.0341,-1.5361627 0.29018,-7.7490148 -0.59738,-8.7560547 -0.88756,-1.00703991 -1.50164,-0.22181391 -7.37319,-0.0852661 C 144.50288,0.90310595 118.627,1.1079887 112.27753,0.6983453 105.92806,0.2887029 75.95576,0.63013341 71.859326,0.63013341 H 40.930981 c -3.072326,0 -24.817601,-0.23926188 -26.558585,-0.23926188 -1.305738,0 -5.971729,-0.1343726 -9.1880695,-0.10076905 z M 3.5818404,0.96861404 C 6.6164374,0.85371509 17.101316,1.3592879 19.044462,1.3592879 c 2.220739,0 53.925348,0.2412479 57.256454,0.144694 3.331108,-0.096554 50.256444,0.3860229 60.201494,0.3860229 9.94505,0 16.2614,-0.7136515 17.57567,-0.7136515 1.31428,0 2.27107,-0.25757582 2.93674,0.2544784 0.66567,0.5120542 0.60894,2.5323243 0.67609,4.061503 0.17431,3.969151 0.19188,4.2486945 0.22208,5.3469943 0.0302,1.0983 -0.0601,2.516343 -0.45234,2.956869 -0.39225,0.440528 -0.80516,0.420186 -2.88751,0.420186 -2.08236,0 -31.09875,-0.204639 -33.55661,-0.204639 -2.45787,0 -25.637059,0.238745 -29.835903,0.238745 -4.198845,0 -25.704857,0.273369 -27.479976,0.273369 -1.775122,0 -19.150939,-0.341639 -23.008415,-0.273369 -3.857475,0.06827 -12.221105,-0.136426 -13.791406,-0.136426 -1.570299,0 -9.490121,-0.03414 -13.825513,0 -4.3353915,0.03414 -9.2166328,0.576662 -10.6862871,0.01413 C 0.70496512,13.483589 1.1355325,6.5498563 1.3302857,4.674362 1.4928053,3.0735171 1.5969248,1.0437689 3.5818404,0.96861404 Z"
       sodipodi:nodetypes="ssssssssssssssssssssssssssssssssssssss" />
  </g>
</svg>
