<?xml version="1.0" encoding="UTF-8" standalone="no"?>
<!-- Created with Inkscape (http://www.inkscape.org/) -->

<svg
   width="520"
   height="80"
   viewBox="0 0 137.58334 21.166667"
   version="1.1"
   id="svg1"
   sodipodi:docname="minigame_progress_bar_fill.svg"
   inkscape:version="1.3 (0e150ed6c4, 2023-07-21)"
   xmlns:inkscape="http://www.inkscape.org/namespaces/inkscape"
   xmlns:sodipodi="http://sodipodi.sourceforge.net/DTD/sodipodi-0.dtd"
   xmlns="http://www.w3.org/2000/svg"
   xmlns:svg="http://www.w3.org/2000/svg">
  <sodipodi:namedview
     id="namedview1"
     pagecolor="#f660c1"
     bordercolor="#000000"
     borderopacity="0.25"
     inkscape:showpageshadow="2"
     inkscape:pageopacity="0.0"
     inkscape:pagecheckerboard="0"
     inkscape:deskcolor="#d1d1d1"
     inkscape:document-units="px"
     inkscape:zoom="1.3701319"
     inkscape:cx="273.33135"
     inkscape:cy="-39.047336"
     inkscape:window-width="1920"
     inkscape:window-height="974"
     inkscape:window-x="-11"
     inkscape:window-y="-11"
     inkscape:window-maximized="1"
     inkscape:current-layer="layer1" />
  <defs
     id="defs1" />
  <g
     inkscape:label="Layer 1"
     inkscape:groupmode="layer"
     id="layer1">
    <path
       style="fill:#ffffff;fill-opacity:1;stroke:none;stroke-width:44.444;stroke-linejoin:round;stroke-miterlimit:3.1"
       d="m 484.51227,9.622135 c -47.80915,0.680311 -95.61784,1.82223 -143.43107,1.719215 -107.35311,0.520286 -214.71636,-0.171305 -322.063585,0.83956 -5.979717,1.964519 -7.477453,9.470818 -8.329205,14.959213 -0.524148,11.808117 -1.4361043,23.934297 1.19457,35.553432 0.738526,5.277283 5.397886,8.964784 10.694112,8.691282 26.205481,0.875474 52.410928,-0.364614 78.597768,0.131119 58.75918,0.728135 117.54439,1.755604 176.29904,0.320045 71.81531,-2.242396 143.72656,-0.51387 215.60421,-0.405548 5.72085,0.172596 12.87768,0.325558 16.04829,-5.506712 2.65148,-6.881919 0.87629,-14.64541 1.43541,-21.852931 -0.49224,-9.612142 1.02581,-19.566937 -1.4967,-28.950516 -3.49087,-6.6800066 -12.46195,-5.01714 -18.70254,-5.4851586 -1.95005,-0.024135 -3.90013,-0.012729 -5.8503,-0.013 z"
       id="path3"
       transform="scale(0.26458334)" />
  </g>
</svg>
