<?xml version="1.0" encoding="UTF-8" standalone="no"?>
<!-- Created with Inkscape (http://www.inkscape.org/) -->

<svg
   width="35.170162mm"
   height="27.021612mm"
   viewBox="0 0 35.170162 27.021611"
   version="1.1"
   id="svg1"
   inkscape:version="1.3 (0e150ed6c4, 2023-07-21)"
   sodipodi:docname="coriander.svg"
   xmlns:inkscape="http://www.inkscape.org/namespaces/inkscape"
   xmlns:sodipodi="http://sodipodi.sourceforge.net/DTD/sodipodi-0.dtd"
   xmlns="http://www.w3.org/2000/svg"
   xmlns:svg="http://www.w3.org/2000/svg">
  <sodipodi:namedview
     id="namedview1"
     pagecolor="#ffffff"
     bordercolor="#000000"
     borderopacity="0.25"
     inkscape:showpageshadow="2"
     inkscape:pageopacity="0.0"
     inkscape:pagecheckerboard="0"
     inkscape:deskcolor="#d1d1d1"
     inkscape:document-units="mm"
     inkscape:zoom="1.3166807"
     inkscape:cx="-7.5948558"
     inkscape:cy="-70.252416"
     inkscape:window-width="1920"
     inkscape:window-height="974"
     inkscape:window-x="-11"
     inkscape:window-y="-11"
     inkscape:window-maximized="1"
     inkscape:current-layer="layer11" />
  <defs
     id="defs1">
    <pattern
       id="EMFhbasepattern"
       patternUnits="userSpaceOnUse"
       width="6"
       height="6"
       x="0"
       y="0" />
  </defs>
  <g
     inkscape:groupmode="layer"
     id="layer11"
     inkscape:label="Art"
     transform="translate(-90.71411,-171.71423)">
    <path
       style="opacity:0.5;fill:#000000;stroke-width:2.117;stroke-linejoin:round;stroke-miterlimit:3.1;paint-order:markers stroke fill"
       d="m 122.02763,186.49318 c -1.9356,-2.60511 -17.90031,-6.32131 -25.875471,-3.46133 -6.964266,2.49747 -5.876703,6.71503 -4.135921,9.40772 5.220564,8.0753 23.024872,7.795 29.238152,2.48505 3.20321,-2.73751 3.68021,-4.51898 0.77324,-8.43144 z"
       id="path1"
       sodipodi:nodetypes="sssss" />
    <g
       inkscape:groupmode="layer"
       id="layer12"
       inkscape:label="F">
      <path
         style="opacity:1;fill:#a9bdcd;fill-opacity:1;stroke-width:2.117;stroke-linejoin:round;stroke-miterlimit:3.1;paint-order:markers stroke fill"
         d="m 121.37212,175.82882 c 0,0 3.16492,2.05971 3.11469,2.41137 -0.0502,0.35166 1.05497,4.21989 1.05497,4.42084 0,0.20094 -1.00474,4.16965 -1.15545,4.62178 -0.15071,0.45213 -0.40189,1.65782 -1.5071,2.61232 -1.10521,0.9545 -2.41137,1.70805 -3.21516,2.21041 -0.80379,0.50237 -3.66729,1.55735 -4.16965,1.70806 -0.50237,0.15071 -3.41611,1.25592 -4.42084,0.85402 -1.00474,-0.40189 -6.83221,-0.85402 -7.83694,-1.05497 -1.00474,-0.20095 -4.672026,-1.45687 -5.475817,-2.36113 -0.803788,-0.90426 -1.808525,-1.80852 -2.260655,-2.8635 -0.452131,-1.05497 -0.904262,-3.11468 -1.054973,-4.67202 -0.15071,-1.55734 -0.452131,-5.02368 -0.05024,-5.727 0.401894,-0.70331 2.361131,-2.71278 3.014207,-3.11468 0.653079,-0.40189 3.868238,-2.16018 5.676768,-2.21042 1.80852,-0.0502 4.3706,-0.20094 4.3706,-0.20094 0,0 -1.45687,-1.05498 1.55734,-0.50237 3.01421,0.5526 7.68623,0.75355 8.08812,1.00473 0.4019,0.25119 4.27013,2.8635 4.27013,2.8635 z"
         id="path21" />
      <path
         style="opacity:1;fill:#dfe9f3;fill-opacity:1;stroke-width:2.117;stroke-linejoin:round;stroke-miterlimit:3.1;paint-order:markers stroke fill"
         d="m 110.76005,188.41286 c 0,0 -2.27346,0.071 -0.71046,1.13673 1.563,1.06568 4.12064,1.27882 2.94839,1.42091 -1.17225,0.14209 -3.26809,-0.67494 -4.01407,0.99464 -0.74598,1.66957 -0.0355,2.20241 0.42627,2.30898 0.4618,0.10657 4.8311,0.49732 7.3177,-0.39075 2.48659,-0.88807 6.28753,-3.76542 6.67828,-4.58244 0.39075,-0.81703 2.20241,-2.41555 1.03016,-2.69973 -1.17225,-0.28419 -1.38539,-0.0711 -1.38539,-0.0711 0,0 0.31971,-0.49732 0.63941,-0.88807 0.31971,-0.39075 0.17762,-1.81166 0.17762,-1.81166 0,0 -2.06033,1.84718 -2.23794,2.0248 -0.17761,0.17761 -3.48123,1.63404 -4.15617,1.77614 -0.67493,0.14209 -6.10991,0.85254 -6.10991,0.85254 z"
         id="path22" />
      <path
         style="opacity:1;fill:#dfe9f3;fill-opacity:1;stroke-width:2.117;stroke-linejoin:round;stroke-miterlimit:3.1;paint-order:markers stroke fill"
         d="m 105.79871,190.07095 c -0.22606,-0.0502 -4.49619,-0.95449 -4.01894,0.32655 0.47725,1.28103 2.66255,1.08009 3.6924,1.05497 1.02986,-0.0251 2.51184,0.87914 1.88388,-0.17583 -0.62796,-1.05497 -1.55734,-1.20569 -1.55734,-1.20569 z"
         id="path23" />
      <path
         style="opacity:1;fill:#dfe9f3;fill-opacity:1;stroke-width:2.117;stroke-linejoin:round;stroke-miterlimit:3.1;paint-order:markers stroke fill"
         d="m 99.142337,188.7648 c -0.879144,-0.15071 -2.361131,-0.92938 -1.783408,0.0251 0.577723,0.9545 2.662551,0.60284 2.386248,0.35166 -0.276302,-0.25119 -0.60284,-0.37678 -0.60284,-0.37678 z"
         id="path24" />
      <path
         style="opacity:1;fill:#758291;fill-opacity:1;stroke-width:2.117;stroke-linejoin:round;stroke-miterlimit:3.1;paint-order:markers stroke fill"
         d="m 96.906161,184.71849 c 0,0 -3.054959,-5.54156 3.126009,-8.38338 6.18096,-2.84182 8.38337,-2.55764 13.64074,-1.42091 5.25738,1.13673 8.73861,3.9075 8.73861,3.9075 l 1.49756,2.08104 c 0,0 0.60284,1.25592 0.50237,1.5071 -0.10047,0.25119 -0.9545,1.85877 -0.9545,1.85877 0,0 -7.96253,1.45686 -12.98621,1.45686 -5.02368,0 -1.75829,2.31089 -3.06445,1.70805 -1.30615,-0.60284 -10.500129,-2.71503 -10.500129,-2.71503 z"
         id="path25" />
      <path
         style="opacity:1;fill:#cab5a3;fill-opacity:1;stroke-width:2.117;stroke-linejoin:round;stroke-miterlimit:3.1;paint-order:markers stroke fill"
         d="m 119.94269,176.97452 c 0,0 -0.28419,0.35523 -0.24866,0.94135 0.0355,0.58613 0.40851,0.85255 0.46179,1.03017 0.0533,0.17761 0.071,1.1012 0.071,1.1012 l 0.7815,-0.12433 c 0,0 0.21314,0.35523 0.15985,0.58613 -0.0533,0.2309 -0.21313,0.65717 -0.21313,0.65717 0,0 -0.24866,0.33746 -0.67494,0.56836 -0.42627,0.2309 -0.37299,1.0124 -0.28418,1.04793 0.0888,0.0355 0.44404,-0.12433 0.83479,0.15985 0.39075,0.28418 0.65717,0.47956 0.65717,0.47956 0,0 0.51508,-0.15986 0.95911,-0.0533 0.44404,0.10657 0.85255,0.28418 0.87031,0.55061 0.0178,0.26642 0.39075,0.58612 -0.0355,0.71045 -0.42627,0.12433 -1.93599,1.90047 -2.55764,1.90047 -0.62165,0 -3.94303,1.42091 -4.58244,1.43867 -0.63941,0.0178 -4.44035,0.14209 -5.32842,0.15985 -0.88807,0.0178 -0.92032,1.11338 -1.34733,1.18873 -0.42701,0.0754 -0.6782,-0.12559 -0.77867,-0.17583 -0.10047,-0.0502 -2.41137,-0.70331 -2.41137,-0.70331 l -5.24974,-1.20568 c 0,0 -5.023683,-2.43649 -5.626525,-3.56682 -0.602843,-1.13033 0.627959,0.22607 0.627959,0.22607 l 0.728435,0.40189 c 0,0 -0.703315,-0.57772 -0.728435,-1.25592 -0.02511,-0.6782 0.02511,-0.8289 0.02511,-0.8289 0,0 -0.200948,-1.13033 0,-1.73317 0.200946,-0.60285 0.226065,-0.62797 0.226065,-0.62797 l 0.527487,-1.20568 c 0,0 -0.703315,-0.72843 -0.577723,-1.20568 0.125592,-0.47725 1.908998,-0.47725 1.908998,-0.47725 l 0.351658,0.35166 c 0,0 -0.05024,-1.15545 0.678195,-1.05498 0.728435,0.10048 1.205686,0.0251 1.205686,0.0251 0,0 -0.627963,-0.62796 -0.20095,-0.9545 0.42701,-0.32654 1.10521,-0.72843 1.20569,-0.6782 0.10047,0.0502 0.62795,0.32654 0.62795,0.32654 0,0 -0.32654,-0.5526 0.32654,-0.32654 0.65308,0.22607 0.70332,1.10522 0.70332,1.10522 l 0.72843,-0.27631 c 0,0 -0.6782,-1.00473 -0.22606,-1.35639 0.45213,-0.35166 1.75828,-0.15071 1.75828,-0.15071 0,0 0.41059,-1.04514 0.92567,-1.11618 0.51508,-0.0711 0.86143,0.55948 0.86143,0.55948 l 0.62427,0.38087 c 0,0 -0.17583,-0.40189 0.4019,-0.22607 0.57772,0.17583 1.20568,0.4019 1.20568,0.4019 l 0.5526,-0.32654 0.77868,1.28104 c 0,0 -0.60285,0.62796 -0.45214,0.77867 0.15071,0.15071 1.02986,0.50237 1.02986,0.50237 0,0 -0.25119,-0.92938 0.12559,-1.10521 0.37678,-0.17583 0.45213,-0.0754 0.62796,-0.20095 0.17583,-0.12559 0.17583,-0.47725 0.45213,-0.4019 0.2763,0.0754 0.92938,0.37678 0.92938,0.37678 l 0.20095,1.35639 0.62796,-0.0754 c 0,0 0.75355,-0.97962 0.65308,-1.05497 -0.10047,-0.0754 -0.57772,-0.77867 -0.37678,-1.2308 0.20095,-0.45214 0.32654,-1.15545 0.6782,-1.02986 0.35166,0.12559 1.43175,0.65308 1.43175,0.65308 0,0 -0.0502,1.02985 0.0502,1.20568 0.10048,0.17583 0.82891,-0.5526 1.02986,-0.40189 0.20095,0.15071 0.57772,0.20094 0.70332,0.57772 0.12559,0.37678 0.17582,1.13033 0.17582,1.13033 0,0 -1.00473,0.9545 -0.40189,0.75355 0.60284,-0.20095 0.77867,-0.20095 0.90426,-0.20095 0.12559,0 0.72844,-0.0502 0.72844,-0.0502 z"
         id="path26" />
      <path
         style="opacity:1;fill:#faf7b9;fill-opacity:1;stroke-width:2.117;stroke-linejoin:round;stroke-miterlimit:3.1;paint-order:markers stroke fill"
         d="m 98.212956,177.05962 c -0.175828,0.0754 -1.205685,0.10048 -0.728435,1.06754 0.477251,0.96705 1.959237,0.26374 1.557343,-0.59029 -0.401897,-0.85402 -0.828908,-0.47725 -0.828908,-0.47725 z"
         id="path27" />
      <path
         style="fill:#faf7b9;fill-opacity:1;stroke-width:2.117;stroke-linejoin:round;stroke-miterlimit:3.1;paint-order:markers stroke fill"
         d="m 97.995796,181.73762 c -0.175828,0.0754 -1.205685,0.10048 -0.728435,1.06754 0.477251,0.96705 1.959237,0.26374 1.557343,-0.59029 -0.401897,-0.85402 -0.828908,-0.47725 -0.828908,-0.47725 z"
         id="path27-2" />
      <path
         style="fill:#faf7b9;fill-opacity:1;stroke-width:2.117;stroke-linejoin:round;stroke-miterlimit:3.1;paint-order:markers stroke fill"
         d="m 103.07975,177.85939 c -0.17583,0.0754 -1.20568,0.10048 -0.72843,1.06754 0.47725,0.96705 1.95923,0.26374 1.55734,-0.59029 -0.4019,-0.85402 -0.82891,-0.47725 -0.82891,-0.47725 z"
         id="path27-2-7" />
      <path
         style="fill:#8e6b4d;fill-opacity:1;stroke-width:2.117;stroke-linejoin:round;stroke-miterlimit:3.1;paint-order:markers stroke fill"
         d="m 101.52581,175.7226 c -0.17583,0.0754 -1.20568,0.10048 -0.72843,1.06754 0.47725,0.96705 1.95923,0.26374 1.55734,-0.59029 -0.4019,-0.85402 -0.82891,-0.47725 -0.82891,-0.47725 z"
         id="path27-2-7-5" />
      <path
         style="fill:#faf7b9;fill-opacity:1;stroke-width:2.117;stroke-linejoin:round;stroke-miterlimit:3.1;paint-order:markers stroke fill"
         d="m 105.18306,183.59306 c -0.17583,0.0754 -1.20568,0.10048 -0.72843,1.06754 0.47725,0.96705 1.95923,0.26374 1.55734,-0.59029 -0.4019,-0.85402 -0.82891,-0.47725 -0.82891,-0.47725 z"
         id="path27-2-7-1" />
      <path
         style="fill:#faf7b9;fill-opacity:1;stroke-width:2.117;stroke-linejoin:round;stroke-miterlimit:3.1;paint-order:markers stroke fill"
         d="m 113.50083,179.2091 c -0.20105,0.0754 -1.37866,0.10048 -0.83294,1.06754 0.54573,0.96705 2.24033,0.26374 1.78078,-0.59029 -0.45956,-0.85402 -0.94784,-0.47725 -0.94784,-0.47725 z"
         id="path27-2-7-1-6" />
      <path
         style="opacity:1;fill:#8e6b4d;fill-opacity:1;stroke-width:2.117;stroke-linejoin:round;stroke-miterlimit:3.1;paint-order:markers stroke fill"
         d="m 118.48351,181.15392 c -0.35166,0.25118 -1.70805,1.08009 -0.52749,1.48198 1.18057,0.4019 2.33601,0.97962 2.13507,-0.2763 -0.20095,-1.25592 -1.60758,-1.20568 -1.60758,-1.20568 z"
         id="path28" />
      <path
         style="fill:#8e6b4d;fill-opacity:1;stroke-width:2.117;stroke-linejoin:round;stroke-miterlimit:3.1;paint-order:markers stroke fill"
         d="m 116.67093,181.75564 c -0.24759,0.26719 -1.20261,1.14892 -0.37139,1.57642 0.83122,0.42752 1.64474,1.04205 1.50327,-0.2939 -0.14149,-1.33596 -1.13188,-1.28252 -1.13188,-1.28252 z"
         id="path28-8" />
      <path
         style="opacity:1;fill:#8e6b4d;fill-opacity:1;stroke-width:2.117;stroke-linejoin:round;stroke-miterlimit:3.1;paint-order:markers stroke fill"
         d="m 109.26809,177.06333 c -0.2753,-0.0444 -0.80814,-0.60389 -1.19001,-0.009 -0.38187,0.595 0.0355,0.87031 0.0355,0.87031 0,0 -0.66605,-0.80815 -1.34099,-0.31083 -0.67493,0.49732 0.77263,1.72286 1.22554,1.22554 0.45292,-0.49732 0.57725,-0.56837 0.79038,-0.58613 0.21314,-0.0178 1.0124,0.15098 0.95912,0.0178 -0.0533,-0.13321 -0.39963,-1.1989 -0.39963,-1.1989 z"
         id="path29" />
      <path
         style="opacity:1;fill:#8e6b4d;fill-opacity:1;stroke-width:2.117;stroke-linejoin:round;stroke-miterlimit:3.1;paint-order:markers stroke fill"
         d="m 109.60415,182.74894 c -0.0502,-0.0251 -0.69076,-0.51493 -1.46942,0.47725 -0.77868,0.99218 1.69549,1.48199 1.7834,1.0173 0.0879,-0.46469 0.18839,-0.72844 0.17583,-0.84147 -0.0126,-0.11303 -0.48981,-0.65308 -0.48981,-0.65308 z"
         id="path30" />
      <path
         style="opacity:1;fill:#8e6b4d;fill-opacity:1;stroke-width:2.117;stroke-linejoin:round;stroke-miterlimit:3.1;paint-order:markers stroke fill"
         d="m 115.66219,180.43799 c -0.49732,0.0533 -1.66957,-0.15985 -1.13673,0.62165 0.53284,0.7815 2.04256,1.27882 1.82942,0.37299 -0.21313,-0.90583 -0.69269,-0.99464 -0.69269,-0.99464 z"
         id="path31" />
      <path
         style="opacity:1;fill:#faf7b9;fill-opacity:1;stroke-width:2.117;stroke-linejoin:round;stroke-miterlimit:3.1;paint-order:markers stroke fill"
         d="m 115.71548,179.94067 c 0,0 1.47419,1.4742 0.90583,-0.0178 -0.56837,-1.49196 -1.08345,-1.17225 -1.10121,-0.95912 -0.0177,0.21314 0.19538,0.97688 0.19538,0.97688 z"
         id="path32" />
      <path
         style="opacity:1;fill:#faf7b9;fill-opacity:1;stroke-width:2.117;stroke-linejoin:round;stroke-miterlimit:3.1;paint-order:markers stroke fill"
         d="m 118.33528,175.22502 c -0.0622,0 -1.38539,-0.56836 -1.18113,0.34635 0.20425,0.91471 1.2877,0.68382 1.42979,0.21314 0.14209,-0.47068 -0.24866,-0.55949 -0.24866,-0.55949 z"
         id="path33" />
      <path
         style="opacity:1;fill:#faf7b9;fill-opacity:1;stroke-width:2.117;stroke-linejoin:round;stroke-miterlimit:3.1;paint-order:markers stroke fill"
         d="m 114.74748,174.1771 c -0.0533,0.18649 0.0355,1.20778 0.60389,0.5506 0.56836,-0.65717 0.94135,-1.55412 0.10657,-1.42979 -0.83479,0.12433 -0.71046,0.87919 -0.71046,0.87919 z"
         id="path34" />
      <path
         style="opacity:1;fill:#faf7b9;fill-opacity:1;stroke-width:2.117;stroke-linejoin:round;stroke-miterlimit:3.1;paint-order:markers stroke fill"
         d="m 109.06411,174.27148 c 0,0 -0.62796,-0.80379 -0.94822,0.11303 -0.32026,0.91682 0.87286,0.64052 0.94194,0.45213 0.0691,-0.18838 1.48198,1.89644 1.11149,0.36422 -0.3705,-1.53222 -1.10521,-0.92938 -1.10521,-0.92938 z"
         id="path35" />
      <path
         style="opacity:1;fill:#faf7b9;fill-opacity:1;stroke-width:2.117;stroke-linejoin:round;stroke-miterlimit:3.1;paint-order:markers stroke fill"
         d="m 117.07688,185.93898 c -0.0251,0.12559 0.0126,1.51966 0.70331,0.9545 0.69076,-0.56517 1.13033,-1.88388 0.20095,-1.83365 -0.92938,0.0502 -0.85403,0.22607 -0.85403,0.28887 0,0.0628 -0.0502,0.59028 -0.0502,0.59028 z"
         id="path36" />
      <path
         style="opacity:1;fill:#faf7b9;fill-opacity:1;stroke-width:2.117;stroke-linejoin:round;stroke-miterlimit:3.1;paint-order:markers stroke fill"
         d="m 114.21338,182.83685 c -0.10048,0.27631 -0.42701,0.84147 -0.42701,0.84147 0,0 -0.54005,-1.10521 -1.25592,-0.60284 -0.71588,0.50237 -0.4019,1.85876 0.69075,1.82108 1.09265,-0.0377 1.25592,-0.79122 1.34384,-0.6154 0.0879,0.17583 2.7379,1.89644 1.59501,0.31398 -1.14288,-1.58246 -1.79596,-1.2308 -1.79596,-1.2308 z"
         id="path37" />
      <path
         style="opacity:1;fill:#8e6b4d;fill-opacity:1;stroke-width:2.117;stroke-linejoin:round;stroke-miterlimit:3.1;paint-order:markers stroke fill"
         d="m 103.36223,180.90274 c 0,0 0.0754,-0.82891 -0.97962,-0.25118 -1.05497,0.57772 -0.42701,1.53222 -0.42701,1.53222 l -1.43175,0.65307 c 0,0 -0.577725,-0.52748 -0.854026,-0.1507 -0.276302,0.37677 1.105206,0.77866 1.105206,0.77866 l 0.50237,-0.70331 1.05497,-0.35166 c 0,0 1.30616,1.02986 1.3564,0.37678 0.0502,-0.65308 -0.12559,-0.90426 -0.12559,-0.90426 z"
         id="path38" />
      <path
         style="opacity:1;fill:#8e6b4d;fill-opacity:1;stroke-width:2.117;stroke-linejoin:round;stroke-miterlimit:3.1;paint-order:markers stroke fill"
         d="m 102.58984,186.03945 c 0,0 -0.3391,-1.32499 -1.29988,-0.6468 -0.96078,0.6782 -0.30142,0.97334 -0.45213,0.90427 -0.15071,-0.0691 -0.76611,-0.32654 -0.77867,-0.35794 -0.0126,-0.0314 1.04869,-0.25119 0.10675,-0.73472 -0.941938,-0.48352 -0.985896,1.07382 -0.93566,1.09894 0.05024,0.0251 1.40663,0.51492 2.07227,0.90426 0.66564,0.38933 2.07227,0.56516 2.07227,0.56516 z"
         id="path39" />
      <path
         style="opacity:1;fill:#8e6b4d;fill-opacity:1;stroke-width:2.117;stroke-linejoin:round;stroke-miterlimit:3.1;paint-order:markers stroke fill"
         d="m 107.82942,184.98491 c 0,0 -0.15986,-1.0124 -0.92359,-0.0711 -0.76375,0.94136 0.12432,1.15449 0.12432,1.15449 l 0.60389,0.67494 c 0,0 0.53284,0.42627 0.53284,-0.0711 0,-0.49732 0.10657,-0.47956 -0.0178,-0.53284 -0.12433,-0.0533 -0.63941,-0.62165 -0.49732,-0.79926 0.14209,-0.17762 0.17762,-0.35523 0.17762,-0.35523 z"
         id="path40" />
      <path
         style="opacity:1;fill:#8e6b4d;fill-opacity:1;stroke-width:2.117;stroke-linejoin:round;stroke-miterlimit:3.1;paint-order:markers stroke fill"
         d="m 120.84464,181.2544 -0.52749,0.25118 -0.59028,0.41445 c 0,0 0.26374,0.97962 0.3391,0.97962 0.0754,0 1.62013,0.36422 1.38151,-0.57772 -0.23863,-0.94194 -0.60284,-1.06753 -0.60284,-1.06753 z"
         id="path41" />
      <path
         style="opacity:1;fill:#faf7b9;fill-opacity:1;stroke-width:2.117;stroke-linejoin:round;stroke-miterlimit:3.1;paint-order:markers stroke fill"
         d="m 115.82096,178.98118 c -0.11304,-0.10047 0.10047,-0.99218 -0.94194,-0.6782 -1.04242,0.31398 0.42701,1.33128 0.6154,1.18057 0.18839,-0.15071 0.32654,-0.50237 0.32654,-0.50237 z"
         id="path42" />
    </g>
    <g
       inkscape:groupmode="layer"
       id="layer13"
       inkscape:label="O">
      <path
         style="opacity:1;fill:#111b09;fill-opacity:1;stroke-width:2.117;stroke-linejoin:round;stroke-miterlimit:3.1;paint-order:markers stroke fill"
         d="m 97.710587,178.64208 c -0.326538,-0.0377 -1.745729,-0.6154 -1.821082,0.55261 -0.07536,1.168 1.092649,1.74573 1.042413,1.26848 -0.05024,-0.47725 -0.175829,-1.09265 0.339098,-0.75356 0.514927,0.3391 1.268479,0.18839 1.105209,-0.38933 -0.163269,-0.57773 -0.665638,-0.6782 -0.665638,-0.6782 z"
         id="path2" />
      <path
         style="opacity:1;fill:#111b09;fill-opacity:1;stroke-width:2.117;stroke-linejoin:round;stroke-miterlimit:3.1;paint-order:markers stroke fill"
         d="m 97.911535,176.38143 c -0.175829,0.0126 -1.833644,-0.0377 -2.009473,0.62796 -0.175829,0.66563 0.879144,1.74572 0.879144,1.74572 l 0.427014,-0.0754 c 0,0 -0.979617,-0.70331 -0.389335,-1.25592 0.590283,-0.55261 1.268479,-0.22607 1.268479,-0.10047 0,0.12559 -0.08792,0.52748 0.02511,0.4898 0.113035,-0.0377 0.904264,-0.20094 0.703315,-0.75355 -0.200945,-0.5526 -0.904261,-0.67819 -0.904261,-0.67819 z"
         id="path3" />
      <path
         style="opacity:1;fill:#111b09;fill-opacity:1;stroke-width:2.117;stroke-linejoin:round;stroke-miterlimit:3.1;paint-order:markers stroke fill"
         d="m 97.243626,181.0774 c -0.603887,-0.0178 -1.989275,0.0888 -1.580763,1.05681 0.408514,0.96799 1.571884,1.20777 1.332105,0.68381 -0.239778,-0.52396 -0.568364,-1.0568 -0.186494,-1.18113 0.381868,-0.12433 0.790382,-0.10657 0.737097,0.18649 -0.05328,0.29306 -0.02664,0.53284 -0.02664,0.53284 0,0 0.61277,0.11545 0.470678,-0.55948 -0.142092,-0.67493 -0.74598,-0.71934 -0.74598,-0.71934 z"
         id="path4" />
      <path
         style="opacity:1;fill:#111b09;fill-opacity:1;stroke-width:2.117;stroke-linejoin:round;stroke-miterlimit:3.1;paint-order:markers stroke fill"
         d="m 105.43163,185.89074 c -0.44314,-1.76756 -4.77694,0.37954 -2.50436,1.58076 1.2433,0.65717 2.29122,-0.24866 1.65181,-0.44403 -3.44736,-1.05339 0.67494,-1.37763 0.67494,-0.95915 0,0.14209 0.19537,0.67494 0.26642,0.67494 0.071,0 0.39075,-0.74598 0.92359,-0.67494 0.53284,0.071 0.83478,0.33747 0.76374,0.60389 -0.071,0.26642 -0.26642,0.42627 -0.26642,0.42627 1.89039,-0.0171 -0.27538,-2.24462 -0.97688,-1.50972 -0.37299,0.39075 -0.53284,0.30195 -0.53284,0.30195 z"
         id="path5"
         sodipodi:nodetypes="csssssscscc" />
      <path
         style="opacity:1;fill:#111b09;fill-opacity:1;stroke-width:2.117;stroke-linejoin:round;stroke-miterlimit:3.1;paint-order:markers stroke fill"
         d="m 101.84383,177.79154 c 0,0 -0.19538,-0.97687 -1.38539,-0.69269 -1.190013,0.28418 -1.66957,1.84719 -0.515082,1.97152 1.154492,0.12433 1.634052,-0.15986 1.190012,-0.35523 -0.44403,-0.19538 -1.261055,-0.58613 -0.81702,-0.88807 0.44403,-0.30195 0.97687,-0.15986 1.11897,0 0.14209,0.15985 0.40851,-0.0355 0.40851,-0.0355 z"
         id="path6" />
      <path
         style="opacity:1;fill:#111b09;fill-opacity:1;stroke-width:2.117;stroke-linejoin:round;stroke-miterlimit:3.1;paint-order:markers stroke fill"
         d="m 99.801269,175.82003 c 0.10295,1.46415 1.225531,1.3321 0.781501,0.44404 -0.44404,-0.88807 0.67493,-1.49196 0.87031,-1.19002 0.19537,0.30195 0.0533,0.92359 0.15985,0.88807 0.10657,-0.0355 1.14443,-0.62617 0.53284,-1.1012 -1.6244,-1.26168 -2.414128,-0.0311 -2.344501,0.95911 z"
         id="path7"
         sodipodi:nodetypes="ssssss" />
      <path
         style="fill:#111b09;fill-opacity:1;stroke-width:2.117;stroke-linejoin:round;stroke-miterlimit:3.1;paint-order:markers stroke fill"
         d="m 104.54896,175.69881 c -0.29524,-0.1445 -1.44033,-1.16264 -1.90111,-0.0867 -0.46082,1.0759 0.30542,1.65504 0.41732,1.18838 0.11192,-0.46665 0.19884,-1.0887 0.57111,-0.59722 0.37226,0.49148 1.13291,0.60086 1.17178,0.002 0.0389,-0.5991 -0.2591,-0.50621 -0.2591,-0.50621 z"
         id="path2-6"
         sodipodi:nodetypes="ccssscc" />
      <path
         style="fill:#111b09;fill-opacity:1;stroke-width:2.117;stroke-linejoin:round;stroke-miterlimit:3.1;paint-order:markers stroke fill"
         d="m 105.49272,173.63477 c -0.16995,-0.0468 -1.71597,-0.64738 -2.10384,-0.0785 -0.38786,0.56881 0.24625,1.93902 0.24625,1.93902 l 0.4277,0.0714 c 0,0 -0.6888,-0.98988 0.0521,-1.31385 0.74085,-0.32397 1.27121,0.21015 1.2293,0.32855 -0.0419,0.11839 -0.25887,0.46792 -0.13978,0.47011 0.11915,0.002 0.9195,0.11231 0.91446,-0.47568 -0.005,-0.58798 -0.62614,-0.94106 -0.62614,-0.94106 z"
         id="path3-7" />
      <path
         style="fill:#111b09;fill-opacity:1;stroke-width:2.117;stroke-linejoin:round;stroke-miterlimit:3.1;paint-order:markers stroke fill"
         d="m 98.434787,180.88643 c 0.0503,-0.66196 0.33747,-2.15142 1.417274,-1.51465 1.079809,0.63677 1.222319,1.95266 0.640039,1.58762 -0.582279,-0.36502 -1.164459,-0.82862 -1.354239,-0.43684 -0.18977,0.39179 -0.21715,0.84072 0.13058,0.84056 0.34772,-1.9e-4 0.62396,0.0763 0.62396,0.0763 0,0 0.0624,0.69094 -0.70724,0.40259 -0.769691,-0.28832 -0.750386,-0.95557 -0.750386,-0.95557 z"
         id="path4-9" />
      <path
         style="fill:#111b09;fill-opacity:1;stroke-width:2.117;stroke-linejoin:round;stroke-miterlimit:3.1;paint-order:markers stroke fill"
         d="m 108.72912,176.27619 c 0,0 0.14178,-0.98607 -1.07485,-1.11526 -1.21664,-0.12919 -2.19025,1.18422 -1.14342,1.68665 1.04684,0.50243 1.59374,0.39455 1.24034,0.0622 -0.35339,-0.33234 -0.9932,-0.97332 -0.47386,-1.10979 0.51933,-0.13648 0.97422,0.17526 1.05484,0.37337 0.0806,0.19811 0.39694,0.10285 0.39694,0.10285 z"
         id="path6-5" />
      <path
         style="fill:#111b09;fill-opacity:1;stroke-width:2.117;stroke-linejoin:round;stroke-miterlimit:3.1;paint-order:markers stroke fill"
         d="m 105.31456,173.45071 c -0.31951,1.1397 0.58008,1.3412 0.48031,0.54735 -0.0998,-0.79388 0.92552,-0.95171 0.9936,-0.66986 0.0681,0.28186 -0.21049,0.71581 -0.11885,0.71747 0.0917,0.002 1.05095,-0.16791 0.70979,-0.69312 -0.90611,-1.39496 -1.84877,-0.67264 -2.06485,0.0982 z"
         id="path7-5"
         sodipodi:nodetypes="ssssss" />
      <path
         style="fill:#111b09;fill-opacity:1;stroke-width:2.117;stroke-linejoin:round;stroke-miterlimit:3.1;paint-order:markers stroke fill"
         d="m 106.20657,178.45758 c -0.2901,-0.15454 -1.39957,-1.21139 -1.89701,-0.15192 -0.49747,1.05945 0.37825,2.02445 0.5061,1.56191 0.12788,-0.46254 0.23609,-1.08124 0.59127,-0.57727 0.35517,0.50397 1.11162,0.63939 1.17102,0.042 0.0594,-0.59741 -0.37138,-0.87471 -0.37138,-0.87471 z"
         id="path2-5" />
      <path
         style="fill:#111b09;fill-opacity:1;stroke-width:2.117;stroke-linejoin:round;stroke-miterlimit:3.1;paint-order:markers stroke fill"
         d="m 107.08813,180.53459 c -0.2901,-0.15454 -1.39957,-1.21139 -1.89701,-0.15192 -0.49747,1.05945 0.37825,2.02445 0.5061,1.56191 0.12788,-0.46254 0.23609,-1.08124 0.59127,-0.57727 0.35517,0.50397 1.11162,0.63939 1.17102,0.042 0.0594,-0.59741 -0.37138,-0.87471 -0.37138,-0.87471 z"
         id="path2-5-1" />
      <path
         style="fill:#111b09;fill-opacity:1;stroke-width:2.117;stroke-linejoin:round;stroke-miterlimit:3.1;paint-order:markers stroke fill"
         d="m 107.22063,176.42716 c -0.16826,-0.0526 -1.69274,-0.7059 -2.09991,-0.15071 -0.40715,0.55516 0.17954,1.94632 0.17954,1.94632 l 0.42501,0.0861 c 0,0 -0.65441,-1.01294 0.0971,-1.31129 0.75154,-0.29835 1.26325,0.25366 1.2173,0.37055 -0.0459,0.11689 -0.27478,0.45876 -0.15582,0.46503 0.11899,0.006 0.91509,0.14381 0.93024,-0.44401 0.0151,-0.58781 -0.59347,-0.96199 -0.59347,-0.96199 z"
         id="path3-5" />
      <path
         style="fill:#111b09;fill-opacity:1;stroke-width:2.117;stroke-linejoin:round;stroke-miterlimit:3.1;paint-order:markers stroke fill"
         d="m 104.88104,180.55325 c -0.5555,-0.23749 -1.88385,-0.64511 -1.8578,0.40524 0.0261,1.05034 1.02106,1.6991 0.9896,1.12375 -0.0315,-0.57536 -0.14235,-1.19148 0.25853,-1.16748 0.40089,0.024 0.77458,0.18997 0.61778,0.44322 -0.15682,0.25325 -0.21969,0.48617 -0.21969,0.48617 0,0 0.52805,0.33162 0.64273,-0.3485 0.11467,-0.68013 -0.4311,-0.94238 -0.4311,-0.94238 z"
         id="path4-6" />
      <path
         style="fill:#111b09;fill-opacity:1;stroke-width:2.117;stroke-linejoin:round;stroke-miterlimit:3.1;paint-order:markers stroke fill"
         d="m 110.36444,179.17811 c 0,0 0.17556,-0.98063 -1.03592,-1.1515 -1.21149,-0.17088 -2.22961,1.10834 -1.20064,1.64641 1.02897,0.53807 1.57926,0.44903 1.23747,0.10475 -0.34177,-0.34428 -0.95921,-1.00684 -0.43549,-1.1254 0.52372,-0.11858 0.96764,0.2086 1.0414,0.40936 0.0738,0.20075 0.39317,0.11641 0.39317,0.11641 z"
         id="path6-0" />
      <path
         style="fill:#111b09;fill-opacity:1;stroke-width:2.117;stroke-linejoin:round;stroke-miterlimit:3.1;paint-order:markers stroke fill"
         d="m 109.18475,176.59602 c -0.43984,1.40032 0.65323,1.68811 0.56487,0.69917 -0.0884,-0.98896 1.17397,-1.14162 1.24534,-0.78914 0.0714,0.3525 -0.28828,0.87907 -0.17612,0.88499 0.11216,0.006 1.29416,-0.16409 0.89875,-0.82993 -1.05021,-1.76849 -2.23539,-0.91213 -2.53284,0.0349 z"
         id="path7-9"
         sodipodi:nodetypes="ssssss" />
      <path
         style="fill:#111b09;fill-opacity:1;stroke-width:2.117;stroke-linejoin:round;stroke-miterlimit:3.1;paint-order:markers stroke fill"
         d="m 110.17663,175.80513 c 0,0 0.97621,-0.19864 0.68806,-1.3877 -0.28815,-1.18905 -1.85275,-1.66339 -1.97323,-0.50849 -0.12047,1.15489 0.16532,1.6335 0.3592,1.18881 0.1939,-0.44468 0.58192,-1.263 0.88534,-0.81998 0.30343,0.44302 0.16312,0.97634 0.004,1.11897 -0.15938,0.14262 0.0369,0.40839 0.0369,0.40839 z"
         id="path6-4" />
      <path
         style="fill:#111b09;fill-opacity:1;stroke-width:2.117;stroke-linejoin:round;stroke-miterlimit:3.1;paint-order:markers stroke fill"
         d="m 113.25302,174.49326 c -0.5555,-0.23749 -1.88385,-0.64511 -1.8578,0.40524 0.0261,1.05034 1.02106,1.6991 0.9896,1.12375 -0.0315,-0.57536 -0.14235,-1.19148 0.25853,-1.16748 0.40089,0.024 0.77458,0.18997 0.61778,0.44322 -0.15682,0.25325 -0.21969,0.48617 -0.21969,0.48617 0,0 0.52805,0.33162 0.64273,-0.3485 0.11467,-0.68013 -0.4311,-0.94238 -0.4311,-0.94238 z"
         id="path4-6-9" />
      <path
         style="fill:#111b09;fill-opacity:1;stroke-width:2.117;stroke-linejoin:round;stroke-miterlimit:3.1;paint-order:markers stroke fill"
         d="m 114.29134,173.55024 c -0.43984,1.40032 0.65323,1.68811 0.56487,0.69917 -0.0884,-0.98896 1.17397,-1.14162 1.24534,-0.78914 0.0714,0.3525 -0.28828,0.87907 -0.17612,0.88499 0.11216,0.006 1.29416,-0.16409 0.89875,-0.82993 -1.05021,-1.76849 -2.23539,-0.91213 -2.53284,0.0349 z"
         id="path7-9-0"
         sodipodi:nodetypes="ssssss" />
      <path
         style="fill:#111b09;fill-opacity:1;stroke-width:2.117;stroke-linejoin:round;stroke-miterlimit:3.1;paint-order:markers stroke fill"
         d="m 113.64765,178.2201 c -0.22191,-0.24249 -0.91514,-1.60897 -1.7376,-0.77619 -0.82248,0.83273 -0.32123,1.65204 -0.0464,1.25867 0.27489,-0.39336 0.58335,-0.94049 0.75001,-0.34689 0.16665,0.5936 0.83456,0.97367 1.08982,0.43055 0.25538,-0.54334 -0.0559,-0.56591 -0.0559,-0.56591 z"
         id="path2-6-7"
         sodipodi:nodetypes="ccssscc" />
      <path
         style="fill:#111b09;fill-opacity:1;stroke-width:2.117;stroke-linejoin:round;stroke-miterlimit:3.1;paint-order:markers stroke fill"
         d="m 115.2811,176.64441 c -0.14105,-0.10573 -1.36018,-1.23027 -1.92928,-0.84273 -0.56907,0.38748 -0.48019,1.89469 -0.48019,1.89469 l 0.37193,0.22292 c 0,0 -0.27891,-1.17325 0.52915,-1.20371 0.80801,-0.0305 1.1062,0.66064 1.02388,0.7555 -0.0823,0.0949 -0.41211,0.34078 -0.30207,0.38639 0.11015,0.0454 0.81467,0.44091 1.02509,-0.10816 0.21045,-0.54905 -0.23846,-1.10489 -0.23846,-1.10489 z"
         id="path3-7-7" />
      <path
         style="fill:#111b09;fill-opacity:1;stroke-width:2.117;stroke-linejoin:round;stroke-miterlimit:3.1;paint-order:markers stroke fill"
         d="m 101.05078,182.87161 c 0.28899,-0.59767 1.10115,-1.87882 1.87315,-0.89115 0.772,0.98766 0.42323,2.26447 0.0149,1.71171 -0.40838,-0.55273 -0.7806,-1.19718 -1.10055,-0.90199 -0.31995,0.2952 -0.50967,0.703 -0.18598,0.83006 0.32368,0.12703 0.55279,0.29928 0.55279,0.29928 0,0 -0.1947,0.66587 -0.8055,0.11595 -0.61085,-0.54992 -0.34878,-1.16385 -0.34878,-1.16385 z"
         id="path4-9-0" />
      <path
         style="fill:#111b09;fill-opacity:1;stroke-width:2.117;stroke-linejoin:round;stroke-miterlimit:3.1;paint-order:markers stroke fill"
         d="m 117.32681,180.28672 c 0,0 0.49269,-0.86584 -0.59234,-1.43117 -1.08503,-0.56533 -2.47165,0.30085 -1.6812,1.15142 0.79047,0.85058 1.33892,0.95026 1.13161,0.51166 -0.20731,-0.43859 -0.56827,-1.2692 -0.035,-1.20622 0.53326,0.063 0.84257,0.51952 0.84512,0.73339 0.003,0.21387 0.3318,0.24094 0.3318,0.24094 z"
         id="path6-5-5" />
      <path
         style="fill:#111b09;fill-opacity:1;stroke-width:2.117;stroke-linejoin:round;stroke-miterlimit:3.1;paint-order:markers stroke fill"
         d="m 115.18263,176.40793 c -0.71431,0.9438 0.0492,1.46044 0.24677,0.68512 0.19755,-0.77535 1.20953,-0.54714 1.16978,-0.25992 -0.0397,0.28723 -0.45777,0.58918 -0.37309,0.62425 0.0846,0.0354 1.03952,0.22821 0.91416,-0.3854 -0.33297,-1.62975 -1.47453,-1.30237 -1.95764,-0.66401 z"
         id="path7-5-0"
         sodipodi:nodetypes="ssssss" />
      <path
         style="fill:#111b09;fill-opacity:1;stroke-width:2.11701;stroke-linejoin:round;stroke-miterlimit:3.1;paint-order:markers stroke fill"
         d="m 113.9527,182.93406 c 0.1322,-0.36089 0.26716,-2.13044 1.54771,-1.64206 1.28055,0.48833 1.10592,1.58989 0.62552,1.3053 -0.48052,-0.28452 -1.06798,-0.7153 -0.97939,-0.0103 0.0886,0.70495 -0.46902,1.42231 -0.99642,0.97055 -0.52763,-0.45192 -0.19717,-0.62327 -0.19717,-0.62327 z"
         id="path2-6-7-0"
         sodipodi:nodetypes="ccssscc" />
      <path
         style="fill:#111b09;fill-opacity:1;stroke-width:2.11701;stroke-linejoin:round;stroke-miterlimit:3.1;paint-order:markers stroke fill"
         d="m 111.4452,182.04661 c 0.10613,-0.17833 0.92724,-1.94201 1.72715,-1.80306 0.79985,0.13889 1.39071,1.77042 1.39071,1.77042 l -0.30535,0.41136 c 0,0 -0.23037,-1.36942 -1.12884,-1.01856 -0.89844,0.35074 -0.90929,1.22095 -0.77586,1.28196 0.13344,0.0611 0.60671,0.16404 0.50708,0.2643 -0.0998,0.10011 -0.69048,0.85107 -1.17152,0.37179 -0.48105,-0.47925 -0.24342,-1.27816 -0.24342,-1.27816 z"
         id="path3-7-7-1" />
      <path
         style="fill:#111b09;fill-opacity:1;stroke-width:2.11701;stroke-linejoin:round;stroke-miterlimit:3.1;paint-order:markers stroke fill"
         d="m 112.77756,186.74631 c 0.0994,-0.13695 0.86859,-1.49139 1.6179,-1.38468 0.74925,0.10666 1.30273,1.35961 1.30273,1.35961 l -0.28603,0.31591 c 0,0 -0.2158,-1.05166 -1.05743,-0.78221 -0.84161,0.26935 -0.85177,0.93764 -0.72678,0.9845 0.125,0.0469 0.56833,0.12597 0.475,0.20297 -0.0935,0.0769 -0.6468,0.65359 -1.09741,0.28552 -0.45062,-0.36805 -0.22802,-0.98158 -0.22802,-0.98158 z"
         id="path3-7-7-1-4" />
      <path
         style="fill:#111b09;fill-opacity:1;stroke-width:2.11701;stroke-linejoin:round;stroke-miterlimit:3.1;paint-order:markers stroke fill"
         d="m 110.86881,186.85712 c 0,0 -0.93466,-0.67954 -0.005,-1.78996 0.92962,-1.11041 2.84299,-0.85419 2.36606,0.4174 -0.47695,1.27161 -1.03181,1.63667 -1.00513,1.07589 0.0267,-0.56075 0.0426,-1.60774 -0.51236,-1.2886 -0.55498,0.31918 -0.68514,0.94719 -0.59029,1.17393 0.094,0.22712 -0.2532,0.41133 -0.2532,0.41133 z"
         id="path6-5-5-7" />
      <path
         style="fill:#111b09;fill-opacity:1;stroke-width:2.11701;stroke-linejoin:round;stroke-miterlimit:3.1;paint-order:markers stroke fill"
         d="m 111.44502,181.75057 c 1.21284,0.65673 0.61293,1.5634 0.0427,0.83944 -0.57026,-0.724 -1.57385,-0.004 -1.39919,0.28033 0.17464,0.28406 0.77011,0.40434 0.69343,0.48146 -0.0765,0.0774 -1.03374,0.73333 -1.17667,0.0268 -0.37961,-1.87644 1.01949,-2.07224 1.83979,-1.62805 z"
         id="path7-5-0-1"
         sodipodi:nodetypes="ssssss" />
      <path
         style="opacity:1;fill:#111b09;fill-opacity:1;stroke-width:2.117;stroke-linejoin:round;stroke-miterlimit:3.1;paint-order:markers stroke fill"
         d="m 116.88849,186.1776 c -0.0754,-0.18839 -0.21351,-1.20568 0.62796,-1.51966 0.84147,-0.31398 2.19786,0.84147 1.72061,1.41919 -0.47725,0.57772 -0.43957,-0.3391 -0.51493,-0.56517 -0.0754,-0.22606 -0.57772,-0.43957 -1.08009,-0.35165 -0.50237,0.0879 -0.42701,0.81634 -0.51493,0.94194 -0.0879,0.12559 -0.23862,0.0754 -0.23862,0.0754 z"
         id="path8" />
      <path
         style="opacity:1;fill:#111b09;fill-opacity:1;stroke-width:2.117;stroke-linejoin:round;stroke-miterlimit:3.1;paint-order:markers stroke fill"
         d="m 120.79523,182.51608 c -0.67846,-0.57741 -1.47419,0.071 -1.54524,0.8703 -0.071,0.79927 0.81703,1.11897 0.65717,0.65718 -0.15985,-0.4618 -0.14209,-0.76375 0.35523,-0.94136 0.49732,-0.17761 0.97688,0.30195 0.97688,0.30195 0,0 -0.42627,0.21313 -0.40851,0.56836 0.0178,0.35523 0.19537,0.65717 0.47955,0.28418 0.28419,-0.37299 0.17762,-0.87031 0.97688,-0.79926 0.79926,0.0711 0.58613,0.67493 0.58613,0.67493 0,0 1.19001,0.30195 0.62165,-0.5506 -0.56837,-0.85255 -1.86495,-0.35523 -1.86495,-0.35523 z"
         id="path9"
         sodipodi:nodetypes="scsscssccscs" />
      <path
         style="opacity:1;fill:#111b09;fill-opacity:1;stroke-width:2.117;stroke-linejoin:round;stroke-miterlimit:3.1;paint-order:markers stroke fill"
         d="m 117.88067,176.39399 c 0.0502,0.0502 1.87132,-0.38934 0.76611,-1.65782 -1.10521,-1.26848 -2.33601,-0.76611 -2.28578,0.20095 0.0502,0.96706 0.22607,1.33127 0.45213,0.8289 0.22607,-0.50236 0.91682,-1.79596 1.25592,-0.8917 0.3391,0.90426 0.12559,1.18057 -0.15071,1.21824 -0.2763,0.0377 -0.0377,0.30143 -0.0377,0.30143 z"
         id="path10" />
      <path
         style="opacity:1;fill:#111b09;fill-opacity:1;stroke-width:2.117;stroke-linejoin:round;stroke-miterlimit:3.1;paint-order:markers stroke fill"
         d="m 118.64611,176.83243 c 0,0 -0.80312,0.56629 -0.18772,0.59141 0.6154,0.0251 0.36422,-0.64052 0.9545,-0.75355 0.59028,-0.11303 -0.0628,0.97961 0.11303,1.19312 0.17583,0.21351 1.57076,1.04555 0.80379,-0.75355 -0.88337,-2.07215 -1.66807,-0.32402 -1.6836,-0.27743 z"
         id="path11"
         sodipodi:nodetypes="cssssc" />
      <path
         style="opacity:1;fill:#111b09;fill-opacity:1;stroke-width:2.117;stroke-linejoin:round;stroke-miterlimit:3.1;paint-order:markers stroke fill"
         d="m 120.53065,179.52123 c -0.56516,-0.0502 -1.09264,0.15069 -0.95449,1.02985 0.13815,0.87914 0.25118,1.00474 0.35166,0.47725 0.10047,-0.52749 0.97961,-1.39407 1.05497,-0.65308 0.0754,0.741 -0.47725,0.57773 -0.38934,0.79123 0.0879,0.21351 0.35166,1.0173 0.71588,-0.12559 0.36421,-1.14289 -0.28493,-1.47577 -0.77868,-1.51966 z"
         id="path12"
         sodipodi:nodetypes="sssssss" />
      <path
         style="opacity:1;fill:#111b09;fill-opacity:1;stroke-width:2.117;stroke-linejoin:round;stroke-miterlimit:3.1;paint-order:markers stroke fill"
         d="m 99.72006,182.53543 c -0.401894,0 -0.866584,0.0879 -1.356394,0.43958 -0.489808,0.35165 0.263744,1.94667 0.251185,1.41919 -0.01257,-0.52749 0.364217,-1.41919 0.753551,-1.13033 0.389335,0.28886 0.48981,0.6154 0.276302,1.02985 -0.213505,0.41446 0.01257,0.51493 0.200948,0.4019 0.188388,-0.11304 1.343838,-1.15545 0.665638,-1.68294 -0.678197,-0.52748 -0.79123,-0.47725 -0.79123,-0.47725 z"
         id="path13" />
      <path
         style="opacity:1;fill:#111b09;fill-opacity:1;stroke-width:2.117;stroke-linejoin:round;stroke-miterlimit:3.1;paint-order:markers stroke fill"
         d="m 110.05628,185.14775 c 0,-0.0879 0.55261,-1.51966 -0.76611,-1.14289 -1.31871,0.37678 -2.27321,1.10521 -1.74573,1.92156 0.52749,0.81635 1.74573,0.6782 1.6327,0.35166 -0.11303,-0.32654 -1.46943,-0.13815 -1.18057,-0.89171 0.28886,-0.75355 1.77085,-1.10521 1.80853,-0.57772 0.0377,0.52749 0.25118,0.3391 0.25118,0.3391 z"
         id="path14" />
      <path
         style="opacity:1;fill:#111b09;fill-opacity:1;stroke-width:2.117;stroke-linejoin:round;stroke-miterlimit:3.1;paint-order:markers stroke fill"
         d="m 119.78283,179.85187 c 0,0 1.08345,-0.17762 0.44404,-1.27882 -0.63941,-1.10121 -1.88271,-1.22554 -2.00704,-0.35523 -0.12433,0.87031 0.6927,1.3321 0.71046,1.11897 0.0178,-0.21314 -0.33747,-1.45644 0.33746,-0.99464 0.67494,0.46179 0.90583,0.7815 0.76375,0.94135 -0.1421,0.15985 -0.24867,0.56837 -0.24867,0.56837 z"
         id="path15" />
      <path
         style="opacity:1;fill:#111b09;fill-opacity:1;stroke-width:2.117;stroke-linejoin:round;stroke-miterlimit:3.1;paint-order:markers stroke fill"
         d="m 106.57738,182.2089 c -0.70331,0 -1.64525,-0.62796 -1.69549,0.47725 -0.0502,1.1052 0.87914,1.34383 0.94194,1.00473 0.0628,-0.3391 -0.90426,-0.76611 -0.20094,-1.11777 0.70331,-0.35165 0.79122,0.92938 1.2308,0.70332 0.43957,-0.22607 0.37677,-0.85403 0.10047,-0.96706 -0.2763,-0.11303 -0.37678,-0.10047 -0.37678,-0.10047 z"
         id="path16" />
      <path
         style="opacity:1;fill:#111b09;fill-opacity:1;stroke-width:2.117;stroke-linejoin:round;stroke-miterlimit:3.1;paint-order:markers stroke fill"
         d="m 105.89343,172.00133 c -0.17762,-0.0355 -3.83646,-0.0355 -6.607242,1.10121 -2.770777,1.13673 -2.202412,1.81166 -2.983915,2.16689 -0.781502,0.35522 -4.014076,4.3693 -2.202413,7.4953 1.811663,3.12601 8.73861,5.86126 7.99263,4.68901 -0.74598,-1.17225 -6.145444,-2.8063 -6.820377,-5.07976 -0.674934,-2.27345 -0.461796,-4.61796 0.603887,-5.86126 1.065684,-1.24329 5.6126,-3.09048 6.92694,-3.33914 1.31435,-0.24866 3.37467,-0.24866 3.37467,-0.24866 0,0 2.16689,0.39075 2.52211,0.14209 0.35523,-0.24866 -1.13672,-0.85254 1.31435,-0.3197 2.45107,0.53284 4.68901,0.35523 4.68901,0.35523 0,0 0.88807,-0.81703 1.20777,-0.28419 0.31971,0.53285 7.81501,3.58781 8.56099,7.53083 0.74598,3.94303 2.20242,1.27883 0.67493,-1.34986 -1.52747,-2.62869 -3.23257,-3.94303 -5.57707,-5.36394 -2.34451,-1.42091 -5.47051,-1.66957 -8.45442,-1.88271 -2.98392,-0.21313 -3.33915,0.53284 -4.15617,0.4618 -0.81703,-0.0711 -1.06568,-0.21314 -1.06568,-0.21314 z"
         id="path17" />
      <path
         style="opacity:1;fill:#111b09;fill-opacity:1;stroke-width:2.117;stroke-linejoin:round;stroke-miterlimit:3.1;paint-order:markers stroke fill"
         d="m 93.851202,181.87667 c 0,0 -1.027692,8.98264 5.186326,10.94101 6.757212,2.12956 7.835002,2.26046 10.479222,2.27346 3.55295,0.0175 9.05831,-1.20777 10.7634,-2.3445 1.7051,-1.13673 3.62333,-2.13137 4.8311,-5.96783 1.20778,-3.83646 0.63941,-5.11528 0.63941,-5.11528 l -0.71045,0.28418 c 0,0 0.98606,10.94018 -12.29088,11.93565 -3.9644,0.29724 -8.17363,-0.50834 -12.00671,-1.56299 -6.338925,-1.74411 -6.109917,-9.16488 -6.109917,-9.16488 z"
         id="path18"
         sodipodi:nodetypes="cssssccsscc" />
      <path
         style="opacity:1;fill:#111b09;fill-opacity:1;stroke-width:2.117;stroke-linejoin:round;stroke-miterlimit:3.1;paint-order:markers stroke fill"
         d="m 110.16932,187.98613 c 0,0 -1.05498,0.50236 0.85402,0.75355 1.909,0.25118 7.63599,-0.65308 10.19807,-2.16018 2.56208,-1.50711 3.76776,-2.71279 3.16492,-5.12416 -0.60284,-2.41136 -2.05971,-3.21515 -2.51184,-3.21515 -0.45213,0 -0.80029,-0.86126 1.28104,1.70805 3.35031,4.1358 -3.71689,7.54473 -9.3566,7.86206 -1.52561,0.0858 -2.3109,0.0753 -2.91374,-0.20095 -0.60284,-0.27631 -0.71587,0.37678 -0.71587,0.37678 z"
         id="path19"
         sodipodi:nodetypes="csssssssc" />
      <path
         style="opacity:1;fill:#111b09;fill-opacity:1;stroke-width:2.117;stroke-linejoin:round;stroke-miterlimit:3.1;paint-order:markers stroke fill"
         d="m 102.87399,187.59583 c 0.17761,0.24866 2.59316,1.2433 3.87198,1.49196 1.27882,0.24866 0.99464,-0.071 1.38539,0.24866 0.39075,0.3197 1.81166,0.071 1.10121,-0.42627 -0.71046,-0.49732 -1.2433,-0.35523 -3.01944,-0.78151 -1.77614,-0.42627 -2.98391,-0.88806 -3.23257,-0.85254 -0.24866,0.0355 -0.10657,0.3197 -0.10657,0.3197 z"
         id="path20" />
    </g>
  </g>
</svg>
