<?xml version="1.0" encoding="UTF-8" standalone="no"?>
<!-- Created with Inkscape (http://www.inkscape.org/) -->

<svg
   width="45.25172mm"
   height="37.50766mm"
   viewBox="0 0 45.25172 37.50766"
   version="1.1"
   id="svg1"
   inkscape:version="1.3 (0e150ed6c4, 2023-07-21)"
   sodipodi:docname="ginger.svg"
   xmlns:inkscape="http://www.inkscape.org/namespaces/inkscape"
   xmlns:sodipodi="http://sodipodi.sourceforge.net/DTD/sodipodi-0.dtd"
   xmlns="http://www.w3.org/2000/svg"
   xmlns:svg="http://www.w3.org/2000/svg">
  <sodipodi:namedview
     id="namedview1"
     pagecolor="#ffffff"
     bordercolor="#000000"
     borderopacity="0.25"
     inkscape:showpageshadow="2"
     inkscape:pageopacity="0.0"
     inkscape:pagecheckerboard="0"
     inkscape:deskcolor="#d1d1d1"
     inkscape:document-units="mm"
     inkscape:zoom="0.93103385"
     inkscape:cx="10.740748"
     inkscape:cy="90.759321"
     inkscape:window-width="1920"
     inkscape:window-height="974"
     inkscape:window-x="-11"
     inkscape:window-y="-11"
     inkscape:window-maximized="1"
     inkscape:current-layer="layer2" />
  <defs
     id="defs1">
    <pattern
       id="EMFhbasepattern"
       patternUnits="userSpaceOnUse"
       width="6"
       height="6"
       x="0"
       y="0" />
  </defs>
  <g
     inkscape:groupmode="layer"
     id="layer2"
     inkscape:label="Layer 2"
     transform="translate(-84.325847,-152.89307)">
    <path
       style="opacity:0.5;fill:#000000;fill-opacity:1;stroke-width:2.117;stroke-linejoin:round;stroke-miterlimit:3.1;paint-order:markers stroke fill"
       d="m 114.83212,166.7862 c -2.56169,1.19686 -7.68506,5.76675 -11.9887,5.0051 -4.303635,-0.76164 -6.865324,-3.373 -9.93935,-2.50255 -3.074029,0.87045 -9.32455,3.80822 -8.504807,6.20197 0.81974,2.39376 0.717273,3.37301 4.201169,1.84972 3.483895,-1.5233 5.225845,-1.95852 5.225845,-0.87045 0,1.08806 -4.713508,4.13465 -2.869092,5.76674 1.844416,1.6321 5.943121,1.84971 7.070263,0.32642 1.127144,-1.52329 1.844417,-3.373 2.459222,-3.2642 0.6148,0.10881 0.40986,4.13466 1.74195,4.13466 1.33208,0 7.78753,-1.74091 7.78753,-1.74091 0,0 -2.66416,4.24346 0,5.76675 2.66416,1.52329 6.96779,5.65794 8.91468,0.21761 1.94688,-5.44033 -0.20494,-5.65794 2.04935,-6.74601 2.25429,-1.08806 5.02091,0.10881 4.61105,-2.50255 -0.40988,-2.61136 -7.17274,-10.22782 -7.17274,-10.22782 z"
       id="path44" />
    <g
       inkscape:groupmode="layer"
       id="layer3"
       inkscape:label="Layer 3">
      <path
         style="opacity:1;fill:#dfcd79;fill-opacity:1;stroke-width:2.117;stroke-linejoin:round;stroke-miterlimit:3.1;paint-order:markers stroke fill"
         d="m 105.9871,171.25727 c 0.12559,0.0754 2.77558,1.58246 3.05189,2.17274 0.2763,0.59029 1.36895,2.49929 0.70331,3.22772 -0.66563,0.72843 -1.45687,1.93412 -1.5699,1.98435 -0.11303,0.0502 -1.80852,0.6154 -1.97179,0.56517 -0.16327,-0.0502 -4.25757,-0.86659 -4.64691,-1.16801 -0.38933,-0.30142 -1.34383,-1.21824 -0.9545,-1.46943 0.38934,-0.25118 0.0628,-2.70022 0.55261,-3.6924 0.48981,-0.99218 2.43648,-1.80853 2.43648,-1.80853 z"
         id="path31" />
      <path
         style="opacity:1;fill:#eaedb9;fill-opacity:1;stroke-width:2.117;stroke-linejoin:round;stroke-miterlimit:3.1;paint-order:markers stroke fill"
         d="m 107.12999,173.19139 c 0,0 -0.52749,0.0251 -0.62796,-0.55261 -0.10048,-0.57772 -0.25119,-1.48198 -0.25119,-1.48198 0,0 -0.30142,-0.0502 -0.42701,0.12559 -0.12559,0.17583 -1.00473,1.93412 -1.40663,1.93412 -0.40189,0 0.0754,-0.45213 -0.87914,0.10047 -0.9545,0.55261 -0.87915,0.85403 -1.18057,0.75355 -0.30142,-0.10047 -0.15071,-0.57772 -0.75355,0.17583 -0.60284,0.75355 -0.87914,2.16018 0.0502,2.3109 0.92938,0.1507 0.82891,-0.75356 1.08009,0.12559 0.25118,0.87914 -0.10048,1.909 0.75355,1.08009 0.85403,-0.82891 1.33128,-1.98436 1.33128,-1.98436 0,0 0.15071,0.15072 0.52748,1.23081 0.37678,1.08009 1.68294,0.97961 1.93412,0.75355 0.25118,-0.22607 0.6782,-0.80379 0.6782,-1.33128 0,-0.52748 0.12559,-1.68293 -0.0754,-1.909 -0.20095,-0.22606 -0.75355,-1.18056 -0.75355,-1.18056 z"
         id="path32" />
      <path
         style="opacity:1;fill:#b0a255;fill-opacity:1;stroke-width:2.117;stroke-linejoin:round;stroke-miterlimit:3.1;paint-order:markers stroke fill"
         d="m 104.24137,171.23215 c -0.0502,0.15071 -0.30142,0.55261 -0.20094,0.75355 0.10047,0.20095 -0.52749,0.1256 -0.10048,1.10521 0.42701,0.97962 1.48199,1.48199 1.40663,0.65308 -0.0754,-0.8289 0.20095,-1.13033 0.25119,-1.60757 0.0502,-0.47725 -0.0251,-0.92939 -0.0251,-0.92939 z"
         id="path33" />
      <path
         style="opacity:1;fill:#dec079;fill-opacity:1;stroke-width:2.117;stroke-linejoin:round;stroke-miterlimit:3.1;paint-order:markers stroke fill"
         d="m 125.71761,164.92743 c 0.97962,0 1.65781,-0.10047 1.75828,0.0502 0.10048,0.15071 0.72844,1.30616 0.72844,1.30616 l -4.11942,3.19003 -0.42701,1.53223 c 0,0 0.40189,0.32654 0.90426,0.82891 0.50237,0.50236 1.50711,1.90899 1.38151,2.38624 -0.12559,0.47725 0.52749,1.68294 -0.50237,2.28578 -1.02985,0.60284 -3.6924,1.65781 -4.11941,1.65781 -0.42702,0 -1.70806,-0.2763 -1.70806,-0.2763 0,0 -1.88388,2.76303 -2.4616,3.818 -0.57772,1.05497 -0.9545,1.909 -0.9545,1.909 0,0 -1.38151,0.65308 -1.55734,0.52748 -0.17583,-0.12559 0.12559,0 -0.97962,-0.37677 -1.10521,-0.37678 -2.00947,-1.18057 -2.28577,-1.43175 -0.2763,-0.25119 -0.80379,-1.15545 -0.80379,-1.40663 0,-0.25119 0.62796,-1.83365 0.70332,-2.08483 0.0754,-0.25118 0.81634,-1.9718 0.66563,-2.00947 -0.15071,-0.0377 -1.69549,-0.3391 -1.77084,-0.31398 -0.0754,0.0251 -0.70332,-3.79288 -2.17275,-4.68458 -1.46942,-0.89171 -3.76776,-1.21825 -4.75993,-0.69076 -0.99218,0.52749 -1.65782,1.59502 -2.03459,2.2481 -0.37678,0.65307 -0.29957,0.52722 -1.329735,1.0423 -1.030164,0.51508 -1.474198,0.71046 -2.380028,2.18465 -0.90583,1.4742 -0.621649,1.75838 -1.207775,1.88271 -0.586126,0.12433 -1.065684,0.19538 -1.918229,0.17762 -0.852549,-0.0178 -1.811663,-0.44404 -1.900471,-0.63941 -0.08881,-0.19538 -0.479557,-2.62869 -0.479557,-2.62869 0,0 0.941353,-1.42091 1.03016,-1.43868 0.08881,-0.0177 2.326744,-1.03016 2.326744,-1.03016 0,0 -0.319707,-1.61628 -0.461796,-1.72285 -0.142092,-0.10657 -4.919906,-1.36763 -5.008713,-1.98928 -0.08881,-0.62165 0.230896,-3.21481 1.403148,-3.72989 1.172253,-0.51508 4.067361,-0.30194 4.049599,-0.44404 -0.01775,-0.14208 -0.106569,-4.42258 0.159853,-5.34617 0.26642,-0.9236 0.941354,-1.74062 1.065684,-1.74062 0.124328,0 3.161527,-0.17761 3.161527,-0.17761 0,0 1.154489,3.53451 1.030159,4.35154 -0.12433,0.81702 -0.10657,3.51675 -0.10657,3.51675 l 2.64645,-0.7815 c 0,0 2.53988,-2.68197 3.09048,-3.09048 0.55061,-0.40851 0.76374,-0.62165 1.56301,0 0.79926,0.62165 1.93599,1.70509 2.69973,2.16689 0.76374,0.4618 2.30898,1.19001 2.30898,1.1012 0,-0.0888 -0.56837,-1.93599 -1.15449,-2.36226 -0.58613,-0.42627 -1.81166,-1.13673 -1.82943,-1.7939 -0.0178,-0.65717 -0.0178,-1.43867 0.4618,-2.50436 0.47956,-1.06568 0.74598,-1.93599 1.31434,-2.27345 0.56837,-0.33747 1.29658,-0.99464 2.00704,-1.10121 0.71046,-0.10657 1.54524,0.40851 2.71749,0.63941 1.17226,0.2309 1.56301,0.49732 2.09585,0.0888 0.53284,-0.40851 2.66421,-2.71749 5.66588,-1.61628 3.00168,1.1012 4.68901,2.41555 4.72453,2.52212 0.0355,0.10657 0.31971,0.5506 0.14209,1.11897 -0.17761,0.56836 -3.23257,6.09215 -3.33914,6.53619 -0.10657,0.44403 -0.0331,0.61678 -0.0331,0.61678 z"
         id="path34" />
      <path
         style="opacity:1;fill:#b09355;fill-opacity:1;stroke-width:2.117;stroke-linejoin:round;stroke-miterlimit:3.1;paint-order:markers stroke fill"
         d="m 117.68699,170.04758 c 0,0 -0.49732,-2.27346 -1.42091,-1.59853 -0.92359,0.67493 -2.69973,4.08512 -2.91287,3.5878 -0.21314,-0.49731 0.53284,-1.24329 -0.31971,-1.20777 -0.85254,0.0355 -1.03016,0.74598 -0.88806,0.0355 0.14209,-0.71045 1.20777,-2.84182 0.56836,-3.51676 -0.63941,-0.67493 0.28418,-3.126 -1.70509,-0.56836 -1.98928,2.55764 -1.56301,3.01944 -1.91823,2.84182 -0.35523,-0.17761 -0.60389,-0.3197 -0.81703,-0.99463 -0.21313,-0.67494 -0.85254,-0.49732 -0.85254,-0.49732 0,0 1.8827,-2.30898 0.3197,-1.42092 -1.563,0.88808 -0.85255,1.66958 -1.13673,1.98928 -0.28418,0.31971 -0.85255,0.24866 -1.563,0.0355 -0.71046,-0.21314 -1.84719,2.27345 -2.0248,0.3197 -0.17761,-1.95375 0.3197,-3.90751 0.3197,-3.90751 l -2.59316,0.63941 c 0,0 -0.26901,-0.11641 -0.29413,-0.6439 -0.0251,-0.52749 0.13815,-2.13506 0.16327,-2.00947 0.0251,0.12559 0.0953,-2.85266 0.0953,-2.85266 0,0 -1.385389,0.28418 -1.634049,1.49196 -0.248661,1.20777 1.065679,0.39075 -0.497319,1.38539 -1.563002,0.99463 -1.598525,1.91823 -1.882709,1.2433 -0.284181,-0.67494 -0.319704,-1.77614 -0.817023,-1.84719 -0.497318,-0.071 -0.39075,-1.42091 -0.568364,0.0355 -0.177615,1.45644 -0.106569,2.52212 -0.106569,2.52212 0,0 -0.994638,-0.3197 -1.527479,-0.14209 -0.532842,0.17761 -1.563003,1.2433 -0.248661,1.34986 1.314344,0.10657 2.912869,-1.52747 3.94303,-1.45643 1.03016,0.071 1.740617,-0.7815 1.740617,0.10657 0,0.88807 -1.207776,0.4618 0,1.66957 1.207776,1.20777 1.740616,1.49196 1.776136,2.20241 0.0355,0.71046 -1.136726,1.17225 -1.70509,1.88271 -0.568365,0.71046 -1.456436,0.24866 -1.420914,0.39075 0.03552,0.14209 -0.826788,0.885 -0.726315,1.03571 0.100473,0.15072 0.552606,0.32654 0.866584,0.64052 0.313981,0.31398 0.213506,0.97962 0.251185,1.05498 0.03768,0.0753 0.816348,0.0502 0.841465,0.8289 0.02511,0.77868 -0.213505,0.99218 0.02511,0.77868 0.238625,-0.21351 2.084825,-1.60758 2.084825,-1.79597 0,-0.18839 -0.0754,-2.37369 1.43175,-2.49928 1.5071,-0.1256 2.28578,-0.45213 3.49146,-0.0502 1.20568,0.40189 1.7834,0.62796 1.7834,0.62796 0,0 1.70806,1.68294 1.80853,2.71279 0.10047,1.02985 -0.0502,1.38151 0.20095,1.80852 0.25118,0.42702 2.41136,0.37678 2.41136,0.37678 0,0 1.60758,-1.94668 2.54952,-2.33601 0.94194,-0.38934 1.74573,-0.62796 1.74573,-0.62796 0,0 0.18839,-1.19313 0.56516,-2.05971 0.37678,-0.86659 0.51493,-1.51966 0.51493,-1.51966 z"
         id="path35" />
      <path
         style="opacity:1;fill:#705c34;fill-opacity:1;stroke-width:2.117;stroke-linejoin:round;stroke-miterlimit:3.1;paint-order:markers stroke fill"
         d="m 92.887854,165.20374 c 0,0 -1.356394,0.30142 -0.251184,0.96706 1.105209,0.66563 3.265392,-0.60285 3.265392,-0.60285 z"
         id="path36" />
      <path
         style="opacity:1;fill:#705c34;fill-opacity:1;stroke-width:2.117;stroke-linejoin:round;stroke-miterlimit:3.1;paint-order:markers stroke fill"
         d="m 97.961772,170.95585 c 0,0 1.080092,-1.15544 0.376777,-1.55734 -0.703316,-0.4019 -4.345485,0.12559 -4.872972,0.12559 -0.527486,0 -0.92938,-0.45213 -0.527486,0.52749 0.401894,0.97961 1.858761,0.90426 1.959237,1.05497 0.100473,0.15071 0.226065,2.3109 0.427011,2.21042 0.200948,-0.10047 1.333161,-0.9249 1.386446,-1.01371 0.05328,-0.0888 1.250987,-1.34742 1.250987,-1.34742 z"
         id="path37" />
      <path
         style="opacity:1;fill:#705c34;fill-opacity:1;stroke-width:2.117;stroke-linejoin:round;stroke-miterlimit:3.1;paint-order:markers stroke fill"
         d="m 110.9199,164.09751 c -0.58613,0.62165 -2.18465,0.14209 -1.08345,1.74062 1.10121,1.59852 4.12065,2.68197 4.56468,2.04256 0.44404,-0.63941 0.51508,-1.31434 0.60389,-1.43868 0.0888,-0.12433 0.30194,-0.28418 0.30194,-0.28418 z"
         id="path38" />
      <path
         style="opacity:1;fill:#705c34;fill-opacity:1;stroke-width:2.117;stroke-linejoin:round;stroke-miterlimit:3.1;paint-order:markers stroke fill"
         d="m 117.3783,170.15206 c 0,0 -0.77867,-0.0754 -1.33128,0.57773 -0.5526,0.65307 -0.15071,1.43174 -1.02985,1.88387 -0.87915,0.45214 -0.97962,-0.25118 -2.43649,0.82891 -1.45686,1.08009 -1.93411,3.21516 -1.80852,3.24028 0.12559,0.0251 0.97962,0.0251 1.08009,0.0251 0.10047,0 1.60758,-1.14289 1.74573,-1.31872 0.13815,-0.17583 2.68767,-1.5071 2.70023,-1.68293 0.0126,-0.17583 1.08009,-3.55426 1.08009,-3.55426 z"
         id="path39" />
      <path
         style="opacity:1;fill:#b09355;fill-opacity:1;stroke-width:2.117;stroke-linejoin:round;stroke-miterlimit:3.1;paint-order:markers stroke fill"
         d="m 114.26362,183.91695 c 0,0 0.50236,-0.0754 0.57772,-0.82891 0.0754,-0.75355 0.60284,-0.72844 0.65308,-1.65782 0.0502,-0.92938 0.10047,-1.33127 0.10047,-1.58246 0,-0.25118 -0.30142,-1.00473 -0.47725,-1.38151 -0.17583,-0.37677 -0.72843,-0.87914 -0.10047,-1.20568 0.62796,-0.32654 1.25592,-0.0502 0.65308,-0.35166 -0.60285,-0.30142 -1.93412,-0.0251 -1.65782,-0.45213 0.2763,-0.42701 1.43175,-1.15545 2.56208,-0.97962 1.13033,0.17583 1.43175,0.65308 1.93412,0.45214 0.50236,-0.20095 1.5071,-0.10048 0.8289,-0.4019 -0.67819,-0.30142 -1.83364,-1.20568 -1.38151,-1.18056 0.45213,0.0251 0.60284,-0.22607 1.25592,0.25118 0.65308,0.47725 0.90426,0.80379 1.20568,0.37678 0.30142,-0.42702 1.18057,-0.50237 1.2308,-0.92939 0.0502,-0.42701 0.52749,-1.38151 0.6782,-1.33127 0.15071,0.0502 1.13033,-0.60284 1.13033,-0.17583 0,0.42701 0.10048,1.13033 0.30142,1.20568 0.20095,0.0754 0.47725,-0.42701 0.50237,0.35166 0.0251,0.77867 -0.50237,1.18057 0.12559,0.87915 0.62796,-0.30143 0.77867,-0.55261 0.77867,-0.55261 0,0 0.35166,-0.22607 0.42702,-0.10047 0.0754,0.12559 0.87914,0.0754 0.72843,0.32653 -0.15071,0.25119 -0.47725,1.38152 -1.25592,1.85877 -0.77867,0.47725 -1.58246,0.9545 -2.43649,1.20568 -0.85402,0.25119 -1.13032,0.37678 -1.53222,0.35166 -0.40189,-0.0251 -1.55734,-0.2763 -1.55734,-0.2763 0,0 -1.20568,1.10521 -1.65781,1.95923 -0.45213,0.85403 -0.30143,2.63743 -0.9545,3.01421 -0.65308,0.37678 -1.50711,0.85403 -1.55734,0.9545 -0.0502,0.10047 -1.10521,0.20095 -1.10521,0.20095 z"
         id="path40" />
      <path
         style="opacity:1;fill:#705c34;fill-opacity:1;stroke-width:2.117;stroke-linejoin:round;stroke-miterlimit:3.1;paint-order:markers stroke fill"
         d="m 125.23558,176.17526 c -0.26642,0.0355 -0.69269,0.14209 -1.49195,-0.67494 -0.79927,-0.81702 -1.1545,-2.13136 -2.2557,-1.77613 -1.10121,0.35522 -1.36763,-0.21314 -1.10121,0.39075 0.26642,0.60388 1.03016,1.8827 1.04792,2.20241 0.0178,0.3197 0.12433,0.85255 0.58613,1.04792 0.4618,0.19538 0.65717,0.35523 0.65717,0.35523 z"
         id="path41" />
      <path
         style="opacity:1;fill:#b09355;fill-opacity:1;stroke-width:2.117;stroke-linejoin:round;stroke-miterlimit:3.1;paint-order:markers stroke fill"
         d="m 128.62801,158.3961 c -0.14209,0.0711 -1.52748,1.88271 -2.8063,2.59317 -1.27882,0.71045 -0.17762,-1.03016 -4.68901,-0.21314 -4.51139,0.81702 -5.71917,2.62869 -4.58244,3.12601 1.13673,0.49732 0.71046,1.06568 1.84719,1.31434 1.13673,0.24866 3.5878,-1.42091 3.33914,-0.21314 -0.24866,1.20778 0.3197,3.83646 -0.21314,3.69437 -0.53284,-0.14209 -0.39075,0.10657 -1.42091,-0.88807 -1.03016,-0.99464 -1.97152,-1.70509 -2.18465,-1.38539 -0.21314,0.31971 -0.74598,0.88807 -0.19538,1.36763 0.55061,0.47956 2.16689,2.75302 2.59317,3.00168 0.42627,0.24866 1.26106,0.39075 1.47419,0.39075 0.21314,0 1.84719,-0.0533 1.84719,-0.2309 0,-0.17762 0.47955,-1.11897 0.51508,-1.36763 0.0355,-0.24866 2.36226,-1.84718 2.36226,-1.84718 0,0 -0.28418,-0.85255 -1.13673,-0.4618 -0.85254,0.39075 -1.74061,1.7939 -1.82942,1.75838 -0.0888,-0.0355 -0.26642,-0.31971 -0.26642,-0.31971 0,0 1.04792,-1.65181 1.10121,-1.74061 0.0533,-0.0888 2.46883,-4.76006 2.68197,-5.22185 0.21313,-0.4618 1.563,-3.35691 1.563,-3.35691 z"
         id="path42" />
      <path
         style="opacity:1;fill:#b09355;fill-opacity:1;stroke-width:2.117;stroke-linejoin:round;stroke-miterlimit:3.1;paint-order:markers stroke fill"
         d="m 116.7001,156.86443 c 0,0 -1.48199,-0.47725 -1.78341,0.0251 -0.30142,0.50236 0.20095,0.60284 0.17583,1.05497 -0.0251,0.45213 0.15071,0.32654 0.0251,0.62796 -0.12559,0.30142 -0.85402,1.48198 -0.85402,1.48198 0,0 -0.75355,0.0754 -1.30616,0.30142 -0.5526,0.22607 0.75355,1.75829 1.13033,1.60758 0.37677,-0.15071 0.50237,-0.9545 0.67819,-0.37677 0.17583,0.57772 0.87915,1.70805 1.02986,1.18056 0.15071,-0.52749 1.60758,-4.42084 1.60758,-4.42084 l 0.32654,-1.53222 0.0251,-0.72844 z"
         id="path43" />
    </g>
    <g
       inkscape:groupmode="layer"
       id="layer4"
       inkscape:label="Layer 4">
      <path
         style="opacity:1;fill:#111b09;stroke-width:2.117;stroke-linejoin:round;stroke-miterlimit:3.1;paint-order:markers stroke fill"
         d="m 97.66035,170.72979 c 0,0 -1.155446,1.75828 -2.185299,2.0597 -1.029856,0.30142 -2.629343,0.69249 -3.064446,0.92938 -2.082004,1.13353 -0.944297,4.51727 0.728434,5.35023 1.481984,0.67819 2.63743,0.1507 2.913735,0.20094 0.276301,0.0502 0.251182,0.70332 0.92938,-0.52749 0.678196,-1.2308 1.155446,-2.36112 2.05971,-2.93885 0.904261,-0.57772 1.481986,-1.05497 1.481986,-1.05497 0,0 -0.0251,-0.87914 -0.25119,-0.82891 -0.22606,0.0502 -1.808521,0.37678 -2.511837,1.53223 -0.703313,1.15544 -1.130326,2.81326 -1.934115,2.93885 -0.80379,0.12559 -2.185302,0.35165 -2.838381,-0.45213 -0.653079,-0.80379 -0.753552,-2.13507 -0.351657,-2.81327 0.401894,-0.67819 0.778671,-1.02985 1.306158,-1.1052 0.527486,-0.0754 2.235538,-0.75356 3.215155,-1.80853 0.979617,-1.05497 1.733169,-1.28104 1.306156,-1.38151 -0.427011,-0.10047 -0.803789,-0.10047 -0.803789,-0.10047 z"
         id="path2"
         sodipodi:nodetypes="csssssscssssscssc" />
      <path
         style="opacity:1;fill:#111b09;stroke-width:2.117;stroke-linejoin:round;stroke-miterlimit:3.1;paint-order:markers stroke fill"
         d="m 95.503012,177.54289 c 0.07104,-0.2309 0.923592,-2.64645 -0.47956,-2.96616 -1.403149,-0.3197 -2.308979,-0.10657 -2.326741,-0.0355 -0.01775,0.071 -0.372991,0.47956 -0.195376,0.53284 0.177615,0.0533 2.522117,-0.40851 2.628686,0.85255 0.106569,1.26106 -0.07105,2.06032 0.142097,1.95375 0.213137,-0.10657 0.230899,-0.33746 0.230899,-0.33746 z"
         id="path3"
         sodipodi:nodetypes="sssssscs" />
      <path
         style="opacity:1;fill:#111b09;stroke-width:2.117;stroke-linejoin:round;stroke-miterlimit:3.1;paint-order:markers stroke fill"
         d="m 98.184982,174.31031 c -0.394134,0.50162 0.217914,-1.18963 -0.497319,-1.54524 -0.749523,-0.37265 -1.172252,-0.24866 -1.172252,-0.24866 0,0 0.355227,-0.56836 0.568365,-0.49732 0.213135,0.071 1.669569,0.33747 1.509715,1.1545 -0.15985,0.81702 -0.408509,1.13672 -0.408509,1.13672 z"
         id="path4"
         sodipodi:nodetypes="cscssc" />
      <path
         style="opacity:1;fill:#111b09;stroke-width:2.117;stroke-linejoin:round;stroke-miterlimit:3.1;paint-order:markers stroke fill"
         d="m 95.911523,172.49865 c 0,0 -0.51508,-0.0178 -0.426273,-0.35523 0.08881,-0.33746 0.479558,-0.76374 0.03552,-1.2433 -0.444035,-0.47955 -4.369303,-0.5506 -4.72453,-2.04255 -0.355227,-1.49196 0.213138,-3.55228 2.362266,-3.41019 2.149129,0.14209 2.216068,0.0578 2.442134,0.25873 0.226067,0.20094 1.557342,-0.0754 0.979619,-0.32655 -0.577723,-0.25118 -0.828908,-0.10047 -0.879144,-0.75355 -0.05024,-0.65308 -0.251185,-3.64216 0.226065,-4.57155 0.47725,-0.92938 0.502367,-1.45686 1.406631,-1.48198 0.904261,-0.0251 1.733169,-0.70332 2.386248,0.25118 0.653081,0.9545 0.728431,2.68767 0.753551,3.74264 0.0251,1.05498 -0.502366,3.46634 -0.37678,3.46634 0.1256,0 0.82891,0.27631 0.9545,-0.40189 0.1256,-0.6782 -0.22606,-0.55261 -0.22606,-0.6782 0,-0.12559 0.30142,-2.83838 0.30142,-4.16965 0,-1.33128 -0.40189,-3.36587 -0.90426,-3.61705 -0.502371,-0.25119 -3.617054,-0.2763 -4.245013,0.52748 -0.62796,0.80379 -1.315188,3.5743 -1.442894,4.65121 -0.104043,0.87737 0.237211,2.181 0.237211,2.181 0,0 -0.753552,-0.52749 -2.612316,0.17583 -1.858761,0.70331 -3.089563,2.91373 -2.737905,3.96871 0.351657,1.05497 1.180565,1.95923 2.662552,2.63743 1.481984,0.67819 2.587194,-0.42701 2.587194,0.20094 0,0.62797 0.226068,1.53223 0.226068,1.53223 l 1.105209,-0.25119 z"
         id="path5"
         sodipodi:nodetypes="csssssssssssssssssscssssccc" />
      <path
         style="opacity:1;fill:#111b09;stroke-width:2.117;stroke-linejoin:round;stroke-miterlimit:3.1;paint-order:markers stroke fill"
         d="m 100.57408,163.57104 c -0.1507,0 -1.048603,-0.037 -2.210414,0.85403 -0.252114,0.19336 0.653079,-0.20095 -0.678196,0.47724 -1.331275,0.6782 -3.01421,3.03933 -2.486724,4.2199 0.527487,1.18056 1.682936,1.80852 1.431751,1.40663 -0.251185,-0.4019 -1.708052,-1.98436 -0.251185,-3.66729 1.456867,-1.68293 2.03459,-1.63269 2.135066,-1.78341 0.100473,-0.15071 0.45213,-0.37677 0.92938,-0.40189 0.47725,-0.0251 0.979622,-0.40188 0.979622,-0.40188 l 0.25118,-0.57773 z"
         id="path6"
         sodipodi:nodetypes="csssssssccc" />
      <path
         style="opacity:1;fill:#111b09;stroke-width:2.117;stroke-linejoin:round;stroke-miterlimit:3.1;paint-order:markers stroke fill"
         d="m 94.244249,165.07814 c 0,0 -1.607579,1.59502 -1.58246,2.54952 0.02511,0.9545 0.967057,1.20569 0.766112,0.64052 -0.200949,-0.56516 -0.313981,-1.09265 0.401894,-1.95923 0.715875,-0.86659 1.168006,-1.24336 1.09265,-1.21825 -0.07536,0.0251 -0.602843,-0.0628 -0.602843,-0.0628 z"
         id="path7" />
      <path
         style="opacity:1;fill:#111b09;stroke-width:2.117;stroke-linejoin:round;stroke-miterlimit:3.1;paint-order:markers stroke fill"
         d="m 99.6947,160.82941 c -0.834787,-0.14209 -2.237936,-0.47955 -3.019438,0.47956 -0.7815,0.95912 -1.332103,0.85255 0.284183,0.49732 1.616287,-0.35523 2.593163,-0.62165 2.788539,-0.4618 0.195374,0.15986 0.195374,0.39076 0.372986,0.0178 0.17762,-0.37299 -0.42627,-0.53284 -0.42627,-0.53284 z"
         id="path8" />
      <path
         id="path9"
         style="opacity:1;fill:#111b09;stroke-width:2.117;stroke-linejoin:round;stroke-miterlimit:3.1;paint-order:markers stroke fill"
         d="m 103.78075,170.43146 c -0.6378,0.0158 -1.48456,0.2751 -2.44533,1.37717 -1.708051,1.95924 -0.96222,2.6138 -0.96222,2.6138 l 0.10025,1.85828 c 0,0 -1.858825,0.40216 -0.20102,1.75855 1.65782,1.35639 2.86358,1.00496 3.7176,1.30638 0.85402,0.30142 8.1383,0.15037 6.12883,-4.77283 -2.00947,-4.92321 -4.82248,-4.01888 -5.27461,-4.01888 -0.19781,0 -0.56744,-0.13477 -1.0635,-0.12247 z m 0.9312,1.06298 c 0.35551,0.0129 0.59553,0.12257 0.71986,0.29352 0.28418,0.39075 0.28422,0.14211 0.28422,0.14211 l 0.14211,-0.31936 c 0,0 1.74423,0.46228 2.3089,1.10123 0.79347,0.89784 1.31399,2.30892 1.13637,3.41013 -0.25952,1.60899 -1.05834,2.17306 -1.77612,2.46753 -0.34634,0.14208 0.14202,-0.15875 0.53278,-1.01129 0.39072,-0.85255 0.32647,-1.4954 0.20482,-2.23885 -0.16225,-0.99155 -1.16346,-2.55663 -1.44764,-2.80529 -0.28419,-0.24866 0.0707,0.49728 0.60358,1.63401 0.53284,1.13673 0.10646,2.55747 0.10646,2.55747 v -0.24857 c 0,0 -0.9942,2.20248 -1.52704,2.34456 -0.53284,0.1421 -0.92406,-0.46161 -1.49242,-0.63923 -0.56837,-0.17761 -0.53287,0.14195 -1.24333,0.10645 -0.71046,-0.0355 -2.23761,-0.92334 -2.3797,-1.02991 0,0 0.31956,-0.10701 0.78135,-0.39119 0.4618,-0.28418 0.14232,-0.56806 -0.21291,-1.5627 -0.35523,-0.99464 -0.17783,-2.62874 1.31413,-3.30367 0.83923,-0.37965 1.48751,-0.52349 1.94458,-0.50695 z"
         sodipodi:nodetypes="ssccsssssssccsssssssccssscssss" />
      <path
         style="opacity:1;fill:#111b09;fill-opacity:1;stroke-width:2.117;stroke-linejoin:round;stroke-miterlimit:3.1;paint-order:markers stroke fill"
         d="m 100.90063,165.50516 c -0.0754,0.17583 -0.15072,0.60284 0.0502,0.62796 0.20095,0.0251 0.62796,-0.25119 0.62796,-0.25119 0,0 0.15071,-0.0754 0.0754,0.17583 -0.0754,0.25119 -0.92938,1.02986 -0.55261,2.38625 0.37678,1.3564 1.80853,1.70805 1.40663,1.30616 -0.40189,-0.4019 -1.00473,-0.65308 -0.70331,-2.08483 0.30142,-1.43175 0.45213,-2.10995 0.65308,-2.03459 0.20094,0.0754 0.37677,-0.42701 0.52748,0 0.15071,0.42701 -0.0251,0.70331 0.15071,0.47725 0.17583,-0.22607 1.55734,-2.8635 2.5872,-3.59193 1.02985,-0.72844 1.30616,-1.18057 2.21042,-0.17583 0.90426,1.00473 3.92747,2.73415 5.41943,3.19594 1.49196,0.4618 1.70509,1.13673 2.0248,0.99464 0.31971,-0.14209 0.85255,-0.39075 -0.53284,-1.13673 -1.38539,-0.74598 -4.58244,-1.2433 -5.57708,-3.05496 -0.99464,-1.81166 -2.69973,-1.49195 -3.94303,-0.63941 -1.2433,0.85255 -2.62869,2.38003 -2.62869,2.73526 0,0.35523 0.39076,0.42627 0,0.49732 -0.39075,0.071 -0.46179,0.24866 -0.81702,0.21313 -0.35523,-0.0355 -0.99464,0.21314 -0.99464,0.21314 z"
         id="path10" />
      <path
         style="opacity:1;fill:#111b09;fill-opacity:1;stroke-width:2.117;stroke-linejoin:round;stroke-miterlimit:3.1;paint-order:markers stroke fill"
         d="m 117.88067,168.09235 c 0,0 0.32653,2.26066 2.66255,3.01421 2.33601,0.75355 2.63743,-0.25118 3.21515,0.2763 0.57772,0.52749 1.909,2.08483 1.83365,3.44122 -0.0754,1.3564 -2.61232,2.68767 -4.24502,2.88862 -1.63269,0.20095 -1.73317,-0.15071 -1.30615,-0.37678 0.42701,-0.22606 0.50237,-0.60284 0.35166,-0.65307 -0.15072,-0.0502 -0.42702,0.17583 -1.48199,1.18056 -1.05497,1.00474 -2.63743,4.84785 -2.63743,4.84785 0,0 -1.13839,1.91878 -3.31563,0.50237 -2.21642,-1.4419 -2.3599,-2.21348 -1.75829,-3.01421 0.84129,-1.11973 2.05971,-2.16018 3.08956,-1.68293 1.02986,0.47725 1.00474,0.80379 0.97962,1.43175 -0.0251,0.62796 -0.72843,0.60284 -0.0754,0.70332 0.65308,0.10047 1.10521,-0.30143 0.87914,-1.40664 -0.22606,-1.10521 -1.83364,-1.80852 -3.01421,-1.65781 -1.18056,0.15071 -3.19004,1.98435 -2.63743,3.79288 0.5526,1.80852 3.56681,3.76776 5.09903,2.88862 1.53223,-0.87915 1.88389,-1.05498 2.61232,-2.66256 0.72843,-1.60757 1.18056,-3.08956 1.38151,-3.24027 0.20095,-0.15071 0.25119,-0.20095 0.25119,-0.20095 0,0 0.67819,0.75355 2.91373,0.0754 2.23554,-0.6782 4.32037,-2.13507 3.6924,-4.34549 -0.62796,-2.21042 -2.48672,-3.36586 -2.81325,-3.36586 -0.32655,0 -0.75356,0.30142 -1.00474,0.30142 -0.25119,0 -0.47725,0.60284 -1.70805,-0.17583 -1.23081,-0.77867 -2.56208,-3.61705 -3.51658,-3.11468 -0.9545,0.50237 0.55264,0.5526 0.55264,0.5526 z"
         id="path11"
         sodipodi:nodetypes="csscsssscsssssssssssccssssscc" />
      <path
         style="opacity:1;fill:#111b09;fill-opacity:1;stroke-width:2.117;stroke-linejoin:round;stroke-miterlimit:3.1;paint-order:markers stroke fill"
         d="m 123.256,172.13642 c -0.17582,0 -3.29051,0.50236 -3.01421,2.26065 0.27631,1.75829 1.80853,2.88862 1.45687,1.85876 -0.35166,-1.02985 -1.10521,-1.85876 -0.47725,-2.61231 0.62796,-0.75355 1.95924,-0.82891 2.08483,-0.72843 0.12559,0.10047 0.72843,0.70331 0.57772,-0.1256 -0.15071,-0.8289 -0.62796,-0.65307 -0.62796,-0.65307 z"
         id="path12" />
      <path
         style="opacity:1;fill:#111b09;fill-opacity:1;stroke-width:2.117;stroke-linejoin:round;stroke-miterlimit:3.1;paint-order:markers stroke fill"
         d="m 110.64657,179.99848 c 0,0 0.52748,-2.41137 1.15544,-3.16492 0.62796,-0.75355 2.16018,-2.36113 3.1398,-2.93886 0.97962,-0.57772 3.41611,-1.5071 3.59193,-0.87914 0.17583,0.62796 -0.20094,0.80379 -0.50237,0.62796 -0.30142,-0.17583 -1.38151,0.0251 -2.51184,0.65308 -1.13032,0.62796 -2.85635,2.27054 -2.95682,2.99897 -0.10047,0.72843 -0.81093,1.82376 -0.88629,1.92423 -0.0754,0.10048 -1.02985,0.77868 -1.02985,0.77868 z"
         id="path13"
         sodipodi:nodetypes="csssssssc" />
      <path
         style="opacity:1;fill:#111b09;fill-opacity:1;stroke-width:2.117;stroke-linejoin:round;stroke-miterlimit:3.1;paint-order:markers stroke fill"
         d="m 111.80201,177.1601 c 0,0 1.05497,-0.87915 0.70332,-0.82891 -0.35166,0.0502 -0.6782,-0.10048 -1.15545,-0.12559 -0.47725,-0.0251 -1.33127,0 -1.33127,0 l -0.10048,0.82891 c 0,0 1.10521,0.0502 1.3564,0.22606 0.25118,0.17583 0.52748,-0.10047 0.52748,-0.10047 z"
         id="path14" />
      <path
         style="opacity:1;fill:#111b09;fill-opacity:1;stroke-width:2.117;stroke-linejoin:round;stroke-miterlimit:3.1;paint-order:markers stroke fill"
         d="m 116.77546,173.36722 c 0,0 -1.55735,1.35639 -1.68294,2.23553 -0.12559,0.87915 0.17583,1.15545 0.35166,0.70332 0.17583,-0.45213 -0.22607,-0.72843 0.60284,-1.35639 0.82891,-0.62796 2.16018,-1.73317 1.93412,-1.6327 -0.22607,0.10048 -1.20568,0.0502 -1.20568,0.0502 z"
         id="path15" />
      <path
         style="opacity:1;fill:#111b09;fill-opacity:1;stroke-width:2.117;stroke-linejoin:round;stroke-miterlimit:3.1;paint-order:markers stroke fill"
         d="m 116.87593,173.29186 c 0,-0.17583 0.40189,-2.00947 0.62796,-2.58719 0.22606,-0.57773 0.77867,-1.38151 0.25118,-1.08009 -0.52748,0.30142 -1.65781,1.95923 -1.75829,2.68766 -0.10047,0.72844 -0.1507,1.10522 -0.0754,1.23081 0.0754,0.12559 0.9545,-0.25119 0.9545,-0.25119 z"
         id="path16" />
      <path
         style="opacity:1;fill:#111b09;fill-opacity:1;stroke-width:2.117;stroke-linejoin:round;stroke-miterlimit:3.1;paint-order:markers stroke fill"
         d="m 124.06333,171.23759 c 0,0 -0.42627,-1.31434 0.74598,-1.98927 1.17225,-0.67494 4.47587,-2.4866 3.74765,-3.85423 -0.72822,-1.36763 -1.47419,-1.19001 -1.77614,-1.19001 -0.30194,0 -0.67493,0.0355 -0.67493,0.0355 0,0 -0.99112,-0.24155 -1.11672,0.21058 -0.12559,0.45213 0.0754,0.6782 1.02986,0.9545 0.9545,0.27631 1.53222,-0.20094 1.58246,0.25119 0.0502,0.45213 -0.70332,1.28104 -1.58246,2.00947 -0.87915,0.72843 -2.21042,1.25592 -2.4616,2.03459 -0.25119,0.77867 -0.30143,1.15545 -0.30143,1.15545 z"
         id="path17" />
      <path
         style="opacity:1;fill:#111b09;fill-opacity:1;stroke-width:2.117;stroke-linejoin:round;stroke-miterlimit:3.1;paint-order:markers stroke fill"
         d="m 125.21524,164.82696 c 0.30142,0.92938 0.60284,1.6327 1.00473,1.75829 0.4019,0.12559 0.77868,0.0251 0.4019,-0.37678 -0.37678,-0.40189 -0.20095,-0.75355 -0.20095,-0.75355 z"
         id="path18" />
      <path
         style="opacity:1;fill:#111b09;fill-opacity:1;stroke-width:2.117;stroke-linejoin:round;stroke-miterlimit:3.1;paint-order:markers stroke fill"
         d="m 125.26547,164.97767 c 0,0 -0.25118,0.42701 -0.57772,0.82891 -0.32654,0.40189 -1.08009,2.16018 -1.08009,2.16018 0,0 -0.92938,1.18057 -0.9545,1.45687 -0.0251,0.2763 -0.25118,0.80379 -0.12559,0.70331 0.12559,-0.10047 1.15545,-1.58246 1.30616,-2.00947 0.15071,-0.42701 2.16018,-2.36113 2.08482,-2.4616 -0.0754,-0.10048 -0.65308,-0.6782 -0.65308,-0.6782 z"
         id="path19" />
      <path
         style="opacity:1;fill:#111b09;fill-opacity:1;stroke-width:2.117;stroke-linejoin:round;stroke-miterlimit:3.1;paint-order:markers stroke fill"
         d="m 126.01903,164.42507 c 0,0 3.84311,-5.65165 3.54169,-7.25922 -0.30142,-1.60758 -3.19004,-4.16966 -6.50566,-4.27013 -3.31563,-0.10047 -5.09904,2.68767 -5.55117,3.84311 -0.45213,1.15545 -0.72843,4.01895 -0.42701,3.86824 0.30142,-0.15071 0.20094,-1.00474 0.40189,-1.73317 0.20095,-0.72844 1.20568,-2.38625 2.21042,-2.91373 1.00474,-0.52749 4.19477,-1.65782 5.95306,-1.0801 1.75829,0.57773 3.08957,2.05971 2.98909,2.53696 -0.10047,0.47725 -0.22606,-0.17583 -0.5526,0.62796 -0.32654,0.80379 -2.73791,6.50567 -2.73791,6.50567 z"
         id="path20" />
      <path
         style="opacity:1;fill:#111b09;fill-opacity:1;stroke-width:2.117;stroke-linejoin:round;stroke-miterlimit:3.1;paint-order:markers stroke fill"
         d="m 126.84794,160.63219 c 0,0 2.81326,-0.80379 -0.50237,-2.56208 -3.31563,-1.75829 -6.48055,0.2763 -5.92794,0.70331 0.5526,0.42702 0.85402,-0.47725 1.909,-0.30142 1.05497,0.17583 3.49145,0.20095 4.06918,0.80379 0.57772,0.60284 -0.15071,0.77867 -0.15071,0.97962 0,0.20095 0.60284,0.37678 0.60284,0.37678 z"
         id="path21"
         sodipodi:nodetypes="csssssc" />
      <path
         style="opacity:1;fill:#111b09;fill-opacity:1;stroke-width:2.117;stroke-linejoin:round;stroke-miterlimit:3.1;paint-order:markers stroke fill"
         d="m 110.61796,163.97318 c 0,0 -1.66957,0.60389 -3.16153,2.41555 -1.49196,1.81166 -1.63405,4.44035 -1.63405,4.44035 0,0 0.7815,0.14209 0.74598,-0.14209 -0.0355,-0.28418 0.74598,-2.59317 1.88271,-3.83646 1.13673,-1.2433 2.84182,-2.41555 2.84182,-2.41555 z"
         id="path22" />
      <path
         style="opacity:1;fill:#111b09;fill-opacity:1;stroke-width:2.117;stroke-linejoin:round;stroke-miterlimit:3.1;paint-order:markers stroke fill"
         d="m 114.02814,166.60187 c 0,0 -1.38539,1.03016 -2.20241,2.73525 -0.81702,1.70509 -0.99464,3.23258 -0.39075,2.3445 0.60389,-0.88806 0.81702,-1.42091 1.17225,-2.3445 0.35523,-0.92359 1.77614,-2.55764 1.77614,-2.55764 z"
         id="path23" />
      <path
         style="opacity:1;fill:#111b09;fill-opacity:1;stroke-width:2.117;stroke-linejoin:round;stroke-miterlimit:3.1;paint-order:markers stroke fill"
         d="m 108.56174,162.71701 c 0,0 -2.51184,0.77868 -3.29051,2.41137 -0.77867,1.6327 -1.38152,2.56208 -0.72844,1.95924 0.65308,-0.60285 1.88388,-2.91374 2.76303,-3.2654 0.87914,-0.35165 1.63269,-0.8289 1.63269,-0.8289 z"
         id="path24" />
      <path
         style="opacity:1;fill:#111b09;fill-opacity:1;stroke-width:2.117;stroke-linejoin:round;stroke-miterlimit:3.1;paint-order:markers stroke fill"
         d="m 125.4413,164.55066 c 0,0 0.0754,-1.65782 -2.81325,-2.66255 -2.88862,-1.00474 -4.06919,-0.1256 -4.52132,-0.0502 -0.45213,0.0754 -1.28104,0.2763 -0.30142,0.45213 0.97962,0.17583 4.16966,-0.2763 5.40046,0.6782 1.2308,0.9545 1.93411,2.10994 2.03459,2.10994 0.10047,0 0.20094,-0.52748 0.20094,-0.52748 z"
         id="path25"
         sodipodi:nodetypes="csssssc" />
      <path
         style="opacity:1;fill:#111b09;fill-opacity:1;stroke-width:2.117;stroke-linejoin:round;stroke-miterlimit:3.1;paint-order:markers stroke fill"
         d="m 123.46951,168.46914 c 0,0 0.45213,-0.70332 -2.16018,-1.53223 -2.61232,-0.82891 -3.37758,-0.63316 -3.08957,-0.47725 0.28308,0.15325 4.27713,1.13214 4.62179,1.65782 0.27163,0.4143 0.77867,0.30142 0.77867,0.30142 z"
         id="path26"
         sodipodi:nodetypes="cssscc" />
      <path
         style="opacity:1;fill:#111b09;fill-opacity:1;stroke-width:2.117;stroke-linejoin:round;stroke-miterlimit:3.1;paint-order:markers stroke fill"
         d="m 113.18352,165.02791 c 0,-0.17583 -0.10047,-1.30616 -0.77867,-2.1853 -0.67819,-0.87915 -2.44355,-1.70483 -1.88387,-3.61706 0.60284,-2.0597 2.96396,-4.29524 3.89335,-3.99382 0.92938,0.30142 3.74264,1.6327 3.91847,1.48199 0.17583,-0.15071 0.62796,-0.82891 0.47725,-0.87915 -0.15071,-0.0502 -2.61232,-0.90426 -3.2654,-1.13033 -0.65307,-0.22606 -2.28577,-0.17583 -3.76776,0.9545 -1.48198,1.13033 -2.63743,4.54643 -2.1853,5.57629 0.45213,1.02985 2.13507,1.75829 2.43649,2.7379 0.30142,0.97962 0.17583,0.97962 0.35165,1.02986 0.17583,0.0502 0.70332,0.0251 0.70332,0.0251 z"
         id="path27"
         sodipodi:nodetypes="csssssssssccc" />
      <path
         style="opacity:1;fill:#111b09;fill-opacity:1;stroke-width:2.117;stroke-linejoin:round;stroke-miterlimit:3.1;paint-order:markers stroke fill"
         d="m 113.51006,165.02791 c -0.17582,-0.57773 -0.25118,-0.9545 -0.12559,-1.6327 0.12559,-0.6782 0.80379,-2.03459 0.15071,-1.18056 -0.65308,0.85402 -1.05497,1.25592 -0.9545,1.63269 0.10048,0.37678 0.15071,0.90427 0.30142,1.10521 0.15071,0.20095 0.62796,0.0754 0.62796,0.0754 z"
         id="path28" />
      <path
         style="opacity:1;fill:#111b09;fill-opacity:1;stroke-width:2.117;stroke-linejoin:round;stroke-miterlimit:3.1;paint-order:markers stroke fill"
         d="m 111.85225,162.66678 c 0,0 0.85402,-3.29051 1.25592,-4.01895 0.40189,-0.72843 1.40663,-1.40663 0.60284,-1.08009 -0.80379,0.32654 -1.83364,2.08483 -2.08483,2.88862 -0.25118,0.80379 -0.40189,2.08483 -0.20095,2.28577 0.20095,0.20095 0.42702,-0.0754 0.42702,-0.0754 z"
         id="path29" />
      <path
         style="opacity:1;fill:#111b09;fill-opacity:1;stroke-width:2.117;stroke-linejoin:round;stroke-miterlimit:3.1;paint-order:markers stroke fill"
         d="m 117.15223,156.06064 c -0.25118,0.15071 -3.08956,3.36586 -3.06444,4.11942 0.0251,0.75355 0.0754,0.47725 0.62796,-0.32654 0.5526,-0.80379 3.1398,-3.51658 3.1398,-3.51658 z"
         id="path30" />
    </g>
  </g>
</svg>
