<?xml version="1.0" encoding="UTF-8" standalone="no"?>
<!-- Created with Inkscape (http://www.inkscape.org/) -->

<svg
   width="564.117"
   height="379.43719"
   viewBox="0 0 564.117 379.43719"
   version="1.1"
   id="svg1"
   inkscape:version="1.3 (0e150ed6c4, 2023-07-21)"
   sodipodi:docname="logo_text.svg"
   xml:space="preserve"
   inkscape:export-filename="protag.svg"
   inkscape:export-xdpi="96"
   inkscape:export-ydpi="96"
   xmlns:inkscape="http://www.inkscape.org/namespaces/inkscape"
   xmlns:sodipodi="http://sodipodi.sourceforge.net/DTD/sodipodi-0.dtd"
   xmlns:xlink="http://www.w3.org/1999/xlink"
   xmlns="http://www.w3.org/2000/svg"
   xmlns:svg="http://www.w3.org/2000/svg"><sodipodi:namedview
     id="namedview1"
     pagecolor="#fae9cc"
     bordercolor="#000000"
     borderopacity="0.25"
     inkscape:showpageshadow="2"
     inkscape:pageopacity="0.0"
     inkscape:pagecheckerboard="0"
     inkscape:deskcolor="#d1d1d1"
     inkscape:document-units="px"
     inkscape:zoom="0.23856604"
     inkscape:cx="-8.3834229"
     inkscape:cy="-261.98197"
     inkscape:window-width="1920"
     inkscape:window-height="974"
     inkscape:window-x="-11"
     inkscape:window-y="-11"
     inkscape:window-maximized="1"
     inkscape:current-layer="svg1"
     inkscape:export-bgcolor="#ffffff00" /><defs
     id="defs1"><inkscape:path-effect
       effect="bend_path"
       id="path-effect314"
       is_visible="true"
       lpeversion="1"
       bendpath="m 213.04315,447.5605 c 0,0 1.48939,-7.28147 7.77793,-10.42574 6.28855,-3.14427 16.5488,-2.97879 21.51344,-1.15842 4.96464,1.82037 21.67893,21.67893 15.55587,32.60113 -6.12305,10.92221 -14.06648,16.05234 -25.98161,16.21783 -11.91514,0.16548 -25.81613,-14.89392 -24.32673,-24.8232 1.48939,-9.92928 -1.98586,-8.77086 -1.82037,-17.37624 0.16549,-8.60537 6.61952,-16.87977 12.08062,-13.90099 5.4611,2.97879 4.79915,7.28147 4.79915,7.28147"
       prop_scale="0.40091053"
       scale_y_rel="false"
       vertical="false"
       hide_knot="false" /><inkscape:path-effect
       effect="bend_path"
       id="path-effect313"
       is_visible="true"
       lpeversion="1"
       bendpath="m 221.91138,495.4483 c 0,0 -9.24439,-2.6914 -13.10598,-5.61684 -3.86158,-2.92545 -20.59511,-26.68003 -16.73352,-29.72249 3.86158,-3.04246 17.55265,-3.39352 17.55265,-3.39352"
       prop_scale="0.4008774"
       scale_y_rel="false"
       vertical="false"
       hide_knot="false" /><inkscape:path-effect
       effect="bend_path"
       id="path-effect312"
       is_visible="true"
       lpeversion="1"
       bendpath="m 227.41121,485.73584 c -0.7021,0.7021 -8.77632,7.72316 -8.77632,7.72316"
       prop_scale="0.36718859"
       scale_y_rel="false"
       vertical="false"
       hide_knot="false" /><inkscape:path-effect
       effect="bend_path"
       id="path-effect310"
       is_visible="true"
       lpeversion="1"
       bendpath="m 192.07188,464.08757 c 0,0 -5.73387,3.27649 -7.84019,4.32965 -2.10632,1.05316 -5.9679,4.21264 -5.9679,4.21264"
       prop_scale="0.36212082"
       scale_y_rel="false"
       vertical="false"
       hide_knot="false" /><inkscape:path-effect
       effect="bend_path"
       id="path-effect309"
       is_visible="true"
       lpeversion="1"
       bendpath="m 154.09964,483.92206 c 0,0 2.74992,1.34571 4.38816,1.81378 1.63825,0.46807 4.73922,1.11167 4.73922,1.11167"
       prop_scale="0.31610977"
       scale_y_rel="false"
       vertical="false"
       hide_knot="false" /><inkscape:path-effect
       effect="bend_path"
       id="path-effect308"
       is_visible="true"
       lpeversion="1"
       bendpath="m 217.51132,493.0697 c 0,0 -32.9321,12.90806 -36.90382,11.58415 -3.97171,-1.3239 -15.88684,-16.38331 -19.1966,-21.34795 -3.30976,-4.96463 -7.61245,-7.28147 -7.61245,-7.28147"
       prop_scale="0.38531371"
       scale_y_rel="false"
       vertical="false"
       hide_knot="false" /><inkscape:path-effect
       effect="bend_path"
       id="path-effect303"
       is_visible="true"
       lpeversion="1"
       bendpath="m 135.66936,455.6623 c 0,0.7021 -2.92544,18.72282 -5.03176,30.77564 -2.10632,12.05282 -3.62755,39.55198 -3.86159,43.53058 -0.23403,3.9786 0.93615,8.30825 0.93615,8.30825"
       prop_scale="0.19995881"
       scale_y_rel="false"
       vertical="false"
       hide_knot="false" /><inkscape:path-effect
       effect="bend_path"
       id="path-effect299"
       is_visible="true"
       lpeversion="1"
       bendpath="m 159.42504,456.08313 c 0,0 4.05446,-8.02616 1.32391,-10.01202 -2.73055,-1.98586 -16.79703,-3.64074 -25.07143,-3.64074 -8.2744,0 -13.65276,2.39958 -14.39746,5.29562 -0.74469,2.89604 0.41372,6.45403 0.41372,6.45403 0,0 6.45404,0.41372 15.80411,0.49646 9.35007,0.0828 24.6577,3.39251 24.6577,3.39251"
       prop_scale="0.3596349"
       scale_y_rel="false"
       vertical="false"
       hide_knot="false" /><inkscape:path-effect
       effect="bend_path"
       id="path-effect293"
       is_visible="true"
       lpeversion="1"
       bendpath="m 128.3133,326.34056 c 0,0 2.23409,4.30268 -3.22701,4.96464 -5.46111,0.66195 -7.36422,0.82744 -9.92928,-3.22702 -2.56507,-4.05446 -1.57214,-9.76379 5.29561,-8.10891 6.86776,1.65488 7.86068,6.37129 7.86068,6.37129 z"
       prop_scale="0.3596349"
       scale_y_rel="false"
       vertical="false"
       hide_knot="false" /><inkscape:path-effect
       effect="bend_path"
       id="path-effect292"
       is_visible="true"
       lpeversion="1"
       bendpath="m 151.8126,330.5605 c 0,0 -11.91514,1.98586 -21.67893,-3.64074 -9.76379,-5.62659 -16.71428,-18.86563 -16.71428,-18.86563"
       prop_scale="0.3596349"
       scale_y_rel="false"
       vertical="false"
       hide_knot="false" /><inkscape:path-effect
       effect="bend_path"
       id="path-effect291"
       is_visible="true"
       lpeversion="1"
       bendpath="m 133.11245,310.70194 c 0,0 -0.16548,3.80623 5.79208,11.41867 5.95757,7.61245 6.61952,7.11599 6.61952,7.11599"
       prop_scale="0.3596349"
       scale_y_rel="false"
       vertical="false"
       hide_knot="false" /><inkscape:path-effect
       effect="bend_path"
       id="path-effect287"
       is_visible="true"
       lpeversion="1"
       bendpath="m 217.34584,376.89713 c 3.30976,1.82037 6.45403,4.46818 18.70014,7.28148 12.24611,2.81329 16.5488,0.33097 16.5488,0.33097"
       prop_scale="0.3596349"
       scale_y_rel="false"
       vertical="false"
       hide_knot="false" /><inkscape:path-effect
       effect="bend_path"
       id="path-effect286"
       is_visible="true"
       lpeversion="1"
       bendpath="m 225.62024,364.48554 c 0,0 12.74257,5.29561 18.03818,9.5983 5.29562,4.30269 11.41868,13.40452 11.41868,13.40452"
       prop_scale="0.3596349"
       scale_y_rel="false"
       vertical="false"
       hide_knot="false" /><inkscape:path-effect
       effect="bend_path"
       id="path-effect283"
       is_visible="true"
       lpeversion="1"
       bendpath="m 181.60043,349.92259 c 0,0 -1.65488,-26.80905 -8.43988,-27.80198 -6.78501,-0.99293 -39.71712,-8.60537 -39.71712,-8.60537"
       prop_scale="0.3596349"
       scale_y_rel="false"
       vertical="false"
       hide_knot="false" /><inkscape:path-effect
       effect="bend_path"
       id="path-effect282"
       is_visible="true"
       lpeversion="1"
       bendpath="m 90.50054,331.97462 c 0,0 0.46807,-8.19124 1.87228,-14.15914 1.40421,-5.9679 0.7021,-7.84019 4.21264,-7.48913 3.51053,0.35105 19.30791,0.93614 19.30791,0.93614"
       prop_scale="0.3596349"
       scale_y_rel="false"
       vertical="false"
       hide_knot="false" /><inkscape:path-effect
       effect="bend_path"
       id="path-effect281"
       is_visible="true"
       lpeversion="1"
       bendpath="m 184.23169,349.87832 c -2.57439,0.70211 -11.23369,2.10632 -19.893,5.38281 -8.65931,3.2765 -7.72317,7.02106 -18.02072,6.31896 -10.29756,-0.70211 -16.14844,-6.31896 -38.14777,-10.29756 -21.99932,-3.9786 -43.53057,1.40421 -41.19022,-2.57439 2.34036,-3.9786 7.2551,-11.9358 13.10598,-14.74422 5.85089,-2.80843 11.70177,-4.44668 11.70177,-4.44668"
       prop_scale="0.3596349"
       scale_y_rel="false"
       vertical="false"
       hide_knot="false" /><inkscape:path-effect
       effect="bend_path"
       id="path-effect280"
       is_visible="true"
       lpeversion="1"
       bendpath="m 181.18923,350.58043 c 0,0 6.78703,0 14.97826,5.85088 8.19124,5.85088 23.40354,3.27649 28.08425,0.93614 4.6807,-2.34035 4.91474,-2.57439 4.91474,-2.57439"
       prop_scale="0.3596349"
       scale_y_rel="false"
       vertical="false"
       hide_knot="false" /><inkscape:path-effect
       effect="bend_path"
       id="path-effect279"
       is_visible="true"
       lpeversion="1"
       bendpath="m 229.16648,354.09096 c 0,0 -2.57439,21.99932 -19.65897,26.21195 -17.08458,4.21264 -26.91407,-3.9786 -32.76495,-9.12737 -5.85088,-5.14878 -15.68037,-15.2123 -15.68037,-15.2123"
       prop_scale="0.3596349"
       scale_y_rel="false"
       vertical="false"
       hide_knot="false" /><inkscape:path-effect
       effect="fillet_chamfer"
       id="path-effect273"
       is_visible="true"
       lpeversion="1"
       nodesatellites_param="F,0,0,1,0,0,0,1 @ F,0,0,1,0,0,0,1 @ F,0,0,1,0,0,0,1 @ F,0,0,1,0,2.561033,0,1 @ F,0,0,1,0,0,0,1 @ F,0,0,1,0,1.6019007,0,1 @ F,0,0,1,0,0,0,1 @ F,0,0,1,0,0,0,1 @ F,0,0,1,0,0,0,1 @ F,0,0,1,0,2.5919,0,1 @ F,0,0,1,0,4.0662773,0,1 @ F,0,0,1,0,0,0,1 @ F,0,0,1,0,0.8735339,0,1 @ F,0,0,1,0,1.119926,0,1 @ F,0,0,1,0,1.7642207,0,1 @ F,0,0,1,0,2.0653363,0,1 @ F,0,0,1,0,0,0,1"
       radius="0"
       unit="px"
       method="auto"
       mode="F"
       chamfer_steps="1"
       flexible="false"
       use_knot_distance="true"
       apply_no_radius="true"
       apply_with_radius="true"
       only_selected="false"
       hide_knots="false" /><inkscape:path-effect
       effect="fillet_chamfer"
       id="path-effect272"
       is_visible="true"
       lpeversion="1"
       nodesatellites_param="F,0,0,1,0,0,0,1 @ F,0,0,1,0,0,0,1 @ F,0,0,1,0,0,0,1 @ F,0,0,1,0,3.8536212,0,1 @ F,0,0,1,0,0,0,1 @ F,0,0,1,0,1.8992995,0,1 @ F,0,0,1,0,0,0,1 @ F,0,0,1,0,0,0,1 @ F,0,0,1,0,0,0,1 @ F,0,0,1,0,1.94587,0,1 @ F,0,0,1,0,4.5164434,0,1 @ F,0,0,1,0,0,0,1 @ F,0,0,1,0,1.7892474,0,1 @ F,0,0,1,0,1.7000173,0,1 @ F,0,0,1,0,1.5047097,0,1 @ F,0,0,1,0,2.943574,0,1 @ F,0,0,1,0,0,0,1 @ F,0,0,1,0,0,0,1"
       radius="0"
       unit="px"
       method="auto"
       mode="F"
       chamfer_steps="1"
       flexible="false"
       use_knot_distance="true"
       apply_no_radius="true"
       apply_with_radius="true"
       only_selected="false"
       hide_knots="false" /><inkscape:path-effect
       effect="bend_path"
       id="path-effect267"
       is_visible="true"
       lpeversion="1"
       bendpath="m 201.90136,373.16484 c 0,0 17.43563,-8.65931 24.69073,3.04246 7.25509,11.70176 5.61685,23.75458 -3.51053,27.96722 -9.12738,4.21264 -24.80775,1.75526 -24.80775,1.75526"
       prop_scale="0.3596349"
       scale_y_rel="false"
       vertical="false"
       hide_knot="false" /><inkscape:path-effect
       effect="bend_path"
       id="path-effect266"
       is_visible="true"
       lpeversion="1"
       bendpath="m 78.21368,386.1538 c 0,0 -11.2337,-7.37212 -5.9679,-17.90371 5.26579,-10.53159 11.9358,-9.71246 11.9358,-9.71246"
       prop_scale="0.3596349"
       scale_y_rel="false"
       vertical="false"
       hide_knot="false" /><inkscape:path-effect
       effect="bend_path"
       id="path-effect256"
       is_visible="true"
       lpeversion="1"
       bendpath="m 229.40051,388.26012 c 0,0 12.87195,8.42527 3.51053,16.85054 -9.36141,8.42527 -14.51019,7.48913 -15.68036,7.48913 -1.17018,0 -4.44668,-4.91474 -4.44668,-4.91474"
       prop_scale="0.3596349"
       scale_y_rel="false"
       vertical="false"
       hide_knot="false" /><inkscape:path-effect
       effect="bend_path"
       id="path-effect251"
       is_visible="true"
       lpeversion="1"
       bendpath="m 57.81542,395.10081 c 0,0 5.79208,-1.65488 10.92221,3.30976 5.13013,4.96464 7.61245,17.21075 4.1372,22.0099 -3.47525,4.79915 7.44696,10.26026 -19.52758,12.57709 -26.97454,2.31683 -31.44272,-25.98161 -25.98161,-34.75248 5.4611,-8.77086 22.34087,-10.75672 28.46393,-4.30268 6.12305,6.45403 10.09476,15.39038 10.09476,15.39038"
       prop_scale="0.44925168"
       scale_y_rel="false"
       vertical="false"
       hide_knot="false" /><inkscape:path-effect
       effect="bend_path"
       id="path-effect250"
       is_visible="true"
       lpeversion="1"
       bendpath="m 46.61891,433.77999 c 0,0 14.15914,14.27616 18.48879,14.39317 4.32966,0.11702 15.32932,-2.57438 18.02072,-10.18053 2.69141,-7.60615 -1.05316,-7.9572 -4.6807,-13.92511 -3.62755,-5.9679 -6.55299,-9.59545 -6.55299,-9.59545"
       prop_scale="0.44274013"
       scale_y_rel="false"
       vertical="false"
       hide_knot="false" /><inkscape:path-effect
       effect="bend_path"
       id="path-effect247"
       is_visible="true"
       lpeversion="1"
       bendpath="m 107.93617,479.29987 c 0,0 -24.10564,-17.31862 -30.4246,-23.1695 -6.31895,-5.85089 -13.34001,-10.76563 -13.34001,-10.76563"
       prop_scale="0.42645104"
       scale_y_rel="false"
       vertical="false"
       hide_knot="false" /><inkscape:path-effect
       effect="bend_path"
       id="path-effect246"
       is_visible="true"
       lpeversion="1"
       bendpath="m 119.63794,456.59844 c 0,0 -20.59511,-14.27616 -26.68003,-18.4888 -6.08492,-4.21263 -10.99966,-7.48913 -10.99966,-7.48913"
       prop_scale="0.4850646"
       scale_y_rel="false"
       vertical="false"
       hide_knot="false" /><inkscape:path-effect
       effect="bend_path"
       id="path-effect230"
       is_visible="true"
       lpeversion="1"
       bendpath="m 206.58207,577.12664 c -0.35106,-1.28719 -12.63791,-5.9679 -6.43597,-16.61651 6.20193,-10.64861 12.52089,-16.38247 16.38247,-11.58475 3.86158,4.79773 2.10632,16.49949 2.10632,16.49949"
       prop_scale="0.35304558"
       scale_y_rel="false"
       vertical="false"
       hide_knot="false" /><inkscape:path-effect
       effect="bend_path"
       id="path-effect229"
       is_visible="true"
       lpeversion="1"
       bendpath="m 229.16648,546.23397 c 0,0 -4.44667,-0.7021 -12.16984,8.19124 -7.72317,8.89334 -5.85088,10.29756 -12.40387,13.57405 -6.55299,3.2765 -19.1909,6.55299 -19.1909,17.31862 0,10.76562 21.53125,26.91406 21.53125,26.91406"
       prop_scale="0.35304558"
       scale_y_rel="false"
       vertical="false"
       hide_knot="false" /><inkscape:path-effect
       effect="bend_path"
       id="path-effect228"
       is_visible="true"
       lpeversion="1"
       bendpath="m 226.12402,564.13768 c 0,0 3.51053,-3.15948 3.74456,-8.54229 0.23404,-5.38282 -7.25509,-9.9465 8.07422,-11.35072 15.32932,-1.40421 20.4781,15.91441 18.37178,23.87161 -2.10632,7.9572 -11.2337,31.36073 -20.36108,37.44565 -9.12738,6.08492 -28.66933,14.74423 -29.8395,1.9893 -1.17018,-12.75492 3.9786,-20.47809 9.82948,-27.96722 5.85088,-7.48913 10.18054,-15.44633 10.18054,-15.44633 z"
       prop_scale="0.35304558"
       scale_y_rel="false"
       vertical="false"
       hide_knot="false" /><inkscape:path-effect
       effect="bend_path"
       id="path-effect167"
       is_visible="true"
       lpeversion="1"
       bendpath="m 104.81401,570.51807 c 0,0 -12.57709,4.30269 -18.70014,4.79915 -6.12306,0.49647 -8.60538,0.66195 -8.60538,0.66195"
       prop_scale="0.35304558"
       scale_y_rel="false"
       vertical="false"
       hide_knot="false" /><inkscape:path-effect
       effect="bend_path"
       id="path-effect153"
       is_visible="true"
       lpeversion="1"
       bendpath="m 186.73056,585.08101 c 0,0 -6.9505,-2.97878 -9.5983,-6.12305 -2.64781,-3.14427 -3.80623,-3.97171 -3.80623,-3.97171"
       prop_scale="0.35304558"
       scale_y_rel="false"
       vertical="false"
       hide_knot="false" /><inkscape:path-effect
       effect="bend_path"
       id="path-effect107"
       is_visible="true"
       lpeversion="1"
       bendpath="m 77.97965,545.64889 c 0,0 11.23369,1.05315 16.49949,7.84018 5.26579,6.78702 6.55299,18.83984 16.73352,18.02072 10.18054,-0.81912 17.90371,-9.36141 17.90371,-9.36141"
       prop_scale="0.35304558"
       scale_y_rel="false"
       vertical="false"
       hide_knot="false" /><inkscape:path-effect
       effect="bend_path"
       id="path-effect103"
       is_visible="true"
       lpeversion="1"
       bendpath="m 104.07459,538.62783 c 0,0 -0.70211,2.6914 -5.49983,4.21263 -4.79773,1.52123 -12.5209,-1.52123 -16.38248,0.58509 -3.86158,2.10632 -3.39351,3.27649 -3.39351,3.27649"
       prop_scale="0.35304558"
       scale_y_rel="false"
       vertical="false"
       hide_knot="false" /><inkscape:path-effect
       effect="bend_path"
       id="path-effect90"
       is_visible="true"
       lpeversion="1"
       bendpath="m 141.71783,563.65032 c 0,0 -2.15134,0.74469 -9.10184,-0.49646 -6.95049,-1.24116 -11.74965,-6.28855 -11.74965,-6.28855"
       prop_scale="0.35304558"
       scale_y_rel="false"
       vertical="false"
       hide_knot="false" /><inkscape:path-effect
       effect="bend_path"
       id="path-effect77"
       is_visible="true"
       lpeversion="1"
       bendpath="m 216.02193,552.47988 c 0,0 -8.93635,-9.76379 -18.53465,2.64781 -9.5983,12.4116 -21.18246,21.18246 -29.29137,21.18246 -8.10891,0 -30.61528,-13.57002 -30.61528,-13.57002"
       prop_scale="0.35304558"
       scale_y_rel="false"
       vertical="false"
       hide_knot="false" /><inkscape:path-effect
       effect="bend_path"
       id="path-effect19"
       is_visible="true"
       lpeversion="1"
       bendpath="m 216.64559,555.59539 c 0,0 -0.23404,-8.65931 -9.71247,-9.12738 -9.47843,-0.46807 -30.54161,-12.28686 -30.54161,-12.28686"
       prop_scale="0.35304558"
       scale_y_rel="false"
       vertical="false"
       hide_knot="false" /><inkscape:path-effect
       effect="fillet_chamfer"
       id="path-effect18"
       is_visible="true"
       lpeversion="1"
       nodesatellites_param="F,0,0,1,0,3.0689045,0,1 @ F,0,0,1,0,5.5051052,0,1 @ F,0,0,1,0,5.3189773,0,1"
       radius="0"
       unit="px"
       method="auto"
       mode="F"
       chamfer_steps="1"
       flexible="false"
       use_knot_distance="true"
       apply_no_radius="true"
       apply_with_radius="true"
       only_selected="false"
       hide_knots="false" /><inkscape:path-effect
       effect="fillet_chamfer"
       id="path-effect184"
       is_visible="true"
       lpeversion="1"
       nodesatellites_param="F,0,0,1,0,0,0,1 @ F,0,0,1,0,0,0,1 @ F,0,0,1,0,0,0,1 @ F,0,0,1,0,2.2589084,0,1 @ F,0,0,1,0,0,0,1 @ F,0,0,1,0,5.5447915,0,1 @ F,0,0,1,0,0,0,1 @ F,0,0,1,0,7.1246435,0,1 @ F,0,0,1,0,0,0,1 @ F,0,0,1,0,5.9491992,0,1 @ F,0,0,1,0,0,0,1 @ F,0,0,1,0,4.0005736,0,1 @ F,0,0,1,0,0,0,1 @ F,0,0,1,0,0,0,1 @ F,0,0,1,0,0,0,1 @ F,0,0,1,0,9.4934716,0,1 @ F,0,0,1,0,6.1566954,0,1 @ F,0,0,1,0,0,0,1 @ F,0,0,1,0,0,0,1 @ F,0,0,1,0,0,0,1"
       radius="0"
       unit="px"
       method="auto"
       mode="F"
       chamfer_steps="1"
       flexible="false"
       use_knot_distance="true"
       apply_no_radius="true"
       apply_with_radius="true"
       only_selected="false"
       hide_knots="false" /><inkscape:path-effect
       effect="fillet_chamfer"
       id="path-effect165"
       is_visible="true"
       lpeversion="1"
       nodesatellites_param="F,0,0,1,0,7.0475839,0,1 @ F,0,0,1,0,10.537741,0,1 @ F,0,0,1,0,3.1764537,0,1 @ F,0,0,1,0,9.9910789,0,1"
       radius="0"
       unit="px"
       method="auto"
       mode="F"
       chamfer_steps="1"
       flexible="false"
       use_knot_distance="true"
       apply_no_radius="true"
       apply_with_radius="true"
       only_selected="false"
       hide_knots="false" /><inkscape:path-effect
       effect="fillet_chamfer"
       id="path-effect164"
       is_visible="true"
       lpeversion="1"
       nodesatellites_param="F,0,0,1,0,10.003501,0,1 @ F,0,0,1,0,9.1455583,0,1 @ F,0,0,1,0,8.109225,0,1 @ F,0,0,1,0,0,0,1 @ F,0,0,1,0,0,0,1 @ F,0,0,1,0,0,0,1"
       radius="0"
       unit="px"
       method="auto"
       mode="F"
       chamfer_steps="1"
       flexible="false"
       use_knot_distance="true"
       apply_no_radius="true"
       apply_with_radius="true"
       only_selected="false"
       hide_knots="false" /><inkscape:path-effect
       effect="fillet_chamfer"
       id="path-effect163"
       is_visible="true"
       lpeversion="1"
       nodesatellites_param="F,0,0,1,0,19.57286,0,1 @ F,0,0,1,0,4.5976976,0,1 @ F,0,1,1,0,4.5976976,0,1 @ F,0,0,1,0,9.8760266,0,1"
       radius="0"
       unit="px"
       method="auto"
       mode="F"
       chamfer_steps="1"
       flexible="false"
       use_knot_distance="true"
       apply_no_radius="true"
       apply_with_radius="true"
       only_selected="false"
       hide_knots="false" /><inkscape:path-effect
       effect="fillet_chamfer"
       id="path-effect160"
       is_visible="true"
       lpeversion="1"
       nodesatellites_param="F,0,0,1,0,10.79455,0,1 @ F,0,0,1,0,18.687216,0,1 @ F,0,0,1,0,8.7457178,0,1 @ F,0,0,1,0,22.87662,0,1"
       radius="0"
       unit="px"
       method="auto"
       mode="F"
       chamfer_steps="1"
       flexible="false"
       use_knot_distance="true"
       apply_no_radius="true"
       apply_with_radius="true"
       only_selected="false"
       hide_knots="false" /><linearGradient
       id="linearGradient149"
       inkscape:collect="always"><stop
         style="stop-color:#f20000;stop-opacity:1;"
         offset="0"
         id="stop149" /><stop
         style="stop-color:#f67600;stop-opacity:1;"
         offset="1"
         id="stop150" /></linearGradient><linearGradient
       id="linearGradient147"
       inkscape:collect="always"><stop
         style="stop-color:#f20000;stop-opacity:1;"
         offset="0"
         id="stop147" /><stop
         style="stop-color:#f67600;stop-opacity:1;"
         offset="1"
         id="stop148" /></linearGradient><inkscape:path-effect
       effect="fillet_chamfer"
       id="path-effect100"
       is_visible="true"
       lpeversion="1"
       nodesatellites_param="F,0,0,1,0,0,0,1 @ F,0,0,1,0,20.099734,0,1 @ F,0,0,1,0,3.7566214,0,1 @ F,0,0,1,0,12.83816,0,1"
       radius="0"
       unit="px"
       method="auto"
       mode="F"
       chamfer_steps="1"
       flexible="false"
       use_knot_distance="true"
       apply_no_radius="true"
       apply_with_radius="true"
       only_selected="false"
       hide_knots="false" /><inkscape:path-effect
       effect="fillet_chamfer"
       id="path-effect98"
       is_visible="true"
       lpeversion="1"
       nodesatellites_param="F,0,0,1,0,0,0,1 @ F,0,0,1,0,0,0,1 @ F,0,0,1,0,0,0,1 @ F,0,0,1,0,0,0,1 @ F,0,0,1,0,0,0,1 @ F,0,0,1,0,0,0,1 @ F,0,0,1,0,0,0,1 @ F,0,0,1,0,0,0,1 @ F,0,0,1,0,0,0,1 @ F,0,0,1,0,0,0,1 @ F,0,0,1,0,0,0,1 @ F,0,0,1,0,0,0,1 @ F,0,0,1,0,0,0,1 @ F,0,0,1,0,5.2962033,0,1 @ F,0,0,1,0,0,0,1 @ F,0,0,1,0,0,0,1 | F,0,0,1,0,0,0,1 @ F,0,0,1,0,0,0,1 @ F,0,0,1,0,0,0,1 @ F,0,0,1,0,0,0,1 @ F,0,0,1,0,0,0,1 @ F,0,0,1,0,0,0,1 @ F,0,0,1,0,0,0,1"
       radius="0"
       unit="px"
       method="auto"
       mode="F"
       chamfer_steps="1"
       flexible="false"
       use_knot_distance="true"
       apply_no_radius="true"
       apply_with_radius="true"
       only_selected="false"
       hide_knots="false" /><inkscape:path-effect
       effect="bend_path"
       id="path-effect74"
       is_visible="true"
       lpeversion="1"
       bendpath="m 127,64.375001 c 0,0 1.875,1.4375 2.8125,4.3125 0.9375,2.875 0.4375,4.125 1.375,4.75 0.9375,0.625 8.5,4 4.3125,5 -4.1875,1 -12.625,-1.3125 -15.125,-3.125 -2.5,-1.8125 -2.5625,-6.875 -1.25,-8.875 1.3125,-2 2.625,-2.1875 2.625,-2.1875"
       prop_scale="0.32916285"
       scale_y_rel="false"
       vertical="false"
       hide_knot="false" /><inkscape:path-effect
       effect="bend_path"
       id="path-effect72"
       is_visible="true"
       lpeversion="1"
       bendpath="m 119.54524,47.464543 c 0,0 4.41942,-1.856155 3.35876,-4.817165 -1.06066,-2.961009 -3.44715,-3.137786 -5.39169,-1.59099 -1.94454,1.546796 -2.07713,1.635184 -2.07713,1.635184"
       prop_scale="0.32916285"
       scale_y_rel="false"
       vertical="false"
       hide_knot="false" /><inkscape:path-effect
       effect="bend_path"
       id="path-effect71"
       is_visible="true"
       lpeversion="1"
       bendpath="m 114.75,44.5625 c 0,0 2.75,-2.4375 0.125,-3.9375 -2.625,-1.5 -4,-0.25 -5.0625,1.5625 -1.0625,1.8125 -1.3125,2.375 -0.6875,3.625 0.625,1.25 2.0625,3.4375 2.0625,3.4375"
       prop_scale="0.32916285"
       scale_y_rel="false"
       vertical="false"
       hide_knot="false" /><inkscape:path-effect
       effect="bend_path"
       id="path-effect69"
       is_visible="true"
       lpeversion="1"
       bendpath="m 117.1875,51.437501 c 0,0 6.625,-0.125 6.3125,-2.125001 -0.3125,-2 -3.125,-2.1875 -3.125,-2.1875"
       prop_scale="0.32916285"
       scale_y_rel="false"
       vertical="false"
       hide_knot="false" /><inkscape:path-effect
       effect="bend_path"
       id="path-effect68"
       is_visible="true"
       lpeversion="1"
       bendpath="m 113.40225,50.734912 c 0,0 -0.7734,-0.331456 -2.03293,0.110486 -1.25953,0.441941 -2.40858,1.546796 -2.89472,2.740038 -0.48614,1.193243 -0.79549,2.496971 0.0442,3.204078 0.83968,0.707107 0.99436,1.082757 2.38648,1.436311 1.39212,0.353553 2.93891,0.198873 3.97748,-0.441942 1.03856,-0.640816 2.16551,-1.436311 2.14341,-3.270369 -0.0221,-1.834058 -0.7292,-2.187612 -1.4584,-2.740039 -0.72921,-0.552427 -1.28164,-0.883883 -2.16552,-1.038563 z"
       prop_scale="0.32916285"
       scale_y_rel="false"
       vertical="false"
       hide_knot="false" /><inkscape:path-effect
       effect="bend_path"
       id="path-effect67"
       is_visible="true"
       lpeversion="1"
       bendpath="m 113,78.343751 c -0.1875,0 -3.28125,0.625 -0.875,-2.4375 2.40625,-3.0625 6.21875,-4.40625 6.21875,-4.40625"
       prop_scale="0.32916285"
       scale_y_rel="false"
       vertical="false"
       hide_knot="false" /><inkscape:path-effect
       effect="bend_path"
       id="path-effect65"
       is_visible="true"
       lpeversion="1"
       bendpath="m 114.5,76.125001 c 0,0 -1.71875,0.5 -1.09375,2.6875 0.625,2.1875 2.875,4.375 3.75,1.4375 0.875,-2.9375 3.90625,-7.1875 3.90625,-7.1875"
       prop_scale="0.32916285"
       scale_y_rel="false"
       vertical="false"
       hide_knot="false" /><inkscape:path-effect
       effect="bend_path"
       id="path-effect59"
       is_visible="true"
       lpeversion="1"
       bendpath="m 98.437501,61.812501 c 0,0 2.156249,-1.3125 3.499999,-1.0625 1.34375,0.25 2.5,1.0625 3.90625,0.65625 1.40625,-0.40625 1.6875,-1.15625 1.6875,-1.15625"
       prop_scale="0.32916285"
       scale_y_rel="false"
       vertical="false"
       hide_knot="false" /><inkscape:path-effect
       effect="bend_path"
       id="path-effect57"
       is_visible="true"
       lpeversion="1"
       bendpath="m 123.125,64.062501 c -0.25,-0.3125 -2.0625,-1.375 -2.625,-3.75 -0.5625,-2.375 -2.1875,-9.5625 -4.625,-11.062501 -2.4375,-1.5 -6.375,-2.375 -8.25,0.125 -1.875,2.500001 -4.5,11.562501 -3,16.062501 1.5,4.5 2.375,6.875 2.375,6.875"
       prop_scale="0.32916285"
       scale_y_rel="false"
       vertical="false"
       hide_knot="false" /><inkscape:path-effect
       effect="bend_path"
       id="path-effect54"
       is_visible="true"
       lpeversion="1"
       bendpath="m 109.15961,69.694213 c 0,0 -5.03814,0.662912 -4.90555,4.419417 0.13258,3.756505 1.4584,4.905554 5.12652,5.61266 3.66812,0.707107 3.66812,0.707107 3.66812,0.707107"
       prop_scale="0.32916285"
       scale_y_rel="false"
       vertical="false"
       hide_knot="false" /><inkscape:path-effect
       effect="bend_path"
       id="path-effect52"
       is_visible="true"
       lpeversion="1"
       bendpath="m 99.215921,75.085902 c 0,0 -0.839689,-7.292039 -2.916815,-5.61266 -2.077126,1.679379 -2.121321,1.723573 -1.546796,4.110058 0.574524,2.386486 2.740038,3.358757 3.933281,5.656854 1.193243,2.298098 2.740039,2.342292 3.005209,1.281632 0.26516,-1.060661 0.30935,-2.165515 0.30935,-2.165515"
       prop_scale="0.32916285"
       scale_y_rel="false"
       vertical="false"
       hide_knot="false" /><inkscape:path-effect
       effect="bend_path"
       id="path-effect51"
       is_visible="true"
       lpeversion="1"
       bendpath="m 102.08854,76.455922 c -0.26516,-0.397748 0.0442,-2.651651 0.57453,-4.596195 0.53033,-1.944543 -1.81196,-4.861359 -2.60746,-2.65165 -0.795495,2.209709 -0.972271,5.61266 -0.972271,5.61266"
       prop_scale="0.32916285"
       scale_y_rel="false"
       vertical="false"
       hide_knot="false" /><inkscape:path-effect
       effect="bend_path"
       id="path-effect50"
       is_visible="true"
       lpeversion="1"
       bendpath="m 105.88924,78.974989 c 0,0 -0.92808,0 -2.51907,0.220971 -1.59099,0.220971 -2.03293,0.353554 -2.03293,0.353554"
       prop_scale="0.32916285"
       scale_y_rel="false"
       vertical="false"
       hide_knot="false" /><inkscape:path-effect
       effect="bend_path"
       id="path-effect49"
       is_visible="true"
       lpeversion="1"
       bendpath="m 104.91697,74.95332 c 0,0 -1.28163,0.397747 -1.90035,0.53033 -0.61872,0.132582 -1.06066,0.53033 -1.06066,0.53033"
       prop_scale="0.32916285"
       scale_y_rel="false"
       vertical="false"
       hide_knot="false" /><inkscape:path-effect
       effect="bend_path"
       id="path-effect48"
       is_visible="true"
       lpeversion="1"
       bendpath="m 110.375,74.687501 c 0,0 -1.6875,1.875 2.3125,1.0625 4,-0.8125 6.9375,-2.3125 6.9375,-2.3125"
       prop_scale="0.32916285"
       scale_y_rel="false"
       vertical="false"
       hide_knot="false" /><inkscape:path-effect
       effect="bend_path"
       id="path-effect47"
       is_visible="true"
       lpeversion="1"
       bendpath="m 116.125,63.937501 c 0,0 -7.5,0.1875 -10.5625,6.6875 -3.0625,6.5 1.5,5.4375 4.875,3.5 3.375,-1.9375 5.375,-4.8125 5.375,-4.8125"
       prop_scale="0.32916285"
       scale_y_rel="false"
       vertical="false"
       hide_knot="false" /><inkscape:path-effect
       effect="bend_path"
       id="path-effect44"
       is_visible="true"
       lpeversion="1"
       bendpath="m 129.9375,72.406251 c 0,0 5.84375,1.5625 10.53125,0.28125 4.6875,-1.28125 8,-4.5 7.25,-6.15625 -0.75,-1.65625 -2.78125,-1.8125 -2.78125,-1.8125"
       prop_scale="0.32916285"
       scale_y_rel="false"
       vertical="false"
       hide_knot="false" /><inkscape:path-effect
       effect="bend_path"
       id="path-effect43"
       is_visible="true"
       lpeversion="1"
       bendpath="m 140.49328,58.557281 c 0,0 2.47487,0.132582 4.06586,-2.474874 1.59099,-2.607456 2.60746,-5.259107 2.60746,-5.259107"
       prop_scale="0.32916285"
       scale_y_rel="false"
       vertical="false"
       hide_knot="false" /><inkscape:path-effect
       effect="bend_path"
       id="path-effect38"
       is_visible="true"
       lpeversion="1"
       bendpath="m 142.04008,65.584155 c 0.26516,-0.132583 7.91075,-5.08233 5.48007,-7.689787 -2.43068,-2.607456 -6.23137,0.30936 -6.23137,0.30936"
       prop_scale="0.32916285"
       scale_y_rel="false"
       vertical="false"
       hide_knot="false" /><inkscape:path-effect
       effect="bend_path"
       id="path-effect17"
       is_visible="true"
       lpeversion="1"
       bendpath="m 129.48893,64.877048 c 0,0 1.5026,-10.429825 9.28078,-14.849243 7.77817,-4.419417 11.49048,-2.916815 10.16466,-0.972272 -1.32583,1.944544 -1.40312,1.069468 -3.59062,1.350718 -2.1875,0.28125 -5.40625,2.59375 -5.40625,2.59375"
       prop_scale="0.32916285"
       scale_y_rel="false"
       vertical="false"
       hide_knot="false" /><inkscape:path-effect
       effect="bend_path"
       id="path-effect26"
       is_visible="true"
       lpeversion="1"
       bendpath="m 166,70.375001 c 0,0 4.6875,-6.4375 2.1875,-5.5625 -2.5,0.875 -2.375,2.375 -2.375,2.375 0,0 -1.125,-7.9375 -2.3125,-4.8125 -1.1875,3.125 0,7.9375 0,7.9375"
       prop_scale="0.32916285"
       scale_y_rel="false"
       vertical="false"
       hide_knot="false" /><inkscape:path-effect
       effect="bend_path"
       id="path-effect25"
       is_visible="true"
       lpeversion="1"
       bendpath="m 178.625,87.062501 c 0,0 5.5,-3.25 3.625,-4.125 -1.875,-0.875 -3.25,1.125 -3.25,1.125 0,0 0.6875,-5.875 -1.5,-4.625 -2.1875,1.25 -0.1875,7.6875 -0.1875,7.6875"
       prop_scale="0.32916285"
       scale_y_rel="false"
       vertical="false"
       hide_knot="false" /><inkscape:path-effect
       effect="bend_path"
       id="path-effect16"
       is_visible="true"
       lpeversion="1"
       bendpath="m 84.375001,88.125001 c 0,0 3.4375,-1.875 1.625,-3.1875 -1.8125,-1.3125 -2.4375,1.6875 -2.4375,1.6875 0,0 1.9375,-6.0625 -1.1875,-5.5625 -3.125,0.5 -0.375,7.1875 -0.375,7.1875"
       prop_scale="0.32916285"
       scale_y_rel="false"
       vertical="false"
       hide_knot="false" /><inkscape:path-effect
       effect="bend_path"
       id="path-effect36"
       is_visible="true"
       lpeversion="1"
       bendpath="m 141.02361,68.368387 c 0,0 0.0884,2.077126 2.56326,2.386485 2.47487,0.309359 4.37522,0.707107 5.70105,-2.474874 1.32582,-3.18198 2.51907,-6.098796 0.92808,-10.120465 -1.59099,-4.02167 -4.81717,-3.800699 -6.05461,-2.828427 -1.23743,0.972271 -1.90034,2.519067 -1.90034,2.519067"
       prop_scale="0.34390069"
       scale_y_rel="false"
       vertical="false"
       hide_knot="false" /><inkscape:path-effect
       effect="bend_path"
       id="path-effect32"
       is_visible="true"
       lpeversion="1"
       bendpath="m 146.54788,57.982756 c 0,0 -0.92808,0.972272 -2.12132,2.563262 -1.19324,1.59099 -1.76777,3.005204 -0.48614,5.126524 1.28163,2.121321 2.43068,1.679379 2.43068,1.679379"
       prop_scale="0.26499688"
       scale_y_rel="false"
       vertical="false"
       hide_knot="false" /><inkscape:path-effect
       effect="bend_path"
       id="path-effect15"
       is_visible="true"
       lpeversion="1"
       bendpath="m 126.92308,72.417583 c -0.16484,0.65934 -0.87912,4.340659 -1.42857,7.582417 -0.54945,3.241759 -0.16484,6.098901 -0.16484,6.098901"
       prop_scale="0.32916285"
       scale_y_rel="false"
       vertical="false"
       hide_knot="false" /><inkscape:path-effect
       effect="bend_path"
       id="path-effect14"
       is_visible="true"
       lpeversion="1"
       bendpath="m 124.72528,72.087912 c 0,0 -2.47253,6.978022 -2.08792,10.439561 0.38462,3.461538 0.6044,5.054945 0.6044,5.054945"
       prop_scale="0.38911371"
       scale_y_rel="false"
       vertical="false"
       hide_knot="false" /><inkscape:path-effect
       effect="bend_path"
       id="path-effect13"
       is_visible="true"
       lpeversion="1"
       bendpath="m 123.95604,87.252748 c 0,0 3.18682,-1.208792 5.21978,0.76923 2.03297,1.978022 1.53847,3.241759 1.53847,3.241759 0,0 -0.54945,-0.494506 -1.97803,-0.384616 -1.42857,0.10989 -4.3956,1.923077 -4.67033,-0.164835 -0.27472,-2.087912 -0.10989,-3.461538 -0.10989,-3.461538 z"
       prop_scale="0.36225862"
       scale_y_rel="false"
       vertical="false"
       hide_knot="false" /><inkscape:path-effect
       effect="bend_path"
       id="path-effect11"
       is_visible="true"
       lpeversion="1"
       bendpath="m 124.3956,86.208791 c 0,0 3.02198,-2.912087 5,-1.648351 1.97803,1.263736 2.25275,3.186813 2.25275,3.186813 0,0 -2.36264,1.758242 -4.45055,0.879121 -2.08791,-0.879121 -2.8022,-2.417583 -2.8022,-2.417583 z"
       prop_scale="0.36225862"
       scale_y_rel="false"
       vertical="false"
       hide_knot="false" /><inkscape:path-effect
       effect="bend_path"
       id="path-effect10"
       is_visible="true"
       lpeversion="1"
       bendpath="m 122.47253,85.934066 c 0,0 0.76923,-2.912088 -2.1978,-2.692307 -2.96704,0.21978 -4.83517,1.923076 -4.83517,1.923076 0,0 0.93407,2.087913 3.24176,2.197803 2.30769,0.10989 3.79121,-1.428572 3.79121,-1.428572 z"
       prop_scale="0.36225862"
       scale_y_rel="false"
       vertical="false"
       hide_knot="false" /><inkscape:path-effect
       effect="bend_path"
       id="path-effect8"
       is_visible="true"
       lpeversion="1"
       bendpath="m 115.54591,59.055072 c 0,0 -1.01015,-7.459588 -5.05076,-5.206171 -4.04061,2.253417 -4.35143,4.118314 -3.18587,4.429131 1.16556,0.310816 2.09801,-0.854745 2.09801,-0.854745 0,0 -2.56423,1.631785 1.78719,2.564234 4.35143,0.932448 4.97306,-0.07771 4.97306,-0.07771"
       prop_scale="0.36225862"
       scale_y_rel="false"
       vertical="false"
       hide_knot="false" /><inkscape:path-effect
       effect="bend_path"
       id="path-effect54-8"
       is_visible="true"
       lpeversion="1"
       bendpath="m 118.625,76.500001 c 1.375,2.3125 5.375,7.6875 9.4375,6.75 4.0625,-0.9375 5,-3.5 4.1875,-5.6875 -0.8125,-2.1875 -0.5625,-4.0625 -0.5625,-4.0625"
       prop_scale="0.32916285"
       scale_y_rel="false"
       vertical="false"
       hide_knot="false" /><inkscape:path-effect
       effect="bend_path"
       id="path-effect54-40"
       is_visible="true"
       lpeversion="1"
       bendpath="m 131.34509,78.997087 c 0,0 -0.95018,1.878252 -2.25391,2.143417 -1.30372,0.265165 -4.59619,-0.751301 -4.59619,-0.751301"
       prop_scale="0.32916285"
       scale_y_rel="false"
       vertical="false"
       hide_knot="false" /><inkscape:path-effect
       effect="bend_path"
       id="path-effect54-25"
       is_visible="true"
       lpeversion="1"
       bendpath="m 139.40625,79.625001 c 0,0 1.9375,-4.25 1.71875,-5.875 -0.21875,-1.625 -2.8125,-3.59375 -3.46875,-0.90625 -0.65625,2.6875 -0.6875,4.34375 -1.21875,6.03125 -0.53125,1.6875 -1.875,3.625 -1.875,3.625"
       prop_scale="0.32916285"
       scale_y_rel="false"
       vertical="false"
       hide_knot="false" /><inkscape:path-effect
       effect="bend_path"
       id="path-effect54-9"
       is_visible="true"
       lpeversion="1"
       bendpath="m 110.1875,49.21875 c 1.15625,-0.03125 2.65625,-0.625 4.53125,0.59375 1.875,1.21875 2.84375,2.46875 2.84375,2.46875"
       prop_scale="0.32916285"
       scale_y_rel="false"
       vertical="false"
       hide_knot="false" /><linearGradient
       inkscape:collect="always"
       xlink:href="#linearGradient147"
       id="linearGradient148"
       x1="1206.9458"
       y1="361.9884"
       x2="1236.5938"
       y2="444.59143"
       gradientUnits="userSpaceOnUse"
       gradientTransform="translate(-666.82843,226.34315)" /><linearGradient
       inkscape:collect="always"
       xlink:href="#linearGradient149"
       id="linearGradient150"
       x1="1394.1379"
       y1="443.82712"
       x2="1433.4045"
       y2="535.82715"
       gradientUnits="userSpaceOnUse"
       gradientTransform="translate(-666.82843,226.34315)" /></defs><g
     inkscape:groupmode="layer"
     id="layer70"
     inkscape:label="LogoText"
     style="display:inline"
     transform="rotate(15.210746,2241.2697,-655.57346)"
     inkscape:export-filename="logo_text.svg"
     inkscape:export-xdpi="96"
     inkscape:export-ydpi="96"><g
       inkscape:groupmode="layer"
       id="layer67"
       inkscape:label="TextSampleOld"
       style="display:none"><text
         xml:space="preserve"
         style="font-style:normal;font-variant:normal;font-weight:normal;font-stretch:normal;font-size:177.539px;line-height:1;font-family:'Book Antiqua';-inkscape-font-specification:'Book Antiqua';text-align:center;letter-spacing:0px;text-anchor:middle;opacity:0.438138;fill:#c0b59e;stroke-width:3.77953;stroke-linecap:round;stroke-linejoin:round;stroke-miterlimit:3.1;paint-order:markers stroke fill"
         x="1642.5438"
         y="381.55615"
         id="text2"
         transform="scale(0.71490834,1.3987807)"><tspan
           sodipodi:role="line"
           id="tspan2"
           x="1642.5438"
           y="381.55615"
           style="font-style:normal;font-variant:normal;font-weight:normal;font-stretch:normal;font-family:'Calisto MT';-inkscape-font-specification:'Calisto MT';fill:#000000;fill-opacity:1;stroke-width:3.77953"><tspan
             style="font-size:173.333px"
             id="tspan4">O</tspan><tspan
             style="font-size:153.333px"
             id="tspan3">RDER</tspan></tspan></text></g><g
       inkscape:groupmode="layer"
       id="g7"
       inkscape:label="TextSample"
       style="display:none"><text
         xml:space="preserve"
         style="font-style:normal;font-variant:normal;font-weight:normal;font-stretch:normal;font-size:177.539px;line-height:1;font-family:'Book Antiqua';-inkscape-font-specification:'Book Antiqua';text-align:center;letter-spacing:0px;text-anchor:middle;opacity:0.438138;fill:#c0b59e;stroke-width:3.77953;stroke-linecap:round;stroke-linejoin:round;stroke-miterlimit:3.1;paint-order:markers stroke fill"
         x="1658.3693"
         y="606.00549"
         id="text10"
         transform="scale(0.71490834,1.3987807)"
         sodipodi:insensitive="true"><tspan
           sodipodi:role="line"
           id="tspan10"
           x="1658.3693"
           y="606.00549"
           style="font-style:normal;font-variant:normal;font-weight:normal;font-stretch:normal;font-family:'Calisto MT';-inkscape-font-specification:'Calisto MT';fill:#000000;fill-opacity:1;stroke-width:3.77953"><tspan
             style="font-size:200px"
             id="tspan8">O</tspan><tspan
             style="font-size:153.333px"
             id="tspan9">RDER</tspan></tspan></text><text
         xml:space="preserve"
         style="font-style:normal;font-variant:normal;font-weight:normal;font-stretch:normal;font-size:177.539px;line-height:1;font-family:'Book Antiqua';-inkscape-font-specification:'Book Antiqua';text-align:center;letter-spacing:0px;text-anchor:middle;opacity:0.438138;fill:#c0b59e;stroke-width:3.77953;stroke-linecap:round;stroke-linejoin:round;stroke-miterlimit:3.1;paint-order:markers stroke fill"
         x="1331.0283"
         y="629.94641"
         id="text13"
         transform="matrix(0.66447817,-0.26374745,0.51604495,1.3001096,0,0)"
         sodipodi:insensitive="true"><tspan
           sodipodi:role="line"
           id="tspan13"
           x="1331.0283"
           y="629.94641"
           style="font-style:normal;font-variant:normal;font-weight:normal;font-stretch:normal;font-family:'Calisto MT';-inkscape-font-specification:'Calisto MT';fill:#000000;fill-opacity:1;stroke-width:3.77953"><tspan
             style="font-size:200px"
             id="tspan11">O</tspan><tspan
             style="font-size:153.333px"
             id="tspan12">RDER</tspan></tspan></text><text
         xml:space="preserve"
         style="font-style:normal;font-variant:normal;font-weight:normal;font-stretch:normal;font-size:131.771px;line-height:1;font-family:'Book Antiqua';-inkscape-font-specification:'Book Antiqua';text-align:center;letter-spacing:0px;text-anchor:middle;opacity:0.438138;fill:#c0b59e;stroke-width:3.77953;stroke-linecap:round;stroke-linejoin:round;stroke-miterlimit:3.1;paint-order:markers stroke fill"
         x="1588.915"
         y="738.76099"
         id="text16"
         transform="matrix(0.66447818,-0.26374745,0.51604496,1.3001096,0,0)"
         sodipodi:insensitive="true"><tspan
           sodipodi:role="line"
           id="tspan16"
           x="1588.915"
           y="738.76099"
           style="font-style:normal;font-variant:normal;font-weight:normal;font-stretch:normal;font-family:'Calisto MT';-inkscape-font-specification:'Calisto MT';fill:#000000;fill-opacity:1;stroke-width:3.77953"><tspan
             style="font-size:146.667px;stroke-width:3.77953"
             id="tspan18">U</tspan><tspan
             style="font-size:113.805px;stroke-width:3.77953"
             id="tspan17"><tspan
               style="font-size:120px"
               id="tspan20">P</tspan><tspan
               style="font-size:146.667px"
               id="tspan19">!</tspan></tspan></tspan></text></g><g
       inkscape:groupmode="layer"
       id="g97"
       inkscape:label="TextInnerOriginal"
       inkscape:export-filename="title-logo.png"
       inkscape:export-xdpi="96"
       inkscape:export-ydpi="96"
       style="display:none"><path
         id="path89"
         style="opacity:1;fill:#f20000;fill-opacity:1;stroke-width:3.77953;stroke-linecap:round;stroke-linejoin:round;stroke-miterlimit:3.1;paint-order:markers stroke fill"
         d="M 1003.375,356.61133 C 998.50159,356.40207 993.38064,357.14279 988,359 c -36.6374,12.64594 -19.94481,84.91084 -4.81836,120.5957 14.03331,33.10602 38.20166,83.55698 79.31836,64.9043 34.3868,-15.59965 23.8706,-71.13367 11.707,-101.62109 -14.6928,-36.82677 -36.7181,-84.80276 -70.832,-86.26758 z m 11.4766,58.62695 c 10.4401,-0.39952 19.3967,17.78097 25.5976,31.79883 5.1334,11.60488 10.9443,33.07473 1.2246,40.17187 -11.6218,8.48613 -21.3446,-10.60163 -27.1699,-23.17968 -6.2788,-13.55785 -14.7557,-41.41257 -4.2129,-47.41602 1.5484,-0.88168 3.0691,-1.31792 4.5606,-1.375 z" /><path
         id="path90"
         style="opacity:1;fill:#f20000;fill-opacity:1;stroke-width:3.77953;stroke-linecap:round;stroke-linejoin:round;stroke-miterlimit:3.1;paint-order:markers stroke fill"
         d="m 1108.41,351.73622 c -3.1631,0.12421 -6.1108,0.59473 -8.6684,1.28085 -8.9506,2.40102 -19.865,10.1472 -29.8108,13.12429 -7.4192,2.22076 -17.8871,3.68617 -17.8871,3.68617 0,0 1.5072,7.33966 3.7122,9.53593 1.919,1.91112 4.9289,4.12428 7.9502,6.14772 5.4823,3.6717 12.319,11.03615 14.9281,16.91733 8.9575,20.19202 28.4111,64.2745 38.7107,89.37027 1.6619,4.04941 -6.9066,6.52958 -7.9658,10.64428 -0.6637,2.57781 -4.701,8.34461 -3.6468,10.98032 -1.2219,3.0723 0.4862,8.14991 4.3836,6.39165 l 28.6466,-13.7105 c 3.9225,-1.7686 11.1474,-11.19408 9.3818,-14.95959 l -19.3728,-35.95117 31.1419,30.25708 c 5.1565,4.48653 12.5399,5.81069 19.0748,3.42095 l 12.8897,-7.02777 c 0,0 -5.2137,-12.42283 -8.1063,-15.29188 -1.1233,-1.11423 -5.4433,0.19152 -7.0665,0.49974 -1.8579,0.35276 -2.1114,-2.25786 -9.682,-8.7902 -6.5037,-5.61178 -14.0018,-13.95763 -24.8299,-24.48899 -3.8896,-3.78287 -2.4515,-6.39227 2.3827,-8.9653 4.9016,-2.60893 13.6546,-14.67182 3.3149,-44.56183 -7.9854,-23.08327 -25.7738,-29.04734 -39.4808,-28.50935 z m 5.0812,32.81606 c 3.3388,-0.10638 6.4996,0.26431 8.6738,1.55469 4.2158,2.50188 7.3847,11.85686 6.5863,16.5311 -0.7888,4.61798 -6.4208,8.88683 -11.0967,11.69478 -3.4447,2.06866 -7.7652,0.49958 -9.3739,-3.05614 l -8.2182,-18.1598 c -1.4123,-3.12143 0.2041,-6.5105 3.6912,-7.25722 2.8815,-0.61701 6.3985,-1.20101 9.7375,-1.30741 z"
         sodipodi:nodetypes="ssscsscssccccccccssssscsssssccss" /><path
         id="path91"
         style="fill:#f20000;fill-opacity:1;stroke-width:3.77953;stroke-linecap:round;stroke-linejoin:round;stroke-miterlimit:3.1;paint-order:markers stroke fill"
         d="m 1331.1258,252.69457 c -3.1631,0.12421 -6.1108,0.59473 -8.6684,1.28085 -8.9506,2.40102 -19.865,10.1472 -29.8108,13.12429 -7.4192,2.22076 -17.8871,3.68617 -17.8871,3.68617 0,0 1.5072,7.33966 3.7122,9.53593 1.919,1.91112 4.9289,4.12428 7.9502,6.14772 5.4823,3.6717 12.319,11.03615 14.9281,16.91733 8.9575,20.19202 28.4111,64.2745 38.7107,89.37027 1.6619,4.04941 -6.9066,6.52958 -7.9658,10.64428 -0.6637,2.57781 -4.701,8.34461 -3.6468,10.98032 -1.2219,3.0723 0.4862,8.14991 4.3836,6.39165 l 28.6466,-13.7105 c 3.9225,-1.7686 11.1474,-11.19408 9.3818,-14.95959 l -19.3728,-35.95117 31.1419,30.25708 c 5.1565,4.48653 12.5399,5.81069 19.0748,3.42095 l 12.8897,-7.02777 c 0,0 -5.2137,-12.42283 -8.1063,-15.29188 -1.1233,-1.11423 -5.4433,0.19152 -7.0665,0.49974 -1.8579,0.35276 -2.1114,-2.25786 -9.682,-8.7902 -6.5037,-5.61178 -14.0018,-13.95763 -24.8299,-24.48899 -3.8896,-3.78287 -2.4515,-6.39227 2.3827,-8.9653 4.9016,-2.60893 13.6546,-14.67182 3.3149,-44.56183 -7.9854,-23.08327 -25.7738,-29.04734 -39.4808,-28.50935 z m 5.0812,32.81606 c 3.3388,-0.10638 6.4996,0.26431 8.6738,1.55469 4.2158,2.50188 7.3847,11.85686 6.5863,16.5311 -0.7888,4.61798 -6.4208,8.88683 -11.0967,11.69478 -3.4447,2.06866 -7.7652,0.49958 -9.3739,-3.05614 l -8.2182,-18.1598 c -1.4123,-3.12143 0.2041,-6.5105 3.6912,-7.25722 2.8815,-0.61701 6.3985,-1.20101 9.7375,-1.30741 z"
         sodipodi:nodetypes="ssscsscssccccccccssssscsssssccss" /><path
         id="path92"
         style="fill:#f20000;fill-opacity:1;stroke-width:3.55669;stroke-linecap:round;stroke-linejoin:round;stroke-miterlimit:3.1;paint-order:markers stroke fill"
         d="m 1437.3704,411.02521 c -2.4403,0.0958 -4.7143,0.45881 -6.6875,0.98814 -6.9052,1.85233 -15.3254,7.82832 -22.9983,10.12507 -5.7238,1.71327 -13.7995,2.84379 -13.7995,2.84379 0,0 1.1628,5.66237 2.8639,7.35674 1.4805,1.47438 3.8026,3.18179 6.1334,4.74282 4.2294,2.83262 9.5038,8.51412 11.5167,13.0513 6.9105,15.57766 21.9184,49.58623 29.8643,68.947 1.2821,3.12403 -5.3283,5.03742 -6.1454,8.21181 -0.512,1.98872 -3.6267,6.43767 -2.8134,8.47105 -0.9427,2.37021 0.3751,6.28746 3.3818,4.931 l 22.1002,-10.57731 c 3.0261,-1.36443 6.3568,-9.77859 4.9947,-12.68358 l -16.2344,-32.65409 a 6.148353,6.148353 104.30677 0 1 1.9832,-7.77655 l 13.7414,-9.60455 c 3.7814,-2.01273 10.5341,-11.31895 2.5574,-34.37837 -6.1606,-17.80819 -19.884,-22.40933 -30.4585,-21.99427 z m 2.92,23.19179 c 2.5758,-0.0821 5.0142,0.2039 6.6916,1.1994 3.2524,1.93014 5.6971,9.14728 5.0811,12.75335 -0.6085,3.56265 -4.9534,6.85598 -8.5607,9.02224 -2.6576,1.59592 -5.9907,0.38541 -7.2318,-2.35774 l -6.3401,-14.00984 c -1.0896,-2.40811 0.1575,-5.0227 2.8476,-5.59878 2.2231,-0.476 4.9363,-0.92654 7.5123,-1.00863 z"
         sodipodi:nodetypes="ssscsscsscccccccsssssccss"
         inkscape:path-effect="#path-effect98"
         inkscape:original-d="m 1437.3704,411.02521 c -2.4403,0.0958 -4.7143,0.45881 -6.6875,0.98814 -6.9052,1.85233 -15.3254,7.82832 -22.9983,10.12507 -5.7238,1.71327 -13.7995,2.84379 -13.7995,2.84379 0,0 1.1628,5.66237 2.8639,7.35674 1.4805,1.47438 3.8026,3.18179 6.1334,4.74282 4.2294,2.83262 9.5038,8.51412 11.5167,13.0513 6.9105,15.57766 21.9184,49.58623 29.8643,68.947 1.2821,3.12403 -5.3283,5.03742 -6.1454,8.21181 -0.512,1.98872 -3.6267,6.43767 -2.8134,8.47105 -0.9427,2.37021 0.3751,6.28746 3.3818,4.931 l 22.1002,-10.57731 c 3.0261,-1.36443 6.3568,-9.77859 4.9947,-12.68358 l -18.5922,-37.39653 18.0824,-12.63866 c 3.7814,-2.01273 10.5341,-11.31895 2.5574,-34.37837 -6.1606,-17.80819 -19.884,-22.40933 -30.4585,-21.99427 z m 2.92,23.19179 c 2.5758,-0.0821 5.0142,0.2039 6.6916,1.1994 3.2524,1.93014 5.6971,9.14728 5.0811,12.75335 -0.6085,3.56265 -4.9534,6.85598 -8.5607,9.02224 -2.6576,1.59592 -5.9907,0.38541 -7.2318,-2.35774 l -6.3401,-14.00984 c -1.0896,-2.40811 0.1575,-5.0227 2.8476,-5.59878 2.2231,-0.476 4.9363,-0.92654 7.5123,-1.00863 z"
         transform="matrix(1.0626515,0,0,1.0626515,-100.69487,-29.392685)" /><path
         id="path93"
         style="opacity:1;fill:#f20000;fill-opacity:1;stroke-width:3.77953;stroke-linecap:round;stroke-linejoin:round;stroke-miterlimit:3.1;paint-order:markers stroke fill"
         d="m 1190.9707,319.48047 c -2.6154,0.11757 -5.5343,0.72115 -8.8652,1.90039 -14.9553,5.29457 -24.5839,9.76667 -34.5567,13.49414 -5.1082,1.90926 -14.375,4.95703 -14.375,4.95703 0,0 3.3039,9.36389 6.3535,11.90039 4.3617,3.62777 12.9037,0.002 15.6426,6.70703 12.1104,29.64637 33.3683,82.33196 39.5332,97.61914 1.7042,4.45403 2.3764,7.27325 -0.2262,10.46772 -2.6239,3.79312 -2.6864,7.44045 -0.4417,10.36431 1.2218,1.5913 3.6854,2.18833 5.496,1.32422 7.8944,-3.76741 27.9568,-13.49446 37.0215,-19.30273 15.352,-9.83686 11.9064,-25.77418 11.4903,-41.71875 -0.6224,-23.84617 -15.5387,-61.12748 -31.1114,-79.19727 -8.9741,-10.41315 -14.6276,-19.02508 -25.9609,-18.51562 z m -6.9277,37.61328 c 2.8529,-1.82361 6.4581,-4.06287 9.3661,-2.7143 10.7572,4.98852 17.2173,21.90481 23.8807,36.5509 2.9682,6.52394 7.013,17.90412 4.6342,24.65665 -3.5322,7.98896 -7.9159,20.5606 -15.5334,5.99882 -7.4125,-16.2151 -18.761,-42.02016 -25.455,-56.46185 -2.2778,-4.91416 -0.5987,-5.66129 3.1074,-8.03022 z"
         sodipodi:nodetypes="ssscscsscsssssssscsss" /><path
         id="path94"
         style="fill:#f20000;fill-opacity:1;stroke-width:3.77953;stroke-linecap:round;stroke-linejoin:round;stroke-miterlimit:3.1;paint-order:markers stroke fill"
         d="m 1260.0881,282.63294 c -1.1338,0.13896 -15.645,10.20438 -37.7891,17.92163 -4.6621,1.62476 -9.7222,4.32906 -14.1226,7.0037 -2.7652,1.68069 -7.0383,8.27571 -7.0383,8.27571 l 13.9559,1.93714 c 5.9364,0.824 12.7053,3.03419 15.2735,8.61711 14.3071,31.10074 42.6567,91.6125 36.6558,94.88213 -4.0674,2.21605 -6.0919,32.27834 -0.3141,28.36667 l 7.0506,-4.77347 42.5987,-20.15719 c 6.6743,-3.15769 9.6534,-11.24581 6.7029,-18.19807 l -4.4214,-10.42035 -20.233,10.23732 c -3.3768,1.70782 -7.4659,0.22329 -9.0722,-3.29368 l -7.2964,-15.97261 c -2.3183,-5.07746 -0.2614,-11.1186 4.6203,-13.56981 6.1436,-3.08563 14.3038,-3.12206 18.4306,-9.25689 l -6.5404,-13.39641 c -3.5071,-7.18326 -11.8462,-10.30107 -18.9798,-7.0961 l -7.0853,3.1846 c -3.7138,1.66821 -8.0557,0.0627 -9.9074,-3.66326 l -10.7367,-21.59533 c -1.6436,-3.30561 -0.2733,-7.34643 3.0059,-8.86348 0,0 3.3013,-2.32436 5.2029,-2.4073 2.6129,-0.1139 7.4149,2.67273 7.4149,2.67273 l 14.6808,-6.00318 -7.6423,-15.45471 c -1.997,-5.5508 -8.7185,-9.6757 -14.4138,-8.9769 z"
         sodipodi:nodetypes="ssscsssscccccccccsccccsscccs" /><path
         style="opacity:1;fill:#f20000;fill-opacity:1;stroke-width:3.77953;stroke-linecap:round;stroke-linejoin:round;stroke-miterlimit:3.1;paint-order:markers stroke fill"
         d="m 1460.6045,369.34198 -4.5485,6.57357 c -6.3164,9.12856 -7.8743,24.79251 -3.4563,34.97624 9.3794,21.62008 24.3264,55.86499 29.5369,66.62274 0.9032,1.86464 3.2095,4.23433 5.1955,4.77321 6.7429,1.82962 10.6201,-3.33515 8.3333,-10.04657 z"
         id="path95"
         sodipodi:nodetypes="ccscc"
         inkscape:path-effect="#path-effect100"
         inkscape:original-d="m 1460.6045,369.34198 -15.9853,23.10229 c 0,0 37.166,86.25662 39.2873,88.37794 2.1213,2.12132 15.8995,3.57107 15.8995,3.57107 z"
         transform="translate(4.5,-4.5)" /><path
         style="opacity:1;fill:#f20000;fill-opacity:1;stroke-width:3.77953;stroke-linecap:round;stroke-linejoin:round;stroke-miterlimit:3.1;paint-order:markers stroke fill"
         d="m 1494.3356,496.69595 c -6.4581,8.1152 15.917,24.10978 19.8725,8.7316 1.3226,-5.14221 -4.2553,-11.81819 -10.9749,-13.43503 -3.1187,-0.75042 -7.2321,2.61057 -8.8976,4.70343 z"
         id="path96"
         sodipodi:nodetypes="ssss" /><path
         style="color:#000000;fill:#f20000;stroke-width:1;stroke-linecap:square;stroke-linejoin:round;stroke-miterlimit:3.1;-inkscape-stroke:none;paint-order:markers stroke fill"
         d="m 1280.2573,452.34958 c -13.3552,6.12506 -9.4083,10.82305 5.7947,14.29713 l 38.5791,96.15286 c 3.201,7.89545 11.6305,20.95488 26.6671,14.07669 l 57.9043,-22.68443 c 13.7897,-6.76747 5.7286,-26.93556 -1.5681,-44.93865 l -31.4326,-77.55238 c -3.5065,-8.6515 -13.3625,-12.82233 -22.014,-9.31582 l -12.9293,5.24038 c -10.0674,3.19119 -16.7873,6.82162 5.7947,14.29713 l 33.1572,89.55151 c 0,0 -30.0053,16.37874 -34.7467,3.48977 -10.0487,-27.31617 -20.1353,-53.23148 -30.8322,-79.87754 -3.1786,-7.91756 -12.1898,-11.72816 -20.0969,-8.52336 z"
         id="path97"
         sodipodi:nodetypes="ccccccccccsccsc" /></g><g
       inkscape:groupmode="layer"
       id="g100"
       inkscape:label="TextWhiteOriginal"
       inkscape:export-filename="title-logo.png"
       inkscape:export-xdpi="96"
       inkscape:export-ydpi="96"
       style="display:none"><path
         id="path100"
         style="opacity:1;fill:#ffffff;fill-opacity:1;stroke:#ffffff;stroke-width:32;stroke-linecap:round;stroke-linejoin:round;stroke-miterlimit:3.1;stroke-dasharray:none;stroke-opacity:1;paint-order:markers stroke fill"
         d="m 1333.7402,252.67188 c -0.8851,-0.0198 -1.7585,-0.0102 -2.6152,0.0234 -3.1631,0.12421 -6.1104,0.59318 -8.668,1.2793 -8.9506,2.40102 -19.8647,10.14791 -29.8105,13.125 -7.4192,2.22076 -17.8867,3.68555 -17.8867,3.68555 0,0 1.5079,7.34084 3.7129,9.53711 1.919,1.91111 4.9279,4.12304 7.9492,6.14648 5.4823,3.6717 12.3186,11.03679 14.9277,16.91797 8.9575,20.192 28.4114,64.27535 38.7109,89.37109 1.6619,4.04941 -6.9056,6.52984 -7.9648,10.64453 -0.6637,2.57781 -4.7026,8.34281 -3.6484,10.97852 -1.2219,3.0723 0.4873,8.15084 4.3847,6.39258 l 28.6465,-13.71094 c 3.9225,-1.7686 11.1465,-11.19348 9.3809,-14.95898 l -19.3731,-35.95118 31.1426,30.25782 c 5.1565,4.48652 12.5393,5.80966 19.0742,3.41992 l 12.8907,-7.02735 c 0,0 -5.2129,-12.42392 -8.1055,-15.29296 -1.1233,-1.11423 -5.4432,0.19178 -7.0664,0.5 -1.8579,0.35276 -2.113,-2.25673 -9.6836,-8.78907 -6.5037,-5.61177 -14.002,-13.95888 -24.8301,-24.49023 -3.8896,-3.78287 -2.4514,-6.39182 2.3828,-8.96485 4.9016,-2.60892 13.6561,-14.67251 3.3164,-44.5625 -7.4863,-21.64054 -23.5894,-28.23477 -36.8672,-28.53124 z m -72.5742,29.88476 c -0.3626,0.007 -0.7222,0.0325 -1.0781,0.0762 -1.1338,0.13896 -15.645,10.20464 -37.7891,17.92188 -4.6621,1.62476 -9.7226,4.32927 -14.123,7.0039 -2.7652,1.68069 -7.0371,8.27539 -7.0371,8.27539 l 13.9551,1.9375 c 5.9363,0.824 12.7052,3.03428 15.2734,8.61719 14.3071,31.10071 42.6571,91.61123 36.6562,94.88086 -4.0674,2.21605 -6.0922,32.27885 -0.3144,28.36719 l 7.0508,-4.77344 42.5996,-20.15625 c 6.6743,-3.15769 9.6516,-11.24696 6.7011,-18.19922 l -4.4199,-10.41992 -20.2344,10.23828 c -3.3767,1.70782 -7.4659,0.22205 -9.0722,-3.29492 l -7.2949,-15.97266 c -2.3183,-5.07745 -0.2626,-11.1191 4.6191,-13.57031 6.1436,-3.08563 14.3048,-3.12103 18.4316,-9.25586 l -6.541,-13.39648 c -3.5071,-7.18326 -11.8468,-10.30067 -18.9804,-7.09571 l -7.084,3.1836 c -3.7138,1.66821 -8.0565,0.0639 -9.9082,-3.66211 l -10.7364,-21.5957 c -1.6436,-3.30561 -0.2733,-7.34624 3.0059,-8.86329 0,0 3.3015,-2.32526 5.2031,-2.4082 2.6129,-0.1139 7.4141,2.67383 7.4141,2.67383 l 14.6816,-6.00391 -7.6425,-15.45507 c -1.8722,-5.20387 -7.8974,-9.15503 -13.336,-9.05274 z m 75.041,2.95313 c 3.3388,-0.10638 6.4997,0.2643 8.6739,1.55468 4.2158,2.50188 7.3843,11.85702 6.5859,16.53125 -0.7888,4.61798 -6.4198,8.88737 -11.0957,11.69532 -3.4447,2.06865 -7.7663,0.49907 -9.375,-3.05664 l -8.2188,-18.15821 c -1.4123,-3.12143 0.2044,-6.51109 3.6915,-7.25781 2.8814,-0.61701 6.3992,-1.20219 9.7382,-1.30859 z m -145.2363,33.9707 c -2.6154,0.11757 -5.5343,0.72115 -8.8652,1.90039 -14.9553,5.29456 -24.5839,9.76667 -34.5567,13.49414 -5.1082,1.90926 -14.375,4.95703 -14.375,4.95703 0,0 3.3039,9.36389 6.3535,11.90039 4.3617,3.62777 12.9037,0.002 15.6426,6.70703 12.1104,29.64634 33.3683,82.33198 39.5332,97.61914 1.7042,4.45403 2.3761,7.27233 -0.2265,10.4668 -2.6239,3.79312 -2.6861,7.44138 -0.4414,10.36523 1.2218,1.5913 3.6855,2.18833 5.496,1.32422 7.8944,-3.7674 27.9568,-13.49447 37.0215,-19.30273 15.352,-9.83685 11.9064,-25.7742 11.4903,-41.71875 -0.6224,-23.84615 -15.5387,-61.12749 -31.1114,-79.19727 -8.9741,-10.41314 -14.6276,-19.02508 -25.9609,-18.51562 z m -79.9453,32.23437 c -0.8852,-0.0198 -1.7586,-0.0121 -2.6152,0.0215 -3.1631,0.12421 -6.1104,0.59513 -8.668,1.28125 -8.9506,2.40102 -19.8648,10.14596 -29.8106,13.12304 -7.4192,2.22076 -17.8886,3.6875 -17.8886,3.6875 0,0 1.5079,7.33889 3.7129,9.53516 1.919,1.91112 4.9298,4.125 7.9511,6.14844 5.4823,3.6717 12.3187,11.03484 14.9278,16.91601 8.9575,20.192 28.4113,64.27535 38.7109,89.3711 1.6619,4.0494 -6.9076,6.52983 -7.9668,10.64453 -0.6637,2.57781 -4.7007,8.34476 -3.6465,10.98047 -1.2219,3.0723 0.4854,8.14888 4.3828,6.39062 l 28.6465,-13.70898 c 3.9225,-1.7686 11.1484,-11.19543 9.3828,-14.96094 l -19.373,-35.95117 31.1426,30.25781 c 5.1565,4.48653 12.5393,5.80966 19.0742,3.41992 l 12.8887,-7.02734 c 0,0 -5.2129,-12.42197 -8.1055,-15.29102 -1.1233,-1.11422 -5.4432,0.19178 -7.0664,0.5 -1.8579,0.35276 -2.1111,-2.25868 -9.6817,-8.79101 -6.5037,-5.61178 -14.002,-13.95693 -24.83,-24.48828 -3.8896,-3.78287 -2.4514,-6.39377 2.3828,-8.9668 4.9016,-2.60893 13.6541,-14.67057 3.3144,-44.56055 -7.4863,-21.64054 -23.5875,-28.23477 -36.8652,-28.53125 z m 80.0937,2.26368 c 0.7915,-0.0488 1.5621,0.0632 2.2891,0.40039 10.7572,4.98851 17.2175,21.9047 23.8809,36.55078 2.9682,6.52393 7.0135,17.90568 4.6347,24.6582 -3.5322,7.98895 -7.9157,20.55981 -15.5332,5.99805 -7.4125,-16.21509 -18.7611,-42.02122 -25.4551,-56.46289 -2.2778,-4.91416 -0.5986,-5.66037 3.1075,-8.0293 2.1396,-1.36771 4.7016,-2.96889 7.0761,-3.11523 z m -187.7441,2.63281 C 998.50159,356.40207 993.38063,357.14279 988,359 c -36.63736,12.64593 -19.94479,84.91088 -4.81836,120.5957 14.0333,33.10599 38.20166,83.55696 79.31836,64.9043 34.3868,-15.59963 23.8706,-71.1337 11.707,-101.62109 -14.6928,-36.82674 -36.7181,-84.80276 -70.832,-86.26758 z m 461.7305,8.23047 -4.5489,6.57422 c -6.3163,9.12855 -7.875,24.79283 -3.457,34.97656 9.3794,21.62005 24.3266,55.86335 29.5371,66.62109 0.9032,1.86464 3.2094,4.23457 5.1953,4.77344 6.7429,1.82962 10.6208,-3.33546 8.334,-10.04688 z m -351.6153,19.71093 c 3.3388,-0.10638 6.4997,0.26431 8.6739,1.55469 4.2158,2.50188 7.3863,11.85702 6.5879,16.53125 -0.7888,4.61798 -6.4218,8.88541 -11.0977,11.69336 -3.4447,2.06866 -7.7644,0.50103 -9.3731,-3.05469 l -8.2187,-18.16015 c -1.4123,-3.12143 0.2043,-6.5111 3.6914,-7.25781 2.8815,-0.61701 6.3973,-1.20025 9.7363,-1.30665 z m 315.3828,22.8125 c -0.7256,-0.0162 -1.4422,-0.008 -2.1445,0.0195 -2.5932,0.1018 -5.0086,0.48633 -7.1055,1.04882 -7.3378,1.96838 -16.2858,8.31913 -24.4394,10.75977 -6.0824,1.82061 -14.6641,3.02148 -14.6641,3.02148 0,0 1.2353,6.01784 3.043,7.81836 1.5733,1.56675 4.0408,3.38024 6.5176,5.03907 4.4944,3.01008 10.0993,9.0477 12.2383,13.86914 7.3434,16.5536 23.2926,52.69384 31.7363,73.26757 1.3624,3.31976 -5.663,5.3533 -6.5313,8.72657 -0.544,2.11331 -3.8545,6.84118 -2.9902,9.00195 -1.0018,2.5187 0.3987,6.67972 3.5938,5.23828 l 23.4843,-11.23828 c 3.2157,-1.44991 6.7561,-10.39153 5.3086,-13.47852 l -17.2519,-34.70117 a 6.5335566,6.5335566 0 0 1 2.1074,-8.26367 l 14.6035,-10.20508 c 4.0183,-2.13883 11.1932,-12.0291 2.7168,-36.5332 -6.1374,-17.74114 -19.3375,-23.14758 -30.2227,-23.39063 z m -414.0214,7.87305 c 10.4401,-0.39952 19.3967,17.78098 25.5976,31.79883 5.1334,11.60487 10.9443,33.07474 1.2246,40.17187 -11.6218,8.48613 -21.3446,-10.60165 -27.1699,-23.17968 -6.2788,-13.55784 -14.75567,-41.41257 -4.2129,-47.41602 1.5484,-0.88168 3.0691,-1.31792 4.5606,-1.375 z m 345.9336,5.90625 c -2.1954,-0.0331 -4.4348,0.36361 -6.5977,1.24024 l -12.9297,5.24023 c -10.0674,3.19119 -16.787,6.82137 5.7949,14.29688 l 33.1582,89.55273 c 0,0 -30.0066,16.37724 -34.748,3.48828 -10.0487,-27.31614 -20.1352,-53.23092 -30.832,-79.87695 -3.1786,-7.91755 -12.1887,-11.72824 -20.0957,-8.52344 l -14.2774,5.78711 c -13.3552,6.12505 -9.4081,10.8228 5.7949,14.29687 l 38.5782,96.15235 c 3.201,7.89544 11.6313,20.95631 26.6679,14.07812 l 57.9043,-22.68554 c 13.7897,-6.76747 5.7284,-26.93443 -1.5683,-44.9375 l -31.4336,-77.55274 c -2.6299,-6.48862 -8.8298,-10.45736 -15.416,-10.55664 z m 69.0468,10.88477 c 2.7372,-0.0872 5.3289,0.21557 7.1114,1.27343 3.4561,2.05107 6.053,9.72075 5.3984,13.55274 -0.6466,3.78585 -5.2624,7.28591 -9.0957,9.58789 -2.8241,1.6959 -6.3667,0.40915 -7.6856,-2.50586 l -6.7382,-14.88672 c -1.1579,-2.55898 0.1687,-5.339 3.0273,-5.95117 2.3624,-0.50582 5.245,-0.98308 7.9824,-1.07031 z m 72.5,59.85547 c -2.9679,-0.0243 -6.4867,2.91389 -7.9961,4.81054 -6.4581,8.11519 15.9176,24.11059 19.8731,8.73242 1.3226,-5.1422 -4.257,-11.8187 -10.9766,-13.43554 -0.2924,-0.0704 -0.5933,-0.10491 -0.9004,-0.10742 z" /></g><g
       inkscape:groupmode="layer"
       id="g103"
       inkscape:label="TextBlackOriginal"
       inkscape:export-filename="title-logo.png"
       inkscape:export-xdpi="96"
       inkscape:export-ydpi="96"
       style="display:none;fill:#000000;fill-opacity:0;stroke:#111b09;stroke-width:20;stroke-dasharray:none;stroke-opacity:1"><path
         id="path103"
         style="color:#000000;display:inline;fill:#111b09;fill-opacity:1;stroke:#111b09;stroke-width:17;stroke-linecap:round;stroke-linejoin:round;stroke-miterlimit:3.1;stroke-dasharray:none;stroke-opacity:1;paint-order:markers stroke fill"
         d="m 1334.0977,236.67578 c -1.236,-0.0276 -2.4367,-0.0144 -3.5997,0.0312 -4.3513,0.17088 -8.421,0.80407 -12.1875,1.81445 -14.124,3.78931 -24.5307,11.5375 -30.2519,13.25 -5.3102,1.58949 -15.5156,3.16797 -15.5156,3.16797 a 16.0016,16.0016 0 0 0 -12.9414,11.70899 c -0.4881,0.0326 -0.9773,0.0439 -1.4629,0.10351 -4.8326,0.5926 -4.6352,1.25822 -5.3242,1.58789 -0.6892,0.32975 -1.1004,0.55727 -1.5157,0.78711 -0.8305,0.45968 -1.5917,0.90671 -2.5156,1.44336 -1.8478,1.0733 -4.2472,2.46208 -7.2598,4.07422 -6.0252,3.22428 -14.4339,7.29617 -24.4902,10.80078 -6.4748,2.25649 -12.2059,5.42538 -17.168,8.44141 -6.1947,3.76512 -7.1577,6.35726 -8.9804,8.7539 -0.3478,0.45724 -0.2981,0.43446 -0.6055,0.85743 -0.01,4.1e-4 -0.018,-0.002 -0.027,-0.002 -4.5361,0.20391 -9.0025,1.21532 -13.4864,2.80274 -15.5906,5.51945 -25.6132,10.14736 -34.8183,13.58789 -4.3946,1.64252 -13.7715,4.74609 -13.7715,4.74609 a 16.0016,16.0016 0 0 0 -10.4844,11.69336 c -2.1479,-0.32742 -4.2717,-0.56194 -6.3086,-0.60742 -1.2131,-0.0271 -2.413,-0.0172 -3.5996,0.0293 -4.3581,0.17113 -8.4284,0.80796 -12.1875,1.8164 -14.1221,3.78874 -24.5291,11.53498 -30.2519,13.24805 -5.312,1.59 -15.5215,3.16992 -15.5215,3.16992 a 16.0016,16.0016 0 0 0 -7.8047,3.4082 c -10.4342,-9.41029 -22.9449,-16.11906 -37.9571,-16.76367 -6.96999,-0.29929 -14.18118,0.79736 -21.2812,3.24805 -13.95622,4.8172 -23.60973,16.46374 -28.13282,28.76172 -4.52307,12.29797 -5.26485,25.56581 -4.4375,39.0039 1.65475,26.87624 9.98975,54.73086 18.24219,74.19922 7.16493,16.90283 16.87319,39.0797 32.32423,56.30274 7.7255,8.61152 17.196,16.2064 29.1172,19.99023 11.9211,3.78386 25.9294,2.96535 39.2168,-3.0625 12.1286,-5.50216 20.9647,-15.27671 25.9472,-26 0.3042,-0.65465 0.4876,-1.33749 0.7676,-1.99804 1.5626,1.47288 3.4664,2.8173 5.8281,3.76562 5.0024,2.00867 11.0388,1.36702 15.043,-0.43945 a 16.0016,16.0016 0 0 0 0.3262,-0.15235 l 28.6465,-13.70898 -0.3301,0.1543 c 8.3156,-3.74941 10.2114,-7.52148 13.4726,-12.31055 0.8705,-1.27818 1.6932,-2.63331 2.461,-4.11524 7.4382,2.46931 15.6122,2.41227 23.2129,-0.36718 a 16.0016,16.0016 0 0 0 2.164,-0.98047 l 12.8887,-7.02735 a 16.0016,16.0016 0 0 0 2.3867,-1.64648 c 1.4877,-0.3802 2.9862,-0.86841 4.4981,-1.58984 8.0461,-3.83983 27.502,-13.05348 38.7636,-20.26953 4.2129,-2.69941 7.6766,-6.08196 10.459,-9.77735 0.3525,0.24751 0.7007,0.47919 1.0918,0.71289 0.3434,1.61351 0.8031,3.16713 1.4727,4.47266 3.644,7.10505 8.2947,8.9185 12.1328,10.62891 1.2309,0.54855 2.4985,0.95415 3.7559,1.39453 l 35.6835,88.93945 a 16.0016,16.0016 0 0 0 0.022,0.0547 c 2.2839,5.63323 5.9504,13.04874 13.9375,19.22461 7.9871,6.17584 22.1842,8.89576 34.2149,3.39257 l -0.8203,0.34766 57.9043,-22.68555 a 16.0016,16.0016 0 0 0 1.2129,-0.53515 c 3.5156,-1.72544 6.6775,-4.31347 9.2539,-7.31055 3.3727,0.20463 6.7211,-0.36556 9.2011,-1.48437 a 16.0016,16.0016 0 0 0 0.3262,-0.15235 l 23.4844,-11.23828 -0.3301,0.1543 c 5.4186,-2.44318 7.2512,-5.30278 8.9316,-7.70899 1.6805,-2.40618 2.8231,-4.71121 3.7774,-7.1289 0.9542,-2.41771 1.7002,-4.88321 2.1074,-7.83594 0.4072,-2.95273 1.089,-6.45372 -1.5977,-12.18359 a 16.0016,16.0016 0 0 0 -0.1601,-0.33008 l -13.6211,-27.39844 7.918,-5.5332 -1.6465,1.00781 c 2.5513,-1.35798 4.6985,-3.15899 6.6523,-5.15625 0.4254,0.90363 1.3274,2.98884 1.6875,3.73242 2.1353,4.40814 3.8419,7.45626 7.5821,9.87891 -3.6773,7.1935 -2.5136,16.05614 0.1543,21.17383 3.0712,5.89152 7.2709,9.68787 12.3125,12.63867 5.0416,2.95078 11.3616,5.38568 19.5312,3.66992 8.1696,-1.71576 15.8265,-9.91838 17.8887,-17.93555 2.4295,-9.44577 -1.3468,-17.01014 -5.6153,-22.19531 -2.4522,-2.97889 -5.4027,-5.44803 -8.7929,-7.40039 2.1482,-5.78363 1.793,-12.01495 0.014,-17.23828 L 1480.25,359.68164 a 16.0016,16.0016 0 0 0 -28.3027,-3.94336 l -4.5489,6.57422 c -6.4076,9.26056 -9.5428,19.71504 -9.3711,30.30859 -3.0178,-0.6986 -5.9963,-1.18942 -8.7968,-1.25195 -0.4252,-0.009 -0.8172,0.0105 -1.2305,0.0117 a 16.0016,16.0016 0 0 0 1.3477,-14.76953 c 0,0 -1.431,-3.41734 -3.3008,-7.3086 -1.8698,-3.89123 -2.0583,-6.97034 -8.291,-13.15234 -5.0307,-4.99003 -9.3651,-4.9339 -11.8184,-5.05664 -0.6644,-0.0332 -0.8924,0.0774 -1.4355,0.0898 -1.2629,-1.26277 -2.5602,-2.56582 -4.3106,-4.07617 -3.663,-3.16065 -9.2125,-8.86433 -15.7832,-15.49804 8.4427,-11.19167 10.2438,-29.84073 1.3203,-55.63672 -9.4755,-27.39079 -33.3484,-38.88866 -51.6308,-39.29688 z m -42.8399,83.50586 c 1.0506,2.37561 2.3594,5.36461 3.5371,8.03516 -6.8417,-2.2654 -14.432,-2.22261 -21.4277,0.8125 l -0.5176,-1.04492 a 16.0016,16.0016 0 0 0 0.6699,-0.10743 l 14.6817,-6.0039 a 16.0016,16.0016 0 0 0 3.0566,-1.69141 z m 84.3555,19.1543 c -0.8622,0.90662 -1.3733,0.85535 -0.8047,0.55273 0.2904,-0.15456 0.5205,-0.38952 0.8047,-0.55273 z m -59.9551,37.01172 c 0.6234,1.45818 1.2202,2.84785 1.8223,4.26367 a 16.0016,16.0016 0 0 0 -6.0645,1.19922 l -11.5215,5.83007 -0.7383,-1.61718 c 1.15,-0.37054 1.186,-0.36693 2.752,-0.91406 3.803,-1.32874 9.251,-3.92024 13.75,-8.76172 z m 68.3281,28.87695 c 0.06,0.02 0.1173,0.0506 0.1778,0.0703 -0.081,0.0157 -0.1497,0.0353 -0.2305,0.0508 0.019,-0.0364 0.034,-0.0845 0.053,-0.12109 z m -219.0527,19.94727 c 2.0982,5.19277 4.1187,10.15708 5.875,14.50781 -2.5905,-2.58497 -5.6997,-5.57928 -9.1172,-9.0293 1.2447,-1.65003 2.3012,-3.50311 3.2422,-5.47851 z m -12.0332,13.20507 c -0.8616,0.90584 -1.3742,0.85481 -0.8066,0.55274 0.2906,-0.15481 0.522,-0.38925 0.8066,-0.55274 z m 276.373,2.98633 c 1.1183,-0.0973 2.2242,0.13976 3.3184,0.37695 -0.9706,2.06927 -2.3212,3.90562 -3.959,5.21485 -1.5006,-0.90846 -1.9313,-1.32544 -2.2344,-1.65625 0.033,-0.25576 0.01,-0.17001 0.1719,-1.13672 0.2263,-1.3252 0.5224,-1.86011 0.793,-2.42188 0.6283,-0.17818 1.2644,-0.32075 1.9101,-0.37695 z m -3.373,3.35742 c 0.1061,0.0423 0.2462,0.1612 0.3105,0.33203 0.014,0.0364 -2e-4,0.07 0.01,0.11133 -0.046,-0.0557 -0.4079,-0.27777 -0.4277,-0.3164 v 0 c -0.069,-0.13498 0,-0.16926 0.1094,-0.12696 z m 74.0293,18.86328 c 0.4709,0.34499 0.3115,0.81194 1.1074,2.45508 -0.1997,-0.41231 -0.8696,-1.95206 -1.1074,-2.45508 z m -292.2852,11.88477 c 0,0.008 -0.01,0.15688 -0.01,0.1582 l -0.7227,0.95703 c 0.265,-0.32739 0.4807,-0.75529 0.7324,-1.11523 z m 234.002,63.55469 c -0.06,0.13154 -0.088,0.13086 -0.1445,0.24414 0.018,-0.0389 0.043,-0.13141 0.061,-0.17188 0.01,-0.004 -2e-4,-0.007 0.01,-0.0117 0.019,-0.0152 0.055,-0.0452 0.074,-0.0605 z" /></g><g
       inkscape:groupmode="layer"
       id="g150"
       inkscape:label="TextShadow"
       inkscape:export-filename="title-logo.png"
       inkscape:export-xdpi="96"
       inkscape:export-ydpi="96"
       style="display:inline;fill:#000000;fill-opacity:0;stroke:#111b09;stroke-width:20;stroke-dasharray:none;stroke-opacity:1"><path
         id="path150"
         style="color:#000000;display:inline;fill:#797668;fill-opacity:1;stroke:none;stroke-width:20;stroke-linecap:round;stroke-linejoin:round;stroke-miterlimit:3.1;stroke-dasharray:none;stroke-opacity:1;-inkscape-stroke:none;paint-order:markers stroke fill"
         d="m 676.65103,463.53132 c -1.4193,-0.0317 -2.7953,-0.0169 -4.123,0.0352 -4.9664,0.19503 -9.6686,0.92249 -14.0567,2.09961 -7.9578,2.13498 -14.6711,5.32153 -19.9746,8.06055 -5.3035,2.739 -9.6685,5.00347 -10.5117,5.25586 -3.9251,1.17488 -14.377,2.91015 -14.377,2.91015 a 8.50085,8.50085 0 0 0 -0.045,0.008 c -7.5084,1.20142 -13.8857,5.84833 -17.4902,12.3125 -1.1336,0.24243 -2.165,0.54586 -3.207,1.0039 -0.5961,0.26198 -0.9876,0.55857 -1.4688,0.86719 -0.8023,0.3888 -1.4578,0.74216 -1.8496,0.95898 -0.9479,0.52471 -1.7635,1.00586 -2.668,1.53125 -1.8381,1.06764 -4.1225,2.38984 -7,3.92969 -5.7494,3.07668 -13.7626,6.95172 -23.2773,10.26758 -7.3381,2.55738 -13.599,6.05281 -18.7852,9.20508 -5.6502,3.43412 -8.2791,6.78352 -9.834,8.93359 -4.0064,0.54238 -7.9292,1.39797 -11.6875,2.72852 -15.9192,5.63581 -26.1981,10.3649 -34.957,13.63867 -3.9695,1.48363 -13.4668,4.63867 -13.4668,4.63867 a 8.50085,8.50085 0 0 0 -0.059,0.0195 c -5.5809,1.89236 -10.0922,5.79606 -13.039,10.71875 -0.2866,-0.012 -0.5472,-0.0736 -0.836,-0.0801 -1.3845,-0.0309 -2.7577,-0.0202 -4.1211,0.0332 -4.9769,0.19542 -9.6775,0.9273 -14.0547,2.10156 -7.9566,2.13463 -14.6691,5.32016 -19.9726,8.05859 -5.3034,2.73845 -9.6682,5.00276 -10.5137,5.25586 -3.9276,1.17562 -14.3828,2.91211 -14.3828,2.91211 l 0.094,-0.0137 c -2.0095,0.28804 -3.9451,0.88625 -5.8066,1.65039 -10.6223,-8.30434 -23.3687,-14.43922 -38.3848,-15.08398 -8.11013,-0.34825 -16.38119,0.9304 -24.41985,3.70507 -16.80766,5.80143 -28.0605,19.51974 -33.33594,33.86328 -5.1028,13.87424 -5.8129,28.36738 -4.94531,42.45899 1.7402,28.26406 10.3136,56.73702 18.90039,76.99414 7.19904,16.98331 17.1331,40.05678 33.82418,58.66211 8.37233,9.33261 19.06303,18.03269 32.87303,22.41602 14.0881,4.47169 30.2283,3.41295 45.2989,-3.42383 11.7079,-5.31134 20.5421,-14.03016 26.5722,-23.88477 7.5333,2.79141 14.9535,1.9477 20.9981,-0.7793 a 8.50085,8.50085 0 0 0 0.014,-0.006 c 0.1626,-0.0737 0.3255,-0.14929 0.4864,-0.22656 l 0.014,-0.008 28.5625,-13.66797 0.07,-0.0332 a 8.50085,8.50085 0 0 0 0.098,-0.10938 c 8.8143,-4.17144 12.9876,-9.94165 15.8516,-14.14843 7.3167,1.19776 14.9306,0.56162 22.1172,-2.06641 a 8.50085,8.50085 0 0 0 0,-0.002 c 1.1383,-0.41693 2.2445,-0.91746 3.3086,-1.49805 l 0.01,-0.002 12.8828,-7.02539 a 8.50085,8.50085 0 0 0 0.1055,-0.0586 c 0.7447,-0.4196 1.4095,-0.95858 2.1055,-1.45312 1.3851,-0.42211 2.7598,-0.7971 4.2656,-1.51563 8.0092,-3.82221 27.4488,-12.94306 39.6875,-20.78515 1.49,-0.95475 2.7301,-2.101 4.0625,-3.17969 4.5757,5.74749 10.2039,8.55642 13.0488,9.82422 0.2927,0.13041 0.4438,0.15574 0.7207,0.26953 l 34.2891,85.46484 c 0.01,0.0253 0.021,0.0509 0.031,0.0762 a 8.50085,8.50085 0 0 0 0,0.008 c 2.4981,6.16163 7.0193,15.33594 16.6153,22.75586 10.5558,8.16201 26.6302,11.12344 41.539,4.92578 a 8.50085,8.50085 0 0 0 0.1563,0.004 l 57.9043,-22.68554 a 8.50085,8.50085 0 0 0 0.01,-0.002 c 0.6279,-0.24652 1.2462,-0.51892 1.8516,-0.8164 l 0.01,-0.004 c 3.4791,-1.70842 6.421,-4.06657 9.0976,-6.63867 3.1564,-0.21268 6.2327,-0.74087 9.1016,-2.03516 a 8.50085,8.50085 0 0 0 0.018,-0.006 c 0.1625,-0.0737 0.3234,-0.1493 0.4843,-0.22656 l 0.014,-0.008 23.4004,-11.19727 0.07,-0.0332 a 8.50085,8.50085 0 0 0 0.1,-0.11133 c 6.6049,-3.19072 10.3188,-8.12207 11.8008,-10.24414 2.104,-3.01256 3.5873,-6.01825 4.7149,-8.875 1.1232,-2.84602 2.1093,-6.08475 2.621,-9.79492 0.021,-0.15183 0.01,-0.60203 0.033,-0.7832 2.0929,1.81939 4.2702,3.46259 6.5332,4.7871 5.9548,3.48536 14.9566,6.8818 25.5722,4.65235 12.4569,-2.61619 21.3948,-12.55811 24.3731,-24.13672 3.2315,-12.56392 -2.002,-23.29713 -7.2852,-29.71484 -1.7177,-2.08664 -3.6715,-3.93222 -5.7559,-5.61914 0.8395,-5.7498 0.1503,-11.39752 -1.539,-16.35743 a 8.50085,8.50085 0 0 0 0,-0.002 l -35.0625,-102.89844 c -6.3208,-18.53914 -32.1883,-22.14434 -43.3359,-6.03906 a 8.50085,8.50085 0 0 0 0,0.002 l -4.5489,6.57422 c -2.2938,3.31506 -4.1027,6.82293 -5.6797,10.4043 -0.4722,-1.03923 -0.4396,-1.0529 -1.0195,-2.25977 -1.2083,-2.51446 -2.793,-8.39044 -9.9668,-15.50586 -5.7091,-5.66291 -12.5728,-6.99199 -15.7734,-7.34375 -0.7438,-0.70913 -1.2874,-1.29099 -2.2246,-2.0996 -2.1164,-1.82614 -6.5481,-6.35015 -10.6192,-10.44532 6.973,-14.11519 6.7656,-33.53418 -1.3633,-57.0332 -10.6773,-30.8648 -37.7962,-44.53158 -59.4746,-45.01563 z m -43.0293,92.00391 c 1.0506,2.37561 2.3594,5.36461 3.5371,8.03516 -6.8417,-2.2654 -14.432,-2.22261 -21.4277,0.8125 l -0.5176,-1.04492 a 16.0016,16.0016 0 0 0 0.6699,-0.10743 l 14.6817,-6.0039 a 16.0016,16.0016 0 0 0 3.0566,-1.69141 z m 84.3555,19.1543 c -0.8622,0.90662 -1.3733,0.85535 -0.8047,0.55273 0.2904,-0.15456 0.5205,-0.38952 0.8047,-0.55273 z m 8.373,65.88867 c 0.06,0.02 0.1173,0.0506 0.1778,0.0703 -0.081,0.0157 -0.1497,0.0353 -0.2305,0.0508 0.019,-0.0364 0.034,-0.0845 0.053,-0.12109 z m -231.0859,33.15234 c -0.8616,0.90584 -1.3742,0.85481 -0.8066,0.55274 0.2905,-0.15481 0.522,-0.38925 0.8066,-0.55274 z m 275.1269,3.76367 -0.3203,1.67188 -0.5976,-1.20898 z m -221.0371,34.32422 0.01,0.006 -0.086,0.11328 c 0.028,-0.0349 0.051,-0.0821 0.078,-0.11914 z m 234.5528,62.6875 0.022,0.01 c -0.019,0.0263 -0.038,0.0565 -0.062,0.10547 0.012,-0.0261 0.027,-0.0728 0.041,-0.11524 z" /></g><g
       inkscape:groupmode="layer"
       id="g105"
       inkscape:label="TextBlack"
       inkscape:export-filename="title-logo.png"
       inkscape:export-xdpi="96"
       inkscape:export-ydpi="96"
       style="display:inline;fill:#000000;fill-opacity:0;stroke:#111b09;stroke-width:20;stroke-dasharray:none;stroke-opacity:1"><path
         id="path106"
         style="color:#000000;display:inline;fill:#111b09;fill-opacity:1;stroke:none;stroke-width:20;stroke-linecap:round;stroke-linejoin:round;stroke-miterlimit:3.1;stroke-dasharray:none;stroke-opacity:1;-inkscape-stroke:none;paint-order:markers stroke fill"
         d="m 667.4587,454.52088 c -1.4193,-0.0317 -2.7953,-0.0169 -4.123,0.0352 -4.9664,0.19503 -9.6686,0.92249 -14.0567,2.09961 -7.9578,2.13498 -14.6711,5.32153 -19.9746,8.06055 -5.3035,2.739 -9.6685,5.00347 -10.5117,5.25586 -3.9251,1.17488 -14.377,2.91015 -14.377,2.91015 a 8.50085,8.50085 0 0 0 -0.045,0.008 c -7.5084,1.20142 -13.8857,5.84833 -17.4902,12.3125 -1.1336,0.24243 -2.165,0.54586 -3.207,1.0039 -0.5961,0.26198 -0.9876,0.55857 -1.4688,0.86719 -0.8023,0.3888 -1.4578,0.74216 -1.8496,0.95898 -0.9479,0.52471 -1.7635,1.00586 -2.668,1.53125 -1.8381,1.06764 -4.1225,2.38984 -7,3.92969 -5.7494,3.07668 -13.7626,6.95172 -23.2773,10.26758 -7.3381,2.55738 -13.599,6.05281 -18.7852,9.20508 -5.6502,3.43412 -8.2791,6.78352 -9.834,8.93359 -4.0064,0.54238 -7.9292,1.39797 -11.6875,2.72852 -15.9192,5.63581 -26.1981,10.3649 -34.957,13.63867 -3.9695,1.48363 -13.4668,4.63867 -13.4668,4.63867 a 8.50085,8.50085 0 0 0 -0.059,0.0195 c -5.5809,1.89236 -10.0922,5.79606 -13.039,10.71875 -0.2866,-0.012 -0.5472,-0.0736 -0.836,-0.0801 -1.3845,-0.0309 -2.7577,-0.0202 -4.1211,0.0332 -4.9769,0.19542 -9.6775,0.9273 -14.0547,2.10156 -7.9566,2.13463 -14.6691,5.32016 -19.9726,8.05859 -5.3034,2.73845 -9.6682,5.00276 -10.5137,5.25586 -3.9276,1.17562 -14.3828,2.91211 -14.3828,2.91211 l 0.094,-0.0137 c -2.0095,0.28804 -3.9451,0.88625 -5.8066,1.65039 -10.6223,-8.30434 -23.3687,-14.43922 -38.3848,-15.08398 -8.11016,-0.34825 -16.38125,0.9304 -24.41991,3.70507 -16.80766,5.80143 -28.0605,19.51974 -33.33594,33.86328 -5.1028,13.87424 -5.8129,28.36738 -4.94531,42.45899 1.7402,28.26406 10.3136,56.73702 18.90039,76.99414 7.19904,16.98331 17.1331,40.05678 33.82422,58.66211 8.37232,9.33261 19.06305,18.03269 32.87305,22.41602 14.0881,4.47169 30.2283,3.41295 45.2989,-3.42383 11.7079,-5.31134 20.5421,-14.03016 26.5722,-23.88477 7.5333,2.79141 14.9535,1.9477 20.9981,-0.7793 a 8.50085,8.50085 0 0 0 0.014,-0.006 c 0.1626,-0.0737 0.3255,-0.14929 0.4864,-0.22656 l 0.014,-0.008 28.5625,-13.66797 0.07,-0.0332 a 8.50085,8.50085 0 0 0 0.098,-0.10938 c 8.8143,-4.17144 12.9876,-9.94165 15.8516,-14.14843 7.3167,1.19776 14.9306,0.56162 22.1172,-2.06641 a 8.50085,8.50085 0 0 0 0,-0.002 c 1.1383,-0.41693 2.2445,-0.91746 3.3086,-1.49805 l 0.01,-0.002 12.8828,-7.02539 a 8.50085,8.50085 0 0 0 0.1055,-0.0586 c 0.7447,-0.4196 1.4095,-0.95858 2.1055,-1.45312 1.3851,-0.42211 2.7598,-0.7971 4.2656,-1.51563 8.0092,-3.82221 27.4488,-12.94306 39.6875,-20.78515 1.49,-0.95475 2.7301,-2.101 4.0625,-3.17969 4.5757,5.74749 10.2039,8.55642 13.0488,9.82422 0.2927,0.13041 0.4438,0.15574 0.7207,0.26953 l 34.2891,85.46484 c 0.01,0.0253 0.021,0.0509 0.031,0.0762 a 8.50085,8.50085 0 0 0 0,0.008 c 2.4981,6.16163 7.0193,15.33594 16.6153,22.75586 10.5558,8.16201 26.6302,11.12344 41.539,4.92578 a 8.50085,8.50085 0 0 0 0.1563,0.004 l 57.9043,-22.68554 a 8.50085,8.50085 0 0 0 0.01,-0.002 c 0.6279,-0.24652 1.2462,-0.51892 1.8516,-0.8164 l 0.01,-0.004 c 3.4791,-1.70842 6.421,-4.06657 9.0976,-6.63867 3.1564,-0.21268 6.2327,-0.74087 9.1016,-2.03516 a 8.50085,8.50085 0 0 0 0.018,-0.006 c 0.1625,-0.0737 0.3234,-0.1493 0.4843,-0.22656 l 0.014,-0.008 23.4004,-11.19727 0.07,-0.0332 a 8.50085,8.50085 0 0 0 0.1,-0.11133 c 6.6049,-3.19072 10.3188,-8.12207 11.8008,-10.24414 2.104,-3.01256 3.5873,-6.01825 4.7149,-8.875 1.1232,-2.84602 2.1093,-6.08475 2.621,-9.79492 0.021,-0.15183 0.01,-0.60203 0.033,-0.7832 2.0929,1.81939 4.2702,3.46259 6.5332,4.7871 5.9548,3.48536 14.9566,6.8818 25.5722,4.65235 12.4569,-2.61619 21.3948,-12.55811 24.3731,-24.13672 3.2315,-12.56392 -2.002,-23.29713 -7.2852,-29.71484 -1.7177,-2.08664 -3.6715,-3.93222 -5.7559,-5.61914 0.8395,-5.7498 0.1503,-11.39752 -1.539,-16.35743 a 8.50085,8.50085 0 0 0 0,-0.002 L 821.4763,583.2826 c -6.3208,-18.53914 -32.1883,-22.14434 -43.3359,-6.03906 a 8.50085,8.50085 0 0 0 0,0.002 l -4.5489,6.57422 c -2.2938,3.31506 -4.1027,6.82293 -5.6797,10.4043 -0.4722,-1.03923 -0.4396,-1.0529 -1.0195,-2.25977 -1.2083,-2.51446 -2.793,-8.39044 -9.9668,-15.50586 -5.7091,-5.66291 -12.5728,-6.99199 -15.7734,-7.34375 -0.7438,-0.70913 -1.2874,-1.29099 -2.2246,-2.0996 -2.1164,-1.82614 -6.5481,-6.35015 -10.6192,-10.44532 6.973,-14.11519 6.7656,-33.53418 -1.3633,-57.0332 -10.6773,-30.8648 -37.7962,-44.53158 -59.4746,-45.01563 z m -43.0293,92.00391 c 1.0506,2.37561 2.3594,5.36461 3.5371,8.03516 -6.8417,-2.2654 -14.432,-2.22261 -21.4277,0.8125 l -0.5176,-1.04492 a 16.0016,16.0016 0 0 0 0.6699,-0.10743 l 14.6817,-6.0039 a 16.0016,16.0016 0 0 0 3.0566,-1.69141 z m 84.3555,19.1543 c -0.8622,0.90662 -1.3733,0.85535 -0.8047,0.55273 0.2904,-0.15456 0.5205,-0.38952 0.8047,-0.55273 z m 8.373,65.88867 c 0.06,0.02 0.1173,0.0506 0.1778,0.0703 -0.081,0.0157 -0.1497,0.0353 -0.2305,0.0508 0.019,-0.0364 0.034,-0.0845 0.053,-0.12109 z M 486.072,664.7201 c -0.8616,0.90584 -1.3742,0.85481 -0.8066,0.55274 0.2905,-0.15481 0.522,-0.38925 0.8066,-0.55274 z m 275.1269,3.76367 -0.3203,1.67188 -0.5976,-1.20898 z m -221.0371,34.32422 0.01,0.006 -0.086,0.11328 c 0.028,-0.0349 0.051,-0.0821 0.078,-0.11914 z m 234.5528,62.6875 0.022,0.01 c -0.019,0.0263 -0.038,0.0565 -0.062,0.10547 0.012,-0.0261 0.027,-0.0728 0.041,-0.11524 z" /></g><g
       inkscape:groupmode="layer"
       id="g101"
       inkscape:label="TextWhite"
       inkscape:export-filename="title-logo.png"
       inkscape:export-xdpi="96"
       inkscape:export-ydpi="96"
       style="display:inline"><path
         id="path102"
         style="color:#000000;display:inline;fill:#ffffff;stroke-linecap:round;stroke-linejoin:round;stroke-miterlimit:3.1;-inkscape-stroke:none;paint-order:markers stroke fill"
         d="m 667.2693,463.01893 c -1.236,-0.0276 -2.4367,-0.0144 -3.5997,0.0312 -4.3511,0.17088 -8.421,0.80409 -12.1875,1.81445 -14.1238,3.78931 -24.5307,11.53752 -30.2519,13.25 -5.3102,1.58949 -15.5156,3.16797 -15.5156,3.16797 a 16.0016,16.0016 0 0 0 -12.9414,11.70899 c -0.4881,0.0326 -0.9773,0.0439 -1.4629,0.10351 -4.8326,0.5926 -4.6352,1.25822 -5.3242,1.58789 -0.6892,0.32975 -1.1004,0.55727 -1.5157,0.78711 -0.8305,0.45968 -1.5917,0.90671 -2.5156,1.44336 -1.8478,1.0733 -4.2472,2.46208 -7.2598,4.07422 -6.0252,3.22428 -14.4339,7.29619 -24.4902,10.80078 -6.4748,2.25649 -12.2059,5.42538 -17.168,8.44141 -6.1947,3.7651 -7.1577,6.35728 -8.9804,8.7539 -0.3478,0.45724 -0.2981,0.43446 -0.6055,0.85743 -0.01,4.1e-4 -0.018,-0.002 -0.027,-0.002 -4.5361,0.20391 -9.0025,1.21532 -13.4864,2.80274 -15.5906,5.51943 -25.6132,10.14736 -34.8183,13.58789 -4.3946,1.64252 -13.7715,4.74609 -13.7715,4.74609 a 16.0016,16.0016 0 0 0 -10.4844,11.69336 c -2.1479,-0.32742 -4.2717,-0.56194 -6.3086,-0.60742 -1.2131,-0.0271 -2.413,-0.0172 -3.5996,0.0293 -4.3581,0.17113 -8.4284,0.80796 -12.1875,1.8164 -14.1221,3.78874 -24.5293,11.53498 -30.2519,13.24805 -5.312,1.59 -15.5215,3.16992 -15.5215,3.16992 a 16.0016,16.0016 0 0 0 -7.8047,3.4082 c -10.4342,-9.41027 -22.9449,-16.11906 -37.9571,-16.76367 -6.96992,-0.29929 -14.18123,0.79736 -21.28123,3.24805 -13.9562,4.8172 -23.60973,16.46376 -28.13282,28.76172 -4.52305,12.29795 -5.26483,25.56585 -4.4375,39.0039 1.65475,26.8762 9.98977,54.7309 18.24219,74.19922 7.16491,16.90281 16.87321,39.07974 32.32423,56.30274 7.72553,8.6115 17.19603,16.20642 29.11723,19.99023 11.9211,3.78386 25.9294,2.96535 39.2168,-3.0625 12.1286,-5.50214 20.9647,-15.27673 25.9472,-26 0.3042,-0.65465 0.4876,-1.33751 0.7676,-1.99804 1.5626,1.47286 3.4664,2.8173 5.8281,3.76562 5.0024,2.00867 11.0388,1.36702 15.043,-0.43945 a 16.0016,16.0016 0 0 0 0.3262,-0.15235 l 28.6465,-13.70898 -0.3301,0.1543 c 8.3156,-3.74941 10.2116,-7.5215 13.4726,-12.31055 0.8705,-1.27818 1.6932,-2.63331 2.461,-4.11524 7.4382,2.46931 15.6122,2.41225 23.2129,-0.36718 a 16.0016,16.0016 0 0 0 2.164,-0.98047 l 12.8887,-7.02735 a 16.0016,16.0016 0 0 0 2.3867,-1.64648 c 1.4877,-0.3802 2.9862,-0.86841 4.4981,-1.58984 8.0461,-3.83983 27.5022,-13.0535 38.7636,-20.26953 4.2129,-2.69941 7.6766,-6.08196 10.459,-9.77735 0.3525,0.24751 0.7007,0.47919 1.0918,0.71289 0.3434,1.61351 0.8031,3.16713 1.4727,4.47266 3.644,7.10503 8.2947,8.9185 12.1328,10.62891 1.2309,0.54853 2.4985,0.95415 3.7559,1.39453 l 35.6835,88.93945 a 16.0016,16.0016 0 0 0 0.022,0.0547 c 2.2839,5.63321 5.9504,13.04874 13.9375,19.22461 7.9871,6.17582 22.1842,8.89576 34.2149,3.39257 l -0.8203,0.34766 57.9043,-22.68555 a 16.0016,16.0016 0 0 0 1.2129,-0.53515 c 3.5154,-1.72544 6.6775,-4.31347 9.2539,-7.31055 3.3727,0.20463 6.7211,-0.36558 9.2011,-1.48437 a 16.0016,16.0016 0 0 0 0.3262,-0.15235 l 23.4844,-11.23828 -0.3301,0.1543 c 5.4186,-2.44318 7.2512,-5.30278 8.9316,-7.70899 1.6805,-2.40616 2.8231,-4.71123 3.7774,-7.1289 0.9542,-2.41771 1.7002,-4.88321 2.1074,-7.83594 0.4072,-2.95273 1.089,-6.45374 -1.5977,-12.18359 a 16.0016,16.0016 0 0 0 -0.1601,-0.33008 l -13.6211,-27.39844 7.918,-5.5332 -1.6465,1.00781 c 2.5513,-1.35798 4.6985,-3.15899 6.6523,-5.15625 0.4254,0.90363 1.3274,2.98884 1.6875,3.73242 2.1353,4.40814 3.8419,7.45626 7.5821,9.87891 -3.6773,7.19348 -2.5136,16.05614 0.1543,21.17383 3.0712,5.8915 7.2709,9.68787 12.3125,12.63867 5.0416,2.95076 11.3616,5.38568 19.5312,3.66992 8.1696,-1.71576 15.8265,-9.9184 17.8887,-17.93555 2.4295,-9.44575 -1.3468,-17.01016 -5.6153,-22.19531 -2.4522,-2.97889 -5.4027,-5.44803 -8.7929,-7.40039 2.1482,-5.78361 1.7946,-12.01497 0.016,-17.23828 L 813.4228,586.02471 a 16.0016,16.0016 0 0 0 -28.3027,-3.94336 l -4.5489,6.57422 c -6.4076,9.26054 -9.5428,19.71506 -9.3711,30.30859 -3.0178,-0.6986 -5.9963,-1.18942 -8.7968,-1.25195 -0.4252,-0.009 -0.8172,0.0105 -1.2305,0.0117 a 16.0016,16.0016 0 0 0 1.3477,-14.76953 c 0,0 -1.431,-3.41734 -3.3008,-7.3086 -1.8698,-3.89121 -2.0583,-6.97036 -8.291,-13.15234 -5.0307,-4.99001 -9.3651,-4.9339 -11.8184,-5.05664 -0.6644,-0.0332 -0.8924,0.0774 -1.4355,0.0898 -1.2629,-1.26275 -2.5602,-2.56582 -4.3106,-4.07617 -3.663,-3.16063 -9.2125,-8.86435 -15.7832,-15.49804 8.4427,-11.19165 10.2438,-29.84079 1.3203,-55.63672 -9.4755,-27.39075 -33.3486,-38.88866 -51.6308,-39.29688 z m 41.5156,102.66016 c -0.8622,0.90662 -1.3733,0.85535 -0.8047,0.55273 0.2904,-0.15456 0.5205,-0.38952 0.8047,-0.55273 z m 8.373,65.88867 c 0.06,0.02 0.1173,0.0506 0.1778,0.0703 -0.081,0.0157 -0.1497,0.0353 -0.2305,0.0508 0.019,-0.0364 0.034,-0.0845 0.053,-0.12109 z m 115.9434,58.35937 c 0.4709,0.34499 0.3115,0.81194 1.1074,2.45508 -0.1997,-0.41231 -0.8696,-1.95206 -1.1074,-2.45508 z M 540.8161,701.8119 c 0,0.008 -0.01,0.15688 -0.01,0.1582 l -0.7227,0.95703 c 0.265,-0.32739 0.4807,-0.75529 0.7324,-1.11523 z m 234.002,63.55469 c -0.06,0.13154 -0.088,0.13086 -0.1445,0.24414 0.018,-0.0389 0.043,-0.13141 0.06,-0.17188 0.01,-0.004 -4e-4,-0.007 0.01,-0.0117 0.019,-0.0152 0.055,-0.0452 0.074,-0.0605 z" /></g><g
       inkscape:groupmode="layer"
       id="layer68"
       inkscape:label="TextInner"
       inkscape:export-filename="title-logo.png"
       inkscape:export-xdpi="96"
       inkscape:export-ydpi="96"
       style="display:inline"><path
         id="path25"
         style="display:inline;opacity:1;fill:url(#linearGradient150);stroke-width:3.77953;stroke-linecap:round;stroke-linejoin:round;stroke-miterlimit:3.1;paint-order:markers stroke fill"
         d="m 798.2771,591.18495 -4.5489,6.57422 c -6.3163,9.12854 -7.875,24.79284 -3.457,34.97656 9.3794,21.62003 24.3266,55.86336 29.5371,66.62109 0.9032,1.86464 3.2094,4.23457 5.1953,4.77344 6.7429,1.82962 10.6208,-3.33546 8.334,-10.04688 z m -36.2325,42.52343 c -0.7256,-0.0162 -1.4422,-0.008 -2.1445,0.0195 -2.5932,0.1018 -5.0086,0.48633 -7.1055,1.04882 -7.3377,1.96838 -16.2858,8.31913 -24.4394,10.75977 -6.0824,1.82061 -14.6641,3.02148 -14.6641,3.02148 0,0 1.2353,6.01784 3.043,7.81836 1.5733,1.56675 4.0408,3.38024 6.5176,5.03907 4.4944,3.01007 10.0993,9.0477 12.2383,13.86914 7.3434,16.55358 23.2926,52.69386 31.7363,73.26757 1.3624,3.31976 -5.663,5.3533 -6.5313,8.72657 -0.544,2.1133 -3.8545,6.84118 -2.9902,9.00195 -1.0018,2.5187 0.3987,6.67972 3.5938,5.23828 l 23.4843,-11.23828 c 3.2157,-1.44991 6.7561,-10.39153 5.3086,-13.47852 l -17.2519,-34.70117 a 6.5335566,6.5335566 0 0 1 2.1074,-8.26367 l 14.6035,-10.20508 c 4.0183,-2.13883 11.1932,-12.02913 2.7168,-36.5332 -6.1374,-17.74112 -19.3375,-23.14758 -30.2227,-23.39063 z m -68.0878,13.7793 c -2.1954,-0.0331 -4.4348,0.36361 -6.5977,1.24024 l -12.9297,5.24023 c -10.0674,3.19119 -16.7869,6.82137 5.7949,14.29688 l 33.1582,89.55273 c 0,0 -30.0066,16.37723 -34.748,3.48828 -10.0487,-27.31611 -20.1353,-53.23095 -30.832,-79.87695 -3.1786,-7.91754 -12.1888,-11.72824 -20.0957,-8.52344 l -14.2774,5.78711 c -13.3552,6.12504 -9.4081,10.82281 5.7949,14.29687 l 38.5782,96.15235 c 3.201,7.89543 11.6313,20.95631 26.6679,14.07812 l 57.9043,-22.68554 c 13.7897,-6.76747 5.7284,-26.93445 -1.5683,-44.9375 l -31.4336,-77.55274 c -2.6299,-6.48861 -8.8299,-10.45736 -15.416,-10.55664 z m 69.0468,10.88477 c 2.7372,-0.0872 5.3289,0.21558 7.1114,1.27343 3.4561,2.05107 6.053,9.72075 5.3984,13.55274 -0.6466,3.78584 -5.2624,7.28591 -9.0957,9.58789 -2.8241,1.6959 -6.3667,0.40915 -7.6856,-2.50586 l -6.7382,-14.88672 c -1.1579,-2.55898 0.1687,-5.339 3.0273,-5.95117 2.3624,-0.50582 5.245,-0.98308 7.9824,-1.07031 z m 72.5,59.85547 c -2.9679,-0.0243 -6.4867,2.91389 -7.9961,4.81054 -6.4581,8.11518 15.9176,24.11058 19.8731,8.73242 1.3226,-5.14219 -4.257,-11.8187 -10.9766,-13.43554 -0.2924,-0.0704 -0.5933,-0.10491 -0.9004,-0.10742 z" /><path
         id="path107"
         style="display:inline;opacity:1;fill:url(#linearGradient148);stroke:none;stroke-width:3.77953;stroke-linecap:round;stroke-linejoin:round;stroke-miterlimit:3.1;paint-order:markers stroke fill"
         d="m 666.9118,479.01503 c -0.8851,-0.0198 -1.7585,-0.0102 -2.6152,0.0234 -3.1631,0.12421 -6.1104,0.59318 -8.668,1.2793 -8.9506,2.40102 -19.8647,10.14791 -29.8105,13.125 -7.4192,2.22076 -17.8867,3.68555 -17.8867,3.68555 0,0 1.5079,7.34084 3.7129,9.53711 1.919,1.9111 4.9279,4.12304 7.9492,6.14648 5.4823,3.6717 12.3186,11.03679 14.9277,16.91797 8.9575,20.19198 28.4115,64.27538 38.7109,89.37109 1.6619,4.04941 -6.9056,6.52985 -7.9648,10.64453 -0.6637,2.57781 -4.7026,8.34281 -3.6484,10.97852 -1.2219,3.0723 0.4873,8.15084 4.3847,6.39258 l 28.6465,-13.71094 c 3.9225,-1.7686 11.1465,-11.19349 9.3809,-14.95898 l -19.3731,-35.95118 31.1426,30.25782 c 5.1565,4.48651 12.5393,5.80966 19.0742,3.41992 l 12.8907,-7.02735 c 0,0 -5.2129,-12.42393 -8.1055,-15.29296 -1.1233,-1.11423 -5.4432,0.19178 -7.0664,0.5 -1.8579,0.35276 -2.113,-2.25673 -9.6836,-8.78907 -6.5037,-5.61176 -14.002,-13.95889 -24.8301,-24.49023 -3.8896,-3.78287 -2.4514,-6.39182 2.3828,-8.96485 4.9016,-2.60891 13.6561,-14.67253 3.3164,-44.5625 -7.4863,-21.64051 -23.5894,-28.23478 -36.8672,-28.53124 z m -72.5742,29.88476 c -0.3626,0.007 -0.7222,0.0325 -1.0781,0.0762 -1.1338,0.13896 -15.645,10.20465 -37.7891,17.92188 -4.6621,1.62476 -9.7226,4.32928 -14.123,7.0039 -2.7652,1.68069 -7.0371,8.27539 -7.0371,8.27539 l 13.9551,1.9375 c 5.9362,0.824 12.7052,3.03429 15.2734,8.61719 14.3071,31.10068 42.6571,91.61123 36.6562,94.88086 -4.0674,2.21605 -6.0922,32.27884 -0.3144,28.36719 l 7.0508,-4.77344 42.5996,-20.15625 c 6.6743,-3.15769 9.6516,-11.24696 6.7011,-18.19922 l -4.4199,-10.41992 -20.2344,10.23828 c -3.3766,1.70782 -7.4659,0.22205 -9.0722,-3.29492 l -7.2949,-15.97266 c -2.3183,-5.07744 -0.2626,-11.1191 4.6191,-13.57031 6.1436,-3.08563 14.3048,-3.12103 18.4316,-9.25586 l -6.541,-13.39648 c -3.5071,-7.18326 -11.8468,-10.30066 -18.9804,-7.09571 l -7.084,3.1836 c -3.7138,1.66821 -8.0565,0.0639 -9.9082,-3.66211 l -10.7364,-21.5957 c -1.6436,-3.30561 -0.2733,-7.34624 3.0059,-8.86329 0,0 3.3015,-2.32526 5.2031,-2.4082 2.6129,-0.1139 7.4141,2.67383 7.4141,2.67383 l 14.6816,-6.00391 -7.6425,-15.45507 c -1.8722,-5.20387 -7.8974,-9.15503 -13.336,-9.05274 z m 75.041,2.95313 c 3.3388,-0.10638 6.4997,0.2643 8.6739,1.55468 4.2158,2.50188 7.3843,11.85703 6.5859,16.53125 -0.7888,4.61798 -6.4198,8.88737 -11.0957,11.69532 -3.4447,2.06864 -7.7663,0.49906 -9.375,-3.05664 l -8.2188,-18.15821 c -1.4123,-3.12143 0.2044,-6.51109 3.6915,-7.25781 2.8813,-0.61701 6.3992,-1.20219 9.7382,-1.30859 z m -145.2363,33.9707 c -2.6154,0.11757 -5.5343,0.72115 -8.8652,1.90039 -14.9553,5.29455 -24.5839,9.76667 -34.5567,13.49414 -5.1082,1.90926 -14.375,4.95703 -14.375,4.95703 0,0 3.3039,9.36389 6.3535,11.90039 4.3617,3.62777 12.9037,0.002 15.6426,6.70703 12.1104,29.64631 33.3683,82.332 39.5332,97.61914 1.7042,4.45403 2.3761,7.27233 -0.2265,10.4668 -2.6239,3.79312 -2.6861,7.44139 -0.4414,10.36523 1.2218,1.5913 3.6856,2.18833 5.496,1.32422 7.8944,-3.76739 27.9568,-13.49448 37.0215,-19.30273 15.352,-9.83684 11.9064,-25.77422 11.4903,-41.71875 -0.6224,-23.84613 -15.5387,-61.1275 -31.1114,-79.19727 -8.9741,-10.41313 -14.6276,-19.02508 -25.9609,-18.51562 z m -79.9453,32.23437 c -0.8852,-0.0198 -1.7586,-0.0121 -2.6152,0.0215 -3.1631,0.12421 -6.1104,0.59513 -8.668,1.28125 -8.9506,2.40102 -19.8648,10.14597 -29.8106,13.12304 -7.4192,2.22076 -17.8886,3.68751 -17.8886,3.6875 0,0 1.5079,7.33889 3.7129,9.53516 1.919,1.91112 4.9298,4.125 7.9511,6.14844 5.4823,3.6717 12.3187,11.03485 14.9278,16.91601 8.9575,20.19198 28.4113,64.27537 38.7109,89.3711 1.6619,4.04939 -6.9076,6.52983 -7.9668,10.64453 -0.6637,2.57781 -4.7007,8.34476 -3.6465,10.98047 -1.2219,3.0723 0.4854,8.14888 4.3828,6.39062 l 28.6465,-13.70898 c 3.9225,-1.7686 11.1484,-11.19543 9.3828,-14.96094 l -19.373,-35.95117 31.1426,30.25781 c 5.1565,4.48653 12.5393,5.80966 19.0742,3.41992 l 12.8887,-7.02734 c 0,0 -5.2129,-12.42197 -8.1055,-15.29102 -1.1233,-1.11421 -5.4432,0.19178 -7.0664,0.5 -1.8579,0.35276 -2.1111,-2.25869 -9.6817,-8.79101 -6.5037,-5.61178 -14.0021,-13.95694 -24.83,-24.48828 -3.8896,-3.78287 -2.4514,-6.39377 2.3828,-8.9668 4.9016,-2.60893 13.6541,-14.6706 3.3144,-44.56055 -7.4863,-21.64051 -23.5875,-28.23477 -36.8652,-28.53125 z m 80.0937,2.26368 c 0.7915,-0.0488 1.5621,0.0632 2.2891,0.40039 10.7572,4.9885 17.2175,21.90471 23.8809,36.55078 2.9682,6.52392 7.0135,17.90569 4.6347,24.6582 -3.5322,7.98894 -7.9157,20.55979 -15.5332,5.99805 -7.4125,-16.21508 -18.7611,-42.02124 -25.4551,-56.46289 -2.2778,-4.91416 -0.5986,-5.66037 3.1075,-8.0293 2.1396,-1.36771 4.7016,-2.96889 7.0761,-3.11523 z m -187.7441,2.63281 c -4.87344,-0.20926 -9.99441,0.53146 -15.37503,2.38867 -36.63732,12.64592 -19.94477,84.91092 -4.81836,120.5957 14.03329,33.10596 38.20169,83.55694 79.31839,64.9043 34.3868,-15.59961 23.8706,-71.13373 11.707,-101.62109 -14.6928,-36.82671 -36.7181,-84.80276 -70.832,-86.26758 z m 110.1152,27.9414 c 3.3388,-0.10638 6.4997,0.26431 8.6739,1.55469 4.2158,2.50188 7.3863,11.85703 6.5879,16.53125 -0.7888,4.61798 -6.4218,8.88541 -11.0977,11.69336 -3.4447,2.06866 -7.7644,0.50103 -9.3731,-3.05469 l -8.2187,-18.16015 c -1.4123,-3.12143 0.2043,-6.51111 3.6914,-7.25781 2.8815,-0.61701 6.3973,-1.20025 9.7363,-1.30665 z m -98.6386,30.68555 c 10.4401,-0.39952 19.3967,17.78099 25.5976,31.79883 5.1334,11.60486 10.9443,33.07475 1.2246,40.17187 -11.6218,8.48613 -21.3446,-10.60167 -27.1699,-23.17968 -6.2788,-13.55783 -14.75567,-41.41257 -4.2129,-47.41602 1.5484,-0.88168 3.0691,-1.31792 4.5606,-1.375 z" /><path
         style="fill:#ffffff;stroke-width:1;stroke-linejoin:round;stroke-miterlimit:3.1;paint-order:markers stroke fill"
         d="m 310.44112,625.42846 c 0.55921,11.80811 4.0778,19.91227 4.0778,19.91227 11.58169,11.07815 2.11632,-22.60367 10.97414,-36.76475 3.89077,-6.22022 24.21037,-0.19563 24.21037,-0.19563 8.34051,3.97167 -0.0934,-9.71876 -12.14032,-13.69014 -20.51475,-6.76286 -27.86706,15.00556 -27.12199,30.73825 z"
         id="path2"
         sodipodi:nodetypes="scscss" /><path
         style="fill:#ffffff;stroke-linejoin:round;stroke-miterlimit:3.1;paint-order:markers stroke fill"
         d="m 655.63888,461.38148 -15.62268,3.15539 a 3.0529509,3.0529509 107.59261 0 0 -1.61393,5.09002 l 3.06182,3.23823 a 4.7631964,4.7631964 178.44869 0 0 7.09414,-0.19213 l 8.10414,-9.5583 a 1.0653392,1.0653392 59.437372 0 0 -1.02349,-1.73321 z"
         id="path3"
         sodipodi:nodetypes="cccc"
         inkscape:path-effect="#path-effect18"
         inkscape:original-d="m 658.64704,460.77391 -24.02698,4.85285 10.49837,11.10324 z"
         transform="translate(-12.452098,35.340451)" /><path
         style="fill:#ffffff;stroke-width:0.999999;stroke-linejoin:round;stroke-miterlimit:3.1;paint-order:markers stroke fill"
         d="m 570.55943,651.43118 c -0.98882,5.17301 -3.6356,9.00844 -5.61953,13.218 -2.17157,4.60771 -13.12838,13.4158 -13.3189,18.50603 -0.0871,2.32627 6.69825,-0.0769 9.96098,-1.6481 4.82247,-2.32225 10.64329,-5.89879 12.57721,-10.88968 3.4738,-8.9649 2.06615,-48.82772 -3.59976,-19.18625 z"
         id="path37"
         sodipodi:nodetypes="ssssss" /></g><path
       style="fill:#ffffff;stroke-linejoin:round;stroke-miterlimit:3.1;paint-order:markers stroke fill"
       d="m 660.21371,775.10502 c 0,0 7.02106,20.82915 15.9144,21.06318 8.89335,0.23404 22.70143,-2.34035 20.12704,-6.55299 -2.57439,-4.21263 -11.9358,4.91474 -19.65897,-3.74456 -7.72316,-8.65931 -18.02072,-21.06318 -17.55265,-16.85055 0.46807,4.21264 1.17018,6.08492 1.17018,6.08492 z"
       id="path38" /></g></svg>
