<?xml version="1.0" encoding="UTF-8" standalone="no"?>
<!-- Created with Inkscape (http://www.inkscape.org/) -->

<svg
   width="19.255316mm"
   height="17.014362mm"
   viewBox="0 0 19.255316 17.014362"
   version="1.1"
   id="svg1"
   inkscape:version="1.3 (0e150ed6c4, 2023-07-21)"
   sodipodi:docname="particle_01.svg"
   xmlns:inkscape="http://www.inkscape.org/namespaces/inkscape"
   xmlns:sodipodi="http://sodipodi.sourceforge.net/DTD/sodipodi-0.dtd"
   xmlns="http://www.w3.org/2000/svg"
   xmlns:svg="http://www.w3.org/2000/svg">
  <sodipodi:namedview
     id="namedview1"
     pagecolor="#ffffff"
     bordercolor="#000000"
     borderopacity="0.25"
     inkscape:showpageshadow="2"
     inkscape:pageopacity="0.0"
     inkscape:pagecheckerboard="0"
     inkscape:deskcolor="#d1d1d1"
     inkscape:document-units="mm"
     inkscape:zoom="0.65834035"
     inkscape:cx="-194.42831"
     inkscape:cy="-157.21351"
     inkscape:window-width="1920"
     inkscape:window-height="974"
     inkscape:window-x="-11"
     inkscape:window-y="-11"
     inkscape:window-maximized="1"
     inkscape:current-layer="svg1" />
  <defs
     id="defs1">
    <pattern
       id="EMFhbasepattern"
       patternUnits="userSpaceOnUse"
       width="6"
       height="6"
       x="0"
       y="0" />
  </defs>
  <g
     inkscape:groupmode="layer"
     id="layer3"
     inkscape:label="Layer 2"
     transform="translate(-67.138066,-126.0716)">
    <g
       inkscape:groupmode="layer"
       id="layer4"
       inkscape:label="Layer 3">
      <path
         style="opacity:1;fill:#fbebb6;fill-opacity:1;stroke-width:2.117;stroke-linejoin:round;stroke-miterlimit:3.1;paint-order:markers stroke fill"
         d="m 83.265411,132.78417 c 0,0 0.532842,-3.5878 -0.426273,-4.40482 -0.959117,-0.81702 -6.109919,-0.74598 -7.708445,-0.24866 -1.598525,0.49732 -3.516757,1.49196 -4.156167,2.30898 -0.639411,0.81702 -1.491956,5.6126 -1.491956,5.6126 0,0 -1.847186,1.70509 -1.420911,3.19705 0.426273,1.49196 1.527479,1.77614 1.527479,1.77614 0,0 4.475872,-0.67493 5.612601,0.071 1.13673,0.74598 -0.461798,1.45643 3.481232,1.13673 3.94303,-0.31971 6.713807,-2.20242 6.35858,-5.79022 -0.35523,-3.5878 -1.77614,-3.65885 -1.77614,-3.65885 z"
         id="path8" />
      <path
         style="opacity:1;fill:#e6c07e;fill-opacity:1;stroke-width:2.117;stroke-linejoin:round;stroke-miterlimit:3.1;paint-order:markers stroke fill"
         d="m 82.412863,133.42358 c 0,0 -1.029237,-0.34628 -1.757672,-0.0197 -0.728433,0.32653 -1.306156,2.21042 -1.657813,2.10994 -0.351658,-0.10047 -3.667287,-1.85876 -4.471078,-0.92938 -0.803788,0.92938 -1.306155,2.08483 -0.753551,3.06445 0.552606,0.97961 0.728435,1.2308 0.678198,1.70805 -0.05024,0.47725 -0.175829,1.10521 -0.175829,1.10521 0,0 -0.07536,0.60284 2.361129,1.53222 2.436487,0.92938 6.857325,-1.88388 6.857325,-1.88388 0,0 -0.427014,-2.05971 -1.029856,-2.63743 -0.60284,-0.57773 0.351657,-3.44122 0.351657,-3.44122 z"
         id="path9" />
    </g>
    <g
       inkscape:groupmode="layer"
       id="g2"
       inkscape:label="Layer 3">
      <path
         style="opacity:1;fill:#111b09;fill-opacity:1;stroke-width:2.117;stroke-linejoin:round;stroke-miterlimit:3.1;paint-order:markers stroke fill"
         d="m 70.370638,135.76809 c 0,0 -3.090481,2.13137 -1.776137,3.83646 1.314341,1.70509 5.648121,0.24866 6.180963,0.53284 0.532842,0.28418 1.563005,1.31435 2.770777,1.66957 1.207776,0.35523 6.429627,-1.49195 6.50067,-4.54691 0.07105,-3.05496 -2.237933,-2.09585 -2.699732,-3.65885 -0.461795,-1.563 0.817026,-1.98928 1.705094,-1.66957 0.888072,0.3197 4.528683,2.35152 2.948393,6.32305 -1.117411,2.80824 -2.697005,4.79459 -7.672922,4.8311 -2.58899,0.019 -3.339142,-1.45643 -3.800938,-1.42091 -0.461796,0.0355 -5.577078,1.31434 -6.820376,-0.99464 -1.243296,-2.30898 -0.14209,-3.9075 0.426275,-4.33378 0.568362,-0.42627 1.705092,-0.99463 1.705092,-0.99463 z"
         id="path6"
         sodipodi:nodetypes="cssssssssssscc" />
      <path
         style="opacity:1;fill:#111b09;fill-opacity:1;stroke-width:2.117;stroke-linejoin:round;stroke-miterlimit:3.1;paint-order:markers stroke fill"
         d="m 70.157503,135.73257 c -0.284258,-3.44925 1.654087,-7.11444 5.399463,-7.3177 0.319704,0.10657 1.918229,0.42628 3.410188,0.28418 1.491957,-0.14209 1.740617,-0.49731 2.877344,0.24866 1.136729,0.74598 0.888071,3.01944 0.888071,3.01944 l 1.065684,0.63941 c 0,0 1.314341,-4.26273 -1.349867,-5.64812 -2.191702,-1.35055 -3.868988,-1.00155 -5.932305,0 0,0 -3.019436,-0.28418 -4.511395,0.99464 -1.491956,1.27882 -2.84182,3.09048 -3.161527,4.51139 -0.319704,1.42091 0.603888,3.30362 0.603888,3.30362 z"
         id="path7"
         sodipodi:nodetypes="csssccscsscc" />
    </g>
  </g>
</svg>
