<?xml version="1.0" encoding="UTF-8" standalone="no"?>
<!-- Created with Inkscape (http://www.inkscape.org/) -->

<svg
   width="80.793098mm"
   height="69.402397mm"
   viewBox="0 0 80.793099 69.402397"
   version="1.1"
   id="svg1"
   inkscape:version="1.3 (0e150ed6c4, 2023-07-21)"
   sodipodi:docname="rice_0.svg"
   xmlns:inkscape="http://www.inkscape.org/namespaces/inkscape"
   xmlns:sodipodi="http://sodipodi.sourceforge.net/DTD/sodipodi-0.dtd"
   xmlns="http://www.w3.org/2000/svg"
   xmlns:svg="http://www.w3.org/2000/svg">
  <sodipodi:namedview
     id="namedview1"
     pagecolor="#ffffff"
     bordercolor="#000000"
     borderopacity="0.25"
     inkscape:showpageshadow="2"
     inkscape:pageopacity="0.0"
     inkscape:pagecheckerboard="0"
     inkscape:deskcolor="#d1d1d1"
     inkscape:document-units="mm"
     inkscape:zoom="1.8620677"
     inkscape:cx="100.96303"
     inkscape:cy="84.046353"
     inkscape:window-width="1920"
     inkscape:window-height="974"
     inkscape:window-x="-11"
     inkscape:window-y="-11"
     inkscape:window-maximized="1"
     inkscape:current-layer="layer16" />
  <defs
     id="defs1" />
  <g
     inkscape:groupmode="layer"
     id="layer12"
     inkscape:label="Nasi 0"
     style="display:inline"
     inkscape:export-filename="rice_0.svg"
     inkscape:export-xdpi="96"
     inkscape:export-ydpi="96"
     transform="translate(-97.955121,-67.431407)">
    <g
       inkscape:groupmode="layer"
       id="layer15"
       inkscape:label="Nasi 0 F"
       style="display:inline">
      <path
         style="opacity:1;fill:#ece9d6;fill-opacity:1;stroke-width:2.117;stroke-linejoin:round;stroke-miterlimit:3.1;paint-order:markers stroke fill"
         d="m 163.04959,119.14342 c 0,0 -2.62869,-0.35522 -9.59115,0.49732 -6.96247,0.85255 -10.65684,1.27882 -17.61931,-1.70509 -6.96246,-2.98391 9.52011,-1.27882 -9.5201,-6.96247 -19.04022,-5.68364 -18.75603,-5.25737 -20.46113,-8.38337 -1.70509,-3.126009 4.26274,-2.41555 -1.13673,-6.678287 -5.399461,-4.262734 -8.809647,-1.420913 -5.399461,-7.815013 3.410191,-6.394101 -0.852546,-7.246649 -0.852546,-7.246649 0,0 6.252007,-1.13673 4.546917,-4.404826 -1.70509,-3.268096 -2.84182,-5.683644 -2.84182,-5.683644 0,0 -1.509173,-1.987204 0.5003,-2.439334 2.00947,-0.452133 3.31563,-0.251185 3.46634,0.351658 0.15071,0.602839 0.85403,1.004734 0.85403,1.004734 l -0.30143,0.703315 c 0,0 0.75356,-1.004734 2.10995,0.150712 1.35639,1.155446 1.70805,1.406631 1.70805,1.406631 0,0 1.55734,-3.365868 2.91373,-2.210419 1.3564,1.155446 1.65782,1.959234 1.65782,1.959234 0,0 0.20095,-0.703315 1.10521,-0.200948 0.90426,0.502369 1.05497,1.004736 1.05497,1.004736 0,0 1.30616,-2.963971 2.81326,-2.210419 1.50711,0.753552 1.50711,0.552606 1.50711,0.753552 0,0.200948 -0.35166,1.507104 -0.35166,1.507104 0,0 -0.20095,0.301421 1.15545,0.251184 1.35639,-0.05024 1.95923,0.401895 1.95923,0.401895 l 1.10521,-0.703316 c 0,0 1.65782,0.150712 1.909,0.05024 0.25119,-0.100473 3.51658,-0.703316 3.51658,-0.703316 0,0 3.66728,-3.315628 5.12415,-2.109943 1.45687,1.205682 1.45687,1.105209 1.00474,1.758286 -0.45213,0.653079 -1.20569,1.858764 -1.70805,2.411367 -0.50237,0.552606 -1.05498,1.306158 -1.05498,1.306158 0,0 -0.25118,0.452131 0.25119,0.653079 0.50236,0.200946 1.85876,-0.452133 2.66255,-0.05024 0.80379,0.401897 0.90426,1.105212 0.90426,1.105212 0,0 0.65308,-0.100475 1.30616,0.150709 0.65308,0.251185 1.00473,0.954501 1.00473,0.954501 l 2.51184,0.401894 c 0,0 -2.05971,-4.018944 -0.0502,-5.526051 2.00947,-1.507103 3.61705,-1.105209 4.21989,-0.753551 0.60284,0.351657 1.5071,1.607579 1.35639,1.858761 -0.15071,0.251185 -0.75355,0.351658 -0.60284,0.653079 0.15071,0.301421 1.75829,0.602842 1.75829,0.602842 l 2.56208,-0.502367 0.40189,1.155446 c 0,0 0.75355,-0.05024 1.65782,0.904262 0.90426,0.9545 0.20094,2.461603 0.20094,2.461603 0,0 0.25119,-0.803788 2.10995,-0.803788 1.85876,0 6.53078,0.703316 6.32984,0.904261 -0.20095,0.200949 -0.4019,2.05971 -0.4019,2.05971 l -0.80379,1.054973 c 0,0 -0.35166,0.552606 0.30142,1.205683 0.65308,0.653079 0.70332,0.803791 0.70332,0.803791 0,0 3.21515,-0.200949 4.57155,0.251182 1.35639,0.452133 1.55734,1.205685 1.55734,1.708052 0,0.502367 0,1.004737 0,1.004737 l -0.65308,0.653078 c 0,0 -1.5071,1.507104 -0.40189,2.21042 1.10521,0.703315 2.66255,0.803788 2.66255,0.803788 0,0 0.20094,-0.9545 1.60757,-0.602843 1.40664,0.351658 2.05971,0.602843 2.05971,0.854028 0,0.251182 -0.30142,1.255919 -0.15071,1.607576 0.15071,0.351658 2.00948,-0.05024 2.46161,0.301422 0.45213,0.351657 2.36113,-0.552604 3.36586,2.612313 1.00474,3.164919 -1.55734,4.872966 -1.55734,4.872966 0,0 1.00474,0.65308 0.85403,1.95924 -0.15071,1.30616 -0.60284,1.80852 -0.60284,1.80852 l -6.83221,0.50237 1.15545,2.71279 c 0,0 1.95923,0.10047 2.96397,1.10521 1.00473,1.00473 1.25592,2.05971 1.25592,2.05971 0,0 -1.05497,3.11468 -1.25592,3.26539 -0.20095,0.15071 -3.46634,2.10995 -3.46634,2.10995 l -4.11942,-0.80379 c 0,0 -1.36372,2.40571 -1.36372,2.5478 0,0.14209 -1.66957,1.1012 -1.66957,1.1012 z"
         id="path24" />
      <path
         style="opacity:1;fill:#abab9b;fill-opacity:1;stroke-width:2.117;stroke-linejoin:round;stroke-miterlimit:3.1;paint-order:markers stroke fill"
         d="m 148.57535,86.306834 c 0,0 -3.06444,-2.185303 -5.12415,-2.310895 -2.05971,-0.125592 -5.75212,0.904264 -4.99856,1.481987 0.75355,0.577723 1.88388,1.582459 5.3251,2.235538 3.44122,0.653077 5.45069,-0.979619 5.12415,-1.054973 -0.32654,-0.07536 -0.32654,-0.351657 -0.32654,-0.351657 z"
         id="path25" />
      <path
         style="opacity:1;fill:#abab9b;fill-opacity:1;stroke-width:2.117;stroke-linejoin:round;stroke-miterlimit:3.1;paint-order:markers stroke fill"
         d="m 158.44689,92.887854 c -0.0126,0.0628 -1.43175,0.766112 -0.65308,1.708052 0.77867,0.941941 1.88388,0.502367 2.13506,0.62796 0.25119,0.125592 0.55261,-0.376777 1.38151,-0.226065 0.82891,0.150709 1.53223,0.427011 1.53223,0.427011 0,0 3.21515,-0.577723 3.46634,-2.260656 0.25118,-1.682932 -4.39572,-1.808525 -4.97345,-1.532223 -0.57772,0.276304 -0.85402,0.803791 -1.43175,0.904264 -0.57772,0.100473 -1.45686,0.351657 -1.45686,0.351657 z"
         id="path26" />
      <path
         style="opacity:1;fill:#abab9b;fill-opacity:1;stroke-width:2.117;stroke-linejoin:round;stroke-miterlimit:3.1;paint-order:markers stroke fill"
         d="m 152.99664,91.915209 c -0.51508,0.479557 -0.90583,0.444034 -1.40315,0.568365 -0.49732,0.12433 -0.51508,0.177614 -0.19538,0.284183 0.31971,0.106567 1.4742,-0.159853 1.81167,0.372989 0.33746,0.532842 0.39075,0.63941 0.39075,0.745977 0,0.106568 -0.2309,0.657172 -0.49732,0.692695 -0.26642,0.03552 -0.44404,0.106569 -0.44404,0.106569 0,0 -1.59852,1.047921 -2.55764,1.065683 -0.95911,0.01775 -2.52212,-0.248658 -3.126,-1.047922 -0.60389,-0.799264 -0.62165,-1.705094 0.26642,-1.811663 0.88807,-0.106569 2.23793,-0.230897 2.22017,-0.39075 -0.0178,-0.159853 -0.2309,-0.337465 0.0711,-0.550603 0.30194,-0.213138 1.36762,-0.976876 2.39779,-0.532842 1.03016,0.444035 1.06568,0.497319 1.06568,0.497319 z"
         id="path27" />
      <path
         style="opacity:1;fill:#abab9b;fill-opacity:1;stroke-width:2.117;stroke-linejoin:round;stroke-miterlimit:3.1;paint-order:markers stroke fill"
         d="m 159.87863,98.740443 c 0,0 0.62797,-0.326541 -0.60284,-0.602843 -1.2308,-0.276301 -5.12415,-0.979617 -6.75685,0.527487 -1.63269,1.507103 0.0251,2.788143 1.88388,2.888613 1.85876,0.10048 2.66255,-1.5071 3.49146,-1.657811 0.82891,-0.150712 1.43175,-0.276302 1.33128,-0.125592 -0.10048,0.150709 -0.92938,0.226065 -0.27631,0.376773 0.65308,0.15071 4.4962,-1.004733 5.35022,-0.854024 0.85403,0.150712 1.80853,0.02511 1.70805,-0.150709 -0.10047,-0.175829 -0.0502,-0.401894 -0.0502,-0.401894 0,0 1.53222,-0.703315 0.77867,-0.904264 -0.75355,-0.200946 -1.40663,0.226065 -1.98435,0.05024 -0.57773,-0.175829 -2.43649,-0.653077 -3.31563,-0.02511 -0.87915,0.627959 -1.45687,1.55734 -1.55735,0.879144 z"
         id="path28" />
      <path
         style="opacity:1;fill:#abab9b;fill-opacity:1;stroke-width:2.117;stroke-linejoin:round;stroke-miterlimit:3.1;paint-order:markers stroke fill"
         d="m 159.65716,104.72117 c 0,0 -3.44571,-1.43867 -4.63572,-1.04792 -1.19002,0.39075 -1.86495,1.0124 -1.43868,1.22554 0.42628,0.21314 2.94839,1.74062 4.76006,1.74062 1.81166,0 1.31434,-1.91824 1.31434,-1.91824 z"
         id="path29" />
      <path
         style="opacity:1;fill:#abab9b;fill-opacity:1;stroke-width:2.117;stroke-linejoin:round;stroke-miterlimit:3.1;paint-order:markers stroke fill"
         d="m 171.00669,107.72285 c 0,0 -1.97151,0.71046 -2.84182,0.97687 -0.87031,0.26643 -0.44403,1.29659 -0.35523,1.31435 0.0888,0.0177 -2.0248,-0.15985 -1.86494,0.46179 0.15985,0.62165 0.95911,1.10121 1.40314,1.19002 0.44404,0.0888 4.56468,0.14209 5.20409,-1.2433 0.63942,-1.38539 0.19538,-2.30898 0.19538,-2.30898 z"
         id="path30" />
      <path
         style="opacity:1;fill:#abab9b;fill-opacity:1;stroke-width:2.117;stroke-linejoin:round;stroke-miterlimit:3.1;paint-order:markers stroke fill"
         d="m 141.06495,95.399695 c 0,0 4.42084,-3.265392 3.46634,-3.968708 -0.9545,-0.703315 -4.01894,-0.803788 -4.01894,-0.803788 0,0 -0.4019,0.150709 -0.70332,-0.100476 -0.30142,-0.251182 2.21042,-1.708049 0.55261,-2.059707 -1.65782,-0.351658 -4.16966,0.251182 -4.16966,0.251182 l -3.818,0.351658 -1.10521,1.456867 -2.00947,1.10521 c 0,0 0.10047,-1.356392 -1.80852,-0.200946 -1.909,1.155446 3.56681,2.461604 3.56681,2.461604 l 1.45687,0.351658 1.85876,1.507103 c 0,0 0.72441,-2.717175 1.31054,-3.232255 0.58612,-0.515081 1.19001,-0.994638 1.27882,-0.834787 0.0888,0.159853 1.22864,0.0481 1.22864,2.208281 0,2.160183 0,2.210419 0,2.210419 0,0 2.0597,2.310892 3.46634,1.758289 1.40663,-0.552606 0,-1.959237 -0.35166,-2.009474 -0.35166,-0.05024 -0.20095,-0.45213 -0.20095,-0.45213 z"
         id="path31" />
      <path
         style="fill:#abab9b;fill-opacity:1;stroke-width:2.117;stroke-linejoin:round;stroke-miterlimit:3.1;paint-order:markers stroke fill"
         d="m 110.46847,95.687509 c 0,0 -7.37982,-5.684545 -5.78645,-6.90891 1.59337,-1.224363 6.70892,-1.39927 6.70892,-1.39927 0,0 0.6709,0.262361 1.17407,-0.174914 0.50316,-0.437269 -3.68991,-2.973449 -0.92249,-3.585631 2.76744,-0.612183 3.12406,4.273729 3.12406,4.273729 0,0 6.81988,-4.340171 10.20993,-3.224278 0.993,0.326865 1.84496,2.53618 1.84496,2.53618 l 3.35446,1.924001 c 0,0 -0.16772,-2.36127 3.019,-0.349817 3.18674,2.011453 -5.95416,4.285273 -5.95416,4.285273 l -2.43199,0.61218 -3.10287,2.623637 c 0,0 -1.20927,-4.730186 -2.18771,-5.626858 -0.97843,-0.896677 -1.98652,-1.731511 -2.13477,-1.453236 -0.14823,0.27828 -2.051,0.08373 -2.051,3.844277 v 3.847997 c 0,0 -3.43831,4.022901 -5.78645,3.060901 -2.34812,-0.961986 0,-3.410716 0.58704,-3.498173 0.58703,-0.08746 0.33545,-0.787088 0.33545,-0.787088 z"
         id="path31-2"
         sodipodi:nodetypes="cscsscsccscccssscssc" />
      <path
         style="opacity:1;fill:#abab9b;fill-opacity:1;stroke-width:2.117;stroke-linejoin:round;stroke-miterlimit:3.1;paint-order:markers stroke fill"
         d="m 119.42761,81.347179 c 0,0 -0.85255,-3.907507 -3.12601,-4.120642 -2.27346,-0.213137 -1.42091,0.7815 -1.98927,0.994638 -0.56837,0.213138 -1.13673,-0.781503 -2.91287,-2.415551 -1.77614,-1.634048 -5.54156,0.497322 -4.61796,0.923595 0.92359,0.426272 -2.13137,2.131367 -2.84183,2.273458 -0.71045,0.14209 -2.84182,1.491957 -2.55764,2.628686 0.28418,1.136729 4.61796,-2.131367 4.61796,-1.705094 0,0.426273 -2.91286,2.983913 -0.49732,2.55764 2.41555,-0.426273 2.77078,-2.841824 2.77078,-2.841824 0,0 0.99464,-1.136726 1.42091,-0.284181 0.42628,0.852546 2.06033,2.628686 2.06033,2.628686 l 3.126,-0.355227 c 0,0 0.14209,-0.959115 1.52748,-1.243298 1.38539,-0.284181 3.01944,0.959114 3.01944,0.959114 z"
         id="path32" />
      <path
         style="opacity:1;fill:#abab9b;fill-opacity:1;stroke-width:2.117;stroke-linejoin:round;stroke-miterlimit:3.1;paint-order:markers stroke fill"
         d="m 107.52747,76.373991 c -0.10656,-0.284184 0.56837,-3.197053 -1.42091,-2.806301 -1.98927,0.39075 1.42091,2.806301 1.42091,2.806301 z"
         id="path33" />
      <path
         style="opacity:1;fill:#abab9b;fill-opacity:1;stroke-width:2.117;stroke-linejoin:round;stroke-miterlimit:3.1;paint-order:markers stroke fill"
         d="m 139.39141,104.68565 c -0.35522,0.10657 -2.45107,-0.56836 -3.5878,-1.17225 -1.13673,-0.60389 -3.33914,-2.45107 -0.7815,2.0248 2.55764,4.47587 5.64812,6.64276 5.9323,6.07439 0.28419,-0.56836 -2.6642,-4.08512 -1.63404,-3.33914 1.03016,0.74598 4.3693,0.67494 4.90214,1.59853 0.53284,0.92359 4.65349,-1.49196 -0.63941,-2.87735 -5.29289,-1.38539 -3.65885,0.0355 -3.65885,0.0355 0,0 -1.03016,-0.6394 -0.88806,-0.95911 0.14209,-0.31971 1.95375,-1.49196 1.95375,-1.49196 0,0 0.85255,1.91823 2.20241,1.66957 1.34987,-0.24866 -1.95375,-3.76541 -2.16689,-3.30362 -0.21313,0.4618 -0.67493,1.59853 -0.7815,1.74062 -0.10657,0.14209 -0.85255,0 -0.85255,0 z"
         id="path34" />
      <path
         style="opacity:1;fill:#abab9b;fill-opacity:1;stroke-width:2.117;stroke-linejoin:round;stroke-miterlimit:3.1;paint-order:markers stroke fill"
         d="m 130.51522,98.76556 -1.5071,-1.858762 c 0,0 2.21042,-0.602842 2.76302,-0.251184 0.55261,0.351657 6.93268,3.466336 2.16018,4.069186 -4.77249,0.60284 -4.87297,-1.255925 -4.87297,-1.255925 0,0 0.35166,4.420835 -2.31089,4.069185 -2.66255,-0.35166 -2.10994,-3.868236 -2.41137,-3.51658 -0.30142,0.35166 -3.46633,3.4161 -5.22462,2.46161 -1.75829,-0.9545 2.21042,-3.164924 1.70805,-3.315636 -0.50237,-0.150709 -3.01421,0.954496 -2.96397,-1.607577 0.0502,-2.562076 1.75828,-2.712788 1.75828,-2.712788 0,0 0.49123,-2.912254 1.29502,-2.409887 0.80379,0.502367 2.12109,2.661071 2.12109,2.661071 0,0 0.25118,-0.05024 3.21515,2.562077 2.96398,2.61231 1.85877,-0.401894 1.85877,-0.401894 0,0 0.5526,1.205683 1.55734,1.808525 1.00473,0.602843 0.85402,-0.301421 0.85402,-0.301421 z"
         id="path35"
         sodipodi:nodetypes="ccsscssssccscscsc" />
      <path
         style="opacity:1;fill:#ece9d6;fill-opacity:1;stroke-width:2.117;stroke-linejoin:round;stroke-miterlimit:3.1;paint-order:markers stroke fill"
         d="m 127.5268,93.0697 c 0,0 -2.66421,-5.150805 -3.87198,-2.806301 -1.20778,2.344505 1.45643,3.587803 1.45643,3.587803 0,0 -2.55764,-1.491959 -3.16153,-0.142092 -0.60388,1.349865 2.45108,1.705095 2.45108,1.705095 z"
         id="path36" />
      <path
         style="opacity:1;fill:#abab9b;fill-opacity:1;stroke-width:2.117;stroke-linejoin:round;stroke-miterlimit:3.1;paint-order:markers stroke fill"
         d="m 106.33746,74.313668 -3.46347,-0.994637 c 0,0 0.44403,-1.332106 -0.35523,-1.77614 -0.79926,-0.444035 -2.38003,-1.563003 -2.30898,-0.26642 0.071,1.29658 1.91823,2.753016 2.18465,3.214812 0.26642,0.461796 1.2433,3.481234 3.87199,3.161527 2.62868,-0.319704 0.85254,-2.095844 0.85254,-2.095844 z"
         id="path37" />
      <path
         id="path38"
         style="opacity:1;fill:#abab9b;fill-opacity:1;stroke-width:2.117;stroke-linejoin:round;stroke-miterlimit:3.1;paint-order:markers stroke fill"
         d="m 126.92042,101.26824 c -2.49379,-0.0937 -2.30632,6.65024 -2.30632,6.65024 0,0 -2.6999,-3.26858 -3.19722,-1.63453 -0.49732,1.63404 5.82548,3.48144 5.82548,3.48144 0,0 -0.62046,-2.73582 1.06247,0.002 1.06587,1.73403 1.90857,1.20066 2.38435,0.57671 0.40058,0.10466 1.04684,0.20828 2.08669,0.30231 4.72226,0.42701 2.1854,-2.512 2.1854,-2.512 0,0 3.01414,1.08044 2.61224,-0.27595 -0.40188,-1.3564 -1.80557,-1.57458 -1.80557,-1.57458 0,0 -2.55752,-0.0706 -2.9838,1.35031 -0.42627,1.42091 0.42618,2.62867 -0.71055,1.77612 -1.13673,-0.85254 -5.25704,-4.61833 -5.25704,-4.61833 0,0 3.69419,-2.2734 0.63924,-3.41012 -0.19094,-0.071 -0.36912,-0.10745 -0.53537,-0.11369 z" />
      <path
         style="opacity:1;fill:#abab9b;fill-opacity:1;stroke-width:2.117;stroke-linejoin:round;stroke-miterlimit:3.1;paint-order:markers stroke fill"
         d="m 165.46514,113.0335 c 0,0 -3.69437,-0.7815 -6.03887,-0.60388 -2.34451,0.17761 -6.998,1.03016 -6.998,1.03016 0,0 0.88808,-1.91823 -0.56836,-2.59317 -1.45643,-0.67493 -3.94303,-2.41554 -6.67828,-0.28418 -2.73526,2.13137 -5.57708,5.86126 0.14209,7.60188 5.71917,1.74062 10.05295,0.42627 10.05295,0.42627 0,0 -3.12601,1.45644 0.21313,1.49196 3.33915,0.0355 2.45107,-1.34987 2.59317,-1.34987 0.14209,0 3.05496,0.9236 4.22721,0.60389 1.17225,-0.3197 2.52212,-0.85255 3.19705,-2.48659 0.67493,-1.63405 0.74598,-1.91823 0.74598,-1.91823 l 0.10657,0.71045 c 0,0 0.99463,0.7815 2.69973,0.60389 1.70509,-0.17761 4.689,-1.91823 4.689,-1.91823 0,0 0,-0.71046 -2.23793,-1.03016 -2.23793,-0.31971 -5.39946,0.21314 -5.39946,0.21314 z"
         id="path91" />
      <path
         style="opacity:1;fill:#abab9b;fill-opacity:1;stroke-width:2.117;stroke-linejoin:round;stroke-miterlimit:3.1;paint-order:markers stroke fill"
         d="m 170.52713,115.8398 c 0,0 0.15986,0.24867 0.56837,0.58613 0.40851,0.33747 1.36763,0.87031 1.29658,1.0124 -0.071,0.14209 0.0178,1.68733 -0.28418,2.16689 -0.30194,0.47956 -1.15449,0.99464 -1.22554,1.06569 -0.071,0.071 -0.28418,1.65181 -0.60388,1.70509 -0.31971,0.0533 1.06568,-0.51508 0.47955,0.92359 -0.58612,1.43867 -0.8703,0.69269 -0.95911,1.10121 -0.0888,0.40851 0.15219,2.74856 -2.00799,3.45187 -2.16018,0.70332 -11.15257,2.26066 -11.95636,2.96397 -0.80379,0.70332 1.10521,1.40663 0.0502,3.56682 -1.05497,2.16018 -1.00474,3.06444 -2.16018,2.00947 -1.15545,-1.05497 -3.31563,-3.06445 -3.51658,-3.01421 -0.20095,0.0502 -3.66729,2.66255 -3.61705,-0.9545 0.0502,-3.61705 -2.12389,-7.92647 -2.12389,-7.92647 0,0 13.37693,-6.84315 17.19493,-8.45073 3.818,-1.60758 9.04263,-1.70805 9.04263,-1.70805 z"
         id="path116" />
    </g>
    <g
       inkscape:groupmode="layer"
       id="layer16"
       inkscape:label="Nasi 0 O"
       style="display:inline">
      <path
         style="opacity:1;fill:#111b09;fill-opacity:1;stroke-width:2.117;stroke-linejoin:round;stroke-miterlimit:3.1;paint-order:markers stroke fill"
         d="m 161.68716,119.06123 c 0,0 -0.47725,0.5526 0.82891,0.57772 1.30615,0.0251 3.71752,-1.93411 4.32036,-4.0943 0.60284,-2.16018 -0.32654,-3.61705 -1.02985,-3.08956 -0.70332,0.52749 -0.35181,0.35237 -0.4019,2.10995 -0.10047,3.52527 -2.2884,4.06124 -2.86349,4.3706 -0.40368,0.21715 -0.85403,0.12559 -0.85403,0.12559 z"
         id="path2"
         sodipodi:nodetypes="csssssc" />
      <path
         style="opacity:1;fill:#111b09;fill-opacity:1;stroke-width:2.117;stroke-linejoin:round;stroke-miterlimit:3.1;paint-order:markers stroke fill"
         d="m 166.24664,115.8398 c 0,0 2.38003,1.84719 5.82574,0.28419 3.44571,-1.563 4.8311,-5.15081 3.83646,-6.8559 -0.99464,-1.70509 -2.52212,-2.52212 -3.51676,-2.62869 -0.99464,-0.10657 -1.52748,-0.071 -1.52748,-0.071 0,0 -0.67493,1.31434 -0.60389,1.45643 0.0711,0.14209 0.9236,0.49732 2.0248,1.06569 1.10121,0.56836 2.20242,0.17761 2.13137,2.06032 -0.071,1.8827 -1.63405,3.94303 -3.87198,4.44035 -2.23794,0.49732 -3.90751,-0.28419 -3.90751,-0.28419 z"
         id="path3" />
      <path
         style="opacity:1;fill:#111b09;fill-opacity:1;stroke-width:2.117;stroke-linejoin:round;stroke-miterlimit:3.1;paint-order:markers stroke fill"
         d="m 168.85757,109.4457 c 0,0 1.72285,-0.21313 2.04255,-2.45107 0.31971,-2.23793 -1.59852,-4.47587 -2.14912,-4.61796 -0.55061,-0.14209 -1.38539,-0.24866 -1.81167,0.0533 -0.42627,0.30195 1.56301,1.52748 2.41555,2.55764 0.85255,1.03016 0.97688,2.93063 0.37299,3.35691 -0.60389,0.42627 -0.95911,0.39075 -0.97687,0.47955 -0.0178,0.0888 -0.40852,0.24867 -0.2309,0.42628 0.17761,0.17761 0.33747,0.19537 0.33747,0.19537 z"
         id="path4" />
      <path
         style="opacity:1;fill:#111b09;fill-opacity:1;stroke-width:2.117;stroke-linejoin:round;stroke-miterlimit:3.1;paint-order:markers stroke fill"
         d="m 169.82552,105.34658 c 0.10048,0.17583 5.80235,0.30142 7.2341,-0.57772 1.43175,-0.87915 1.70805,-3.16492 0.82891,-3.66729 -0.87914,-0.50237 -4.6469,-1.883877 -6.2796,-1.557339 -1.6327,0.326538 -2.33601,0.502369 -2.1853,1.281039 0.15071,0.77867 -1.30616,0.75355 2.8635,1.65782 4.16965,0.90426 4.32036,0.32653 4.0943,0.62795 -0.22607,0.30143 -0.55261,0.85403 -3.84312,1.28104 -3.29051,0.42702 -3.24027,-0.15071 -3.24027,-0.15071 z"
         id="path5" />
      <path
         style="opacity:1;fill:#111b09;fill-opacity:1;stroke-width:2.117;stroke-linejoin:round;stroke-miterlimit:3.1;paint-order:markers stroke fill"
         d="m 176.43166,101.17693 c 0,0 4.3706,-3.064449 1.10521,-6.681499 -3.26539,-3.61705 -4.11941,-1.55734 -4.11941,-1.55734 0,0 -1.0801,-0.879144 -2.53696,-0.05024 -1.45687,0.828908 -2.41137,4.24501 -1.6327,4.018944 0.77867,-0.226065 1.5071,-2.436484 2.41137,-2.763025 0.90426,-0.326538 1.58246,-0.100473 1.58246,-0.100473 0,0 -0.0251,0.954501 -0.57773,1.205683 -0.5526,0.251185 -1.35639,0.602842 -0.52748,0.803791 0.8289,0.200945 1.63269,0 1.80852,-0.728435 0.17583,-0.728433 0.0502,-1.306156 0.0502,-1.306156 0,0 0.0502,-0.627962 0.60284,-0.07535 0.5526,0.552603 3.08956,1.331274 2.76302,3.893351 -0.32653,2.562079 -2.21042,2.511839 -1.98435,2.838379 0.22606,0.32654 1.05497,0.50237 1.05497,0.50237 z"
         id="path6"
         sodipodi:nodetypes="cscssscssscssscc" />
      <path
         style="opacity:1;fill:#111b09;fill-opacity:1;stroke-width:2.117;stroke-linejoin:round;stroke-miterlimit:3.1;paint-order:markers stroke fill"
         d="m 172.12566,92.767757 c 0,-0.07105 1.10121,-0.834786 0.0533,-2.237935 -1.04792,-1.403152 -4.10288,-0.692695 -4.61796,0.124327 -0.51508,0.817026 -0.87031,1.474198 -0.46179,1.420913 0.40851,-0.05328 2.82406,-1.598525 3.8187,-0.799264 0.99463,0.799264 0.53284,1.598526 0.79926,1.580764 0.26642,-0.01775 0.40851,-0.0888 0.40851,-0.0888 z"
         id="path7" />
      <path
         style="opacity:1;fill:#111b09;fill-opacity:1;stroke-width:2.117;stroke-linejoin:round;stroke-miterlimit:3.1;paint-order:markers stroke fill"
         d="m 158.32506,95.556294 c 0.12433,-0.372989 1.13673,-1.758376 3.09048,-1.705092 1.95375,0.05328 2.04256,1.52748 1.31434,2.55764 -0.72821,1.030161 -2.62868,1.758379 -2.23793,1.136729 0.39075,-0.621649 1.63405,-1.172252 1.66957,-1.77614 0.0355,-0.603887 0.0533,-0.355226 -0.33747,-0.479557 -0.39075,-0.12433 -3.71213,0.923592 -3.67661,0.657172 0.0355,-0.266422 0.17762,-0.390752 0.17762,-0.390752 z"
         id="path8" />
      <path
         style="opacity:1;fill:#111b09;fill-opacity:1;stroke-width:2.117;stroke-linejoin:round;stroke-miterlimit:3.1;paint-order:markers stroke fill"
         d="m 159.77816,85.025795 c -0.33155,-0.77583 1.11293,-1.439084 1.93412,-1.632696 1.41719,-0.334133 3.03419,0.221151 4.24501,1.029854 1.25428,0.83773 1.41835,3.45706 0.45213,3.817998 -0.60787,0.227075 -0.51526,-0.420572 -0.35166,-0.50237 0,0 0.42315,-0.578252 0.37678,-0.9545 -0.0992,-0.805034 -0.97584,-1.35221 -1.70806,-1.657812 -1.52249,-0.635439 -4.64871,0.600621 -4.94832,-0.100474 z"
         id="path9"
         sodipodi:nodetypes="sasscsas" />
      <path
         style="opacity:1;fill:#111b09;fill-opacity:1;stroke-width:2.117;stroke-linejoin:round;stroke-miterlimit:3.1;paint-order:markers stroke fill"
         d="m 153.61829,94.579418 c 0,0 0.40851,0.01775 0.4618,-0.692695 0.0533,-0.710454 -0.44404,-2.912867 1.50971,-3.285858 1.95376,-0.372989 3.7299,0.515083 2.64645,1.829424 -1.08344,1.314344 -1.36763,1.154491 -1.36763,1.349867 0,0.195374 -0.19537,0.621649 0.42628,0.461796 0.62164,-0.159853 2.22593,-1.502424 2.16688,-2.68197 -0.0741,-1.480226 -1.52638,-3.042158 -3.07271,-3.143769 -2.0015,-0.131519 -3.88767,1.786296 -4.20945,3.605565 -0.17037,0.963216 1.43867,2.55764 1.43867,2.55764 z"
         id="path10"
         sodipodi:nodetypes="cssssssssc" />
      <path
         style="opacity:1;fill:#111b09;fill-opacity:1;stroke-width:2.117;stroke-linejoin:round;stroke-miterlimit:3.1;paint-order:markers stroke fill"
         d="m 158.95979,109.37644 c 0.27574,0.9782 2.99813,0.14599 3.16694,1.18222 0.2396,1.47066 -1.58923,1.59582 -2.04715,2.4616 -0.0879,0.16624 0.0377,0.36421 0.0377,0.36421 -0.22088,0.7306 3.37687,-1.04032 3.27795,-2.95141 -0.0671,-1.29703 -0.62052,-2.67893 -3.01421,-2.63744 -0.87004,0.0151 -1.61901,0.87914 -1.42121,1.58082 z"
         id="path11"
         sodipodi:nodetypes="sssssss" />
      <path
         style="opacity:1;fill:#111b09;fill-opacity:1;stroke-width:2.117;stroke-linejoin:round;stroke-miterlimit:3.1;paint-order:markers stroke fill"
         d="m 138.89409,80.17493 c 0,0 2.59317,-2.380028 2.52212,-0.213138 -0.071,2.16689 -1.27882,2.16689 -0.56836,2.415548 0.71045,0.248661 2.23793,-1.989275 1.91823,-2.628686 -0.31971,-0.63941 -0.88807,-1.065683 -0.88807,-1.065683 0,0 -1.38539,-2.735255 -0.0355,-4.72453 2.28305,-3.364502 4.45519,-0.04995 3.7061,0.128289 0,0 -0.36422,-0.213506 -0.92938,0.02511 -0.56517,0.238622 -1.11777,1.029853 -0.71588,1.343834 0.40189,0.313979 1.73317,0.326538 2.66255,-0.326541 0.92938,-0.653079 0.46293,-4.509844 -2.0059,-4.687458 -2.46884,-0.177613 -3.37467,0.63941 -4.15617,1.634048 -2.52481,1.238952 -0.33444,4.653235 -0.62165,5.079759 -0.28418,-0.07105 -1.97151,0.03552 -2.78853,0.603888 -0.81703,0.568364 -1.29659,2.788538 -0.88808,2.539878 0.40852,-0.248658 0.97688,-0.799261 1.42092,-1.030161 0.44403,-0.230896 0.74597,-0.301942 0.74597,-0.301942 0,0 -0.0888,1.154491 0.2309,1.261057 0.31971,0.106569 0.39075,-0.05328 0.39075,-0.05328 z"
         id="path12"
         sodipodi:nodetypes="ccsscscssssssssscscc" />
      <path
         style="opacity:1;fill:#111b09;fill-opacity:1;stroke-width:2.117;stroke-linejoin:round;stroke-miterlimit:3.1;paint-order:markers stroke fill"
         d="m 146.22955,75.059647 c 0,0 -0.58613,1.207776 0.53284,1.207776 1.11897,0 0.83479,-0.905833 2.39779,-0.532842 1.563,0.372988 1.17225,0.834784 1.22554,0.976876 0.0533,0.142089 0.92359,0.284181 0.63941,-0.710456 -0.28419,-0.994638 -1.31435,-2.273459 -2.87735,-1.829425 -1.563,0.444037 -1.91823,0.888071 -1.91823,0.888071 z"
         id="path13" />
      <path
         style="opacity:1;fill:#111b09;fill-opacity:1;stroke-width:2.117;stroke-linejoin:round;stroke-miterlimit:3.1;paint-order:markers stroke fill"
         d="m 153.67157,78.860586 c 0,0 2.84183,0.603887 3.94303,0.745979 1.10121,0.142089 2.66421,-0.213138 2.4866,0.7815 -0.17762,0.994637 -1.95376,1.527479 -1.20778,2.344504 0.74598,0.817023 1.7051,-0.319706 2.20242,-0.923591 0.49731,-0.603888 1.45643,-3.410188 -0.49732,-4.085122 -1.95376,-0.674933 -4.72453,-0.781502 -6.42963,-0.03552 -1.70509,0.74598 -0.49732,1.172253 -0.49732,1.172253 z"
         id="path14" />
      <path
         style="opacity:1;fill:#111b09;fill-opacity:1;stroke-width:2.117;stroke-linejoin:round;stroke-miterlimit:3.1;paint-order:markers stroke fill"
         d="m 147.89912,80.991952 c 0,0.550604 0.12433,1.172253 0.4618,1.101207 0.33746,-0.07105 2.13136,-2.468833 4.33378,-2.184652 2.20241,0.284181 1.19001,1.491957 1.45643,1.580764 0.26642,0.08881 1.42091,-1.77614 0.19538,-2.273459 -1.22554,-0.497318 -3.04603,-0.536536 -3.85423,-0.301942 -1.27281,0.369453 -2.5115,1.079825 -2.59316,2.078082 z"
         id="path15"
         sodipodi:nodetypes="csssssc" />
      <path
         style="opacity:1;fill:#111b09;fill-opacity:1;stroke-width:2.117;stroke-linejoin:round;stroke-miterlimit:3.1;paint-order:markers stroke fill"
         d="m 143.06802,81.453748 c 0,0 -1.06568,1.243298 0.53284,3.356904 1.59853,2.113605 2.82406,1.882709 2.75302,1.403149 -0.0711,-0.479558 -0.97688,-2.628686 -1.36763,-3.037197 -0.39075,-0.408512 -0.97687,-0.692695 -0.72822,-0.728218 0.24866,-0.03552 1.10121,-0.515081 2.04257,0.319706 0.94135,0.834785 1.45643,1.261057 1.50971,0.923592 0.0533,-0.337465 -0.51508,-2.16689 -2.38002,-2.68197 -1.86495,-0.51508 -2.36227,0.444034 -2.36227,0.444034 z"
         id="path16" />
      <path
         style="opacity:1;fill:#111b09;fill-opacity:1;stroke-width:2.117;stroke-linejoin:round;stroke-miterlimit:3.1;paint-order:markers stroke fill"
         d="m 136.81994,80.353772 c 0,0 -2.56208,-1.205685 -4.21989,-0.251185 -1.65782,0.954501 -0.0754,3.089564 0.50237,3.014208 0.57772,-0.07535 0.17583,-0.552604 -0.0251,-0.803789 -0.20095,-0.251184 -0.42702,-1.356394 1.5071,-1.356394 1.93412,0 2.36113,-0.05024 2.31089,-0.251182 -0.0502,-0.200949 -0.0753,-0.351658 -0.0753,-0.351658 z"
         id="path17" />
      <path
         style="opacity:1;fill:#111b09;fill-opacity:1;stroke-width:2.117;stroke-linejoin:round;stroke-miterlimit:3.1;paint-order:markers stroke fill"
         d="m 99.493995,70.231055 c 0.531175,1.99779 2.260655,2.160182 2.185295,1.456867 -0.0754,-0.703315 -0.85402,-2.386248 0.22607,-2.536957 1.08009,-0.150712 1.68293,-0.113036 1.9718,0.200945 0.28886,0.313981 0.43957,0.602843 0.22606,0.590283 -0.2135,-0.01257 -0.12559,0.213506 -0.0251,0.251185 0.10048,0.03768 -0.15071,0.46469 0.35166,0.577723 0.50237,0.113033 1.2308,-0.326541 0.85403,-1.419191 -0.37678,-1.092649 -1.63018,-1.825137 -2.6867,-1.903949 -2.59537,-0.193606 -3.485187,1.346095 -3.103115,2.783094 z"
         id="path18"
         sodipodi:nodetypes="scssssssss" />
      <path
         style="opacity:1;fill:#111b09;fill-opacity:1;stroke-width:2.117;stroke-linejoin:round;stroke-miterlimit:3.1;paint-order:markers stroke fill"
         d="m 108.81418,69.635571 c -0.96105,1.029881 -1.13159,2.20306 -0.22732,2.780786 0.90426,0.577723 1.05497,0.678196 1.28103,0.07535 0.22607,-0.60284 0.90992,-2.520701 1.55821,-2.138833 0.64829,0.38187 0.99464,1.349867 0.7371,1.847186 -0.25754,0.497318 -0.19538,1.172252 0.13321,1.172252 0.32858,0 1.12785,-1.527479 0.68381,-3.250335 -0.93514,-2.683718 -2.57922,-2.186866 -4.16604,-0.486406 z"
         id="path19"
         sodipodi:nodetypes="sssssscs" />
      <path
         style="opacity:1;fill:#111b09;fill-opacity:1;stroke-width:2.117;stroke-linejoin:round;stroke-miterlimit:3.1;paint-order:markers stroke fill"
         d="m 129.51049,76.987904 c -1.53223,0.05024 -2.53696,0.452134 -3.24028,1.054973 -0.70331,0.602843 -1.20568,1.255922 -0.57772,1.004737 0.62796,-0.251185 1.48199,-1.406631 3.31563,-1.306158 1.83364,0.100476 1.99197,0.130425 2.19722,0.311828 0.3501,0.30941 0.54068,0.240778 0.54068,-0.06063 0,-0.301422 -0.0881,-0.298116 -0.21109,-0.458226 -0.45779,-0.59617 -1.25681,-0.545869 -2.02444,-0.546521 z"
         id="path20"
         sodipodi:nodetypes="ssssssss" />
      <path
         id="path21"
         style="opacity:1;fill:#111b09;fill-opacity:1;stroke-width:2.117;stroke-linejoin:round;stroke-miterlimit:3.1;paint-order:markers stroke fill"
         d="m 133.40271,68.690898 c -1.10697,0.02776 -2.29422,0.5707 -2.87424,1.182356 -0.97688,1.03016 -0.69247,2.149223 -0.69247,2.149223 0,0 0.12423,0.266517 0.72812,0.230994 0.60389,-0.03552 2.59295,-1.652057 3.23236,-1.847433 0.6394,-0.195372 0.63924,0.248564 0.63924,0.248564 0,0 -0.10612,1.776121 -1.04748,2.735234 -0.94135,0.959114 -1.19011,1.136881 -1.19011,1.136881 0,0 1.2e-4,0.37293 0.37311,0.532784 0.37299,0.159853 3.9071,-4.067396 2.77037,-5.55935 -0.4618,-0.606107 -1.1815,-0.82825 -1.9389,-0.809253 z m 0.50643,6.605281 c -0.10033,-10e-6 -0.20577,8.81e-4 -0.31678,0.0031 -1.67115,0.03342 -1.89178,0.337694 -1.90066,0.746207 -0.009,0.408511 -0.0266,0.879111 0.71934,0.870232 0.74597,-0.0089 2.50466,-0.941277 2.9931,-0.390674 0.48844,0.550602 0.15954,0.852412 0.3638,0.923458 0.20425,0.07104 0.69306,-0.60408 0.54209,-1.181324 -0.15097,-0.577246 -0.38657,-0.706307 -0.76378,-0.798917 -0.47578,-0.11681 -0.93484,-0.172012 -1.63711,-0.172083 z" />
      <path
         style="opacity:1;fill:#111b09;fill-opacity:1;stroke-width:2.117;stroke-linejoin:round;stroke-miterlimit:3.1;paint-order:markers stroke fill"
         d="m 117.15223,69.18864 c -0.43913,0.249266 -0.75355,0.602841 -1.15545,0.979618 -1.77865,1.66746 -1.77084,3.303072 -1.45686,3.943591 0.31398,0.640519 0.66564,0.439571 0.97961,0.05024 0.31399,-0.389337 1.6794,-2.933699 2.46161,-3.303072 0.45213,-0.213504 0.85402,-0.100471 0.92938,0.32654 0.0754,0.427013 -0.22607,1.029854 -0.22607,1.029854 0,0 -0.52748,-0.351657 0.0502,0.427014 0.57772,0.778669 0.55261,0.427011 0.741,0.276302 0.18838,-0.150709 1.14439,-1.738802 0.33909,-3.12724 -0.36422,-0.627961 -0.745,-0.745026 -1.38151,-0.803791 -0.34802,-0.03213 -0.97706,0.02842 -1.281,0.200944 z"
         id="path22"
         sodipodi:nodetypes="ssssscccssss" />
      <path
         id="path23"
         style="opacity:1;fill:#111b09;fill-opacity:1;stroke-width:2.117;stroke-linejoin:round;stroke-miterlimit:3.1;paint-order:markers stroke fill"
         d="m 128.01596,71.120723 c -0.50693,0.02138 -0.97898,0.222511 -1.46606,0.360185 -0.26856,0.07935 -0.64728,0.164244 -0.86507,0.211357 -0.14254,-0.02689 -0.32495,-0.07629 -0.55603,-0.166915 -0.90583,-0.355227 -2.06034,-0.07122 -2.5399,0.639237 -0.47955,0.710456 -0.12385,1.811776 0.0537,1.811776 0.17761,0 0.0547,0.09853 0.93107,-0.240563 0.3313,-0.128183 0.88019,0.08037 0.88019,0.08037 0,0 0.0179,0.231207 0.56844,0.355534 0.5506,0.124331 1.86506,-1.616401 2.77089,-1.332218 0.90583,0.284179 0.92337,0.923784 0.69247,1.421101 -0.2309,0.497318 -0.17753,1.349694 0.23099,1.118795 0.40851,-0.230897 1.31631,-2.144845 0.40876,-3.730005 -0.21235,-0.370898 -0.66126,-0.521725 -1.10949,-0.52865 z"
         sodipodi:nodetypes="sscsssscsssssss" />
      <path
         style="fill:#111b09;fill-opacity:1;stroke-width:2.117;stroke-linejoin:round;stroke-miterlimit:3.1;paint-order:markers stroke fill"
         d="m 107.54274,80.086107 c 0.0561,-0.0435 -0.015,-1.381773 1.73597,-1.413349 1.751,-0.03157 3.06136,2.818075 2.73126,3.725751 -0.33009,0.907673 -0.63179,1.591073 -0.83999,1.235574 -0.20818,-0.355504 -0.46704,-3.211306 -1.70814,-3.50764 -1.24109,-0.296333 -1.58979,0.558342 -1.739,0.336909 -0.14917,-0.221458 -0.18012,-0.377255 -0.18012,-0.377255 z"
         id="path7-6" />
      <path
         style="fill:#111b09;fill-opacity:1;stroke-width:2.117;stroke-linejoin:round;stroke-miterlimit:3.1;paint-order:markers stroke fill"
         d="m 121.22677,85.100674 c 0.81629,-0.213343 0.45539,-1.761305 0.10524,-2.528921 -0.60427,-1.324735 -2.03388,-2.262415 -3.41489,-2.723817 -1.43059,-0.477962 -3.60117,0.997291 -3.2944,1.982048 0.193,0.619533 0.64809,0.149517 0.6125,-0.0299 0,0 0.19772,-0.688722 0.52348,-0.882611 0.697,-0.414863 1.66656,-0.05732 2.35673,0.334104 1.43505,0.813877 2.37369,4.041886 3.11134,3.849093 z"
         id="path9-3"
         sodipodi:nodetypes="sasscsas" />
      <path
         style="fill:#111b09;fill-opacity:1;stroke-width:2.117;stroke-linejoin:round;stroke-miterlimit:3.1;paint-order:markers stroke fill"
         d="m 111.56965,91.954837 c 0,0 0.29204,-3.507673 -1.37692,-2.123824 -1.66898,1.383809 -0.92893,2.338349 -1.56076,1.92923 -0.63182,-0.409108 0.2009,-2.987505 0.90211,-3.126626 0.70122,-0.139113 1.38635,0.04887 1.38635,0.04887 0,0 3.01053,-0.581074 3.75555,-2.866761 1.26009,-3.865793 -2.69031,-3.55154 -2.37219,-2.850324 0,0 0.3919,0.157023 0.5496,0.749874 0.15771,0.592862 -0.12901,1.514385 -0.62339,1.389154 -0.49439,-0.125232 -1.32002,-1.169647 -1.37334,-2.30429 -0.0533,-1.134644 3.28048,-3.129128 4.93355,-1.28684 1.65308,1.842296 1.56241,3.05878 1.25519,4.285834 0.56786,2.754488 -3.33058,3.994246 -3.49168,4.482568 0.23028,0.181054 1.03796,0.701044 1.08938,1.694984 0.0514,0.993946 -1.40933,2.73329 -1.46312,2.25809 -0.0538,-0.47521 0.0331,-1.261757 -0.0565,-1.754159 -0.0896,-0.492391 -0.21845,-0.774546 -0.21845,-0.774546 0,0 -0.85798,0.777559 -1.13809,0.590196 -0.28011,-0.18737 -0.19731,-0.341456 -0.19731,-0.341456 z"
         id="path12-2"
         sodipodi:nodetypes="ccsscscssssssssscscc" />
      <path
         style="fill:#111b09;fill-opacity:1;stroke-width:2.117;stroke-linejoin:round;stroke-miterlimit:3.1;paint-order:markers stroke fill"
         d="m 137.40453,89.701671 c 0,0 -0.59538,1.203247 -1.28099,0.318926 -0.68562,-0.884322 0.20438,-1.214757 -1.04807,-2.221456 -1.25246,-1.006701 -1.37799,-0.414939 -1.52294,-0.369992 -0.14495,0.04494 -0.79049,-0.555789 0.16969,-0.940636 0.96019,-0.38484 2.60205,-0.354265 3.20881,1.153042 0.60676,1.507309 0.4735,2.060116 0.4735,2.060116 z"
         id="path13-3" />
      <path
         style="fill:#111b09;fill-opacity:1;stroke-width:2.117;stroke-linejoin:round;stroke-miterlimit:3.1;paint-order:markers stroke fill"
         d="m 129.84077,86.149159 c 0,0 -2.2185,-1.875883 -3.00553,-2.659098 -0.78702,-0.783225 -1.46397,-2.236119 -2.14121,-1.486318 -0.67723,0.749807 -0.0101,2.479973 -1.11283,2.391034 -1.10277,-0.08894 -0.79208,-1.543431 -0.61955,-2.306475 0.17254,-0.763039 1.80269,-3.240509 3.53319,-2.110007 1.73051,1.130511 3.51244,3.254952 3.96764,5.05957 0.45519,1.80461 -0.62172,1.111296 -0.62172,1.111296 z"
         id="path14-3" />
      <path
         style="fill:#111b09;fill-opacity:1;stroke-width:2.117;stroke-linejoin:round;stroke-miterlimit:3.1;paint-order:markers stroke fill"
         d="m 131.69325,92.017056 c -0.43515,0.337366 -1.00261,0.620005 -1.15324,0.309771 -0.15062,-0.310228 0.64519,-3.197117 -0.92887,-4.763565 -1.57405,-1.566441 -1.90823,-0.02631 -2.14166,-0.18245 -0.23343,-0.156136 0.53306,-2.211222 1.677,-1.547404 1.14394,0.663827 2.29039,2.07853 2.60019,2.860991 0.4879,1.232272 0.68546,2.646468 -0.0534,3.322657 z"
         id="path15-4"
         sodipodi:nodetypes="csssssc" />
      <path
         style="fill:#111b09;fill-opacity:1;stroke-width:2.117;stroke-linejoin:round;stroke-miterlimit:3.1;paint-order:markers stroke fill"
         d="m 134.2884,96.118024 c 0,0 -0.32961,1.604001 -2.97944,1.635741 -2.64983,0.03173 -3.21826,-1.078279 -2.79574,-1.315972 0.42256,-0.237645 2.67601,-0.838623 3.23827,-0.780116 0.56227,0.05851 1.14599,0.347591 1.02171,0.129318 -0.12429,-0.21828 -0.26767,-1.185887 -1.50419,-1.418352 -1.23651,-0.232459 -1.889,-0.378341 -1.65494,-0.627219 0.23404,-0.248895 2.02809,-0.920631 3.57784,0.23763 1.54976,1.158269 1.09649,2.13897 1.09649,2.13897 z"
         id="path16-5" />
      <path
         style="fill:#111b09;fill-opacity:1;stroke-width:2.117;stroke-linejoin:round;stroke-miterlimit:3.1;paint-order:markers stroke fill"
         d="m 138.98604,100.3819 c 0,0 2.52269,1.28606 2.78413,3.18107 0.26144,1.89502 -2.39548,1.95263 -2.68994,1.44985 -0.29443,-0.50274 0.32899,-0.47755 0.65061,-0.47266 0.32164,0.005 1.3336,-0.49362 0.14853,-2.02216 -1.18508,-1.52853 -1.40701,-1.89678 -1.21742,-1.9802 0.18956,-0.0834 0.32405,-0.15595 0.32405,-0.15595 z"
         id="path17-6" />
      <path
         style="fill:#111b09;fill-opacity:1;stroke-width:2.117;stroke-linejoin:round;stroke-miterlimit:3.1;paint-order:markers stroke fill"
         d="m 146.12474,104.09622 c 0.89912,1.2417 1.19712,2.28199 1.15164,3.2072 -0.0455,0.9252 -0.25381,1.72237 -0.44006,1.07219 -0.18626,-0.65018 0.20361,-2.03309 -0.9993,-3.42065 -1.20292,-1.38756 -1.3236,-1.49434 -1.59272,-1.5454 -0.45904,-0.0871 -0.52157,-0.27977 -0.28337,-0.46445 0.23821,-0.18469 0.28958,-0.11303 0.49147,-0.11394 0.75165,-0.003 1.20148,0.65879 1.67233,1.26505 z"
         id="path20-2"
         sodipodi:nodetypes="ssssssss" />
      <path
         style="fill:#111b09;fill-opacity:1;stroke-width:2.117;stroke-linejoin:round;stroke-miterlimit:3.1;paint-order:markers stroke fill"
         d="m 143.62767,98.395124 c 0.43867,0.347929 0.80035,0.727939 1.33045,1.440662 0.99754,1.341184 0.89232,1.701694 0.57491,1.959014 -0.31733,0.25742 -0.67852,0.55972 -1.12856,-0.0352 -0.45004,-0.59499 -0.79051,-2.555968 -1.52493,-2.604616 -0.73442,-0.04865 -0.77171,0.396043 -0.95302,0.278147 -0.18129,-0.117891 0.0528,-0.917447 0.60153,-1.151825 0.5487,-0.234379 0.7953,-0.127507 1.09962,0.113858 z"
         id="path21-3"
         sodipodi:nodetypes="sscsssss" />
      <path
         style="fill:#111b09;fill-opacity:1;stroke-width:2.117;stroke-linejoin:round;stroke-miterlimit:3.1;paint-order:markers stroke fill"
         d="m 138.2692,96.960249 c 0,0 -0.28673,0.065 -0.62867,-0.43404 -0.34195,-0.499017 -0.28346,-3.061471 -0.52084,-3.686515 -0.23737,-0.625027 -0.58829,-0.352958 -0.58829,-0.352958 0,0 -1.33839,1.172492 -1.51959,2.504117 -0.1812,1.331616 -0.16921,1.636966 -0.16921,1.636966 0,0 -0.29477,0.22853 -0.64964,0.0317 -0.35488,-0.19683 0.82022,-5.580263 2.69581,-5.596058 1.87559,-0.0158 2.87004,2.62929 2.65446,4.032518 -0.21558,1.40323 -1.27403,1.86426 -1.27403,1.86426 z"
         id="path24-8" />
      <path
         style="opacity:1;fill:#111b09;fill-opacity:1;stroke-width:2.117;stroke-linejoin:round;stroke-miterlimit:3.1;paint-order:markers stroke fill"
         d="m 169.77227,120.84852 c 0,0 0.90728,0.74967 2.28879,-0.20483 1.38151,-0.9545 1.06812,-3.40073 0.36654,-3.76484 -0.70157,-0.36411 -1.42979,-0.79927 -1.42979,-0.79927 l -0.55948,0.22202 c 0,0 -0.38187,0.24866 0.14209,0.71934 0.52396,0.47067 1.84718,0.21313 1.2877,1.42979 -0.55948,1.21666 -1.68733,1.78502 -1.85607,1.99816 -0.16873,0.21313 -0.23978,0.39963 -0.23978,0.39963 z"
         id="path115" />
    </g>
  </g>
</svg>
