<?xml version="1.0" encoding="UTF-8" standalone="no"?>
<!-- Created with Inkscape (http://www.inkscape.org/) -->

<svg
   width="103.09315"
   height="100.4893"
   viewBox="0 0 27.276729 26.587793"
   version="1.1"
   id="svg1"
   xml:space="preserve"
   inkscape:version="1.3 (0e150ed6c4, 2023-07-21)"
   sodipodi:docname="timer.svg"
   xmlns:inkscape="http://www.inkscape.org/namespaces/inkscape"
   xmlns:sodipodi="http://sodipodi.sourceforge.net/DTD/sodipodi-0.dtd"
   xmlns="http://www.w3.org/2000/svg"
   xmlns:svg="http://www.w3.org/2000/svg"><sodipodi:namedview
     id="namedview1"
     pagecolor="#c1c1c1"
     bordercolor="#000000"
     borderopacity="0.25"
     inkscape:showpageshadow="2"
     inkscape:pageopacity="0.0"
     inkscape:pagecheckerboard="0"
     inkscape:deskcolor="#d1d1d1"
     inkscape:document-units="px"
     inkscape:zoom="2.6333614"
     inkscape:cx="-5.8860132"
     inkscape:cy="50.695662"
     inkscape:window-width="1920"
     inkscape:window-height="974"
     inkscape:window-x="-11"
     inkscape:window-y="-11"
     inkscape:window-maximized="1"
     inkscape:current-layer="layer2" /><defs
     id="defs1" /><g
     inkscape:groupmode="layer"
     id="layer2"
     inkscape:label="White"
     transform="translate(1.0211028,0.56058245)"><path
       id="path1-0"
       style="fill:#ffffff;fill-opacity:1;stroke:#111b09;stroke-width:2.64583;stroke-linejoin:round;stroke-miterlimit:3.1;stroke-dasharray:none;stroke-opacity:1;paint-order:markers stroke fill"
       d="m 19.673677,0.76374021 c -1.499531,-0.030546 -2.827421,0.49712499 -2.960026,1.45985899 -0.127798,0.927801 0.193839,1.026535 2.251542,1.738395 3.854243,1.333371 3.355191,6.4165158 4.778003,4.061251 0.689364,-1.141144 1.255935,-3.189552 -0.01137,-5.258077 0.680431,-0.341981 1.20096,-0.650089 1.20096,-0.650089 L 23.725109,0.80198021 C 23.534686,0.92315921 23.052432,1.2113662 22.522598,1.5600742 21.685694,1.0387012 20.644463,0.78351521 19.673677,0.76374021 Z m -17.6283808,0.045475 c -0.012169,8.53e-4 -0.024054,0.003237 -0.035657,0.006718 -0.371298,0.111389 -1.70790601,1.70790599 -1.70790601,1.70790599 l 1.32860101,0.605648 c -1.12254101,2.01437 -0.95159901,4.903983 0.456303,5.248775 0.909679,0.222779 1.040885,-0.087004 1.96112,-2.060339 1.723674,-3.696218 6.7285458,-2.676022 4.53254,-4.334103 -1.08302,-0.817728 -3.114325,-1.60739399 -5.349027,-0.474389 -0.116737,0.059186 -0.227481,0.127716 -0.33538,0.199988 C 2.5803342,1.2066342 2.2670962,0.79366321 2.0452962,0.80921521 Z M 12.880293,3.5268792 c -0.497778,-0.00748 -1.016569,0.00739 -1.557011,0.046508 -5.8246468,0.421601 -8.1387578,5.263906 -8.3870848,9.5151818 -0.53137,0.242448 -1.124066,0.784965 -1.290877,1.996777 -0.1948,1.415139 1.296606,2.377865 2.501139,2.917135 0.558962,0.824716 1.275895,1.570745 2.083077,2.215368 -1.291634,0.980245 -3.405598,2.781164 -2.692859,3.600814 1.004735,1.155445 0.803424,1.256251 1.808159,-0.150378 0.596455,-0.835038 1.698494,-1.751664 2.449463,-2.385384 1.743809,1.004767 3.6651238,1.570396 5.2368888,1.531172 2.081791,-0.05195 3.911829,-0.577263 5.425509,-1.423685 0.810873,0.916777 3.270113,3.535347 4.193542,2.661853 0.70756,-0.669299 1.192556,-0.911992 -0.348816,-1.694471 -0.836399,-0.424598 -1.733761,-1.285741 -2.39727,-1.949751 0.878864,-0.718224 1.597852,-1.563129 2.136304,-2.488221 0.433805,0.0075 0.970154,-0.196333 1.524972,-0.931726 C 24.407968,15.871313 23.732196,14.084923 23.14685,12.95576 22.819846,8.3471482 20.003744,3.6338762 12.880293,3.5268792 Z"
       inkscape:label="Outline" /><path
       style="opacity:1;fill:#ffffff;fill-opacity:1;stroke-width:5.82083;stroke-linejoin:round;stroke-miterlimit:3.1;paint-order:markers stroke fill"
       d="M 8.6105217,1.8265996 C 7.5275007,1.008871 5.4961227,0.21936923 3.2614173,1.3523748 0.56424335,2.719854 0.22890323,7.758509 2.1167639,8.2208423 3.0264443,8.4436211 3.1580371,8.1340232 4.0782731,6.1606845 5.8019483,2.4644637 10.806529,3.484682 8.6105217,1.8265996 Z"
       id="path1"
       sodipodi:nodetypes="sssss" /><path
       style="fill:#ffffff;fill-opacity:1;stroke-width:5.82083;stroke-linejoin:round;stroke-miterlimit:3.1;paint-order:markers stroke fill"
       d="m 23.773634,7.866128 c 0.7017,-1.1615645 1.27754,-3.2635207 -0.07985,-5.3694915 -1.638294,-2.54179725 -6.684671,-2.3558161 -6.949883,-0.4303466 -0.127798,0.9278015 0.193723,1.0267714 2.251428,1.7386322 3.854247,1.3333714 3.355488,6.4164729 4.778301,4.0612059 z"
       id="path1-6"
       sodipodi:nodetypes="sssss" /><path
       style="opacity:1;fill:#ffffff;fill-opacity:1;stroke-width:5.82083;stroke-linejoin:round;stroke-miterlimit:3.1;paint-order:markers stroke fill"
       d="M 11.353518,3.416103 C 4.8106349,3.8896909 2.6946253,9.9422297 2.9639716,14.4682 3.2462048,19.210718 9.2056488,22.753025 13.061569,22.656799 19.306568,22.500953 23.301606,18.104252 23.209404,13.463464 23.107499,8.3342784 20.000599,2.7902087 11.353518,3.416103 Z"
       id="path2"
       sodipodi:nodetypes="sssss" /><path
       style="fill:#111b09;fill-opacity:1;stroke-width:5.82083;stroke-linejoin:round;stroke-miterlimit:3.1;paint-order:markers stroke fill"
       d="m 11.734175,5.63713 c -5.0856605,0.368111 -6.730395,5.072636 -6.5210372,8.590588 0.2193745,3.68627 4.8515392,6.439639 7.8486732,6.364844 4.854121,-0.121136 7.959388,-3.538609 7.887722,-7.145807 C 20.870323,9.4599359 18.455389,5.1506341 11.734175,5.63713 Z"
       id="path2-4"
       sodipodi:nodetypes="sssss" /><path
       style="opacity:1;fill:#ffffff;fill-opacity:1;stroke-width:5.82083;stroke-linejoin:round;stroke-miterlimit:3.1;paint-order:markers stroke fill"
       d="m 7.1838631,19.391407 c 0,0 -4.621786,3.114682 -3.6170499,4.270129 1.0047362,1.155446 0.8037888,1.25592 1.808525,-0.150711 C 6.3800743,22.104195 8.841678,20.44638 8.5904939,20.345906 8.3393099,20.245433 7.1838631,19.391407 7.1838631,19.391407 Z"
       id="path3" /><path
       style="fill:#ffffff;fill-opacity:1;stroke-width:5.82083;stroke-linejoin:round;stroke-miterlimit:3.1;paint-order:markers stroke fill"
       d="m 18.218355,20.923424 c 0,0 3.349856,4.023678 4.46223,2.971456 0.707561,-0.669299 1.192255,-0.911962 -0.349118,-1.694441 -1.541372,-0.782479 -3.318624,-3.074265 -3.380302,-2.810856 -0.06168,0.263409 -0.73281,1.533841 -0.73281,1.533841 z"
       id="path3-1"
       sodipodi:nodetypes="csssc" /><path
       style="opacity:1;fill:#ffffff;fill-opacity:1;stroke-width:5.82083;stroke-linejoin:round;stroke-miterlimit:3.1;paint-order:markers stroke fill"
       d="M 23.755539,0.64489586 C 23.177935,1.0124622 19.922347,2.9028031 20.762499,3.4278979 21.602651,3.9529927 24.963256,1.9576327 24.963256,1.9576327 Z"
       id="path5" /><path
       style="opacity:1;fill:#ffffff;fill-opacity:1;stroke-width:5.82083;stroke-linejoin:round;stroke-miterlimit:3.1;paint-order:markers stroke fill"
       d="m 3.8974779,12.739599 c 0,0 -1.9008416,-0.144854 -2.2220588,2.188652 -0.3212172,2.333507 3.9440477,3.439229 3.9440477,3.439229 z"
       id="path6" /><path
       style="fill:#ffffff;fill-opacity:1;stroke-width:5.82083;stroke-linejoin:round;stroke-miterlimit:3.1;paint-order:markers stroke fill"
       d="m 21.085088,17.354419 c 0,0 1.20529,1.206344 2.510539,-0.523721 1.305248,-1.730066 -1.034573,-5.077246 -1.034573,-5.077246 z"
       id="path6-5" /><path
       style="opacity:1;fill:#ffffff;fill-opacity:1;stroke-width:5.82083;stroke-linejoin:round;stroke-miterlimit:3.1;paint-order:markers stroke fill"
       d="M 3.5621876,2.626436 C 3.0795001,1.8095803 2.4111636,0.54716701 2.0398657,0.65855643 1.6685676,0.76994584 0.33189458,2.3665274 0.33189458,2.3665274 l 2.52482672,1.151024 z"
       id="path7" /></g></svg>
