<?xml version="1.0" encoding="UTF-8" standalone="no"?>
<!-- Created with Inkscape (http://www.inkscape.org/) -->

<svg
   width="96"
   height="96"
   viewBox="0 0 25.399999 25.4"
   version="1.1"
   id="svg1"
   inkscape:version="1.3 (0e150ed6c4, 2023-07-21)"
   sodipodi:docname="icon.svg"
   xmlns:inkscape="http://www.inkscape.org/namespaces/inkscape"
   xmlns:sodipodi="http://sodipodi.sourceforge.net/DTD/sodipodi-0.dtd"
   xmlns="http://www.w3.org/2000/svg"
   xmlns:svg="http://www.w3.org/2000/svg">
  <sodipodi:namedview
     id="namedview1"
     pagecolor="#ffffff"
     bordercolor="#000000"
     borderopacity="0.25"
     inkscape:showpageshadow="2"
     inkscape:pageopacity="0.0"
     inkscape:pagecheckerboard="0"
     inkscape:deskcolor="#d1d1d1"
     inkscape:document-units="px"
     inkscape:zoom="2.7402637"
     inkscape:cx="9.3056736"
     inkscape:cy="44.338798"
     inkscape:window-width="1920"
     inkscape:window-height="974"
     inkscape:window-x="-11"
     inkscape:window-y="-11"
     inkscape:window-maximized="1"
     inkscape:current-layer="layer1" />
  <defs
     id="defs1" />
  <g
     inkscape:label="Layer 1"
     inkscape:groupmode="layer"
     id="layer1">
    <path
       d="m 12.73386,2.4160893 q 0.578189,0 2.72089,0.4081335 -0.238078,0.034011 -0.340111,4.6255131 -0.06802,4.5574911 0.136044,9.1830041 0.238078,4.591502 0.748245,4.659524 0.136045,0.03401 0.170056,0.238078 0.06802,0.170055 0.102033,0.578189 0.06802,0.374122 0.102033,0.578189 0.06802,0.272089 -0.6122,0.3061 -0.646211,0.06802 -1.360445,-0.03401 l -0.714234,-0.102033 q -0.102033,-1.19039 -0.136044,-1.49649 -0.06802,0.102034 -0.102033,0.374123 -0.03401,0.238077 -0.170056,0.272089 -0.238078,0.03401 -0.3061,-2.244735 -0.03401,-2.312756 0.136044,-4.081335 -0.238078,-2.822923 -0.374122,-4.523479 -0.136045,-1.7345678 -0.136045,-1.5985233 0,0 0.03401,0.1700556 0.06802,0.1700556 0,0.3401117 -0.06802,0.170055 -0.272089,0.646211 -0.170056,0.442145 -0.680223,1.292423 -0.510167,0.850278 -1.326434,2.108689 Q 9.0266473,16.156584 6.9519686,12.075249 6.1016905,10.170626 6.1016905,10.170626 6.781913,21.632375 7.0199909,22.550676 7.2240576,23.366943 4.2310786,22.754742 3.9249784,22.68672 3.9249784,22.68672 L 4.0950341,22.07452 3.9249784,2.7562006 q 2.0066564,-0.3061002 2.6528678,-0.3061002 0.4421447,0 0.6122003,0.7822559 Q 7.2920799,3.9125788 6.9519686,3.9125788 6.7138907,3.8785677 7.326091,5.7151685 7.9382912,7.5177581 8.686536,9.3543589 L 9.4347808,11.19096 q 0,0 2.3807792,-5.9179362 0.952311,-2.6188566 0.782255,-2.7549011 -0.102033,-0.068022 0.136045,-0.1020334 z m 0,0 q 0.578189,0 2.72089,0.4081335 -0.238078,0.034011 -0.340111,4.6255131 -0.06802,4.5574911 0.136044,9.1830041 0.238078,4.591502 0.748245,4.659524 0.136045,0.03401 0.170056,0.238078 0.06802,0.170055 0.102033,0.578189 0.06802,0.374122 0.102033,0.578189 0.06802,0.272089 -0.6122,0.3061 -0.646211,0.06802 -1.360445,-0.03401 l -0.714234,-0.102033 q -0.102033,-1.19039 -0.136044,-1.49649 -0.06802,0.102034 -0.102033,0.374123 -0.03401,0.238077 -0.170056,0.272089 -0.238078,0.03401 -0.3061,-2.244735 -0.03401,-2.312756 0.136044,-4.081335 -0.238078,-2.822923 -0.374122,-4.523479 -0.136045,-1.7345678 -0.136045,-1.5985233 0,0 0.03401,0.1700556 0.06802,0.1700556 0,0.3401117 -0.06802,0.170055 -0.272089,0.646211 -0.170056,0.442145 -0.680223,1.292423 -0.510167,0.850278 -1.326434,2.108689 Q 9.0266473,16.156584 6.9519686,12.075249 6.1016905,10.170626 6.1016905,10.170626 6.781913,21.632375 7.0199909,22.550676 7.2240576,23.366943 4.2310786,22.754742 3.9249784,22.68672 3.9249784,22.68672 L 4.0950341,22.07452 3.9249784,2.7562006 q 2.0066564,-0.3061002 2.6528678,-0.3061002 0.4421447,0 0.6122003,0.7822559 Q 7.2920799,3.9125788 6.9519686,3.9125788 6.7138907,3.8785677 7.326091,5.7151685 7.9382912,7.5177581 8.686536,9.3543589 L 9.4347808,11.19096 q 0,0 2.3807792,-5.9179362 0.952311,-2.6188566 0.782255,-2.7549011 -0.102033,-0.068022 0.136045,-0.1020334 z m 6.598165,5.2037022 q 0.476156,0 1.122367,0.272089 0.374123,0.3401113 0.6122,1.3944562 0.272089,1.0543453 0,1.2244003 -0.408133,0.204067 -0.578189,0.272089 -0.170055,0.03401 -0.204066,0 0,-0.06802 0.03401,-0.204067 0.03401,-0.136044 0,-0.204066 -0.06802,-0.238078 -0.170056,-0.272089 -0.102033,-0.06802 -0.238078,0.03401 -0.136044,0.06802 -0.272089,0.204067 -0.136044,0.102033 -0.374122,0.238077 -0.204067,0.136045 -0.408134,0.170056 -0.544178,0.102033 -0.714233,-0.510167 -0.170056,-0.6462112 -0.03401,-1.5645116 0.03401,-0.3061001 0.476156,-0.6802225 0.476156,-0.3741224 0.748245,-0.3741224 z m -1.190389,4.9316135 q 0.06802,0 0.442144,-0.03401 0.374123,-0.03401 0.6122,-0.03401 0.272089,0 0.544178,0.03401 0.306101,0.03401 0.408134,0.102033 0.3061,0.204067 0.646211,1.496489 -0.510166,3.537158 -0.136044,6.087992 0.03401,0 0.102033,0 0.204067,0 0.272089,0 0.102034,0 0.272089,0.03401 0.170056,0.03401 0.238078,0.06802 0.06802,0.03401 0.170056,0.102034 0.136044,0.03401 0.102033,0.136044 -0.03401,0.06802 -0.03401,0.170056 l -0.476156,1.088356 -4.149357,-0.442145 0.374122,-0.544178 -0.3061,-0.238078 -0.170055,-0.374122 1.394456,-0.340111 q -0.170056,-0.612201 -0.238078,-1.394456 -0.06802,-0.816267 -0.06802,-1.258412 0.03401,-0.476156 0.06802,-1.530501 0.06802,-1.088356 0.102033,-1.360445 l -0.408133,0.544178 q -0.272089,0 -0.3061,-0.102033 0,-0.102034 0.136044,-0.204067 l 0.102033,-0.102033 -0.782255,0.102033 q 0.06802,-1.530501 0.6122,-1.870612 0.238078,-0.136044 0.476156,-0.136044 z"
       id="text1"
       style="-inkscape-font-specification:Zinfandel;fill:#fcaf17;stroke-width:1.4;stroke-linejoin:round;stroke-miterlimit:3.1"
       aria-label="Mi" />
  </g>
</svg>
