<?xml version="1.0" encoding="UTF-8" standalone="no"?>
<!-- Created with Inkscape (http://www.inkscape.org/) -->

<svg
   width="29.065922mm"
   height="22.075932mm"
   viewBox="0 0 29.065922 22.075932"
   version="1.1"
   id="svg1"
   inkscape:version="1.3 (0e150ed6c4, 2023-07-21)"
   sodipodi:docname="serundeng_06.svg"
   xmlns:inkscape="http://www.inkscape.org/namespaces/inkscape"
   xmlns:sodipodi="http://sodipodi.sourceforge.net/DTD/sodipodi-0.dtd"
   xmlns="http://www.w3.org/2000/svg"
   xmlns:svg="http://www.w3.org/2000/svg">
  <sodipodi:namedview
     id="namedview1"
     pagecolor="#ffffff"
     bordercolor="#000000"
     borderopacity="0.25"
     inkscape:showpageshadow="2"
     inkscape:pageopacity="0.0"
     inkscape:pagecheckerboard="0"
     inkscape:deskcolor="#d1d1d1"
     inkscape:document-units="mm"
     inkscape:zoom="1.3166807"
     inkscape:cx="81.264957"
     inkscape:cy="60.379104"
     inkscape:window-width="1920"
     inkscape:window-height="974"
     inkscape:window-x="-11"
     inkscape:window-y="-11"
     inkscape:window-maximized="1"
     inkscape:current-layer="layer1" />
  <defs
     id="defs1" />
  <g
     inkscape:label="Layer 1"
     inkscape:groupmode="layer"
     id="layer1"
     transform="translate(-90.487495,-137.58333)">
    <path
       style="fill:#ffd035;fill-opacity:1;stroke-width:2.117;stroke-linejoin:round;stroke-miterlimit:3.1;paint-order:markers stroke fill"
       d="m 98.86017,139.51041 c 0.60285,0.4019 4.7725,3.46634 4.7725,3.46634 0,0 -3.20622,5.39535 -3.84563,5.3243 -0.63941,-0.071 -2.09584,1.66957 -2.23793,1.7051 -0.14209,0.0355 -1.10121,0.24866 -3.01944,-0.67493 -1.91823,-0.9236 -4.26273,-1.95376 -1.77614,-3.05497 2.4866,-1.1012 6.10664,-6.76584 6.10664,-6.76584 z"
       id="path34" />
    <path
       style="fill:#fc9c27;fill-opacity:1;stroke-width:2.117;stroke-linejoin:round;stroke-miterlimit:3.1;paint-order:markers stroke fill"
       d="m 94.28101,144.28698 c 0,0 2.94839,2.13137 3.97855,2.55764 1.03016,0.42627 1.88271,0.53284 1.88271,0.53284 l -2.77078,2.59316 c 0,0 -5.18632,-1.06568 -4.83109,-2.06032 0.35522,-0.99464 1.74061,-3.62332 1.74061,-3.62332 z"
       id="path35" />
    <path
       style="fill:#fc9c27;fill-opacity:1;stroke-width:2.117;stroke-linejoin:round;stroke-miterlimit:3.1;paint-order:markers stroke fill"
       d="m 96.95118,152.17009 c 0,0 -0.57773,0.72843 -0.0502,2.00947 0.52749,1.28104 0.52749,1.53222 1.73317,2.13506 1.20568,0.60284 9.09286,-3.59193 9.19333,-4.49619 0.10048,-0.90426 -4.42084,-3.24027 -5.90282,-3.08957 -1.48199,0.15072 -3.03933,0.0251 -3.03933,0.0251 l -1.75829,3.41611 z"
       id="path36" />
    <path
       style="fill:#fffcc5;fill-opacity:1;stroke-width:2.117;stroke-linejoin:round;stroke-miterlimit:3.1;paint-order:markers stroke fill"
       d="m 101.20796,149.11808 c 0.99463,0.74598 1.36762,0.67493 1.58076,0.97687 0.21313,0.30195 0.47956,0.71046 -0.33747,0.99464 -0.81702,0.28418 -2.22017,2.07809 -2.71749,1.84719 -0.49732,-0.2309 -2.55764,-1.66957 -0.99464,-2.59317 1.563,-0.92359 1.42091,-1.58076 1.95376,-1.47419 0.53284,0.10657 0.51508,0.24866 0.51508,0.24866 z"
       id="path37" />
    <path
       style="fill:#f49826;fill-opacity:1;stroke-width:2.117;stroke-linejoin:round;stroke-miterlimit:3.1;paint-order:markers stroke fill"
       d="m 115.94991,145.58356 c 0,0 -3.14376,1.29658 -5.89678,2.18465 -2.75302,0.88807 -2.06032,4.08512 -0.87031,4.33378 1.19001,0.24866 0.99464,-0.85255 0.99464,-0.85255 0,0 4.51139,-0.97687 6.19872,-2.09584 1.68734,-1.11897 2.22018,-3.55228 1.17226,-3.49899 -1.04792,0.0533 -1.59853,-0.071 -1.59853,-0.071 z"
       id="path38" />
    <path
       style="fill:#fffec7;fill-opacity:1;stroke-width:2.117;stroke-linejoin:round;stroke-miterlimit:3.1;paint-order:markers stroke fill"
       d="m 108.31251,146.06312 c 0,0 0.99464,0.67493 3.37467,0.21313 2.38002,-0.46179 4.26273,-1.24329 4.26273,-1.24329 l 0.81702,0.92359 c 0,0 -0.46179,0.60389 -2.27345,1.17225 -1.81166,0.56837 -3.41019,0.74598 -3.97855,1.10121 -0.56837,0.35523 -0.67494,1.88271 -1.88271,2.20241 -1.20778,0.31971 -2.06032,-0.39075 -1.7051,-1.45643 0.35523,-1.06569 1.38539,-2.91287 1.38539,-2.91287 z"
       id="path39" />
    <path
       style="fill:#eec085;fill-opacity:1;stroke-width:2.117;stroke-linejoin:round;stroke-miterlimit:3.1;paint-order:markers stroke fill"
       d="m 108.08161,146.79133 c 0,0 2.91287,0.17762 4.44035,-0.12432 1.52748,-0.30195 3.44571,-1.58077 2.75302,-2.1669 -0.6927,-0.58612 -5.34618,0 -5.43499,0.0355 -0.0888,0.0355 -1.75838,2.25569 -1.75838,2.25569 z"
       id="path40" />
    <path
       style="fill:#eec085;fill-opacity:1;stroke-width:2.117;stroke-linejoin:round;stroke-miterlimit:3.1;paint-order:markers stroke fill"
       d="m 107.40043,152.79805 c 0,0 -8.41466,1.13032 -7.73647,2.8635 0.6782,1.73317 3.21516,1.83364 4.84785,1.63269 1.6327,-0.20095 2.63744,0.0251 2.63744,0.0251 0,0 -0.70332,1.40663 1.20568,1.43175 1.909,0.0251 9.36916,-2.63743 9.11798,-4.14453 -0.25118,-1.50711 -4.0943,-1.95924 -4.0943,-1.95924 0,0 -3.99383,-0.30142 -4.69714,-0.15071 -0.70332,0.15071 -1.28104,0.30142 -1.28104,0.30142 z"
       id="path41" />
    <path
       style="fill:#bf874d;fill-opacity:1;stroke-width:2.117;stroke-linejoin:round;stroke-miterlimit:3.1;paint-order:markers stroke fill"
       d="m 106.64688,153.47624 c 0,0 -0.52749,0.37678 -0.0754,2.00948 0.45213,1.63269 0.47725,1.63269 1.15545,1.28104 0.6782,-0.35166 4.01894,-3.21516 4.62179,-4.11942 0.60284,-0.90427 0.60284,-2.3109 0.60284,-2.3109 0,0 -5.90283,2.03459 -6.07866,2.33602 -0.17582,0.30142 -0.22606,0.80378 -0.22606,0.80378 z"
       id="path42" />
    <path
       style="fill:#111b09;fill-opacity:1;stroke-width:2.117;stroke-linejoin:round;stroke-miterlimit:3.1;paint-order:markers stroke fill"
       d="m 98.4834,148.45256 c 0,0 -0.90427,0.91682 -1.31872,1.43175 -0.41445,0.51493 -1.08009,1.77085 -0.72843,2.63743 0.35166,0.86659 0.31398,1.19313 0.64052,0.23863 0.32654,-0.9545 0.77867,-2.04715 1.14288,-2.66255 0.36422,-0.6154 0.71588,-0.80379 0.71588,-0.80379 0,0 -0.0126,0.41445 0.31398,0.31398 0.32654,-0.10047 -0.0377,-0.40189 0.31398,-0.40189 0.35166,0 1.39581,-0.15909 3.38508,0.40928 1.98928,0.56836 3.42795,1.31434 3.69437,1.58076 0.26642,0.26642 0.42627,0.79926 0.17762,0.79926 -0.24866,0 -0.55061,0.1421 -1.04793,0.53285 -0.49732,0.39075 -1.04792,1.22553 -0.83478,1.34986 0.21314,0.12433 -0.0355,0.51508 0.97687,0.35523 1.0124,-0.15985 2.77078,-1.22554 3.64109,-1.31434 0.87031,-0.0888 1.31434,0.17761 1.4742,-0.15986 0.15985,-0.33746 0.24865,-0.94135 -0.15986,-1.08344 -0.40851,-0.14209 -1.75838,-0.28418 -1.75838,-0.28418 0,0 -1.51039,-1.68306 -2.21371,-2.2859 -0.70331,-0.60284 -3.77188,-1.9946 -5.31712,-2.04788 -1.54524,-0.0533 -1.70509,0.26642 -1.98927,0.24865 -0.28418,-0.0178 -0.62165,-0.071 -0.76374,0.17762 -0.14209,0.24866 -0.34453,0.96853 -0.34453,0.96853 z"
       id="path28" />
    <path
       style="fill:#111b09;fill-opacity:1;stroke-width:2.117;stroke-linejoin:round;stroke-miterlimit:3.1;paint-order:markers stroke fill"
       d="m 100.86965,147.62366 c 0,0 4.11941,-4.39572 3.99382,-4.84786 -0.12559,-0.45213 -0.22606,-0.15071 -0.60284,-0.40189 -0.37678,-0.25118 -0.35166,-0.17583 -0.60284,-0.72843 -0.25119,-0.55261 -3.5417,-3.89336 -4.04407,-3.99383 -0.50236,-0.10047 -1.1052,-0.12559 -1.55734,0.17583 -0.45213,0.30142 -0.17582,1.65781 -1.75828,3.26539 -1.58246,1.60758 -3.46634,4.67202 -4.4962,5.02368 -1.02985,0.35166 -1.55734,0.9545 -1.20568,1.30616 0.35166,0.35166 1.13033,1.45687 2.96397,2.43648 1.83364,0.97962 3.31563,0.72844 3.31563,0.72844 0,0 1.13033,-0.6782 0.80379,-0.80379 -0.32654,-0.12559 -4.69714,-1.60758 -4.44596,-1.80853 0.25118,-0.20094 0.60284,-1.43174 2.4616,-3.39098 1.85877,-1.95924 2.51184,-4.3706 3.34075,-3.94359 0.82891,0.42701 3.36587,1.78341 3.71752,2.13506 0.35166,0.35166 0.55261,0.42702 0.35166,0.57773 -0.20094,0.15071 -3.46634,3.79288 -2.7379,4.14453 0.72843,0.35166 0.50237,0.1256 0.50237,0.1256 z"
       id="path29" />
    <path
       style="fill:#111b09;fill-opacity:1;stroke-width:2.117;stroke-linejoin:round;stroke-miterlimit:3.1;paint-order:markers stroke fill"
       d="m 111.06553,141.7471 c -0.0355,0.12433 -2.14913,2.38003 -3.12601,2.8063 -0.97687,0.42627 -1.75837,0.90583 -1.75837,1.20777 0,0.30195 -0.31971,2.2557 0.35522,3.14377 0.67494,0.88807 0.17762,1.52748 0.78151,0.7815 0.60388,-0.74598 1.84718,-2.84182 2.27345,-3.44571 0.42628,-0.60389 0.63941,-1.49196 1.38539,-1.34986 0.74598,0.14209 2.66421,0.53284 3.44571,0.92359 0.7815,0.39075 3.76542,0.63941 3.12601,1.34987 -0.63941,0.71045 -3.19705,2.23793 -4.36931,2.77077 -1.17225,0.53284 -5.04423,1.31434 -4.40482,1.56301 0.63941,0.24865 1.563,0.35522 1.563,0.35522 0,0 4.40483,-1.70509 6.21649,-2.20241 1.81166,-0.49732 3.16153,-3.23257 2.98391,-3.33914 -0.17761,-0.10657 -1.31434,-1.56301 -2.45107,-2.13137 -1.13673,-0.56836 -6.02111,-2.43331 -6.02111,-2.43331 z"
       id="path30" />
    <path
       style="fill:#111b09;fill-opacity:1;stroke-width:2.117;stroke-linejoin:round;stroke-miterlimit:3.1;paint-order:markers stroke fill"
       d="m 107.28235,145.09512 c 0,0 -0.79038,-0.85255 -2.42443,-0.75486 -1.63405,0.0977 -2.00704,1.34099 -1.30546,1.5186 0.70157,0.17762 1.8383,-0.10657 2.15801,-0.11545 0.3197,-0.009 0.64829,0.0977 0.64829,0.0977 z"
       id="path31" />
    <path
       style="fill:#111b09;fill-opacity:1;stroke-width:2.117;stroke-linejoin:round;stroke-miterlimit:3.1;paint-order:markers stroke fill"
       d="m 96.75023,154.83264 c 0,0 1.20568,2.26065 3.21515,2.91373 2.00948,0.65308 4.57155,0.4019 5.92795,-0.0502 1.35639,-0.45214 2.61231,-0.9545 1.75828,-1.10521 -0.85402,-0.15072 -2.31089,1.20568 -5.97818,-0.25119 -3.66728,-1.45687 -4.97344,-2.00947 -4.97344,-2.00947 z"
       id="path32" />
    <path
       style="fill:#111b09;fill-opacity:1;stroke-width:2.117;stroke-linejoin:round;stroke-miterlimit:3.1;paint-order:markers stroke fill"
       d="m 106.39428,157.18175 c 0,0 0.35523,2.09584 1.49196,2.41555 1.13673,0.3197 7.45978,-0.63941 8.70308,-1.91823 1.2433,-1.27882 2.0248,-3.80094 -0.071,-4.68901 -2.09585,-0.88807 -3.80094,-0.92359 -4.36931,-0.74598 -0.56836,0.17762 -0.88807,0.53284 -0.63941,0.67494 0.24866,0.14209 1.56301,0.3197 2.16689,0.3197 0.60389,0 2.77078,0.88807 2.45107,1.31434 -0.3197,0.42628 0.071,0.60389 -2.77077,1.7051 -2.84182,1.1012 -4.08512,2.13136 -4.8311,1.74061 -0.74598,-0.39075 -1.06569,-1.1012 -1.06569,-1.1012 z"
       id="path33" />
    <path
       style="fill:#111b09;fill-opacity:1;stroke-width:2.117;stroke-linejoin:round;stroke-miterlimit:3.1;paint-order:markers stroke fill"
       d="m 111.51844,152.76804 c 0,0 0.51509,-0.41739 0.80815,-1.26993 0.29306,-0.85255 -0.22202,-0.78151 0.44403,-1.04793 0.66605,-0.26642 1.03904,-0.47067 0.79926,0.66605 -0.23977,1.13673 -1.45643,1.55413 -1.45643,1.55413 z"
       id="path43" />
  </g>
</svg>
