<?xml version="1.0" encoding="UTF-8" standalone="no"?>
<!-- Created with Inkscape (http://www.inkscape.org/) -->

<svg
   width="8.9782143mm"
   height="7.5803299mm"
   viewBox="0 0 8.9782143 7.5803299"
   version="1.1"
   id="svg1"
   inkscape:version="1.3 (0e150ed6c4, 2023-07-21)"
   sodipodi:docname="serundeng_07.svg"
   xmlns:inkscape="http://www.inkscape.org/namespaces/inkscape"
   xmlns:sodipodi="http://sodipodi.sourceforge.net/DTD/sodipodi-0.dtd"
   xmlns="http://www.w3.org/2000/svg"
   xmlns:svg="http://www.w3.org/2000/svg">
  <sodipodi:namedview
     id="namedview1"
     pagecolor="#ffffff"
     bordercolor="#000000"
     borderopacity="0.25"
     inkscape:showpageshadow="2"
     inkscape:pageopacity="0.0"
     inkscape:pagecheckerboard="0"
     inkscape:deskcolor="#d1d1d1"
     inkscape:document-units="mm"
     inkscape:zoom="1.3166807"
     inkscape:cx="40.252736"
     inkscape:cy="29.99968"
     inkscape:window-width="1920"
     inkscape:window-height="974"
     inkscape:window-x="-11"
     inkscape:window-y="-11"
     inkscape:window-maximized="1"
     inkscape:current-layer="layer1" />
  <defs
     id="defs1" />
  <g
     inkscape:label="Layer 1"
     inkscape:groupmode="layer"
     id="layer1"
     transform="translate(-100.27708,-144.72708)">
    <path
       style="fill:#eec085;fill-opacity:1;stroke-width:2.117;stroke-linejoin:round;stroke-miterlimit:3.1;paint-order:markers stroke fill"
       d="m 104.71885,145.39111 c -0.17761,0.17762 -3.65885,2.06033 -3.65885,2.06033 l 1.91823,3.76541 c 0,0 4.40483,0.35523 4.90215,-1.17225 0.49732,-1.52748 0.10657,-2.66421 0.10657,-2.66421 z"
       id="path44" />
    <path
       style="fill:#bf884e;fill-opacity:1;stroke-width:2.117;stroke-linejoin:round;stroke-miterlimit:3.1;paint-order:markers stroke fill"
       d="m 101.80598,149.36967 c 0,0 0.0178,-0.90583 0.92359,-1.20778 0.90583,-0.30194 2.82407,1.20778 2.45108,1.72286 -0.37299,0.51508 -1.88271,0.88807 -1.88271,0.88807 z"
       id="path45" />
    <path
       id="path43"
       style="fill:#111b09;fill-opacity:1;stroke-width:2.117;stroke-linejoin:round;stroke-miterlimit:3.1;paint-order:markers stroke fill"
       d="m 104.36557,144.72926 c 3.05888,-0.0828 5.8268,2.2018 4.58628,4.70462 -1.43175,2.88862 -2.73788,2.91363 -5.17436,2.86339 -2.43649,-0.0502 -4.571327,-4.87289 -2.91352,-6.2544 1.06326,-0.88605 2.30464,-1.28121 3.5016,-1.31361 z m 1.11724,1.54977 c 0,0 -0.90606,0.79934 -1.70532,1.048 -0.79927,0.24866 -1.66979,-0.12406 -1.70532,0.55087 -0.0355,0.67493 0.0716,1.63392 1.49241,2.36213 1.42091,0.72822 1.36747,0.63935 1.74046,0.53278 0.37299,-0.10656 2.87735,-1.27891 2.39779,-2.62878 -0.47955,-1.34985 -2.22002,-1.865 -2.22002,-1.865 z" />
  </g>
</svg>
