<?xml version="1.0" encoding="UTF-8" standalone="no"?>
<!-- Created with Inkscape (http://www.inkscape.org/) -->

<svg
   width="14.098872mm"
   height="14.849795mm"
   viewBox="0 0 14.098872 14.849795"
   version="1.1"
   id="svg1"
   inkscape:version="1.3 (0e150ed6c4, 2023-07-21)"
   sodipodi:docname="serundeng_05.svg"
   xmlns:inkscape="http://www.inkscape.org/namespaces/inkscape"
   xmlns:sodipodi="http://sodipodi.sourceforge.net/DTD/sodipodi-0.dtd"
   xmlns="http://www.w3.org/2000/svg"
   xmlns:svg="http://www.w3.org/2000/svg">
  <sodipodi:namedview
     id="namedview1"
     pagecolor="#ffffff"
     bordercolor="#000000"
     borderopacity="0.25"
     inkscape:showpageshadow="2"
     inkscape:pageopacity="0.0"
     inkscape:pagecheckerboard="0"
     inkscape:deskcolor="#d1d1d1"
     inkscape:document-units="mm"
     inkscape:zoom="0.65834035"
     inkscape:cx="-132.15049"
     inkscape:cy="88.859813"
     inkscape:window-width="1920"
     inkscape:window-height="974"
     inkscape:window-x="-11"
     inkscape:window-y="-11"
     inkscape:window-maximized="1"
     inkscape:current-layer="layer1" />
  <defs
     id="defs1" />
  <g
     inkscape:label="Layer 1"
     inkscape:groupmode="layer"
     id="layer1"
     transform="translate(-139.96458,-125.14792)">
    <path
       style="fill:#eec085;fill-opacity:1;stroke-width:2.117;stroke-linejoin:round;stroke-miterlimit:3.1;paint-order:markers stroke fill"
       d="m 143.20693,133.17612 c 0,0 -2.30899,-2.69973 -1.52748,-4.0496 0.7815,-1.34986 2.38002,-1.63404 2.38002,-1.63404 l 2.73526,1.84718 c 0,0 -0.35523,-0.7815 0.3197,-1.95375 0.67494,-1.17226 2.38003,-1.98928 2.66421,-1.56301 0.28419,0.42628 2.20241,0.88807 2.20241,1.2433 0,0.35523 0.74598,4.54692 0.74598,4.54692 0,0 -3.97855,1.42091 -4.01407,1.81166 -0.0355,0.39075 0.0355,2.55764 -2.06032,3.80094 -2.09585,1.2433 -2.94839,1.63405 -2.94839,1.63405 0,0 -3.69437,0.28418 -2.80631,-1.66957 0.88808,-1.95376 2.30899,-4.01408 2.30899,-4.01408 z"
       id="path24" />
    <path
       style="fill:#fffbc5;fill-opacity:1;stroke-width:2.117;stroke-linejoin:round;stroke-miterlimit:3.1;paint-order:markers stroke fill"
       d="m 146.27955,129.52669 c 0,0 -2.19786,-1.60757 -2.37369,-1.58246 -0.17583,0.0251 -1.93411,-0.18839 -1.09265,1.64526 0.84147,1.83364 1.46943,2.67511 1.99692,3.22771 0.52748,0.55261 1.09265,1.09265 1.68293,0.72844 0.59028,-0.36422 0.57772,-1.98436 0.46469,-2.08483 -0.11303,-0.10047 -0.6782,-1.93412 -0.6782,-1.93412 z"
       id="path25" />
    <path
       style="fill:#bf874d;fill-opacity:1;stroke-width:2.117;stroke-linejoin:round;stroke-miterlimit:3.1;paint-order:markers stroke fill"
       d="m 143.26534,133.72147 c 0,0 1.02986,-0.89171 1.84621,-0.70332 0.81635,0.18839 0.97962,0.84147 1.40663,0.81635 0.42701,-0.0251 1.8462,-0.71587 1.85876,-0.50237 0.0126,0.21351 0.2763,0.81635 0.0126,1.54478 -0.26375,0.72844 -1.98436,4.00639 -3.30307,4.05663 -1.31872,0.0502 -4.02863,-0.35795 -3.93983,-1.90319 0.0888,-1.54525 1.15449,-1.95376 1.27882,-2.00704 0.12433,-0.0533 0.83992,-1.30184 0.83992,-1.30184 z"
       id="path26" />
    <path
       style="fill:#111b09;fill-opacity:1;stroke-width:2.117;stroke-linejoin:round;stroke-miterlimit:3.1;paint-order:markers stroke fill"
       d="m 145.95301,128.4466 c 0,0 -1.02985,0.85403 -0.25118,2.03459 0.77867,1.18057 1.29988,1.6327 1.42547,1.51967 0.12559,-0.11304 0.42073,-1.89644 0.2449,-2.44905 -0.17583,-0.5526 -0.13815,-1.58246 0.35166,-2.04715 0.48981,-0.46469 1.31872,-1.25592 1.31872,-1.25592 0,0 -0.13815,0.18839 0.59028,0.32654 0.72843,0.13815 0.74099,-0.11303 1.04241,0.18839 0.30142,0.30142 0.60284,0.23862 0.6154,1.34383 0.0126,1.10521 0.22607,2.0346 0.62796,2.42393 0.4019,0.38933 0.57773,0.71588 0.3391,0.79123 -0.23862,0.0754 -4.16642,1.21405 -5.0012,1.3739 -0.83479,0.15986 -1.26106,-0.42627 -1.45644,0.24866 -0.19537,0.67494 -0.2309,1.2433 0.71046,1.42091 0.94135,0.17762 7.14008,-1.75837 7.47754,-3.07272 0.33747,-1.31434 -0.53284,-1.98927 -1.13673,-2.98391 -0.60388,-0.99464 -1.13672,-2.5754 -2.3445,-3.01944 -1.20778,-0.44403 -1.81166,0.2309 -2.8063,0.94136 -0.99464,0.71045 -1.27882,1.3321 -1.58076,1.81166 -0.30195,0.47956 -0.16679,0.40352 -0.16679,0.40352 z"
       id="path27" />
    <path
       style="fill:#111b09;fill-opacity:1;stroke-width:2.117;stroke-linejoin:round;stroke-miterlimit:3.1;paint-order:markers stroke fill"
       d="m 146.19084,128.5404 c -1.17225,-0.81702 -1.74062,-0.88807 -1.97151,-1.42091 -0.2309,-0.53284 -2.0248,0.44403 -2.57541,0.94135 -0.5506,0.49732 -1.01239,1.3321 -1.01239,1.3321 0,0 -0.51509,0 -0.56837,0.21314 -0.0533,0.21314 -0.0533,0.90583 0.35523,1.77614 0.40851,0.87031 1.81166,2.0248 2.06032,2.29122 0.24866,0.26642 0.28418,0.58613 0.12433,0.60389 -0.15985,0.0177 -0.15985,-0.21314 -0.42627,-0.0888 -0.26642,0.12433 -0.56837,0.47956 -1.20778,0.95912 -0.63941,0.47955 -1.3321,1.61628 -0.83478,2.39779 0.49732,0.7815 2.62868,2.50435 3.94303,2.45107 1.31434,-0.0533 1.7939,-0.40852 2.61092,-1.36763 0.81702,-0.95912 1.58076,-2.09585 2.09584,-3.46347 0.51508,-1.36763 0.19538,-2.0248 0.19538,-2.0248 l -0.83479,0.42627 c 0,0 0.4618,-0.0355 -0.10657,1.04792 -0.56836,1.08345 -2.25569,3.09049 -2.85958,3.35691 -0.60388,0.26642 -0.87031,0.71045 -1.13673,0.46179 -0.26642,-0.24866 -0.14209,-0.69269 -0.95911,-0.99463 -0.81703,-0.30195 -1.4742,-0.63941 -1.43868,-0.87031 0.0355,-0.2309 0.97688,-1.17225 1.33211,-1.65181 0.35523,-0.47956 1.36763,-1.2433 1.20777,-1.63405 -0.15985,-0.39075 -1.52748,-1.91823 -1.72285,-2.87734 -0.19538,-0.95912 1.26106,-2.14913 1.81166,-1.88271 0.5506,0.26642 1.2433,0.8703 1.49196,0.72821 0.24866,-0.14209 0.42627,-0.71045 0.42627,-0.71045 z"
       id="path28" />
  </g>
</svg>
