<?xml version="1.0" encoding="UTF-8" standalone="no"?>
<!-- Created with Inkscape (http://www.inkscape.org/) -->

<svg
   width="10.686526mm"
   height="8.5887632mm"
   viewBox="0 0 10.686526 8.5887632"
   version="1.1"
   id="svg1"
   inkscape:version="1.3 (0e150ed6c4, 2023-07-21)"
   sodipodi:docname="serundeng_03.svg"
   xmlns:inkscape="http://www.inkscape.org/namespaces/inkscape"
   xmlns:sodipodi="http://sodipodi.sourceforge.net/DTD/sodipodi-0.dtd"
   xmlns="http://www.w3.org/2000/svg"
   xmlns:svg="http://www.w3.org/2000/svg">
  <sodipodi:namedview
     id="namedview1"
     pagecolor="#ffffff"
     bordercolor="#000000"
     borderopacity="0.25"
     inkscape:showpageshadow="2"
     inkscape:pageopacity="0.0"
     inkscape:pagecheckerboard="0"
     inkscape:deskcolor="#d1d1d1"
     inkscape:document-units="mm"
     inkscape:zoom="0.65834035"
     inkscape:cx="30.379423"
     inkscape:cy="-160.25146"
     inkscape:window-width="1920"
     inkscape:window-height="974"
     inkscape:window-x="-11"
     inkscape:window-y="-11"
     inkscape:window-maximized="1"
     inkscape:current-layer="layer1" />
  <defs
     id="defs1" />
  <g
     inkscape:label="Layer 1"
     inkscape:groupmode="layer"
     id="layer1"
     transform="translate(-96.837503,-191.02917)">
    <path
       style="fill:#fffcc5;fill-opacity:1;stroke-width:2.117;stroke-linejoin:round;stroke-miterlimit:3.1;paint-order:markers stroke fill"
       d="m 100.43495,193.10447 c 0,0 2.1853,1.15545 3.24028,1.58246 1.05497,0.42701 2.28577,0.2763 2.28577,0.42701 0,0.15071 -0.50237,3.24028 -2.13506,2.96397 -1.6327,-0.2763 -3.44123,-0.80379 -3.46634,-2.00947 -0.0251,-1.20568 0.0754,-2.96397 0.0754,-2.96397 z"
       id="path18" />
    <path
       style="fill:#eec085;fill-opacity:1;stroke-width:2.117;stroke-linejoin:round;stroke-miterlimit:3.1;paint-order:markers stroke fill"
       d="m 99.46789,191.18291 c 0.30142,0.0879 0.10048,-0.54004 0.59029,0.25118 0.4898,0.79124 1.33127,1.33128 1.33127,1.98436 0,0.65308 0.10047,2.67511 -0.74099,2.62487 -0.84147,-0.0502 -3.07701,-1.08009 -2.78815,-2.36113 0.28887,-1.28104 -0.10047,-0.21351 0.31399,-1.04241 0.41445,-0.82891 1.29359,-1.45687 1.29359,-1.45687 z"
       id="path19" />
    <path
       style="fill:#c0884e;fill-opacity:1;stroke-width:2.117;stroke-linejoin:round;stroke-miterlimit:3.1;paint-order:markers stroke fill"
       d="m 98.36268,192.41371 c 0.65308,0.23863 1.78341,0.37678 2.1853,0.96706 0.4019,0.59028 0.1256,0.3391 0.28887,1.10521 0.16327,0.76611 0.70331,1.5699 0.56516,1.67037 -0.13815,0.10048 -1.58246,1.43175 -2.56208,0.36422 -0.97962,-1.06753 -1.67037,-2.51184 -1.40663,-3.12724 0.26375,-0.6154 0.92938,-0.97962 0.92938,-0.97962 z"
       id="path20" />
    <path
       style="fill:#fc9c27;fill-opacity:1;stroke-width:2.117;stroke-linejoin:round;stroke-miterlimit:3.1;paint-order:markers stroke fill"
       d="m 98.09894,193.43101 c 0,0 0.30142,1.43175 1.40663,1.77085 1.10521,0.33909 2.17274,-0.25119 2.41137,0.22606 0.23862,0.47725 -0.48981,0.25118 0.26374,0.75355 0.75355,0.50237 2.41137,0.42702 2.41137,0.42702 0,0 -0.82891,1.60757 -2.73791,2.00947 -1.909,0.40189 -3.60449,-0.56517 -4.00638,-1.88388 -0.4019,-1.31872 -0.0754,-3.84312 0.12559,-3.73009 0.20095,0.11304 0.12559,0.42702 0.12559,0.42702 z"
       id="path21" />
    <path
       style="display:inline;fill:#111b09;fill-opacity:1;stroke-width:2.117;stroke-linejoin:round;stroke-miterlimit:3.1;paint-order:markers stroke fill"
       d="m 100.08329,191.14523 c 0,0 -0.2763,0.42702 -0.62796,0.55261 -0.35165,0.12559 -2.05971,0.5526 -1.48198,3.1398 0.57772,2.58719 2.21042,3.36586 3.818,2.83838 1.60757,-0.52749 3.94358,-2.13507 3.24027,-2.46161 -0.70331,-0.32654 -2.33601,-0.10047 -3.4161,-0.90426 -1.0801,-0.80379 -2.10995,-3.08956 -1.40663,-2.81326 0.70331,0.2763 1.43175,2.38625 4.04406,2.88862 2.61231,0.50236 3.19004,0.45213 3.26539,0.97961 0.0754,0.52749 -0.57772,2.26066 -3.21515,3.64217 -2.63744,1.38152 -6.60614,0.30142 -7.25922,-2.05971 -0.65308,-2.36113 0.37677,-4.77249 1.2308,-5.45069 0.85403,-0.6782 1.80852,-0.35166 1.80852,-0.35166 z"
       id="path17" />
  </g>
</svg>
