<?xml version="1.0" encoding="UTF-8" standalone="no"?>
<!-- Created with Inkscape (http://www.inkscape.org/) -->

<svg
   width="14.799478mm"
   height="15.157174mm"
   viewBox="0 0 14.799478 15.157174"
   version="1.1"
   id="svg1"
   inkscape:version="1.3 (0e150ed6c4, 2023-07-21)"
   sodipodi:docname="serundeng_01.svg"
   xmlns:inkscape="http://www.inkscape.org/namespaces/inkscape"
   xmlns:sodipodi="http://sodipodi.sourceforge.net/DTD/sodipodi-0.dtd"
   xmlns="http://www.w3.org/2000/svg"
   xmlns:svg="http://www.w3.org/2000/svg">
  <sodipodi:namedview
     id="namedview1"
     pagecolor="#ffffff"
     bordercolor="#000000"
     borderopacity="0.25"
     inkscape:showpageshadow="2"
     inkscape:pageopacity="0.0"
     inkscape:pagecheckerboard="0"
     inkscape:deskcolor="#d1d1d1"
     inkscape:document-units="mm"
     inkscape:zoom="1.8620677"
     inkscape:cx="96.666733"
     inkscape:cy="56.657446"
     inkscape:window-width="1920"
     inkscape:window-height="974"
     inkscape:window-x="-11"
     inkscape:window-y="-11"
     inkscape:window-maximized="1"
     inkscape:current-layer="layer1" />
  <defs
     id="defs1" />
  <g
     inkscape:label="Layer 1"
     inkscape:groupmode="layer"
     id="layer1"
     transform="translate(-97.366667,-141.02292)">
    <path
       style="fill:#fc9c27;fill-opacity:1;stroke-width:2.117;stroke-linejoin:round;stroke-miterlimit:3.1;paint-order:markers stroke fill"
       d="m 99.305612,150.08716 c 0,0 0.803788,0.50237 1.733168,0.65308 0.92938,0.15071 2.98909,-0.17583 3.84312,0 0.85402,0.17583 2.7379,0.42701 2.78814,0.5526 0.0502,0.12559 0.35166,1.43175 -0.25118,1.85876 -0.60285,0.42702 -1.65782,1.80853 -2.71279,2.00947 -1.05498,0.20095 -3.94359,0.35166 -4.39572,-0.1507 -0.452135,-0.50237 -1.808526,-1.05498 -1.833646,-2.61232 -0.02511,-1.55734 0.828908,-2.31089 0.828908,-2.31089 z"
       id="path5" />
    <path
       id="path4"
       style="fill:#111b09;fill-opacity:1;stroke-width:2.117;stroke-linejoin:round;stroke-miterlimit:3.1;paint-order:markers stroke fill"
       d="m 99.546767,149.49058 c -0.29504,0.0153 -0.648138,0.13798 -1.081071,0.4377 -1.385389,0.95911 -1.278782,3.01934 -0.674894,4.08502 0.603886,1.06568 2.202201,2.16679 4.191478,2.16679 1.98927,0 3.97862,-0.95903 4.4049,-1.20768 0.42627,-0.24866 0.32004,-0.39047 0.63975,-0.74569 0.3197,-0.35523 1.49163,-1.66993 1.42059,-2.70009 -0.071,-1.03017 -1.84692,-1.63401 -1.84692,-1.63401 0,0 -0.7459,0.14213 -1.34979,0.28422 -0.60389,0.14209 -1.27911,-0.28388 -2.13165,-0.0708 -0.85255,0.21314 -1.77631,0.49721 -2.23811,0.10646 -0.31748,-0.26864 -0.6852,-0.7555 -1.334283,-0.72192 z m 0.0088,1.40973 c 0.181256,0.003 0.313159,0.0584 0.313159,0.0584 0.213134,0.10657 0.639444,0.33744 1.243334,0.33744 0.60389,0 3.74802,-0.12433 4.13877,0 0.39075,0.12433 2.21982,-0.0712 2.23759,0.39068 0.0177,0.46179 -0.69268,2.59331 -3.2148,3.05511 -2.52211,0.46179 -4.724444,-0.62207 -5.186242,-1.68776 -0.461795,-1.06567 -0.231012,-1.91804 0.106454,-2.0779 0.12655,-0.0599 0.252981,-0.0775 0.361735,-0.076 z" />
    <path
       style="fill:#eec085;fill-opacity:1;stroke-width:2.117;stroke-linejoin:round;stroke-miterlimit:3.1;paint-order:markers stroke fill"
       d="m 106.63598,143.03694 c 0,0 2.48659,0.71045 3.72989,2.0248 1.24329,1.31434 1.1012,2.69973 1.1012,2.69973 0,0 -1.2433,2.13137 -2.30897,1.95375 -1.06569,-0.17761 -4.22722,-2.23793 -4.40483,-2.55764 -0.17762,-0.3197 1.88271,-4.12064 1.88271,-4.12064 z"
       id="path8" />
    <path
       style="fill:#bf874d;fill-opacity:1;stroke-width:2.117;stroke-linejoin:round;stroke-miterlimit:3.1;paint-order:markers stroke fill"
       d="m 105.13268,147.41582 c 0,0 0.76374,-0.33747 1.20777,-1.49196 0.44404,-1.15449 0.83479,-2.82406 0.83479,-2.82406 0,0 -1.08345,-0.94135 -2.07808,-0.60389 -0.99464,0.33747 -4.06736,3.10825 -3.67661,3.30362 0.39075,0.19538 3.71213,1.61629 3.71213,1.61629 z"
       id="path7" />
    <path
       style="fill:#fffcc5;fill-opacity:1;stroke-width:2.117;stroke-linejoin:round;stroke-miterlimit:3.1;paint-order:markers stroke fill"
       d="m 106.84911,148.68506 c 0,0 -0.0533,0.63941 0.71046,0.55061 0.76374,-0.0888 0.97688,-0.81703 1.34986,-0.71046 0.37299,0.10657 0.97688,0.12433 0.97688,-0.74598 0,-0.87031 -0.7815,-1.2433 -1.65181,-1.65181 -0.87031,-0.40851 -2.32674,-1.68733 -2.29122,-1.49196 0.0355,0.19538 -0.90583,0.94136 -1.22553,2.32675 -0.31971,1.38539 2.13136,1.72285 2.13136,1.72285 z"
       id="path9" />
    <path
       id="path6"
       style="fill:#111b09;fill-opacity:1;stroke-width:2.117;stroke-linejoin:round;stroke-miterlimit:3.1;paint-order:markers stroke fill"
       d="m 105.08502,141.02336 c -0.0653,0.004 -0.11024,0.0325 -0.13022,0.0925 -0.10657,0.3197 -1.03009,1.24293 -2.30891,2.09548 -1.27881,0.85255 -1.5276,0.78167 -1.95388,1.27899 -0.42627,0.49732 -0.10645,0.6041 -0.10645,0.6041 0,0 0.0708,0.56829 1.02991,1.34979 0.95911,0.78151 2.84218,2.20249 3.65921,2.48667 0.81702,0.28418 1.27838,0.39083 1.52703,0.56844 0.24867,0.17762 1.06597,0.85228 2.13166,0.8878 1.06568,0.0355 3.26787,-2.38021 3.23235,-3.33933 -0.0355,-0.95911 1.2e-4,-1.95346 -1.06557,-2.66392 -1.06567,-0.71045 -1.98913,-1.49223 -2.84168,-1.98955 -0.85254,-0.49732 -0.74619,-0.0354 -1.56321,-0.53278 -0.66383,-0.40408 -1.32748,-0.85477 -1.61024,-0.83819 z m 0.19896,1.89962 c 0.11025,-0.006 0.22452,0.0343 0.36328,0.12868 0.44404,0.30194 1.24341,0.55077 1.81178,0.79943 0.56836,0.24866 0.26627,-0.30225 1.2609,0.60358 0.99464,0.90583 1.43913,1.04829 1.49241,1.26143 0.0533,0.21313 -0.089,0.23062 0.15968,0.40824 0.24866,0.17761 0.63942,0.23096 0.47956,0.90589 -0.15985,0.67493 -0.94163,1.97173 -1.17253,2.04277 -0.2309,0.071 -0.33741,0.23078 -0.53279,0.10645 -0.19537,-0.12433 -0.63948,0.14178 -1.04799,-0.0713 -0.40852,-0.21313 -0.5148,-1.11881 -1.22525,-1.59836 -0.71046,-0.47956 -2.61117,-1.49199 -3.28611,-1.72289 -0.67493,-0.2309 -1.01234,-0.55035 -1.01234,-0.55035 0.63941,-0.47956 1.22546,-1.10131 1.82935,-1.66967 0.41517,-0.39075 0.6375,-0.63039 0.88005,-0.64389 z" />
  </g>
</svg>
