<?xml version="1.0" encoding="UTF-8" standalone="no"?>
<!-- Created with Inkscape (http://www.inkscape.org/) -->

<svg
   width="84"
   height="84"
   viewBox="0 0 22.225 22.225"
   version="1.1"
   id="svg1"
   inkscape:version="1.3 (0e150ed6c4, 2023-07-21)"
   sodipodi:docname="selection_icon.svg"
   inkscape:export-filename="selection_icon.png"
   inkscape:export-xdpi="96"
   inkscape:export-ydpi="96"
   xmlns:inkscape="http://www.inkscape.org/namespaces/inkscape"
   xmlns:sodipodi="http://sodipodi.sourceforge.net/DTD/sodipodi-0.dtd"
   xmlns:xlink="http://www.w3.org/1999/xlink"
   xmlns="http://www.w3.org/2000/svg"
   xmlns:svg="http://www.w3.org/2000/svg">
  <sodipodi:namedview
     id="namedview1"
     pagecolor="#ffffff"
     bordercolor="#000000"
     borderopacity="0.25"
     inkscape:showpageshadow="2"
     inkscape:pageopacity="0.0"
     inkscape:pagecheckerboard="0"
     inkscape:deskcolor="#d1d1d1"
     inkscape:document-units="px"
     inkscape:zoom="1.3166807"
     inkscape:cx="74.80933"
     inkscape:cy="-29.99968"
     inkscape:window-width="1920"
     inkscape:window-height="974"
     inkscape:window-x="-11"
     inkscape:window-y="-11"
     inkscape:window-maximized="1"
     inkscape:current-layer="layer85" />
  <defs
     id="defs1">
    <inkscape:path-effect
       effect="fillet_chamfer"
       id="path-effect11"
       is_visible="true"
       lpeversion="1"
       nodesatellites_param="F,0,0,1,0,0,0,1 @ F,0,0,1,0,0,0,1 @ F,0,0,1,0,3.233217,0,1 @ F,0,0,1,0,0.65744456,0,1"
       radius="0"
       unit="px"
       method="auto"
       mode="F"
       chamfer_steps="1"
       flexible="false"
       use_knot_distance="true"
       apply_no_radius="true"
       apply_with_radius="true"
       only_selected="false"
       hide_knots="false" />
    <inkscape:path-effect
       effect="bend_path"
       id="path-effect10"
       is_visible="true"
       lpeversion="1"
       bendpath="m 73.409605,186.74808 c 0,0 -1.598525,2.3445 2.024799,2.69973 3.623324,0.35523 6.145442,-0.71046 6.145442,-0.71046"
       prop_scale="0.35304558"
       scale_y_rel="false"
       vertical="false"
       hide_knot="false" />
    <inkscape:path-effect
       effect="bend_path"
       id="path-effect9"
       is_visible="true"
       lpeversion="1"
       bendpath="m 85.753773,188.22227 c -0.12433,-0.0533 0.284182,0 -0.976876,-2.14913 -1.261059,-2.14912 -1.154491,-3.41018 -1.154491,-3.41018"
       prop_scale="0.35304558"
       scale_y_rel="false"
       vertical="false"
       hide_knot="false" />
    <inkscape:path-effect
       effect="bend_path"
       id="path-effect8"
       is_visible="true"
       lpeversion="1"
       bendpath="m 71.278238,179.82113 c 0,0 -0.994638,-0.99463 0.106568,-3.33914 1.101206,-2.3445 4.156166,-5.50603 7.211126,-3.87198 3.054959,1.63405 2.841823,2.52212 2.841823,2.52212"
       prop_scale="0.35304558"
       scale_y_rel="false"
       vertical="false"
       hide_knot="false" />
    <inkscape:path-effect
       effect="bend_path"
       id="path-effect7"
       is_visible="true"
       lpeversion="1"
       bendpath="m 81.686414,174.74138 c -1.491957,-1.03016 0.781501,-2.91287 -4.937667,-1.88271 -5.719169,1.03016 -6.536193,4.61796 -6.180965,5.9323 0.355228,1.31435 0.426273,1.38539 0.426273,1.38539"
       prop_scale="0.35304558"
       scale_y_rel="false"
       vertical="false"
       hide_knot="false" />
    <inkscape:path-effect
       effect="bend_path"
       id="path-effect6"
       is_visible="true"
       lpeversion="1"
       bendpath="m 78.738023,180.46054 c 0,0 1.207775,2.69974 4.298257,2.41555 3.090482,-0.28418 4.014075,-1.20777 4.014075,-2.55764 0,-1.34986 -0.568365,-1.31434 -0.213137,-1.66957 0.355228,-0.35523 1.563003,-1.77614 -0.959115,-3.62332 -2.522118,-1.84719 -4.369303,-0.74598 -4.617962,0.81702 -0.24866,1.563 0,2.34451 0,2.34451"
       prop_scale="0.35304558"
       scale_y_rel="false"
       vertical="false"
       hide_knot="false" />
    <inkscape:path-effect
       effect="bend_path"
       id="path-effect5"
       is_visible="true"
       lpeversion="1"
       bendpath="m 73.979089,188.30513 c 0,0 -1.456867,1.50711 0.05024,2.46161 1.507104,0.9545 2.511841,2.36113 5.626523,1.15544 3.114681,-1.20568 2.813261,-1.70805 4.571549,-2.96397 1.758288,-1.25592 1.959235,-1.30615 1.959235,-1.30615"
       prop_scale="0.35304558"
       scale_y_rel="false"
       vertical="false"
       hide_knot="false" />
    <inkscape:path-effect
       effect="bend_path"
       id="path-effect4"
       is_visible="true"
       lpeversion="1"
       bendpath="m 73.65255,185.16533 c 0,0.57773 -1.607578,2.5872 1.054973,3.1398 2.662551,0.55261 4.270129,0.6782 4.270129,0.6782"
       prop_scale="0.35304558"
       scale_y_rel="false"
       vertical="false"
       hide_knot="false" />
    <inkscape:path-effect
       effect="bend_path"
       id="path-effect3"
       is_visible="true"
       lpeversion="1"
       bendpath="m 73.275774,186.54685 c 0,0 -2.411366,1.40663 1.054973,2.21042 3.46634,0.80378 1.858762,0.50236 4.270129,0.45213 2.411366,-0.0502 3.164918,-0.85403 3.164918,-0.85403"
       prop_scale="0.35304558"
       scale_y_rel="false"
       vertical="false"
       hide_knot="false" />
    <inkscape:path-effect
       effect="bend_path"
       id="path-effect2"
       is_visible="true"
       lpeversion="1"
       bendpath="m 71.313761,176.48199 c 0,0 -6.571716,0.63941 -4.156166,6.35858 2.415549,5.71917 6.678283,3.65885 6.678283,3.65885"
       prop_scale="0.35304558"
       scale_y_rel="false"
       vertical="false"
       hide_knot="false" />
  </defs>
  <g
     inkscape:groupmode="layer"
     id="layer83"
     inkscape:label="Art">
    <g
       inkscape:groupmode="layer"
       id="layer84"
       inkscape:label="F">
      <path
         style="opacity:1;fill:#fffff0;fill-opacity:1;stroke-width:1.5875;stroke-linecap:round;stroke-linejoin:round;stroke-miterlimit:3.1;paint-order:markers stroke fill"
         d="m 15.630013,4.110297 c 0,0 -0.208695,-0.8347805 1.739127,-0.5217378 1.947821,0.3130426 3.130426,1.5652134 3.130426,1.5652134 l 0.765216,1.8434736 -0.417391,1.356518 c 0,0 0.660868,2.1565168 -0.452172,2.7130368 -1.113041,0.55652 -3.930426,0.939128 -3.791295,1.043475 0.139131,0.104348 2.608689,5.113031 2.608689,5.113031 0,0 -5.043466,3.652164 -5.565202,3.721729 -0.521739,0.06956 -2.747821,0.556521 -3.7912964,-0.03478 C 8.8126389,20.318951 6.8996004,20.04069 7.212643,19.240692 7.5256857,18.440694 8.4648136,17.327654 8.4648136,17.327654 L 6.4126451,15.518963 c 0,0 -2.2608638,0.939128 -2.886949,-0.521738 C 2.8996107,13.53636 0.60396436,11.449408 0.84744199,10.058107 1.0909197,8.6668069 0.6735294,8.2494167 1.7517876,7.5189839 2.8300456,6.7885509 5.7517773,5.8146405 5.995255,5.4320327 6.2387325,5.049425 7.5256857,2.4059536 9.9256796,2.1276934 12.325674,1.8494333 12.916977,1.8494333 12.916977,1.8494333 l 2.434776,2.678254 z"
         id="path11" />
      <path
         style="opacity:1;fill:#feefcb;fill-opacity:1;stroke-width:1.5875;stroke-linecap:round;stroke-linejoin:round;stroke-miterlimit:3.1;paint-order:markers stroke fill"
         d="m 3.5188287,6.3278873 c 0,0 -0.3197344,2.5086853 0.9592032,3.3449139 C 5.7569694,10.509029 6.3964382,10.558219 6.1258939,10.06632 5.8553494,9.5744212 5.3880452,6.0327476 5.3880452,6.0327476 Z"
         id="path12" />
      <path
         style="opacity:1;fill:#feefcb;fill-opacity:1;stroke-width:1.5875;stroke-linecap:round;stroke-linejoin:round;stroke-miterlimit:3.1;paint-order:markers stroke fill"
         d="m 13.086267,10.632004 c 0,0 -0.934608,0.614874 0.467305,2.361116 1.401912,1.746242 2.835482,1.7729 2.283658,2.277909 -0.289905,0.26531 -0.497126,0.261653 -2.185279,0.501321 -2.161603,0.306884 -3.640054,1.574077 -3.640054,1.574077 l -2.0413815,0.418117 c 0,0 -1.0821782,1.426508 -0.4427094,1.820027 0.6394689,0.39352 3.0468399,1.145982 4.6189079,1.0225 1.68796,-0.132584 1.972541,-0.678171 4.727176,-1.858729 2.754635,-1.180558 2.803825,-1.721647 2.508686,-2.065975 -0.295141,-0.34433 -2.557877,-4.476283 -2.557877,-4.476283 0,0 -1.869215,-0.737848 -2.557875,-0.983798 -0.688658,-0.245949 -1.180557,-0.590279 -1.180557,-0.590279 z"
         id="path13"
         sodipodi:nodetypes="csssccsasscscc" />
      <path
         style="opacity:1;fill:#feefcb;fill-opacity:1;stroke-width:1.5875;stroke-linecap:round;stroke-linejoin:round;stroke-miterlimit:3.1;paint-order:markers stroke fill"
         d="m 12.692748,2.4541816 c -0.0123,0.086082 -0.836229,1.8200268 1.11907,3.4186988 1.955299,1.598672 1.56178,0.9837982 1.56178,0.9837982 L 15.041566,3.9790688 Z"
         id="path14" />
    </g>
    <g
       inkscape:groupmode="layer"
       id="layer85"
       inkscape:label="O">
      <path
         style="opacity:1;fill:#111b09;fill-opacity:1;stroke-width:1.62129;stroke-linecap:round;stroke-linejoin:round;stroke-miterlimit:3.1;paint-order:markers stroke fill"
         d="m 6.0535351,15.623647 c 0.3014207,0.15071 0.6781969,1.984354 2.8132611,2.51184 0.8933371,0.220707 2.2317288,0.153881 3.4749258,0.0077 1.767337,-0.207771 1.722851,-0.485449 -0.01633,-0.843524 -1.943116,-0.400062 -4.0962127,-1.06545 -4.39544,-1.760481 -0.132265,-0.307219 -0.08396,-0.606795 -0.4465882,-0.623952 -1.561665,-0.07389 -0.8257253,0.508686 -1.4298277,0.708389 z"
         id="path10"
         sodipodi:nodetypes="csscc"
         inkscape:path-effect="#path-effect11"
         inkscape:original-d="m 6.0535351,15.623647 c 0.3014207,0.15071 0.6781969,1.984354 2.8132611,2.51184 2.1350648,0.527486 6.8122998,-0.587426 6.6563768,-0.502368 C 14.881895,17.982944 6.3597562,16.403334 8.1383625,14.970568 5.729297,14.698511 6.7289419,15.400372 6.0535351,15.623647 Z"
         transform="matrix(0.97916078,0,0,0.97916078,0.46905411,0.67104739)" />
      <path
         style="fill:#111b09;fill-opacity:1;stroke-width:0.999998;stroke-linecap:round;stroke-linejoin:round;stroke-miterlimit:3.1;paint-order:markers stroke fill"
         d="m 69.074854,165.54099 9.076825,0.028 c 1.211009,0.0646 1.834298,0.0811 1.962772,1.97826 0.0163,1.35244 -1.107596,1.87768 -2.135402,1.87169 l -9.19158,-0.0842 c -2.451595,-0.0225 -2.692344,-0.44683 -2.680451,-2.00412 0.05653,-1.95575 1.260824,-1.74385 2.967836,-1.78958 z"
         id="path1"
         sodipodi:nodetypes="ccccscc"
         transform="translate(-66.09191,-171.22462)" />
      <path
         id="path1-9"
         style="fill:#111b09;fill-opacity:1;stroke-width:1.02128;stroke-linecap:round;stroke-linejoin:round;stroke-miterlimit:3.1;paint-order:markers stroke fill"
         d="m 70.79697,176.04427 c -0.166924,-0.003 -0.377948,0.0126 -0.63437,0.058 -1.095613,0.18962 -3.127956,1.49163 -3.843518,3.62836 -0.763855,4.01142 1.190192,6.77935 4.583968,7.67367 0.125164,0.0329 0.253295,0.0607 0.384212,0.0818 0.765848,0.0974 1.467065,-0.0416 1.940054,-0.28341 0.252042,-0.12854 0.422307,-0.27792 0.488181,-0.41535 0.03708,-0.0774 0.04142,-0.149 0.01161,-0.21533 -0.04739,-0.0665 -0.09905,-0.12275 -0.153578,-0.16835 -0.15588,-0.13041 -0.341398,-0.18303 -0.579484,-0.19791 -0.364244,-0.0239 -0.863138,0.0508 -1.506234,-0.0586 -0.03211,-0.004 -0.06451,-0.009 -0.09711,-0.0137 -2.559068,-0.36275 -3.98176,-3.08184 -3.663766,-6.03271 0.45327,-1.3521 1.514586,-2.36345 2.742293,-2.81945 0.259276,-0.097 0.474624,-0.18472 0.636481,-0.28182 0.07019,-0.0421 0.129484,-0.0862 0.177856,-0.133 0.01692,-0.0172 0.03224,-0.0351 0.04592,-0.0528 0.08023,-0.01 -0.09312,-0.52975 -0.03642,-0.38157 0.05344,0.11438 0.130676,0.258 0.140385,0.17205 0.0086,-0.076 -0.115728,-0.47807 -0.180495,-0.46337 -0.02078,-0.0119 -0.04324,-0.0229 -0.06755,-0.0333 -0.06331,-0.0249 -0.141082,-0.0433 -0.235909,-0.0538 -0.04589,-0.005 -0.09688,-0.008 -0.152524,-0.009 z"
         transform="matrix(0.97916078,0,0,0.97916078,-64.319338,-167.05917)"
         sodipodi:nodetypes="ccccccccccccccccccscccc" />
      <path
         style="fill:#111b09;stroke-width:1;stroke-linecap:round;stroke-linejoin:round;stroke-miterlimit:3.1;paint-order:markers stroke fill"
         d="m 9.0471503,19.84236 c 3.5054697,0.392722 5.9865487,-0.261711 8.6139827,-2.33949 1.355168,-0.983587 1.904256,-1.340373 2.311786,-0.758418 0.08489,0.186804 -0.08886,0.427002 -0.326576,0.707248 -0.380781,0.480003 -0.858429,0.85936 -1.339759,1.230863 C 16.036,20.709152 12.264923,22.371091 7.7029369,20.429543 6.7170237,19.736101 6.867232,18.493909 7.0612418,17.940046 7.6952152,17.05461 8.5250921,17.480282 8.8309535,17.684926 7.6087983,18.647206 7.9242379,19.716557 9.0471503,19.84236 Z"
         id="path1-96"
         sodipodi:nodetypes="sccsccccs" />
      <path
         id="path1-2"
         style="fill:#111b09;fill-opacity:1;stroke-width:1.02128;stroke-linecap:round;stroke-linejoin:round;stroke-miterlimit:3.1;paint-order:markers stroke fill"
         d="m 83.314968,173.39437 c -0.260588,0.006 -0.525353,0.0402 -0.792699,0.10608 -0.330377,0.10944 -0.631652,0.27591 -0.89403,0.48713 -0.566569,0.45654 -0.91919,1.11436 -0.996943,1.80494 0.08715,1.29278 0.276591,2.28665 0.605344,2.22241 0.505841,-0.24285 0.627565,-0.91728 0.671314,-2.12108 0.0466,-0.23886 0.175794,-0.51603 0.40796,-0.74572 0.167286,-0.17038 0.373574,-0.2974 0.592677,-0.34569 1.533995,-0.72539 4.21633,1.31027 3.964938,2.58635 -0.09188,0.46638 -0.01784,0.91887 -0.68381,1.20246 -0.258376,0.11295 -0.577117,0.0545 -0.429269,0.351 0.12799,0.24495 0.602815,1.02905 0.60868,1.37636 0.0051,0.43738 -0.212006,0.89779 -0.559956,1.12044 -0.70029,0.53212 -1.749741,0.63077 -2.835668,0.75523 -0.04893,0.005 -0.09809,0.01 -0.147246,0.0132 -1.142738,0.0846 -2.060113,-0.39302 -2.614535,-0.8497 -0.684333,-0.81322 -1.197523,-1.2513 -1.536844,-1.06819 -0.319455,0.2185 -0.347741,0.49279 0.620121,1.89941 0.534923,0.5311 1.546029,1.22516 3.005079,1.33999 0.264407,0.0208 0.531049,0.0212 0.796394,5.3e-4 1.117476,-0.0765 2.38349,-0.25386 3.487454,-0.99166 0.717404,-0.52585 1.125476,-1.35236 1.132051,-2.21925 0.0061,-0.43719 -0.06313,-0.90435 -0.247521,-1.36268 0.353478,-0.40521 0.40212,-0.85519 0.446723,-1.44933 -0.06212,-2.82156 -2.994426,-4.15175 -4.600214,-4.11223 z"
         transform="matrix(0.97916078,0,0,0.97916078,-64.319338,-167.05917)"
         sodipodi:nodetypes="scccccccscccccccccscccccs" />
      <path
         id="path1-8"
         style="fill:#111b09;fill-opacity:1;stroke-width:1.02128;stroke-linecap:round;stroke-linejoin:round;stroke-miterlimit:3.1;paint-order:markers stroke fill"
         d="m 73.873298,172.49295 c -1.357583,0.97185 -2.430193,2.31894 -3.123299,3.83314 l -0.0048,0.12191 c -0.05545,2.00265 -0.176308,3.40304 0.478681,3.48324 0.523315,0.0265 0.673178,-0.24215 0.756284,-2.87736 0.0044,-0.14086 0.0088,-0.28138 0.01319,-0.42221 0.595488,-1.21884 1.508052,-2.29699 2.641979,-3.02619 1.715962,-1.26555 3.60309,-0.66973 5.149955,0.41285 0.780408,0.63142 1.202992,1.18038 1.548934,1.0443 0.427172,-0.28316 1.067248,-0.37748 -0.02335,-1.45007 -0.553952,-0.53138 -4.122231,-3.35878 -7.437631,-1.11961 z"
         transform="matrix(0.97916078,0,0,0.97916078,-64.319338,-167.05917)"
         sodipodi:nodetypes="ccccscccccc" />
      <path
         style="fill:#111b09;fill-opacity:1;stroke-width:1.02128;stroke-linecap:round;stroke-linejoin:round;stroke-miterlimit:3.1;paint-order:markers stroke fill"
         d="m 84.734651,187.37965 c -0.158221,-0.30483 -0.353082,-0.62124 -0.545673,-0.96153 0,0 0,0 0,0 -0.480261,-0.81518 -0.89021,-1.70931 -1.114746,-2.68226 0,0 0,0 0,0 -0.0037,-0.0161 -0.0073,-0.0322 -0.0109,-0.0484 -0.05735,-0.31471 -0.07822,-0.56769 0.02762,-0.73794 0.07634,-0.13603 0.247777,-0.22916 0.553029,-0.24333 0.177423,0.003 0.371213,0.0739 0.454976,0.17267 0,0 0,0 0,0 0.149847,0.13574 0.248538,0.33963 0.300239,0.55393 0,0 0,0 0,0 0.002,0.009 0.004,0.017 0.0059,0.0256 0.171,0.77892 0.523059,1.53904 0.944774,2.27857 0.209604,0.35251 0.440271,0.73201 0.638809,1.15448 0.18089,0.38492 0.255942,0.68487 0.259795,0.89121 0,0 0,0 0,0 0.35822,0.63201 -0.189496,0.19956 -0.329846,0.14687 -0.144153,-0.0541 -0.111125,0.11614 -0.116344,0.37515 -0.02533,0.44838 -1.095827,-0.71637 -0.699376,-0.21135 -0.124853,-0.1575 -0.199584,-0.40927 -0.368253,-0.71365 z"
         id="path1-83"
         sodipodi:nodetypes="ccccscc"
         inkscape:path-effect="#path-effect9"
         inkscape:original-d="m 69.074854,165.54099 9.076825,0.028 c 1.211009,0.0646 1.834298,0.0811 1.962772,1.97826 0.0163,1.35244 -1.107596,1.87768 -2.135402,1.87169 l -9.19158,-0.0842 c -2.451595,-0.0225 -2.692344,-0.44683 -2.680451,-2.00412 0.05653,-1.95575 1.260824,-1.74385 2.967836,-1.78958 z"
         transform="matrix(0.97916078,0,0,0.97916078,-64.73673,-167.04178)" />
    </g>
  </g>
  <g
     inkscape:label="Ref"
     inkscape:groupmode="layer"
     id="layer1"
     transform="translate(-66.091911,-171.22462)">
    <image
       width="22.225"
       height="22.225"
       preserveAspectRatio="none"
       style="display:none;opacity:0.217934;stroke-width:0.363637;image-rendering:optimizeQuality"
       xlink:href="../../../../../Calvin/!%20Tugas%20Akhir/Art/Selection_Icon.png"
       id="image1-80"
       x="66.091911"
       y="171.22462"
       sodipodi:insensitive="true" />
    <image
       width="22.225"
       height="22.225"
       preserveAspectRatio="none"
       style="stroke-width:0.363637;image-rendering:optimizeQuality"
       xlink:href="../../../../../Calvin/!%20Tugas%20Akhir/Art/Selection_Icon.png"
       id="image1-80-1"
       x="89.17437"
       y="170.65627"
       sodipodi:insensitive="true" />
  </g>
</svg>
