<?xml version="1.0" encoding="UTF-8" standalone="no"?>
<!-- Created with Inkscape (http://www.inkscape.org/) -->

<svg
   width="18.795198mm"
   height="27.277287mm"
   viewBox="0 0 18.795199 27.277286"
   version="1.1"
   id="svg1"
   inkscape:version="1.3 (0e150ed6c4, 2023-07-21)"
   sodipodi:docname="hair_1.svg"
   xmlns:inkscape="http://www.inkscape.org/namespaces/inkscape"
   xmlns:sodipodi="http://sodipodi.sourceforge.net/DTD/sodipodi-0.dtd"
   xmlns="http://www.w3.org/2000/svg"
   xmlns:svg="http://www.w3.org/2000/svg">
  <sodipodi:namedview
     id="namedview1"
     pagecolor="#ffffff"
     bordercolor="#000000"
     borderopacity="0.25"
     inkscape:showpageshadow="2"
     inkscape:pageopacity="0.0"
     inkscape:pagecheckerboard="0"
     inkscape:deskcolor="#d1d1d1"
     inkscape:document-units="mm"
     inkscape:zoom="1.8620677"
     inkscape:cx="120.29638"
     inkscape:cy="-53.972259"
     inkscape:window-width="1920"
     inkscape:window-height="974"
     inkscape:window-x="-11"
     inkscape:window-y="-11"
     inkscape:window-maximized="1"
     inkscape:current-layer="g2" />
  <defs
     id="defs1">
    <pattern
       id="EMFhbasepattern"
       patternUnits="userSpaceOnUse"
       width="6"
       height="6"
       x="0"
       y="0" />
  </defs>
  <g
     inkscape:groupmode="layer"
     id="layer3"
     inkscape:label="Layer 2"
     transform="translate(-80.522968,-177.58877)">
    <path
       style="opacity:1;fill:#fbe870;fill-opacity:1;stroke-width:2.117;stroke-linejoin:round;stroke-miterlimit:3.1;paint-order:markers stroke fill"
       d="m 83.21727,179.99848 c 0,0 -0.351658,-1.83365 1.632696,-2.3109 1.984354,-0.47725 4.923205,0.92938 4.923205,0.92938 0,0 1.532224,2.56208 -1.632696,3.59194 -3.164919,1.02985 -4.219889,-0.0754 -4.621786,-0.57773 -0.401894,-0.50237 -0.301419,-1.63269 -0.301419,-1.63269 z"
       id="path5" />
    <path
       style="opacity:1;fill:#4e3f26;fill-opacity:1;stroke-width:2.117;stroke-linejoin:round;stroke-miterlimit:3.1;paint-order:markers stroke fill"
       d="m 84.900203,182.30937 -2.009474,2.56207 c 0,0 -2.411367,3.91848 -1.356394,7.636 1.054973,3.71752 1.255921,7.38481 4.320365,8.69097 3.064447,1.30615 3.566814,2.66255 5.877708,2.66255 2.310892,0 6.681494,-2.00948 6.681494,-2.00948 l 0.100476,-0.40189 c 0,0 -2.210422,-0.30142 -4.270129,-3.91847 -2.05971,-3.61705 -2.260658,-7.28434 -2.260658,-7.28434 0,0 0.9545,0.75356 1.808525,0.85403 0.854027,0.10047 0.653079,-0.85403 0.653079,-0.85403 0,0 -1.607577,-0.90426 -2.712787,-2.41136 -1.105209,-1.50711 -3.01421,-6.43031 -3.01421,-6.43031 z"
       id="path6" />
  </g>
  <g
     inkscape:groupmode="layer"
     id="g2"
     inkscape:label="Layer 2"
     transform="translate(-80.522968,-177.58877)">
    <path
       style="opacity:1;fill:#111b09;fill-opacity:1;stroke-width:2.117;stroke-linejoin:round;stroke-miterlimit:3.1;paint-order:markers stroke fill"
       d="m 82.963466,179.39007 c 0,0 -0.941353,3.12601 1.527482,3.85422 2.468832,0.72822 5.026472,-0.0533 5.825736,-2.00703 0.799264,-1.95376 0,-2.50436 0,-2.50436 0,0 -0.543513,-0.44248 -1.133795,-0.26665 -0.59028,0.17583 -0.351658,0.57773 -0.351658,0.57773 0,0 -0.238622,3.06444 -3.190036,2.85093 -2.951411,-0.2135 -1.821085,-3.08956 -1.896438,-3.10212 -0.07536,-0.0126 -0.288862,-0.0126 -0.464691,0.16327 -0.175828,0.17583 -0.3166,0.43401 -0.3166,0.43401 z"
       id="path2" />
    <path
       style="opacity:1;fill:#111b09;fill-opacity:1;stroke-width:2.117;stroke-linejoin:round;stroke-miterlimit:3.1;paint-order:markers stroke fill"
       d="m 83.644281,181.807 c 0,0 -5.827469,8.38955 -1.55734,15.92507 2.636858,4.65328 5.535083,9.68079 14.4682,5.67676 2.763025,-1.25592 2.160182,-1.98436 2.160182,-1.98436 l -0.552603,-0.0502 c 0,0 -3.814199,2.95283 -8.574254,1.10564 -4.760053,-1.84718 -6.038874,-4.76005 -7.104557,-7.9571 -1.065684,-3.19705 -0.497319,-7.38874 0.497318,-9.09384 0.994641,-1.70509 1.77614,-2.84182 1.77614,-2.84182 z"
       id="path3"
       sodipodi:nodetypes="cssccssccc" />
    <path
       style="opacity:1;fill:#111b09;fill-opacity:1;stroke-width:2.117;stroke-linejoin:round;stroke-miterlimit:3.1;paint-order:markers stroke fill"
       d="m 88.878012,181.62801 c 0,0 0.710454,4.04959 2.024798,5.86125 1.314344,1.81167 3.040018,2.98359 2.512531,3.03383 -0.527487,0.0502 -1.657816,-1.38152 -1.934117,-0.97962 -0.276302,0.40189 0.276301,0.25118 0.175828,0.77867 -0.100472,0.52749 -0.07536,4.59667 2.009474,7.35969 2.084826,2.76303 4.018944,3.59193 4.772496,4.01895 0.753552,0.42701 0.879144,-0.47725 0.879144,-0.47725 0,0 -4.069183,-3.59193 -5.099037,-5.14928 -1.029853,-1.55734 -1.481984,-4.44596 -1.381511,-4.44596 0.100473,0 0.226065,0.60285 1.833642,0.45214 1.607579,-0.15071 2.235538,-0.97962 1.758288,-1.2308 -0.47725,-0.25119 -3.46634,-1.85877 -4.722259,-4.42085 -1.255921,-2.56207 -1.608318,-5.54433 -1.608318,-5.54433 z"
       id="path4"
       sodipodi:nodetypes="csccscscssscccc" />
  </g>
</svg>
