<?xml version="1.0" encoding="UTF-8" standalone="no"?>
<!-- Created with Inkscape (http://www.inkscape.org/) -->

<svg
   width="21.501331mm"
   height="29.61993mm"
   viewBox="0 0 21.501331 29.61993"
   version="1.1"
   id="svg1"
   inkscape:version="1.3 (0e150ed6c4, 2023-07-21)"
   sodipodi:docname="hair_0.svg"
   xmlns:inkscape="http://www.inkscape.org/namespaces/inkscape"
   xmlns:sodipodi="http://sodipodi.sourceforge.net/DTD/sodipodi-0.dtd"
   xmlns="http://www.w3.org/2000/svg"
   xmlns:svg="http://www.w3.org/2000/svg">
  <sodipodi:namedview
     id="namedview1"
     pagecolor="#ffffff"
     bordercolor="#000000"
     borderopacity="0.25"
     inkscape:showpageshadow="2"
     inkscape:pageopacity="0.0"
     inkscape:pagecheckerboard="0"
     inkscape:deskcolor="#d1d1d1"
     inkscape:document-units="mm"
     inkscape:zoom="1.8620677"
     inkscape:cx="76.796349"
     inkscape:cy="73.305606"
     inkscape:window-width="1920"
     inkscape:window-height="974"
     inkscape:window-x="-11"
     inkscape:window-y="-11"
     inkscape:window-maximized="1"
     inkscape:current-layer="layer1" />
  <defs
     id="defs1" />
  <g
     inkscape:label="Layer 1"
     inkscape:groupmode="layer"
     id="layer1"
     transform="translate(-94.191669,-133.61458)">
    <path
       style="fill:#4e3f26;fill-opacity:1;stroke-width:2.117;stroke-linejoin:round;stroke-miterlimit:3.1;paint-order:markers stroke fill"
       d="m 101.69671,161.88465 c 0,-0.17762 2.41555,-7.06903 2.41555,-9.62668 0,-2.55764 -1.20777,-7.03351 -1.20777,-7.03351 l -2.69973,-2.91287 c 0,0 2.13136,-1.66957 2.6642,-3.126 0.53285,-1.45644 0.53285,-3.30362 0.53285,-3.30362 l 2.52212,0.21314 c 0,0 3.65884,0.67493 5.25737,3.30362 1.59852,2.62868 3.87198,7.35321 3.9075,7.53083 0.0355,0.17761 0.31971,1.06568 -0.071,1.1012 -0.39075,0.0355 -2.45108,-1.06568 -2.45108,-1.06568 0,0 -1.27881,7.10456 -2.20241,8.38338 -0.92359,1.27882 -3.87198,4.12064 -4.76005,5.04423 -0.88807,0.9236 -2.28424,1.23541 -2.52212,1.49196 -0.84513,0.91148 -1.79465,0.59927 -1.38539,0 z"
       id="path12"
       sodipodi:nodetypes="csccsccssscssscc" />
    <path
       style="fill:#fbe870;fill-opacity:1;stroke-width:2.117;stroke-linejoin:round;stroke-miterlimit:3.1;paint-order:markers stroke fill"
       d="m 101.62633,133.94822 c -0.15071,-0.0502 0.12559,-0.70332 -2.763034,0.60284 -2.88861,1.30616 -5.24974,4.29525 -4.54643,5.77723 0.70332,1.48199 0.20095,1.80853 2.08483,2.03459 1.88388,0.22607 2.4616,0.22607 3.943594,-0.77867 1.48198,-1.00473 2.86283,-2.29306 2.91373,-4.3706 0.0412,-1.68177 -1.63269,-3.26539 -1.63269,-3.26539 z"
       id="path13"
       sodipodi:nodetypes="csscssc" />
    <path
       style="fill:#111b09;fill-opacity:1;stroke-width:2.117;stroke-linejoin:round;stroke-miterlimit:3.1;paint-order:markers stroke fill"
       d="m 100.55998,163.23451 c 0,0 3.80094,-9.41353 2.66421,-14.56434 -1.13673,-5.1508 -3.558373,-6.04854 -3.558373,-6.04854 0,0 0.929693,-0.73631 1.036253,-0.23899 0.10657,0.49732 4.97319,2.59316 4.01408,11.15415 -0.95911,8.56099 -4.15617,9.69772 -4.15617,9.69772 z"
       id="path8"
       sodipodi:nodetypes="csccsc" />
    <path
       style="fill:#111b09;fill-opacity:1;stroke-width:2.117;stroke-linejoin:round;stroke-miterlimit:3.1;paint-order:markers stroke fill"
       d="m 101.48358,162.48854 c 0,0 -0.21314,0.46179 2.62868,-0.39076 2.84183,-0.85254 6.82038,-6.60723 7.6374,-8.45442 0.81702,-1.84718 1.20778,-4.72453 1.13673,-5.39946 -0.071,-0.67493 -0.21314,-1.42091 -0.21314,-1.42091 l -1.47419,-0.65718 c 0,0 1.05235,5.41553 -2.21304,9.68566 -3.26539,4.27012 -4.21989,4.74737 -4.99856,5.14927 -0.77867,0.40189 -2.1853,1.13033 -2.1853,1.13033 z"
       id="path9" />
    <path
       style="fill:#111b09;fill-opacity:1;stroke-width:2.117;stroke-linejoin:round;stroke-miterlimit:3.1;paint-order:markers stroke fill"
       d="m 110.15114,145.61521 c 0,0.0888 1.91823,2.22018 3.33914,2.41555 1.42091,0.19538 2.07808,0.44404 1.27882,-0.40851 -0.79926,-0.85255 -3.67661,-2.66421 -4.0496,-2.41555 -0.37299,0.24866 -0.56836,0.40851 -0.56836,0.40851 z"
       id="path10" />
    <path
       style="fill:#111b09;fill-opacity:1;stroke-width:2.117;stroke-linejoin:round;stroke-miterlimit:3.1;paint-order:markers stroke fill"
       d="m 103.5439,136.27272 c 0,0 2.45107,-1.13673 6.50067,3.33914 4.0496,4.47587 4.0496,7.3177 4.72453,7.56636 0.67493,0.24865 0.74598,0.49732 0.74598,0.49732 0,0 0.74598,-1.59853 -0.81703,-4.22722 -1.563,-2.62868 -2.62868,-4.54691 -5.00871,-6.00335 -2.38003,-1.45643 -3.83646,-1.91823 -4.93767,-1.91823 -1.1012,0 -1.20777,0.35523 -1.20777,0.35523 z"
       id="path11"
       sodipodi:nodetypes="csccscscc" />
    <path
       style="fill:#111b09;fill-opacity:1;stroke-width:2.117;stroke-linejoin:round;stroke-miterlimit:3.1;paint-order:markers stroke fill"
       d="m 94.492696,141.1572 c 0.57772,1.02986 1.30616,2.43649 3.64217,2.23554 2.336014,-0.20095 5.852594,-2.68767 5.827474,-5.97818 -0.0251,-3.29051 -1.08009,-3.96871 -2.16018,-3.76776 -1.0801,0.20094 -1.6327,0.2763 -1.6327,0.2763 0,0 4.14454,1.75829 2.28578,4.62179 -1.85877,2.86349 -2.687674,3.1398 -3.893364,3.34074 -1.20568,0.20095 -1.18056,0.35166 -2.1853,0 -1.00474,-0.35165 -1.02985,-0.8289 -1.30616,-0.8289 -0.2763,0 -0.57772,0.10047 -0.57772,0.10047 z"
       id="path7" />
  </g>
</svg>
