<?xml version="1.0" encoding="UTF-8" standalone="no"?>
<!-- Created with Inkscape (http://www.inkscape.org/) -->

<svg
   width="40.420235mm"
   height="28.981764mm"
   viewBox="0 0 40.420235 28.981764"
   version="1.1"
   id="svg1"
   inkscape:version="1.3 (0e150ed6c4, 2023-07-21)"
   sodipodi:docname="hand_left.svg"
   xmlns:inkscape="http://www.inkscape.org/namespaces/inkscape"
   xmlns:sodipodi="http://sodipodi.sourceforge.net/DTD/sodipodi-0.dtd"
   xmlns="http://www.w3.org/2000/svg"
   xmlns:svg="http://www.w3.org/2000/svg">
  <sodipodi:namedview
     id="namedview1"
     pagecolor="#ffffff"
     bordercolor="#000000"
     borderopacity="0.25"
     inkscape:showpageshadow="2"
     inkscape:pageopacity="0.0"
     inkscape:pagecheckerboard="0"
     inkscape:deskcolor="#d1d1d1"
     inkscape:document-units="mm"
     inkscape:zoom="0.93103385"
     inkscape:cx="31.148169"
     inkscape:cy="-131.57416"
     inkscape:window-width="1920"
     inkscape:window-height="974"
     inkscape:window-x="-11"
     inkscape:window-y="-11"
     inkscape:window-maximized="1"
     inkscape:current-layer="layer5"
     showgrid="false" />
  <defs
     id="defs1">
    <pattern
       id="EMFhbasepattern"
       patternUnits="userSpaceOnUse"
       width="6"
       height="6"
       x="0"
       y="0" />
    <pattern
       id="EMFhbasepattern-6"
       patternUnits="userSpaceOnUse"
       width="6"
       height="6"
       x="0"
       y="0" />
  </defs>
  <g
     inkscape:groupmode="layer"
     id="layer6"
     inkscape:label="Layer 3"
     transform="translate(-99.489841,-164.47315)">
    <path
       style="opacity:1;fill:#ec5f44;fill-opacity:1;stroke-width:2.117;stroke-linejoin:round;stroke-miterlimit:3.1;paint-order:markers stroke fill"
       d="m 122.22615,170.40325 1.05497,8.84167 c 0,0 0.30142,1.50711 -2.10995,0.90427 -2.41136,-0.60285 -4.42083,-2.96398 -4.42083,-3.16492 0,-0.20095 -0.75356,-3.71753 0.65308,-5.27487 1.40663,-1.55734 1.10521,-1.909 2.96397,-1.75829 1.85876,0.15071 1.85876,0.45214 1.85876,0.45214 z"
       id="path7" />
    <path
       style="opacity:1;fill:#dcb195;fill-opacity:1;stroke-width:2.117;stroke-linejoin:round;stroke-miterlimit:3.1;paint-order:markers stroke fill"
       d="m 126.34557,166.3843 c -0.20095,0.60284 -2.8635,3.01421 -3.76776,6.07866 -0.90427,3.06444 -0.52152,5.63053 0.2067,6.30546 0.72822,0.67493 6.09216,4.20945 6.09216,4.20945 0,0 2.09584,0.95912 4.40482,0.4618 2.30898,-0.49732 4.29826,-3.37467 5.18633,-7.74397 0.88807,-4.3693 -0.21314,-6.82038 -3.41019,-8.02815 -3.19705,-1.20777 -8.75657,-1.60738 -8.71206,-1.28325 z"
       id="path8" />
    <path
       style="opacity:1;fill:#c08167;fill-opacity:1;stroke-width:2.117;stroke-linejoin:round;stroke-miterlimit:3.1;paint-order:markers stroke fill"
       d="m 126.59675,181.75676 c 0,0 1.10521,-2.41136 1.65782,-5.17439 0.5526,-2.76302 0.9545,-3.36586 -0.10048,-4.21989 -1.05497,-0.85403 -5.02368,-3.71752 -5.02368,-3.71752 0,0 5.62652,-3.96871 8.89191,-2.91374 3.2654,1.05498 7.18387,7.03316 7.18387,7.03316 0,0 -1.80853,8.08812 -2.16018,8.33931 -0.35166,0.25118 -1.95924,1.75828 -4.42084,2.21041 -2.46161,0.45214 -6.02842,-1.30615 -6.02842,-1.30615 z"
       id="path9" />
    <path
       style="opacity:1;fill:#fffff0;fill-opacity:1;stroke-width:2.117;stroke-linejoin:round;stroke-miterlimit:3.1;paint-order:markers stroke fill"
       d="m 117.65147,171.14878 c 0,0 -1.06569,1.56301 -0.99464,3.2681 0.071,1.70509 0.28418,2.77078 0.28418,2.77078 l -15.1327,10.15951 c 0,0 -1.27883,1.06569 -1.63405,-1.06568 -0.355233,-2.13137 0.28418,-5.75469 0.28418,-5.75469 0,0 6.25201,-6.74933 9.73324,-8.0992 3.48123,-1.34986 7.45979,-1.27882 7.45979,-1.27882 z"
       id="path10" />
    <path
       style="opacity:1;fill:#edd2b8;fill-opacity:1;stroke-width:2.117;stroke-linejoin:round;stroke-miterlimit:3.1;paint-order:markers stroke fill"
       d="m 116.85081,177.28569 c 0,0 -1.30616,0.50236 -4.3706,1.10521 -3.06445,0.60284 -11.45399,6.73173 -11.45399,7.73647 0,1.00473 0.35165,1.70805 0.9545,2.61231 0.60284,0.90426 1.20568,3.16492 2.00947,3.66729 0.80379,0.50236 1.15544,0.65308 1.15544,0.65308 0,0 2.16019,-6.07866 2.66255,-6.83221 0.50237,-0.75355 5.07392,-4.06918 6.43032,-5.02368 1.35639,-0.9545 4.01894,-2.00947 4.01894,-2.00947 z"
       id="path11" />
  </g>
  <g
     inkscape:groupmode="layer"
     id="layer5"
     inkscape:label="Layer 2"
     transform="translate(-99.489841,-164.47315)">
    <path
       style="opacity:1;fill:#111b09;stroke-width:2.117;stroke-linejoin:round;stroke-miterlimit:3.1;paint-order:markers stroke fill"
       d="m 117.85555,170.45348 c -12.39114,-0.0287 -16.54118,8.38188 -16.7791,8.49002 -0.5526,0.25119 -1.105208,0.10048 -1.205681,1.40663 -0.100472,1.30616 -0.703315,3.36587 -0.150709,2.96397 0.5526,-0.40189 4.52131,-7.48528 9.74594,-9.59523 5.22463,-2.10994 8.08812,-2.21042 8.08812,-2.21042 z"
       id="path2"
       sodipodi:nodetypes="csssscc" />
    <path
       style="opacity:1;fill:#111b09;stroke-width:2.117;stroke-linejoin:round;stroke-miterlimit:3.1;paint-order:markers stroke fill"
       d="m 118.05649,178.69232 c 0,0 -4.47107,1.40663 -9.04262,4.87297 -4.57155,3.46634 -6.07865,7.43505 -5.3251,6.88244 1.86163,-1.36518 8.76614,-8.38579 14.56867,-10.95162 z"
       id="path3"
       sodipodi:nodetypes="csscc" />
    <path
       style="opacity:1;fill:#111b09;stroke-width:2.117;stroke-linejoin:round;stroke-miterlimit:3.1;paint-order:markers stroke fill"
       d="m 107.34986,186.35253 c -0.21314,0.4618 -1.95375,4.40483 -2.38003,5.54156 -0.42627,1.13673 0.14209,0.88807 0.14209,0.88807 0,0 -0.71045,0.49732 -0.35523,0.63941 0.35523,0.14209 1.27883,-0.0711 1.98928,-2.62869 0.71046,-2.55764 0.74598,-3.01943 0.88807,-3.01943 0.14209,0 0,0.53284 0.17762,0.39075 0.17761,-0.14209 1.13673,-1.27882 1.20777,-1.7051 0.071,-0.42627 -0.14209,-0.74598 -0.49732,-0.63941 -0.35523,0.10657 -1.17225,0.53284 -1.17225,0.53284 z"
       id="path4" />
    <path
       style="opacity:1;fill:#111b09;stroke-width:2.117;stroke-linejoin:round;stroke-miterlimit:3.1;paint-order:markers stroke fill"
       d="m 122.47733,170.15206 c 0,0 -1.55734,-2.05971 -4.16965,0 -7.55319,5.9554 3.17691,14.49969 5.27486,9.24357 0.25579,-0.76731 -0.18812,-0.53505 -0.35166,-0.70331 0,0 -0.52748,1.05497 -2.88861,0.30142 -5.2034,-1.66065 -3.21004,-10.22579 1.83364,-8.33931 z"
       id="path5"
       sodipodi:nodetypes="csccscc" />
    <path
       style="opacity:1;fill:#111b09;stroke-width:2.117;stroke-linejoin:round;stroke-miterlimit:3.1;paint-order:markers stroke fill"
       d="m 122.90884,179.53216 c 0,0 4.66462,5.60398 9.42468,4.89352 7.15579,-1.06802 11.28099,-12.7118 2.96667,-18.67993 -4.38592,-3.14828 -14.99516,-0.34252 -14.27972,7.16934 0.30142,3.16492 1.75828,4.62178 1.75828,3.31562 0,-15.7128 22.08173,-8.60744 12.76015,4.57155 0,0 -2.76302,3.66729 -7.2341,1.05498 -4.47107,-2.61232 -4.32036,-3.51658 -4.77249,-3.36587 -0.45213,0.15071 -0.62347,1.04079 -0.62347,1.04079 z"
       id="path6"
       sodipodi:nodetypes="csssscssc" />
  </g>
</svg>
