<?xml version="1.0" encoding="UTF-8" standalone="no"?>
<!-- Created with Inkscape (http://www.inkscape.org/) -->

<svg
   width="58.083714mm"
   height="47.591358mm"
   viewBox="0 0 58.083713 47.59136"
   version="1.1"
   id="svg1"
   inkscape:version="1.3 (0e150ed6c4, 2023-07-21)"
   sodipodi:docname="head.svg"
   xmlns:inkscape="http://www.inkscape.org/namespaces/inkscape"
   xmlns:sodipodi="http://sodipodi.sourceforge.net/DTD/sodipodi-0.dtd"
   xmlns="http://www.w3.org/2000/svg"
   xmlns:svg="http://www.w3.org/2000/svg">
  <sodipodi:namedview
     id="namedview1"
     pagecolor="#ffffff"
     bordercolor="#000000"
     borderopacity="0.25"
     inkscape:showpageshadow="2"
     inkscape:pageopacity="0.0"
     inkscape:pagecheckerboard="0"
     inkscape:deskcolor="#d1d1d1"
     inkscape:document-units="mm"
     inkscape:zoom="1.3166807"
     inkscape:cx="173.9222"
     inkscape:cy="42.15145"
     inkscape:window-width="1920"
     inkscape:window-height="974"
     inkscape:window-x="-11"
     inkscape:window-y="-11"
     inkscape:window-maximized="1"
     inkscape:current-layer="g2" />
  <defs
     id="defs1">
    <pattern
       id="EMFhbasepattern"
       patternUnits="userSpaceOnUse"
       width="6"
       height="6"
       x="0"
       y="0" />
  </defs>
  <g
     inkscape:groupmode="layer"
     id="layer7"
     inkscape:label="Layer 2"
     transform="translate(-28.662932,-50.373161)">
    <path
       style="opacity:1;fill:#c08167;fill-opacity:1;stroke-width:2.117;stroke-linejoin:round;stroke-miterlimit:3.1;paint-order:markers stroke fill"
       d="m 78.292221,79.109244 c 0.923591,0.213137 0.63941,0.888071 3.126004,-0.177613 2.486597,-1.065683 1.77614,-4.760055 1.740617,-4.902144 -0.03552,-0.142092 -15.640576,-10.128271 -21.36757,-9.023061 -5.726996,1.105212 -22.807511,13.061571 -22.807511,13.061571 l 4.295248,6.304719 c 0,0 -3.416104,5.124154 -1.255921,8.263954 2.160182,3.139799 3.801305,3.843218 9.484952,4.482629 5.683644,0.639407 10.514745,-0.781503 10.514745,-0.781503 0,0 5.896782,-1.634048 8.383376,-4.049599 2.486597,-2.415547 6.252012,-5.328417 6.607239,-6.962465 0.355229,-1.634048 1.278821,-6.216488 1.278821,-6.216488 z"
       id="path24" />
    <path
       style="opacity:1;fill:#a1664b;fill-opacity:1;stroke-width:2.117;stroke-linejoin:round;stroke-miterlimit:3.1;paint-order:markers stroke fill"
       d="m 75.805624,86.95978 c 0,0 -5.683644,-8.383378 -18.898121,-8.028149 -13.214476,0.355227 -12.326405,-1.278821 -12.326405,-1.278821 0,0 4.227211,-1.527479 6.713804,-1.527479 2.486597,0 2.983916,-0.177615 2.983916,-0.177615 0,0 2.664208,-3.339142 4.511394,-5.719167 1.847183,-2.380028 3.765415,-3.800938 3.907504,-3.694372 0.142092,0.106569 4.760056,1.491959 4.760056,1.669571 0,0.177615 15.181773,3.484174 15.181773,3.735359 0,0.251182 1.40663,3.11468 0.452133,5.274863 -0.9545,2.160182 -4.169656,2.160182 -4.169656,2.160182 z"
       id="path25" />
    <path
       style="opacity:1;fill:#d69588;fill-opacity:1;stroke-width:2.117;stroke-linejoin:round;stroke-miterlimit:3.1;paint-order:markers stroke fill"
       d="m 41.579421,88.469498 c 0,0 2.628686,1.065683 3.5878,0.461798 0.959118,-0.603887 1.456436,-2.344504 0.01775,-3.232575 -1.438672,-0.888069 -2.078083,-1.030161 -2.078083,-1.030161 0,0 -0.745976,1.030161 -1.190013,2.237936 -0.444035,1.207775 -0.337466,1.563002 -0.337466,1.563002 z"
       id="path26" />
    <path
       style="opacity:1;fill:#d69588;fill-opacity:1;stroke-width:2.117;stroke-linejoin:round;stroke-miterlimit:3.1;paint-order:markers stroke fill"
       d="m 72.466593,76.812076 c 0,0 -2.210419,-0.753552 -4.370601,0.351657 -2.160183,1.10521 -2.511841,2.310895 -2.888618,2.461604 -0.376775,0.150712 -0.828908,0.50237 -0.427014,1.55734 0.401897,1.054973 0.879145,1.507107 2.361131,1.406631 1.481987,-0.100473 3.441221,-0.627959 4.646904,-2.938851 1.205685,-2.310895 1.155448,-3.089564 1.155448,-3.089564 z"
       id="path27" />
    <path
       style="opacity:1;fill:#4e3f26;fill-opacity:1;stroke-width:2.117;stroke-linejoin:round;stroke-miterlimit:3.1;paint-order:markers stroke fill"
       d="m 31.096582,65.408322 c 0,0 -1.257443,1.125855 1.335722,0.66406 2.593163,-0.461796 5.221849,0.390752 5.221849,0.390752 0,0 -2.451071,1.669571 -0.426273,3.33914 2.024798,1.669571 17.761394,1.101206 17.761394,1.101206 l 5.541553,-6.252009 6.87366,3.676608 c 0,0 0.213135,1.118968 1.118968,2.16689 0.90583,1.047922 3.19705,2.166889 4.33378,2.522119 1.136729,0.355227 3.268096,1.509718 7.104557,0.124328 3.836461,-1.385388 5.150802,-3.694369 5.577078,-5.328417 0.426273,-1.634049 0.39075,-2.16689 0.39075,-2.16689 0,0 -2.095844,0.923591 -3.303619,1.03016 -1.207776,0.106569 -3.516757,0.106569 -3.658847,0.106569 -0.142091,0 -0.994637,-0.355227 -0.994637,-0.355227 0,0 0.745977,-0.284184 -0.532842,-1.136729 C 76.160854,64.438333 75.09517,63.7634 75.09517,63.7634 c 0,0 -0.242329,-2.273549 -1.146593,-3.981601 -0.904261,-1.708052 -6.028414,-5.224629 -6.028414,-5.224629 0,0 0.887473,-0.811194 2.095248,-0.846717 1.207776,-0.03552 1.918232,-0.106569 1.918232,-0.106569 0,0 0.461796,-0.603887 -0.390752,-0.817023 -0.852546,-0.213137 -10.869973,-1.207775 -13.711796,-1.207775 -2.841821,0 -10.798926,3.339142 -10.798926,3.339142 0,0 -5.399463,-0.710456 -6.607239,-0.355229 -1.207775,0.355229 -5.470509,2.344504 -6.252009,3.481234 -0.781502,1.136729 5.257372,2.41555 5.257372,2.41555 0,0 -3.658846,2.131367 -4.973191,2.806298 -1.314344,0.674934 -3.36052,2.142241 -3.36052,2.142241 z"
       id="path28" />
    <path
       style="opacity:1;fill:#ec5f44;fill-opacity:1;stroke-width:2.117;stroke-linejoin:round;stroke-miterlimit:3.1;paint-order:markers stroke fill"
       d="m 37.298926,74.06501 c 0,0 -4.049599,5.079757 -3.765415,6.216486 0.284181,1.136729 1.918229,1.349867 2.202413,1.314344 0.284181,-0.03552 5.967827,-3.339142 7.637399,-3.836461 1.669571,-0.497319 6.109919,-1.349867 7.815011,-1.669571 1.705094,-0.319704 3.090484,-0.142092 3.090484,-0.142092 0,0 2.770777,-3.800938 4.085119,-5.36394 1.314344,-1.563002 4.014075,-4.120642 4.156167,-4.049599 0.142092,0.07105 2.451071,1.491959 4.973191,1.740617 2.522116,0.248661 8.525467,-1.136729 8.525467,-1.136729 l 2.131367,-0.248658 c 0,0 -0.106569,-1.509718 -1.349864,-2.202413 -1.243299,-0.692695 -4.358791,-0.785778 -6.56921,-0.58483 -2.210419,0.200949 -5.877706,-0.200948 -5.877706,-0.200948 l -2.411367,-0.803788 c 0,0 -1.55734,-3.265392 -2.260656,-3.566814 -0.703315,-0.301421 -3.164919,-0.301421 -3.164919,-0.301421 l -7.183864,1.808525 c 0,0 -0.904263,2.461604 -1.607576,3.466341 -0.703315,1.004736 -3.164919,2.863498 -4.11942,3.265392 -0.9545,0.401894 -4.370601,1.858761 -4.370601,1.858761 l 0.502367,-1.908998 0.9545,-3.315628 c 0,0 -1.657816,0.904261 -2.863498,1.657813 -1.205683,0.753554 -2.461604,1.557342 -2.461604,1.557342 0,0 -0.452131,2.310892 -0.05024,3.61705 0.401895,1.306156 1.982452,2.829219 1.982452,2.829219 z"
       id="path29" />
    <path
       style="opacity:1;fill:#fbe870;fill-opacity:1;stroke-width:2.117;stroke-linejoin:round;stroke-miterlimit:3.1;paint-order:markers stroke fill"
       d="m 48.679465,64.152401 c 0,0 -2.511841,1.682932 -2.109947,2.210419 0.401894,0.527486 1.557343,1.180565 2.235539,0.9545 0.678196,-0.226065 1.105209,-2.03459 1.105209,-2.03459 z"
       id="path30" />
  </g>
  <g
     inkscape:groupmode="layer"
     id="g2"
     inkscape:label="Layer 2"
     transform="translate(-28.662932,-50.373161)">
    <path
       style="opacity:1;fill:#111b09;fill-opacity:1;stroke-width:2.117;stroke-linejoin:round;stroke-miterlimit:3.1;paint-order:markers stroke fill"
       d="m 41.259717,60.992625 c 0,0 -0.817025,1.971514 -1.065683,3.552277 -0.248661,1.580764 -1.332106,4.280496 -1.758379,4.902145 -0.426273,0.621649 -0.674933,0.728218 -0.284183,0.781502 0.390752,0.05329 2.0248,-0.03552 6.180965,-1.918232 4.156165,-1.882706 5.71917,-6.749327 5.506032,-7.672922 -0.213138,-0.923591 -0.284184,-2.841823 -0.888069,-1.527479 -0.603887,1.314344 -0.532841,4.404826 -2.522119,6.145443 -1.989275,1.740617 -6.962465,4.156165 -6.962465,4.156165 0,0 2.273458,-3.836461 2.202413,-5.75469 -0.07105,-1.918232 -0.408512,-2.664209 -0.408512,-2.664209 z"
       id="path2" />
    <path
       style="opacity:1;fill:#111b09;fill-opacity:1;stroke-width:2.117;stroke-linejoin:round;stroke-miterlimit:3.1;paint-order:markers stroke fill"
       d="m 38.577747,60.708441 c 0,0 -5.896784,2.308982 -8.170243,4.298257 -2.273456,1.989278 -1.847183,2.735255 -1.349865,2.557642 0.497319,-0.177614 0.710457,-0.355229 3.090482,-0.781502 2.380027,-0.426273 4.511394,-0.284184 4.511394,-0.284184 0,0 0.959115,-0.745976 0.817026,-0.781499 -0.142092,-0.03552 -2.344505,-0.284184 -3.481234,-0.142092 -1.13673,0.142092 -1.669571,0.142092 -1.669571,0.142092 0,0 5.33931,-4.001239 6.808737,-4.403133 1.469427,-0.401894 0.803788,-0.979617 0.803788,-0.979617 0,0 0.213506,-0.414454 -0.364217,-0.791231 -0.577723,-0.376775 -4.885529,-0.904261 -4.659464,-1.142886 0.226066,-0.238625 3.450029,-3.339971 8.458743,-2.949218 5.008713,0.39075 7.033511,-0.817025 7.033511,-0.817025 0,0 8.596513,-1.918229 12.148793,-2.095844 3.552277,-0.177615 7.992626,0.781502 7.601876,0.852545 -0.39075,0.07105 -4.085121,0.603888 -3.019438,1.882709 1.065683,1.278821 4.120645,2.983915 5.612601,5.186328 1.491956,2.202413 1.882709,3.729892 2.699731,3.658846 0.817026,-0.07104 0.568365,-3.587802 -1.349864,-5.683646 -1.918232,-2.095844 -4.866624,-3.907507 -4.33378,-4.014073 0.532842,-0.106569 3.481232,0.07104 3.623323,-0.106569 0.142092,-0.177615 0.7815,-1.491959 0.213138,-1.882709 -0.568364,-0.39075 -10.230564,-2.770778 -15.487935,-1.847183 -5.257374,0.923591 -5.896782,0.959114 -8.312333,2.131367 -2.41555,1.172252 -3.19705,1.953752 -3.19705,1.953752 0,0 -4.831099,-1.669571 -8.063672,-0.319704 -3.232576,1.349864 -4.795578,2.628685 -5.612601,4.049596 -0.817025,1.420913 0,1.349867 0,1.349867 0,0 2.060321,0.319704 3.090482,0.426273 1.03016,0.106568 2.557642,0.532841 2.557642,0.532841 z"
       id="path3" />
    <path
       style="opacity:1;fill:#111b09;fill-opacity:1;stroke-width:2.117;stroke-linejoin:round;stroke-miterlimit:3.1;paint-order:markers stroke fill"
       d="m 40.892761,63.298376 c 0,0 -5.676759,2.285775 -6.15401,5.249746 -0.47725,2.963971 0.226066,4.345482 1.155446,5.099037 0.929381,0.753552 1.331275,0.577723 1.331275,0.577723 l 0.778672,-0.401897 c 0,0 -1.959235,-1.833642 -2.185303,-3.843115 -0.226065,-2.009471 1.029857,-2.938852 1.758289,-3.416102 0.728435,-0.47725 3.290512,-1.481986 3.290512,-1.481986 z"
       id="path4" />
    <path
       style="opacity:1;fill:#111b09;fill-opacity:1;stroke-width:2.117;stroke-linejoin:round;stroke-miterlimit:3.1;paint-order:markers stroke fill"
       d="m 39.712195,79.725812 c 0,0 1.657814,3.29051 2.66255,3.667287 1.004737,0.376775 0.929381,0.301419 0.803789,-0.100475 -0.12559,-0.401895 -0.376775,-1.456868 -1.180563,-2.336012 -0.803791,-0.879144 -1.054973,-1.934117 -1.054973,-1.934117 z"
       id="path5"
       sodipodi:nodetypes="cssscc" />
    <path
       id="path6"
       style="opacity:1;fill:#111b09;fill-opacity:1;stroke-width:2.117;stroke-linejoin:round;stroke-miterlimit:3.1;paint-order:markers stroke fill"
       d="M 77.917208,79.122819 C 73.603185,97.163987 55.504079,96.803022 52.899613,96.655599 42.036509,96.040738 42.039996,90.937088 42.098206,88.492273 c 0.06037,-2.535616 1.758678,-3.81791 1.582849,-4.14445 -0.175829,-0.326539 -0.678512,-0.351916 -0.678512,-0.351916 0,0 -2.813245,2.411656 -2.235522,6.556189 0.715105,6.78968 7.595155,7.096889 13.087056,7.409883 11.421539,0.147114 23.954867,-6.098827 25.519889,-18.437117 z"
       sodipodi:nodetypes="cssscsscc" />
    <path
       style="opacity:1;fill:#111b09;fill-opacity:1;stroke-width:2.117;stroke-linejoin:round;stroke-miterlimit:3.1;paint-order:markers stroke fill"
       d="m 76.837195,78.570364 c 0,0 1.230802,2.03459 4.245009,1.43175 3.01421,-0.602842 3.541694,-3.767761 2.938854,-5.953061 -0.602842,-2.185302 -1.532223,-2.210422 -1.532223,-2.210422 l -0.251185,0.50237 c 0,0 1.406631,4.948325 -0.979617,5.902825 -2.386248,0.954497 -3.516577,0.251182 -3.918471,0.02511 L 76.937668,78.04287 Z"
       id="path7"
       sodipodi:nodetypes="cssccsscc" />
    <path
       style="opacity:1;fill:#111b09;fill-opacity:1;stroke-width:2.117;stroke-linejoin:round;stroke-miterlimit:3.1;paint-order:markers stroke fill"
       d="m 66.915426,68.070872 c 0,0 1.306155,5.475811 8.490019,6.229363 7.183863,0.753552 11.3412,-4.036163 11.3412,-6.309622 0,-2.273458 -0.565404,-3.08466 -1.143127,-2.582291 -0.577723,0.502367 -3.441222,1.080089 -4.973445,1.155445 -1.532221,0.07536 -1.733169,-0.175828 -2.084826,-0.175828 -1.487722,10e-7 -3.032276,0.328324 -2.102895,0.780457 0.929381,0.452131 0.796737,1.002949 4.03701,0.601055 3.240275,-0.401894 4.539557,-1.449519 4.565455,-1.124971 0.03226,0.404278 0.106568,2.380892 -2.832283,4.139181 -2.938855,1.758286 -5.174393,2.361128 -7.811823,1.934115 -2.637433,-0.427012 -4.219893,-1.481984 -5.299985,-2.788142 -1.08009,-1.306158 -0.879145,-1.758288 -0.879145,-1.758288 z"
       id="path8"
       sodipodi:nodetypes="cssssssssssscc" />
    <path
       style="opacity:1;fill:#111b09;fill-opacity:1;stroke-width:2.117;stroke-linejoin:round;stroke-miterlimit:3.1;paint-order:markers stroke fill"
       d="m 62.394112,67.015899 c 0,0 4.245012,2.587196 9.570112,1.381511 5.325102,-1.205682 5.576286,-0.703315 5.073917,-1.029853 -0.502367,-0.326539 -0.929381,-0.703316 -2.813259,-0.678196 -1.883881,0.02511 -1.959237,1.155446 -4.72226,1.054973 -2.763025,-0.100476 -5.52605,-1.507106 -6.179129,-1.381514 -0.653076,0.125592 -0.904261,0.07536 -0.904261,0.07536 z"
       id="path9" />
    <path
       id="path10"
       style="opacity:1;fill:#111b09;fill-opacity:1;stroke-width:2.117;stroke-linejoin:round;stroke-miterlimit:3.1;paint-order:markers stroke fill"
       d="m 62.804517,66.143258 -0.781864,0.07131 c 0,0 -3.871052,2.38375 -6.251076,5.580797 -1.268006,1.703291 -1.716236,2.646486 -2.204554,3.36421 -2.416176,-0.206611 -6.363157,0.999176 -9.092653,1.67605 -5.504011,1.364913 -8.418608,4.298446 -8.418608,4.298446 0,0 -2.051438,0.337199 -1.438671,-1.509985 0.436773,-1.316653 2.433385,-4.919633 2.966227,-5.203817 0.532841,-0.284181 2.806012,-0.674953 2.66392,-1.101225 -0.142089,-0.426272 -2.699732,0.319763 -2.877344,0.426331 -0.177615,0.106569 -0.568441,0.355017 -0.568441,0.355017 0,0 -3.800801,2.877381 -3.800801,6.038908 0,3.161524 1.101016,3.055302 2.415356,2.557983 1.314343,-0.497317 1.10132,-0.994942 1.811776,-1.314648 0.710455,-0.319704 6.926939,-3.481269 9.591146,-4.120679 2.452897,-0.588695 5.939906,-0.806346 6.499861,-0.838708 -0.04765,0.157024 -0.01602,0.245565 0.107487,0.270267 0.532842,0.106569 0.710419,-3.9e-5 1.634009,-1.243335 1.228618,-1.653909 2.024799,-3.409935 4.795573,-5.825484 2.770775,-2.415547 3.339179,-2.806201 3.161564,-3.125907 -0.177615,-0.319704 -0.212907,-0.355534 -0.212907,-0.355534 z"
       sodipodi:nodetypes="ccscscsssscsssscssssc" />
    <path
       style="opacity:1;fill:#111b09;fill-opacity:1;stroke-width:2.117;stroke-linejoin:round;stroke-miterlimit:3.1;paint-order:markers stroke fill"
       d="m 46.552611,66.498657 c 0,0 -0.266422,0.923592 0.994638,1.332103 1.26106,0.408511 2.184651,0.07105 2.55764,-1.580764 0.372991,-1.651809 -0.26642,-1.847186 -0.817023,-2.131367 -0.550603,-0.284183 -0.763741,-0.301945 -0.763741,-0.301945 l -0.195374,0.674934 c 0,0 0.956389,0.577156 1.030161,1.065683 0.07828,0.518377 -0.226397,1.201835 -0.710457,1.403152 -0.655188,0.272488 -2.024798,-0.657172 -2.024798,-0.657172 z"
       id="path12"
       sodipodi:nodetypes="csssccsacc" />
    <path
       style="opacity:1;fill:#111b09;fill-opacity:1;stroke-width:2.117;stroke-linejoin:round;stroke-miterlimit:3.1;paint-order:markers stroke fill"
       d="m 48.792497,81.383626 c 0,0 1.054973,-2.009474 -0.05024,-2.876058 -1.10521,-0.866585 -3.830556,-1.456867 -5.18695,-0.263742 -1.356394,1.193123 -1.343835,1.469427 -1.155446,2.185299 0.188389,0.715876 0.715872,1.10521 0.967057,0.803791 0.251185,-0.301421 1.193126,-1.821084 2.951414,-1.682935 1.758289,0.138152 2.009471,0.690758 2.009471,0.690758 0,0 -0.200946,0.251183 -0.03768,0.753552 0.163269,0.502367 0.502367,0.389335 0.502367,0.389335 z"
       id="path13" />
    <path
       style="opacity:1;fill:#111b09;fill-opacity:1;stroke-width:2.117;stroke-linejoin:round;stroke-miterlimit:3.1;paint-order:markers stroke fill"
       d="m 65.965813,76.551604 c 0,0 0.284183,-0.603888 -0.319704,-1.349865 -0.603888,-0.745979 -4.72453,-3.907506 -8.028149,-0.852548 -3.303619,3.054961 -3.019438,5.541555 -2.415551,5.754693 0.603888,0.213135 1.456434,-3.339142 3.871984,-4.475872 2.415551,-1.136729 3.268096,-1.243298 4.72453,-0.568364 1.456436,0.674933 1.500838,0.90583 1.500838,0.994637 0,0.08881 -0.01775,0.293063 0.266422,0.399632 0.284181,0.106569 0.39963,0.09769 0.39963,0.09769 z"
       id="path14" />
    <path
       style="opacity:1;fill:#111b09;fill-opacity:1;stroke-width:2.117;stroke-linejoin:round;stroke-miterlimit:3.1;paint-order:markers stroke fill"
       d="m 50.096009,85.778648 c -0.490535,0.172394 -1.115123,0.277001 -1.203036,0.992876 -0.08792,0.715872 0.150709,1.783405 1.481984,2.02203 1.331275,0.238625 1.783408,-0.188388 1.55734,-0.627959 -0.226065,-0.439574 -1.042413,-1.218242 -1.620136,-1.368954 -0.577723,-0.15071 0.376776,-0.313979 0.276303,-0.64052 -0.100473,-0.326538 -0.338891,-0.431441 -0.492455,-0.377473 z"
       id="path15"
       sodipodi:nodetypes="sssssss" />
    <path
       style="opacity:1;fill:#111b09;fill-opacity:1;stroke-width:2.117;stroke-linejoin:round;stroke-miterlimit:3.1;paint-order:markers stroke fill"
       d="m 67.392676,78.683397 c 0,0 1.356392,0.439573 2.361129,0.514926 1.004736,0.07536 1.846204,-0.113032 2.361131,-0.06279 0.514926,0.05024 1.092649,0.288861 0.916821,0.03768 -0.175829,-0.251185 -0.427014,-0.665639 -2.474164,-0.816348 -2.047148,-0.150712 -2.712786,0.175828 -2.963971,0.188388 -0.251182,0.01257 -0.200946,0.13815 -0.200946,0.13815 z"
       id="path16" />
    <path
       style="opacity:1;fill:#111b09;fill-opacity:1;stroke-width:2.117;stroke-linejoin:round;stroke-miterlimit:3.1;paint-order:markers stroke fill"
       d="m 69.289114,76.642287 c 0,0 0.690756,0.540948 1.708052,0.562587 1.017294,0.02163 2.536958,0.08655 2.938854,-0.205561 0.401894,-0.292111 0.879145,-0.357026 0.401894,-0.432759 -0.47725,-0.07573 -0.753551,-0.421938 -2.5244,-0.432757 -1.770848,-0.01083 -2.197859,0.151465 -2.386248,0.281292 -0.188388,0.129829 -0.138152,0.227198 -0.138152,0.227198 z"
       id="path17" />
    <path
       style="opacity:1;fill:#111b09;fill-opacity:1;stroke-width:2.117;stroke-linejoin:round;stroke-miterlimit:3.1;paint-order:markers stroke fill"
       d="m 40.716932,86.746404 c 0.766109,0 2.323452,-0.288861 2.813259,-0.288861 0.48981,0 0.728435,0.288861 0.665639,-0.02511 -0.0628,-0.313981 0.514927,-0.627962 -0.841467,-0.753555 -1.356392,-0.125589 -2.461602,-0.163269 -3.039327,0.0628 -0.577723,0.226065 -1.213829,0.386606 -0.791229,0.615401 0.441221,0.238877 0.672632,0.365834 1.193125,0.389325 z"
       id="path18"
       sodipodi:nodetypes="sssssss" />
    <path
       style="opacity:1;fill:#111b09;fill-opacity:1;stroke-width:2.117;stroke-linejoin:round;stroke-miterlimit:3.1;paint-order:markers stroke fill"
       d="m 39.975938,88.253508 c -0.728433,0 -1.695493,-0.07535 -1.645256,-0.313978 0.05024,-0.238625 1.507106,-0.540047 2.612316,-0.577723 1.105209,-0.03768 1.946674,0.188386 1.720609,0.376774 -0.226065,0.188389 -0.816348,0.50237 -1.356394,0.50237 -0.540044,0 -1.331275,0.01257 -1.331275,0.01257 z"
       id="path19" />
    <path
       style="opacity:1;fill:#111b09;fill-opacity:1;stroke-width:2.117;stroke-linejoin:round;stroke-miterlimit:3.1;paint-order:markers stroke fill"
       d="m 56.365698,89.999237 c 0,0 0.879141,1.381514 2.336011,1.708052 1.456867,0.326541 2.210419,-1.255919 2.712786,-1.130327 0.502367,0.12559 2.637433,0.427011 3.466341,-0.653079 0.828905,-1.080092 1.306155,-2.084829 0.954497,-3.114682 -0.351657,-1.029854 -2.461604,-1.908998 -2.386248,-1.281039 0.07536,0.62796 0.427014,0.590283 0.540047,0.728435 0.113032,0.13815 1.306158,2.599754 -0.766112,3.102121 -2.072267,0.502369 -1.754872,-0.306623 -2.031174,-0.206147 -0.276302,0.100472 -0.662219,1.357654 -2.093969,1.583719 -1.431748,0.226068 -2.20192,-1.126149 -2.34106,-1.14504 -0.315766,-0.04287 -0.441359,0.35775 -0.391119,0.407987 z"
       id="path20"
       sodipodi:nodetypes="cssssssssssc" />
    <path
       style="opacity:1;fill:#111b09;fill-opacity:1;stroke-width:2.117;stroke-linejoin:round;stroke-miterlimit:3.1;paint-order:markers stroke fill"
       d="m 49.376673,61.454421 c 0,0 4.191688,-1.847186 7.53083,-1.527479 3.339143,0.319704 3.516757,1.172249 4.014076,2.344502 0.497319,1.172252 0.710454,1.314344 0.7815,1.705094 0.07105,0.390749 -0.07105,1.172252 0.426273,0.745979 0.497321,-0.426273 0.07105,-1.314344 0.03552,-2.380028 -0.03552,-1.065683 -1.882707,-3.871983 -4.440346,-3.83646 -2.557643,0.03552 -4.475872,0.852548 -5.932308,1.243298 -1.456433,0.39075 -2.522117,0.888068 -2.522117,0.888068 z"
       id="path21" />
    <path
       style="opacity:1;fill:#111b09;fill-opacity:1;stroke-width:2.117;stroke-linejoin:round;stroke-miterlimit:3.1;paint-order:markers stroke fill"
       d="m 61.880694,62.413535 c 1.740617,0.426273 0.284181,0.923592 4.61796,1.314345 4.333783,0.390749 6.571716,-1.349868 8.632039,-0.603888 2.060321,0.745977 1.634049,0.817023 1.989276,1.207773 0.355226,0.390752 0.568364,0.355229 0.959114,0.888071 0.390753,0.532842 0.568365,1.243298 0.390753,1.243298 -0.177615,0 -0.639411,0.177612 -0.639411,0.177612 0.193969,-0.803223 -3.319101,-2.604728 -7.850536,-1.776138 -2.305439,0.192244 -7.799452,0.923185 -8.099195,-2.451073 z"
       id="path22"
       sodipodi:nodetypes="cssssscsc" />
    <path
       style="opacity:1;fill:#111b09;fill-opacity:1;stroke-width:2.117;stroke-linejoin:round;stroke-miterlimit:3.1;paint-order:markers stroke fill"
       d="m 61.590324,65.810216 c 0,0 -0.401894,0.200946 -1.607577,0.452131 -1.205685,0.251185 -5.50093,1.858761 -8.113246,2.963971 -2.612313,1.105209 -4.546431,2.763025 -10.172951,3.667286 0,0 2.059709,-1.356391 6.12889,-3.365864 4.069181,-2.009472 9.193335,-3.365866 10.85115,-3.61705 1.657815,-0.251184 2.913734,-0.100474 2.913734,-0.100474 z"
       id="path23"
       sodipodi:nodetypes="csscssc" />
    <path
       style="opacity:1;fill:#111b09;fill-opacity:1;stroke-width:2.117;stroke-linejoin:round;stroke-miterlimit:3.1;paint-order:markers stroke fill"
       d="m 78.070831,74.059815 c 0,0 -0.678198,-0.326539 -0.778671,-0.301421 -0.100473,0.02512 -0.703315,1.306157 0.527487,1.808525 1.230802,0.502368 3.868234,0.351658 3.089563,0.07536 -0.778671,-0.276302 -1.532223,-0.401894 -2.160183,-0.828907 -0.627959,-0.427013 -0.678196,-0.753552 -0.678196,-0.753552 z"
       id="path31" />
  </g>
</svg>
