<?xml version="1.0" encoding="UTF-8" standalone="no"?>
<!-- Created with Inkscape (http://www.inkscape.org/) -->

<svg
   width="57.688938mm"
   height="27.921684mm"
   viewBox="0 0 57.688938 27.921684"
   version="1.1"
   id="svg1"
   xml:space="preserve"
   inkscape:version="1.3 (0e150ed6c4, 2023-07-21)"
   sodipodi:docname="leg_left.svg"
   xmlns:inkscape="http://www.inkscape.org/namespaces/inkscape"
   xmlns:sodipodi="http://sodipodi.sourceforge.net/DTD/sodipodi-0.dtd"
   xmlns="http://www.w3.org/2000/svg"
   xmlns:svg="http://www.w3.org/2000/svg"><sodipodi:namedview
     id="namedview1"
     pagecolor="#ffffff"
     bordercolor="#000000"
     borderopacity="0.25"
     inkscape:showpageshadow="2"
     inkscape:pageopacity="0.0"
     inkscape:pagecheckerboard="0"
     inkscape:deskcolor="#d1d1d1"
     inkscape:document-units="mm"
     inkscape:zoom="0.93103385"
     inkscape:cx="-95.592658"
     inkscape:cy="-33.833356"
     inkscape:window-width="1920"
     inkscape:window-height="974"
     inkscape:window-x="-11"
     inkscape:window-y="-11"
     inkscape:window-maximized="1"
     inkscape:current-layer="layer1" /><defs
     id="defs1"><pattern
       id="EMFhbasepattern"
       patternUnits="userSpaceOnUse"
       width="6"
       height="6"
       x="0"
       y="0" /><pattern
       id="EMFhbasepattern-0"
       patternUnits="userSpaceOnUse"
       width="6"
       height="6"
       x="0"
       y="0" /></defs><g
     inkscape:label="Layer 1"
     inkscape:groupmode="layer"
     id="layer1"
     transform="translate(-44.332503,-95.429008)"><path
       style="opacity:1;fill:#54583f;fill-opacity:1;stroke-width:2.117;stroke-linejoin:round;stroke-miterlimit:3.1;paint-order:markers stroke fill"
       d="m 64.580425,104.65013 c 0,0 2.344505,-0.71046 7.672922,0.49732 5.328417,1.20777 10.159516,4.40482 12.646112,5.11528 2.486594,0.71045 5.75469,-0.7815 10.4437,0.71045 4.689011,1.49196 5.967831,2.62869 5.683641,2.91287 -0.28418,0.28418 -1.84718,2.77078 -2.131364,3.05496 -0.284181,0.28418 -5.399463,3.19705 -7.033511,3.48124 -1.634049,0.28418 -4.262734,0.63941 -5.683645,0.28418 -1.420913,-0.35523 -8.809651,-3.69437 -9.378015,-3.76542 -0.568365,-0.071 -5.044237,-1.63405 -5.967828,-1.42091 -0.923595,0.21314 -5.967831,2.13137 -5.967831,2.13137 0,0 -2.486594,-1.13673 -3.552277,-2.69973 -1.065683,-1.56301 -2.131367,-6.32306 -2.131367,-6.32306 0,0 2.344505,0 3.410188,-0.85255 1.065684,-0.85254 0.994638,-2.3445 1.563002,-2.62868 0.568365,-0.28419 0.426273,-0.49732 0.426273,-0.49732 z"
       id="path9" /><path
       style="opacity:1;fill:#313425;fill-opacity:1;stroke-width:2.117;stroke-linejoin:round;stroke-miterlimit:3.1;paint-order:markers stroke fill"
       d="m 101.2774,114.13802 c 0,0 0.85403,-0.75355 -0.45213,-1.30615 -1.306158,-0.55261 -3.16492,-1.25592 -3.16492,-1.25592 0,0 -7.585757,2.56207 -12.508965,2.31089 -4.923205,-0.25118 -8.037888,-3.01421 -13.212278,-3.01421 -5.174393,0 -10.097598,4.27013 -10.097598,4.27013 0,0 0.904261,1.70805 2.310892,2.05971 1.406631,0.35165 1.456867,0.35165 1.456867,0.35165 0,0 2.763025,-2.86349 7.887179,-1.80852 5.124153,1.05497 10.147834,4.52131 12.559202,5.07392 2.411367,0.5526 7.635994,-0.35166 10.348782,-1.60758 2.712787,-1.25592 4.872969,-5.07392 4.872969,-5.07392 z"
       id="path10" /><path
       style="opacity:1;fill:#4c5674;fill-opacity:1;stroke-width:2.117;stroke-linejoin:round;stroke-miterlimit:3.1;paint-order:markers stroke fill"
       d="m 50.010739,96.303956 c 0,0 3.089564,-0.150709 4.169656,0.627962 1.08009,0.778669 3.64217,5.877702 3.64217,5.877702 0,0 4.06918,-2.48672 5.023681,-1.02985 0.954497,1.45687 1.004734,4.3706 1.004734,4.3706 0,0 -1.607577,2.43649 -2.938852,2.66255 -1.331277,0.22607 -1.758288,0.17583 -1.682935,0.2763 0.07536,0.10048 -0.150709,3.29051 1.080093,4.29525 1.230802,1.00474 3.692406,4.94833 3.692406,4.94833 0,0 -3.365868,3.44122 -5.978181,3.94359 -2.612314,0.50236 -4.822733,-1.00474 -4.923208,-1.45687 -0.100473,-0.45213 -0.653077,-5.22463 -0.904261,-5.47581 -0.251185,-0.25119 -4.571551,-2.8635 -5.777233,-6.32984 -1.205682,-3.46634 -1.959237,-6.07865 -0.50237,-9.494758 1.45687,-3.416102 4.0943,-3.215156 4.0943,-3.215156 z"
       id="path11" /><path
       style="opacity:1;fill:#8f9cc6;fill-opacity:1;stroke-width:2.117;stroke-linejoin:round;stroke-miterlimit:3.1;paint-order:markers stroke fill"
       d="m 50.077521,98.753353 c -1.643845,0.717628 -2.144197,1.641867 -2.451049,2.561327 -0.306851,0.91945 -0.507872,1.722 -0.222938,2.01354 0.284932,0.29153 0.675695,0.0661 0.938709,-0.24781 0.263015,-0.31396 -0.379481,-0.13075 0.190386,-0.82591 0.569866,-0.6952 2.188943,-1.35165 2.903803,-1.07915 1.185217,0.45178 1.205486,1.1437 1.556172,0.42609 0.350686,-0.71764 0.594511,-1.966053 0.394522,-2.130461 -1.737722,-1.428552 -2.38286,-1.057296 -3.309605,-0.717626 z"
       id="path12"
       sodipodi:nodetypes="sssscssss" /><path
       style="opacity:1;fill:#8f9cc6;fill-opacity:1;stroke-width:2.117;stroke-linejoin:round;stroke-miterlimit:3.1;paint-order:markers stroke fill"
       d="m 59.907391,116.92617 c -0.05024,-0.0126 -0.100472,0.0377 -0.678198,0.16326 -0.577723,0.1256 -2.072267,0.37678 -2.210419,1.0173 -0.13815,0.64052 0.389337,1.41919 1.105209,1.30616 0.715876,-0.11303 0.766112,-0.6782 1.13033,-0.85403 0.364217,-0.17583 0.389334,-0.32654 0.665638,-0.71587 0.276302,-0.38934 -0.01257,-0.91682 -0.01257,-0.91682 z"
       id="path13" /></g><g
     inkscape:label="Layer 1"
     inkscape:groupmode="layer"
     id="g3"
     transform="translate(-44.332503,-95.429008)"><path
       style="opacity:1;fill:#111b09;fill-opacity:1;stroke-width:2.117;stroke-linejoin:round;stroke-miterlimit:3.1;paint-order:markers stroke fill"
       d="m 59.239978,109.2453 c 0,0 -0.602842,3.26539 1.657816,6.17913 2.260655,2.91374 4.320365,3.51657 4.471074,2.91374 0.644659,-2.57865 -2.219192,0.50336 -5.124153,-7.48529 -0.401894,-1.10521 -0.301421,-2.05971 -0.301421,-2.05971 z"
       id="path3"
       sodipodi:nodetypes="cssscc" /><path
       style="opacity:1;fill:#111b09;fill-opacity:1;stroke-width:2.117;stroke-linejoin:round;stroke-miterlimit:3.1;paint-order:markers stroke fill"
       d="m 53.177611,115.27144 c 0,0 -0.03552,2.09585 0.284181,3.69437 0.319707,1.59853 0.959118,2.23794 1.243299,2.30898 0.284183,0.071 0.497318,0.53284 3.552279,-0.39075 3.054959,-0.92359 2.095844,-1.31434 3.516755,-1.98927 1.420913,-0.67494 2.344504,-1.17226 2.344504,-1.17226 l 0.7815,0.74598 c 0,0 -4.724529,3.55228 -6.571715,4.29826 -1.847183,0.74598 -3.658846,0.74598 -4.511392,0.17761 -0.852548,-0.56836 -1.705094,-1.42091 -1.77614,-3.55228 -0.07105,-2.13136 -0.284184,-3.72989 0.177615,-3.97855 0.461796,-0.24866 0.959114,-0.14209 0.959114,-0.14209 z"
       id="path4" /><path
       id="path5"
       style="opacity:1;fill:#111b09;fill-opacity:1;stroke-width:2.117;stroke-linejoin:round;stroke-miterlimit:3.1;paint-order:markers stroke fill"
       d="m 44.459819,102.232 c -0.369474,3.64863 0.05013,5.47583 1.456758,8.4398 1.40663,2.96397 6.266284,5.43429 6.266284,5.43429 0,0 0.764082,-0.21325 1.119312,-0.3731 0.355226,-0.15985 -0.07108,-0.515 -0.284221,-0.87023 -0.213134,-0.35523 -0.394807,-0.19741 -0.394807,-0.19741 -0.300968,-1.86521 -3.357882,-0.88969 -5.827552,-7.05796 -2.549826,-6.36847 1.413874,-13.009613 6.461736,-10.186233 2.963968,1.657813 3.008266,2.859353 3.49815,3.868503 0.517639,1.06632 0.765463,3.5569 0.916453,2.34898 l 0.301274,-0.75345 0.804085,-0.55293 -0.552938,-0.3514 c 0,0 -1.456656,-5.224566 -5.023466,-6.12883 -2.12075,-0.537653 -7.90432,-1.883096 -8.741068,6.37997 z"
       sodipodi:nodetypes="sscsscsssccccss" /><path
       id="path6"
       style="opacity:1;fill:#111b09;fill-opacity:1;stroke-width:2.117;stroke-linejoin:round;stroke-miterlimit:3.1;paint-order:markers stroke fill"
       d="m 61.824133,100.69463 c -0.320815,0.006 -0.715948,0.0833 -1.222147,0.26096 -2.024796,0.71045 -2.983798,1.74098 -2.983798,1.74098 0,0 -0.746242,2.52208 -0.07131,4.51136 0.674933,1.98926 0.426198,1.98905 1.349788,2.27324 0.923594,0.28418 2.486517,-0.24853 4.227133,-0.92346 1.740612,-0.67493 1.385462,-6.00335 0.56844,-6.7138 -0.612769,-0.53284 -0.905658,-1.16593 -1.868103,-1.14928 z m -0.413411,1.54047 c 0.674378,-0.0183 1.144096,0.21787 1.393713,0.99426 0.846937,3.82861 -0.407339,4.19691 -1.918593,4.65338 -1.20777,0.42623 -1.740232,0.0708 -1.740232,0.0708 0,0 -0.461887,-0.28419 -0.532937,-1.52748 -0.07105,-1.2433 0.03543,-2.41535 0.03543,-2.41535 0.314919,-1.04422 2.002863,-1.75496 2.762622,-1.77561 z"
       sodipodi:nodetypes="sscsssssssccscsss" /><path
       style="opacity:1;fill:#111b09;fill-opacity:1;stroke-width:2.117;stroke-linejoin:round;stroke-miterlimit:3.1;paint-order:markers stroke fill"
       d="m 63.641413,104.77169 c 0,0 2.765118,-1.73748 5.678852,-1.73748 2.913735,0 10.556257,3.51806 12.71644,4.87445 2.160182,1.35639 2.662549,1.80853 2.662549,1.80853 0,0 1.456868,1.05497 -2.210419,0.50236 -3.667286,-0.5526 -8.942152,-4.87297 -13.262517,-4.77249 -4.320365,0.10047 -5.726996,0.95449 -5.726996,0.95449 z"
       id="path7"
       sodipodi:nodetypes="csscsscc" /><path
       style="opacity:1;fill:#111b09;fill-opacity:1;stroke-width:2.117;stroke-linejoin:round;stroke-miterlimit:3.1;paint-order:markers stroke fill"
       d="m 64.580425,117.50938 c 0,0 5.825736,-5.39947 11.296245,-2.41555 5.470509,2.98391 9.804289,5.82573 15.701074,4.61796 5.896781,-1.20778 8.525466,-5.04424 8.525466,-5.04424 0,0 1.27882,-1.98927 1.563,-1.27882 0.28419,0.71046 0.35523,0.9236 0.35523,0.9236 0,0 -3.131919,6.58502 -11.012061,7.10455 -4.895982,0.32279 -5.825739,-0.21313 -9.378016,-1.98927 -3.552279,-1.77614 -8.667559,-3.55228 -11.367291,-2.84183 -2.699732,0.71046 -3.126007,1.56301 -3.836461,1.63405 -0.710456,0.071 -1.847186,-0.71045 -1.847186,-0.71045 z"
       id="path8"
       sodipodi:nodetypes="csscscssscc" /></g></svg>
