<?xml version="1.0" encoding="UTF-8" standalone="no"?>
<!-- Created with Inkscape (http://www.inkscape.org/) -->

<svg
   width="33.581505mm"
   height="30.03137mm"
   viewBox="0 0 33.581505 30.03137"
   version="1.1"
   id="svg1"
   inkscape:version="1.3 (0e150ed6c4, 2023-07-21)"
   sodipodi:docname="leg_right.svg"
   xmlns:inkscape="http://www.inkscape.org/namespaces/inkscape"
   xmlns:sodipodi="http://sodipodi.sourceforge.net/DTD/sodipodi-0.dtd"
   xmlns="http://www.w3.org/2000/svg"
   xmlns:svg="http://www.w3.org/2000/svg">
  <sodipodi:namedview
     id="namedview1"
     pagecolor="#ffffff"
     bordercolor="#000000"
     borderopacity="0.25"
     inkscape:showpageshadow="2"
     inkscape:pageopacity="0.0"
     inkscape:pagecheckerboard="0"
     inkscape:deskcolor="#d1d1d1"
     inkscape:document-units="mm"
     inkscape:zoom="1.3166807"
     inkscape:cx="-32.65788"
     inkscape:cy="-44.429906"
     inkscape:window-width="1920"
     inkscape:window-height="974"
     inkscape:window-x="-11"
     inkscape:window-y="-11"
     inkscape:window-maximized="1"
     inkscape:current-layer="layer1" />
  <defs
     id="defs1">
    <pattern
       id="EMFhbasepattern"
       patternUnits="userSpaceOnUse"
       width="6"
       height="6"
       x="0"
       y="0" />
  </defs>
  <g
     inkscape:label="Layer 1"
     inkscape:groupmode="layer"
     id="layer1"
     transform="translate(-124.6356,-132.26228)">
    <path
       style="opacity:1;fill:#4e5672;fill-opacity:1;stroke-width:2.117;stroke-linejoin:round;stroke-miterlimit:3.1;paint-order:markers stroke fill"
       d="m 145.82104,139.10723 c 0,0 3.01943,-1.20777 5.1508,-1.10121 2.13137,0.10657 3.48123,-0.35522 3.51676,-0.17761 0.0355,0.17761 2.73525,3.09048 2.73525,3.09048 0,0 -1.91823,6.78485 -2.66421,6.89142 -0.74598,0.10657 -1.49196,0.10657 -1.49196,0.10657 0,0 -1.63404,6.67829 -3.23257,7.35322 -1.59852,0.67493 -7.85053,5.64812 -10.97654,5.9323 -3.126,0.28419 -7.03351,-2.52211 -6.8559,-4.689 0.17762,-2.16689 2.87735,-5.75469 2.87735,-5.75469 0,0 -1.20778,-3.09049 0.21314,-3.87199 1.42091,-0.7815 7.10455,0.56837 7.10455,0.56837 0,0 2.30898,-1.27882 3.2681,-3.23258 0.95911,-1.95375 0.35523,-5.11528 0.35523,-5.11528 z"
       id="path12" />
    <path
       style="opacity:1;fill:#555842;fill-opacity:1;stroke-width:2.117;stroke-linejoin:round;stroke-miterlimit:3.1;paint-order:markers stroke fill"
       d="m 124.86259,133.03283 c 0.0355,0.42628 1.10121,6.99799 2.62869,9.94638 1.52748,2.94839 1.63405,3.80094 3.76541,4.68901 2.13137,0.88807 3.30362,1.17225 3.30362,1.17225 0,0 -0.92359,-1.77614 1.52748,-2.3445 2.45108,-0.56837 6.21649,1.27882 6.21649,1.27882 0,0 3.51676,-1.84719 3.76542,-4.58244 0.24866,-2.73525 -0.28418,-4.68901 -0.28418,-4.68901 l -0.35523,-0.21313 c 0,0 -6.74933,0.67493 -8.66756,-0.28419 -1.91823,-0.95911 -4.90215,-4.12064 -4.90215,-4.12064 0,0 -3.126,-1.95375 -4.76005,-1.17225 -1.63405,0.7815 -1.70509,0.74598 -1.70509,0.74598 0,0 0.35522,-0.92359 -0.071,-0.92359 -0.42627,0 -0.4618,0.49731 -0.4618,0.49731 z"
       id="path10" />
    <path
       style="opacity:1;fill:#323427;fill-opacity:1;stroke-width:2.117;stroke-linejoin:round;stroke-miterlimit:3.1;paint-order:markers stroke fill"
       d="m 132.57493,135.43843 c 0,0 -5.31455,-0.66498 -4.85275,1.21773 0.46179,1.88271 0.94135,1.88271 -0.12433,1.72285 -1.06569,-0.15985 -1.61629,-0.51508 -1.61629,-0.51508 0,0 -0.19537,1.52748 0.12433,1.63405 0.31971,0.10657 4.33378,0.81703 6.64276,1.34987 2.30898,0.53284 11.86461,4.22721 11.86461,4.22721 0,0 1.56301,-1.81166 1.38539,-3.33914 -0.17761,-1.52748 -0.10657,-2.8063 -0.10657,-2.8063 l -0.60388,-0.99464 c 0,0 -3.62333,1.74062 -6.67829,0.17761 -3.05496,-1.563 -6.03498,-2.67416 -6.03498,-2.67416 z"
       id="path11" />
    <path
       style="opacity:1;fill:#919bc2;fill-opacity:1;stroke-width:2.117;stroke-linejoin:round;stroke-miterlimit:3.1;paint-order:markers stroke fill"
       d="m 135.48867,153.72463 c 0.0251,0.0628 0.18838,0.41445 0.52748,0.47725 0.3391,0.0628 0.36422,-0.22607 0.70332,-0.18839 0.33909,0.0377 3.00165,0.0377 3.1398,0.35166 0.13815,0.31398 0.25118,1.36895 -0.76611,1.79596 -1.0173,0.42701 -2.38625,0.37678 -2.07227,1.00474 0.31398,0.62796 0.82891,0.57772 0.54004,0.91682 -0.28886,0.3391 -1.05497,0.79123 -1.88388,0.41445 -0.8289,-0.37677 -0.45213,-0.71587 -0.74099,-0.96705 -0.28886,-0.25119 -1.26848,-1.46943 -0.72843,-2.44905 0.54004,-0.97962 1.11777,-1.50711 1.20568,-1.49455 0.0879,0.0126 0.0754,0.13816 0.0754,0.13816 z"
       id="path13" />
    <path
       style="opacity:1;fill:#919bc2;fill-opacity:1;stroke-width:2.117;stroke-linejoin:round;stroke-miterlimit:3.1;paint-order:markers stroke fill"
       d="m 153.51112,140.72585 c 0,0 -3.00165,-0.41445 -3.74264,0.21351 -0.741,0.62796 -0.66564,1.2308 -0.0377,1.16801 0.62796,-0.0628 2.32345,-0.0754 2.93885,0.17582 0.6154,0.25119 1.46943,0.1256 1.48199,-0.66563 0.0126,-0.79123 -0.64052,-0.89171 -0.64052,-0.89171 z"
       id="path14" />
  </g>
  <g
     inkscape:label="Layer 1"
     inkscape:groupmode="layer"
     id="g5"
     transform="translate(-124.6356,-132.26228)">
    <path
       style="opacity:1;fill:#111b09;fill-opacity:1;stroke-width:2.117;stroke-linejoin:round;stroke-miterlimit:3.1;paint-order:markers stroke fill"
       d="m 124.63752,132.57493 c 0,0 -0.10048,9.94689 3.9687,14.01607 4.06918,4.06918 5.727,2.4616 5.727,2.4616 l 0.0502,-0.80378 c 0,0 -3.8236,-0.31563 -5.72448,-4.06771 -2.07392,-4.09363 -4.09376,-13.77509 -4.02146,-11.60618 z"
       id="path5"
       sodipodi:nodetypes="csccscc" />
    <path
       style="opacity:1;fill:#111b09;fill-opacity:1;stroke-width:2.117;stroke-linejoin:round;stroke-miterlimit:3.1;paint-order:markers stroke fill"
       d="m 130.96735,133.78061 c 1.15261,4.40002 8.63682,5.29993 9.20556,5.36214 2.27346,0.24866 6.26977,-0.83478 5.61261,-1.22553 -0.65718,-0.39075 -0.9236,-0.49732 -1.4742,-0.30195 -0.55061,0.19538 -0.72822,0.56837 -2.89511,0.4618 -2.16689,-0.10657 -6.10992,-1.70509 -7.42426,-2.55764 -1.31434,-0.85255 -0.88953,-1.06062 -1.79379,-1.46251 -0.90427,-0.4019 -1.23081,-0.27631 -1.23081,-0.27631 z"
       id="path6"
       sodipodi:nodetypes="cssssssc" />
    <path
       style="opacity:1;fill:#111b09;fill-opacity:1;stroke-width:2.117;stroke-linejoin:round;stroke-miterlimit:3.1;paint-order:markers stroke fill"
       d="m 141.38069,147.1709 c 0,0 3.55228,-1.8827 4.15616,-4.79557 0.60389,-2.91287 -0.21313,-4.26274 -0.21313,-4.26274 l 0.3197,-0.14209 c 0,0 1.63405,1.98928 1.03016,4.90215 -0.60388,2.91287 -2.59316,4.90214 -3.94303,5.86126 -1.34986,0.95911 -1.34986,-1.56301 -1.34986,-1.56301 z"
       id="path7" />
    <path
       id="path8"
       style="opacity:1;fill:#111b09;fill-opacity:1;stroke-width:2.117;stroke-linejoin:round;stroke-miterlimit:3.1;paint-order:markers stroke fill"
       d="m 137.15649,145.31464 c -1.18134,-0.0134 -2.15466,0.34773 -2.80913,1.64331 -0.67494,1.63404 -0.85295,3.16124 0.85214,4.44004 2.55213,1.91409 6.15954,1.15504 7.21145,-2.16679 0.67492,-2.13136 0.0356,-2.77089 -0.78135,-2.77089 -0.81702,0 -2.6742,-0.96654 -3.62355,-1.08314 -0.29341,-0.036 -0.57695,-0.0594 -0.84956,-0.0625 z m -0.53279,1.53118 c 0.25306,0.009 0.58533,0.16053 1.13371,0.44916 0.67493,0.35521 1.61601,0.55086 2.71722,0.63966 1.1012,0.0888 -0.0531,3.35673 -2.69958,3.03702 -2.64648,-0.3197 -2.62878,-2.96622 -2.62878,-2.96622 1.04028,-0.44598 0.67873,-0.67799 1.29656,-1.10071 0.0633,-0.0433 0.12247,-0.0611 0.18087,-0.0589 z"
       sodipodi:nodetypes="scssssssssscssss" />
    <path
       style="opacity:1;fill:#111b09;fill-opacity:1;stroke-width:2.117;stroke-linejoin:round;stroke-miterlimit:3.1;paint-order:markers stroke fill"
       d="m 134.63136,150.26138 c 0,0 -7.88606,7.45979 -0.49732,11.08311 7.38874,3.62333 15.20375,-4.08511 17.2996,-7.06903 2.09584,-2.98391 2.06032,-5.6126 2.06032,-5.6126 0,0 0.3197,0.21314 0.92359,-0.0355 0.60389,-0.24866 0.42627,-0.71046 0.42627,-0.71046 0,0 0.17762,0.17761 0.56837,0.0711 0.39075,-0.10657 2.23794,-3.01944 2.48659,-4.8311 0.24866,-1.81166 0.62346,-4.5786 -0.11753,-4.81723 -0.74099,-0.23862 -0.84147,-0.36421 -1.20569,-0.22606 -0.36421,0.13815 -0.41445,0.22606 -0.40189,0.28886 0.0126,0.0628 0.0126,-1.00473 -3.10212,-1.15545 -3.11469,-0.15071 -5.3251,0.4019 -6.20425,0.85403 -0.87914,0.45213 -1.15544,1.28104 -0.67819,1.33128 0.47725,0.0502 6.70661,-1.83365 8.43978,-0.55261 1.73317,1.28104 1.95923,1.6327 1.33128,4.04406 -0.62797,2.41137 -1.65782,4.24501 -1.65782,4.24501 0,0 -0.90426,-1.15544 -1.85876,-0.67819 -0.9545,0.47725 -0.92938,0.75355 -0.80379,1.08009 0.12559,0.32654 0.50237,0.6782 0.35166,1.00473 -0.15071,0.32654 -1.58246,7.9123 -9.8213,10.17296 -8.23884,2.26065 -10.80091,-1.30616 -9.09286,-4.2199 1.70805,-2.91373 2.41137,-3.61705 2.41137,-3.61705 z"
       id="path9" />
  </g>
</svg>
