<?xml version="1.0" encoding="UTF-8" standalone="no"?>
<!-- Created with Inkscape (http://www.inkscape.org/) -->

<svg
   width="33.536911mm"
   height="36.852722mm"
   viewBox="0 0 33.536911 36.852722"
   version="1.1"
   id="svg1"
   inkscape:version="1.3 (0e150ed6c4, 2023-07-21)"
   sodipodi:docname="torso.svg"
   xmlns:inkscape="http://www.inkscape.org/namespaces/inkscape"
   xmlns:sodipodi="http://sodipodi.sourceforge.net/DTD/sodipodi-0.dtd"
   xmlns="http://www.w3.org/2000/svg"
   xmlns:svg="http://www.w3.org/2000/svg">
  <sodipodi:namedview
     id="namedview1"
     pagecolor="#ffffff"
     bordercolor="#000000"
     borderopacity="0.25"
     inkscape:showpageshadow="2"
     inkscape:pageopacity="0.0"
     inkscape:pagecheckerboard="0"
     inkscape:deskcolor="#d1d1d1"
     inkscape:document-units="mm"
     inkscape:zoom="1.8620677"
     inkscape:cx="20.944459"
     inkscape:cy="160.30566"
     inkscape:window-width="1920"
     inkscape:window-height="974"
     inkscape:window-x="-11"
     inkscape:window-y="-11"
     inkscape:window-maximized="1"
     inkscape:current-layer="layer3" />
  <defs
     id="defs1">
    <pattern
       id="EMFhbasepattern"
       patternUnits="userSpaceOnUse"
       width="6"
       height="6"
       x="0"
       y="0" />
  </defs>
  <g
     inkscape:groupmode="layer"
     id="layer4"
     inkscape:label="Layer 3"
     transform="translate(-52.773765,-132.18814)">
    <path
       style="opacity:1;fill:#ec5f44;fill-opacity:1;stroke-width:2.117;stroke-linejoin:round;stroke-miterlimit:3.1;paint-order:markers stroke fill"
       d="m 53.106565,142.05562 c 0.177615,0.31971 0.532842,3.87198 1.953752,4.12065 1.420914,0.24865 2.308982,-0.17762 4.33378,-1.66958 2.024801,-1.49195 4.241928,-10.1219 4.241928,-10.1219 0,0 0.0036,-0.54503 -3.655278,1.40872 -3.658846,1.95375 -6.874182,6.26211 -6.874182,6.26211 z"
       id="path2"
       sodipodi:nodetypes="csscsc" />
    <path
       style="opacity:1;fill:#edd2b8;fill-opacity:1;stroke-width:2.117;stroke-linejoin:round;stroke-miterlimit:3.1;paint-order:markers stroke fill"
       d="m 54.858591,146.49053 c 0,0 1.456867,0.85402 4.069183,-0.70332 2.612314,-1.55734 4.923206,-9.39428 4.923206,-9.39428 0,0 7.520391,5.39827 9.509668,7.17441 1.989275,1.77614 8.768034,11.02782 8.768034,11.02782 l 2.41555,5.43499 c 0,0 1.420911,0.99464 1.243296,2.77078 -0.177612,1.77614 -2.273459,3.37466 -2.664209,3.51675 -0.39075,0.1421 -4.049596,2.55764 -8.951743,1.77614 -4.902144,-0.7815 -8.028149,-2.98391 -8.028149,-2.98391 0,0 -1.77614,0.071 -3.126004,-0.56837 -1.349867,-0.63941 -5.186328,-1.63404 -6.74933,-5.68364 -1.563002,-4.0496 -1.989275,-9.44906 -1.989275,-9.44906 0,0 0.235958,-3.13689 0.579773,-2.91831 z"
       id="path3"
       sodipodi:nodetypes="cscsccssscsscc" />
    <path
       style="opacity:1;fill:#fffff0;fill-opacity:1;stroke-width:2.117;stroke-linejoin:round;stroke-miterlimit:3.1;paint-order:markers stroke fill"
       d="m 54.545237,150.93632 c 0,0 0.51508,0.2309 1.669571,0.12433 1.154491,-0.10657 1.758379,-1.66957 1.971517,-1.08345 0.213135,0.58613 0.497318,2.77078 0.372988,4.17393 -0.12433,1.40315 -1.491956,6.53619 -1.491956,6.53619 0,0 -2.308982,-2.73525 -2.308982,-5.23961 0,-2.50435 -0.213138,-4.51139 -0.213138,-4.51139 z"
       id="path4" />
    <path
       style="opacity:1;fill:#fffff0;fill-opacity:1;stroke-width:2.117;stroke-linejoin:round;stroke-miterlimit:3.1;paint-order:markers stroke fill"
       d="m 63.022074,145.10901 c 0,0 -0.47725,0.82891 -0.854027,1.30616 -0.376775,0.47725 -1.155446,0.9545 -1.155446,1.20568 0,0.25119 2.03459,6.30472 2.084827,6.85733 0.05024,0.5526 0.351657,-0.32654 1.381514,-0.62796 1.029853,-0.30142 2.48672,0.42701 2.913734,2.48672 0.427011,2.05971 0.301419,5.92794 0.954498,6.35496 0.653079,0.42701 2.788144,1.45686 5.350221,1.30615 2.562077,-0.15071 3.315629,-0.77867 3.843115,-0.87914 0.527487,-0.10047 1.381512,-0.17583 1.557341,-0.80379 0.175828,-0.62796 -0.05024,-0.50237 -0.452131,-0.50237 -0.401894,0 -1.180565,-0.47725 -1.632696,-0.22606 -0.452131,0.25118 -0.47725,0.42701 -1.758289,0.0753 -1.281038,-0.35166 -3.290511,-2.05971 -2.863498,-2.08482 0.427014,-0.0251 -0.351657,0.17582 2.210419,-0.1256 2.562077,-0.30142 4.24501,-0.80379 5.048801,-2.1853 0.803788,-1.38151 1.155446,-2.28577 0.45213,-2.05971 -0.703315,0.22607 -7.912298,0.22607 -9.921769,-0.62796 -2.009473,-0.85402 -4.772496,-2.71278 -5.526048,-5.27486 -0.753554,-2.56208 -0.653078,-5.17439 -1.306157,-4.82274 -0.653079,0.35166 -0.326539,0.62796 -0.326539,0.62796 z"
       id="path5" />
  </g>
  <g
     inkscape:groupmode="layer"
     id="layer3"
     inkscape:label="Layer 2"
     transform="translate(-52.773765,-132.18814)">
    <path
       style="opacity:1;fill:#111b09;fill-opacity:1;stroke-width:2.117;stroke-linejoin:round;stroke-miterlimit:3.1;paint-order:markers stroke fill"
       d="m 52.773765,141.59244 c 0,0 0.200948,4.34548 1.934117,5.07392 1.733169,0.72843 2.03459,0.92938 3.742642,0.0502 1.708052,-0.87914 3.315629,-2.58719 4.295246,-4.21989 0.979617,-1.6327 2.160183,-4.67202 2.05971,-6.63126 -0.100473,-1.95923 -1.004737,-3.96871 -1.331275,-3.64217 -0.326541,0.32654 -1.255922,1.65782 -1.080093,2.51184 0.175829,0.85403 -0.288967,6.89215 -4.119417,9.64547 -4.032142,2.89829 -4.822735,-2.08483 -4.923207,-2.23554 -0.100473,-0.15071 0.175828,-0.90426 -0.15071,-0.90426 -0.326541,0 -0.427013,0.35166 -0.427013,0.35166 z"
       id="path6"
       sodipodi:nodetypes="cscssssssscc" />
    <path
       style="opacity:1;fill:#111b09;fill-opacity:1;stroke-width:2.117;stroke-linejoin:round;stroke-miterlimit:3.1;paint-order:markers stroke fill"
       d="m 60.637395,150.72318 c 0,0 -0.15985,1.88271 0.639411,2.29122 0.799264,0.40851 1.118968,-1.03016 1.278821,-1.43867 0.159851,-0.40851 0.372989,-1.19002 -0.497319,-1.20778 -0.870309,-0.0178 -1.420913,0.35523 -1.420913,0.35523 z"
       id="path7" />
    <path
       style="opacity:1;fill:#111b09;fill-opacity:1;stroke-width:2.117;stroke-linejoin:round;stroke-miterlimit:3.1;paint-order:markers stroke fill"
       d="m 62.946377,155.09249 c 0,0 -1.065683,-0.071 -1.332106,0.7815 -0.266419,0.85254 0.568365,1.91823 1.065684,1.6518 0.497321,-0.26641 0.550603,-0.7815 0.745979,-1.1012 0.195377,-0.31971 -0.159853,-1.22554 -0.479557,-1.3321 z"
       id="path8" />
    <path
       style="opacity:1;fill:#111b09;fill-opacity:1;stroke-width:2.117;stroke-linejoin:round;stroke-miterlimit:3.1;paint-order:markers stroke fill"
       d="m 59.536189,151.75334 c 0,0 0.532842,4.47587 1.740617,6.60724 1.207775,2.13137 1.634048,2.94839 0.959115,2.87735 -0.674931,-0.0711 -1.882707,0.14209 -2.380025,-1.66958 -0.497319,-1.81166 -1.207776,-7.31769 -1.030161,-7.70844 0.177612,-0.39075 0.710454,-0.10657 0.710454,-0.10657 z"
       id="path9" />
    <path
       style="opacity:1;fill:#111b09;fill-opacity:1;stroke-width:2.117;stroke-linejoin:round;stroke-miterlimit:3.1;paint-order:markers stroke fill"
       d="m 55.45107,146.21179 c 0,0 -1.598525,9.44906 1.598525,12.85925 3.197051,3.41018 6.962466,4.97319 6.962466,4.97319 0,0 -0.437383,-0.54854 -0.01037,-0.79973 2.049574,-1.20562 1.81428,1.62438 5.325102,2.76302 9.032304,3.78265 17.5914,-0.67879 15.724118,-5.14927 -0.41887,-1.00282 -1.004736,-1.58246 -1.004736,-1.58246 0,0 1.682935,0.22607 2.135065,2.16019 0.452131,1.93411 -0.351657,3.66728 -1.306157,4.67202 -4.477201,4.71287 -12.164571,2.92838 -18.235959,0.32654 -2.595927,-0.61832 -4.619101,-1.52356 -6.857326,-2.81326 -6.475545,-1.33104 -6.220802,-13.26089 -5.752113,-18.21085 0.100473,0.0502 1.421384,0.80136 1.421385,0.80136 z"
       id="path10"
       sodipodi:nodetypes="cscssscsscssc" />
    <path
       style="opacity:1;fill:#111b09;fill-opacity:1;stroke-width:2.117;stroke-linejoin:round;stroke-miterlimit:3.1;paint-order:markers stroke fill"
       d="m 64.225198,137.61527 c 6.536193,5.18633 15.345844,12.64612 17.548257,17.54826 2.202412,4.90215 2.770777,4.33378 2.770777,4.33378 -1.512682,-9.00465 -11.875318,-19.14275 -19.750669,-23.16085 -0.710457,-0.21314 -1.491959,-1.91824 -1.491959,-1.91824 z"
       id="path11"
       sodipodi:nodetypes="cscscc" />
  </g>
</svg>
