<?xml version="1.0" encoding="UTF-8" standalone="no"?>
<!-- Created with Inkscape (http://www.inkscape.org/) -->

<svg
   width="45.416584mm"
   height="150.84752mm"
   viewBox="0 0 45.416584 150.84752"
   version="1.1"
   id="svg1"
   inkscape:version="1.3 (0e150ed6c4, 2023-07-21)"
   sodipodi:docname="bar.svg"
   xmlns:inkscape="http://www.inkscape.org/namespaces/inkscape"
   xmlns:sodipodi="http://sodipodi.sourceforge.net/DTD/sodipodi-0.dtd"
   xmlns="http://www.w3.org/2000/svg"
   xmlns:svg="http://www.w3.org/2000/svg">
  <sodipodi:namedview
     id="namedview1"
     pagecolor="#ffffff"
     bordercolor="#000000"
     borderopacity="0.25"
     inkscape:showpageshadow="2"
     inkscape:pageopacity="0.0"
     inkscape:pagecheckerboard="0"
     inkscape:deskcolor="#d1d1d1"
     inkscape:document-units="mm"
     inkscape:zoom="0.46551692"
     inkscape:cx="-212.66681"
     inkscape:cy="110.6297"
     inkscape:window-width="1920"
     inkscape:window-height="974"
     inkscape:window-x="-11"
     inkscape:window-y="-11"
     inkscape:window-maximized="1"
     inkscape:current-layer="svg1" />
  <defs
     id="defs1">
    <pattern
       id="EMFhbasepattern"
       patternUnits="userSpaceOnUse"
       width="6"
       height="6"
       x="0"
       y="0" />
    <pattern
       id="EMFhbasepattern-7"
       patternUnits="userSpaceOnUse"
       width="6"
       height="6"
       x="0"
       y="0" />
    <pattern
       id="EMFhbasepattern-4"
       patternUnits="userSpaceOnUse"
       width="6"
       height="6"
       x="0"
       y="0" />
  </defs>
  <g
     inkscape:label="Layer 1"
     inkscape:groupmode="layer"
     id="layer1"
     transform="translate(-81.420662,-73.230223)">
    <path
       style="opacity:1;fill:#f9f7ef;fill-opacity:1;stroke-width:2.117;stroke-linejoin:round;stroke-miterlimit:3.1;paint-order:markers stroke fill"
       d="m 83.192151,222.75 c 0,0 22.239479,-2.935 27.709989,-3.92964 5.47051,-0.99464 15.20375,-5.68364 15.20375,-5.68364 l -3.32714,-2.21749 -0.41445,-1.62014 c 0,0 -0.30801,-45.32591 -0.4501,-49.58864 -0.14209,-4.26274 -0.0899,-29.99902 -0.14018,-32.66157 -0.0502,-2.66255 0.80379,-23.05869 0.60284,-25.72124 -0.20095,-2.662553 0.35166,-14.417967 0.35166,-14.417967 0,0 0.28689,-12.391749 0.0649,-12.498315 -0.22202,-0.106569 -2.14025,-0.248661 -2.14025,-0.248661 l -38.879685,8.321212 c 0,0 -0.691251,136.548561 -0.138644,139.010171 0.552603,2.4616 1.55734,1.25592 1.55734,1.25592 z"
       id="path9" />
    <path
       style="opacity:1;fill:#111b09;fill-opacity:1;stroke-width:2.117;stroke-linejoin:round;stroke-miterlimit:3.1;paint-order:markers stroke fill"
       d="m 82.199728,224.07774 c 0,0 16.766754,-2.06033 22.734582,-3.2681 5.96783,-1.20778 21.51173,-5.54493 21.81315,-6.5999 0.30142,-1.05497 -0.40189,-2.21042 -1.55734,-2.71279 -1.15545,-0.50236 -2.41137,-1.00473 -2.41137,-1.00473 0,0 0.84055,-14.12226 0.84055,-17.81663 0,-3.69437 -0.71046,-44.47453 -0.71046,-47.88471 0,-3.41019 0,-49.376675 0.14209,-53.49732 0.14209,-4.120642 0.0355,-16.926607 0.0355,-16.926607 l -0.56836,0.07104 c 0,0 0.24866,0.284181 0.24866,0.355227 0,0.07105 -0.21314,4.014076 -0.21314,4.653487 0,0.63941 -1.03078,28.210773 -1.03078,30.119763 0,1.909 -0.0502,23.91271 -0.20094,28.33355 -0.15072,4.42084 -0.30142,28.3838 -0.30142,28.3838 0,0 0.25118,31.79991 0.25118,33.45771 0,1.65781 0.80379,11.25305 1.55734,11.6047 0.75355,0.35167 3.26539,1.65782 2.56208,1.80853 -0.70332,0.15071 -1.909,0.85402 -5.12416,1.80852 -3.21515,0.9545 -20.09265,4.70962 -27.339302,5.42007 -7.246649,0.71046 -10.087115,0.006 -10.589482,0.93489 -0.50237,0.92938 -0.138398,2.75949 -0.138398,2.75949 z"
       id="path3" />
    <path
       style="opacity:1;fill:#111b09;fill-opacity:1;stroke-width:2.117;stroke-linejoin:round;stroke-miterlimit:3.1;paint-order:markers stroke fill"
       d="m 82.910182,81.134044 c 0,0 -1.420911,2.628686 -0.497319,2.912867 0.923594,0.284184 40.158507,-9.34249 40.371647,-9.413536 0.21314,-0.07105 0.51508,-0.195377 0.2309,-0.515081 -0.28418,-0.319706 -0.12433,-0.195376 -0.24866,-0.444037 -0.12433,-0.248658 -0.2309,-0.444034 -0.51508,-0.444034 -0.28418,0 -21.67759,3.983747 -23.536347,4.285168 -1.858761,0.301421 -15.805141,3.618653 -15.805141,3.618653 z"
       id="path4" />
    <path
       style="opacity:1;fill:#111b09;fill-opacity:1;stroke-width:2.117;stroke-linejoin:round;stroke-miterlimit:3.1;paint-order:markers stroke fill"
       d="m 89.120093,131.41948 c 0,0 0,34.96482 0,40.69182 0,5.72699 1.004736,13.56394 0.602842,16.57814 -0.401894,3.01421 -0.401894,12.15731 -0.401894,14.8701 0,2.71279 0.803788,5.07391 0.803788,5.07391 0,0 -0.351658,-0.25118 0,0.35166 0.351658,0.60284 1.808525,1.65782 1.607579,1.75829 -0.200948,0.10047 -1.607579,0.75355 -0.753551,1.20569 0.854024,0.45213 8.389545,0.65307 16.126013,-0.60285 7.73647,-1.25592 8.43299,-4.21287 8.43299,-3.87541 0,0.33747 -0.26642,0.65717 0.14209,0.42628 0.40852,-0.2309 0.9236,-1.77614 1.10121,-2.50436 0.17761,-0.72822 -0.12433,-6.3941 -0.30194,-9.52011 -0.17762,-3.126 0.67493,-16.23391 0.67493,-20.85187 0,-4.61796 -0.21314,-28.48928 -0.071,-31.26006 0.14209,-2.77077 -0.88807,-12.57506 -0.63941,-14.74195 0.24866,-2.16689 -0.0355,-8.20576 -0.0355,-10.72788 0,-2.52212 0.071,-11.58043 0.10657,-13.21448 0.0355,-1.63405 0.0355,-10.58579 -0.14209,-12.326404 -0.17762,-1.740617 -1.31435,-3.16153 -1.91823,-3.445711 -0.60389,-0.284184 -6.03888,-0.532842 -8.27681,-0.426273 -2.23794,0.106566 -12.965818,2.522117 -14.102548,3.481231 -1.136729,0.959115 -2.380027,2.699732 -2.522119,3.871984 -0.142089,1.172253 -0.03552,0.923592 -0.03552,2.202413 0,1.278821 0.284184,3.2681 0.106569,4.65349 -0.177612,1.38538 0,18.75603 -0.248658,20.81635 -0.248661,2.06032 -0.255238,7.516 -0.255238,7.516 z"
       id="path5" />
    <path
       style="opacity:1;fill:#fc2541;fill-opacity:1;stroke-width:2.117;stroke-linejoin:round;stroke-miterlimit:3.1;paint-order:markers stroke fill"
       d="m 112.2076,90.174592 c 0,0 1.42979,-0.01775 2.01592,0.461796 0.58612,0.47956 1.27882,1.882709 1.27882,3.197053 0,1.314341 0.0177,7.370979 0.0355,8.330089 0.0178,0.95912 -0.15985,1.81167 -0.19537,2.43331 -0.0355,0.62165 -0.30195,16.23392 -0.31971,16.9799 -0.0177,0.74598 0.0178,9.2892 0.0178,9.89309 0,0.60389 -0.0355,5.55932 0.0533,6.19873 0.0888,0.63941 0.12433,7.70844 0.17761,8.54323 0.0533,0.83478 -0.24866,9.09383 -0.19537,9.91086 0.0533,0.81702 -0.0533,9.04054 0,9.80428 0.0533,0.76374 -0.10657,16.18063 -0.10657,16.18063 0,0 0.0728,19.61834 0.12303,21.30127 0.0502,1.68293 0.42701,2.26065 -0.20095,3.03932 -0.62796,0.77867 -5.97818,2.61232 -11.00186,3.11468 -5.023683,0.50237 -8.690972,0.4019 -10.524613,-0.12558 -1.833645,-0.52749 -2.68767,-1.73318 -2.511841,-2.63744 0.175829,-0.90426 -0.05024,-10.32366 -0.05024,-12.8355 0,-2.51184 0.276301,-13.11181 0.477247,-15.12128 0.200949,-2.00947 0.175829,-13.06157 0.175829,-14.61891 0,-1.55734 -0.801955,-34.92118 -0.801955,-38.04718 0,-3.12601 -0.213135,-27.210458 0.213138,-29.483917 0.426273,-2.273459 1.995448,-3.277682 2.874592,-3.604223 0.879144,-0.326538 10.650213,-2.612313 12.458733,-3.014207 1.80853,-0.401894 6.00699,0.1 6.00699,0.1 z"
       id="path7" />
    <path
       id="path6"
       style="opacity:1;fill:#06e72f;fill-opacity:1;stroke-width:2.117;stroke-linejoin:round;stroke-miterlimit:3.1;paint-order:markers stroke fill"
       d="m 115.117,116.57428 c -2.09405,0.95941 -5.57878,2.42031 -8.91625,3.1905 -3.9685,0.91581 -11.932314,1.65215 -15.562355,1.95596 0.0066,1.24122 0.01602,3.99363 0.01602,4.45605 0,1.13692 0.156459,8.1143 0.291455,14.2658 4.447303,0.13137 12.01544,0.13343 15.9582,-0.58343 2.86647,-0.52118 5.90355,-1.65965 8.1809,-2.63911 -0.0665,-1.12876 -0.0444,-5.18966 -0.0444,-5.75004 0,-0.60389 -0.0353,-9.14747 -0.0176,-9.89345 0.005,-0.21977 0.0579,-2.96542 0.0941,-5.00228 z" />
    <path
       style="opacity:0.622385;fill:#ebedeb;fill-opacity:1;stroke-width:2.117;stroke-linejoin:round;stroke-miterlimit:3.1;paint-order:markers stroke fill"
       d="m 111.11528,93.851202 c 0,0 -9.16488,2.202411 -14.067028,4.902143 -4.902145,2.699725 -2.060323,27.068365 -1.705093,31.402145 0.355227,4.33378 -0.284184,31.189 1.491956,29.12868 1.77614,-2.06032 3.081427,-9.37001 3.791885,-14.13006 0.71045,-4.76005 -2.932172,-40.94068 0.28299,-42.95016 3.21515,-2.00947 10.91714,-3.337915 11.11809,-5.447861 0.20095,-2.109946 -0.9128,-2.904887 -0.9128,-2.904887 z"
       id="path8"
       sodipodi:nodetypes="cssssssc" />
  </g>
</svg>
