<?xml version="1.0" encoding="UTF-8" standalone="no"?>
<!-- Created with Inkscape (http://www.inkscape.org/) -->

<svg
   width="11.970563mm"
   height="26.983852mm"
   viewBox="0 0 11.970563 26.983853"
   version="1.1"
   id="svg1"
   inkscape:version="1.3 (0e150ed6c4, 2023-07-21)"
   sodipodi:docname="egg_phase_i.svg"
   xmlns:inkscape="http://www.inkscape.org/namespaces/inkscape"
   xmlns:sodipodi="http://sodipodi.sourceforge.net/DTD/sodipodi-0.dtd"
   xmlns="http://www.w3.org/2000/svg"
   xmlns:svg="http://www.w3.org/2000/svg">
  <sodipodi:namedview
     id="namedview1"
     pagecolor="#ffffff"
     bordercolor="#000000"
     borderopacity="0.25"
     inkscape:showpageshadow="2"
     inkscape:pageopacity="0.0"
     inkscape:pagecheckerboard="0"
     inkscape:deskcolor="#d1d1d1"
     inkscape:document-units="mm"
     inkscape:zoom="0.93103385"
     inkscape:cx="54.777815"
     inkscape:cy="28.462982"
     inkscape:window-width="1920"
     inkscape:window-height="974"
     inkscape:window-x="-11"
     inkscape:window-y="-11"
     inkscape:window-maximized="1"
     inkscape:current-layer="g17" />
  <defs
     id="defs1" />
  <g
     inkscape:groupmode="layer"
     id="layer27"
     inkscape:label="Egg Cracked"
     transform="translate(-138.9496,-115.72238)">
    <path
       style="opacity:1;fill:#ffe657;fill-opacity:1;stroke-width:2.117;stroke-linejoin:round;stroke-miterlimit:3.1;paint-order:markers stroke fill"
       d="m 148.60048,116.80057 c 0,0 1.20568,0.30142 -0.65308,2.00947 -1.85876,1.70806 -4.45839,8.96868 -3.71753,13.61418 0.42643,2.67393 3.66729,6.63126 4.47108,6.78197 0.80379,0.15071 0.20094,-0.55261 0.90426,0 0.70332,0.5526 0.85403,1.00473 0.85403,1.00473 l -0.9545,1.40664 c 0,0 -3.56682,-1.10521 -3.818,-1.10521 -0.25118,0 -1.20568,0.10047 -1.60758,0.10047 -0.40189,0 -0.20095,-2.21042 -0.9545,-3.36587 -0.75355,-1.15545 -0.70332,-1.80852 -0.70332,-1.80852 l -0.75355,-0.10048 -1.85876,-0.70331 c 0,0 2.66255,-2.16018 2.00947,-5.82747 -0.65307,-3.66729 -1.5071,-4.32037 -1.5071,-4.32037 0,0 1.65781,-1.30615 2.26066,-3.26539 0.60284,-1.95923 0.85402,-4.3706 1.15544,-4.3706 0.30143,0 0.70332,0.60284 2.76303,0.50237 2.05971,-0.10048 2.10995,-0.55261 2.10995,-0.55261 z"
       id="path9"
       sodipodi:nodetypes="cssssccssscccscsssc" />
    <path
       id="path3"
       style="opacity:1;fill:#111b09;fill-opacity:1;stroke-width:2.117;stroke-linejoin:round;stroke-miterlimit:3.1;paint-order:markers stroke fill"
       d="m 149.36705,115.72325 c -0.0347,0.002 -0.0729,0.01 -0.11369,0.0222 -0.65306,0.20095 -0.70298,1.10535 -2.96364,1.10535 -2.26065,0 -2.96401,-0.60279 -3.26543,-0.25114 -0.30142,0.35166 0.0503,1.95917 -0.95447,4.01887 -1.00473,2.05971 -2.91403,2.26052 -2.91403,3.81786 0,1.3857 0.24088,2.32969 1.24902,1.63711 0.62548,0.2729 1.30674,1.02218 0.76068,3.08508 -0.90427,3.4161 -3.06449,5.57673 -1.85881,6.12934 1.20568,0.5526 2.4618,-0.0507 2.96416,1.85829 0.50237,1.909 0.30102,5.32525 1.35599,5.32525 1.05497,0 1.75871,-1.05508 3.56723,-0.65319 1.80853,0.4019 2.96383,1.2061 3.11454,0.75396 0.0513,-0.15396 0.016,-0.44883 -0.13436,-0.77773 0.0506,-0.36708 0.16374,-0.99114 0.39067,-1.4211 0.33747,-0.63941 0.49729,-1.03029 0.19534,-0.99477 -0.30194,0.0355 -0.30231,0.12454 -0.30231,0.12454 0,0 -0.23098,-0.12445 -0.56844,0.58601 -0.15246,0.32096 -0.25692,0.64165 -0.32659,0.8971 -0.41075,-0.35881 -1.00634,-0.65489 -1.8402,-0.7369 -2.16689,-0.21314 -3.33882,-0.10697 -3.33882,-0.10697 0,0 0.0706,-3.62316 -1.20819,-4.4757 -1.27882,-0.85255 -2.20207,-0.31946 -2.23759,-1.02991 -0.0355,-0.71046 2.09594,-2.98411 1.66966,-6.21668 -0.22311,-1.69197 -0.84468,-2.60132 -1.38699,-3.08766 1.27806,-1.36744 2.72751,-3.71046 2.90887,-5.11597 0.20095,-1.55734 0.2005,-2.10995 0.2005,-2.10995 0,0 2.05967,0.40197 3.76773,-0.50229 1.6013,-0.84775 1.79,-1.91635 1.26917,-1.88102 z" />
  </g>
</svg>
