<?xml version="1.0" encoding="UTF-8" standalone="no"?>
<!-- Created with Inkscape (http://www.inkscape.org/) -->

<svg
   width="49.214493mm"
   height="35.06937mm"
   viewBox="0 0 49.214493 35.06937"
   version="1.1"
   id="svg1"
   inkscape:version="1.3 (0e150ed6c4, 2023-07-21)"
   sodipodi:docname="egg_bubble_top.svg"
   xmlns:inkscape="http://www.inkscape.org/namespaces/inkscape"
   xmlns:sodipodi="http://sodipodi.sourceforge.net/DTD/sodipodi-0.dtd"
   xmlns="http://www.w3.org/2000/svg"
   xmlns:svg="http://www.w3.org/2000/svg">
  <sodipodi:namedview
     id="namedview1"
     pagecolor="#ffffff"
     bordercolor="#000000"
     borderopacity="0.25"
     inkscape:showpageshadow="2"
     inkscape:pageopacity="0.0"
     inkscape:pagecheckerboard="0"
     inkscape:deskcolor="#d1d1d1"
     inkscape:document-units="mm"
     inkscape:zoom="2.6333614"
     inkscape:cx="106.70772"
     inkscape:cy="0.56961418"
     inkscape:window-width="1920"
     inkscape:window-height="974"
     inkscape:window-x="-11"
     inkscape:window-y="-11"
     inkscape:window-maximized="1"
     inkscape:current-layer="svg1" />
  <defs
     id="defs1">
    <pattern
       id="EMFhbasepattern"
       patternUnits="userSpaceOnUse"
       width="6"
       height="6"
       x="0"
       y="0" />
  </defs>
  <g
     inkscape:groupmode="layer"
     id="layer3"
     inkscape:label="Layer 2"
     transform="translate(-51.154838,-135.044)">
    <g
       inkscape:groupmode="layer"
       id="layer4"
       inkscape:label="F">
      <path
         style="opacity:1;fill:#f9f6ef;fill-opacity:1;stroke-width:2.117;stroke-linejoin:round;stroke-miterlimit:3.1;paint-order:markers stroke fill"
         d="m 92.686906,143.1749 c 0,0 5.224629,6.58102 5.425575,8.38954 0.200948,1.80853 1.406631,6.73174 1.406631,6.73174 0,0 -0.904261,4.06918 -1.10521,4.06918 -0.200946,0 -3.566813,3.9687 -4.672023,4.11941 -1.105209,0.15072 -3.968708,1.95924 -4.169653,1.95924 -0.200949,0 -6.078654,1.05497 -7.937415,0.65308 -1.858762,-0.4019 -7.183864,-0.9545 -7.183864,-0.9545 0,0 -7.560641,-2.63743 -8.414665,-3.91847 -0.854025,-1.28104 -2.888618,-3.19004 -3.365865,-3.39099 -0.47725,-0.20094 -1.858764,-2.05971 -1.858764,-2.05971 0,0 -6.003298,1.30616 -6.982915,0.77868 -0.979617,-0.52749 -1.607577,-1.55734 -1.55734,-1.73317 0.05024,-0.17583 7.485282,-5.62653 8.238836,-7.05827 0.753552,-1.43175 3.416102,-7.00804 6.25448,-9.24358 2.838381,-2.23554 8.590494,-3.26539 11.504229,-4.0943 2.913734,-0.82891 6.254482,-1.58246 8.339312,-0.80379 2.084826,0.77868 2.235536,1.13033 3.516574,2.21042 1.281039,1.0801 2.562077,4.34549 2.562077,4.34549 z"
         id="path24" />
      <path
         style="opacity:1;fill:#f0edd9;fill-opacity:1;stroke-width:2.117;stroke-linejoin:round;stroke-miterlimit:3.1;paint-order:markers stroke fill"
         d="m 91.481224,139.40714 c 0,0 0.9545,4.27013 0.9545,4.47107 0,0.20095 0.527407,2.26253 0.207703,2.63552 -0.319707,0.37299 -0.888071,0.76374 -0.888071,0.76374 l -3.087394,-3.17319 -0.276302,-0.12559 c 0,0 -4.044063,2.63743 -4.345485,2.26065 -0.301418,-0.37677 -0.527486,-3.76776 -0.527486,-3.76776 0,0 -4.872969,3.24028 -5.299983,3.4161 -0.427011,0.17583 -1.55734,0.71588 -1.607576,0.69076 -0.05024,-0.0251 -1.835666,-0.79292 -1.835666,-2.35593 0,-1.563 0.03552,-3.5878 0.03552,-3.5878 0,0 3.800938,-3.72989 6.465146,-4.15616 2.664212,-0.42628 8.028152,0.85254 8.028152,0.85254 z"
         id="path14" />
      <path
         style="opacity:1;fill:#d4cab4;fill-opacity:1;stroke-width:2.117;stroke-linejoin:round;stroke-miterlimit:3.1;paint-order:markers stroke fill"
         d="m 90.794751,139.07936 c 0,0 0,1.10121 -0.21314,1.81167 -0.21313,0.71045 -0.24866,1.45643 -0.47956,1.34986 -0.23089,-0.10656 -0.42627,-0.95911 -0.56836,-0.7815 -0.14209,0.17761 -2.11361,1.31434 -3.05496,1.42091 -0.94135,0.10657 -0.44403,0.33747 -2.39779,-0.12433 -1.95375,-0.46179 -1.31434,-2.23793 -1.86494,-1.97151 -0.55061,0.26642 -1.36763,0.62165 -1.52748,1.42091 -0.15986,0.79926 0.37299,1.03016 -0.19538,0.97688 -0.56836,-0.0533 -1.66957,-0.24866 -2.64645,-0.4618 -0.97687,-0.21314 -3.05496,-1.7939 -3.05496,-1.7939 0,0 0.95912,5.20409 1.95376,5.43499 0.99464,0.23089 6.03887,-3.67661 6.03887,-3.67661 0,0 1.54524,0.87031 1.45644,0.99464 -0.0888,0.12433 -0.15986,3.5878 0.12433,2.93062 0.28418,-0.65716 3.81869,-2.96615 4.28049,-2.75301 0.4618,0.21314 1.11897,0.60389 1.91823,1.22554 0.79926,0.62164 1.63405,2.14912 1.86495,1.68733 0.2309,-0.4618 1.08344,-1.84719 0.37299,-3.65885 -0.71046,-1.81166 -2.00704,-4.03184 -2.00704,-4.03184 z"
         id="path15" />
      <path
         style="opacity:1;fill:#f0edd9;fill-opacity:1;stroke-width:2.117;stroke-linejoin:round;stroke-miterlimit:3.1;paint-order:markers stroke fill"
         d="m 66.907168,148.48525 c 0,0 0.461796,2.09584 0.248658,2.71749 -0.213135,0.62165 -0.177612,1.75838 -0.106566,1.77614 0.07104,0.0178 3.694369,0.37299 3.712131,0.47956 0.01775,0.10656 0.248658,3.42794 0.603887,3.92526 0.355227,0.49732 4.635723,0.31971 4.6002,0.42628 -0.03552,0.10656 0.710456,3.21481 1.012399,3.96079 0.301945,0.74598 0.799264,1.1012 0.781502,1.563 -0.01775,0.4618 0.195376,1.10121 -0.03552,1.10121 -0.230899,0 -2.486594,0.46179 -3.818699,0.17761 -1.332106,-0.28418 -2.433312,-0.35523 -4.244973,-1.45643 -1.811663,-1.10121 -4.120644,-2.69973 -4.831098,-4.61797 -0.710457,-1.91823 -1.314344,-1.95375 -1.136729,-4.01407 0.177612,-2.06032 1.207772,-5.11528 1.207772,-5.11528 z"
         id="path16" />
      <path
         style="opacity:1;fill:#fcffed;fill-opacity:1;stroke-width:2.117;stroke-linejoin:round;stroke-miterlimit:3.1;paint-order:markers stroke fill"
         d="m 80.253297,146.8673 c 0,0 1.582459,1.15545 2.712788,1.05497 1.130329,-0.10047 5.651641,-1.75828 6.656377,-1.2308 1.004737,0.52749 1.733169,2.61232 1.733169,2.61232 0,0 -0.45213,2.43648 -0.276302,2.48672 0.175829,0.0502 3.290512,1.10521 3.089564,2.23554 -0.200949,1.13032 -0.678196,2.58719 -0.678196,2.58719 0,0 2.411365,-0.0502 2.135063,2.08483 -0.276302,2.13506 -1.507104,4.24501 -1.607577,4.24501 -0.100475,0 -2.637432,0.10047 -3.365867,-0.22607 -0.728433,-0.32654 -0.828908,-0.77867 -0.828908,-0.77867 0,0 -3.767759,3.08957 -5.576284,2.76303 -1.808525,-0.32654 -6.103774,-2.33601 -7.033154,-4.3706 -0.929381,-2.03459 -1.456868,-2.05971 -1.456868,-2.16019 0,-0.10047 1.230802,-3.34074 1.230802,-3.34074 0,0 -7.836939,-3.36587 -7.435045,-5.17439 0.401894,-1.80853 2.411365,-2.78815 2.411365,-2.78815 l 2.863498,-1.7834 c 0,0 0.226065,-0.42702 0.351657,-0.25119 0.125593,0.17583 0.703316,2.10995 1.381514,1.70805 0.678196,-0.40189 2.210419,-1.30615 2.411365,-1.2308 0.200949,0.0754 1.281039,1.55734 1.281039,1.55734 z"
         id="path20" />
      <path
         style="opacity:1;fill:#d4c9b3;fill-opacity:1;stroke-width:2.117;stroke-linejoin:round;stroke-miterlimit:3.1;paint-order:markers stroke fill"
         d="m 67.241964,153.42321 c 0,0 0.933824,4.549 1.40663,4.29525 0.722507,-0.38776 2.208911,-0.64576 2.260659,-0.55261 l 0.100473,-3.96871 h -3.541697 l -0.100473,0.32654 z"
         id="path17"
         sodipodi:nodetypes="csccccc" />
      <path
         style="opacity:1;fill:#d4c9b3;fill-opacity:1;stroke-width:2.117;stroke-linejoin:round;stroke-miterlimit:3.1;paint-order:markers stroke fill"
         d="m 71.756028,157.68565 c 0,0 2.788539,1.27882 2.68197,1.97151 -0.106568,0.6927 -0.213137,1.11897 -0.372988,1.15449 -0.159853,0.0355 -1.989278,0.62165 -3.054961,0.74598 -1.065684,0.12433 -3.019436,-0.19537 -2.877344,-0.15985 0.142089,0.0355 0.7815,1.72285 2.912867,2.36226 2.131367,0.63942 6.820376,0.71046 6.820376,0.71046 0,0 0.39075,-2.27346 0.07105,-2.41555 -0.319707,-0.14209 -1.527482,-1.77614 -1.77614,-1.91823 -0.248661,-0.14209 -0.532842,-1.91823 -0.532842,-1.91823 l -2.273459,-0.35523 z"
         id="path18" />
      <path
         style="opacity:1;fill:#ffe657;fill-opacity:1;stroke-width:2.117;stroke-linejoin:round;stroke-miterlimit:3.1;paint-order:markers stroke fill"
         d="m 80.920906,153.92023 c 0.213138,0.14209 3.161528,1.98928 4.724533,2.27346 1.563002,0.28418 4.085119,-0.14209 4.085119,-0.14209 0,0 0.461796,-1.31434 0.532841,-2.66421 0.07105,-1.34987 -1.190013,-3.41019 -1.190013,-3.41019 0,0 -1.190014,-0.63941 -2.735255,-0.51508 -1.545241,0.12433 -3.534516,0.67494 -3.534516,0.67494 0,0 -0.390752,-0.44404 -0.959117,-0.40852 -0.568362,0.0355 -2.68197,0.58613 -2.68197,1.10121 0,0.51508 -0.426273,1.68733 0.444037,2.41555 0.870307,0.72822 1.314341,0.67493 1.314341,0.67493 z"
         id="path19" />
      <path
         style="opacity:1;fill:#d0d3c0;fill-opacity:1;stroke-width:2.117;stroke-linejoin:round;stroke-miterlimit:3.1;paint-order:markers stroke fill"
         d="m 94.358602,162.05999 c 0,0 -0.3197,-0.85255 -1.13673,-0.99464 -0.81702,-0.14209 -1.24329,0.28419 -0.92359,-0.49731 0.31971,-0.78151 0.24866,-2.23794 -0.85255,-2.9484 -1.1012,-0.71045 -1.8827,0.35523 -1.8827,0.35523 0,0 -0.56837,2.77078 -0.0711,3.16153 0.49732,0.39075 2.59316,1.70509 3.51676,1.70509 0.92359,0 1.34986,-0.7815 1.34986,-0.7815 z"
         id="path21" />
      <path
         style="fill:#d0d3c0;fill-opacity:1;stroke-width:2.117;stroke-linejoin:round;stroke-miterlimit:3.1;paint-order:markers stroke fill"
         d="m 89.91025,155.89077 c 0,0 2.273216,-0.25118 2.386248,-1.28104 0.113033,-1.02985 -1.733169,-1.49454 -1.682932,-1.46942 0.05024,0.0251 -0.703316,2.75046 -0.703316,2.75046 z"
         id="path22" />
      <path
         style="opacity:1;fill:#d0d3c0;fill-opacity:1;stroke-width:2.117;stroke-linejoin:round;stroke-miterlimit:3.1;paint-order:markers stroke fill"
         d="m 80.352542,146.67358 c -0.177612,-0.10656 -5.861259,0.39075 -4.298257,3.09049 1.563002,2.69973 3.19705,2.27345 3.19705,2.27345 l 0.07105,-1.31434 c 0,0 1.278822,-1.13673 1.705094,-1.13673 0.426273,0 2.095844,0.17762 2.095844,0.17762 0,0 -0.106569,-0.35523 -0.142092,-0.95912 -0.03552,-0.60389 0.248661,-0.88807 0.106569,-0.88807 -0.142092,0 -2.735254,-1.2433 -2.735254,-1.2433 z"
         id="path23" />
    </g>
    <g
       inkscape:groupmode="layer"
       id="layer5"
       inkscape:label="O">
      <path
         id="path1"
         style="opacity:1;fill:#111b09;fill-opacity:1;stroke-width:2.117;stroke-linejoin:round;stroke-miterlimit:3.1;paint-order:markers stroke fill"
         d="m 79.405489,136.68055 c -5.195312,-0.0578 -8.037638,1.29118 -11.786877,2.87734 -4.408331,1.86501 -8.733089,10.88007 -8.037753,11.22774 0,0 -2.034708,1.63307 -2.763138,2.41174 -0.728435,0.77867 -5.048513,3.86779 -5.525761,4.4204 -0.477248,0.5526 0.351327,1.95961 1.557011,2.41174 1.205678,0.45213 4.822873,0.27627 6.154146,0.25115 0.854457,-0.0161 1.817406,-0.10848 2.401404,-0.46871 0.400527,0.60674 0.889351,1.34772 0.889351,1.34772 0,0 5.849025,9.12985 23.460584,8.33954 7.216285,-0.32381 14.674764,-4.57994 14.116451,-11.95637 -0.428457,-5.66078 -1.959208,-9.244 -3.767729,-12.00702 -0.78052,-1.19247 -2.294084,-2.88008 -4.30413,-4.45864 0.239365,0.64169 0.435632,1.25982 0.435632,1.57044 0,0.42581 0.02916,1.02522 0.09302,1.55701 3.671156,4.41287 7.467515,11.8104 5.774878,15.84964 -2.210415,5.27487 -5.942014,7.86848 -13.455546,8.32202 -14.300182,0.86318 -21.522928,-7.56461 -21.647258,-7.68894 -0.09904,-0.099 -0.764163,-1.43385 -1.080037,-2.07068 -0.104986,-0.79582 -0.605648,-0.72243 -0.605648,-0.72243 0,0 -1.783233,0.52778 -4.069002,0.80408 -2.285768,0.2763 -3.315819,-0.0759 -3.667477,-0.25166 -0.351656,-0.17583 -0.728597,-0.62764 -0.276469,-0.72812 0.452131,-0.10047 4.194856,-3.0142 5.124235,-3.64216 0.929378,-0.62796 3.089697,-2.0097 3.340882,-2.71301 0.251183,-0.70332 0.929299,-4.39571 3.441133,-6.45542 2.511836,-2.05971 5.877916,-5.35013 11.403955,-6.2544 0.123047,-0.0201 0.226493,-0.0316 0.346749,-0.0506 1.11697,-0.55873 2.468315,-1.23124 3.790983,-1.87586 -0.463397,-0.0246 -0.914182,-0.0417 -1.343587,-0.0465 z"
         sodipodi:nodetypes="cscssssccssscscsssccscsssssccc" />
      <path
         style="opacity:1;fill:#111b09;fill-opacity:1;stroke-width:2.117;stroke-linejoin:round;stroke-miterlimit:3.1;paint-order:markers stroke fill"
         d="m 74.420237,141.73592 c -0.532842,-0.28418 -1.705094,-0.39075 -0.710457,-2.13137 2.569675,-4.49693 12.829983,-6.23874 16.091824,-2.59316 2.41555,2.69973 2.522116,3.97855 2.770777,5.1508 0.248658,1.17225 0.426273,1.98928 0.426273,3.12601 0,1.13672 -0.568365,1.8827 -0.568365,1.8827 0,0 -0.426273,0.0355 -0.461796,-0.17761 -0.03552,-0.21314 0.639411,-0.60389 0.461796,-0.71046 -0.177615,-0.10656 0.07105,-7.28217 -4.689006,-8.52547 -6.246472,-1.63153 -8.725401,-0.27892 -12.752681,4.01408 l -0.142092,0.0355 z"
         id="path2"
         sodipodi:nodetypes="csssscsssccc" />
      <path
         style="opacity:1;fill:#111b09;fill-opacity:1;stroke-width:2.117;stroke-linejoin:round;stroke-miterlimit:3.1;paint-order:markers stroke fill"
         d="m 74.402475,141.52278 c 0,0 -0.799261,0.0533 -0.603887,0.58613 0.195376,0.53284 1.243298,3.51675 1.634048,4.15616 0.39075,0.63941 0.586126,1.13673 1.172252,1.06569 0.586126,-0.071 0.159854,-0.40852 -0.444034,-2.23794 -0.603888,-1.82942 -0.710457,-3.76541 -0.941353,-3.88975 -0.230899,-0.12433 -0.674934,0.31971 -0.674934,0.31971 z"
         id="path3" />
      <path
         style="opacity:1;fill:#111b09;fill-opacity:1;stroke-width:2.117;stroke-linejoin:round;stroke-miterlimit:3.1;paint-order:markers stroke fill"
         d="m 83.691684,141.62935 c -0.497319,0.33747 0.07105,0.0355 -0.728218,0.49732 -0.799261,0.46179 -3.143766,2.22017 -4.511392,2.91287 -1.367628,0.69269 -0.923594,1.06568 -1.491959,0.95911 -0.568364,-0.10657 -0.870307,-0.28418 -0.817023,-0.10657 0.05329,0.17762 0.301943,0.62165 0.408512,0.83479 0.106569,0.21314 -0.177615,0.83478 0.497319,0.49732 0.674933,-0.33747 -0.08881,-0.35523 0.390752,-0.65717 0.479557,-0.30195 1.9238,-1.02459 3.096052,-1.68176 1.172253,-0.65717 2.113606,-1.88271 2.131367,-1.4742 0.01775,0.40852 0.846975,3.59999 1.219966,3.65327 0.372989,0.0533 4.493633,-2.84182 4.671245,-2.94839 0.177615,-0.10656 1.634049,-1.03016 0.142092,-0.42627 -1.491956,0.60389 -4.049598,2.09585 -4.085121,1.63405 -0.03552,-0.4618 0.109098,-3.05309 -0.24256,-3.25403 -0.351658,-0.20095 -0.681032,-0.44034 -0.681032,-0.44034 z"
         id="path4"
         sodipodi:nodetypes="cssssssssssssssc" />
      <path
         style="opacity:1;fill:#111b09;fill-opacity:1;stroke-width:2.117;stroke-linejoin:round;stroke-miterlimit:3.1;paint-order:markers stroke fill"
         d="m 92.32372,146.97553 c 0,0 -1.136729,-2.0248 -1.669571,-2.29122 -0.532841,-0.26642 -1.847183,-0.87031 -1.847183,-0.87031 l -0.479557,0.2309 c 0,0 3.285858,4.3693 3.800938,4.19169 0.51508,-0.17762 0.195373,-1.26106 0.195373,-1.26106 z"
         id="path5" />
      <path
         style="opacity:1;fill:#111b09;fill-opacity:1;stroke-width:2.117;stroke-linejoin:round;stroke-miterlimit:3.1;paint-order:markers stroke fill"
         d="m 90.074593,155.63362 c -0.05024,-0.12559 0.401894,-1.00473 0.653079,-2.4616 0.251185,-1.45687 -0.703316,-3.89335 -2.989091,-4.44596 -2.285775,-0.5526 -4.370602,0.15071 -4.872969,0.52749 -0.502369,0.37678 -0.552606,2.00947 0,2.03459 0.552604,0.0251 0.927878,-1.03837 2.612314,-1.33128 4.001781,-0.69587 4.490452,2.77104 4.420837,3.84312 l -0.125592,1.93412 z"
         id="path6"
         sodipodi:nodetypes="csssssscc" />
      <path
         style="opacity:1;fill:#111b09;fill-opacity:1;stroke-width:2.117;stroke-linejoin:round;stroke-miterlimit:3.1;paint-order:markers stroke fill"
         d="m 82.915849,149.4545 c -0.251185,-0.10048 -1.417457,-1.02212 -3.240274,0.12559 -0.678198,0.42701 -1.130328,0.62796 -1.004738,2.78814 0.111269,1.91385 2.913737,2.91374 2.662552,2.23554 -0.251185,-0.6782 -2.235538,-2.81326 -1.507103,-3.56681 0.728432,-0.75355 1.331274,-1.10521 1.783405,-1.00474 0.452131,0.10047 1.230802,0.20095 1.230802,0.20095 z"
         id="path7"
         sodipodi:nodetypes="cssssscc" />
      <path
         style="opacity:1;fill:#111b09;fill-opacity:1;stroke-width:2.117;stroke-linejoin:round;stroke-miterlimit:3.1;paint-order:markers stroke fill"
         d="m 80.177943,153.19714 c 1.126566,0.35461 1.907861,1.14931 2.963971,1.6327 0.9545,0.45213 0.828908,0.60284 3.089564,0.72843 2.260655,0.12559 1.808525,0.62796 2.084826,0.47725 0.276305,-0.15071 -0.02511,-0.50237 0.653079,-0.57772 0.678196,-0.0754 2.788142,-0.0754 2.260656,0.2763 -0.527487,0.35165 -2.009471,1.00473 -2.913735,1.15545 -0.904261,0.15071 -2.461604,-0.0754 -4.018944,-0.42702 -1.55734,-0.35166 -3.441221,-1.85876 -3.441221,-1.85876 z"
         id="path8"
         sodipodi:nodetypes="csssccsccc" />
      <path
         style="opacity:1;fill:#111b09;fill-opacity:1;stroke-width:2.117;stroke-linejoin:round;stroke-miterlimit:3.1;paint-order:markers stroke fill"
         d="m 75.628012,145.85656 c 0,0 -3.019438,1.563 -3.410188,1.49196 -0.39075,-0.0711 -2.078082,0.35523 -1.580764,1.91823 0.497319,1.563 6.501556,3.90527 6.815535,4.58347 0.313981,0.67819 0.263744,1.21824 0.263744,1.21824 0,0 0.47725,0.20095 0.364218,0.64052 -0.113033,0.43957 -0.05024,0.20095 -0.175829,0.45213 -0.125592,0.25119 -0.263745,0.3391 -0.376777,0.36422 -0.113033,0.0251 -1.658415,1.2564 -0.740992,2.41137 0.914328,1.15108 6.107094,6.01622 9.551172,4.37931 3.455681,-1.64242 1.893663,-4.06428 2.078083,-4.74229 0.138215,-0.50814 1.513125,-0.49562 1.722855,-0.39075 0.650659,2.34187 0.400907,3.76879 -1.083445,5.68364 -1.512187,1.95075 -3.840261,1.81649 -7.28217,1.10121 0,0 -6.820375,-3.05496 -6.749329,-6.00335 0.07104,-2.94839 1.172252,-3.16153 1.172252,-3.16153 0,0 -7.70408,-2.32663 -8.028152,-5.36394 -0.399097,-3.74047 3.723727,-4.13852 3.871984,-4.54692 0.261666,-0.72081 0.461799,-1.45643 1.456436,-2.06032 0.994638,-0.60389 1.385388,-0.7815 1.385388,-0.7815 z"
         id="path9"
         sodipodi:nodetypes="ccsscsssssscscscssscc" />
      <path
         style="opacity:1;fill:#111b09;fill-opacity:1;stroke-width:2.117;stroke-linejoin:round;stroke-miterlimit:3.1;paint-order:markers stroke fill"
         d="m 77.917285,145.68674 c 0.200948,0.15071 2.587196,2.03459 3.441221,2.48672 0.854028,0.45213 1.682935,0.47725 2.260658,0.2763 0.577723,-0.20094 2.838379,-1.28104 4.345483,-1.2308 1.507103,0.0502 2.51184,0.45213 2.813261,1.78341 0.301421,1.33127 0.175829,1.98435 0.175829,1.98435 l -1.08009,0.75355 c 0,0 1.507104,0.87915 2.361128,1.30616 0.854025,0.42701 1.10521,0.97962 1.205683,1.53222 0.100475,0.55261 0.02511,0.60284 -0.07535,0.60284 -0.100476,0 -1.58246,-0.15071 -0.979618,0.62796 0.60284,0.77867 2.612314,2.41137 2.310892,4.0943 -0.301421,1.68294 -0.226065,2.51184 -1.43175,2.5872 -1.205682,0.0754 -3.692403,-1.40663 -3.692403,-1.40663 l 0.02511,1.43175 0.326541,-0.1256 c 0,0 -0.678199,1.15545 2.888614,1.20569 3.566814,0.0502 3.190039,-1.18057 3.491458,-3.34075 0.301421,-2.16018 -0.60284,-2.98909 -1.10521,-3.64217 -0.502367,-0.65307 -1.155446,-1.45687 -1.155446,-1.45687 0,0 0.904264,-0.72843 0.02511,-2.26065 -0.879144,-1.53222 -0.96706,-1.44431 -1.519663,-1.67037 -0.552606,-0.22607 -1.205685,-0.13816 -1.205685,-0.13816 0,0 0.514929,-2.91373 -0.01257,-3.86823 -0.527486,-0.9545 -1.858764,-1.38151 -2.938854,-1.53222 -1.080093,-0.15071 -3.61705,0.30142 -3.61705,0.30142 0,0 -1.193125,0.17583 -1.519663,0.74099 -0.326538,0.56517 0.150709,0.81635 -0.276302,0.66564 -0.427014,-0.15071 -2.486723,-1.9718 -2.687669,-2.36113 -0.200949,-0.38934 -0.251185,-0.45213 -0.251185,-0.45213 z"
         id="path10" />
      <path
         style="opacity:1;fill:#111b09;fill-opacity:1;stroke-width:2.117;stroke-linejoin:round;stroke-miterlimit:3.1;paint-order:markers stroke fill"
         d="m 67.209111,152.7835 c 0,0 0.761288,-4.49701 0.397071,-4.88634 -0.364218,-0.38934 -0.163269,-0.741 -0.48981,-0.4019 -0.326538,0.3391 -0.301419,0.37678 -0.301419,0.37678 0,0 -0.779628,-0.15284 -1.532168,0.56802 -1.80537,1.72937 -2.670599,4.48943 -2.265362,7.14974 0.49785,3.26829 2.323585,5.36366 4.912855,7.41921 3.15911,2.50793 10.278166,2.29729 9.93567,1.71015 v -0.49732 c -0.287922,-0.17275 -6.514655,0.52677 -9.863147,-3.34881 -3.335108,-3.86009 -3.390422,-4.82395 -3.141764,-7.48816 0.248661,-2.66421 1.815232,-4.5444 1.815232,-4.5444 0,0 -0.02458,4.60785 0.35219,4.746 0.376774,0.13816 0.339098,0.41446 1.356394,0.46469 1.017294,0.0502 3.830555,-0.99217 3.303069,-1.05497 -0.527487,-0.0628 -4.478811,-0.21269 -4.478811,-0.21269 z"
         id="path11"
         sodipodi:nodetypes="csscsssccsscsssc" />
      <path
         style="opacity:1;fill:#111b09;fill-opacity:1;stroke-width:2.117;stroke-linejoin:round;stroke-miterlimit:3.1;paint-order:markers stroke fill"
         d="m 70.104219,153.29858 c 0,0 -0.408512,3.499 0.568364,4.2805 0.976876,0.7815 4.671246,0.87031 4.671246,0.7815 0,-0.0888 0.337468,-0.5506 0.213137,-0.65717 -0.12433,-0.10657 -3.570041,-0.56837 -3.570041,-0.56837 0,0 -0.319704,0.55061 -0.39075,0.0533 -0.07105,-0.49732 0.372991,-3.78318 0.372991,-3.78318 z"
         id="path12" />
      <path
         style="opacity:1;fill:#111b09;fill-opacity:1;stroke-width:2.117;stroke-linejoin:round;stroke-miterlimit:3.1;paint-order:markers stroke fill"
         d="m 78.16789,162.26809 c 0,0 0.177615,2.64645 -0.195373,2.71749 -0.372991,0.071 -0.195376,-0.83479 -0.550603,-1.52748 -0.35523,-0.69269 -0.888072,-2.62869 -0.621649,-2.39779 0.266419,0.2309 1.367625,1.20778 1.367625,1.20778 z"
         id="path13" />
    </g>
  </g>
</svg>
