<?xml version="1.0" encoding="UTF-8" standalone="no"?>
<!-- Created with Inkscape (http://www.inkscape.org/) -->

<svg
   width="44.942337mm"
   height="46.843174mm"
   viewBox="0 0 44.942337 46.843174"
   version="1.1"
   id="svg1"
   sodipodi:docname="grid.svg"
   inkscape:version="1.3 (0e150ed6c4, 2023-07-21)"
   xmlns:inkscape="http://www.inkscape.org/namespaces/inkscape"
   xmlns:sodipodi="http://sodipodi.sourceforge.net/DTD/sodipodi-0.dtd"
   xmlns="http://www.w3.org/2000/svg"
   xmlns:svg="http://www.w3.org/2000/svg">
  <sodipodi:namedview
     id="namedview1"
     pagecolor="#ffffff"
     bordercolor="#000000"
     borderopacity="0.25"
     inkscape:showpageshadow="2"
     inkscape:pageopacity="0.0"
     inkscape:pagecheckerboard="0"
     inkscape:deskcolor="#d1d1d1"
     inkscape:document-units="mm"
     inkscape:zoom="1.8620677"
     inkscape:cx="28.731501"
     inkscape:cy="111.43526"
     inkscape:window-width="1920"
     inkscape:window-height="974"
     inkscape:window-x="-11"
     inkscape:window-y="-11"
     inkscape:window-maximized="1"
     inkscape:current-layer="layer2" />
  <defs
     id="defs1">
    <pattern
       id="EMFhbasepattern"
       patternUnits="userSpaceOnUse"
       width="6"
       height="6"
       x="0"
       y="0" />
  </defs>
  <g
     inkscape:groupmode="layer"
     id="layer2"
     inkscape:label="Layer 2"
     transform="translate(-134.67291,-156.1259)">
    <path
       id="path1"
       style="fill:#624532;fill-opacity:1;stroke-width:5.82083;stroke-linejoin:round;stroke-miterlimit:3.1;paint-order:markers stroke fill"
       d="M 178.72707 156.12952 C 178.66566 156.15077 178.60223 156.32299 178.5462 156.61321 C 178.54583 156.61324 178.53173 156.61373 178.53173 156.61373 C 178.53173 156.61373 164.6835 156.44216 160.98913 156.44216 C 157.29477 156.44216 141.73577 156.33573 140.56351 156.47782 C 139.39126 156.61991 135.87491 156.99301 135.39535 157.33048 C 134.91579 157.66795 138.76952 157.04641 139.03595 157.22402 C 139.30236 157.40163 136.1767 157.68578 135.69714 157.89892 C 135.21759 158.11205 136.3541 158.23637 137.01127 158.23637 C 137.66844 158.23637 138.36135 157.75665 139.5336 157.57904 C 140.70585 157.40142 154.66644 156.93959 159.85277 157.29482 C 165.03908 157.65005 177.91588 157.18836 178.47024 157.15116 C 178.47219 157.15103 178.47397 157.15078 178.47592 157.15064 C 178.32058 158.86685 177.08479 182.08431 177.08479 183.91697 C 177.08479 185.77573 176.72075 199.89216 176.94682 200.26894 C 177.17288 200.64571 177.21036 201.21105 176.95922 201.24873 C 176.70803 201.28643 165.39388 201.27228 160.42069 201.20118 C 155.44751 201.13008 141.09009 199.64084 139.68346 199.45245 C 138.27683 199.26406 137.98773 199.1764 138.08821 199.5155 C 138.18868 199.85459 138.32592 199.78008 138.32592 199.78008 C 138.32592 199.78008 142.23318 201.98257 159.49723 202.26675 C 176.76129 202.55094 177.54264 201.62752 177.54264 201.62752 C 177.54264 201.62752 177.00984 202.62206 177.82687 201.87608 C 178.64388 201.13011 177.79148 199.92203 177.72041 197.8262 C 177.64941 195.73035 178.62976 161.2855 178.64232 160.06726 C 178.65089 159.23826 178.78823 157.93951 178.86246 157.10775 C 179.24931 157.04715 179.5586 156.93455 179.61229 156.75325 C 179.6605 156.59053 179.23184 156.58796 178.89605 156.60081 C 178.9003 156.50704 178.91255 156.36345 178.90587 156.33674 C 178.88077 156.23626 178.80871 156.10126 178.72707 156.12952 z M 134.91372 157.67154 C 134.88382 157.6625 134.84609 157.69052 134.799 157.76353 C 134.54782 158.15286 134.74887 158.02708 134.74887 158.02708 C 134.74887 158.02708 135.07538 200.15096 135.00002 200.86684 C 134.92462 201.58271 135.07537 201.38174 134.92457 201.69573 C 134.77385 202.00971 134.91213 202.63744 135.32662 202.91374 C 135.74107 203.19004 135.92968 202.44907 135.92968 200.26377 C 135.92968 198.07848 135.10075 160.17478 135.06307 159.22028 C 135.03244 158.44476 135.0433 157.71072 134.91372 157.67154 z " />
  </g>
</svg>
