<?xml version="1.0" encoding="UTF-8" standalone="no"?>
<!-- Created with Inkscape (http://www.inkscape.org/) -->

<svg
   width="80.312759mm"
   height="86.356812mm"
   viewBox="0 0 80.312759 86.356812"
   version="1.1"
   id="svg1"
   inkscape:version="1.3 (0e150ed6c4, 2023-07-21)"
   sodipodi:docname="big_wooden_spoon.svg"
   xmlns:inkscape="http://www.inkscape.org/namespaces/inkscape"
   xmlns:sodipodi="http://sodipodi.sourceforge.net/DTD/sodipodi-0.dtd"
   xmlns="http://www.w3.org/2000/svg"
   xmlns:svg="http://www.w3.org/2000/svg">
  <sodipodi:namedview
     id="namedview1"
     pagecolor="#ffffff"
     bordercolor="#000000"
     borderopacity="0.25"
     inkscape:showpageshadow="2"
     inkscape:pageopacity="0.0"
     inkscape:pagecheckerboard="0"
     inkscape:deskcolor="#d1d1d1"
     inkscape:document-units="mm"
     inkscape:zoom="0.93103385"
     inkscape:cx="-128.88898"
     inkscape:cy="43.50003"
     inkscape:window-width="1920"
     inkscape:window-height="974"
     inkscape:window-x="-11"
     inkscape:window-y="-11"
     inkscape:window-maximized="1"
     inkscape:current-layer="svg1" />
  <defs
     id="defs1">
    <pattern
       id="EMFhbasepattern"
       patternUnits="userSpaceOnUse"
       width="6"
       height="6"
       x="0"
       y="0" />
  </defs>
  <g
     inkscape:label="Layer 1"
     inkscape:groupmode="layer"
     id="layer1"
     transform="translate(-95.03392,-94.499253)">
    <path
       style="opacity:1;fill:#b97751;fill-opacity:1;stroke-width:2.117;stroke-linejoin:round;stroke-miterlimit:3.1;paint-order:markers stroke fill"
       d="m 108.41554,97.971844 c 0,0 13.42762,17.477206 16.55362,21.953086 3.12601,4.47587 18.68499,22.30831 20.67426,22.59249 1.98928,0.28418 10.58579,-0.9236 12.07775,-0.35523 1.49196,0.56836 8.95174,8.66756 12.14879,13.85389 3.19705,5.18632 4.90215,10.01742 4.90215,10.01742 0,0 -0.99464,4.76006 -2.13137,5.75469 -1.13673,0.99464 -10.37265,6.96247 -12.36193,7.38874 -1.98927,0.42628 -2.77078,0.49732 -3.62332,0.0711 -0.85255,-0.42628 -10.30161,-5.39947 -12.36193,-10.15952 -2.06032,-4.76005 -5.54156,-7.60187 -5.54156,-7.9571 0,-0.35523 -0.42627,-2.41555 -0.35523,-6.5362 0.071,-4.12064 1.20778,-4.61796 1.20778,-4.61796 0,0 -0.56836,-1.98927 -2.77078,-5.18632 -2.20241,-3.19706 -10.72788,-11.08311 -13.71179,-13.7118 -2.98392,-2.62869 -16.62467,-13.85389 -18.82708,-16.41153 -2.20241,-2.55764 -9.662198,-11.29624 -8.099196,-15.558976 1.563002,-4.262734 4.191686,-4.120645 7.672926,-3.197051 3.48123,0.923592 4.68901,2.131367 4.54691,2.060321 z"
       id="path4" />
    <path
       style="opacity:1;fill:#cd996f;fill-opacity:1;stroke-width:2.117;stroke-linejoin:round;stroke-miterlimit:3.1;paint-order:markers stroke fill"
       d="m 147.44502,143.27537 c -0.25118,0.65308 -1.75828,0 -0.1507,4.42084 1.60757,4.42084 5.57628,8.7412 6.53078,12.10707 0.9545,3.36587 2.26065,3.86823 2.71279,3.86823 0.45213,0 0.45213,0 0.45213,0 0,0 -4.72226,-15.52317 -5.97818,-16.77909 -1.25592,-1.25592 -2.8635,-3.76776 -2.8635,-3.76776 z"
       id="path5" />
    <path
       style="opacity:1;fill:#cd996f;fill-opacity:1;stroke-width:2.117;stroke-linejoin:round;stroke-miterlimit:3.1;paint-order:markers stroke fill"
       d="m 163.12063,151.6823 c 0,0 -1.06568,-0.95912 0.71046,3.69437 1.77614,4.65348 3.90751,8.7386 4.90215,11.11863 0.99463,2.38002 3.62332,5.07976 3.62332,5.07976 0,0 1.84718,-2.20241 1.70509,-2.34451 -0.14209,-0.14209 -1.52748,-1.70509 -2.52211,-4.61796 -0.99464,-2.91287 -6.82038,-12.21984 -7.35322,-12.53954 -0.53284,-0.31971 -1.06569,-0.39075 -1.06569,-0.39075 z"
       id="path6" />
    <path
       style="opacity:1;fill:#7d4931;fill-opacity:1;stroke-width:2.117;stroke-linejoin:round;stroke-miterlimit:3.1;paint-order:markers stroke fill"
       d="m 160.59852,144.43565 c 0,0 2.71949,10.06261 4.70876,13.18862 1.98928,3.126 6.7651,12.95615 6.7651,12.95615 0,0 -0.81703,1.20777 -1.03017,1.1012 -0.21313,-0.10656 -2.41554,-1.77613 -5.04423,-7.21112 -2.62869,-5.43499 -6.25201,-14.38673 -6.78485,-17.54826 -0.53284,-3.16153 -0.0711,-3.97855 0.24866,-3.80094 0.3197,0.17762 1.13673,1.31435 1.13673,1.31435 z"
       id="path7"
       sodipodi:nodetypes="cscssssc" />
    <path
       style="opacity:1;fill:#7d4931;fill-opacity:1;stroke-width:2.117;stroke-linejoin:round;stroke-miterlimit:3.1;paint-order:markers stroke fill"
       d="m 148.34929,143.42608 c 0,0 7.38481,17.43217 8.1886,20.39614 0.80379,2.96398 2.76302,14.26726 3.4161,13.9156 0.65308,-0.35166 0,-7.53552 -1.909,-14.31749 -1.909,-6.78197 -8.03789,-20.14496 -8.03789,-20.14496 z"
       id="path8" />
    <path
       style="opacity:1;fill:#cd996f;fill-opacity:1;stroke-width:2.117;stroke-linejoin:round;stroke-miterlimit:3.1;paint-order:markers stroke fill"
       d="m 142.44637,146.46045 c 0,0 -0.53284,0 -0.53284,1.84718 0,1.84719 2.30898,10.47922 2.62869,12.89477 0.3197,2.41555 -0.35523,7.42427 -0.35523,7.42427 0,0 3.83646,5.11528 3.80094,4.72453 -0.0355,-0.39075 -0.10657,-2.98392 -0.10657,-6.96247 0,-3.97855 -3.23257,-15.63002 -4.0496,-16.97989 -0.81702,-1.34987 -1.38539,-2.94839 -1.38539,-2.94839 z"
       id="path9" />
    <path
       style="opacity:1;fill:#7d4931;fill-opacity:1;stroke-width:2.117;stroke-linejoin:round;stroke-miterlimit:3.1;paint-order:markers stroke fill"
       d="m 133.52943,131.01759 c 20.77225,36.56696 9.04095,38.30153 13.89013,41.76524 0.49732,0.35523 1.13673,0.63941 1.13673,0.63941 0,0 0.21314,-3.33914 0,-5.04423 -0.21313,-1.7051 0.14209,-8.52547 -2.48659,-14.99062 -2.62869,-6.46515 -6.32306,-16.55362 -6.32306,-16.55362 z"
       id="path10"
       sodipodi:nodetypes="cscsscc" />
    <path
       style="opacity:1;fill:#cd996f;fill-opacity:1;stroke-width:2.117;stroke-linejoin:round;stroke-miterlimit:3.1;paint-order:markers stroke fill"
       d="m 96.655614,102.83474 c 0,0 9.273336,6.71753 12.470386,7.49903 3.19705,0.78151 5.82574,-0.21313 5.82574,-0.21313 0,0 -10.37266,-6.89142 -12.43298,-7.88606 -2.06032,-0.99464 -7.246647,-2.06032 -7.246647,-2.06032 z"
       id="path11" />
    <path
       style="opacity:1;fill:#7d4931;fill-opacity:1;stroke-width:2.117;stroke-linejoin:round;stroke-miterlimit:3.1;paint-order:markers stroke fill"
       d="m 98.753347,100.88471 c 0.497318,0.42628 10.941013,7.03351 13.285523,9.16488 2.3445,2.13137 16.26943,14.56434 16.26943,14.56434 0,0 -10.30161,-14.28016 -10.86997,-14.42225 -0.56836,-0.14209 -10.58579,-6.96246 -13.42761,-8.31233 -2.84183,-1.34987 -5.257373,-0.99464 -5.257373,-0.99464 z"
       id="path12" />
    <path
       style="opacity:0.8;fill:#7a4e36;fill-opacity:1;stroke-width:2.117;stroke-linejoin:round;stroke-miterlimit:3.1;paint-order:markers stroke fill"
       d="m 100.07172,108.66221 c 0,0 1.15544,-3.11468 2.91373,-2.51184 1.75829,0.60284 15.27199,13.11181 17.78383,16.32696 2.51184,3.21516 11.95636,14.56868 12.45873,14.76962 0.50237,0.20095 4.27013,1.10521 5.27487,4.06918 1.00473,2.96398 1.20568,3.01421 0.95449,3.01421 -0.25118,0 -0.60284,-0.0502 -0.60284,-0.0502 0,0 0.65308,3.16491 0.20095,2.91373 -0.45213,-0.25118 -3.91847,-4.27013 -6.78197,-7.7867 -2.8635,-3.51658 -12.30802,-12.91086 -12.50896,-12.9611 -0.20095,-0.0502 -15.52318,-13.66441 -15.8246,-13.76488 -0.30142,-0.10048 -3.86823,-4.01895 -3.86823,-4.01895 z"
       id="path13" />
    <path
       style="opacity:0.8;fill:#7a4e36;fill-opacity:1;stroke-width:2.117;stroke-linejoin:round;stroke-miterlimit:3.1;paint-order:markers stroke fill"
       d="m 142.44637,159.21313 c 0,0 4.61796,5.32841 9.37802,11.01206 4.76005,5.68365 8.09919,4.0496 9.30697,3.55228 1.20777,-0.49732 1.42091,-1.13673 1.77614,-1.20777 0.35523,-0.0711 4.86662,-2.73526 6.28753,-4.22722 1.42091,-1.49195 1.70509,-3.9075 0.88807,-3.76541 -0.81702,0.14209 -2.52212,2.27346 -4.54692,2.30898 -2.0248,0.0355 -6.96246,-0.74598 -8.2768,-1.563 -1.31435,-0.81703 -2.30899,-1.31435 -2.30899,-0.35523 0,0.95911 0.53285,2.27346 -1.59852,1.17225 -2.13137,-1.10121 -2.27346,-3.55228 -2.94839,-5.04423 -0.67494,-1.49196 -0.24866,-1.38539 -1.45644,-2.13137 -1.20777,-0.74598 -1.52748,-3.48123 -2.77077,-4.47587 -1.2433,-0.99464 -3.19706,-2.73526 -3.80094,0.49732 -0.60389,3.23257 -0.53284,5.18632 -0.31971,4.93766 0.21314,-0.24866 0.39075,-0.71045 0.39075,-0.71045 z"
       id="path14" />
  </g>
  <g
     inkscape:label="Layer 1"
     inkscape:groupmode="layer"
     id="g3"
     transform="translate(-95.03392,-94.499253)">
    <path
       id="path3"
       style="opacity:1;fill:#111b09;fill-opacity:1;stroke-width:2.117;stroke-linejoin:round;stroke-miterlimit:3.1;paint-order:markers stroke fill"
       d="m 100.34065,94.50741 c -1.994304,-0.08654 -3.741348,0.500056 -4.48862,2.500105 -1.70805,4.571545 -0.351841,8.037525 0.552421,9.544635 0.904262,1.5071 9.896559,10.80089 9.896559,10.80089 0,0 22.40566,18.98948 24.61606,22.3051 2.21043,3.31563 5.52586,6.44721 6.23632,6.87348 0.71044,0.42628 1.56334,2.06036 1.59886,3.16157 0.0355,1.10121 -1.9897,7.81479 -0.39119,11.86439 2.74044,6.94243 11.72839,16.26681 16.8026,18.04541 3.4457,1.20777 3.19695,1.35029 4.08502,1.2082 0.88807,-0.14209 0.14211,-0.49765 0.14211,-0.49765 0,0 0.74583,0.10686 2.69957,-0.74569 1.95376,-0.85254 5.50623,-2.55765 10.05314,-6.7138 4.54691,-4.15617 3.19683,-9.91119 2.27324,-12.14913 -0.92359,-2.23793 -8.48457,-12.80752 -9.74049,-13.96297 -1.25592,-1.15545 -5.82726,-5.37535 -7.83673,-5.62653 -2.00947,-0.25119 -8.69109,1.10477 -10.49962,0.90382 -1.80851,-0.20095 -20.87334,-21.81012 -26.1307,-30.0514 -5.25736,-8.24128 -9.38678,-14.005974 -12.55169,-15.362367 -1.78026,-0.762971 -4.75277,-1.986797 -7.31686,-2.098063 z m 0.84646,1.888257 c 0.48924,-0.03893 1.07001,-0.0036 1.74821,0.15968 2.71278,0.653078 5.76347,2.130426 8.00255,5.480113 8.65482,12.94769 28.59539,37.5693 31.79244,40.26903 3.19704,2.69973 8.45465,1.91802 13.21469,0.35502 4.76005,-1.563 17.17116,20.35883 17.82424,22.77019 0.65308,2.41136 -2.66287,6.68143 -7.13393,9.6454 -4.47108,2.96397 -7.58559,3.8685 -7.58559,3.8685 0,0 -2.9638,-1.35659 -4.77232,-2.26084 -7.47271,-4.4575 -10.64587,-8.57029 -14.45958,-16.26206 -2.4866,-5.04423 1.1367,-8.45429 -0.14211,-12.43283 -1.27883,-3.97855 -5.32834,-8.02826 -9.0227,-12.36204 -3.69437,-4.33378 -27.38805,-22.66341 -31.650784,-28.87989 -4.262726,-6.21648 0.0708,-9.449037 0.0708,-9.449037 0,0 0.646363,-0.784453 2.114084,-0.901236 z"
       sodipodi:nodetypes="ssscsssssscsssssssssssssssscssssscs" />
  </g>
</svg>
