<?xml version="1.0" encoding="UTF-8" standalone="no"?>
<!-- Created with Inkscape (http://www.inkscape.org/) -->

<svg
   width="37.587193mm"
   height="22.25778mm"
   viewBox="0 0 37.587193 22.25778"
   version="1.1"
   id="svg1"
   inkscape:version="1.3 (0e150ed6c4, 2023-07-21)"
   sodipodi:docname="rice_overlay.svg"
   xmlns:inkscape="http://www.inkscape.org/namespaces/inkscape"
   xmlns:sodipodi="http://sodipodi.sourceforge.net/DTD/sodipodi-0.dtd"
   xmlns="http://www.w3.org/2000/svg"
   xmlns:svg="http://www.w3.org/2000/svg">
  <sodipodi:namedview
     id="namedview1"
     pagecolor="#ffffff"
     bordercolor="#000000"
     borderopacity="0.25"
     inkscape:showpageshadow="2"
     inkscape:pageopacity="0.0"
     inkscape:pagecheckerboard="0"
     inkscape:deskcolor="#d1d1d1"
     inkscape:document-units="mm"
     inkscape:zoom="0.93103385"
     inkscape:cx="54.777815"
     inkscape:cy="-182.05568"
     inkscape:window-width="1920"
     inkscape:window-height="974"
     inkscape:window-x="-11"
     inkscape:window-y="-11"
     inkscape:window-maximized="1"
     inkscape:current-layer="svg1" />
  <defs
     id="defs1">
    <pattern
       id="EMFhbasepattern"
       patternUnits="userSpaceOnUse"
       width="6"
       height="6"
       x="0"
       y="0" />
  </defs>
  <g
     inkscape:label="Layer 1"
     inkscape:groupmode="layer"
     id="g2"
     transform="translate(-82.390496,-141.52156)"
     style="opacity:1">
    <path
       style="opacity:1;fill:#ece8d4;fill-opacity:1;stroke-width:2.117;stroke-linejoin:round;stroke-miterlimit:3.1;paint-order:markers stroke fill"
       d="m 85.514489,155.34598 c 0,0 3.339142,0.9236 4.831101,0.81703 1.491956,-0.10657 2.664209,-0.95912 2.664209,-0.95912 0,0 1.172252,1.10121 1.207775,1.31435 0.03552,0.21313 -2.16689,1.59852 1.207772,2.45107 3.374666,0.85255 4.795574,-1.2433 4.795574,-1.2433 0,0 0.14209,3.83646 2.84183,4.68901 2.69973,0.85254 4.90214,-0.95912 4.90214,-0.95912 l -0.30741,-1.61494 c 0,0 2.26116,-0.1612 3.07819,-3.07407 0.81702,-2.91286 -0.42628,-3.4457 -0.42628,-3.4457 l 2.84183,-0.78151 c 0,0 3.126,0.42628 5.11528,-0.60388 1.98927,-1.03017 -0.17761,-3.30362 -0.17761,-3.30362 l -2.77078,-0.56837 c 0,0 3.37466,-3.126 2.13136,-3.41019 -1.24329,-0.28418 -2.91286,-0.35522 -3.55227,-0.14209 -0.63941,0.21314 -0.74598,0.24866 -0.74598,0.24866 0,0 0.24866,-1.74061 -1.20778,-2.23793 -1.45643,-0.49732 -5.57708,-0.31971 -6.25201,1.59852 -0.67493,1.91823 -0.071,2.30898 -0.071,2.30898 0,0 -4.33378,-1.95375 -4.97319,-0.35522 -0.63941,1.59852 0.0355,2.13136 0.0355,2.13136 0,0 2.13137,1.84719 1.31434,2.09585 -0.81702,0.24866 -1.38539,-0.42628 -1.38539,-0.42628 l -6.109915,0.85255 c 0,0 -0.319704,-0.81702 -1.527479,-0.63941 -1.207776,0.17761 -3.197051,1.03016 -3.197051,1.03016 0,0 -0.674933,0 -1.989277,0.21314 -1.314342,0.21314 -4.404826,1.17225 -4.617961,1.84718 -0.213138,0.67494 -0.319707,1.45644 0.568364,1.77614 0.888069,0.31971 1.776138,0.39075 1.776138,0.39075 z"
       id="path11" />
    <path
       style="opacity:1;fill:#abab99;fill-opacity:1;stroke-width:2.117;stroke-linejoin:round;stroke-miterlimit:3.1;paint-order:markers stroke fill"
       d="m 85.87982,155.88481 c 0,0 3.416102,1.00474 4.395721,1.65781 0.979618,0.65308 1.808525,-0.95449 1.808525,-0.95449 0,0 1.431748,0.77866 2.084827,0.90426 0.653079,0.12559 3.1398,-3.69241 1.934117,-4.14454 -1.205685,-0.45213 -3.290511,-0.0502 -3.290511,-0.0502 0,0 -3.566814,0 -3.642167,1.0801 -0.07536,1.08009 0.326538,1.28103 0.326538,1.28103 0,0 -0.728435,-0.65307 -1.507104,-0.57772 -0.778671,0.0754 -1.507103,0.0754 -1.507103,0.0754 z"
       id="path12" />
    <path
       style="opacity:1;fill:#abab99;fill-opacity:1;stroke-width:2.117;stroke-linejoin:round;stroke-miterlimit:3.1;paint-order:markers stroke fill"
       d="m 104.69679,162.39726 c 0,0 3.35691,-1.19002 2.18465,-3.46348 -1.17224,-2.27345 -2.22017,-0.35522 -2.22017,-0.35522 0,0 -1.20777,0.53284 -1.66957,0.83478 -0.4618,0.30195 -0.88807,1.7939 -0.88807,1.7939 0,0 -0.28418,0.51508 0.81703,1.0124 1.1012,0.49732 1.77613,0.17762 1.77613,0.17762 z"
       id="path13" />
    <path
       style="opacity:1;fill:#abab99;fill-opacity:1;stroke-width:2.117;stroke-linejoin:round;stroke-miterlimit:3.1;paint-order:markers stroke fill"
       d="m 104.4172,150.30852 c -0.45213,0 -2.41136,-0.35165 -2.41136,-0.35165 l 0.0502,2.71278 c 0,0 -1.35639,-0.25118 0.0251,2.61232 1.38151,2.8635 3.64217,2.56207 3.64217,2.56207 0,0 0.32654,-2.56207 2.33601,-3.51657 2.00948,-0.9545 2.41137,-0.90426 2.41137,-0.90426 0,0 0.92938,-1.10521 1.08009,-1.85877 0.15071,-0.75355 0.0754,-1.05497 0.47725,-1.33127 0.40189,-0.2763 2.4616,-2.5872 2.1853,-3.49146 -0.2763,-0.90426 -1.60758,-2.10994 -3.64217,-0.65308 -2.03459,1.45687 -2.1853,2.96397 -2.88862,3.11468 -0.70331,0.15072 -3.26539,1.10521 -3.26539,1.10521 z"
       id="path14" />
  </g>
  <g
     inkscape:label="Layer 1"
     inkscape:groupmode="layer"
     id="g3"
     transform="translate(-82.390496,-141.52156)"
     style="opacity:1">
    <path
       style="opacity:1;fill:#111b09;fill-opacity:1;stroke-width:2.117;stroke-linejoin:round;stroke-miterlimit:3.1;paint-order:markers stroke fill"
       d="m 89.572226,150.73554 c 0,0 -9.695704,0.42701 -6.555904,4.0943 3.1398,3.66728 4.898088,0.17583 4.445958,0.0754 -0.452131,-0.10047 -3.742643,0.52749 -3.64217,-1.05497 0.100473,-1.58246 5.023681,-2.43649 5.023681,-2.43649 0,0 1.708052,-0.20094 1.281038,-0.47724 -0.427013,-0.27631 -0.552603,-0.20095 -0.552603,-0.20095 z"
       id="path3" />
    <path
       style="opacity:1;fill:#111b09;fill-opacity:1;stroke-width:2.117;stroke-linejoin:round;stroke-miterlimit:3.1;paint-order:markers stroke fill"
       d="m 94.270858,151.0655 c 0.26642,0.40851 0.366719,0.54826 0.550601,0.60389 0.852178,0.25781 -0.06951,-2.88215 -3.587801,-1.68734 -3.427004,1.16381 -2.746882,3.45024 -0.852546,3.97855 2.375518,0.66251 3.681665,-0.17186 3.783177,-0.85254 0.08983,-0.60231 -0.408513,-0.5506 -1.634049,-0.81702 -1.225534,-0.26642 -2.380026,-0.0178 -2.380026,-0.0178 0,0 0.51508,-0.80814 0.817025,-1.02128 0.705262,-0.58834 2.959669,-0.71389 3.303619,-0.18649 z"
       id="path4"
       sodipodi:nodetypes="sssssscss" />
    <path
       style="opacity:1;fill:#111b09;fill-opacity:1;stroke-width:2.117;stroke-linejoin:round;stroke-miterlimit:3.1;paint-order:markers stroke fill"
       d="m 95.073156,151.53932 c 0,0 -1.557342,-1.65781 0.527487,-1.98435 2.084827,-0.32654 9.117977,-0.6782 7.033157,2.76302 -2.08483,3.44122 -5.877711,2.46161 -5.526053,1.10521 0.351657,-1.35639 2.336011,-0.37677 3.215153,-0.72843 0.87915,-0.35166 2.5872,-2.81326 -1.632694,-2.13506 -4.219892,0.67819 -3.61705,0.97961 -3.61705,0.97961 z"
       id="path5" />
    <path
       style="opacity:1;fill:#111b09;fill-opacity:1;stroke-width:2.117;stroke-linejoin:round;stroke-miterlimit:3.1;paint-order:markers stroke fill"
       d="m 105.12052,145.96304 c 0,0 -5.87771,-2.56208 -5.551172,1.00474 0.326541,3.56681 6.505672,5.0488 7.610882,2.96397 1.10521,-2.08483 -0.82891,-1.05497 -0.82891,-1.05497 0,0 0.25118,1.35639 -2.61232,0.20094 -2.86349,-1.15544 -3.86823,-2.28577 -2.48672,-2.61231 1.38151,-0.32654 4.92321,1.15544 5.0488,0.0502 0.12559,-1.10521 0.97962,-4.16965 3.79288,-3.76775 2.81326,0.40189 2.71279,1.1052 2.66255,1.98435 -0.0502,0.87914 -1.15545,0.92938 -0.5526,1.33127 0.60284,0.4019 1.63269,0.20095 1.33127,-1.63269 -0.30142,-1.83365 -1.88388,-3.66729 -5.45069,-2.5872 -3.56681,1.08009 -2.96397,4.11942 -2.96397,4.11942 z"
       id="path6" />
    <path
       style="opacity:1;fill:#111b09;fill-opacity:1;stroke-width:2.117;stroke-linejoin:round;stroke-miterlimit:3.1;paint-order:markers stroke fill"
       d="m 97.509641,155.35732 c 0,0 -1.682935,-2.05971 -3.114683,-0.0251 -1.431747,2.03459 -2.160182,3.41611 0,4.2199 2.160183,0.80379 3.340749,0.0251 5.249746,-0.87915 1.908996,-0.90426 2.160186,-2.00947 1.708056,-1.83364 -0.45213,0.17583 -5.601407,2.88862 -6.329842,1.40663 -0.728432,-1.48199 2.486723,-2.88862 2.486723,-2.88862 z"
       id="path7" />
    <path
       style="opacity:1;fill:#111b09;fill-opacity:1;stroke-width:2.117;stroke-linejoin:round;stroke-miterlimit:3.1;paint-order:markers stroke fill"
       d="m 99.443759,158.14547 c 0.251182,1.15544 0.627961,6.07865 4.521311,5.6014 3.89335,-0.47725 4.57155,-1.88388 4.47108,-2.56208 -0.10048,-0.67819 -0.62797,-1.2308 -0.62797,-1.2308 1.55284,0.40259 6.64099,-6.41477 2.93886,-6.88244 -3.64119,-0.45998 -5.67676,3.03933 -5.40046,4.54643 0.27631,1.5071 0.60284,0.2763 0.60284,0.2763 0,0 3.69241,-4.6469 4.27013,-3.81799 0.57773,0.8289 -1.25592,4.87296 -2.23554,5.35021 -0.97961,0.47725 -0.52748,0.6782 -0.52748,0.6782 0,0 0.55261,1.33128 -0.90426,1.6327 -1.85724,0.38426 -3.46634,0.9545 -4.59667,-1.53222 -1.13033,-2.48673 -1.18057,-2.91374 -1.18057,-2.91374 l -1.5071,0.87915 z"
       id="path8"
       sodipodi:nodetypes="csscsscsscssccc" />
    <path
       style="opacity:1;fill:#111b09;fill-opacity:1;stroke-width:2.117;stroke-linejoin:round;stroke-miterlimit:3.1;paint-order:markers stroke fill"
       d="m 111.52571,152.56918 c 0,0 3.75687,1.9065 6.95392,0.0771 3.19706,-1.82942 0.60389,-4.70677 -1.54524,-4.58244 -2.14912,0.12433 1.11897,0.72822 1.43868,1.82943 0.3197,1.1012 -0.6927,2.23793 -2.66421,1.98927 -1.97152,-0.24866 -4.18315,0.68667 -4.18315,0.68667 z"
       id="path9" />
    <path
       style="opacity:1;fill:#111b09;fill-opacity:1;stroke-width:2.117;stroke-linejoin:round;stroke-miterlimit:3.1;paint-order:markers stroke fill"
       d="m 113.08305,145.10901 c 0,0 3.99382,-0.92938 3.56681,0.15072 -0.42701,1.08009 -2.23553,1.38151 -2.53696,2.48672 -0.30142,1.10521 2.8635,0.75355 2.8635,0.75355 l -0.37677,-0.25118 c 0,0 3.44122,-3.46634 1.20568,-4.0943 -2.23554,-0.62797 -4.67202,0.2763 -4.67202,0.2763 z"
       id="path10" />
  </g>
</svg>
