<?xml version="1.0" encoding="UTF-8" standalone="no"?>
<!-- Created with Inkscape (http://www.inkscape.org/) -->

<svg
   width="754.8999"
   height="476.29318"
   viewBox="0 0 199.73393 126.01923"
   version="1.1"
   id="svg1"
   inkscape:version="1.3 (0e150ed6c4, 2023-07-21)"
   sodipodi:docname="wok_back.svg"
   xmlns:inkscape="http://www.inkscape.org/namespaces/inkscape"
   xmlns:sodipodi="http://sodipodi.sourceforge.net/DTD/sodipodi-0.dtd"
   xmlns="http://www.w3.org/2000/svg"
   xmlns:svg="http://www.w3.org/2000/svg">
  <sodipodi:namedview
     id="namedview1"
     pagecolor="#ffffff"
     bordercolor="#000000"
     borderopacity="0.25"
     inkscape:showpageshadow="2"
     inkscape:pageopacity="0.0"
     inkscape:pagecheckerboard="0"
     inkscape:deskcolor="#d1d1d1"
     inkscape:document-units="px"
     inkscape:zoom="0.93103386"
     inkscape:cx="394.72249"
     inkscape:cy="164.87048"
     inkscape:window-width="1920"
     inkscape:window-height="974"
     inkscape:window-x="-11"
     inkscape:window-y="-11"
     inkscape:window-maximized="1"
     inkscape:current-layer="layer22" />
  <defs
     id="defs1">
    <pattern
       id="EMFhbasepattern"
       patternUnits="userSpaceOnUse"
       width="6"
       height="6"
       x="0"
       y="0" />
    <pattern
       id="EMFhbasepattern-1"
       patternUnits="userSpaceOnUse"
       width="6"
       height="6"
       x="0"
       y="0" />
  </defs>
  <g
     inkscape:groupmode="layer"
     id="layer21"
     inkscape:label="Layer 2"
     transform="translate(-31.091158,-119.26869)">
    <g
       inkscape:groupmode="layer"
       id="layer22"
       inkscape:label="F">
      <path
         id="path11"
         style="opacity:1;fill:#5e6b92;fill-opacity:1;stroke-width:2.11701;stroke-linejoin:round;stroke-miterlimit:3.1;paint-order:markers stroke fill"
         d="m 197.36824,121.67519 c -5.13543,-0.11361 -11.08389,1.02679 -14.1821,2.0595 -4.95712,1.65237 -9.8456,6.81602 -10.18985,7.09141 -0.34424,0.2754 -6.40292,-0.96383 -10.94695,-1.30808 -4.54403,-0.34424 -22.06484,-0.97666 -29.26999,-1.1714 -7.20516,-0.19473 -18.8891,0.97415 -30.76787,3.50569 -11.87878,2.53155 -19.278758,5.84193 -32.131202,9.73659 -12.852439,3.89468 -22.784484,14.41026 -25.510763,15.18919 -2.726274,0.77894 -4.478569,8.76303 -8.178516,21.03127 -3.699944,12.26825 -1.558006,26.09466 -0.973801,28.43145 0.5842,2.33682 3.894627,9.15229 4.868298,14.02063 0.973672,4.86834 1.752948,1.36311 2.531885,-0.19476 0.778934,-1.55788 26.07577,-12.77929 27.451487,-12.72051 3.45223,0.14749 2.726567,5.25802 7.400183,6.8159 4.673616,1.55787 10.320564,6.23179 13.241574,7.40018 2.92101,1.16841 3.700446,-2.9214 3.700446,-2.9214 0,0 -1.168821,4.28409 2.141654,4.8683 3.310481,0.5842 5.258105,0.38973 7.400185,1.9476 2.14208,1.55788 3.50487,0.97357 7.98375,-0.77904 4.47888,-1.7526 6.62123,-0.19446 12.46324,2.14236 5.84202,2.33681 -7.01026,-1.36324 -9.34707,4.47878 -2.33681,5.84204 17.33077,-3.50498 22.00438,-3.50498 4.67361,0 0.38989,-2.532 3.11616,-3.50568 2.72628,-0.97366 18.31033,18.36753 25.32075,16.03072 7.01044,-2.33682 13.66552,-5.77856 20.55039,-9.22101 6.8849,-3.44245 8.8814,-3.64875 11.63534,-5.57652 2.75395,-1.92776 4.06224,-4.19959 4.13104,-5.23233 0.0688,-1.03273 0.55099,-0.34476 1.51489,-1.37747 0.96387,-1.03275 0.41269,-0.89485 0.82578,-3.30456 0.4131,-2.40972 9.32806,1.69334 10.56734,-0.23443 1.23928,-1.92775 7.71109,-8.67496 7.71109,-8.67496 l 6.8159,-21.6871 c 0,0 0.13744,-12.87489 -1.17069,-17.62544 -1.30811,-4.75059 -8.80966,-14.91546 -9.12611,-15.67006 -0.31645,-0.7546 -5.23374,-4.47879 -5.23374,-4.47879 0,0 -1.70381,-0.73074 -2.31233,-1.07153 -0.60855,-0.34077 0.14873,-3.28967 0.14873,-3.28967 0,0 1.03252,-6.33452 1.37677,-10.74086 0.34424,-4.40634 -3.44257,-5.23199 -7.9866,-8.60557 -1.70401,-1.26509 -4.49243,-1.78523 -7.57368,-1.85342 z m -6.26491,7.42994 c 0,0 12.59981,1.68677 13.46041,3.06375 0.86062,1.37699 -1.99672,9.15724 -2.20327,9.32938 0,0 -4.39436,-2.24631 -8.67852,-3.70683 -4.28414,-1.4605 -12.60898,-2.43416 -12.75503,-2.62891 -0.14604,-0.19473 0.38977,-0.24312 2.14237,-1.801 1.7526,-1.55787 8.03404,-4.25639 8.03404,-4.25639 z"
         sodipodi:nodetypes="ssssssssssssssscssssssssssssssccsscscssscscsssc" />
      <path
         style="opacity:1;fill:#9ea7c4;fill-opacity:1;stroke-width:2.11701;stroke-linejoin:round;stroke-miterlimit:3.1;paint-order:markers stroke fill"
         d="m 165.52613,135.06058 c 0.17212,-0.20656 1.51468,-2.30645 0.44752,-2.54742 -1.06716,-0.24097 -12.56493,0.2754 -16.62702,0.24097 -4.06208,-0.0344 -24.8437,0.0717 -32.48702,2.16502 -7.64331,2.09339 -11.63537,5.06309 -9.88276,5.16045 1.75261,0.0973 26.38648,-4.57625 31.30352,-4.67361 4.91705,-0.0974 7.83805,0 8.81173,0 0.97366,0 9.49329,-0.77895 11.78141,-0.97368 2.28813,-0.19473 4.23547,0.0973 4.23547,0.0973 z"
         id="path12" />
      <path
         style="opacity:1;fill:#9ea7c4;fill-opacity:1;stroke-width:2.11701;stroke-linejoin:round;stroke-miterlimit:3.1;paint-order:markers stroke fill"
         d="m 104.11288,135.6458 c 0,0 -2.51298,1.82448 -3.54572,2.272 -1.032731,0.44752 -1.480248,1.23928 -2.065465,1.41141 -0.585218,0.17212 -0.344246,2.58184 1.30813,2.9605 1.652375,0.37867 3.442445,-1.68679 4.303055,-3.78668 0.86061,-2.0999 1.9622,-3.06378 1.03274,-3.16706 -0.92946,-0.1032 -1.03274,0.30983 -1.03274,0.30983 z"
         id="path13" />
      <path
         style="opacity:1;fill:#9ea7c4;fill-opacity:1;stroke-width:2.11701;stroke-linejoin:round;stroke-miterlimit:3.1;paint-order:markers stroke fill"
         d="m 95.390168,138.86252 c -1.071036,0.38947 -13.387975,3.06706 -16.64977,4.18677 -3.261798,1.11973 -5.988075,2.19077 -4.332838,2.87234 1.655242,0.68157 2.142079,0.63289 10.515646,-2.3368 8.373571,-2.9697 9.347242,-3.79732 10.856433,-3.8947 1.509189,-0.0973 1.509189,-0.97366 0.876303,-0.82761 -0.632884,0.14604 -1.265774,0 -1.265774,0 z"
         id="path14" />
      <path
         style="opacity:1;fill:#9ea7c4;fill-opacity:1;stroke-width:2.11701;stroke-linejoin:round;stroke-miterlimit:3.1;paint-order:markers stroke fill"
         d="m 64.490324,154.02846 c 0.240971,-0.10333 2.581836,-2.75396 2.616258,-4.16536 0.03441,-1.41141 -0.06885,-2.9605 -0.654067,-2.27202 -0.585213,0.68849 -0.516364,1.17043 -0.96388,1.23929 -0.447521,0.0688 -2.306442,0.20654 -3.339176,1.65237 -1.032734,1.44582 -1.067156,2.23759 -1.652374,2.71952 -0.585216,0.48195 -12.805901,10.74045 -15.422159,18.17613 -2.616261,7.43567 -3.85554,10.05194 -3.373598,11.9797 0.481943,1.92777 1.23928,2.40972 1.79007,0.9639 0.550795,-1.44583 0.06885,-2.89166 0.619643,-1.58353 0.550791,1.30813 0.413094,3.16704 0.895037,1.65238 0.481943,-1.51468 1.170431,-4.0621 1.170431,-4.88828 0,-0.82619 1.927769,-6.6095 4.612877,-11.15353 2.68511,-4.54403 7.504532,-9.36344 7.504532,-9.36344 0,0 2.960504,-2.89166 3.511298,-3.09821 0.550792,-0.20655 2.685108,-1.85892 2.685108,-1.85892 z"
         id="path15" />
      <path
         style="opacity:1;fill:#494860;fill-opacity:1;stroke-width:2.11701;stroke-linejoin:round;stroke-miterlimit:3.1;paint-order:markers stroke fill"
         d="m 42.734061,191.00033 c 0,0 -0.963884,0.55079 -1.204856,0.51636 -0.240971,-0.0344 -1.92777,-0.51636 -1.962193,1.03275 -0.03441,1.5491 1.239279,4.16535 2.168738,2.75395 0.929464,-1.41141 0.998311,-4.30306 0.998311,-4.30306 z"
         id="path16" />
      <path
         style="fill:#494860;fill-opacity:1;stroke-width:2.11701;stroke-linejoin:round;stroke-miterlimit:3.1;paint-order:markers stroke fill"
         d="m 65.206373,226.29816 c -2.142079,-2.53155 -23.952304,-19.47342 -23.173367,-25.89964 0.778938,-6.42623 1.94734,-16.55241 4.284151,-17.72082 2.33681,-1.16839 -1.752609,-0.19473 7.205164,-8.95777 8.957771,-8.76303 14.799796,-10.12617 19.473417,-11.09985 4.673621,-0.97366 5.452559,-13.24191 13.631393,-13.24191 8.178835,0 16.552409,2.3368 27.457519,-2.33682 10.90511,-4.67361 50.63089,-8.95777 48.87827,-4.86836 -1.75259,4.08943 4.08943,12.65773 13.63141,10.32092 9.54197,-2.33681 2.53154,-8.5683 9.1525,-7.20517 6.62096,1.36314 4.47889,2.14207 9.93145,7.39991 5.45255,5.25782 10.32091,0.38946 10.32091,0.38946 0,0 13.04718,16.16293 14.60505,18.69448 1.55788,2.53154 1.94736,3.50522 1.94736,3.50522 l -12.85247,41.08891 c 0,0 -61.14653,23.75757 -75.94633,24.14703 -14.79979,0.38948 -68.546427,-14.21559 -68.546427,-14.21559 z"
         id="path1" />
      <path
         style="opacity:1;fill:#25303e;fill-opacity:1;stroke-width:2.11701;stroke-linejoin:round;stroke-miterlimit:3.1;paint-order:markers stroke fill"
         d="m 82.440348,163.20429 c -0.389471,0.5842 -6.42623,6.62096 -10.320915,8.86041 -3.894679,2.23945 -16.941871,7.692 -10.613009,7.20516 6.328859,-0.48684 12.852452,-6.71834 18.207643,-11.00248 5.35519,-4.28416 4.478887,-5.25782 3.699949,-5.3552 -0.778937,-0.0973 -0.973668,0.29211 -0.973668,0.29211 z"
         id="path18" />
      <path
         style="opacity:1;fill:#25303e;fill-opacity:1;stroke-width:2.11701;stroke-linejoin:round;stroke-miterlimit:3.1;paint-order:markers stroke fill"
         d="m 70.893274,182.80731 c -0.75734,0.13769 -2.54741,0.82618 -4.47518,2.6851 -1.92777,1.85893 -2.960504,3.09821 -3.855541,3.2359 -0.895037,0.13771 -3.30475,0.68849 -6.678345,3.30475 -3.373598,2.61626 -4.199785,4.54403 -2.891655,7.0226 1.308128,2.47856 0.963885,3.0982 2.685107,1.17043 1.721225,-1.92777 17.831873,-16.1795 16.661442,-16.79914 -1.170431,-0.61964 -1.445828,-0.61964 -1.445828,-0.61964 z"
         id="path19" />
      <path
         id="path17"
         style="fill:#25303e;fill-opacity:1;stroke-width:2.11701;stroke-linejoin:round;stroke-miterlimit:3.1;paint-order:markers stroke fill"
         d="m 212.85982,156.50684 c -1.17044,-0.20655 -7.57368,1.85918 -2.75427,6.95401 4.81943,5.0948 9.29457,9.36357 7.0914,14.73378 -2.20316,5.37022 -5.37012,15.28428 -6.47171,17.76285 -1.10158,2.47856 1.79048,2.34099 -5.64521,8.95047 -7.43567,6.6095 -15.97319,13.6321 -16.93707,13.49441 -0.96387,-0.13771 -6.47171,9.22556 -17.07445,4.26844 -10.60273,-4.95713 -9.63863,-4.54433 -3.30455,-3.71815 6.33411,0.82619 27.26361,-5.50741 26.29972,-10.18915 -0.96387,-4.68172 -4.9567,-12.39283 2.06588,-15.42218 7.02259,-3.02936 4.95672,-6.05882 -1.10199,-6.05882 -1.32548,-0.29818 -30.75561,-10.17393 -31.48034,-11.6155 -1.16841,-4.86836 12.26813,-9.15206 -6.03686,-12.46253 -18.30499,-3.31048 -22.19993,-2.72641 -28.04195,-0.9738 -5.84202,1.75261 -10.51547,-0.38982 -9.34707,-2.5319 1.16841,-2.14205 -11.09974,2.14225 -14.99442,1.36334 -3.89467,-0.77895 -0.38976,2.14206 -12.657999,5.06305 -12.26824,2.92101 -12.462613,5.64774 -13.046815,8.56874 -0.584204,2.921 -7.789227,8.95738 0.973801,7.59424 5.021559,-0.78114 8.865098,4.4023 12.022729,9.62683 -6.23577,-0.92792 -12.864856,-1.34463 -19.422911,-0.86404 -13.047175,0.77894 -19.245857,-2.80454 -19.245857,-2.80454 -2.203161,3.30473 -6.885106,10.74035 -8.262084,11.29114 -1.376975,0.55079 -11.015833,-7.71066 -5.783319,3.02976 5.232511,10.74042 5.23264,14.32051 11.842133,22.85778 6.60949,8.53724 -2.478522,-7.43608 15.422181,2.75355 17.900703,10.18964 24.23502,8.81288 50.397591,14.04541 26.16257,5.23251 54.80352,2.75395 58.93446,0 4.13094,-2.75396 -1.37716,-1.10151 5.23232,-3.58006 6.6095,-2.47857 27.81551,-19.55343 30.29408,-23.95976 2.47856,-4.40634 4.40643,-7.9866 6.05882,-11.84214 1.65235,-3.85552 4.54337,-17.69405 4.47452,-20.3103 -0.0688,-2.61626 -1.58288,-13.76991 -1.58288,-13.76991 0,0 -4.88827,-5.09478 -5.7833,-7.09139 -0.89504,-1.99662 -0.96414,-4.95708 -2.13458,-5.16363 z" />
    </g>
    <g
       inkscape:groupmode="layer"
       id="layer23"
       inkscape:label="O">
      <path
         style="opacity:1;fill:#111b09;fill-opacity:1;stroke-width:2.11701;stroke-linejoin:round;stroke-miterlimit:3.1;paint-order:markers stroke fill"
         d="m 33.508304,179.15832 c 0.688491,-3.30476 0.963886,-5.23253 1.92777,-8.12417 0.963886,-2.89166 1.239283,-3.44246 2.891657,-7.16029 1.652372,-3.71785 9.50115,-13.3567 14.73367,-17.34994 5.232517,-3.99323 25.474102,-10.60274 30.431225,-12.6682 4.957126,-2.06546 24.433554,-4.07268 26.380894,-4.6082 1.94735,-0.53552 6.06111,-1.04669 7.37556,-1.19275 1.31446,-0.14605 11.34327,-0.48684 13.72877,-0.73026 2.38548,-0.24341 7.20516,-0.0487 8.22752,-0.0487 1.02235,0 8.27619,0.2921 13.33928,0.2921 5.06309,0 18.98659,3.01838 19.66815,2.33681 0.68157,-0.68157 6.81571,-6.52359 12.26826,-8.76304 5.45256,-2.23944 11.82054,-2.29505 15.95148,-1.09019 4.13092,1.20485 5.37021,2.37528 6.16197,2.71952 0.79176,0.34426 0.72292,-0.17212 1.41141,0.65407 0.68848,0.8262 0.51636,1.30813 1.34255,1.30813 0.82618,0 4.47519,2.20317 4.75057,6.50623 0.2754,4.30305 -1.65237,9.12248 -1.85891,9.94867 -0.20655,0.82618 -0.51638,2.34086 -0.48195,3.2359 0.0344,0.89504 1.30813,1.20486 0.61964,1.68679 -0.68849,0.48195 -0.48193,1.44584 -1.136,0.20655 -0.65406,-1.23928 -0.51637,-3.33917 -0.4131,-6.71277 0.10333,-3.3736 1.5967,-4.19862 -0.25328,-7.55778 -1.84998,-3.35917 -2.23945,-2.92101 -5.50125,-4.81967 -3.26179,-1.89866 -5.74465,-4.4302 -11.14852,-4.28416 -5.40388,0.14605 -10.85643,1.46051 -14.11823,3.06707 -3.2618,1.60655 -6.2315,5.35519 -7.1078,5.54992 -0.87631,0.19474 -1.55788,-0.19473 -1.55788,-0.19473 0,0 -46.61517,-4.94521 -78.423376,4.96903 -31.808203,9.91425 -36.627631,14.04517 -42.824035,19.69079 -6.196402,5.64561 -12.805901,22.85784 -14.04518,36.48994 -1.239282,13.63209 3.262821,18.88599 1.412849,19.17808 -1.849977,0.29211 -3.699952,-4.33282 -5.063091,-7.35121 -2.600007,-6.92315 0.02237,-18.45781 1.309377,-25.18359 z"
         id="path2"
         sodipodi:nodetypes="ssssssssssssssssssssscssssscssssss" />
      <path
         style="opacity:1;fill:#111b09;fill-opacity:1;stroke-width:2.11701;stroke-linejoin:round;stroke-miterlimit:3.1;paint-order:markers stroke fill"
         d="m 213.10699,146.89531 c 5.78032,-0.0244 12.5134,11.02193 15.18925,18.35369 5.47328,14.99669 0.70763,23.14646 -1.65523,34.37058 -0.40421,1.92006 -1.59499,4.46204 -2.11135,5.49478 -0.51637,1.03274 -0.41309,0.20656 -1.06716,1.44583 -0.65406,1.23928 -2.99492,4.6473 -4.19979,6.16198 -1.20485,1.51467 -0.42711,0.28696 -1.30813,0.99831 -2.5054,2.02293 0.97214,-4.66352 1.58353,-6.36853 0.44897,-1.25208 4.77338,-9.11932 5.92102,-14.07961 2.01036,-8.68923 4.05191,-18.16313 1.51467,-26.71338 -2.26789,-7.64257 -11.73247,-19.40189 -14.15892,-19.27419 z"
         id="path3"
         sodipodi:nodetypes="csasssssaacc" />
      <path
         id="path4"
         style="opacity:1;fill:#111b09;fill-opacity:1;stroke-width:2.11701;stroke-linejoin:round;stroke-miterlimit:3.1;paint-order:markers stroke fill"
         d="m 191.53747,126.51233 c -0.34687,-0.005 -0.61799,0.01 -0.77622,0.0333 -0.63289,0.0973 -0.14572,-0.0488 -1.60624,0.53543 -1.4605,0.58421 -3.74916,2.92097 -5.20966,3.74859 -1.46051,0.82761 -0.82769,0.43797 -1.89873,1.2656 -1.07103,0.82762 1.16851,0.68157 -1.84987,1.31444 -3.01837,0.63289 -4.42987,-0.29214 -5.35485,-0.38952 -0.925,-0.0973 -1.84561,-0.26628 -1.84561,-0.26628 0,0 0.61954,1.99722 3.58004,2.61686 2.96052,0.61964 3.37365,-0.13805 4.47524,0.48159 1.10157,0.61964 -1.85892,0.8265 3.85555,1.79038 5.71444,0.96389 5.16368,0.34379 9.63886,2.13386 4.47518,1.79007 10.05176,5.64603 10.05176,3.99366 0,-1.65237 -0.6884,-2.40988 -0.6884,-3.78685 0,-1.37698 5.16373,-5.09505 1.58359,-8.26208 -3.58014,-3.16705 -7.86699,-3.27706 -9.76565,-4.25073 -1.42399,-0.73026 -3.14921,-0.93997 -4.18981,-0.95824 z m -0.0694,3.67566 c 1.53574,0.003 2.36019,0.69367 5.28119,1.46956 3.11575,0.82763 7.1562,0.63273 7.05882,2.7748 -0.0973,2.14207 -1.70343,4.13783 -1.75212,4.62467 -0.0487,0.48683 0.92459,1.07152 -0.29249,0.87678 -1.21709,-0.19473 -5.8419,-3.31037 -10.8563,-4.47878 -5.01439,-1.16841 -7.05882,-1.89874 -7.05882,-1.89874 0.92499,-0.53552 4.81986,-3.06766 5.30668,-3.16503 0.48684,-0.0973 0.24315,-0.0973 1.99576,-0.19476 0.1095,-0.005 0.21491,-0.008 0.31728,-0.008 z" />
      <path
         style="opacity:1;fill:#111b09;fill-opacity:1;stroke-width:2.11701;stroke-linejoin:round;stroke-miterlimit:3.1;paint-order:markers stroke fill"
         d="m 127.28055,135.04337 c -0.20655,0.18933 -4.40634,6.14476 -4.76779,7.14306 -0.36146,0.99832 -0.29261,0.80899 -0.39588,1.35978 -0.10328,0.55079 -0.63685,1.06715 0.12048,0.51637 0.75734,-0.5508 0.39588,-0.53359 1.08437,-0.91225 0.68849,-0.37867 1.30813,-1.46304 2.80561,-4.28585 1.49746,-2.82281 2.4097,-3.9416 1.80727,-4.14815 -0.60242,-0.20655 -0.65406,0.32704 -0.65406,0.32704 z"
         id="path5" />
      <path
         style="opacity:1;fill:#111b09;fill-opacity:1;stroke-width:2.11701;stroke-linejoin:round;stroke-miterlimit:3.1;paint-order:markers stroke fill"
         d="m 134.94555,133.40995 c -0.34079,0.26777 -3.0914,2.9697 -4.06508,5.18481 -0.97367,2.2151 -2.48285,4.96573 -1.09537,4.06507 1.38748,-0.90065 6.71832,-9.39593 6.08544,-9.49329 -0.63289,-0.0973 -0.92499,0.24341 -0.92499,0.24341 z"
         id="path6" />
      <path
         style="opacity:1;fill:#111b09;fill-opacity:1;stroke-width:2.11701;stroke-linejoin:round;stroke-miterlimit:3.1;paint-order:markers stroke fill"
         d="m 137.50144,136.2336 c 0,0 -0.87631,0.97367 6.08544,0.48684 6.96175,-0.48684 12.46299,-1.50919 16.64977,-1.70392 4.18679,-0.19474 6.76702,1.1684 6.2315,0.24341 -0.53553,-0.92498 -2.48287,-1.16841 -7.54596,-1.26576 -5.06308,-0.0973 -12.31693,1.11971 -16.35766,1.84996 -4.04073,0.73025 -5.06309,0.38947 -5.06309,0.38947 z"
         id="path7" />
      <path
         style="opacity:1;fill:#111b09;fill-opacity:1;stroke-width:2.11701;stroke-linejoin:round;stroke-miterlimit:3.1;paint-order:markers stroke fill"
         d="m 64.628021,153.68421 c -0.275394,0 -7.986475,2.82281 -14.320578,12.80591 -6.334103,9.98308 -6.26525,18.65805 -4.957123,16.11064 1.308131,-2.5474 3.648995,-11.42892 8.399569,-17.41877 4.750578,-5.98987 7.435684,-8.46843 9.294607,-9.50116 1.858921,-1.03273 2.409712,-1.58353 2.409712,-1.58353 z"
         id="path8" />
      <path
         style="opacity:1;fill:#111b09;fill-opacity:1;stroke-width:2.11701;stroke-linejoin:round;stroke-miterlimit:3.1;paint-order:markers stroke fill"
         d="m 210.11295,150.78999 c 0,0 -1.58223,-0.41381 -5.52559,-2.48286 -3.94337,-2.06905 -4.38151,-3.40786 -4.50323,-2.50721 -0.1217,0.90065 2.82365,5.16046 6.59663,5.74466 3.77296,0.5842 5.06309,-0.5842 4.50323,-0.75459 -0.55987,-0.1704 -1.07104,0 -1.07104,0 z"
         id="path9" />
      <path
         style="opacity:1;fill:#111b09;fill-opacity:1;stroke-width:2.11701;stroke-linejoin:round;stroke-miterlimit:3.1;paint-order:markers stroke fill"
         d="m 222.5516,183.74874 c 0.48682,-0.48683 0.49781,-10.44258 -0.67263,-15.84723 -1.17042,-5.40464 -4.71615,-10.18964 -5.19809,-9.91424 -0.48193,0.2754 3.54572,10.77486 3.92439,14.7681 0.37867,3.99323 1.17044,9.26018 1.2737,10.36175 0.10334,1.10159 0.67263,0.63162 0.67263,0.63162 z"
         id="path10" />
    </g>
  </g>
</svg>
