<?xml version="1.0" encoding="UTF-8" standalone="no"?>
<!-- Created with Inkscape (http://www.inkscape.org/) -->

<svg
   width="54.010803mm"
   height="54.000904mm"
   viewBox="0 0 54.010803 54.000904"
   version="1.1"
   id="svg1"
   inkscape:version="1.3 (0e150ed6c4, 2023-07-21)"
   sodipodi:docname="icon_room.svg"
   xmlns:inkscape="http://www.inkscape.org/namespaces/inkscape"
   xmlns:sodipodi="http://sodipodi.sourceforge.net/DTD/sodipodi-0.dtd"
   xmlns="http://www.w3.org/2000/svg"
   xmlns:svg="http://www.w3.org/2000/svg">
  <sodipodi:namedview
     id="namedview1"
     pagecolor="#ffffff"
     bordercolor="#000000"
     borderopacity="0.25"
     inkscape:showpageshadow="2"
     inkscape:pageopacity="0.0"
     inkscape:pagecheckerboard="0"
     inkscape:deskcolor="#d1d1d1"
     inkscape:document-units="mm"
     inkscape:zoom="1.3701319"
     inkscape:cx="188.66797"
     inkscape:cy="218.5921"
     inkscape:window-width="1920"
     inkscape:window-height="974"
     inkscape:window-x="-11"
     inkscape:window-y="-11"
     inkscape:window-maximized="1"
     inkscape:current-layer="layer1" />
  <defs
     id="defs1" />
  <g
     inkscape:label="Layer 1"
     inkscape:groupmode="layer"
     id="layer1"
     transform="translate(2.0108049,2)">
    <path
       style="color:#000000;fill:#f16d44;stroke-linejoin:round;stroke-miterlimit:3.1;stroke-dasharray:8, 4;-inkscape-stroke:none"
       d="m 9.9746094,-2 -0.2578125,0.00391 a 2.0002,2.0002 0 0 0 -0.050781,0 l -0.2578125,0.00977 a 2.0002,2.0002 0 0 0 -0.050781,0.00391 l -0.2539063,0.015625 a 2.0002,2.0002 0 0 0 -0.050781,0.00391 l -0.2539063,0.021484 a 2.0002,2.0002 0 0 0 -0.050781,0.00586 l -0.25,0.029297 a 2.0002,2.0002 0 0 0 -0.050781,0.00586 l -0.25,0.035156 a 2.0002,2.0002 0 0 0 -0.048828,0.00586 l -0.2480469,0.041016 a 2.0002,2.0002 0 0 0 -0.048828,0.00977 l -0.2460938,0.046875 a 2.0002,2.0002 0 0 0 -0.048828,0.00977 L 7.3125,-1.6992187 A 2.0002,2.0002 0 0 0 7.2636719,-1.6875 l -0.2402344,0.058594 a 2.0002,2.0002 0 0 0 -0.048828,0.011719 l -0.2382813,0.064453 A 2.0002,2.0002 0 0 0 6.6875,-1.5390625 l -0.085937,0.025391 1.1367187,3.8359375 0.0625,-0.019531 L 7.9921875,2.2519531 8.1835938,2.2050781 8.3789063,2.1621094 8.5761719,2.125 8.7734375,2.0917969 8.9746094,2.0644531 9.1757813,2.0410156 9.3789063,2.0234375 9.5839844,2.0097656 9.7910156,2.0019531 10,2 H 10.025391 18 V -2 H 10 V 0 Z M 22,-2 v 4 h 8 v -4 z m 12,0 v 4 h 5.988281 l 0.220703,0.00195 0.207032,0.00781 0.205078,0.013672 0.203125,0.017578 0.201172,0.023437 0.201171,0.027344 0.197266,0.033203 0.189453,0.035156 0.748047,-3.9277344 -0.212891,-0.041016 a 2.0002,2.0002 0 0 0 -0.04883,-0.00977 l -0.248047,-0.041016 a 2.0002,2.0002 0 0 0 -0.04883,-0.00586 l -0.25,-0.035156 a 2.0002,2.0002 0 0 0 -0.05078,-0.00586 l -0.25,-0.029297 a 2.0002,2.0002 0 0 0 -0.05078,-0.00586 l -0.253906,-0.021484 a 2.0002,2.0002 0 0 0 -0.05078,-0.00391 l -0.253906,-0.015625 a 2.0002,2.0002 0 0 0 -0.05078,-0.00391 l -0.257813,-0.00977 a 2.0002,2.0002 0 0 0 -0.05078,0 L 40.025391,-2 A 2.0002,2.0002 0 0 0 40,-2 Z M 46.769531,0.08203125 44.527344,3.3945313 c 0.190382,0.1289743 0.380581,0.2716234 0.570312,0.4277343 0.147206,0.1214701 0.289563,0.2491512 0.427735,0.3808594 0.138788,0.1322952 0.273415,0.2701978 0.402343,0.4121094 0.12902,0.1420106 0.252648,0.2885755 0.371094,0.4394531 0.118659,0.1511464 0.232441,0.3056036 0.339844,0.4648437 0.10772,0.1597083 0.208874,0.3232262 0.304687,0.4902344 0.09622,0.1677117 0.18779,0.3394706 0.271485,0.5136719 0.08075,0.1680762 0.153959,0.3384044 0.222656,0.5117187 l 0.07813,0.2050782 0.06445,0.1855468 0.06055,0.1855469 0.05664,0.1894531 0.05078,0.1914063 0.04687,0.1914063 0.04297,0.1953125 0.03711,0.1972656 0.0059,0.039063 3.947266,-0.6503907 -0.0098,-0.064453 a 2.0002,2.0002 0 0 0 -0.0098,-0.048828 l -0.04687,-0.2460938 a 2.0002,2.0002 0 0 0 -0.0098,-0.048828 L 51.699219,7.3125 A 2.0002,2.0002 0 0 0 51.6875,7.2636719 l -0.05859,-0.2402344 a 2.0002,2.0002 0 0 0 -0.01172,-0.048828 L 51.552734,6.7363281 A 2.0002,2.0002 0 0 0 51.539062,6.6875 L 51.46875,6.4511719 a 2.0002,2.0002 0 0 0 -0.01367,-0.046875 l -0.07617,-0.234375 a 2.0002,2.0002 0 0 0 -0.01563,-0.046875 l -0.08008,-0.2304688 a 2.0002,2.0002 0 0 0 -0.01758,-0.046875 l -0.08594,-0.2285156 a 2.0002,2.0002 0 0 0 -0.0098,-0.021484 C 51.062989,5.3235571 50.946922,5.0545333 50.820312,4.7910156 50.694418,4.5289817 50.558684,4.2716101 50.414062,4.0195312 50.270053,3.7685155 50.116844,3.5230399 49.955078,3.2832031 49.793792,3.0440736 49.623371,2.8107937 49.445312,2.5839844 49.267575,2.3575811 49.08219,2.1368316 48.888672,1.9238281 48.695292,1.7109741 48.493312,1.5050578 48.285156,1.3066406 48.076928,1.1081522 47.862603,0.91741609 47.640625,0.734375 a 2.0002,2.0002 0 0 0 -0.002,0 C 47.365233,0.50938915 47.075787,0.28950367 46.769531,0.08203125 Z M 2.4023438,0.70117187 2.3789063,0.72070312 A 2.0002,2.0002 0 0 0 2.359375,0.734375 C 2.1373972,0.91741609 1.9230722,1.1081522 1.7148437,1.3066406 1.5066876,1.5050578 1.3047084,1.7109741 1.1113281,1.9238281 0.91780985,2.1368316 0.73242534,2.3575811 0.5546875,2.5839844 0.37662868,2.8107937 0.2062081,3.0440736 0.04492187,3.2832031 -0.11684366,3.5230399 -0.27005304,3.7685155 -0.4140625,4.0195312 -0.55868434,4.2716101 -0.69441836,4.5289817 -0.8203125,4.7910156 -0.94692228,5.0545333 -1.062989,5.3235571 -1.1699219,5.5957031 a 2.0002,2.0002 0 0 0 -0.00977,0.021484 l -0.085937,0.2285156 a 2.0002,2.0002 0 0 0 -0.017578,0.046875 l -0.080078,0.2304688 a 2.0002,2.0002 0 0 0 -0.015625,0.046875 l -0.076172,0.234375 A 2.0002,2.0002 0 0 0 -1.46875,6.4511719 L -1.5390625,6.6875 a 2.0002,2.0002 0 0 0 -0.013672,0.048828 l -0.064453,0.2382813 a 2.0002,2.0002 0 0 0 -0.011719,0.048828 L -1.6875,7.2636719 A 2.0002,2.0002 0 0 0 -1.6992187,7.3125 l -0.052734,0.2441406 a 2.0002,2.0002 0 0 0 -0.00977,0.048828 l -0.046875,0.2460938 a 2.0002,2.0002 0 0 0 -0.00977,0.048828 l -0.041016,0.2480469 a 2.0002,2.0002 0 0 0 -0.00391,0.027344 C -1.9026406,8.4376366 -1.9369138,8.7127395 -1.9589844,9 L 2.0292969,9.3066406 C 2.0414704,9.1481954 2.0617335,8.976613 2.0878906,8.7988281 l 0.00195,-0.00977 c 0.00101,-0.00684 9.208e-4,-0.012664 0.00195,-0.019531 L 2.125,8.5761719 2.1621094,8.3789063 2.2050781,8.1835938 2.2519531,7.9921875 2.3027344,7.8007812 2.359375,7.6113281 2.4199219,7.4257812 2.484375,7.2402344 2.5625,7.0351562 C 2.6311974,6.8618419 2.7044023,6.6915137 2.7851563,6.5234375 2.8688512,6.3492362 2.9604216,6.1774773 3.0566406,6.0097656 3.1524544,5.8427574 3.2536078,5.6792395 3.3613281,5.5195312 3.4687311,5.3602911 3.5825129,5.2058339 3.7011719,5.0546875 3.8196183,4.9038099 3.943246,4.757245 4.0722656,4.6152344 4.2011939,4.4733228 4.3358208,4.3354202 4.4746094,4.203125 4.6074201,4.0765266 4.7435914,3.9530914 4.8847656,3.8359375 l 0.013672,-0.011719 c 0.00179,-0.00148 0.00407,-0.00243 0.00586,-0.00391 l 0.00586,-0.00391 z M 48,12.283203 v 8 h 4 v -8 z m -50,0.869141 v 8 h 4 v -8 z m 50,11.130859 v 8 h 4 v -8 z m -50,0.869141 v 8 h 4 v -8 z m 50,11.130859 v 3.705078 l -0.002,0.220703 -0.0078,0.207032 -0.01367,0.205078 -0.01758,0.203125 -0.02344,0.201172 -0.02734,0.201171 -0.0332,0.197266 -0.03711,0.197266 -0.04297,0.195312 -0.04687,0.191406 -0.05078,0.191407 -0.05664,0.189453 -0.06055,0.185547 -0.06445,0.185547 -0.06836,0.18164 -0.07422,0.181641 -0.07813,0.177734 -0.0039,0.0098 3.626953,1.6875 0.01367,-0.03125 a 2.0002,2.0002 0 0 0 0.02148,-0.04492 l 0.09766,-0.222656 a 2.0002,2.0002 0 0 0 0.01758,-0.04492 l 0.0918,-0.226563 a 2.0002,2.0002 0 0 0 0.01953,-0.04492 l 0.08594,-0.228515 a 2.0002,2.0002 0 0 0 0.01758,-0.04687 l 0.08008,-0.230469 a 2.0002,2.0002 0 0 0 0.01563,-0.04687 l 0.07617,-0.234375 a 2.0002,2.0002 0 0 0 0.01367,-0.04687 l 0.07031,-0.236328 a 2.0002,2.0002 0 0 0 0.01367,-0.04883 l 0.06445,-0.238281 a 2.0002,2.0002 0 0 0 0.01172,-0.04883 l 0.05859,-0.240234 a 2.0002,2.0002 0 0 0 0.01172,-0.04883 l 0.05273,-0.244141 a 2.0002,2.0002 0 0 0 0.0098,-0.04883 l 0.04687,-0.246094 a 2.0002,2.0002 0 0 0 0.0098,-0.04883 l 0.04102,-0.248047 a 2.0002,2.0002 0 0 0 0.0059,-0.04883 l 0.03516,-0.25 a 2.0002,2.0002 0 0 0 0.0059,-0.05078 l 0.0293,-0.25 a 2.0002,2.0002 0 0 0 0.0059,-0.05078 l 0.02148,-0.253906 a 2.0002,2.0002 0 0 0 0.0039,-0.05078 l 0.01563,-0.253906 a 2.0002,2.0002 0 0 0 0.0039,-0.05078 l 0.0098,-0.257813 a 2.0002,2.0002 0 0 0 0,-0.05078 L 52,40.025391 A 2.0002,2.0002 0 0 0 52,40 v -3.716797 z m -46.0058594,0.710938 -3.9882812,0.314453 c 0.077981,0.987273 -0.1145422,2.311225 0.056641,3.927734 a 2.0002,2.0002 0 0 0 0.00195,0.01563 l 0.029297,0.25 a 2.0002,2.0002 0 0 0 0.00586,0.05078 l 0.035156,0.25 a 2.0002,2.0002 0 0 0 0.00586,0.04883 l 0.041016,0.248047 a 2.0002,2.0002 0 0 0 0.00977,0.04883 l 0.046875,0.246094 a 2.0002,2.0002 0 0 0 0.00977,0.04883 l 0.052734,0.244141 a 2.0002,2.0002 0 0 0 0.011719,0.04883 l 0.058594,0.240234 a 2.0002,2.0002 0 0 0 0.011719,0.04883 l 0.064453,0.238281 a 2.0002,2.0002 0 0 0 0.013672,0.04883 l 0.070312,0.236328 a 2.0002,2.0002 0 0 0 0.013672,0.04687 l 0.076172,0.234375 a 2.0002,2.0002 0 0 0 0.015625,0.04687 l 0.080078,0.230469 a 2.0002,2.0002 0 0 0 0.00977,0.02344 c 0.1004245,0.275308 0.2096682,0.547306 0.33007812,0.814453 a 2.0002,2.0002 0 0 0 0.001953,0.002 c 0.14662939,0.324336 0.30953341,0.649226 0.49414062,0.972656 L 3.0273438,43.9375 C 2.913382,43.73784 2.8045944,43.525107 2.703125,43.300781 v -0.002 C 2.6233825,43.121799 2.5509032,42.942149 2.484375,42.759766 L 2.4199219,42.574219 2.359375,42.388672 2.3027344,42.199219 2.2519531,42.007812 2.2050781,41.816406 2.1621094,41.621094 2.125,41.423828 2.0917969,41.226562 2.0644531,41.025391 2.0410156,40.814453 c -0.1011723,-0.955388 0.078074,-2.238416 -0.046875,-3.820312 z m 43.4140624,8.912109 -0.04102,0.03711 c -0.136571,0.123347 -0.277164,0.241864 -0.421875,0.355469 -0.151146,0.118659 -0.305603,0.232441 -0.464843,0.339844 -0.159708,0.10772 -0.323226,0.208874 -0.490235,0.304687 -0.167711,0.09622 -0.33947,0.18779 -0.513672,0.271485 -0.168076,0.08075 -0.338404,0.153959 -0.511718,0.222656 l -0.205078,0.07813 -0.185547,0.06445 -0.185547,0.06055 -0.189453,0.05664 -0.191407,0.05078 -0.191406,0.04687 -0.195312,0.04297 -0.197266,0.03711 -0.197266,0.0332 -0.201171,0.02734 -0.201172,0.02344 -0.203125,0.01758 -0.230469,0.01367 c -0.253572,0.01297 -0.575347,0.0075 -0.96875,0.0098 l 0.02344,4 c 0.320386,-0.0019 0.714866,0.0097 1.179688,-0.01563 a 2.0002,2.0002 0 0 0 0.01758,-0.002 l 0.253906,-0.01563 a 2.0002,2.0002 0 0 0 0.05078,-0.0039 l 0.253906,-0.02148 a 2.0002,2.0002 0 0 0 0.05078,-0.0059 l 0.25,-0.0293 a 2.0002,2.0002 0 0 0 0.05078,-0.0059 l 0.25,-0.03516 a 2.0002,2.0002 0 0 0 0.04883,-0.0059 l 0.248047,-0.04102 a 2.0002,2.0002 0 0 0 0.04883,-0.0098 l 0.246094,-0.04687 a 2.0002,2.0002 0 0 0 0.04883,-0.0098 l 0.244141,-0.05273 a 2.0002,2.0002 0 0 0 0.04883,-0.01172 l 0.240234,-0.05859 a 2.0002,2.0002 0 0 0 0.04883,-0.01172 l 0.238281,-0.06445 a 2.0002,2.0002 0 0 0 0.04883,-0.01367 l 0.236328,-0.07031 a 2.0002,2.0002 0 0 0 0.04687,-0.01367 l 0.234375,-0.07617 a 2.0002,2.0002 0 0 0 0.04687,-0.01563 l 0.230469,-0.08008 a 2.0002,2.0002 0 0 0 0.04687,-0.01758 l 0.228515,-0.08594 a 2.0002,2.0002 0 0 0 0.02148,-0.0098 c 0.272146,-0.106933 0.54117,-0.223 0.804687,-0.34961 0.262034,-0.125894 0.519406,-0.261628 0.771485,-0.40625 0.251016,-0.144009 0.496491,-0.297218 0.736328,-0.458984 0.239129,-0.161286 0.472409,-0.331707 0.699219,-0.509766 0.226403,-0.177737 0.447152,-0.363122 0.660156,-0.55664 a 2.0002,2.0002 0 0 0 0.01758,-0.01563 l 0.03906,-0.03906 z m -40.298828,0.435547 -2.4316406,3.175781 0.1152344,0.08789 a 2.0002,2.0002 0 0 0 0.039063,0.0293 l 0.1933593,0.142578 a 2.0002,2.0002 0 0 0 0.039063,0.02734 l 0.1992188,0.136719 a 2.0002,2.0002 0 0 0 0.019531,0.01367 c 0.2398368,0.161766 0.4853124,0.314975 0.7363281,0.458984 0.2520789,0.144622 0.5094505,0.280356 0.7714844,0.40625 0.2635177,0.12661 0.5325415,0.242677 0.8046875,0.34961 a 2.0002,2.0002 0 0 0 0.021484,0.0098 l 0.2285156,0.08594 a 2.0002,2.0002 0 0 0 0.046875,0.01758 l 0.2304688,0.08008 a 2.0002,2.0002 0 0 0 0.046875,0.01563 l 0.234375,0.07617 a 2.0002,2.0002 0 0 0 0.046875,0.01367 L 6.6875,51.539062 a 2.0002,2.0002 0 0 0 0.048828,0.01367 l 0.2382813,0.06445 a 2.0002,2.0002 0 0 0 0.048828,0.01172 l 0.2402344,0.05859 a 2.0002,2.0002 0 0 0 0.048828,0.01172 l 0.2441406,0.05273 a 2.0002,2.0002 0 0 0 0.048828,0.0098 l 0.2460938,0.04687 a 2.0002,2.0002 0 0 0 0.048828,0.0098 l 0.2480469,0.04102 a 2.0002,2.0002 0 0 0 0.048828,0.0059 l 0.25,0.03516 a 2.0002,2.0002 0 0 0 0.050781,0.0059 l 0.25,0.0293 a 2.0002,2.0002 0 0 0 0.050781,0.0059 l 0.2539063,0.02148 a 2.0002,2.0002 0 0 0 0.050781,0.0039 l 0.2539063,0.01563 a 2.0002,2.0002 0 0 0 0.050781,0.0039 l 0.2578125,0.0098 a 2.0002,2.0002 0 0 0 0.050781,0 L 9.9746094,52 A 2.0002,2.0002 0 0 0 10,52 h 1.433594 v -4 h -1.421875 l -0.2207034,-0.002 -0.2070312,-0.0078 -0.2050781,-0.01367 -0.203125,-0.01758 L 8.9746094,47.935547 8.7734375,47.908203 8.5761719,47.875 8.3789063,47.837891 8.1835938,47.794922 7.9921875,47.748047 7.8007812,47.697266 7.6113281,47.640625 7.4257812,47.580078 7.2402344,47.515625 7.0351562,47.4375 C 6.8618419,47.368803 6.6915137,47.295598 6.5234375,47.214844 6.3492362,47.131149 6.1774773,47.039578 6.0097656,46.943359 5.8496452,46.851497 5.6924929,46.755164 5.5390625,46.652344 L 5.5195312,46.638672 5.3613281,46.529297 5.2070312,46.416016 Z M 15.433594,48 v 4 h 8 v -4 z m 12,0 v 4 h 8 v -4 z"
       id="rect1" />
    <path
       id="text1"
       style="font-size:38.8056px;line-height:1;font-family:Zinfandel;-inkscape-font-specification:Zinfandel;text-align:center;letter-spacing:0px;text-anchor:middle;fill:#f16d44;fill-opacity:1;stroke:#f16d44;stroke-width:2;stroke-linejoin:round;stroke-miterlimit:3.1;stroke-dasharray:none;stroke-dashoffset:0;stroke-opacity:1"
       d="M 22.399591 11.947469 C 22.254071 11.947469 22.100844 11.955588 21.939154 11.971757 C 21.777465 11.987926 21.607484 12.012283 21.429625 12.044621 C 19.246812 12.351831 17.468397 12.582446 16.094033 12.736051 C 14.71967 12.889657 13.749531 12.966012 13.183616 12.966012 C 12.439843 12.966012 10.774576 12.917815 8.187539 12.820801 L 7.8960839 13.839343 C 7.79907 14.178892 7.7346353 14.518337 7.7022973 14.857886 C 7.6861283 15.02766 7.6780094 15.197641 7.6780094 15.367415 C 7.6780094 15.53719 7.6861283 15.706654 7.7022973 15.876428 C 7.7103818 15.957273 7.7223018 16.033065 7.7384708 16.103805 C 7.8193157 16.457501 8.0012167 16.684877 8.2841739 16.785933 C 8.3973568 16.826356 8.5267431 16.846912 8.6722639 16.846912 C 9.5453891 16.846912 10.628676 16.750001 11.922195 16.555973 L 11.922195 38.384098 L 15.803095 39.645003 C 15.835433 39.353962 15.856551 39.080031 15.866657 38.823348 C 15.876762 38.566665 15.875683 38.327369 15.863556 38.105046 C 15.85143 37.882722 15.828152 37.677544 15.793793 37.489579 C 15.759434 37.301615 15.713959 37.130554 15.657367 36.976949 C 15.60886 36.815259 15.544426 36.003182 15.463581 34.539889 C 15.382736 33.076596 15.285308 30.962536 15.172126 28.19764 C 15.236802 28.294654 15.301753 28.375327 15.366429 28.440002 C 15.398767 28.431918 15.438845 28.434077 15.487352 28.446204 C 15.535859 28.45833 15.592691 28.480528 15.657367 28.512866 C 15.722043 28.545204 15.794597 28.587441 15.875442 28.63999 C 15.956287 28.692539 16.045595 28.755332 16.142609 28.828092 C 16.352806 28.973613 16.534707 29.078643 16.688312 29.143319 C 16.841917 29.207995 16.966986 29.232351 17.064 29.216182 L 23.951951 36.5408 L 24.097679 36.395072 C 25.148663 35.651299 25.843791 35.056883 26.18334 34.612236 C 26.310671 34.445493 26.388082 34.300248 26.415367 34.17557 C 26.424462 34.13401 26.427723 34.094633 26.425702 34.057747 C 26.423681 34.020862 26.416102 33.986089 26.402965 33.953878 C 26.37669 33.889454 26.328493 33.834758 26.257754 33.78903 C 26.222384 33.766166 26.18125 33.745208 26.134764 33.727018 C 26.062004 33.69468 25.975371 33.643245 25.874315 33.572506 C 25.672202 33.431027 25.41343 33.212849 25.098135 32.917765 C 24.940487 32.770223 24.768347 32.603481 24.582404 32.417537 C 23.838631 31.673764 22.997878 30.816774 22.060077 29.846635 C 21.154614 28.844158 20.459486 28.132792 19.974416 27.712398 C 20.16036 27.671976 20.34171 27.628131 20.518053 27.58114 C 20.694395 27.534149 20.866007 27.483805 21.03275 27.430245 C 21.532978 27.269566 21.989901 27.079534 22.403726 26.859737 C 22.81755 26.63994 23.187864 26.390377 23.515286 26.111462 C 23.628468 26.014449 23.739446 25.909408 23.848082 25.795719 C 23.956717 25.682031 24.063354 25.559696 24.167442 25.429333 C 24.583793 24.907884 24.963833 24.25335 25.307424 23.465112 C 25.47922 23.070993 25.641644 22.643319 25.79525 22.182503 C 25.876095 21.948053 25.951887 21.716347 26.022626 21.487455 C 26.093365 21.258563 26.15888 21.032795 26.219513 20.80946 C 26.280147 20.586126 26.3359 20.365261 26.386428 20.147485 C 26.487484 19.711933 26.568157 19.287498 26.628791 18.874178 C 26.659107 18.667518 26.684544 18.463431 26.704755 18.262329 C 26.724966 18.061227 26.740125 17.863077 26.75023 17.667533 C 26.760336 17.47199 26.765216 17.27926 26.765216 17.089274 C 26.773301 16.709303 26.75758 16.34766 26.717157 16.004069 C 26.676735 15.660478 26.611783 15.335112 26.522854 15.027901 C 26.478389 14.874296 26.428033 14.724894 26.371442 14.580383 C 26.314851 14.435873 26.252058 14.296186 26.18334 14.160771 C 26.114622 14.025355 26.039909 13.89435 25.959064 13.76803 C 25.878219 13.64171 25.79107 13.519903 25.698098 13.402677 C 25.520239 13.160143 25.318299 12.947925 25.091934 12.766024 C 24.978751 12.675073 24.859642 12.591702 24.734333 12.51591 C 24.609023 12.440118 24.477478 12.371905 24.340041 12.311271 C 23.927732 12.12937 23.46106 12.015682 22.93961 11.970207 C 22.765794 11.955048 22.585535 11.947469 22.399591 11.947469 z M 21.623928 14.955037 C 22.044322 14.955037 22.46444 15.197572 22.884833 15.682642 C 22.989932 15.803909 23.089001 15.933295 23.181973 16.070732 C 23.274944 16.208168 23.362094 16.353792 23.442939 16.507397 C 23.604628 16.814608 23.741617 17.154053 23.8548 17.52594 C 23.911391 17.711883 23.961184 17.898665 24.003628 18.086629 C 24.046071 18.274594 24.081269 18.463534 24.109565 18.65352 C 24.166156 19.033491 24.194831 19.417849 24.194831 19.805904 C 24.194831 19.999932 24.178593 20.191594 24.146255 20.38158 C 24.130086 20.476572 24.10953 20.571301 24.085277 20.665283 C 24.03677 20.853248 23.972335 21.03895 23.89149 21.222872 C 23.851068 21.314833 23.806672 21.406323 23.758165 21.497274 C 23.661151 21.679175 23.548003 21.859434 23.418651 22.037292 C 23.358017 22.126222 23.293605 22.211775 23.225898 22.294641 C 23.022775 22.543239 22.787819 22.764655 22.521031 22.958683 C 22.432102 23.023359 22.339532 23.085072 22.243529 23.143685 C 22.051522 23.26091 21.845781 23.365939 21.625478 23.458911 C 21.515327 23.505397 21.401639 23.548713 21.284414 23.589136 C 21.106555 23.645727 20.926296 23.698242 20.744395 23.746749 C 20.198692 23.89227 19.635109 24.001617 19.053026 24.074377 C 18.309252 24.171391 17.500459 24.235826 16.627334 24.268164 L 15.026915 24.268164 C 14.962239 22.8938 14.905406 21.551741 14.856899 20.242053 C 14.808392 18.932366 14.768314 17.655257 14.735977 16.410246 L 13.183616 16.313094 C 14.105249 16.086728 14.972 15.888589 15.784491 15.718815 C 16.190737 15.633928 16.583753 15.556494 16.962714 15.485754 C 18.099596 15.273536 19.11359 15.124674 20.004906 15.039787 C 20.302011 15.011491 20.585163 14.990373 20.854983 14.976225 C 21.124803 14.962077 21.381393 14.955037 21.623928 14.955037 z M 36.418374 21.940141 C 34.704462 21.940141 32.861095 22.845328 30.888479 24.656254 C 30.306396 25.206 29.773129 25.820455 29.28806 26.499552 C 28.835328 27.146312 28.463407 27.938867 28.172366 28.876668 C 27.913662 29.782131 27.84871 30.703556 27.978062 31.641357 C 28.139752 32.579158 28.608584 33.598011 29.384695 34.697502 C 30.193144 35.764655 31.341383 36.78299 32.828929 37.753129 C 34.510503 38.787944 36.337632 38.91733 38.310248 38.141219 C 40.282864 37.33277 41.624924 35.942513 42.336359 33.969897 C 42.627401 33.193786 42.821222 32.563093 42.918236 32.078023 C 43.047587 31.592954 43.112539 30.96226 43.112539 30.186149 C 43.144877 29.410038 42.983015 28.601761 42.627297 27.760974 C 42.303918 26.887849 41.80261 25.950186 41.123513 24.947709 C 39.765319 22.942755 38.196962 21.940141 36.418374 21.940141 z M 35.739346 24.850557 C 36.095063 24.818219 36.531419 24.947606 37.048826 25.238647 C 37.598572 25.529689 38.116117 25.933569 38.601186 26.450977 C 39.086256 26.968384 39.474415 27.615315 39.765456 28.391427 C 40.056498 29.167538 40.120933 29.960093 39.959243 30.768542 C 39.926905 30.80088 39.878708 30.994701 39.814032 31.350419 C 39.749356 31.673799 39.700643 31.883858 39.668305 31.980872 C 39.668305 32.045548 39.619591 32.239885 39.522577 32.563265 C 39.457901 32.854307 39.393467 33.048128 39.328791 33.145142 C 39.296453 33.242156 39.21578 33.420255 39.086428 33.678959 C 38.989414 33.937663 38.876266 34.115246 38.746914 34.21226 L 38.358824 34.60035 C 38.197134 34.76204 38.019034 34.891426 37.825006 34.98844 C 37.630979 35.053116 37.404682 35.133789 37.145978 35.230802 C 36.887274 35.295478 36.612264 35.327954 36.321222 35.327954 C 35.286407 35.424968 34.38122 35.182433 33.605109 34.60035 C 32.861336 33.985929 32.327553 33.307038 32.004173 32.563265 C 31.713131 31.819492 31.551269 31.07565 31.518931 30.331877 C 31.486593 29.458752 31.987901 28.359227 33.022716 27.03337 C 34.089869 25.707513 34.995572 24.979909 35.739346 24.850557 z " />
  </g>
</svg>
