<?xml version="1.0" encoding="UTF-8" standalone="no"?>
<!-- Created with Inkscape (http://www.inkscape.org/) -->

<svg
   width="137.52626"
   height="119.95586"
   viewBox="0 0 36.387154 31.738322"
   version="1.1"
   id="svg1"
   xml:space="preserve"
   inkscape:version="1.3 (0e150ed6c4, 2023-07-21)"
   sodipodi:docname="klepon_balled_up.svg"
   xmlns:inkscape="http://www.inkscape.org/namespaces/inkscape"
   xmlns:sodipodi="http://sodipodi.sourceforge.net/DTD/sodipodi-0.dtd"
   xmlns="http://www.w3.org/2000/svg"
   xmlns:svg="http://www.w3.org/2000/svg"><sodipodi:namedview
     id="namedview1"
     pagecolor="#ffffff"
     bordercolor="#000000"
     borderopacity="0.25"
     inkscape:showpageshadow="2"
     inkscape:pageopacity="0.0"
     inkscape:pagecheckerboard="0"
     inkscape:deskcolor="#d1d1d1"
     inkscape:document-units="px"
     inkscape:zoom="1.3701319"
     inkscape:cx="-58.753469"
     inkscape:cy="-47.805617"
     inkscape:window-width="1920"
     inkscape:window-height="974"
     inkscape:window-x="-11"
     inkscape:window-y="-11"
     inkscape:window-maximized="1"
     inkscape:current-layer="layer5" /><defs
     id="defs1" /><g
     inkscape:groupmode="layer"
     id="layer4"
     inkscape:label="Layer 4"
     transform="translate(0.48277,0.54208545)"><path
       style="opacity:1;fill:#6ab035;fill-opacity:1;stroke-width:1.4;stroke-linejoin:round;stroke-miterlimit:3.1"
       d="m 28.821357,2.1966026 c 0,0 3.86216,2.1966026 4.779423,7.3622395 0.91726,5.1656369 0.77243,6.5173929 0.77243,6.5173929 l -2.896619,8.062255 c 0,0 -6.131176,5.841515 -9.220903,5.60013 -3.089727,-0.241385 -9.510565,0.337939 -10.620936,-0.04828 -1.11037,-0.386217 -6.7105,-2.172464 -8.1588093,-4.97253 -1.4483095,-2.800065 -2.3655722,-6.903608 -2.3655722,-6.903608 0,0 0.3379389,-7.627763 1.2069246,-8.8346876 C 3.1862806,7.7725938 5.8897917,3.3311117 8.5450255,2.8483418 11.20026,2.365572 15.931404,2.8966188 17.717652,2.751788 19.5039,2.606957 24.235044,1.2552015 24.235044,1.2552015 Z"
       id="path6" /></g><g
     inkscape:groupmode="layer"
     id="layer3"
     inkscape:label="Layer 3"
     transform="translate(0.48277,0.54208545)"><path
       style="opacity:1;fill:#57912c;fill-opacity:1;stroke-width:1.4;stroke-linejoin:round;stroke-miterlimit:3.1"
       d="m 5.4863642,11.714776 c -0.2885269,0.72 -2.1479229,0.27 -0.4808783,3.059998 1.6670449,2.789999 3.3239381,3.909903 4.4120409,3.994754 1.0881042,0.08485 1.1787792,-0.169705 1.9495182,0.721249 0.770741,0.890954 1.949519,1.357644 1.224117,1.527351 -0.725403,0.169706 -2.538908,-0.890955 -0.680065,0.254557 1.858843,1.145513 3.400324,2.12132 3.536336,2.630436 0.136013,0.509117 1.178778,0.848529 -1.994857,1.866762 -3.173634,1.018233 -4.5791012,-0.169705 -3.44566,0.509117 1.133441,0.678822 4.125725,0.254559 3.309648,0.890954 -0.816077,0.636395 -3.8990372,-0.169706 -3.8536996,0.127279 0.04534,0.296985 2.1308686,1.145512 -0.6347272,0.848526 -2.7655956,-0.296982 -7.7073981,-3.478962 -5.9392303,-3.945653 1.7681678,-0.46669 4.1257251,1.527351 2.4935699,0 -1.6321548,-1.527349 -3.8536991,0.424264 -3.8990367,-2.884994 -0.045338,-3.309258 -0.362701,-5.430578 0.7707398,-3.691096 1.133441,1.739482 2.1762066,4.11536 2.0401938,2.630436 -0.136013,-1.484924 -2.6496971,-4.302274 -1.7429443,-7.14484 0.9067526,-2.842568 1.289568,-1.594996 1.9696326,-2.061686 0.6800645,-0.466691 1.4054668,-1.0606594 1.3601289,-0.296985 -0.045338,0.763675 -0.3948267,0.963835 -0.3948267,0.963835 z"
       id="path2"
       sodipodi:nodetypes="cscsssssssssssssssssc" /><path
       style="opacity:1;fill:#57912c;fill-opacity:1;stroke-width:1.4;stroke-linejoin:round;stroke-miterlimit:3.1"
       d="m 33.871424,14.565546 c 0,0 -0.717817,-2.775295 -1.471526,-2.168199 -0.753709,0.607096 0.215346,3.469117 -0.466581,4.119577 -0.681927,0.65046 -0.825491,-0.260184 -0.969055,-0.910644 -0.143563,-0.650459 -1.292072,-0.650459 -2.081672,1.777924 -0.789599,2.428382 -4.414579,1.084099 -3.983889,2.51511 0.430691,1.431012 1.256182,2.645203 2.620036,1.821288 1.363853,-0.823916 1.5792,-2.948751 2.045781,-2.688567 0.466582,0.260184 1.758654,1.821287 0.43069,2.818658 -1.327962,0.997372 -2.83538,0.823916 -2.189344,1.431012 0.646036,0.607096 1.615089,0.563732 1.435635,1.821287 -0.179454,1.257556 -0.681927,2.168199 0.323019,1.431012 1.004945,-0.737188 2.620035,-2.1682 3.553199,-4.553218 0.933161,-2.38502 1.399744,-5.76741 1.22029,-6.287778 -0.179455,-0.520367 -0.466583,-1.127462 -0.466583,-1.127462 z"
       id="path3" /><path
       style="opacity:1;fill:#a2dd7e;fill-opacity:1;stroke-width:1.4;stroke-linejoin:round;stroke-miterlimit:3.1"
       d="m 26.928252,5.1211874 c -0.236256,-0.1476598 -0.338876,-0.5455992 -0.870451,-0.014024 -0.531575,0.5315753 -1.949109,1.2108103 -2.657876,1.388002 -0.708767,0.1771918 -0.767831,1.0336187 0.649703,0.8564269 1.417534,-0.1771917 2.632849,0.2541697 3.607404,0.2837018 0.974554,0.029532 2.111354,-1.5908883 0.900545,-2.2110594 -1.210811,-0.6201711 -1.40332,-0.1617942 -1.629325,-0.3030473 z"
       id="path4"
       sodipodi:nodetypes="sssssss" /><path
       style="opacity:1;fill:#a2dd7e;fill-opacity:1;stroke-width:1.4;stroke-linejoin:round;stroke-miterlimit:3.1"
       d="m 29.699173,7.834437 c -0.375507,0.1024109 -0.716878,0.2389589 -0.546192,0.9046299 0.170685,0.6656713 0.358439,1.1265204 0.358439,1.7751231 0,0.648602 0.716875,1.194794 1.041177,-0.102411 C 30.8769,9.1145739 29.699173,7.834437 29.699173,7.834437 Z"
       id="path5" /><path
       style="opacity:1;fill:#57912c;fill-opacity:1;stroke-width:1.4;stroke-linejoin:round;stroke-miterlimit:3.1"
       d="M 12.069245,4.3207898 C 11.103705,4.2966519 8.3277793,4.731144 8.9795184,5.4070218 9.6312578,6.0828996 10.500243,4.6345901 9.3898728,6.203592 8.2795021,7.7725938 6.7346387,10.23472 9.5588421,8.569164 12.383045,6.9036083 13.010646,4.8518366 12.745123,4.5863132 12.4796,4.3207898 12.069245,4.3207898 12.069245,4.3207898 Z"
       id="path7" /><path
       style="opacity:1;fill:#57912c;fill-opacity:1;stroke-width:1.4;stroke-linejoin:round;stroke-miterlimit:3.1"
       d="m 19.548759,24.524995 c 0.567215,0.255247 3.573452,3.460009 3.771977,1.900169 0.198525,-1.55984 0.141803,-2.212136 -0.992626,-2.495744 -1.134429,-0.283607 -2.523847,-1.461574 -3.233122,-0.623936 -0.280283,0.331007 -0.83008,0.641779 0.453771,1.219511 z"
       id="path8"
       sodipodi:nodetypes="sssas" /><path
       style="opacity:1;fill:#57912c;fill-opacity:1;stroke-width:1.4;stroke-linejoin:round;stroke-miterlimit:3.1"
       d="m 14.200984,4.0623006 c 0.204822,0.5120548 0.06827,3.9257529 3.345424,4.0281639 3.27715,0.1024109 1.365479,-1.1606575 2.423726,-1.8092602 1.058246,-0.6486024 1.604438,0.6827398 3.27715,-1.3996161 1.672712,-2.0823557 3.823341,-3.3112871 0.648602,-2.3554516 -3.174739,0.9558355 -7.953916,0.8534245 -7.953916,0.8534245 z"
       id="path9" /><path
       style="opacity:1;fill:#57912c;fill-opacity:1;stroke-width:1.4;stroke-linejoin:round;stroke-miterlimit:3.1"
       d="m 13.654792,6.7591222 c 0,0 -0.136548,1.8092599 0.03414,2.8333693 0.170685,1.0241095 -1.160657,2.0823555 0.273096,1.1947945 1.433753,-0.8875616 0.648603,-1.9799449 0.512055,-2.7992325 -0.136548,-0.8192875 0,-1.9799449 -0.375507,-1.7751231 -0.375507,0.2048219 -0.443781,0.5461918 -0.443781,0.5461918 z"
       id="path10" /><path
       style="opacity:1;fill:#6ab035;fill-opacity:1;stroke-width:1.4;stroke-linejoin:round;stroke-miterlimit:3.1"
       d="M 12.688461,17.717062 C 11.191875,17.28257 5.108975,11.392779 6.895224,16.172199 c 1.786248,4.779421 2.848341,2.751788 2.606956,5.213914 -0.241384,2.462126 -5.26219,3.138004 -0.579323,3.186281 4.682867,0.04828 3.813881,-1.834526 4.827698,-2.269018 1.013817,-0.434493 4.248375,-2.848342 2.365571,-3.862159 -1.882801,-1.013817 -3.427665,-0.724155 -3.427665,-0.724155 z"
       id="path11" /></g><g
     inkscape:groupmode="layer"
     id="layer2"
     inkscape:label="Layer 2"
     transform="translate(0.48277,0.54208545)"><path
       id="path1"
       style="opacity:1;fill:#111b09;fill-opacity:1;stroke-width:1.4;stroke-linejoin:round;stroke-miterlimit:3.1"
       d="m 117.51425,136.94345 c -2.08798,0.0241 -3.75979,-0.17712 -4.39946,0.30564 -0.63967,0.48277 -1.27928,0.65149 -2.07585,0.62736 -0.79656,-0.0241 -1.68981,0.30179 -1.68981,0.30179 0,0 -0.0713,-0.32712 -0.79541,-0.3754 -0.72416,-0.0483 -1.15967,1.2445 -1.9321,1.02726 -0.96554,-0.65174 -5.10623,-1.81615 -9.953675,2.28029 -4.847446,4.09644 -4.99208,10.73104 -4.99208,14.48611 0,3.75506 1.909388,6.22609 1.909388,6.22609 0,0 -0.349904,-0.0425 0,0.8878 0.349903,0.93023 1.262835,0.71658 1.416451,0.90433 0.153617,0.18775 6.569646,5.21255 16.435226,3.74466 9.86557,-1.46789 9.83583,-3.92649 11.84992,-5.49679 2.01408,-1.5703 5.29338,-12.04725 3.44998,-16.14369 -1.84339,-4.09643 -3.31885,-6.18196 -4.30853,-6.8337 -0.98967,-0.65174 -2.82607,-1.96587 -4.91405,-1.94175 z m -1.32687,2.03328 c 0.41705,-5e-5 0.83402,0.0381 1.24437,0.12558 3.28284,0.70001 6.54166,3.93473 7.53133,7.12101 0.98967,3.18627 0.60305,11.51435 -2.31769,13.90406 -2.92076,2.38971 -3.69279,3.23428 -4.44107,3.37912 -0.7483,0.14483 -1.30359,-0.16873 -1.52084,0.2899 -0.21725,0.45863 0.60334,0.77201 -0.60358,1.18236 -1.20693,0.41036 -10.83828,2.96903 -17.210838,-1.08624 -6.372555,-4.05526 -5.986121,-12.3104 -4.972306,-14.8208 1.013816,-2.5104 2.751699,-6.2761 5.744869,-8.11061 2.993165,-1.83453 6.034775,-0.67593 6.034775,-0.67593 0,0 -3.01765,0.33795 -2.55902,1.08624 0.45863,0.74829 0.70005,0.86897 1.4242,0.74827 0.72416,-0.12069 3.983,-0.89313 4.94854,-1.08624 0.84485,-0.16897 3.77793,-2.05639 6.69726,-2.05672 z"
       transform="translate(-91.868973,-137.05075)"
       sodipodi:nodetypes="ssccccssccssssssscsccsscsccscss" /></g><g
     inkscape:groupmode="layer"
     id="layer5"
     inkscape:label="Layer 5" /></svg>
