<?xml version="1.0" encoding="UTF-8" standalone="no"?>
<!-- Created with Inkscape (http://www.inkscape.org/) -->

<svg
   width="632"
   height="947.99994"
   viewBox="0 0 167.21666 250.82499"
   version="1.1"
   id="svg1"
   xml:space="preserve"
   inkscape:version="1.3 (0e150ed6c4, 2023-07-21)"
   sodipodi:docname="frame_thick.svg"
   xmlns:inkscape="http://www.inkscape.org/namespaces/inkscape"
   xmlns:sodipodi="http://sodipodi.sourceforge.net/DTD/sodipodi-0.dtd"
   xmlns="http://www.w3.org/2000/svg"
   xmlns:svg="http://www.w3.org/2000/svg"><sodipodi:namedview
     id="namedview1"
     pagecolor="#cab1f8"
     bordercolor="#000000"
     borderopacity="0.25"
     inkscape:showpageshadow="2"
     inkscape:pageopacity="0.0"
     inkscape:pagecheckerboard="0"
     inkscape:deskcolor="#d1d1d1"
     inkscape:document-units="px"
     inkscape:zoom="0.32917017"
     inkscape:cx="288.60452"
     inkscape:cy="110.88489"
     inkscape:window-width="1920"
     inkscape:window-height="974"
     inkscape:window-x="-11"
     inkscape:window-y="-11"
     inkscape:window-maximized="1"
     inkscape:current-layer="layer2" /><defs
     id="defs1" /><g
     inkscape:groupmode="layer"
     id="layer2"
     inkscape:label="Layer 2"
     transform="translate(-0.08213437,-0.01383062)"><path
       id="path1"
       style="opacity:1;fill:#111b09;fill-opacity:1;stroke-width:2.11701;stroke-linejoin:round;stroke-miterlimit:3.1;paint-order:markers stroke fill"
       d="M 4.6353383,0.02808961 C 1.5821841,0.19839742 1.638246,1.8478848 0.7294002,4.4743185 -0.47753755,7.9621953 0.39049184,42.338964 0.30202127,44.45024 0.12817974,48.598827 1.1617299,86.954054 2.0222215,103.67463 c 0.4099934,7.96675 1.971502,28.97025 1.5263532,35.49881 -0.4451494,6.52856 -0.8897555,68.51307 -1.6316717,74.36627 -0.7419149,5.85319 0.077837,36.39771 1.0944906,37.20142 0.4748932,0.37544 5.6565746,-0.43136 7.7339364,-0.73154 2.077362,-0.30016 45.479612,-3.37726 70.259569,-3.30225 24.779971,0.075 69.146931,3.75156 75.008061,3.37636 5.86112,-0.37521 8.30962,-1.72473 9.27412,-4.05101 0.96448,-2.32627 1.4852,-41.55858 1.90489,-48.98726 0.41969,-7.42866 -0.52548,-62.0835 -0.6304,-70.25504 -0.10497,-8.17155 -2.57037,-80.175702 -2.57037,-80.175702 0,0 -0.26258,-19.778023 0.10834,-30.283759 C 164.4705,5.8251941 163.50572,3.3496906 161.79932,1.9239122 160.09292,0.49813394 153.26787,2.3744886 147.33255,1.7741605 141.39726,1.1738331 114.83709,1.6231959 104.52448,1.473114 94.211859,1.3230321 67.650453,2.6736067 44.947855,2.5985657 22.245258,2.5235248 10.746301,0.34832327 6.1464281,0.04815939 5.5714439,0.0106389 5.0715033,0.00375992 4.6353383,0.02808961 Z M 154.01954,3.1805892 c 3.88578,-0.093801 7.22376,0.1680615 7.26086,1.6688801 0.0742,3.0016385 0.81687,30.9927207 1.03944,35.0449287 0.22257,4.052214 1.18663,37.821406 0.88987,41.723538 -0.29677,3.902134 1.48361,40.446634 1.48361,43.673394 0,3.22676 0.74187,51.10341 0.3709,56.2062 -0.37095,5.10279 -0.74164,58.0803 -1.85451,60.93186 -1.11287,2.85156 -2.44855,4.2779 -4.74849,4.65311 -2.29993,0.3752 -21.58991,0.0754 -30.41869,-1.27521 -8.82879,-1.35073 -66.772628,-2.47607 -71.966035,-1.87575 -5.193405,0.60033 -30.862862,1.72599 -30.862862,1.72599 -1.261255,0 -16.1000329,0.97505 -17.806437,1.27521 -1.7064045,0.30016 -2.373806,0.52512 -2.2254233,-0.9757 0.1483838,-1.50082 -0.07479,-37.37016 -0.07479,-44.27394 0,-6.90377 0.9646551,-57.03189 0.9646551,-63.11021 0,-6.07831 -2.5224087,-56.430502 -2.8191746,-61.833455 C 2.9556977,71.336483 1.3998148,32.646798 1.7220389,19.950808 1.8397277,15.313736 2.8806366,2.9745993 5.0321901,3.2747631 7.1837438,3.574927 48.435444,4.7002704 64.089851,5.1505159 79.744261,5.6007617 91.614064,3.4250125 103.63309,4.2504633 c 12.01902,0.8254504 35.38938,-0.7506321 39.84087,-0.6005497 2.22575,0.075043 6.6598,-0.3755228 10.54558,-0.4693244 z"
       sodipodi:nodetypes="ssssssssssssscssssssssssssssssscsssssssssss"
       inkscape:export-filename="frame_thick-o.svg"
       inkscape:export-xdpi="96"
       inkscape:export-ydpi="96"
       inkscape:label="o" /></g></svg>
