<?xml version="1.0" encoding="UTF-8" standalone="no"?>
<!-- Created with Inkscape (http://www.inkscape.org/) -->

<svg
   width="628.54663"
   height="934.14996"
   viewBox="0 0 166.30296 247.16052"
   version="1.1"
   id="svg1"
   xml:space="preserve"
   inkscape:version="1.3 (0e150ed6c4, 2023-07-21)"
   sodipodi:docname="frame_thick.svg"
   xmlns:inkscape="http://www.inkscape.org/namespaces/inkscape"
   xmlns:sodipodi="http://sodipodi.sourceforge.net/DTD/sodipodi-0.dtd"
   xmlns="http://www.w3.org/2000/svg"
   xmlns:svg="http://www.w3.org/2000/svg"><sodipodi:namedview
     id="namedview1"
     pagecolor="#cab1f8"
     bordercolor="#000000"
     borderopacity="0.25"
     inkscape:showpageshadow="2"
     inkscape:pageopacity="0.0"
     inkscape:pagecheckerboard="0"
     inkscape:deskcolor="#d1d1d1"
     inkscape:document-units="px"
     inkscape:zoom="0.32917017"
     inkscape:cx="288.60452"
     inkscape:cy="110.88489"
     inkscape:window-width="1920"
     inkscape:window-height="974"
     inkscape:window-x="-11"
     inkscape:window-y="-11"
     inkscape:window-maximized="1"
     inkscape:current-layer="layer2" /><defs
     id="defs1" /><g
     inkscape:groupmode="layer"
     id="layer2"
     inkscape:label="Layer 2"
     transform="translate(-0.44145798,-1.7350041)"><path
       style="opacity:1;fill:#ffffff;fill-opacity:1;stroke-width:2.11701;stroke-linejoin:round;stroke-miterlimit:3.1;paint-order:markers stroke fill"
       d="M 5.9313599,1.792257 C 3.7309782,1.3742909 2.14088,3.314654 1.8571991,5.3361873 0.71403458,12.849946 0.42620937,25.141463 0.44206974,35.085557 0.76959662,66.76288 2.9490519,98.442296 4.0946472,130.06838 c 0.5519501,28.93698 -0.8501733,57.93966 -0.6282156,86.92047 0.091929,10.09223 -0.153948,20.20855 0.3359779,30.28551 0.968345,2.34939 3.8362371,1.12282 5.7222158,1.12022 7.5126997,-1.30996 15.2080017,-0.65607 22.7654437,-1.71015 8.886522,-0.36956 17.89938,-0.62946 26.696959,-1.18819 17.80188,-0.27174 35.710749,0.42368 53.528822,0.94127 8.93687,0.25783 17.80852,1.2264 26.76443,1.40846 4.12668,1.02737 8.48678,0.81047 12.71787,1.04956 3.40364,-0.17666 7.44283,0.56187 10.24849,-1.85392 2.64469,-2.31564 2.9759,-5.98987 2.87088,-9.29448 -0.10329,-4.69595 0.19338,-9.35672 0.32919,-14.05558 -0.0959,-4.90568 0.6876,-9.91635 0.5881,-14.91002 0.12227,-11.01904 0.42018,-21.99983 0.70962,-32.99957 -0.006,-29.01103 -0.83336,-58.03799 -1.73683,-87.009751 -0.50762,-22.66554 -1.75077,-45.177747 -1.76248,-67.997382 -0.31118,-5.537452 0.0907,-11.1754216 -0.67795,-16.6867833 -0.79949,-2.7281175 -4.75263,-1.570168 -6.91424,-1.6603643 C 140.14908,2.379647 125.28108,2.8687621 109.80188,2.6092384 98.329858,2.4485079 86.793508,2.7812384 75.403163,3.2499965 61.356327,3.4928935 47.247683,3.9611461 33.272692,3.4132605 24.177995,2.810932 15.058392,1.9740255 5.9313599,1.792257 Z M 165.10127,228.40506 c -0.0692,0.13982 0.0586,-0.14382 0,0 z m -26.16993,19.19409 c -0.0706,-0.0186 -0.29843,-0.27037 0,0 z"
       id="path2"
       sodipodi:nodetypes="ccccccccccccccccccccccccccccc"
       inkscape:export-filename="frame_thick-f.svg"
       inkscape:export-xdpi="96"
       inkscape:export-ydpi="96"
       inkscape:label="f" /></g></svg>
