<?xml version="1.0" encoding="UTF-8" standalone="no"?>
<!-- Created with Inkscape (http://www.inkscape.org/) -->

<svg
   width="45.416584mm"
   height="150.84752mm"
   viewBox="0 0 45.416584 150.84752"
   version="1.1"
   id="svg1"
   inkscape:version="1.3 (0e150ed6c4, 2023-07-21)"
   sodipodi:docname="bar.svg"
   inkscape:export-filename="bar.png"
   inkscape:export-xdpi="96"
   inkscape:export-ydpi="96"
   xmlns:inkscape="http://www.inkscape.org/namespaces/inkscape"
   xmlns:sodipodi="http://sodipodi.sourceforge.net/DTD/sodipodi-0.dtd"
   xmlns:xlink="http://www.w3.org/1999/xlink"
   xmlns="http://www.w3.org/2000/svg"
   xmlns:svg="http://www.w3.org/2000/svg">
  <sodipodi:namedview
     id="namedview1"
     pagecolor="#8853eb"
     bordercolor="#000000"
     borderopacity="0.25"
     inkscape:showpageshadow="2"
     inkscape:pageopacity="0.0"
     inkscape:pagecheckerboard="0"
     inkscape:deskcolor="#d1d1d1"
     inkscape:document-units="mm"
     inkscape:zoom="1.3166807"
     inkscape:cx="45.189392"
     inkscape:cy="134.04921"
     inkscape:window-width="1920"
     inkscape:window-height="974"
     inkscape:window-x="-11"
     inkscape:window-y="-11"
     inkscape:window-maximized="1"
     inkscape:current-layer="layer1" />
  <defs
     id="defs1">
    <linearGradient
       id="linearGradient5"
       inkscape:collect="always">
      <stop
         style="stop-color:#f9f293;stop-opacity:1;"
         offset="0"
         id="stop5" />
      <stop
         style="stop-color:#eeeccb;stop-opacity:1;"
         offset="1"
         id="stop6" />
    </linearGradient>
    <linearGradient
       id="linearGradient3"
       inkscape:collect="always">
      <stop
         style="stop-color:#f91d1d;stop-opacity:1;"
         offset="0"
         id="stop3" />
      <stop
         style="stop-color:#f91d1d;stop-opacity:0;"
         offset="1"
         id="stop4" />
    </linearGradient>
    <linearGradient
       id="linearGradient1"
       inkscape:collect="always">
      <stop
         style="stop-color:#06e72f;stop-opacity:1;"
         offset="0"
         id="stop1" />
      <stop
         style="stop-color:#06e72f;stop-opacity:0;"
         offset="1"
         id="stop2" />
    </linearGradient>
    <pattern
       id="EMFhbasepattern"
       patternUnits="userSpaceOnUse"
       width="6"
       height="6"
       x="0"
       y="0" />
    <pattern
       id="EMFhbasepattern-7"
       patternUnits="userSpaceOnUse"
       width="6"
       height="6"
       x="0"
       y="0" />
    <pattern
       id="EMFhbasepattern-4"
       patternUnits="userSpaceOnUse"
       width="6"
       height="6"
       x="0"
       y="0" />
    <filter
       inkscape:collect="always"
       style="color-interpolation-filters:sRGB"
       id="filter1"
       x="-0.2218072"
       y="-0.10482371"
       width="1.4436144"
       height="1.2096474">
      <feGaussianBlur
         inkscape:collect="always"
         stdDeviation="2.4509783"
         id="feGaussianBlur1" />
    </filter>
    <linearGradient
       inkscape:collect="always"
       xlink:href="#linearGradient1"
       id="linearGradient2"
       x1="101.85397"
       y1="122.90896"
       x2="101.76643"
       y2="142.8728"
       gradientUnits="userSpaceOnUse" />
    <filter
       inkscape:collect="always"
       style="color-interpolation-filters:sRGB"
       id="filter1-3"
       x="-0.24046236"
       y="-0.19997742"
       width="1.4809247"
       height="1.3999548">
      <feGaussianBlur
         inkscape:collect="always"
         stdDeviation="2.4509783"
         id="feGaussianBlur1-2" />
    </filter>
    <linearGradient
       inkscape:collect="always"
       xlink:href="#linearGradient3"
       id="linearGradient4"
       x1="103.95226"
       y1="131.63408"
       x2="103.86301"
       y2="143.5155"
       gradientUnits="userSpaceOnUse" />
    <linearGradient
       inkscape:collect="always"
       xlink:href="#linearGradient5"
       id="linearGradient6"
       x1="100.28149"
       y1="168.47292"
       x2="102.5698"
       y2="214.08794"
       gradientUnits="userSpaceOnUse" />
    <filter
       inkscape:collect="always"
       style="color-interpolation-filters:sRGB"
       id="filter6"
       x="-0.47754091"
       y="-0.13004706"
       width="1.9550818"
       height="1.2600941">
      <feGaussianBlur
         inkscape:collect="always"
         stdDeviation="3.5516673"
         id="feGaussianBlur6" />
    </filter>
  </defs>
  <g
     inkscape:label="Layer 1"
     inkscape:groupmode="layer"
     id="layer1"
     transform="translate(-81.420662,-73.230223)">
    <path
       style="opacity:1;fill:url(#linearGradient6);fill-opacity:1;stroke:none;stroke-width:1.4;stroke-linejoin:round;stroke-miterlimit:3.1;stroke-opacity:1"
       d="m 120.35364,81.47151 c 0,0 0,132.71313 -1.13673,132.99731 -1.13673,0.28418 -30.691691,2.27346 -30.691691,2.27346 0,0 -5.399463,-75.87667 -4.262734,-104.57908 1.136729,-28.702415 3.410187,-26.713138 15.914205,-29.270779 12.50402,-2.557641 20.17695,-1.420911 20.17695,-1.420911 z"
       id="path1"
       transform="translate(-1.0833333e-6)"
       inkscape:label="Base" />
    <path
       id="path6"
       style="display:inline;opacity:1;mix-blend-mode:normal;fill:url(#linearGradient2);stroke-width:1.64131;stroke-linejoin:round;stroke-miterlimit:3.1;paint-order:markers stroke fill;filter:url(#filter1)"
       d="m 115.5253,108.56366 c -2.09405,0.95941 -7.82442,-6.71461 -11.16189,-5.94442 -3.9685,0.91581 -11.728163,4.74397 -15.358204,5.04778 0.0066,1.24122 1.649209,18.04735 1.649209,18.50977 0,1.13692 -0.251838,25.75172 -0.116842,31.90322 4.447303,0.13137 12.117517,1.04692 16.060277,0.33006 2.86647,-0.52118 5.90355,-1.65965 8.1809,-2.63911 -0.0665,-1.12876 0.26182,-23.74057 0.26182,-24.30095 0,-0.60389 -0.0353,-9.14747 -0.0176,-9.89345 0.005,-0.21977 0.26205,-14.2084 0.29825,-16.24526 z"
       transform="matrix(1.1635216,0,0,1.4298507,-17.384769,-36.127009)"
       inkscape:label="Green"
       sodipodi:nodetypes="cscscscsccc" />
    <path
       id="path6-5"
       style="display:inline;mix-blend-mode:normal;fill:url(#linearGradient4);stroke-width:1.19102;stroke-linejoin:round;stroke-miterlimit:3.1;paint-order:markers stroke fill;filter:url(#filter1-3)"
       d="m 115.117,116.57428 c -2.09405,0.95941 -5.57878,2.42031 -8.91625,3.1905 -3.9685,0.91581 -8.945234,2.23927 -12.575275,2.54308 0.0066,1.24122 -2.97106,3.40651 -2.97106,3.86893 0,1.13692 0.156459,13.51584 0.291455,19.66734 4.447303,0.13137 10.60051,0.36827 14.54327,-0.34859 2.86647,-0.52118 7.31848,-3.18617 9.59583,-4.16563 -0.0665,-1.12876 -0.0444,-9.29952 -0.0444,-9.8599 0,-0.60389 -0.0353,-9.14747 -0.0176,-9.89345 0.005,-0.21977 0.0579,-2.96542 0.0941,-5.00228 z"
       transform="matrix(1.3114515,0,0,2.4090916,-33.434691,-202.84075)"
       inkscape:label="Red"
       sodipodi:nodetypes="cscscccsccc"
       inkscape:export-filename="bar.png"
       inkscape:export-xdpi="96"
       inkscape:export-ydpi="96" />
    <path
       style="display:inline;opacity:0.622385;mix-blend-mode:normal;fill:#ebedeb;fill-opacity:1;stroke-width:2.02811;stroke-linejoin:round;stroke-miterlimit:3.1;paint-order:markers stroke fill;filter:url(#filter6)"
       d="m 111.11528,93.851202 c 0,0 -9.16488,2.202411 -14.067028,4.902143 -4.902145,2.699725 -2.060323,27.068365 -1.705093,31.402145 0.355227,4.33378 -0.284184,31.189 1.491956,29.12868 1.77614,-2.06032 3.081427,-9.37001 3.791885,-14.13006 0.71045,-4.76005 -2.932172,-40.94068 0.28299,-42.95016 3.21515,-2.00947 10.91714,-3.337915 11.11809,-5.447861 0.20095,-2.109946 -0.9128,-2.904887 -0.9128,-2.904887 z"
       id="path8"
       sodipodi:nodetypes="cssssssc"
       inkscape:label="Highlight"
       transform="matrix(1.089576,0,0,1,-7.674745,0)" />
  </g>
  <g
     inkscape:groupmode="layer"
     id="layer2"
     inkscape:label="Frame">
    <path
       id="path9"
       style="display:inline;opacity:1;fill:#f9f7ef;fill-opacity:1;stroke-width:2.117;stroke-linejoin:round;stroke-miterlimit:3.1;paint-order:markers stroke fill;stroke:none;stroke-opacity:1"
       inkscape:label="Fill"
       d="M 120.65341 74.162467 L 81.773613 82.483923 C 81.773613 82.483923 81.081997 219.03243 81.634603 221.49404 C 82.187206 223.95564 83.192131 222.74978 83.192131 222.74978 C 83.192131 222.74978 105.43156 219.81494 110.90207 218.8203 C 116.37257 217.82566 126.10579 213.13693 126.10579 213.13693 L 122.77886 210.91898 L 122.36442 209.29892 C 122.36442 209.29892 122.05641 163.97294 121.91432 159.71022 C 121.77223 155.44748 121.82455 129.71119 121.77427 127.04864 C 121.72407 124.3861 122.57777 103.99028 122.37682 101.32773 C 122.17587 98.665183 122.72874 86.909492 122.72874 86.909492 C 122.72874 86.909492 123.01532 74.518113 122.79333 74.411547 C 122.57131 74.304978 120.65341 74.162467 120.65341 74.162467 z M 108.56888 89.241133 C 109.07762 89.220528 109.52794 89.224204 109.90471 89.255602 C 112.91892 89.506786 114.90337 90.436409 114.90337 90.436409 C 115.12944 91.014131 115.70741 93.601156 116.08418 97.318676 C 116.46096 101.0362 115.33052 137.83472 115.43099 145.26975 C 115.53146 152.7048 116.03405 197.7172 116.03405 197.7172 L 115.73226 206.60916 C 115.73226 206.60916 108.04616 209.87452 104.88125 210.37689 C 101.71633 210.87926 96.541771 211.28111 93.226144 209.92472 C 89.910519 208.56833 90.211858 205.5038 90.211858 205.5038 C 90.211858 205.5038 90.061258 174.50738 90.161732 170.68939 C 90.262205 166.8714 90.211858 129.49552 90.211858 129.49552 L 90.362753 96.288765 C 90.362753 96.288765 90.212348 94.028175 94.683419 92.269889 C 98.595607 90.731387 105.00766 89.385367 108.56888 89.241133 z "
       transform="translate(-81.420663,-73.230224)" />
    <path
       id="path5"
       style="display:inline;opacity:1;fill:#111b09;fill-opacity:1;stroke-width:2.117;stroke-linejoin:round;stroke-miterlimit:3.1;paint-order:markers stroke fill"
       inkscape:label="InnerStroke"
       d="m 108.48084,88.256919 c -0.83367,-0.01277 -1.59284,-0.0086 -2.15232,0.01809 -2.23794,0.106566 -13.116481,3.12517 -14.25321,4.084283 -1.136728,0.959114 -2.380235,2.699864 -2.522327,3.872115 -0.142089,1.172252 -0.03566,0.92363 -0.03566,2.20245 0,1.278819 0.284585,3.268076 0.106971,4.653466 -0.177612,1.38537 -4.23e-4,18.75598 -0.249081,20.8163 -0.248661,2.06031 -0.255281,7.51582 -0.255281,7.51582 v 40.69209 c 0,5.72698 1.004957,13.5636 0.603064,16.5778 -0.401894,3.0142 -0.402043,12.15762 -0.402043,14.87041 0,2.71278 0.804085,5.07359 0.804085,5.07359 0,0 -0.351657,-0.25092 0,0.35192 0.351658,0.60283 1.808083,1.65756 1.607137,1.75803 -0.200947,0.10047 -1.607469,0.75347 -0.753442,1.20561 0.854023,0.45213 8.389687,0.65337 16.126144,-0.60255 7.73647,-1.25592 8.43308,-4.21319 8.43308,-3.87573 0,0.33747 -0.2664,0.65722 0.14211,0.42633 0.40852,-0.2309 0.92362,-1.77602 1.10123,-2.50424 0.17761,-0.72822 -0.1247,-6.39383 -0.30231,-9.51983 -0.17762,-3.126 0.67541,-16.234 0.67541,-20.85196 0,-4.61796 -0.21345,-28.48933 -0.0713,-31.26011 0.14209,-2.77076 -0.8879,-12.57536 -0.63924,-14.74225 0.24866,-2.16689 -0.0357,-8.20539 -0.0357,-10.72751 0,-2.52212 0.0709,-11.58065 0.10645,-13.2147 0.0355,-1.63405 0.48761,-10.485291 0.31002,-12.225903 -0.17762,-1.740615 -1.56553,-3.764446 -2.1694,-4.048627 -0.45292,-0.213138 -3.6734,-0.506594 -6.17442,-0.544891 z m -0.57859,1.663759 c 1.94379,-0.02839 4.30516,0.253731 4.30516,0.253731 0,0 1.42977,-0.01756 2.0159,0.461988 0.58612,0.479559 1.27899,1.882878 1.27899,3.197221 0,1.314339 0.0179,7.370612 0.0357,8.329722 0.0178,0.95912 -0.15982,1.81181 -0.19534,2.43344 -0.0355,0.62165 -0.30211,16.23387 -0.31987,16.97985 -0.0177,0.74598 0.0176,9.28956 0.0176,9.89345 0,0.60389 -0.0351,5.55918 0.0537,6.19859 0.0888,0.63941 0.12397,7.70836 0.17725,8.54315 0.0533,0.83477 -0.24863,9.09399 -0.19534,9.91102 0.0533,0.81702 -0.0533,9.04031 0,9.80405 0.0533,0.76374 -0.10645,16.18093 -0.10645,16.18093 0,0 0.0728,19.61809 0.12299,21.30102 0.0502,1.68293 0.42694,2.26042 -0.20102,3.03909 -0.62796,0.77867 -5.97824,2.6127 -11.00191,3.11506 -5.023682,0.50237 -8.690787,0.4019 -10.524426,-0.12558 -1.833644,-0.52749 -2.687821,-1.7333 -2.511992,-2.63756 0.175829,-0.90426 -0.05013,-10.32356 -0.05013,-12.83539 0,-2.51184 0.276544,-13.11209 0.47749,-15.12156 0.200949,-2.00947 0.1757,-13.06141 0.1757,-14.61875 0,-1.55734 -0.802018,-34.92129 -0.802018,-38.04729 0,-3.126 -0.213366,-27.210529 0.212907,-29.483985 0.426272,-2.273457 1.995617,-3.277374 2.87476,-3.603915 0.879143,-0.326538 10.650155,-2.612393 12.458675,-3.014286 0.45213,-0.100474 1.05377,-0.144532 1.7017,-0.153996 z"
       transform="translate(-81.420663,-73.230224)"
       sodipodi:nodetypes="scssssscssscssssssssscssccsssccssccsscssccssssssssssss" />
    <path
       id="path4"
       style="display:inline;opacity:1;fill:#111b09;fill-opacity:1;stroke-width:2.117;stroke-linejoin:round;stroke-miterlimit:3.1;paint-order:markers stroke fill"
       d="m 122.25176,73.230224 c -0.28418,0 -21.67779,3.983589 -23.536545,4.28501 -1.85876,0.30142 -17.01092,3.920321 -17.01092,3.920321 0,0 -0.215036,2.327399 0.708556,2.61158 0.919517,0.28293 39.441149,-9.076786 39.994689,-9.231095 0.0435,0.06009 0.093,0.106272 0.093,0.132808 0,0.07105 0.053,3.85864 0.053,4.498051 0,0.639409 -1.03094,28.210621 -1.03094,30.119611 0,1.909 -0.0498,23.91283 -0.20051,28.33367 -0.15072,4.42083 -0.30179,28.3838 -0.30179,28.3838 0,0 0.25115,31.79959 0.25115,33.45738 0,1.65781 0.80398,11.25333 1.55753,11.60498 0.75355,0.35167 3.26543,1.65797 2.56212,1.80868 -0.70332,0.15071 -1.90908,0.85366 -5.12424,1.80815 -3.21515,0.9545 -20.09277,4.7099 -27.339416,5.42035 -7.246642,0.71046 -10.087168,0.006 -10.589534,0.93482 -0.50237,0.92938 -0.137976,2.75952 -0.137976,2.75952 0,0 16.766707,-2.06024 22.734526,-3.26801 5.96783,-1.20778 21.51172,-5.54515 21.81314,-6.60012 0.30142,-1.05497 -0.40208,-2.21064 -1.55753,-2.71301 -1.15544,-0.50236 -2.41122,-1.00459 -2.41122,-1.00459 0,0 0.84026,-14.12212 0.84026,-17.81648 0,-3.69437 -0.71003,-44.47476 -0.71003,-47.88494 0,-3.41018 -5e-4,-49.376348 0.14159,-53.496989 0.14106,-4.090627 0.0377,-16.641801 0.0362,-16.825846 0.0659,-0.07986 0.0702,-0.190093 -0.0713,-0.349333 -0.28418,-0.319706 -0.12423,-0.195757 -0.24856,-0.444417 -0.12433,-0.248658 -0.23104,-0.443901 -0.51522,-0.443901 z"
       transform="translate(-81.420663,-73.230224)"
       inkscape:label="OuterStroke"
       sodipodi:nodetypes="sscccsssccsssssccssscssscssss" />
  </g>
</svg>
