<?xml version="1.0" encoding="UTF-8" standalone="no"?>
<!-- Created with Inkscape (http://www.inkscape.org/) -->

<svg
   width="47.645931mm"
   height="151.2148mm"
   viewBox="0 0 47.645932 151.2148"
   version="1.1"
   id="svg1"
   inkscape:version="1.3 (0e150ed6c4, 2023-07-21)"
   sodipodi:docname="bar.svg"
   inkscape:export-filename="bar.png"
   inkscape:export-xdpi="96"
   inkscape:export-ydpi="96"
   xmlns:inkscape="http://www.inkscape.org/namespaces/inkscape"
   xmlns:sodipodi="http://sodipodi.sourceforge.net/DTD/sodipodi-0.dtd"
   xmlns:xlink="http://www.w3.org/1999/xlink"
   xmlns="http://www.w3.org/2000/svg"
   xmlns:svg="http://www.w3.org/2000/svg">
  <sodipodi:namedview
     id="namedview1"
     pagecolor="#8853eb"
     bordercolor="#000000"
     borderopacity="0.25"
     inkscape:showpageshadow="2"
     inkscape:pageopacity="0.0"
     inkscape:pagecheckerboard="0"
     inkscape:deskcolor="#d1d1d1"
     inkscape:document-units="mm"
     inkscape:zoom="0.93103385"
     inkscape:cx="-80.018573"
     inkscape:cy="388.27804"
     inkscape:window-width="1920"
     inkscape:window-height="974"
     inkscape:window-x="-11"
     inkscape:window-y="-11"
     inkscape:window-maximized="1"
     inkscape:current-layer="layer2" />
  <defs
     id="defs1">
    <linearGradient
       id="linearGradient5"
       inkscape:collect="always">
      <stop
         style="stop-color:#f9f293;stop-opacity:1;"
         offset="0"
         id="stop5" />
      <stop
         style="stop-color:#eeeccb;stop-opacity:1;"
         offset="1"
         id="stop6" />
    </linearGradient>
    <linearGradient
       id="linearGradient3"
       inkscape:collect="always">
      <stop
         style="stop-color:#f91d1d;stop-opacity:1;"
         offset="0"
         id="stop3" />
      <stop
         style="stop-color:#f91d1d;stop-opacity:0;"
         offset="1"
         id="stop4" />
    </linearGradient>
    <linearGradient
       id="linearGradient1"
       inkscape:collect="always">
      <stop
         style="stop-color:#06e72f;stop-opacity:1;"
         offset="0"
         id="stop1" />
      <stop
         style="stop-color:#06e72f;stop-opacity:0;"
         offset="1"
         id="stop2" />
    </linearGradient>
    <pattern
       id="EMFhbasepattern"
       patternUnits="userSpaceOnUse"
       width="6"
       height="6"
       x="0"
       y="0" />
    <pattern
       id="EMFhbasepattern-7"
       patternUnits="userSpaceOnUse"
       width="6"
       height="6"
       x="0"
       y="0" />
    <pattern
       id="EMFhbasepattern-4"
       patternUnits="userSpaceOnUse"
       width="6"
       height="6"
       x="0"
       y="0" />
    <filter
       inkscape:collect="always"
       style="color-interpolation-filters:sRGB"
       id="filter1"
       x="-0.2218072"
       y="-0.10482371"
       width="1.4436144"
       height="1.2096474">
      <feGaussianBlur
         inkscape:collect="always"
         stdDeviation="2.4509783"
         id="feGaussianBlur1" />
    </filter>
    <linearGradient
       inkscape:collect="always"
       xlink:href="#linearGradient1"
       id="linearGradient2"
       x1="101.85397"
       y1="122.90896"
       x2="101.76643"
       y2="142.8728"
       gradientUnits="userSpaceOnUse" />
    <filter
       inkscape:collect="always"
       style="color-interpolation-filters:sRGB"
       id="filter1-3"
       x="-0.24046449"
       y="0"
       width="1.480929"
       height="1">
      <feGaussianBlur
         inkscape:collect="always"
         stdDeviation="2.451 0"
         id="feGaussianBlur1-2" />
    </filter>
    <linearGradient
       inkscape:collect="always"
       xlink:href="#linearGradient3"
       id="linearGradient4"
       x1="103.95226"
       y1="131.63408"
       x2="103.86301"
       y2="143.5155"
       gradientUnits="userSpaceOnUse" />
    <linearGradient
       inkscape:collect="always"
       xlink:href="#linearGradient5"
       id="linearGradient6"
       x1="100.28149"
       y1="168.47292"
       x2="102.5698"
       y2="214.08794"
       gradientUnits="userSpaceOnUse" />
    <filter
       inkscape:collect="always"
       style="color-interpolation-filters:sRGB"
       id="filter6"
       x="-0.47754091"
       y="-0.13004706"
       width="1.9550818"
       height="1.2600941">
      <feGaussianBlur
         inkscape:collect="always"
         stdDeviation="3.5516673"
         id="feGaussianBlur6" />
    </filter>
  </defs>
  <g
     inkscape:label="Layer 1"
     inkscape:groupmode="layer"
     id="layer1"
     transform="translate(-77.739695,-73.230332)">
    <path
       style="opacity:1;fill:url(#linearGradient6);fill-opacity:1;stroke:none;stroke-width:1.4;stroke-linejoin:round;stroke-miterlimit:3.1;stroke-opacity:1"
       d="m 120.35364,81.47151 c 0,0 0,132.71313 -1.13673,132.99731 -1.13673,0.28418 -30.691691,2.27346 -30.691691,2.27346 0,0 -5.399463,-75.87667 -4.262734,-104.57908 1.136729,-28.702415 3.410187,-26.713138 15.914205,-29.270779 12.50402,-2.557641 20.17695,-1.420911 20.17695,-1.420911 z"
       id="path1"
       transform="translate(-1.0833333e-6)"
       inkscape:label="Base" />
    <path
       id="path6"
       style="display:inline;opacity:1;mix-blend-mode:normal;fill:url(#linearGradient2);stroke-width:1.64131;stroke-linejoin:round;stroke-miterlimit:3.1;paint-order:markers stroke fill;filter:url(#filter1)"
       d="m 115.5253,108.56366 c -2.09405,0.95941 -7.82442,-6.71461 -11.16189,-5.94442 -3.9685,0.91581 -11.728163,4.74397 -15.358204,5.04778 0.0066,1.24122 1.649209,18.04735 1.649209,18.50977 0,1.13692 -0.251838,25.75172 -0.116842,31.90322 4.447303,0.13137 12.117517,1.04692 16.060277,0.33006 2.86647,-0.52118 5.90355,-1.65965 8.1809,-2.63911 -0.0665,-1.12876 0.26182,-23.74057 0.26182,-24.30095 0,-0.60389 -0.0353,-9.14747 -0.0176,-9.89345 0.005,-0.21977 0.26205,-14.2084 0.29825,-16.24526 z"
       transform="matrix(1.1635216,0,0,1.4298507,-17.384769,-36.127009)"
       inkscape:label="Green"
       sodipodi:nodetypes="cscscscsccc" />
    <path
       id="path6-5"
       style="display:inline;mix-blend-mode:normal;fill:url(#linearGradient4);stroke-width:1.19102;stroke-linejoin:round;stroke-miterlimit:3.1;paint-order:markers stroke fill;filter:url(#filter1-3)"
       d="m 115.117,116.57428 c -2.09405,0.95941 -5.57878,2.42031 -8.91625,3.1905 -3.9685,0.91581 -8.945234,2.23927 -12.575275,2.54308 0.0066,1.24122 -2.97106,3.40651 -2.97106,3.86893 0,1.13692 0.156459,13.51584 0.291455,19.66734 4.447303,0.13137 10.60051,0.36827 14.54327,-0.34859 2.86647,-0.52118 7.31848,-3.18617 9.59583,-4.16563 -0.0665,-1.12876 -0.0444,-9.29952 -0.0444,-9.8599 0,-0.60389 -0.0353,-9.14747 -0.0176,-9.89345 0.005,-0.21977 0.0579,-2.96542 0.0941,-5.00228 z"
       transform="matrix(1.3114515,0,0,2.4090916,-33.434691,-202.84075)"
       inkscape:label="Red"
       sodipodi:nodetypes="cscscccsccc"
       inkscape:export-filename="bar.png"
       inkscape:export-xdpi="96"
       inkscape:export-ydpi="96" />
    <path
       style="display:inline;opacity:0.622385;mix-blend-mode:normal;fill:#ebedeb;fill-opacity:1;stroke-width:2.02811;stroke-linejoin:round;stroke-miterlimit:3.1;paint-order:markers stroke fill;filter:url(#filter6)"
       d="m 111.11528,93.851202 c 0,0 -9.16488,2.202411 -14.067028,4.902143 -4.902145,2.699725 -2.060323,27.068365 -1.705093,31.402145 0.355227,4.33378 -0.284184,31.189 1.491956,29.12868 1.77614,-2.06032 3.081427,-9.37001 3.791885,-14.13006 0.71045,-4.76005 -2.932172,-40.94068 0.28299,-42.95016 3.21515,-2.00947 10.91714,-3.337915 11.11809,-5.447861 0.20095,-2.109946 -0.9128,-2.904887 -0.9128,-2.904887 z"
       id="path8"
       sodipodi:nodetypes="cssssssc"
       inkscape:label="Highlight"
       transform="matrix(1.089576,0,0,1,-7.674745,0)" />
  </g>
  <g
     inkscape:groupmode="layer"
     id="layer2"
     inkscape:label="Frame"
     transform="translate(3.6809667,-1.09e-4)">
    <path
       id="path9"
       style="display:inline;opacity:1;fill:#f9f7ef;fill-opacity:1;stroke:none;stroke-width:2.117;stroke-linejoin:round;stroke-miterlimit:3.1;stroke-opacity:1;paint-order:markers stroke fill"
       inkscape:label="Fill"
       d="m 120.65341,74.162467 -38.879797,8.321456 c 0,0 -0.691616,136.548507 -0.13901,139.010117 0.552603,2.4616 1.557528,1.25574 1.557528,1.25574 0,0 22.239429,-2.93484 27.709939,-3.92948 5.4705,-0.99464 13.64638,-4.42745 13.64638,-4.42745 l -2.32219,-3.49899 0.13816,-1.59494 c 0,0 -0.30801,-45.32598 -0.4501,-49.5887 -0.14209,-4.26274 -0.0898,-29.99903 -0.14005,-32.66158 -0.0502,-2.66254 0.8035,-23.05836 0.60255,-25.72091 -0.20095,-2.662547 0.35192,-14.418238 0.35192,-14.418238 0,0 0.28658,-12.391379 0.0646,-12.497945 -0.22202,-0.106569 -2.13992,-0.24908 -2.13992,-0.24908 z m -12.08453,15.078666 c 0.50874,-0.02061 0.95906,-0.01693 1.33583,0.01447 3.01421,0.251184 4.99866,1.180807 4.99866,1.180807 0.22607,0.577722 0.80404,3.164747 1.18081,6.882267 0.37678,3.717523 -0.75366,40.516043 -0.65319,47.951073 0.10047,7.43505 0.60306,52.44745 0.60306,52.44745 l -0.30179,8.89196 c 0,0 -7.6861,3.26536 -10.85101,3.76773 -3.16492,0.50237 -8.339479,0.90422 -11.655106,-0.45217 -3.315625,-1.35639 -3.014286,-4.42092 -3.014286,-4.42092 0,0 -0.1506,-30.99642 -0.05013,-34.81441 0.100473,-3.81799 0.05013,-41.19387 0.05013,-41.19387 l 0.150895,-33.206754 c 0,0 -0.150405,-2.26059 4.320666,-4.018876 3.912188,-1.538502 10.324241,-2.884522 13.885461,-3.028756 z"
       transform="translate(-81.420663,-73.230224)"
       sodipodi:nodetypes="ccscscccscsccccscccsccsscsccsss" />
    <path
       id="path5"
       style="display:inline;opacity:1;fill:#111b09;fill-opacity:1;stroke-width:2.117;stroke-linejoin:round;stroke-miterlimit:3.1;paint-order:markers stroke fill"
       inkscape:label="InnerStroke"
       d="m 108.48084,88.256919 c -0.83367,-0.01277 -1.59284,-0.0086 -2.15232,0.01809 -2.23794,0.106566 -13.116481,3.12517 -14.25321,4.084283 -1.136728,0.959114 -2.380235,2.699864 -2.522327,3.872115 -0.142089,1.172252 -0.03566,0.92363 -0.03566,2.20245 0,1.278819 0.284585,3.268073 0.106971,4.653463 -0.177612,1.38537 -4.23e-4,18.75598 -0.249081,20.8163 -0.248661,2.06031 -0.255281,7.51582 -0.255281,7.51582 v 40.69209 c 0,5.72698 1.004957,13.5636 0.603064,16.5778 -0.401894,3.0142 -0.402043,12.15762 -0.402043,14.87041 0,2.71278 0.804085,5.07359 0.804085,5.07359 0,0 -0.351657,-0.25092 0,0.35192 0.351658,0.60283 1.808083,1.65756 1.607137,1.75803 -0.200947,0.10047 -1.607469,0.75347 -0.753442,1.20561 0.854023,0.45213 8.389687,0.65337 16.126147,-0.60255 7.73647,-1.25592 8.43308,-4.21319 8.43308,-3.87573 0,0.33747 -0.2664,0.65722 0.14211,0.42633 0.40852,-0.2309 0.92362,-1.77602 1.10123,-2.50424 0.17761,-0.72822 -0.1247,-6.39383 -0.30231,-9.51983 -0.17762,-3.126 0.67541,-16.234 0.67541,-20.85196 0,-4.61796 -0.21345,-28.48933 -0.0713,-31.26011 0.14209,-2.77076 -0.8879,-12.57536 -0.63924,-14.74225 0.24866,-2.16689 -0.0357,-8.20539 -0.0357,-10.72751 0,-2.52212 0.0709,-11.58065 0.10645,-13.2147 0.0355,-1.63405 0.48761,-10.485288 0.31002,-12.2259 -0.17762,-1.740615 -1.56553,-3.764446 -2.1694,-4.048627 -0.45292,-0.213138 -3.6734,-0.506594 -6.17442,-0.544891 z m -0.57859,1.663759 c 1.94379,-0.02839 4.30516,0.253731 4.30516,0.253731 0,0 1.42977,-0.01756 2.0159,0.461988 0.58612,0.479559 1.27899,1.882878 1.27899,3.197221 0,1.314339 0.0179,7.370612 0.0357,8.329722 0.0178,0.95912 -0.15982,1.81181 -0.19534,2.43344 -0.0355,0.62165 -0.30211,16.23387 -0.31987,16.97985 -0.0177,0.74598 0.0176,9.28956 0.0176,9.89345 0,0.60389 -0.0351,5.55918 0.0537,6.19859 0.0888,0.63941 0.12397,7.70836 0.17725,8.54315 0.0533,0.83477 -0.24863,9.09399 -0.19534,9.91102 0.0533,0.81702 -0.0533,9.04031 0,9.80405 0.0533,0.76374 -0.10645,16.18093 -0.10645,16.18093 0,0 0.0728,19.61809 0.12299,21.30102 0.0502,1.68293 0.42694,2.26042 -0.20102,3.03909 -0.62796,0.77867 -5.97824,2.6127 -11.00191,3.11506 -5.023682,0.50237 -8.690787,0.4019 -10.524426,-0.12558 -1.833644,-0.52749 -2.687821,-1.7333 -2.511992,-2.63756 0.175829,-0.90426 -0.05013,-10.32356 -0.05013,-12.83539 0,-2.51184 0.276544,-13.11209 0.47749,-15.12156 0.200949,-2.00947 0.1757,-13.06141 0.1757,-14.61875 0,-1.55734 -0.802018,-34.92129 -0.802018,-38.04729 0,-3.126 -0.213366,-27.210529 0.212907,-29.483985 0.426272,-2.273457 1.995617,-3.277374 2.87476,-3.603915 0.879143,-0.326538 10.650159,-2.612393 12.458679,-3.014286 0.45213,-0.100474 1.05377,-0.144532 1.7017,-0.153996 z"
       transform="translate(-81.420663,-73.230224)"
       sodipodi:nodetypes="scssssscssscssssssssscssccsssccssccsscssccssssssssssss" />
    <path
       id="path4"
       style="display:inline;opacity:1;fill:#111b09;fill-opacity:1;stroke-width:2.117;stroke-linejoin:round;stroke-miterlimit:3.1;paint-order:markers stroke fill"
       inkscape:label="OuterStroke"
       d="m 122.25178,73.230333 c -0.28418,0 -21.6778,3.983589 -23.536552,4.28501 -1.858758,0.301419 -17.010848,3.920174 -17.010848,3.920174 0,0 -0.215107,2.327546 0.708484,2.611727 0.919516,0.282929 39.440916,-9.076652 39.994456,-9.230961 0.0435,0.06009 0.093,0.106272 0.093,0.132808 0,0.07105 0.0532,3.858506 0.0532,4.497917 0,0.639408 -1.03095,28.210622 -1.03095,30.119612 0,1.90899 -0.0498,23.91283 -0.2005,28.33367 -0.15072,4.42082 -0.30179,28.38379 -0.30179,28.38379 0,0 0.25114,31.79961 0.25114,33.45739 0,1.65781 0.17602,11.55475 0.92957,11.9064 0.75355,0.35167 1.78344,1.95939 1.18061,2.31105 -0.62131,0.36243 -1.02994,0.55224 -3.11477,1.00436 -3.27765,0.7108 -20.09277,4.7099 -27.339412,5.42034 -7.246635,0.71046 -10.087169,0.006 -10.589535,0.93483 -0.502369,0.92938 -0.137976,2.75952 -0.137976,2.75952 0,0 16.766717,-2.06025 22.734533,-3.26801 5.96782,-1.20778 20.07997,-5.04278 20.38139,-6.09775 0.30142,-1.05497 -0.40208,-2.21064 -1.55753,-2.71301 -1.15544,-0.50236 -0.97947,-1.50696 -0.97947,-1.50696 0,0 0.84025,-14.12213 0.84025,-17.81648 0,-3.69437 -0.71003,-44.47476 -0.71003,-47.88494 0,-3.41017 -5e-4,-49.376353 0.14159,-53.49699 0.14106,-4.090623 0.0377,-16.641802 0.0362,-16.825846 0.0659,-0.07986 0.0702,-0.190093 -0.0713,-0.349333 -0.28418,-0.319706 -0.12423,-0.195758 -0.24856,-0.444417 -0.12433,-0.248658 -0.23103,-0.443901 -0.51521,-0.443901 z"
       transform="translate(-81.420663,-73.230224)"
       sodipodi:nodetypes="cscscsssccsssssccssscsssccscc" />
    <path
       style="fill:#111b09;fill-opacity:1;stroke-width:5.82083;stroke-linejoin:round;stroke-miterlimit:3.1;paint-order:stroke fill markers"
       d="M 1.745729,8.5904937 C 1.4819858,8.6030534 0.15071042,7.1838631 -0.51492726,8.6909673 -1.1805649,10.198072 -2.7707772,150.68766 -0.28418229,151.11393 2.2024127,151.54021 3.9430293,150.58109 3.4812329,148.91152 3.0194369,147.24195 2.5931634,149.1957 2.2379355,148.27211 1.8827077,147.34852 0.95911523,10.727881 1.4209114,10.301608 1.8827077,9.8753344 1.745729,8.5904937 1.745729,8.5904937 Z"
       id="path2" />
  </g>
</svg>
