<?xml version="1.0" encoding="UTF-8" standalone="no"?>
<!-- Created with Inkscape (http://www.inkscape.org/) -->

<svg
   width="56.053192mm"
   height="46.051315mm"
   viewBox="0 0 56.053193 46.051315"
   version="1.1"
   id="svg1"
   inkscape:version="1.3 (0e150ed6c4, 2023-07-21)"
   sodipodi:docname="ebi.svg"
   xmlns:inkscape="http://www.inkscape.org/namespaces/inkscape"
   xmlns:sodipodi="http://sodipodi.sourceforge.net/DTD/sodipodi-0.dtd"
   xmlns="http://www.w3.org/2000/svg"
   xmlns:svg="http://www.w3.org/2000/svg">
  <sodipodi:namedview
     id="namedview1"
     pagecolor="#ffffff"
     bordercolor="#000000"
     borderopacity="0.25"
     inkscape:showpageshadow="2"
     inkscape:pageopacity="0.0"
     inkscape:pagecheckerboard="0"
     inkscape:deskcolor="#d1d1d1"
     inkscape:document-units="mm"
     inkscape:zoom="0.65834035"
     inkscape:cx="-80.505471"
     inkscape:cy="-56.961418"
     inkscape:window-width="1920"
     inkscape:window-height="974"
     inkscape:window-x="-11"
     inkscape:window-y="-11"
     inkscape:window-maximized="1"
     inkscape:current-layer="svg1" />
  <defs
     id="defs1" />
  <g
     inkscape:groupmode="layer"
     id="layer14"
     inkscape:label="Bumbu &amp; Ebi"
     style="display:inline"
     transform="translate(-91.286055,-73.104325)">
    <g
       inkscape:groupmode="layer"
       id="layer19"
       inkscape:label="Bumbu &amp; Ebi F">
      <path
         style="opacity:1;fill:#fae5b2;fill-opacity:1;stroke-width:2.117;stroke-linejoin:round;stroke-miterlimit:3.1;paint-order:markers stroke fill"
         d="m 96.957035,105.74848 c 0.904264,0.60284 4.722255,0.10047 4.722255,0.10047 l 3.2654,0.35166 c 0,0 2.91373,-0.25119 2.56208,1.70805 -0.35166,1.95923 -1.60758,0.60284 -0.45214,3.06444 1.15545,2.46161 2.10995,2.46161 2.10995,2.46161 0,0 2.05971,1.5071 2.41137,1.45687 0.35165,-0.0502 2.31089,-1.25592 2.31089,-1.25592 0,0 1.55734,0.80378 1.85876,0.90426 0.30142,0.10047 2.21042,-0.45213 2.21042,-0.45213 l 1.50711,0.85402 4.3706,0.0502 c 0,0 2.05971,1.80852 4.01894,2.36113 1.95924,0.5526 4.52131,-0.45213 4.57155,-0.25119 0.0502,0.20095 2.36113,2.66256 2.81326,1.50711 0.45213,-1.15545 -0.10047,-2.71279 -0.10047,-2.71279 0,0 -1.70805,-2.31089 -3.36587,-2.8635 -1.65781,-0.5526 -1.65781,-0.5526 -1.65781,-0.5526 0,0 -4.37061,-1.909 -1.95924,-1.909 2.41137,0 4.72226,0.55261 6.63126,0.0502 1.909,-0.50237 3.36587,-3.41611 2.96397,-4.2199 -0.40189,-0.80378 2.91374,-3.26539 2.91374,-3.51657 0,-0.25119 1.53222,0.92938 3.59193,1.10521 2.05971,0.17583 3.26539,-0.22607 2.38625,-1.10521 -0.87915,-0.87914 -2.88862,-1.08009 -2.88862,-1.08009 0,0 0.97962,0.0251 0.5526,-0.77867 -0.42701,-0.80379 -0.30142,-1.205687 -0.20094,-1.281043 0.10047,-0.07535 1.909,-1.632696 2.23553,-2.612313 0.32655,-0.979617 0.72844,-0.854025 0.32655,-0.979617 -0.4019,-0.125593 -2.81327,0.828907 -4.01895,0.276301 -1.20568,-0.552603 -1.83364,-1.381511 -2.05971,-1.431747 -0.22606,-0.05024 -0.97962,0.276301 -1.30616,0.150709 -0.32653,-0.125592 0.10048,-1.481984 -0.35165,-1.984354 -0.45213,-0.502367 -0.60284,-1.180565 -1.10521,-1.306155 -0.50237,-0.125593 0.17583,-1.230802 0.17583,-1.230802 0,0 2.10994,-1.532223 1.73317,-2.310895 -0.37678,-0.778668 -1.40663,-0.678196 -1.55735,-0.502367 -0.15071,0.175829 -2.36112,1.708052 -2.36112,1.708052 0,0 -0.52749,-1.029856 -1.909,-0.678198 -1.38152,0.351658 -2.1853,0.552606 -2.1853,0.552606 l -0.32654,-1.58246 -0.10048,-0.125592 c 0,0 1.85876,-2.838379 1.85876,-3.817998 0,-0.979618 -0.57772,-2.436485 -0.57772,-2.436485 l -3.44122,2.612313 c 0,0 0.10047,-0.703315 -0.87914,-0.45213 -0.97962,0.251185 -1.38152,0.301421 -1.20569,0.376777 0.17583,0.07535 1.3564,-0.602843 1.20569,-1.758288 -0.15071,-1.155446 -0.6782,-1.507104 -0.6782,-1.507104 0,0 -2.76303,-0.527487 -3.71753,0.200946 -0.95449,0.728435 -2.00947,1.230802 -2.00947,1.230802 l -2.56207,-1.255919 c 0,0 -1.05498,-2.109947 -1.15545,-2.285775 -0.10048,-0.175829 -1.18057,-1.281039 -1.18057,-1.281039 0,0 -2.86349,1.808525 -2.71278,2.210419 0.15071,0.401894 0.32654,3.114681 0.32654,3.114681 0,0 -1.33128,-0.703313 -2.43649,-1.004734 -1.10521,-0.301422 -1.35639,0.251182 -0.85402,-1.205686 0.50236,-1.456867 0.9545,-1.356391 -0.0502,-2.361128 -1.00474,-1.004737 -1.55734,-1.557343 -1.55734,-1.557343 l -2.16018,-2.210419 c 0,0 -2.3109,-1.105209 -2.61232,-0.200946 -0.30142,0.904262 -0.70332,3.16492 -0.70332,3.16492 0,0 -1.53222,-0.879145 -1.88387,-0.929384 -0.35166,-0.05024 -4.420844,0.401897 -4.898095,2.53696 -0.477247,2.135063 1.054974,4.144537 1.054974,4.144537 l 2.210421,-0.175829 c 0,0 -0.30142,0.150709 1.10521,0.602842 1.40663,0.452131 1.45687,-0.200948 1.55734,0.502367 0.10047,0.703316 1.00474,2.21042 2.41137,2.863499 1.40663,0.653079 2.76302,0.602842 1.95923,0.854024 -0.80379,0.251185 -1.20568,0 -0.80379,0.904264 0.4019,0.904261 0.70332,1.456867 0.70332,1.456867 0,0 -3.61705,-1.105209 -4.67202,0.552606 -1.05498,1.657813 0.25118,2.913735 0.25118,2.913735 0,0 -0.4019,0.351658 -0.0502,0.653076 0.35166,0.301422 0.70332,1.054973 0.70332,1.054973 0,0 1.60758,0.251185 1.80852,0.251185 0.20095,0 3.51658,1.607579 3.51658,1.607579 0,0 -2.26066,0.15071 -3.66729,0.351655 -1.40663,0.200949 -1.65781,0.703316 -1.65781,0.703316 l -3.46634,0.100475 c 0,0 -1.60758,0.05024 -2.059711,0.452131 -0.45213,0.401894 -1.255919,1.255919 -1.255919,1.255919 l -3.46634,0.854024 c 0,0 -0.50237,-0.45213 -0.904264,0.60284 -0.401894,1.05498 -0.60284,1.60758 -0.401894,2.00948 0.200948,0.40189 0.05024,0.85402 1.959237,1.55734 1.908998,0.70331 2.712786,0.80379 2.712786,0.80379 z"
         id="path110" />
      <path
         style="opacity:1;fill:#d4b173;fill-opacity:1;stroke-width:2.117;stroke-linejoin:round;stroke-miterlimit:3.1;paint-order:markers stroke fill"
         d="m 125.89344,112.90722 c 0.47724,0.47725 1.20568,2.88862 2.28577,3.94359 1.08009,1.05497 4.0943,0.4019 4.0943,0.4019 l 3.08956,1.53222 0.1256,-1.73317 -0.0502,-0.55261 c 0,0 1.02985,1.60758 -3.19004,-0.12559 -4.21989,-1.73317 -5.45069,-3.56681 -2.83838,-3.03932 2.61232,0.52748 4.19478,0.95449 4.19478,0.95449 l -0.32654,-0.30142 c 0,0 -0.0502,-0.80379 -1.6327,-1.20568 -1.58246,-0.4019 -4.62179,-2.16018 -5.07392,-3.08956 -0.45213,-0.92939 -0.52748,-1.53223 1.10521,-1.33128 1.6327,0.20095 2.56208,0.12559 3.03933,0.90426 0.47725,0.77867 -0.30142,1.53223 -0.30142,1.53223 0,0 0.2763,-0.0251 1.70805,0.0251 1.43175,0.0502 3.03933,-0.42701 3.03933,-0.42701 0,0 2.83838,-1.08009 2.66255,-2.31089 -0.17583,-1.2308 -0.4019,-2.51184 -0.72844,-2.36113 -0.32654,0.15071 -2.93885,0.2763 -3.94359,-0.87915 -1.00473,-1.15544 -0.25118,-2.36113 0.6782,-1.98435 0.92938,0.37678 1.28104,0.77867 2.16018,0.77867 0.87915,0 1.18057,-0.20095 1.70805,0.42701 0.52749,0.62796 0.65308,0.77867 0.65308,0.77867 0,0 1.58246,-0.75355 1.45687,-0.8289 -0.12559,-0.0754 -4.06918,-2.38625 -6.50566,-3.29051 -2.43649,-0.904268 -2.13507,-1.080096 -3.13981,-0.57773 -1.00473,0.50237 -1.93411,0.55261 -3.24027,0.80379 -1.30616,0.25119 -2.23554,0.17583 -1.38151,0.5526 0.85402,0.37678 2.13506,1.68294 3.31563,2.0346 1.18056,0.35165 1.909,1.65781 1.33127,2.7379 -0.57772,1.08009 -0.77867,0.77867 -1.43175,0.60284 -0.65307,-0.17583 -2.36113,-0.5526 -2.38625,-0.35165 -0.0251,0.20094 0.42702,0.62796 -2.31089,0.50237 -2.7379,-0.1256 -4.32036,-1.60758 -4.32036,-1.50711 0,0.10047 1.05497,4.06918 3.0142,4.87297 1.95924,0.80379 3.01421,1.43175 3.03933,1.80853 0.0251,0.37677 0.10048,0.70331 0.10048,0.70331 z"
         id="path111" />
      <path
         style="opacity:1;fill:#d4b173;fill-opacity:1;stroke-width:2.117;stroke-linejoin:round;stroke-miterlimit:3.1;paint-order:markers stroke fill"
         d="m 108.43615,96.806326 c 0,0 -2.68767,0.02511 -4.04407,0.577723 -1.35639,0.552603 -1.48198,0.602842 -1.48198,0.602842 0,0 -3.591934,0.175829 -3.692407,0.301419 -0.100475,0.125592 -1.029856,1.85876 -1.130329,1.88388 -0.100473,0.0251 -2.185302,-1.105209 -2.235539,-0.502366 -0.05024,0.602836 0.879145,3.064446 1.080093,3.240276 0.200946,0.17583 1.230802,0.52748 0.803788,0.60284 -0.427013,0.0754 -1.607579,-0.37678 -1.230802,0.22606 0.376778,0.60285 1.230802,1.15545 1.381512,1.23081 0.150712,0.0754 0.879144,0.57772 0.879144,0.57772 0,0 1.004737,0.60284 1.88388,0.60284 h 0.97962 c 0,0 -0.50237,-1.48199 -0.0754,-1.68293 0.42702,-0.20095 1.08009,-1.05497 1.68294,-1.08009 0.60284,-0.0251 3.39098,0 3.54169,0 0.15071,0 1.98435,0.0251 2.36113,0.22606 0.37678,0.20095 1.53222,1.28104 0.82891,1.88388 -0.70332,0.60285 -2.56208,0.60285 -2.56208,0.60285 l -1.18057,0.20094 c 0,0 1.02986,1.43175 0.22607,2.08483 -0.80379,0.65308 -0.25118,1.55734 -0.20095,1.68293 0.0502,0.12559 0.22607,2.28578 1.53223,3.06445 1.30615,0.77867 1.7834,0.8289 1.73317,0.6782 -0.0502,-0.15072 -0.0502,-1.00474 -0.15071,-1.0801 -0.10048,-0.0754 -1.15545,-0.15071 -0.97962,-0.52748 0.17583,-0.37678 0.90426,-0.80379 0.92938,-0.90427 0.0251,-0.10047 -0.0502,-1.70805 -0.0502,-1.70805 0,0 0.80379,-0.47725 1.02986,-1.10521 0.22606,-0.62796 0.25118,-1.10521 0.25118,-1.10521 0,0 0.45213,0.42701 1.78341,-1.10521 1.33127,-1.53222 1.68293,-2.16018 2.4616,-2.68767 0.77867,-0.52748 1.70805,-0.45213 1.25592,-0.70331 -0.45213,-0.25119 -0.90565,-0.51075 -1.18056,-0.92938 -0.25194,-0.38365 0.24826,-2.425243 -0.35166,-1.33128 0,0 -1.16048,0.70791 -1.80853,0.87915 -1.13563,0.30008 -2.41222,0.6262 -3.51657,0.22606 -0.75609,-0.27395 -1.82505,-0.85729 -1.74967,-1.66108 0.0754,-0.803788 0.97914,-1.244915 1.05171,-1.236892 2.60373,0.287838 -0.72123,-1.183767 -0.57054,-1.485186 0.15069,-0.301429 0.62796,-0.263745 0.62796,-0.263745 z"
         id="path112"
         sodipodi:nodetypes="cscsssscsccscsssssccsssccsscscsssacasssscc" />
      <path
         style="opacity:1;fill:#d4b173;fill-opacity:1;stroke-width:2.117;stroke-linejoin:round;stroke-miterlimit:3.1;paint-order:markers stroke fill"
         d="m 115.97167,88.743318 c 0,0 -1.43175,1.205682 0.43957,1.959234 1.87132,0.753552 1.95923,-3.353305 1.95923,-3.353305 l -0.25721,-1.810377 c 0,0 0.60389,0.08881 1.19002,-0.301945 0.58612,-0.39075 -0.44404,-0.621649 0.90583,-0.479558 1.34986,0.142092 2.11361,0.39075 1.58076,0.461796 -0.53284,0.07105 -0.90583,0 -0.90583,0 0,0 -1.45643,0.372991 0.97688,1.38539 2.43331,1.012399 4.01407,-1.509717 4.01407,-1.509717 0,0 0.67494,0.15985 1.36763,0.266419 0.69269,0.106569 1.75838,0.532842 1.31434,0.621649 -0.44403,0.08881 -0.81702,0.124331 -0.88807,0.159853 -0.071,0.03552 -0.24866,0.603888 -1.13673,1.101207 -0.88807,0.497319 -2.06032,0.266419 -1.93599,0.710454 0.12433,0.444034 0.60389,0.817025 -0.071,1.207775 -0.67494,0.39075 -2.22018,-0.248658 -2.41555,1.509718 -0.19538,1.758378 0.37299,3.516757 3.03719,2.380027 2.66421,-1.136729 3.30362,-3.516757 3.05497,-4.06736 -0.24866,-0.550603 -0.78151,-0.408511 -0.2309,-0.639408 0.5506,-0.230899 2.07808,-0.63941 2.07808,-0.63941 0,0 1.42091,0.195373 1.50972,0.337465 0.0888,0.142092 0.0178,1.491956 0,1.598525 -0.0178,0.106569 0.71487,1.512935 0.84046,1.688764 0.12559,0.175829 0.20095,1.507104 -0.30142,1.607577 -0.50237,0.100473 -0.60284,0.100473 -0.60284,0.100473 l 0.12559,0.753552 c 0,0 0.82891,-0.502367 0.85403,-0.351658 0.0251,0.150712 -1.25592,1.758288 -1.38151,1.808525 -0.1256,0.05024 -0.17583,-0.12559 -0.17583,0.175829 0,0.301421 0.35166,0.979619 -0.50237,0.753554 -0.85403,-0.226068 -0.85403,-0.351658 -0.87915,-0.251185 -0.0251,0.100473 0.0251,0.929381 -0.67819,0.427014 -0.70332,-0.50237 -0.37678,-2.612316 -3.11469,-2.185302 -2.7379,0.427013 1.70806,4.06918 0.47725,3.717523 -1.2308,-0.351658 -1.43174,-0.703316 -1.65781,-0.728433 -0.22607,-0.02511 -2.4616,0.678196 -2.31089,-0.05024 0.15071,-0.728435 1.75829,-2.913735 -0.82891,-4.018947 -2.5872,-1.105209 -5.14927,-0.778669 -5.47581,-1.230799 -0.32654,-0.452133 -1.43175,-1.909001 -1.02986,-3.340748 0.4019,-1.431751 1.25592,-1.758289 1.13033,-1.130329 -0.12559,0.627959 -0.0754,1.356394 -0.0754,1.356394 z"
         id="path113" />
      <path
         style="opacity:1;fill:#d4b173;fill-opacity:1;stroke-width:2.117;stroke-linejoin:round;stroke-miterlimit:3.1;paint-order:markers stroke fill"
         d="m 104.59303,79.198323 c 0,0 -0.37678,0.577726 -0.52749,0.627963 -0.15071,0.05024 -2.58719,-0.150712 -3.4161,0.728432 -0.828907,0.879144 -1.431747,2.386248 -0.728434,2.637433 0.703314,0.251184 0.979624,0.07536 1.205684,0.301421 0.22607,0.226065 0.35166,0.703315 1.10521,0.728432 0.75355,0.02511 0.85403,0.02511 0.85403,0.02511 0,0 0.52748,1.682933 1.13032,1.808525 0.60285,0.125593 0.6782,0.150709 0.6782,0.150709 0,0 1.85876,-1.381511 3.21516,-0.577723 1.35639,0.803791 2.31089,1.532224 0.90426,2.185303 -1.40663,0.653079 -2.43649,0.301421 -2.43649,0.301421 l 0.61263,1.615199 c 0,0 -1.49196,-0.408511 -2.06032,-0.248658 -0.56837,0.159851 -1.75838,0.319704 -1.75838,0.319704 l 0.76374,1.243298 c 0,0 -0.2309,-0.372991 0.74598,0.08881 0.97687,0.461795 1.31434,1.207772 1.31434,1.207772 0,0 -1.54524,0.461796 1.72285,0.01775 3.2681,-0.444034 2.85959,-3.07272 3.30362,-3.392427 0.44404,-0.319704 0.51508,-1.012399 0.60389,-1.634048 0.0888,-0.621646 0.85255,-1.083445 0.87031,-1.758376 0.0178,-0.674933 0.21314,-0.763741 -0.17762,-0.550603 -0.39075,0.213135 -3.16152,0.05329 -3.28585,0 -0.12433,-0.05328 -2.4866,-1.456436 -1.10121,-2.184651 1.38539,-0.728218 2.85958,-0.408514 3.21481,-0.568365 0.35523,-0.159853 1.10121,-0.230899 0.28419,-0.426275 -0.81703,-0.195374 -0.81703,-0.195374 -0.81703,-0.195374 0,0 0.65717,-0.372988 0.76374,-0.923592 0.10657,-0.550603 0.56837,-0.657172 0.0355,-0.657172 -0.53284,0 -0.90583,0.355227 -1.29658,-0.03552 -0.39075,-0.390752 -0.44403,-1.118968 -0.56836,-0.799264 -0.12433,0.319707 0.42627,0.550604 -0.47956,1.545241 -0.90583,0.99464 -2.96615,1.563005 -3.57004,0.08881 -0.60389,-1.474195 -0.67493,-2.202413 -0.92359,-2.04256 -0.24866,0.159853 -0.18143,0.373261 -0.18143,0.373261 z"
         id="path114" />
    </g>
    <g
       inkscape:groupmode="layer"
       id="layer20"
       inkscape:label="Bumbu &amp; Ebi O">
      <path
         style="opacity:1;fill:#242225;fill-opacity:1;stroke-width:2.117;stroke-linejoin:round;stroke-miterlimit:3.1;paint-order:markers stroke fill"
         d="m 97.456764,78.292221 c -1.42091,2.273459 -0.586126,4.298257 0.195376,4.955429 0.7815,0.657172 3.21481,0.444034 2.55764,-0.03552 -0.657172,-0.479558 -1.989275,-1.118968 -2.024798,-2.149129 -0.03552,-1.03016 0.355227,-2.628685 1.740614,-3.445711 1.385394,-0.817022 2.415554,-1.083445 2.593164,-0.888068 0.17761,0.195373 0.26642,0.532841 0.56837,0.284181 0.30194,-0.248658 0.15985,-0.532842 -0.2309,-0.692693 -0.39075,-0.159853 -0.63265,-0.296947 -0.9722,-0.305061 -2.482285,-0.05932 -4.427266,2.276572 -4.427266,2.276572 z"
         id="path93"
         sodipodi:nodetypes="cssssssssc" />
      <path
         style="opacity:1;fill:#242225;fill-opacity:1;stroke-width:2.117;stroke-linejoin:round;stroke-miterlimit:3.1;paint-order:markers stroke fill"
         d="m 105.78686,73.105893 c -0.93909,0.01738 -1.98928,-0.213135 -2.34451,1.563005 -0.35522,1.776137 0.63941,3.907504 1.42091,3.019435 0.78151,-0.888068 0.071,-2.486594 0.42628,-2.699731 0.35523,-0.213138 2.30898,-0.106569 2.98391,0.923591 0.67494,1.030161 1.38539,2.16689 1.63405,1.634048 0.24866,-0.532841 0.20286,-1.073242 -1.17225,-2.94839 -0.7815,-1.065683 -1.79508,-1.513308 -2.94839,-1.491958 z"
         id="path94"
         sodipodi:nodetypes="ssscssss" />
      <path
         style="opacity:1;fill:#242225;fill-opacity:1;stroke-width:2.117;stroke-linejoin:round;stroke-miterlimit:3.1;paint-order:markers stroke fill"
         d="m 106.57738,91.858001 c -0.30142,0 -2.4616,0.45213 -2.86349,0.678196 -0.4019,0.226065 -0.1256,0.627959 0.0251,0.678196 0.15071,0.05024 -1.98436,1.004736 -0.47725,2.185302 1.5071,1.180565 2.41136,0.427013 2.58719,0.502367 0.17583,0.07536 1.95924,1.507103 4.39572,1.783408 2.43649,0.276302 2.91374,0.376774 1.83365,-0.301421 -1.08009,-0.678196 -3.31563,-1.708053 -4.44596,-2.009474 -1.13033,-0.301418 -2.00947,-0.477247 -1.30616,-0.778669 0.70332,-0.301421 4.64691,-0.753551 5.92794,-0.653078 1.28104,0.100472 2.78815,0.376774 1.95924,0 -0.82891,-0.376778 -1.50711,-0.753552 -4.3706,-0.879145 -2.8635,-0.125592 -4.24501,0.728433 -4.62179,1.255919 -0.37677,0.527487 -0.10047,0.854027 -0.10047,0.854027 0,0 -0.72843,0.07535 -1.10521,-0.401894 -0.37678,-0.47725 0.47725,-1.507106 1.43175,-1.959237 0.9545,-0.45213 2.26065,-0.45213 1.75829,-0.678195 -0.50237,-0.226066 -0.62797,-0.276302 -0.62797,-0.276302 z"
         id="path95" />
      <path
         style="opacity:1;fill:#242225;fill-opacity:1;stroke-width:2.117;stroke-linejoin:round;stroke-miterlimit:3.1;paint-order:markers stroke fill"
         d="m 117.95602,84.498309 c 0,0 -0.62796,-1.10521 -1.75829,0.653076 -1.13033,1.758288 -1.48198,3.516577 -0.50237,4.069183 0.97962,0.552603 1.30616,-0.979617 1.33128,-1.833644 0.0251,-0.854025 0.87914,-1.255919 0.87914,-1.255919 0,0 -0.0502,2.687669 0.0754,2.888615 0.12559,0.200948 1.40663,-0.47725 0.90426,-2.511841 -0.50237,-2.03459 -0.92938,-2.00947 -0.92938,-2.00947 z"
         id="path96" />
      <path
         style="opacity:1;fill:#242225;fill-opacity:1;stroke-width:2.117;stroke-linejoin:round;stroke-miterlimit:3.1;paint-order:markers stroke fill"
         d="m 108.96363,103.1864 c 0,0 -5.97818,-0.97962 -7.68623,0.62796 -1.708052,1.60758 -0.80379,2.41136 0.60284,2.98909 1.40663,0.57772 1.00474,0.82891 2.23554,0.50237 1.2308,-0.32654 2.93885,-0.92938 3.86823,-0.92938 0.92938,0 1.83365,0.32654 1.20569,0 -0.62796,-0.32654 -2.41137,-1.18057 -4.62179,-1.13033 -2.21042,0.0502 -2.71279,-0.22607 -2.23554,-0.42701 0.47725,-0.20095 3.31563,-1.30616 5.14928,-0.9545 1.83364,0.35165 3.36586,0.20094 2.61231,-0.10048 -0.75355,-0.30142 -1.13033,-0.57772 -1.13033,-0.57772 z"
         id="path97" />
      <path
         style="opacity:1;fill:#242225;fill-opacity:1;stroke-width:2.117;stroke-linejoin:round;stroke-miterlimit:3.1;paint-order:markers stroke fill"
         d="m 93.495973,102.19906 c -4.009427,0.225 -1.649258,2.98833 -0.03552,3.33914 1.634048,0.35523 6.926937,1.1012 6.394103,0.53284 -0.532842,-0.56837 -1.809647,-1.61929 -3.800941,-2.16689 -1.420911,-0.39075 -2.699731,-0.21314 -3.019435,-0.63941 -0.439397,-0.58586 1.136729,-0.35523 0.817025,-0.63941 -0.319706,-0.28418 -0.355229,-0.42627 -0.355229,-0.42627 z"
         id="path98"
         sodipodi:nodetypes="csssssc" />
      <path
         style="opacity:1;fill:#242225;fill-opacity:1;stroke-width:2.117;stroke-linejoin:round;stroke-miterlimit:3.1;paint-order:markers stroke fill"
         d="m 97.385718,99.268427 c 0,0 -2.362266,-0.230899 -3.481234,0.319704 -1.118968,0.550599 -2.291217,1.509719 -1.65181,1.669569 0.639411,0.15986 2.291221,0 3.356904,0.071 1.065684,0.071 2.362266,0.10657 3.054961,0.49732 0.692693,0.39075 0.959115,0.74598 1.225537,0.5506 0.266424,-0.19538 1.456434,-1.42091 0.461794,-2.07808 -0.994638,-0.657175 -1.634046,-0.817028 -1.634046,-0.817028 0,0 0.177612,-1.083445 2.344506,-1.083445 2.16689,0 3.16153,-0.07105 3.48123,0.284184 0.3197,0.355227 1.29658,-0.106569 0.76374,-0.426276 -0.53284,-0.319704 -1.72285,-0.941353 -4.40482,-0.799261 -2.681975,0.142092 -3.232578,0.745979 -3.427955,1.172252 -0.195376,0.426273 -0.08881,0.639411 -0.08881,0.639411 z"
         id="path99" />
      <path
         style="opacity:1;fill:#242225;fill-opacity:1;stroke-width:2.117;stroke-linejoin:round;stroke-miterlimit:3.1;paint-order:markers stroke fill"
         d="m 119.1079,79.713131 c -0.0355,-0.177612 -1.06568,-2.912866 -2.3445,-3.090481 -1.27882,-0.177615 -3.51676,2.877346 -3.19705,4.689006 0.3197,1.811663 1.45643,3.16153 1.77614,1.989278 0.3197,-1.172252 -0.14209,-3.445711 0.7815,-4.404826 0.92359,-0.959114 1.77614,-0.106568 1.95375,0.817023 0.17762,0.923594 0.14209,1.349867 0.14209,1.349867 0,0 -0.88807,0.426273 -0.17761,0.497319 0.71045,0.07105 1.88271,-0.07105 2.69973,0.355227 0.81702,0.426276 1.17225,2.095844 2.59316,1.77614 1.42091,-0.319704 0.56837,-0.923592 0.56837,-0.923592 0,0 1.563,-1.705094 2.55764,-1.705094 0.99464,0 1.31434,0.248658 1.31434,0.248658 0,0 0.071,1.172253 -0.17761,1.758379 -0.24866,0.586126 -1.42091,1.456436 -1.06569,1.580764 0.35523,0.12433 0.87031,-0.177613 1.65181,-1.580764 0.7815,-1.403149 0.17762,-2.930628 -0.12433,-3.054959 -0.30194,-0.12433 -1.13673,-0.497318 -2.5754,-0.08881 -1.43867,0.408511 -1.59852,1.225537 -2.16689,0.888069 -0.56836,-0.337466 -1.54524,-1.776138 -2.69973,-1.687333 -1.15449,0.08881 -1.50972,0.586126 -1.50972,0.586126 z"
         id="path100" />
      <path
         style="opacity:1;fill:#242225;fill-opacity:1;stroke-width:2.117;stroke-linejoin:round;stroke-miterlimit:3.1;paint-order:markers stroke fill"
         d="m 108.88828,112.75651 c 0,0 -0.60285,1.88388 1.68293,2.76302 2.28577,0.87915 5.12415,-2.33601 4.47107,-2.68766 -0.65307,-0.35166 -3.49145,1.5071 -4.16965,1.20568 -0.6782,-0.30142 -0.75355,-1.6327 -1.38151,-1.70805 -0.62796,-0.0754 -0.60284,0.42701 -0.60284,0.42701 z"
         id="path101" />
      <path
         style="opacity:1;fill:#242225;fill-opacity:1;stroke-width:2.117;stroke-linejoin:round;stroke-miterlimit:3.1;paint-order:markers stroke fill"
         d="m 113.98731,114.18826 c 0,0 0.10048,0.72843 1.33128,0.87914 1.2308,0.15071 2.23553,-0.42701 2.23553,-0.42701 0,0 0.75356,0.85403 1.48199,0.75355 0.72844,-0.10047 2.61231,0.0251 1.55734,-0.8289 -1.05497,-0.85403 -2.48672,-1.05498 -2.48672,-1.05498 0,0 -0.20095,-1.05497 1.95924,-1.43175 2.16018,-0.37677 3.08956,-0.12559 3.36586,0.57773 0.2763,0.70331 0.82891,1.05497 0.90426,0.75355 0.0754,-0.30142 -0.95449,-2.4616 -3.31562,-2.43649 -2.36113,0.0251 -3.41611,0.27631 -3.94359,1.3564 -0.52749,1.08009 0.12559,1.25592 -0.20095,1.40663 -0.32654,0.15071 -0.15071,0.47725 -0.9545,0.37677 -0.80379,-0.10047 -1.25592,-0.62796 -1.25592,-0.62796 z"
         id="path102" />
      <path
         style="opacity:1;fill:#242225;fill-opacity:1;stroke-width:2.117;stroke-linejoin:round;stroke-miterlimit:3.1;paint-order:markers stroke fill"
         d="m 123.37064,114.17023 c 0.10656,0.21314 2.3445,4.40483 4.72453,4.36931 2.38002,-0.0355 3.76541,-1.10121 4.0496,-0.85255 0.28418,0.24866 2.69973,1.84719 3.37466,1.38539 0.67493,-0.4618 0.53284,-2.52212 -0.42627,-3.72989 -0.95912,-1.20778 -1.59853,-1.59853 -1.59853,-1.59853 0,0 -0.60389,-0.24866 -0.33747,0.17762 0.26642,0.42627 1.58077,1.49195 1.7939,2.39778 0.21314,0.90583 0.4618,2.00704 -0.23089,1.68733 -0.6927,-0.3197 -2.2557,-1.50971 -2.61093,-1.58076 -0.35523,-0.071 -0.4618,1.33211 -3.48123,0.30195 -3.01944,-1.03016 -4.33378,-2.77078 -4.72453,-2.77078 -0.39075,0 -0.53284,0.21313 -0.53284,0.21313 z"
         id="path103" />
      <path
         style="opacity:1;fill:#242225;fill-opacity:1;stroke-width:2.117;stroke-linejoin:round;stroke-miterlimit:3.1;paint-order:markers stroke fill"
         d="m 133.32848,110.44562 c 0,0 -0.37677,-0.47725 1.2308,-1.10521 1.60758,-0.62796 3.01421,-1.15545 2.43649,-1.98436 -0.57772,-0.8289 -1.68293,-1.20568 -1.70805,-1.90899 -0.0251,-0.70332 0.6782,-0.70332 0.6782,-0.70332 0,0 3.13979,-0.40189 3.51657,-1.43175 0.37678,-1.02985 -3.46634,-2.98909 -4.29525,-3.08956 -0.8289,-0.10048 -1.08009,-0.50237 -1.08009,-0.50237 0,0 1.43175,-0.326538 4.34549,0.87914 2.91373,1.20569 2.93885,2.83838 2.21042,3.91848 -0.72844,1.08009 -2.26066,1.43174 -2.08483,1.7834 0.17583,0.35166 1.20568,0.75355 0.50237,2.66255 -0.70332,1.909 -2.28578,2.36113 -3.84312,2.1853 -1.55734,-0.17583 -1.909,-0.70331 -1.909,-0.70331 z"
         id="path104" />
      <path
         style="opacity:1;fill:#242225;fill-opacity:1;stroke-width:2.117;stroke-linejoin:round;stroke-miterlimit:3.1;paint-order:markers stroke fill"
         d="m 136.97065,88.065122 c -0.6782,0.527487 -3.31563,2.436484 -2.05971,2.386248 1.25592,-0.05024 2.83838,-1.733172 3.51658,-1.909 0.67819,-0.175829 0.90426,-0.175829 0.70331,0.376777 -0.20094,0.552603 -1.65781,2.210419 -1.65781,2.210419 0,0 -2.33601,-0.125593 -3.39099,0.351658 -1.05497,0.47725 -1.98435,1.858761 -2.23553,2.813261 -0.25119,0.954498 3.46634,-1.808525 4.77249,-1.55734 1.30616,0.251182 1.55734,0.100473 1.38152,0.653076 -0.17583,0.552607 -0.10048,1.255922 0.67819,0.50237 0.77867,-0.753552 0.42701,-1.682932 -0.0502,-2.260658 -0.47724,-0.577723 -0.65307,-0.427011 -0.65307,-0.427011 0,0 2.69071,-2.432914 2.16322,-3.46277 -0.75564,-1.47532 -2.85491,0.07945 -3.168,0.32297 z"
         id="path105"
         sodipodi:nodetypes="sssscsssssscss" />
      <path
         style="opacity:1;fill:#242225;fill-opacity:1;stroke-width:2.117;stroke-linejoin:round;stroke-miterlimit:3.1;paint-order:markers stroke fill"
         d="m 143.20002,95.274102 c 0,0 0.60284,-1.004736 -0.75356,-1.582459 -1.35639,-0.577723 -2.16018,-0.401894 -3.1398,0.602842 -0.97961,1.004737 -0.87914,1.431748 -0.37677,1.481984 0.50237,0.05024 0.75355,-0.150709 1.2308,0.05024 0.47725,0.200946 0.47725,0.200946 0.47725,0.200946 0,0 -0.25119,2.05971 1.30616,1.833645 1.55734,-0.226066 2.16018,-1.080093 3.19003,-1.281039 1.02986,-0.200948 1.15545,-0.05024 1.15545,-0.05024 0,0 -1.68293,2.612313 -1.98436,2.737905 -0.30142,0.125593 -0.8289,0.401895 -0.77866,0.527487 0.0502,0.12559 -0.57773,0.527487 0.2763,0.452137 0.85402,-0.0754 3.94359,-2.989097 3.49146,-4.320372 -0.45214,-1.331275 -1.93412,-1.105209 -2.66255,-0.92938 -0.72844,0.175828 -1.43175,0.276301 -1.43175,0.276301 z"
         id="path106" />
      <path
         style="opacity:1;fill:#242225;fill-opacity:1;stroke-width:2.117;stroke-linejoin:round;stroke-miterlimit:3.1;paint-order:markers stroke fill"
         d="m 140.91889,103.19369 c 0,0 -0.49732,-0.26642 -0.35523,-0.47955 0.14209,-0.21314 -0.42627,-0.51508 1.59853,0.30194 2.0248,0.81702 3.12601,0.49732 3.12601,0.49732 0,0 -1.95376,-1.10121 -1.7939,-1.63405 0.15985,-0.53284 0.5506,-0.71046 0.5506,-0.71046 0,0 2.16689,-0.58612 2.66421,1.17226 0.49732,1.75838 0.35522,2.20241 -0.15986,2.22017 -0.51508,0.0178 -1.70509,0.12433 -2.87734,-0.071 -1.17225,-0.19538 -2.75302,-1.29659 -2.75302,-1.29659 z"
         id="path107"
         sodipodi:nodetypes="csscscscccc" />
      <path
         style="opacity:1;fill:#242225;fill-opacity:1;stroke-width:2.117;stroke-linejoin:round;stroke-miterlimit:3.1;paint-order:markers stroke fill"
         d="m 128.80562,84.810652 c 0,0 -0.15985,-1.847186 1.13673,-2.770778 1.29658,-0.923591 3.60556,-1.953752 3.85423,-0.923591 0.24865,1.03016 -0.30195,3.250335 -1.17226,4.777814 -0.87031,1.527479 -1.26106,1.509718 -1.26106,1.509718 0,0 -0.76374,0.372991 -0.44403,-0.301943 0.3197,-0.674934 1.58076,-1.829424 1.74062,-3.392427 0.15985,-1.563002 0.23089,-1.953752 -0.31971,-1.456433 -0.5506,0.497319 -3.53452,2.55764 -3.53452,2.55764 z"
         id="path108" />
      <path
         style="opacity:1;fill:#242225;fill-opacity:1;stroke-width:2.117;stroke-linejoin:round;stroke-miterlimit:3.1;paint-order:markers stroke fill"
         d="m 129.60488,87.474861 c 0,0 3.73284,-1.252809 3.48123,0.26642 -0.24051,1.452238 -0.30414,2.180895 -1.34986,2.912869 -1.07736,0.754119 -1.22554,0.621649 -1.04792,-0.532842 0.17761,-1.15449 0.6394,-1.847186 0.33746,-1.847186 -0.30194,0 -1.20777,0.195377 -1.40315,-0.195373 -0.19537,-0.390753 -0.0178,-0.603888 -0.0178,-0.603888 z"
         id="path109"
         sodipodi:nodetypes="cssssscc" />
    </g>
  </g>
</svg>
