<?xml version="1.0" encoding="UTF-8" standalone="no"?>
<!-- Created with Inkscape (http://www.inkscape.org/) -->

<svg
   width="65.315468mm"
   height="84.276245mm"
   viewBox="0 0 65.315468 84.276245"
   version="1.1"
   id="svg1"
   inkscape:version="1.3 (0e150ed6c4, 2023-07-21)"
   sodipodi:docname="egg_phase_ii.svg"
   xmlns:inkscape="http://www.inkscape.org/namespaces/inkscape"
   xmlns:sodipodi="http://sodipodi.sourceforge.net/DTD/sodipodi-0.dtd"
   xmlns="http://www.w3.org/2000/svg"
   xmlns:svg="http://www.w3.org/2000/svg">
  <sodipodi:namedview
     id="namedview1"
     pagecolor="#ffffff"
     bordercolor="#000000"
     borderopacity="0.25"
     inkscape:showpageshadow="2"
     inkscape:pageopacity="0.0"
     inkscape:pagecheckerboard="0"
     inkscape:deskcolor="#d1d1d1"
     inkscape:document-units="mm"
     inkscape:zoom="1.1924351"
     inkscape:cx="83.862008"
     inkscape:cy="265.42325"
     inkscape:window-width="1920"
     inkscape:window-height="974"
     inkscape:window-x="-11"
     inkscape:window-y="-11"
     inkscape:window-maximized="1"
     inkscape:current-layer="layer3" />
  <defs
     id="defs1">
    <pattern
       id="EMFhbasepattern"
       patternUnits="userSpaceOnUse"
       width="6"
       height="6"
       x="0"
       y="0" />
  </defs>
  <g
     inkscape:groupmode="layer"
     id="layer2"
     inkscape:label="Layer 2"
     transform="translate(-102.75738,-118.20364)">
    <g
       inkscape:groupmode="layer"
       id="layer4"
       inkscape:label="F">
      <path
         style="opacity:1;fill:#f0eddb;fill-opacity:1;stroke-width:2.117;stroke-linejoin:round;stroke-miterlimit:3.1;paint-order:markers stroke fill"
         d="m 126.09438,125.26547 c 0,0 -0.47725,1.40664 -1.5071,1.78341 -1.02985,0.37678 -5.727,2.26066 -5.727,2.26066 l 1.98436,2.58719 c 0,0 -2.68767,3.61705 -2.53696,3.86824 0.15071,0.25118 3.94359,9.72082 3.94359,9.72082 l -6.15401,1.20568 -1.58246,3.21516 c 0,0 -2.13507,-0.45213 -3.99383,-1.95924 -1.85876,-1.5071 -6.12889,-5.82746 -6.53078,-9.59523 -0.4019,-3.76776 2.21042,-10.19807 4.16965,-11.70517 1.95924,-1.50711 7.58576,-2.8635 11.0521,-2.66255 3.46634,0.20094 6.88244,1.28103 6.88244,1.28103 z"
         id="path3" />
      <path
         style="opacity:1;fill:#d2cab6;fill-opacity:1;stroke-width:2.117;stroke-linejoin:round;stroke-miterlimit:3.1;paint-order:markers stroke fill"
         d="m 104.24137,140.864 c 0,0 8.5905,2.00948 10.04736,2.16019 1.45687,0.15071 -0.10047,-0.10048 0.10048,-0.80379 0.20094,-0.70332 0.80379,-3.26539 1.55734,-2.81326 0.75355,0.45213 1.60757,0.80378 1.75829,0 0.15071,-0.80379 0.45213,-4.11942 0.45213,-4.11942 l -1.07387,0.0186 c 0,0 -1.27882,0.10657 -0.21313,-1.20777 1.06568,-1.31435 2.3445,-1.13673 2.3445,-1.13673 l -0.74598,3.48123 c 0,0 4.72453,8.80965 4.58244,8.80965 -0.14209,0 -6.35858,1.10121 -6.35858,1.10121 0,0 -1.91823,3.5878 -2.23793,3.5878 -0.31971,0 -2.55764,0.0711 -4.61797,-2.45107 -2.06032,-2.52212 -5.59508,-6.62661 -5.59508,-6.62661 z"
         id="path4" />
      <path
         style="opacity:1;fill:#d2cab6;fill-opacity:1;stroke-width:2.117;stroke-linejoin:round;stroke-miterlimit:3.1;paint-order:markers stroke fill"
         d="m 138.25169,127.40054 c 0.70332,0.30142 5.62652,-1.5071 6.02842,-0.70331 0.40189,0.80378 1.60757,1.5071 0.50236,1.1052 -1.1052,-0.40189 -4.32036,-0.70331 -2.00947,0.20095 2.3109,0.90426 6.43031,2.71279 9.64547,2.61232 3.21515,-0.10048 3.71752,-3.41611 4.82273,-2.41137 1.10521,1.00474 1.20569,2.81326 1.909,2.21042 0.70332,-0.60284 5.82747,-3.4161 5.82747,-3.4161 0,0 1.40663,8.33931 1.40663,9.34404 0,1.00474 -3.31563,5.42558 -3.31563,5.42558 l -7.43505,4.9232 -1.5071,-0.90426 c 0,0 -1.60758,-9.84641 -1.70805,-9.04262 -0.10047,0.80378 -3.54247,2.39816 -3.54247,2.39816 0,0 -0.31971,-0.46179 -0.85255,-0.49731 -0.53284,-0.0355 -5.71917,0.88806 -5.71917,0.88806 l -1.20777,-3.5878 c 0,0 -1.34987,0.56837 -1.66957,-0.071 -0.31971,-0.63941 -0.21314,-4.61797 -0.21314,-4.61797 l -1.81166,-0.10656 1.06568,-3.62333 z"
         id="path5" />
      <path
         style="opacity:1;fill:#f0eddb;fill-opacity:1;stroke-width:2.117;stroke-linejoin:round;stroke-miterlimit:3.1;paint-order:markers stroke fill"
         d="m 166.23359,128.45551 c 0,0 -5.37534,5.22463 -12.10707,3.86824 -6.73173,-1.3564 -15.32223,-4.01895 -15.12128,-4.37061 0.20095,-0.35165 4.11942,-6.93267 4.32037,-6.78197 0.20095,0.15072 9.24357,-2.26065 11.40375,-1.40662 2.16019,0.85402 9.09286,4.42083 9.34405,5.72699 0.25118,1.30616 2.16018,2.96397 2.16018,2.96397 z"
         id="path7" />
      <path
         style="opacity:1;fill:#d2cab6;fill-opacity:1;stroke-width:2.117;stroke-linejoin:round;stroke-miterlimit:3.1;paint-order:markers stroke fill"
         d="m 155.43268,124.83846 c 0,0 -3.41611,-0.65308 -4.72226,-0.20094 -1.30616,0.45213 -2.16019,1.80852 0.50237,2.26065 2.66255,0.45213 6.02841,-0.25118 5.3251,-1.00473 -0.70332,-0.75356 -1.10521,-1.05498 -1.10521,-1.05498 z"
         id="path6" />
      <path
         style="opacity:1;fill:#fdfff1;fill-opacity:1;stroke-width:2.117;stroke-linejoin:round;stroke-miterlimit:3.1;paint-order:markers stroke fill"
         d="m 148.66286,164.64811 c 0.4618,0.49732 2.45107,1.17226 2.38003,3.09049 -0.0711,1.91823 -2.52212,8.84517 -2.4866,9.16488 0.0355,0.3197 1.70509,2.3445 1.84719,3.55227 0.14209,1.20778 -0.99464,5.11529 -0.99464,5.11529 l -3.62332,4.47587 c 0,0 0.56836,0.071 0.60388,0.24865 0.0355,0.17762 0.0711,3.51676 0.0711,3.51676 l -4.29826,5.11528 c 0,0 -5.89678,3.65885 -6.67828,3.23258 -0.7815,-0.42628 -8.17025,-2.0248 -8.17025,-2.0248 l -2.30897,-2.30898 c 0,0 -9.20041,-2.30898 -10.62132,-4.08512 -1.42091,-1.77614 -3.65884,-3.37467 -3.76541,-5.64813 -0.10657,-2.27346 0.39075,-4.72453 1.03016,-5.18632 0.63941,-0.4618 3.23257,-1.91824 3.23257,-1.91824 l 3.48123,-1.45643 c 0,0 -1.03016,6.35858 0.74598,8.8807 1.77614,2.52212 2.45107,3.30362 4.3693,4.04959 1.91824,0.74598 10.86998,-1.91822 10.86998,-1.91822 l 2.41555,-2.06033 c 0,0 0.42627,-0.63941 0.63941,-0.63941 0.21313,0 2.62868,-0.3197 2.77077,-1.24329 0.1421,-0.9236 2.66421,-6.78486 1.98928,-7.56636 -0.67493,-0.7815 -1.42091,2.98392 -1.42091,2.98392 0,0 -0.88807,-0.63941 -1.20778,-2.06033 -0.3197,-1.42091 -1.1012,-5.57707 -1.1012,-5.57707 0,0 -1.58724,-1.7677 -2.59198,-2.47101 -1.00473,-0.70332 -4.11941,-2.51184 -4.11941,-2.51184 0,0 1.34745,-4.00442 2.73283,-4.07546 1.38539,-0.071 6.25202,0.24866 7.95711,-0.071 1.70509,-0.3197 3.44571,-1.06568 4.29826,-1.03016 0.85254,0.0355 1.95375,0.42627 1.95375,0.42627 z"
         id="path15" />
      <path
         id="path16"
         style="opacity:1;fill:#d8dacb;fill-opacity:1;stroke-width:2.117;stroke-linejoin:round;stroke-miterlimit:3.1;paint-order:markers stroke fill"
         d="M 142.94356 168.244 C 141.04793 168.25738 138.53418 169.17486 138.25444 170.15396 C 137.82817 171.64591 137.25996 172.28542 137.47309 172.78274 C 137.68623 173.28006 138.32575 174.27464 138.32575 174.27464 C 138.32575 174.27464 138.89405 178.89259 139.81765 180.02932 C 140.74124 181.16605 141.45166 181.66333 141.45166 181.66333 L 141.87799 180.9533 C 142.30426 179.10612 145.71436 170.86453 145.0039 169.08839 C 144.75968 168.47784 143.93651 168.23698 142.94356 168.244 z M 149.17729 182.65965 C 149.02465 182.65133 148.80504 182.7382 148.48534 182.97798 C 147.20652 183.9371 146.24754 184.75389 147.56188 185.10912 C 148.87623 185.46435 149.69302 184.86049 149.69302 184.43422 C 149.69302 184.00794 149.62222 183.72367 149.62222 183.72367 C 149.489 183.56382 149.63519 182.68463 149.17729 182.65965 z M 118.81015 187.78492 C 117.30304 188.0361 113.8364 189.29245 114.48948 191.35215 C 115.14256 193.41185 123.6829 196.42566 123.83361 196.92803 C 123.98432 197.4304 129.56068 194.3158 129.66116 195.01911 C 129.76163 195.72242 128.35501 197.48068 131.0678 196.67689 C 133.78057 195.87311 134.33323 191.70355 134.33323 191.70355 L 134.23298 190.59819 C 134.23298 190.59819 132.92667 191.10082 131.01767 191.65342 C 129.10867 192.20603 124.28578 193.21095 124.28578 193.21095 C 124.28578 193.21095 122.27646 191.95485 121.87456 191.65342 C 121.47267 191.352 119.56352 189.7442 119.36257 189.64372 C 119.16162 189.54325 118.81015 187.78492 118.81015 187.78492 z M 146.05448 188.18231 C 146.01438 188.16969 145.97176 188.21767 145.92735 188.34199 C 145.57214 189.33663 143.86753 190.54444 143.86753 190.54444 C 142.80185 191.32594 140.24389 191.82297 139.53343 194.16748 C 138.82298 196.51198 139.24955 198.2174 137.97073 198.50158 C 136.69192 198.78576 133.06821 198.28825 131.29207 198.99871 C 129.51593 199.70916 128.23742 200.0641 129.72938 200.70351 C 131.22133 201.34292 134.91567 202.12453 137.11807 201.55617 C 139.32049 200.98781 142.30434 201.4141 144.36466 197.86183 C 146.42498 194.30955 146.78 192.24944 146.63791 191.75212 C 146.51358 191.31697 146.33519 188.27071 146.05448 188.18231 z " />
      <path
         style="opacity:1;fill:#fbe770;fill-opacity:1;stroke-width:2.117;stroke-linejoin:round;stroke-miterlimit:3.1;paint-order:markers stroke fill"
         d="m 138.20145,174.32172 1.01235,3.25669 c 0,0 -0.39075,0.39075 0.17761,0.92359 0.56837,0.53284 -0.17761,0.60389 0.67494,1.27882 0.85254,0.67493 1.06568,0.53284 1.06568,0.88807 0,0.35523 -0.35523,3.12601 -0.67493,3.65885 -0.31971,0.53284 -0.4618,2.13136 -0.4618,2.13136 0,0 -3.01944,0.9236 -3.01944,1.31435 0,0.39075 -0.7815,1.77614 -0.7815,1.77614 l -3.26809,1.42091 c 0,0 -5.86126,1.66957 -6.64277,1.66957 -0.7815,0 -2.6642,0.39075 -2.98391,0.17761 -0.31971,-0.21313 -4.33378,-2.0248 -4.72453,-5.6126 -0.39075,-3.5878 -1.17225,-4.3693 -0.53284,-6.99799 0.63941,-2.62868 2.13136,-5.86126 3.51675,-6.82037 1.38539,-0.95912 5.89679,-3.44571 8.91622,-3.44571 3.01944,0 7.3177,3.19705 7.3177,3.19705 z"
         id="path20" />
      <path
         id="path21"
         style="opacity:1;fill:#ccc375;fill-opacity:1;stroke-width:2.117;stroke-linejoin:round;stroke-miterlimit:3.1;paint-order:markers stroke fill"
         d="M 136.72016 173.6385 C 136.00785 173.61376 134.92906 173.82832 133.85006 174.80742 C 131.93183 176.54804 134.34711 176.93896 134.73786 178.00464 C 135.12861 179.07033 135.19992 178.28874 135.76828 178.39531 C 136.33664 178.50188 135.73253 186.06833 132.14473 187.7379 C 128.55693 189.40748 126.56786 187.41808 125.89292 186.88524 C 125.21799 186.3524 125.60847 186.03261 124.86249 185.35768 C 124.11651 184.68275 122.26954 184.46988 121.63013 183.51076 C 120.99072 182.55166 120.56427 183.47525 120.35114 184.46988 C 120.05074 185.87179 118.68147 187.09866 118.68147 187.09866 C 118.68147 187.09866 118.50422 187.27609 118.50422 187.59579 C 118.50422 187.9155 121.41674 191.46765 122.66004 192.49781 C 123.90334 193.52797 124.11658 192.92414 125.43093 192.92414 C 126.74527 192.92414 133.17516 190.8638 133.17516 190.8638 L 135.59052 190.26022 C 135.59052 190.26022 137.08258 188.30615 137.40229 187.84435 C 137.72199 187.38256 139.56888 186.95665 139.9241 186.70799 C 140.27933 186.45933 141.55843 180.59768 141.62943 180.02932 C 141.70047 179.46096 140.10204 179.28327 139.46263 178.50177 C 138.82322 177.72027 137.40231 174.02605 137.5444 173.88396 C 137.60657 173.8218 137.27418 173.65774 136.72016 173.6385 z M 133.35706 180.20141 C 132.99225 180.18753 132.15254 180.4014 131.46984 181.45043 C 130.74162 182.56939 130.59938 185.21599 131.77163 184.98509 C 132.94388 184.75419 134.17653 182.30055 134.22264 181.7703 C 134.29364 180.95327 133.96004 180.28175 133.42373 180.20709 C 133.40381 180.20432 133.38138 180.20233 133.35706 180.20141 z " />
    </g>
    <g
       inkscape:groupmode="layer"
       id="layer3"
       inkscape:label="O">
      <path
         id="path1"
         style="opacity:1;fill:#111b09;fill-opacity:1;stroke-width:2.117;stroke-linejoin:round;stroke-miterlimit:3.1;paint-order:markers stroke fill"
         d="m 119.1333,122.253 c -9.03846,0.19436 -17.775,7.48832 -16.18816,15.7887 0.9236,4.8311 6.39387,10.6567 9.80405,12.43284 3.41019,1.77613 3.33933,1.20767 3.33933,1.20767 0,0 1.36511,-0.9217 1.2144,-2.30321 -0.15071,-1.38151 -0.57771,-2.15999 -0.12558,-2.08463 0.45213,0.0754 4.496,-1.03004 4.8979,-0.85421 0.40189,0.17583 1.30614,0.65345 1.5322,0.30179 0.22607,-0.35166 0.75377,-1.50713 -0.10025,-3.39101 -0.85403,-1.88388 -4.64757,-7.09306 -4.4215,-7.49496 0.22606,-0.40189 1.88447,-3.63264 2.11053,-3.5824 0.22607,0.0502 0.50228,0.35173 0.62787,0.20102 0.1256,-0.15071 1.03003,-1.58246 0.15089,-2.10995 -0.87915,-0.52749 -1.83344,-1.53233 -1.38131,-1.3565 0.45213,0.17583 5.09868,-2.28595 6.02806,-2.38642 0.92938,-0.10047 1.93451,-0.8537 1.58285,-1.55701 -0.35166,-0.70332 -0.96222,-1.87172 -0.96222,-1.87172 0,0 -3.73123,-1.03413 -8.10906,-0.94 z m 5.23172,3.28456 c 0.39075,0.17761 0.63975,0.31987 0.63975,0.31987 0,0 -4.68885,1.13658 -5.57692,1.74047 -0.88807,0.60389 -1.45671,1.52732 -1.03043,1.74046 0.42627,0.21313 1.63382,2.27355 1.63382,2.27355 0,0 -3.12581,2.98415 -2.87715,3.97878 0.24866,0.99464 0.85243,0.99427 1.06557,1.13636 0.21314,0.1421 3.26815,7.42467 3.30367,7.77989 0.0355,0.35523 0.0712,0.60343 -0.49713,0.42582 -0.56836,-0.17762 -4.1205,0.0359 -4.75991,0.24908 -0.63941,0.21313 -1.4569,0.46133 -1.49242,1.38492 -0.0355,0.92359 -0.0709,1.35023 -0.39067,1.74098 -0.3197,0.39075 -0.56835,0.67477 -0.81701,0.63924 -0.24866,-0.0355 -8.88059,-5.54165 -8.88059,-11.26081 0,-9.44159 7.14356,-12.98571 13.10776,-12.89486 3.28415,0.05 4.44756,0.27148 6.57166,0.74625 z"
         sodipodi:nodetypes="ssscscsssscssssscsscsscsssssscssss" />
      <path
         id="path2"
         style="opacity:1;fill:#111b09;fill-opacity:1;stroke-width:2.117;stroke-linejoin:round;stroke-miterlimit:3.1;paint-order:markers stroke fill"
         d="m 147.91696,118.85903 c -10.65682,3.26808 -6.46513,2.69996 -6.46513,2.69996 l -0.28629,0.0641 c 0,0 -1.95191,3.34598 -2.66237,4.69583 -0.71045,1.34986 -1.56294,3.12587 -2.45101,3.80081 -0.88807,0.67493 -1.66965,1.17244 -0.56844,1.4211 1.1012,0.24866 1.20779,0.0353 2.06034,0.35502 0.85254,0.31969 1.13702,0.3202 1.17254,0.81752 0.0355,0.49732 0.0246,3.20022 0.2129,3.76514 0.0533,0.15985 0.35515,0.69275 0.69262,0.55066 0.63941,0.071 1.4215,-0.35265 1.54549,-0.0179 0.0764,0.20642 0.30735,2.47698 1.52756,3.09076 0.55296,0.17052 3.98224,-1.31621 4.49357,-1.0838 0.19538,0.0888 0.5858,0.65739 0.33714,0.90604 -0.24866,0.24866 -0.5457,1.13262 0,1.24333 0.203,0.0412 3.304,-1.8117 3.80132,-2.20245 0.49732,-0.39075 0.63923,-0.21342 0.63923,-0.21342 v 5.1e-4 c 0,0 1.13662,8.17016 2.9838,9.02271 1.84719,0.85255 13.99618,-7.38887 13.07259,-14.42238 -1.28958,-9.82065 -10.35329,-17.48439 -20.10586,-14.49354 z m 4.51198,1.68297 c 0.80335,-0.0159 1.55586,0.0401 2.20193,0.19998 3.44571,0.85255 8.41872,3.37466 10.08827,8.63204 1.66957,5.25735 -0.14185,9.55535 -2.13113,11.43806 -1.98927,1.88268 -4.12108,3.30361 -5.04465,3.83646 -0.9236,0.53282 -2.06034,1.03042 -2.06034,1.03042 0,0 -0.88807,-1.66962 -0.95912,-4.26279 -0.0711,-2.59314 0.49776,-4.9729 -0.56792,-5.54126 -1.06569,-0.56837 -4.36944,2.37966 -4.83123,2.09548 -0.4618,-0.28418 -1.38544,-4.22721 -2.34456,-4.79557 -0.95911,-0.56837 -6.5362,1.56325 -6.85591,0.88831 -0.3197,-0.67491 0.28422,-2.55798 0.28422,-2.55798 0,0 0.88786,-0.21267 0.35501,-0.42581 -0.53284,-0.21314 -2.02452,0.17743 -1.84691,-0.31988 0.17761,-0.49732 3.05465,-6.46545 3.48092,-7.06934 0.42628,-0.60387 0.24872,-1.20758 1.38545,-1.45624 0.92359,-0.20203 5.3648,-1.62322 8.84597,-1.69188 z m -6.75411,14.38672 c 0.10842,-0.002 0.19113,0.007 0.23823,0.0326 0.37678,0.20095 0.80379,2.86317 0.82889,2.96364 0.0251,0.10047 -2.36138,0.82908 -3.29076,0.97979 -0.98474,0.15969 -0.72745,-2.89374 -0.67801,-3.16467 0.0372,-0.20398 2.14268,-0.79415 2.90163,-0.81131 z"
         sodipodi:nodetypes="cccsssssscssssssccsscssssccsssscssssssssscscs" />
      <path
         id="path8"
         style="opacity:1;fill:#242225;fill-opacity:1;stroke-width:2.117;stroke-linejoin:round;stroke-miterlimit:3.1;paint-order:markers stroke fill"
         d="M 134.23763 140.15424 C 133.53238 140.13127 131.6025 147.0833 131.11431 149.60534 C 130.61837 152.16742 130.48285 154.82979 130.84352 155.78429 C 131.20421 156.73878 133.09768 147.69637 133.81905 145.1343 C 134.54042 142.57223 135.03655 140.9643 135.03655 140.36146 C 135.03655 140.36146 134.94646 140.41162 134.27019 140.16044 C 134.25962 140.15651 134.24882 140.1546 134.23763 140.15424 z M 131.57578 142.2647 C 131.50435 142.26264 131.41942 142.26411 131.31894 142.27039 C 130.51515 142.32063 127.91215 149.03665 127.35019 152.71988 C 126.72015 156.84931 126.60745 166.42563 128.10364 165.22868 C 128.85311 164.62912 128.01017 156.72798 128.75683 152.56898 C 129.38013 149.09716 131.92201 142.77283 131.92201 142.47141 C 131.92201 142.47141 132.07579 142.27915 131.57578 142.2647 z M 142.618 148.45451 C 142.40652 148.44951 142.08221 148.47638 141.59377 148.55631 C 139.64002 148.87602 135.87479 157.40131 135.34195 158.9288 C 134.80913 160.45628 134.5248 161.48671 135.3063 160.91835 C 136.0878 160.34999 137.82823 155.87394 139.63988 152.92555 C 141.45155 149.97715 142.87276 148.76922 142.87276 148.76922 C 142.87276 148.76922 143.25241 148.46949 142.618 148.45451 z " />
      <path
         style="opacity:1;fill:#242225;fill-opacity:1;stroke-width:2.117;stroke-linejoin:round;stroke-miterlimit:3.1;paint-order:markers stroke fill"
         d="m 138.85453,173.0658 c 0,0 1.85876,-1.45687 1.15545,0.0502 -0.70332,1.50711 -0.90427,1.25592 -0.80379,1.95924 0.10047,0.70331 0.60284,4.92321 0,3.96871 -0.60284,-0.9545 -0.45213,-3.56682 -1.10521,-4.11942 -0.65308,-0.55261 -4.11942,-5.3251 -9.34405,-4.01895 -5.22462,1.30616 -7.17166,3.73328 -8.22664,6.19488 -4.71725,11.00697 1.51602,15.91187 4.96125,15.35671 1.78619,-0.28782 8.59049,-2.21042 8.59049,-2.21042 0,0 1.60758,-1.85876 1.909,-1.65781 l 0.30142,0.20095 c 0,0 0.10048,-1.15545 1.25592,-1.60758 1.15545,-0.45213 2.21042,-0.65308 2.61232,-2.91373 0.40189,-2.26066 0.85403,-8.33931 1.85876,-7.636 1.00474,0.70331 1.10521,2.51184 1.10521,4.21989 0,1.70805 -1.85876,6.17913 -2.96397,6.58102 -1.10521,0.4019 -2.56208,0 -3.51658,1.70805 -0.9545,1.70806 -3.16492,5.97818 -3.26539,5.27487 -0.10047,-0.70332 -0.35166,-2.16018 -0.15071,-2.51184 0.20095,-0.35166 0.85402,-1.45687 0.10047,-0.55261 -0.75355,0.90427 -3.95146,1.40054 -6.61401,1.95314 -2.66256,0.55261 -4.33761,0.006 -5.84471,-1.30006 -1.50711,-1.30615 -3.2654,-2.86349 -3.66729,-7.38481 -1.07926,-12.14203 9.74568,-17.38202 14.41796,-15.82459 4.06918,1.35639 7.2341,4.27013 7.2341,4.27013 z"
         id="path11"
         sodipodi:nodetypes="cssssssscscssssssssssssscc" />
      <path
         style="opacity:1;fill:#242225;fill-opacity:1;stroke-width:2.117;stroke-linejoin:round;stroke-miterlimit:3.1;paint-order:markers stroke fill"
         d="m 131.50536,169.15951 c 0.45579,-0.36009 1.40681,-4.43895 3.48123,-4.68901 4.72268,-0.5693 4.97319,0.42627 7.1756,0.21313 0.84858,-0.0821 2.4866,-1.27881 4.76005,-1.27881 1.50543,0 4.47587,1.563 4.54692,4.97319 0.0711,3.41018 -1.63405,9.6622 -3.19705,9.6622 -1.563,0 -2.98391,-1.13673 -1.84719,-1.91824 1.13673,-0.7815 1.20778,0.71046 1.98928,-0.7815 0.7815,-1.49196 2.73525,-6.32305 1.31434,-8.80965 -1.42091,-2.48659 -4.01258,-1.45895 -5.07827,-1.31686 -1.06568,0.14209 -1.72086,0.89059 -3.85223,0.7485 -2.13136,-0.14209 -4.59629,-0.4305 -5.87954,0.15427 -1.67715,0.76427 -2.20537,3.75323 -2.20537,3.75323 z"
         id="path12"
         sodipodi:nodetypes="cssscssssssscc" />
      <path
         style="opacity:1;fill:#242225;fill-opacity:1;stroke-width:2.117;stroke-linejoin:round;stroke-miterlimit:3.1;paint-order:markers stroke fill"
         d="m 117.93565,179.42559 c -0.28418,0.0355 -1.81166,0.4618 -4.54692,1.88271 -2.73525,1.42091 -5.43498,5.1508 -3.44571,9.05831 1.98928,3.90751 6.14545,5.6126 8.91622,6.25201 2.77078,0.63941 3.72989,0.7815 6.28753,2.45107 2.55765,1.66957 6.8559,3.41019 10.65684,3.41019 3.80094,0 9.23593,-2.16689 10.37266,-6.28753 1.13672,-4.12065 0.42627,-6.14544 0.28418,-6.25201 -0.14209,-0.10657 -0.4618,0.3197 -0.4618,0.3197 0,0 0.35523,0.7815 -0.0355,1.56301 -0.39075,0.7815 -1.17225,2.66421 -1.88271,3.9075 -0.71046,1.2433 -2.30898,3.90751 -6.64276,4.86662 -4.33378,0.95912 -9.09383,-0.49732 -10.05295,-0.99464 -0.95911,-0.49731 -1.81166,-2.62868 -4.08512,-3.48123 -2.27346,-0.85255 -10.7634,-3.16153 -11.97118,-7.38874 -1.20777,-4.22721 1.45644,-6.50067 3.72989,-7.31769 2.27346,-0.81703 2.91287,-1.42091 2.91287,-1.42091 z"
         id="path13" />
      <path
         style="opacity:1;fill:#242225;fill-opacity:1;stroke-width:2.117;stroke-linejoin:round;stroke-miterlimit:3.1;paint-order:markers stroke fill"
         d="m 147.79668,177.08474 c 0.15071,0.45213 2.46161,2.16018 1.85877,5.27486 -0.60285,3.11469 -3.66729,5.92795 -5.07392,6.93269 -1.40663,1.00473 -2.96397,2.51184 -1.20569,2.00947 1.75829,-0.50237 4.01895,-0.50237 6.32984,-3.61705 2.31089,-3.11469 2.46161,-5.67676 1.95924,-7.03315 -0.50237,-1.3564 -3.16492,-3.818 -3.16492,-3.818 z"
         id="path14" />
    </g>
  </g>
</svg>
