<?xml version="1.0" encoding="UTF-8" standalone="no"?>
<!-- Created with Inkscape (http://www.inkscape.org/) -->

<svg
   width="115.36693mm"
   height="74.831581mm"
   viewBox="0 0 115.36693 74.831581"
   version="1.1"
   id="svg1"
   inkscape:version="1.3 (0e150ed6c4, 2023-07-21)"
   sodipodi:docname="rice_1.svg"
   xmlns:inkscape="http://www.inkscape.org/namespaces/inkscape"
   xmlns:sodipodi="http://sodipodi.sourceforge.net/DTD/sodipodi-0.dtd"
   xmlns="http://www.w3.org/2000/svg"
   xmlns:svg="http://www.w3.org/2000/svg">
  <sodipodi:namedview
     id="namedview1"
     pagecolor="#ffffff"
     bordercolor="#000000"
     borderopacity="0.25"
     inkscape:showpageshadow="2"
     inkscape:pageopacity="0.0"
     inkscape:pagecheckerboard="0"
     inkscape:deskcolor="#d1d1d1"
     inkscape:document-units="mm"
     inkscape:zoom="2.6333614"
     inkscape:cx="106.32798"
     inkscape:cy="20.316239"
     inkscape:window-width="1920"
     inkscape:window-height="974"
     inkscape:window-x="-11"
     inkscape:window-y="-11"
     inkscape:window-maximized="1"
     inkscape:current-layer="layer17" />
  <defs
     id="defs1" />
  <g
     inkscape:groupmode="layer"
     id="layer13"
     inkscape:label="Nasi 1"
     style="display:inline"
     transform="translate(-52.656912,-73.530516)">
    <g
       inkscape:groupmode="layer"
       id="layer17"
       inkscape:label="Nasi 1 F">
      <path
         style="opacity:1;fill:#ece9d6;fill-opacity:1;stroke-width:2.117;stroke-linejoin:round;stroke-miterlimit:3.1;paint-order:markers stroke fill"
         d="m 98.256025,74.597852 c 0,0 2.841825,3.268096 3.126005,3.410185 0.28418,0.142092 1.34987,0.568365 2.20242,0.852549 0.85254,0.284181 3.33914,1.42091 3.33914,1.42091 0,0 1.49195,-0.142089 2.84182,0.284184 1.34987,0.426272 3.9075,1.563002 3.9075,1.563002 0,0 16.90885,4.689006 17.33513,8.809651 0.42627,4.120642 -15.63003,-2.557642 -10.23057,7.246649 5.39947,9.804288 6.53619,13.214478 7.67292,12.788198 1.13673,-0.42627 7.67293,-8.95174 6.96247,-12.077744 -0.71045,-3.126005 5.68365,-1.847183 6.10992,-1.13673 0.42627,0.710457 1.37581,3.393104 1.37581,3.393104 0,0 0.55261,-0.15071 1.45687,0.57772 0.90426,0.72844 1.55734,1.6327 1.15545,1.85876 -0.4019,0.22607 -0.45213,0.35166 -0.90426,0.30142 -0.45213,-0.0502 -2.5872,0.32654 -2.73791,0.75356 -0.15071,0.42701 0.52749,1.05497 0.82891,1.08009 0.30142,0.0251 3.96871,-0.35166 4.3706,0.35166 0.40189,0.70331 -0.85402,1.53222 -0.85402,1.53222 0,0 -0.65308,0.70331 -0.97962,1.58246 -0.32654,0.87914 1.08009,-0.65308 1.28103,-0.57772 0.20095,0.0754 0.25119,-0.42702 0.72844,0.12559 0.47725,0.5526 0.47725,0.65307 0.47725,0.65307 l 1.85876,0.30143 c 0,0 -1.15545,2.98909 -1.98435,3.19003 -0.82891,0.20095 -3.56682,1.33128 -3.56682,1.33128 0,0 2.61232,3.89335 4.52131,3.29051 1.909,-0.60284 2.96398,-1.35639 3.56682,-1.10521 0.60284,0.25118 0.60284,0.85403 0.60284,0.85403 0,0 1.45687,-0.4019 2.16018,-0.4019 0.70332,0 3.16492,0.45213 3.16492,0.45213 l 2.26066,1.85876 -0.30142,0.75356 -1.80853,1.90899 -1.40663,0.4019 0.23941,2.84958 c 0,0 -0.95912,1.11897 -1.08345,1.13673 -0.12433,0.0178 -1.66957,0.42627 -1.66957,0.42627 0.71263,0.83248 -0.55504,6.09863 -5.07719,4.37991 0,0 5.5311,4.82168 1.51215,5.22358 -4.01894,0.40189 -5.22463,1.60757 -5.22463,1.60757 0,0 -0.60284,6.22937 -5.02368,6.22937 -4.42084,0 -4.21989,-3.01421 -4.21989,-3.01421 0,0 -2.61231,2.00948 -4.82273,2.81326 -2.21043,0.80379 -4.82274,-1.00473 -6.22937,0.20095 -1.40663,1.20568 -2.61231,6.02842 -5.82747,3.61705 -3.21515,-2.41137 -2.21042,-4.01894 -3.21515,-3.61705 -1.00474,0.4019 -6.63126,3.01421 -10.24831,1.80853 -3.61705,-1.20569 -2.61231,-3.818 -2.61231,-3.818 0,0 -2.21043,5.82747 -7.03316,2.21042 -4.822732,-3.61705 -4.018944,-4.82273 -4.018944,-4.82273 0,0 -6.631258,-3.21516 -6.229364,-5.02369 0.401894,-1.80852 -4.621786,2.81326 -7.033154,-0.80379 -2.411365,-3.61705 -1.004736,-3.81799 -1.004736,-3.81799 0,0 -8.911225,-3.06661 -10.687365,-3.77706 -1.77614,-0.71046 -6.10992,-4.54692 -6.10992,-4.54692 0,0 0.852548,-3.48124 -0.213135,-4.0496 -1.065683,-0.56836 -3.907507,-1.84718 -3.907507,-1.84718 0,0 -1.136729,-0.35523 -0.994637,-1.49196 0.142089,-1.13673 0.284181,-1.34987 0.284181,-1.34987 0,0 -3.978553,-0.92359 -3.126005,-1.91823 0.852546,-0.99464 2.344502,-1.27882 2.344502,-1.27882 0,0 0.923595,-5.89678 1.989278,-6.74933 1.065683,-0.85254 0.7815,-1.84718 1.207775,-0.85254 0.426273,0.99463 0.923592,3.97855 0.923592,3.97855 0,0 1.77614,-0.21314 2.202413,-0.21314 h 3.410188 c 0,0 -1.918232,-0.85255 0.142089,-1.98928 2.060324,-1.13672 2.628688,-0.6394 2.131369,-1.13672 -0.497321,-0.49732 -2.557642,-3.552282 -2.557642,-3.552282 0,0 -1.77614,-3.197051 -1.77614,-3.978553 0,-0.7815 0.07105,-1.207773 0.497322,-1.207773 0.426272,0 3.97855,-1.563005 4.262733,-1.349867 0.284181,0.213138 2.486594,0.710457 2.486594,0.710457 l 2.265688,-3.58933 c 0,0 -0.552606,-2.05971 -1.10521,-2.763025 -0.552606,-0.703315 -0.602842,-3.365865 0.301422,-3.416102 0.904261,-0.05024 5.17439,0.854025 5.073917,0.60284 -0.100473,-0.251182 0.05024,-2.813259 0.954498,-3.868232 0.904263,-1.054973 4.018946,-1.808525 4.018946,-1.808525 l 3.215156,0.703316 c 0,0 -1.909,-0.351658 1.356392,-1.255922 3.265392,-0.904261 4.320365,-0.502367 4.320365,-0.502367 0,0 0.803791,-0.803791 2.009473,-0.9545 1.205683,-0.150709 2.210419,0.05024 2.210419,0.05024 l 1.054974,-1.507103 z"
         id="path74"
         sodipodi:nodetypes="csscscssssscsscssscsssccscsscsccccccsccscscssssscscsscscscscscsscscsscsssccssssccscsccc" />
      <path
         style="opacity:1;fill:#abab9b;fill-opacity:1;stroke-width:2.117;stroke-linejoin:round;stroke-miterlimit:3.1;paint-order:markers stroke fill"
         d="m 94.947564,83.744757 c 0,0 -2.05971,-2.05971 -5.073917,-1.657816 -3.01421,0.401894 -5.224629,2.05971 -5.827472,2.210419 -0.60284,0.150709 -3.365865,-0.301421 -2.562076,1.004737 0.803788,1.306155 0.753551,1.356394 2.361131,1.406631 1.607576,0.05024 2.160182,-0.301422 2.813261,-0.100476 0.653077,0.200949 3.466338,-0.301418 3.164917,-0.401894 -0.301419,-0.100473 -1.255919,-0.552603 -1.205682,-0.854025 0.05024,-0.301421 1.808524,-0.9545 1.808524,-0.9545 l 2.160183,-0.703315 z"
         id="path75" />
      <path
         style="opacity:1;fill:#abab9b;fill-opacity:1;stroke-width:2.117;stroke-linejoin:round;stroke-miterlimit:3.1;paint-order:markers stroke fill"
         d="m 72.342154,86.018427 c 0.195374,0.01775 3.605562,-1.864947 4.617961,0.12433 1.012402,1.989276 0.923594,2.753016 0.74598,2.770778 -0.177615,0.01775 0.24866,-0.159853 -0.301943,0.532842 -0.550603,0.692692 0.337466,1.403149 -1.012401,1.047922 -1.349865,-0.35523 -1.989276,-0.248661 -2.94839,-1.278822 -0.959115,-1.03016 -1.225537,-3.32138 -1.101207,-3.19705 z"
         id="path76" />
      <path
         style="opacity:1;fill:#abab9b;fill-opacity:1;stroke-width:2.117;stroke-linejoin:round;stroke-miterlimit:3.1;paint-order:markers stroke fill"
         d="m 70.548252,96.657501 c -0.319704,0 -2.380027,0.319706 -3.339141,0.24866 -0.959115,-0.07105 -1.243298,2.024798 0.817025,2.699731 2.060321,0.674938 2.522117,0.03552 3.054959,0.142092 0.532841,0.106569 3.445711,0.106569 2.735254,-1.03016 -0.710456,-1.13673 -1.462675,-2.060323 -3.268097,-2.060323 z"
         id="path77"
         sodipodi:nodetypes="ssssss" />
      <path
         style="opacity:1;fill:#abab9b;fill-opacity:1;stroke-width:2.117;stroke-linejoin:round;stroke-miterlimit:3.1;paint-order:markers stroke fill"
         d="m 65.610586,99.499323 c 0.177615,0.124331 0.959114,1.882707 1.580763,2.788537 0.62165,0.90583 1.669571,1.29659 2.16689,0.94136 0.497319,-0.35523 0.390753,-0.79927 0.639411,-0.67494 0.248661,0.12433 0.39075,-0.0533 0.657172,0.35523 0.266419,0.40851 0.355227,0.6927 0.621649,0.35523 0.26642,-0.33747 -0.03552,-1.15449 -0.532842,-1.34987 -0.497318,-0.19537 -0.479557,-0.10656 -0.497318,-0.19537 -0.01775,-0.0888 0.337465,-0.35523 -0.195377,-0.67494 -0.532841,-0.3197 -3.463472,-1.811656 -3.463472,-1.811656 z"
         id="path78" />
      <path
         style="opacity:1;fill:#abab9b;fill-opacity:1;stroke-width:2.117;stroke-linejoin:round;stroke-miterlimit:3.1;paint-order:markers stroke fill"
         d="m 76.409512,93.602543 c -0.888068,0.532841 -1.669571,1.634047 0.781502,2.664207 2.451071,1.030161 4.617964,-0.959114 3.374666,-1.527479 -1.243299,-0.568365 -3.274507,-1.665725 -4.156168,-1.136728 z"
         id="path79"
         sodipodi:nodetypes="ssss" />
      <path
         id="path80"
         style="opacity:1;fill:#abab9b;fill-opacity:1;stroke-width:2.117;stroke-linejoin:round;stroke-miterlimit:3.1;paint-order:markers stroke fill"
         d="m 106.03539,86.000435 c 0,0 -2.84183,0.78171 -3.83646,0.604098 -0.99464,-0.177615 -1.13665,1.705069 -2.308903,1.776119 -1.172248,0.07104 -0.745977,-0.497416 -0.959115,-0.710551 -0.213135,-0.213138 -1.634258,2.770775 -2.522326,2.877344 -0.88807,0.106566 -1.776119,0.390673 -1.776119,0.390673 0,0 -0.03552,0.426389 0,0.852662 0.03552,0.426274 -0.567924,0.923457 -0.567924,0.923457 0,0 1.101245,0.24864 3.161564,0.817005 2.060321,0.568363 2.201933,1.98962 2.201933,2.557983 0,0.568365 -0.4261,-0.106491 -0.639238,-0.390674 -0.213135,-0.28418 -1.704882,-0.817116 -2.273246,-0.710551 -0.568365,0.106569 -0.462123,0.283857 -1.456759,0.461471 -0.994637,0.177613 -4.013765,0.106605 -5.399153,-0.674894 -1.385387,-0.781502 0.07515,-0.207389 0.56844,-0.461471 0.746101,-0.384299 0.123215,-0.986541 -1.101492,-0.994695 -0.537544,-0.0036 -0.390465,-0.817138 -0.248373,-1.10132 0.292069,-0.58413 -2.309057,-1.420717 -3.516831,-1.02997 -1.207774,0.390749 -1.243643,3.055037 -3.055301,3.836536 -1.811661,0.781501 -2.593144,3.800838 -2.735233,4.085022 -0.142092,0.284181 -1.065509,0.212831 -2.557467,0.603581 -1.491951,0.39075 -1.563212,2.87734 -1.563212,2.87734 l 4.124813,-1.96525 2.511991,2.3611 -1.456758,2.46134 c 0,0 -4.873128,-0.95452 -6.028573,1.65778 -1.155445,2.61232 2.763139,2.10995 2.763139,2.10995 0,0 0.351661,0.55265 2.109949,2.56212 1.758286,2.00948 3.415927,0.5529 6.178951,0.10077 2.763022,-0.45214 3.466232,-4.01888 3.566707,-4.72219 0.100473,-0.70332 1.40704,-0.60314 2.160592,-0.80409 0.753551,-0.20095 2.913517,-1.50688 2.913517,-1.50688 l 4.529956,0.5519 c 0,0 0.781366,1.31408 0.923458,1.84692 0.142089,0.53284 -0.994483,0.39099 -1.740463,1.84743 -0.745978,1.45643 -0.568649,3.69433 -0.213423,4.51135 0.355229,0.81702 -0.426292,0.24872 -1.101225,1.38545 -0.67493,1.13673 2.273494,2.80633 3.161564,3.16156 0.88807,0.35522 2.59312,-0.7817 2.59312,0.35502 0,1.13678 -2.02462,0.67484 -1.59835,1.20768 0.42627,0.53284 2.02492,1.49226 3.73001,2.27376 1.70513,0.7815 1.77612,0.21291 1.77612,0.21291 l 1.77611,0.14211 c 1.77614,0.1421 10.69237,-1.20768 10.69237,-1.20768 0,0 -0.17752,0.42602 0.56845,1.98902 0.74597,1.563 2.73523,1.03043 2.73523,1.03043 l 0.39067,-0.74621 c 0,0 -1.27908,-0.85254 -1.98954,-2.87734 -0.71045,-2.0248 4.0499,-0.63931 5.15111,-0.24856 1.1012,0.39076 0.24846,1.10153 0.49712,1.45676 0.24866,0.35523 1.49199,-0.56835 2.20245,0.14211 0.71045,0.71044 -0.56844,3.23236 -0.56844,3.23236 l -2.62826,3.01945 c 0,0 -2.59366,0.0358 -2.73575,-0.0708 -0.14209,-0.10656 0.10697,-4.01422 0.10697,-4.01422 l -1.34979,1.98902 1.06557,2.06034 c 0,0 -0.2132,1.20799 -0.42633,3.48144 -0.19754,2.10706 2.20208,-0.0437 2.56728,-0.38085 -0.12311,0.12909 -0.23785,0.36573 0.1323,0.73587 0.56836,0.56836 3.05511,-3.05459 3.05511,-3.05459 0,0 0.71056,0.28403 2.77089,0.78135 2.06031,0.49732 3.62303,-0.35554 3.62303,-0.35554 0,0 0.56842,-5.47044 2.34456,-5.32836 1.77614,0.14209 2.34456,1.06609 2.34456,1.06609 l 2.13114,-0.85266 0.14211,4.33358 c 0,0 -2.84179,1.91819 -3.55224,3.55224 -0.71046,1.63405 6.82077,-0.56844 6.82077,-0.56844 l 0.14211,-0.42581 2.41536,-1.4211 1.98902,0.63923 c -1.92659,-3.18883 3.16444,-4.08202 4.42938,-3.82836 1.62789,0.32644 4.38783,-2.9661 3.84144,-3.03737 0,0 -1.68294,0.62785 -2.10995,0.75344 -0.42701,0.1256 -2.03419,0.37673 -3.46594,-0.32659 -1.43175,-0.70331 0.10027,-2.76284 1.38131,-2.78794 1.28104,-0.0251 4.11965,0.52761 4.11965,0.52761 l 1.7079,0.0755 1.80868,-2.10995 -1.20613,-1.25625 c 0,0 1.6e-4,0.0255 -0.42685,0.87953 -0.42701,0.85403 -2.98922,1.60754 -4.74751,0.95446 -1.75828,-0.65308 -1.53221,-1.95957 -1.53221,-1.95957 l -0.32659,0.57775 c 0,0 -1.50705,1.10519 -3.18999,1.5322 -1.68293,0.42696 -3.18999,-0.0755 -3.18999,-0.0755 0,0 -1.80847,-0.67769 -0.37672,-1.98385 1.43175,-1.30615 2.91404,-0.60307 2.91404,-0.60307 0,0 0.33433,-0.58203 0.19223,-0.61753 -0.14209,-0.0355 -0.71084,-0.31944 -1.88309,-0.8878 -1.17225,-0.56837 -1.56269,-2.13165 -1.56269,-2.13165 0,0 2.82418,-1.7939 3.25045,-1.91823 0.42627,-0.12433 0.56803,-1.58076 0.94102,-1.91823 0.37299,-0.33747 -0.83457,-0.78135 -0.83457,-0.78135 0,0 0.10658,-0.56854 -0.33745,-1.27899 -0.44403,-0.71046 -0.49752,0.44398 -0.60409,0.53278 -0.10656,0.0888 -0.30195,-0.85218 -0.33745,-1.13636 -0.0355,-0.28418 -2.75281,0.69246 -2.75281,0.69246 0,0 1.70503,-1.01257 2.30891,-1.27899 0.60389,-0.26643 -0.12422,-0.40827 -0.58601,-1.02991 -0.4618,-0.62165 -2.94866,-0.19534 -2.94866,-0.19534 0,0 -0.37303,-0.49738 -0.42633,-0.90589 -0.0533,-0.40855 3.21479,-0.39067 3.21479,-0.39067 0,0 -1.15408,-0.10662 -2.14871,-0.42633 -0.99463,-0.3197 -2.27345,-0.95933 -2.39778,-1.08366 -0.12433,-0.12433 -0.92368,-0.0707 -1.52756,-0.31936 -0.60389,-0.24866 -3.06485,3.99792 -4.27054,2.49081 -1.20568,-1.5071 -3.46594,-2.81327 -3.46594,-2.81327 0,0 1.65756,3.46638 -0.35191,3.51658 -2.00948,0.0502 -2.37862,-3.50279 -1.75803,-3.3662 1.69262,0.37254 -11.17669,-14.750374 -18.50068,-13.859618 z m 40.85539,36.836515 c 0.25903,-0.011 0.58564,0.0798 0.78031,0.1049 0.38934,0.0502 1.88363,-0.0501 2.46135,0.11317 0.57773,0.16326 0.44003,0.28875 0.79168,0.75344 0.35166,0.46467 -0.69091,0.43977 -0.69091,0.43977 0,0 -0.17567,0.0628 -0.0124,0.1633 0.16327,0.10047 -0.18835,0.77853 -1.3689,0.59014 -1.18057,-0.18839 -2.18558,-0.89167 -2.3363,-1.65778 -0.0754,-0.38305 0.11614,-0.49596 0.37518,-0.50694 z"
         sodipodi:nodetypes="csssscscsssssssssssssccccscssssccsssssssscscsccssssccscccscscscscccsccccscsssccccssccccscsscsscssscsscscsssscssccsssscsscss" />
      <path
         style="fill:#ece9d6;fill-opacity:1;stroke-width:2.117;stroke-linejoin:round;stroke-miterlimit:3.1;paint-order:markers stroke fill"
         d="m 104.51083,104.66231 c -1.1012,-0.14209 -1.42091,-0.24865 -4.795573,0.81703 -3.374666,1.06568 -3.090485,0.92359 -2.095848,1.17225 0.99464,0.24866 2.095848,0.35523 2.095848,0.35523 0,0 -0.994642,0.7815 2.131373,1.10121 3.126,0.3197 4.58243,-1.10121 3.87198,-2.23794 -0.71046,-1.13673 -1.20778,-1.20778 -1.20778,-1.20778 z"
         id="path84-2" />
      <path
         style="fill:#ece9d6;fill-opacity:1;stroke-width:2.117;stroke-linejoin:round;stroke-miterlimit:3.1;paint-order:markers stroke fill"
         d="m 93.426712,101.17769 c 0,0 -3.08956,-0.95451 -4.32036,0.37678 -1.23081,1.33127 2.53695,2.81326 2.93885,3.29051 0.40189,0.47725 -0.25118,1.00474 1.13033,1.13033 1.38151,0.12559 1.53222,-0.72844 1.88388,-0.45213 0.35166,0.2763 -0.20095,0.52748 0.67819,0.70331 0.87915,0.17583 0.97962,-0.0502 0.97962,-0.17583 0,-0.12559 0.0754,-1.98435 0.47725,-2.03459 0.401901,-0.0502 1.255921,-0.35165 1.255921,-0.35165 0.917462,0.0332 2.509817,-2.9981 -1.909001,-3.19005 -0.227235,-0.01 -3.11468,0.70332 -3.11468,0.70332 z"
         id="path87-9"
         sodipodi:nodetypes="ccsssssccsc" />
      <path
         style="opacity:1;fill:#ece9d6;fill-opacity:1;stroke-width:2.117;stroke-linejoin:round;stroke-miterlimit:3.1;paint-order:markers stroke fill"
         d="m 83.418216,98.790679 c 0,0 -0.854025,1.557341 1.230802,1.632701 2.084827,0.0754 4.144536,-0.0754 4.270129,-1.406635 0.125592,-1.331275 -1.255922,-1.331275 -1.883881,-1.004737 -0.62796,0.326541 -0.653079,0.728435 -1.682933,0.728435 -1.029853,0 -1.934117,0.05024 -1.934117,0.05024 z"
         id="path81" />
      <path
         style="opacity:1;fill:#abab9b;fill-opacity:1;stroke-width:2.117;stroke-linejoin:round;stroke-miterlimit:3.1;paint-order:markers stroke fill"
         d="m 63.574678,116.06614 c 0,0 3.61705,0.80379 5.576287,0.32654 1.959234,-0.47725 2.712786,-1.58246 0.477247,-1.83365 -2.235536,-0.25118 -4.822732,0.0251 -5.475811,0.47725 -0.653079,0.45214 -0.577723,1.02986 -0.577723,1.02986 z"
         id="path82" />
      <path
         style="opacity:1;fill:#abab9b;fill-opacity:1;stroke-width:2.117;stroke-linejoin:round;stroke-miterlimit:3.1;paint-order:markers stroke fill"
         d="m 69.837797,118.64611 c 0,0 0.142091,-0.94136 -1.811661,-0.88807 -1.953754,0.0533 -3.960791,1.81166 -2.912869,2.16689 1.047922,0.35522 1.474195,-0.35523 2.131367,0.0888 0.657172,0.44404 2.113605,0.76374 2.397789,0.39075 0.284181,-0.37298 -0.142092,-0.56836 0.195374,-0.62165 0.337468,-0.0533 0.195376,0.24867 0.976878,0.0355 0.7815,-0.21314 0.444035,-1.0124 -0.12433,-1.10121 -0.568365,-0.0888 -0.852548,-0.071 -0.852548,-0.071 z"
         id="path83" />
      <path
         style="opacity:1;fill:#abab9b;fill-opacity:1;stroke-width:2.117;stroke-linejoin:round;stroke-miterlimit:3.1;paint-order:markers stroke fill"
         d="m 75.663535,119.78283 c -1.101206,-0.14209 -1.420913,-0.24865 -4.795575,0.81703 -3.374665,1.06568 -3.090484,0.92359 -2.095847,1.17225 0.99464,0.24866 2.095847,0.35523 2.095847,0.35523 0,0 -0.994641,0.7815 2.131367,1.10121 3.126004,0.3197 4.582437,-1.10121 3.871983,-2.23794 -0.710456,-1.13673 -1.207775,-1.20778 -1.207775,-1.20778 z"
         id="path84" />
      <path
         style="opacity:1;fill:#abab9b;fill-opacity:1;stroke-width:2.117;stroke-linejoin:round;stroke-miterlimit:3.1;paint-order:markers stroke fill"
         d="m 81.422205,126.36218 c 0,0 -1.389159,-1.15762 -3.935949,-0.88752 -2.546787,0.27011 -5.51804,1.92939 -4.514761,2.16092 1.00328,0.23153 1.85221,0.6174 2.54679,0.54023 0.69458,-0.0771 1.35057,-0.84893 1.311982,-0.15435 -0.03858,0.69457 -0.84893,0.81034 1.119044,0.96469 1.967971,0.15435 3.164191,-0.38588 3.704418,-0.77176 0.540231,-0.38588 0.540231,-0.38588 0.540231,-0.38588 0,0 1.041867,-0.38587 0.578815,-0.6174 -0.463054,-0.23153 -0.463054,-0.23153 -0.463054,-0.23153 0,0 -0.347288,-0.50163 -0.578816,-0.57881 -0.231524,-0.0771 -0.3087,-0.0386 -0.3087,-0.0386 z"
         id="path85" />
      <path
         style="opacity:1;fill:#abab9b;fill-opacity:1;stroke-width:2.117;stroke-linejoin:round;stroke-miterlimit:3.1;paint-order:markers stroke fill"
         d="m 92.862735,111.0987 c -0.60284,0.17583 -3.315629,0.65308 -3.817996,0.65308 -0.502369,0 -0.552606,1.02985 -0.276302,1.13032 0.276302,0.10048 0.276302,0.10048 0.276302,0.10048 0,0 0.07535,0.80379 0.979617,0.65308 0.904264,-0.15072 2.386248,-1.33128 2.637433,-1.25593 0.251185,0.0754 0.60284,0.20095 0.60284,-0.0502 0,-0.25119 -0.175829,-0.20095 0,-0.25119 0.175829,-0.0502 0.778671,-0.15071 0.301421,-0.52748 -0.47725,-0.37678 -0.703315,-0.45213 -0.703315,-0.45213 z"
         id="path86" />
      <path
         style="opacity:1;fill:#abab9b;fill-opacity:1;stroke-width:2.117;stroke-linejoin:round;stroke-miterlimit:3.1;paint-order:markers stroke fill"
         d="m 86.482662,120.1162 c 0,0 -3.089563,-0.9545 -4.320365,0.37678 -1.230802,1.33127 2.536957,2.81326 2.938851,3.29051 0.401895,0.47725 -0.251182,1.00474 1.13033,1.13033 1.381511,0.12559 1.532223,-0.72844 1.88388,-0.45213 0.351658,0.2763 -0.200948,0.52748 0.678196,0.70331 0.879145,0.17583 0.979617,-0.0502 0.979617,-0.17583 0,-0.12559 0.07536,-1.98435 0.477251,-2.03459 0.401894,-0.0502 1.255921,-0.35165 1.255921,-0.35165 0,0 -1.205685,-1.3564 -1.43175,-1.38152 -0.226066,-0.0251 -3.591931,-1.10521 -3.591931,-1.10521 z"
         id="path87" />
      <path
         style="opacity:1;fill:#abab9b;fill-opacity:1;stroke-width:2.117;stroke-linejoin:round;stroke-miterlimit:3.1;paint-order:markers stroke fill"
         d="m 86.407306,126.92329 c 0.452131,-0.10047 2.336012,-0.87914 2.411368,-1.10521 0.07535,-0.22606 -0.527487,-0.30142 -2.938854,0.20095 -2.411368,0.50237 -1.080093,1.02985 -1.883881,1.13033 -0.803788,0.10047 -2.109946,-0.1256 -3.089563,0.35165 -0.979618,0.47725 -2.135064,1.78341 -1.10521,2.33601 1.029854,0.55261 3.717523,0.4019 3.717523,0.4019 l 3.918471,0.37678 c 0,0 1.155449,0.20094 1.255921,0.17583 0.100473,-0.0251 0.200946,-0.25119 0.200946,-0.25119 0,0 2.511841,-0.17583 2.260658,-0.30142 -0.251184,-0.12559 -0.452133,-0.15071 -0.452133,-0.15071 0,0 1.507107,-1.58246 0.527487,-2.23554 -0.979617,-0.65308 -5.099034,-0.70331 -5.099034,-0.82891 0,-0.12559 0.276301,-0.10047 0.276301,-0.10047 z"
         id="path88" />
      <path
         style="opacity:1;fill:#abab9b;fill-opacity:1;stroke-width:2.117;stroke-linejoin:round;stroke-miterlimit:3.1;paint-order:markers stroke fill"
         d="m 111.14893,128.17921 c 0,0 -1.93411,-1.20568 -3.76776,-0.90426 -1.83364,0.30142 -1.98435,0.37677 -1.55734,1.05497 0.42701,0.6782 0.75355,1.3564 1.85876,1.48199 1.10521,0.12559 1.30616,-0.90427 1.83365,-0.70332 0.52748,0.20095 0.77867,0.9545 1.58246,0.45213 0.80378,-0.50237 0.0502,-1.38151 0.0502,-1.38151 z"
         id="path89" />
      <path
         style="opacity:1;fill:#abab9b;fill-opacity:1;stroke-width:2.117;stroke-linejoin:round;stroke-miterlimit:3.1;paint-order:markers stroke fill"
         d="m 132.87298,135.48391 c 0,0 -1.88271,-0.72822 -3.07272,-0.4618 -1.19001,0.26642 -2.3445,0.60389 -1.81166,0.7815 0.53284,0.17762 2.64645,0.2309 3.60556,0.67494 0.95912,0.44403 2.59317,0.23089 1.95375,-0.39076 -0.63941,-0.62164 -0.67493,-0.60388 -0.67493,-0.60388 z"
         id="path90" />
      <path
         style="opacity:1;fill:#ece9d6;fill-opacity:1;stroke-width:2.117;stroke-linejoin:round;stroke-miterlimit:3.1;paint-order:markers stroke fill"
         d="m 113.10455,88.167555 -3.62332,0.852546 c 0,0 -3.62333,-2.770777 -4.40483,0.284184 -0.7815,3.054958 6.60724,4.97319 4.97319,3.410188 -1.63405,-1.563005 -1.84718,-2.060324 -1.27882,-2.060324 0.56837,0 1.41709,-0.161032 3.2681,0.142092 4.74391,0.776869 8.05021,-1.737499 3.69437,-2.841823 -2.13487,-0.541247 -2.62869,0.213137 -2.62869,0.213137 z"
         id="path92"
         sodipodi:nodetypes="ccsssssc" />
    </g>
    <g
       inkscape:groupmode="layer"
       id="layer18"
       inkscape:label="Nasi 1 O">
      <path
         style="opacity:1;fill:#111b09;fill-opacity:1;stroke-width:2.117;stroke-linejoin:round;stroke-miterlimit:3.1;paint-order:markers stroke fill"
         d="m 142.72276,115.24323 c 0,0 4.82274,-1.05854 6.22937,-3.3192 1.40663,-2.26066 1.84909,-3.50008 -0.13526,-3.24889 -1.98435,0.25118 -3.80833,1.94631 -3.43155,2.0719 0.37677,0.12559 2.61231,-1.08009 3.06444,-0.85403 0.45213,0.22607 0.25119,0.65308 -0.57772,1.28104 -0.82891,0.62796 -5.65164,3.86823 -5.50093,4.0943 0.15071,0.22607 0.35165,-0.0251 0.35165,-0.0251 z"
         id="path39"
         sodipodi:nodetypes="csssssscc" />
      <path
         style="opacity:1;fill:#111b09;fill-opacity:1;stroke-width:2.117;stroke-linejoin:round;stroke-miterlimit:3.1;paint-order:markers stroke fill"
         d="m 146.33612,106.47955 c -0.14209,0 -2.87735,1.40315 -3.10825,1.93599 -0.23089,0.53285 1.56301,0.62165 3.39243,-0.17761 1.82942,-0.79926 2.20241,-2.61093 0.94135,-2.91287 -1.26105,-0.30194 -6.35858,0.2309 -7.03351,0.65717 -0.67493,0.42628 -0.071,0.30195 -0.071,0.30195 0,0 2.18465,-0.10657 3.85422,-0.15986 1.66957,-0.0533 2.0248,0.35523 2.0248,0.35523 z"
         id="path40" />
      <path
         style="opacity:1;fill:#111b09;fill-opacity:1;stroke-width:2.117;stroke-linejoin:round;stroke-miterlimit:3.1;paint-order:markers stroke fill"
         d="m 141.30964,102.8207 c 0,0 0.56837,0.90583 2.18466,1.45644 1.61628,0.5506 3.3569,0.3197 3.28585,0.19537 -0.071,-0.12433 0.17762,-0.30194 0.17762,-0.30194 0,0 0.62164,-1.20777 0.0177,-1.95375 -0.60388,-0.74598 -2.85958,-1.36763 -3.17929,-0.88807 -0.3197,0.47956 1.59853,2.06032 1.27882,2.13136 -0.3197,0.071 -1.59852,0.35523 -2.36226,0 -0.76374,-0.35522 -1.06569,-1.03016 -1.36763,-0.7815 -0.30194,0.24866 -0.0355,0.14209 -0.0355,0.14209 z"
         id="path41" />
      <path
         style="opacity:1;fill:#111b09;fill-opacity:1;stroke-width:2.117;stroke-linejoin:round;stroke-miterlimit:3.1;paint-order:markers stroke fill"
         d="m 148.60957,118.36192 c 0.21314,-0.12433 3.09049,-1.8827 3.39243,-1.17225 0.30195,0.71046 -0.46179,1.36763 -0.30194,1.61629 0.15985,0.24866 0.60389,0.69269 1.10121,-0.21314 0.49731,-0.90583 0.62164,-2.8951 -1.06569,-2.73525 -1.68733,0.15985 -3.30362,0.51508 -3.74765,1.43867 -0.44404,0.92359 0.62164,1.06568 0.62164,1.06568 z"
         id="path42" />
      <path
         style="opacity:1;fill:#111b09;fill-opacity:1;stroke-width:2.117;stroke-linejoin:round;stroke-miterlimit:3.1;paint-order:markers stroke fill"
         d="m 152.60589,117.75804 c 0,0 5.43498,-0.74598 6.71381,0.92359 1.27882,1.66957 -1.91824,2.87734 -1.91824,2.87734 0,0 -0.21313,-0.74597 -0.88806,-0.71045 -0.67494,0.0355 0,1.20777 0,1.91823 0,0.71045 0.49731,1.66957 -0.63941,2.94839 -1.13673,1.27882 -3.65885,0.0355 -3.48124,0.53284 0.17762,0.49732 0.88807,1.13673 2.84182,0.85255 1.95376,-0.28418 2.9484,-3.33914 2.66421,-3.97855 -0.28418,-0.63941 -1.03016,-0.95912 -0.17761,-0.95912 0.85255,0 3.97855,-1.2433 3.2681,-2.98391 -0.71046,-1.74062 -4.86662,-3.7299 -6.92695,-2.91287 -2.06032,0.81702 -1.45643,1.49196 -1.45643,1.49196 z"
         id="path43" />
      <path
         style="opacity:1;fill:#111b09;fill-opacity:1;stroke-width:2.117;stroke-linejoin:round;stroke-miterlimit:3.1;paint-order:markers stroke fill"
         d="m 160.91822,123.19302 c 0,0.17762 -0.0355,1.38539 1.81166,1.81167 1.84719,0.42627 5.36394,0.28418 5.2929,-1.38539 -0.0711,-1.66958 -0.53284,-2.0248 -2.66421,-1.10121 -2.13137,0.92359 -3.01944,0.35523 -3.55228,0.31971 -0.53284,-0.0355 -0.88807,0.35522 -0.88807,0.35522 z"
         id="path44" />
      <path
         style="opacity:1;fill:#111b09;fill-opacity:1;stroke-width:2.117;stroke-linejoin:round;stroke-miterlimit:3.1;paint-order:markers stroke fill"
         d="m 119.57604,117.94834 c 0,0 0.045,-2.62492 -1.87063,-2.3863 -1.91571,0.23863 -2.50169,1.43178 -2.11855,1.31247 0.38314,-0.11932 1.3748,-0.0796 2.18616,-0.23863 0.81136,-0.15909 0.78882,1.71018 1.26211,1.51131 0.47329,-0.19885 0.54091,-0.19885 0.54091,-0.19885 z"
         id="path45" />
      <path
         style="opacity:1;fill:#111b09;fill-opacity:1;stroke-width:2.117;stroke-linejoin:round;stroke-miterlimit:3.1;paint-order:markers stroke fill"
         d="m 115.50178,114.55602 c -0.14343,0.9843 -0.25499,1.3499 -0.52591,1.18116 -0.27092,-0.16874 -1.14744,-1.04054 -1.62553,-0.70307 -0.4781,0.33747 -0.54185,0.28123 -0.49404,0.73119 0.0478,0.44997 0,0.47809 -0.12749,0.47809 -0.12749,0 -0.97213,-0.7312 -0.19124,-1.94048 0.7809,-1.20927 2.96421,0.25311 2.96421,0.25311 z"
         id="path46" />
      <path
         style="opacity:1;fill:#111b09;fill-opacity:1;stroke-width:2.117;stroke-linejoin:round;stroke-miterlimit:3.1;paint-order:markers stroke fill"
         d="m 118.82419,104.13661 c 0,0 0.57372,-0.3656 1.05181,-0.39372 0.4781,-0.0281 1.43429,1.77174 1.21119,2.58729 -0.22312,0.81557 -0.33467,0.59059 -0.68528,0.33747 -0.3506,-0.25309 -0.76496,-0.28122 -0.76496,-0.28122 0,0 0.39842,0.44997 -0.11155,0.53434 -0.50998,0.0844 -1.00401,-1.29366 -1.7849,-1.43427 -0.78089,-0.14061 -0.81277,-0.33747 -0.79683,0.67495 0.0159,1.01241 0.35061,1.20927 0.35061,1.20927 0,0 0.33466,0.95618 -0.20718,0.70309 -0.54185,-0.25311 -1.16337,-2.50294 -0.71715,-4.04969 0.44623,-1.54676 2.45424,0.11249 2.45424,0.11249 z"
         id="path47" />
      <path
         style="opacity:1;fill:#111b09;fill-opacity:1;stroke-width:2.117;stroke-linejoin:round;stroke-miterlimit:3.1;paint-order:markers stroke fill"
         d="m 110.06639,100.55931 c 0.13216,-0.0293 2.82753,0.14677 3.64673,0.96867 0.81919,0.82191 1.16272,2.20154 1.16272,2.20154 0,0 0.73991,0.99803 -0.29069,0.85126 -1.03058,-0.14677 -2.85395,-1.908 -3.25034,-2.02542 -0.39638,-0.1174 -0.87205,-0.499 -0.92489,-0.14676 -0.0527,0.35224 -0.0527,1.99606 0.71349,3.05279 0.76634,1.05673 1.98191,2.05476 1.55911,2.20154 -0.42282,0.14676 -1.21559,-0.38161 -1.53269,-0.73385 -0.31711,-0.35225 -2.61613,-4.08018 -1.98191,-5.43045 0.63421,-1.35028 0.89847,-0.93932 0.89847,-0.93932 z"
         id="path48" />
      <path
         style="fill:#111b09;fill-opacity:1;stroke-width:2.117;stroke-linejoin:round;stroke-miterlimit:3.1;paint-order:markers stroke fill"
         d="m 112.61305,87.597514 c 0,0 0.0915,-2.389458 -3.80074,-2.172236 -3.89233,0.217225 -5.08292,1.303341 -4.30446,1.194729 0.77846,-0.108609 2.79332,-0.07241 4.44183,-0.217222 1.64852,-0.144816 1.60273,1.556767 2.56435,1.375747 0.96164,-0.181018 1.09902,-0.181018 1.09902,-0.181018 z"
         id="path45-2" />
      <path
         style="fill:#111b09;fill-opacity:1;stroke-width:2.117;stroke-linejoin:round;stroke-miterlimit:3.1;paint-order:markers stroke fill"
         d="m 104.33499,84.509505 c -0.29143,0.896002 -0.51809,1.228801 -1.06854,1.075201 -0.55046,-0.153598 -2.33136,-0.9472 -3.302756,-0.639999 -0.971394,0.3072 -1.100909,0.255998 -1.003776,0.665601 0.0972,0.4096 0,0.435199 -0.259029,0.435199 -0.259043,0 -1.975183,-0.665602 -0.388571,-1.766402 1.586625,-1.100803 6.022672,0.2304 6.022672,0.2304 z"
         id="path46-7" />
      <path
         style="fill:#111b09;fill-opacity:1;stroke-width:2.117;stroke-linejoin:round;stroke-miterlimit:3.1;paint-order:markers stroke fill"
         d="m 110.12962,80.0551 c 0,0 0.73069,-0.332799 1.33959,-0.3584 0.60891,-0.02559 1.8267,1.612802 1.54256,2.355202 -0.28416,0.742402 -0.42624,0.5376 -0.87276,0.3072 -0.44653,-0.230399 -0.97425,-0.255998 -0.97425,-0.255998 0,0 0.50741,0.4096 -0.14208,0.486398 -0.6495,0.0768 -1.2787,-1.177601 -2.27324,-1.305601 -0.99454,-0.128 -1.03514,-0.3072 -1.01483,0.614401 0.0202,0.921601 0.44653,1.1008 0.44653,1.1008 0,0 0.42622,0.870403 -0.26386,0.640004 -0.69009,-0.230401 -1.48167,-2.278404 -0.91336,-3.686404 0.56832,-1.408004 3.1257,0.102398 3.1257,0.102398 z"
         id="path47-2" />
      <path
         style="fill:#111b09;fill-opacity:1;stroke-width:2.117;stroke-linejoin:round;stroke-miterlimit:3.1;paint-order:markers stroke fill"
         d="m 101.74889,77.280044 c 0.16189,-0.0342 3.46465,0.171082 4.46842,1.129155 1.00378,0.958076 1.42472,2.566271 1.42472,2.566271 0,0 0.90663,1.163375 -0.35619,0.992293 -1.26281,-0.171085 -3.49702,-2.2241 -3.98272,-2.360971 -0.48569,-0.136865 -1.06854,-0.581686 -1.13329,-0.171085 -0.0647,0.410603 -0.0647,2.326752 0.87424,3.558564 0.93903,1.231807 2.4285,2.395185 1.91042,2.566267 -0.51807,0.171086 -1.48948,-0.444818 -1.87803,-0.855422 -0.38856,-0.410604 -3.20561,-4.756154 -2.4285,-6.330131 0.77712,-1.573979 1.10093,-1.094941 1.10093,-1.094941 z"
         id="path48-7" />
      <path
         style="opacity:1;fill:#111b09;fill-opacity:1;stroke-width:2.117;stroke-linejoin:round;stroke-miterlimit:3.1;paint-order:markers stroke fill"
         d="m 147.72133,128.93276 c 0,0 -1.73317,-0.0251 -3.03933,1.10521 -1.30616,1.13033 -2.8635,3.89335 -2.1853,3.66729 0.6782,-0.22607 4.32036,-3.99383 4.67202,-3.76776 0.35166,0.22606 0.45213,0.72843 0.45213,0.72843 0,0 -1.13032,1.50711 -0.45213,1.40663 0.6782,-0.10047 1.13033,-1.70805 1.00474,-2.48672 -0.12559,-0.77867 -0.45213,-0.65308 -0.45213,-0.65308 z"
         id="path49" />
      <path
         style="opacity:1;fill:#111b09;fill-opacity:1;stroke-width:2.117;stroke-linejoin:round;stroke-miterlimit:3.1;paint-order:markers stroke fill"
         d="m 138.32704,123.85884 c -1.22869,1.1304 -2.08482,4.89809 -1.68293,6.17913 0.4019,1.28104 1.85877,2.13507 2.00947,1.33128 0.15071,-0.80379 0.20095,-3.08957 0.72844,-4.69714 0.52749,-1.60758 0.60284,-1.80853 0.8289,-1.60758 0.22607,0.20094 0.55261,3.46634 0.0251,4.32036 -0.52748,0.85403 -1.40663,1.48199 -1.00473,1.70806 0.40189,0.22606 0.99628,0.46805 2.05971,-2.38625 1.02947,-2.76316 0.97112,-4.38225 -0.42699,-5.68933 -1.02795,-1.09252 -1.7666,0.0497 -2.53697,0.84147 z"
         id="path50"
         sodipodi:nodetypes="ssssssssss" />
      <path
         style="opacity:1;fill:#111b09;fill-opacity:1;stroke-width:2.117;stroke-linejoin:round;stroke-miterlimit:3.1;paint-order:markers stroke fill"
         d="m 112.8821,138.05074 c 0,0 -1.38151,0.15071 -0.62796,-1.13032 0.75355,-1.28104 5.53369,-1.79494 7.66112,-0.37676 2.02094,1.3472 2.05971,3.26539 2.05971,3.26539 0,0 -0.27631,0.27631 -0.42702,0.27631 -0.15071,0 -0.5526,-2.08483 -3.19003,-2.38626 -2.63744,-0.30141 -5.47582,0.35166 -5.47582,0.35166 z"
         id="path51"
         sodipodi:nodetypes="csscsscc" />
      <path
         style="opacity:1;fill:#111b09;fill-opacity:1;stroke-width:2.117;stroke-linejoin:round;stroke-miterlimit:3.1;paint-order:markers stroke fill"
         d="m 101.50347,131.69579 c 0.37677,0.12559 3.84311,0.62796 4.0943,1.25592 0.25118,0.62796 0.37677,1.68293 1.30615,1.65781 0.92938,-0.0251 0.85403,-1.83364 1.23081,-1.80852 0.37677,0.0251 0.32653,-0.32654 2.26065,0.37677 1.93412,0.70332 2.28578,1.73317 2.93886,1.6327 0.65307,-0.10047 1.13032,-1.10521 0.32653,-1.65782 -0.80379,-0.5526 -2.7379,-2.0597 -3.74264,-2.38624 -1.00474,-0.32654 -2.63743,0.0251 -3.06444,-0.22607 -0.42702,-0.25118 -1.20569,-1.05497 -2.98909,-1.15545 -1.78341,-0.10047 -3.46634,1.33128 -3.76777,1.28104 -0.301414,-0.0502 -1.582452,-1.2308 -2.788137,-0.80379 -1.205683,0.42702 -2.461604,1.98436 -1.431748,3.39099 1.029853,1.40663 2.51184,2.13506 3.164919,1.98435 0.653077,-0.15071 0.527484,0.17583 0.376775,-0.35165 -0.15071,-0.52749 -1.532223,-2.5872 -1.632696,-2.93886 -0.100473,-0.35166 0.653079,-0.75355 1.507103,-0.0502 0.854024,0.70332 1.180564,1.48199 1.507104,1.38152 0.32654,-0.10048 0.50237,-0.55261 0.50237,-0.92938 0,-0.37678 0.20095,-0.65308 0.20095,-0.65308 z"
         id="path52" />
      <path
         style="opacity:1;fill:#111b09;fill-opacity:1;stroke-width:2.117;stroke-linejoin:round;stroke-miterlimit:3.1;paint-order:markers stroke fill"
         d="m 103.4627,133.12754 c 0,0 -1.33127,2.00947 0.37678,2.98908 1.70805,0.97962 2.48672,0.77868 1.909,0.27631 -0.57773,-0.50237 -1.38152,-1.30616 -1.6327,-2.16018 -0.25118,-0.85403 -0.22607,-1.28104 -0.40189,-1.30616 -0.17583,-0.0251 -0.25119,0.20095 -0.25119,0.20095 z"
         id="path53" />
      <path
         style="opacity:1;fill:#111b09;fill-opacity:1;stroke-width:2.117;stroke-linejoin:round;stroke-miterlimit:3.1;paint-order:markers stroke fill"
         d="m 72.841883,127.25098 c 0,0 -0.268175,0.0294 -2.735389,-0.88296 -2.467214,-0.9124 -4.666253,-2.97267 -5.336691,-3.06096 -0.670439,-0.0883 -1.609052,0.47092 -1.206789,0.97126 0.402263,0.50035 4.666252,2.94323 6.65075,3.44358 1.984499,0.50035 3.325376,0.20603 2.976747,-0.14716 -0.348628,-0.35319 -0.348628,-0.32376 -0.348628,-0.32376 z"
         id="path54" />
      <path
         style="opacity:1;fill:#111b09;fill-opacity:1;stroke-width:2.117;stroke-linejoin:round;stroke-miterlimit:3.1;paint-order:markers stroke fill"
         d="m 80.479364,131.49484 c 0,0 1.356392,-2.23554 4.21989,-2.38625 2.863498,-0.15071 5.978181,1.60758 6.430312,3.31563 0.45213,1.70805 0.536985,2.49132 0.03966,2.11833 -0.497319,-0.37299 0.07104,-0.58612 -0.674931,-1.42091 -0.74598,-0.83479 -3.250337,-3.28586 -6.269773,-2.13137 -1.404288,0.53693 -3.235048,1.87614 -3.605562,1.97152 -0.284953,0.0734 -0.382613,-0.23502 -0.353107,-0.53757 0.02401,-0.24622 0.213511,-0.92938 0.213511,-0.92938 z"
         id="path55"
         sodipodi:nodetypes="csssssssc" />
      <path
         style="opacity:1;fill:#111b09;fill-opacity:1;stroke-width:2.117;stroke-linejoin:round;stroke-miterlimit:3.1;paint-order:markers stroke fill"
         d="m 114.63203,124.18766 c 0,0 -2.55764,0.7815 -0.81702,3.01944 1.74061,2.23793 5.86126,0.63941 5.00871,0.35523 -0.85255,-0.28419 -3.16153,-0.17762 -3.87198,-1.13673 -0.71046,-0.95912 0.67493,-1.45644 0.39075,-1.91823 -0.28419,-0.4618 -0.71046,-0.31971 -0.71046,-0.31971 z"
         id="path56" />
      <path
         style="opacity:1;fill:#111b09;fill-opacity:1;stroke-width:2.117;stroke-linejoin:round;stroke-miterlimit:3.1;paint-order:markers stroke fill"
         d="m 123.22855,122.34047 c 0,0 -2.84183,2.59317 -1.98928,4.76006 0.85255,2.16689 2.94839,2.3445 4.44035,0.99464 1.49196,-1.34987 2.98391,-3.30362 2.16689,-3.23258 -0.81703,0.071 -2.52212,2.59317 -3.55228,2.73526 -1.03016,0.14209 -1.98928,-0.071 -1.49196,-2.06032 0.49732,-1.98928 0.99464,-3.30362 0.74598,-3.30362 -0.24866,0 -0.3197,0.10656 -0.3197,0.10656 z"
         id="path57" />
      <path
         style="opacity:1;fill:#111b09;fill-opacity:1;stroke-width:2.117;stroke-linejoin:round;stroke-miterlimit:3.1;paint-order:markers stroke fill"
         d="m 65.290882,109.83645 c -0.142092,0 -5.221111,0.27095 -4.723792,3.57457 0.497318,3.30362 4.297516,3.81417 5.718429,3.17476 1.420911,-0.63941 -1.101206,-1.77614 -2.912869,-2.23793 -1.81166,-0.4618 -2.377328,-1.51012 -0.680289,-2.27094 1.705951,-0.7648 3.879031,-1.23784 3.202408,-1.88523 -0.118759,-0.61322 -0.603887,-0.35523 -0.603887,-0.35523 z"
         id="path58"
         sodipodi:nodetypes="csssscc" />
      <path
         id="path59"
         style="opacity:1;fill:#111b09;fill-opacity:1;stroke-width:2.117;stroke-linejoin:round;stroke-miterlimit:3.1;paint-order:markers stroke fill"
         d="m 68.846574,103.50817 c -2.999505,0.52778 -2.559194,1.88845 -2.559147,1.8885 0,0 -5.626385,-0.92902 -6.63112,-0.40153 -1.004736,0.52748 -1.532114,1.48193 -0.753442,2.48667 0.77867,1.00473 2.788129,1.63255 4.345471,1.70791 1.557338,0.0754 2.737777,0.25124 1.582332,-0.37672 -1.155447,-0.62796 -3.767969,-2.26095 -4.245219,-2.21072 -0.477249,0.0502 2.185217,-0.67771 3.441134,-0.45165 1.255921,0.22607 1.658297,0.30127 1.658297,0.30127 0,0 -0.301456,2.48667 0.954463,3.18999 1.255918,0.70331 2.536905,0.9293 1.783354,0.0501 -0.753551,-0.87915 -1.708345,-4.39563 0.602547,-4.84776 2.31089,-0.45213 3.240425,0.80353 3.215308,0.3514 -0.02511,-0.45213 0.102733,-1.75171 -2.461644,-1.83354 -0.104596,-0.003 -0.414949,0.055 -0.932334,0.14606 z"
         sodipodi:nodetypes="scsscscscssssss" />
      <path
         style="opacity:1;fill:#111b09;fill-opacity:1;stroke-width:2.117;stroke-linejoin:round;stroke-miterlimit:3.1;paint-order:markers stroke fill"
         d="m 61.514968,124.16027 c 0,0 2.838381,-6.73173 -0.879144,-8.56538 -3.717523,-1.83364 -5.551167,0.80379 -5.073917,1.15545 0.47725,0.35165 3.416104,-0.20095 4.320365,2.28577 0.904264,2.48672 1.155446,5.12416 1.281038,5.17439 0.125593,0.0502 0.376778,0.12559 0.351658,-0.0502 z"
         id="path60" />
      <path
         style="opacity:1;fill:#111b09;fill-opacity:1;stroke-width:2.117;stroke-linejoin:round;stroke-miterlimit:3.1;paint-order:markers stroke fill"
         d="m 58.626353,109.49112 c -0.251185,-0.0754 -2.712789,-1.08009 -4.646906,-0.10048 -1.934115,0.97962 -1.758286,3.03933 0.602842,3.66729 2.361132,0.62796 5.67676,0.22607 4.998562,-0.32654 -0.678196,-0.5526 -4.72226,-1.48198 -4.822733,-1.909 -0.100473,-0.42701 2.813262,-1.2308 3.416105,-0.8289 0.602839,0.40189 1.205682,0.30142 1.004734,-0.1256 -0.200946,-0.42701 -0.552604,-0.37677 -0.552604,-0.37677 z"
         id="path61" />
      <path
         style="opacity:1;fill:#111b09;fill-opacity:1;stroke-width:2.117;stroke-linejoin:round;stroke-miterlimit:3.1;paint-order:markers stroke fill"
         d="m 55.398638,105.9871 c 0.401894,0.94194 1.067532,1.83364 1.394071,1.28104 0.32654,-0.55261 0.615402,-1.50711 0.665638,-2.59976 0.05024,-1.09264 0.891704,-2.13506 1.10521,-1.65781 0.213505,0.47725 0.514927,1.75829 0.9545,1.43175 0.439571,-0.32654 0.879142,-1.53222 0.213506,-2.16018 -2.197724,-2.667649 -5.081277,1.95101 -4.332925,3.70496 z"
         id="path62"
         sodipodi:nodetypes="sssssss" />
      <path
         style="opacity:1;fill:#111b09;fill-opacity:1;stroke-width:2.117;stroke-linejoin:round;stroke-miterlimit:3.1;paint-order:markers stroke fill"
         d="m 76.837195,100.80015 c -2.23131,0.94217 -2.310895,3.31563 -2.03459,3.39098 0.276302,0.0754 2.913734,-3.21515 4.797615,-2.41136 1.883879,0.80379 2.109944,1.85876 1.356392,2.93885 -0.753552,1.08009 -2.210419,1.78341 -1.733169,1.88388 0.47725,0.10048 3.868235,-1.83364 3.114683,-4.11941 -1.320935,-3.53469 -3.721407,-2.43434 -5.500931,-1.68294 z"
         id="path63"
         sodipodi:nodetypes="scssscs" />
      <path
         style="opacity:1;fill:#111b09;fill-opacity:1;stroke-width:2.117;stroke-linejoin:round;stroke-miterlimit:3.1;paint-order:markers stroke fill"
         d="m 92.234775,116.34844 c -0.200945,-0.0251 -2.562076,-0.52748 -4.747379,1.2308 -2.185299,1.75829 -2.536957,2.5872 -0.778668,3.5417 1.758288,0.9545 4.872968,0.77867 4.420838,0.0251 -0.452131,-0.75355 -3.1398,-1.20569 -3.441221,-1.80853 -0.301421,-0.60284 2.336011,-1.75829 3.566813,-1.909 1.230802,-0.15071 1.733169,0.57773 1.682933,-0.15071 -0.05024,-0.72843 -0.703316,-0.92938 -0.703316,-0.92938 z"
         id="path64" />
      <path
         style="opacity:1;fill:#111b09;fill-opacity:1;stroke-width:2.117;stroke-linejoin:round;stroke-miterlimit:3.1;paint-order:markers stroke fill"
         d="m 93.139039,121.59819 c -0.200948,0 -6.053537,1.25592 -4.018946,3.54169 2.034592,2.28578 4.445957,0.9545 4.923207,0.37678 0.47725,-0.57772 1.029857,-0.72843 0.326541,-1.02985 -0.703315,-0.30143 -3.817998,-0.10048 -3.817998,-0.27631 0,-0.17583 1.356394,-1.58246 2.260655,-1.70805 0.904264,-0.12559 1.682933,-0.35166 1.054974,-0.72843 -0.62796,-0.37678 -0.728433,-0.17583 -0.728433,-0.17583 z"
         id="path65" />
      <path
         style="opacity:1;fill:#111b09;fill-opacity:1;stroke-width:2.117;stroke-linejoin:round;stroke-miterlimit:3.1;paint-order:markers stroke fill"
         d="m 82.483909,118.96581 c 0,0 -4.404826,-4.22721 -6.855897,-4.51139 -2.451073,-0.28419 -3.410188,2.48659 -1.420913,3.87198 1.989278,1.38539 5.470509,2.16689 4.369303,1.38539 -1.101207,-0.7815 -3.303619,-2.73526 -3.552277,-3.19705 -0.248661,-0.4618 0.248658,-1.27882 1.989275,-0.31971 1.740617,0.95912 4.795578,3.33915 5.079759,3.16153 0.284181,-0.17761 0.39075,-0.39075 0.39075,-0.39075 z"
         id="path66" />
      <path
         style="opacity:1;fill:#111b09;fill-opacity:1;stroke-width:2.117;stroke-linejoin:round;stroke-miterlimit:3.1;paint-order:markers stroke fill"
         d="m 69.660184,91.790879 c -0.426275,0.03552 -8.028151,-0.888069 -7.069034,3.19705 0.959115,4.085122 2.095844,5.008713 3.445709,4.97319 1.349867,-0.03552 1.77614,-1.207772 0.923594,-1.989275 -0.852549,-0.781502 -3.978553,-2.202413 -2.628688,-3.5878 1.349867,-1.38539 4.333782,-0.888071 4.333782,-0.888071 0,0 -0.284184,2.841823 0.923591,3.161527 1.207776,0.319707 1.101207,-1.385387 1.207776,-2.344502 0.106566,-0.959117 1.989275,-1.740617 1.669571,-2.237936 -0.319707,-0.497318 -2.806301,-0.284183 -2.806301,-0.284183 z"
         id="path67" />
      <path
         style="opacity:1;fill:#111b09;fill-opacity:1;stroke-width:2.117;stroke-linejoin:round;stroke-miterlimit:3.1;paint-order:markers stroke fill"
         d="m 72.430962,89.197716 c 0,0 -0.35523,-0.39075 -1.101207,0.959115 -0.745979,1.349867 -0.213137,2.308981 0.177613,2.0248 0.390752,-0.284183 0.426275,-1.669571 2.060323,-1.811663 1.634048,-0.142092 3.090482,-0.63941 1.847183,-1.278821 -1.243298,-0.63941 -2.131366,-0.603888 -2.131366,-0.603888 0,0 1.349867,-1.172252 0.497318,-1.918229 -0.852545,-0.745979 -3.019436,-1.918231 -0.461796,-2.380027 2.557642,-0.461796 3.054959,0.07105 3.054959,0.07105 0,0 0.674934,1.77614 1.527482,0.923591 0.852546,-0.852545 0.39075,-0.7815 0.248658,-2.202413 -0.142092,-1.42091 1.563002,-3.410185 3.410188,-3.800938 1.847186,-0.390749 3.907507,0.994641 4.298257,0.710457 0.39075,-0.284181 0.532842,-0.923592 -0.74598,-1.349867 -1.278818,-0.426273 -2.664208,-1.776137 -6.109917,-0.568362 -3.445711,1.207772 -2.202412,5.186325 -2.877346,4.973187 -0.674934,-0.213135 -2.060321,-1.847183 -4.085122,-0.781499 -2.024798,1.065683 -2.628685,3.090481 -1.989275,4.511394 0.639411,1.420911 2.380028,2.522117 2.380028,2.522117 z"
         id="path68"
         sodipodi:nodetypes="csssscsscsssssssssc" />
      <path
         style="fill:#111b09;fill-opacity:1;stroke-width:2.117;stroke-linejoin:round;stroke-miterlimit:3.1;paint-order:markers stroke fill"
         d="m 107.48204,101.70834 c 0,0 -0.35523,-0.39075 -1.10121,0.95912 -0.74597,1.34986 -0.21313,2.30898 0.17762,2.0248 0.39075,-0.28419 0.42627,-1.66957 2.06032,-1.81167 1.63405,-0.14209 3.09048,-0.63941 1.84718,-1.27882 -1.24329,-0.63941 -2.13136,-0.60388 -2.13136,-0.60388 0,0 1.34986,-1.172262 0.49732,-1.918232 -0.85255,-0.74598 -3.01944,-1.91823 -0.4618,-2.38003 2.55764,-0.4618 3.05496,0.071 3.05496,0.071 0,0 0.67493,1.77614 1.52748,0.92359 0.85255,-0.85254 0.39075,-0.7815 0.24866,-2.20241 -0.14209,-1.420913 1.563,-3.410188 3.41019,-3.800941 1.84718,-0.390749 3.9075,0.994641 4.29825,0.710457 0.39075,-0.284181 0.53285,-0.923592 -0.74598,-1.349867 -1.27881,-0.426273 -2.6642,-1.776137 -6.10991,-0.568362 -3.44571,1.207772 -2.20242,5.186323 -2.87735,4.973183 -0.67493,-0.21313 -2.06032,-1.847179 -4.08512,-0.781495 -2.0248,1.065685 -2.62869,3.090485 -1.98928,4.511395 0.63941,1.420912 2.38003,2.522122 2.38003,2.522122 z"
         id="path68-0"
         sodipodi:nodetypes="csssscsscsssssssssc" />
      <path
         style="display:inline;fill:#111b09;fill-opacity:1;stroke-width:2.117;stroke-linejoin:round;stroke-miterlimit:3.1;paint-order:markers stroke fill"
         d="m 119.60371,101.29612 c 0,0 -0.26437,-0.31194 0.26448,-0.78938 0.52881,-0.47743 2.57411,-1.433853 1.67178,-3.20644 -0.90233,-1.772594 -2.69245,-2.632138 -3.06733,-0.970559 -0.37488,1.661566 -0.0744,1.788217 -0.22882,1.907925 -0.15441,0.119713 -0.37158,0.535298 -0.62615,-0.05394 -0.25456,-0.589225 -0.17651,-2.679715 0.79187,-3.355783 1.21522,-0.848404 3.33946,-0.657696 4.36723,0.502109 1.3303,1.5012 0.97034,4.166927 -0.27026,5.535928 -0.65684,0.72483 -2.9028,0.43014 -2.9028,0.43014 z"
         id="path10-5"
         sodipodi:nodetypes="cssssssssc" />
      <path
         style="opacity:1;fill:#111b09;fill-opacity:1;stroke-width:2.117;stroke-linejoin:round;stroke-miterlimit:3.1;paint-order:markers stroke fill"
         d="m 95.058975,83.300934 c 0,0 -3.090482,-0.284184 -5.079757,0.568365 -1.989277,0.852545 -3.339142,1.882706 -0.99464,2.912866 2.344505,1.030164 4.68901,0.888072 4.156168,-0.106566 -0.532842,-0.99464 -1.420913,-1.207775 -2.308982,-1.207775 -0.888069,0 -2.095844,-0.142092 -0.63941,-0.497319 1.456435,-0.355229 3.090484,-1.172252 3.83646,-0.852548 0.74598,0.319706 1.705094,0.781502 1.491957,0.142092 -0.213135,-0.639411 -0.461796,-0.959115 -0.461796,-0.959115 z"
         id="path69" />
      <path
         id="path70"
         style="opacity:1;fill:#111b09;fill-opacity:1;stroke-width:2.117;stroke-linejoin:round;stroke-miterlimit:3.1;paint-order:markers stroke fill"
         d="m 97.616781,73.531946 c -2.095844,0.07105 -3.019454,1.492415 -3.019454,1.492415 -2.380023,-0.355226 -3.339314,-0.817464 -4.156336,0.567924 -0.817024,1.385387 0.675068,3.623646 0.994772,3.374988 0.319703,-0.24866 -0.568497,-1.49192 0.923457,-1.634009 1.491958,-0.142092 3.339217,0.603544 3.445785,0.319361 0.106569,-0.284181 0.568556,-0.67457 0.461987,-1.136365 -0.106569,-0.461796 -0.284444,-0.923592 -0.07131,-0.959115 0.213137,-0.03552 0.958997,-0.532878 2.024682,-0.28422 0.922734,0.215305 1.319707,0.902803 1.414901,1.09244 0.0029,-0.0016 0.0064,-0.0036 0.0093,-0.0052 0.220615,-0.120982 0.422245,-0.247479 0.602025,-0.367419 -0.14529,-0.530311 -0.811724,-2.522463 -2.629808,-2.460832 z" />
      <path
         style="opacity:1;fill:#111b09;fill-opacity:1;stroke-width:2.117;stroke-linejoin:round;stroke-miterlimit:3.1;paint-order:markers stroke fill"
         d="m 140.47409,109.25349 c 0.0218,2.5367 -1.16069,3.91752 -1.23957,3.40048 0.25236,-1.66704 0.1003,-4.42004 -1.25085,-3.14196 -0.51837,0.53692 -0.58598,0.89486 -0.58598,0.89486 0,0 0.31553,-0.17897 0.28172,0.0397 -0.0338,0.21874 0.0225,0.9744 -0.31553,0.95452 -0.33806,-0.0199 -0.70346,0.0575 -0.41694,-1.43178 0.22109,-1.14927 0.71064,-1.87932 1.49875,-2.26699 0.97433,-0.47926 2.0178,0.31768 2.0284,1.5511 z"
         id="path71"
         sodipodi:nodetypes="ssscsssss" />
      <path
         style="opacity:1;fill:#111b09;fill-opacity:1;stroke-width:2.117;stroke-linejoin:round;stroke-miterlimit:3.1;paint-order:markers stroke fill"
         d="m 133.27508,118.43381 c 0,0 -0.62056,-1.19314 -1.35748,-2.42607 -0.73693,-1.23292 -1.43507,-0.91475 -1.66779,0.47726 -0.2327,1.39201 0.73693,2.22722 0.0387,2.3863 -0.69812,0.15909 -1.97805,-0.47725 -1.51263,-2.42607 0.46542,-1.94881 2.24956,-4.3351 4.07248,-2.82379 1.82293,1.51133 2.36593,3.26128 1.59021,4.05672 -0.7757,0.79542 -1.16356,0.75565 -1.16356,0.75565 z"
         id="path72" />
      <path
         style="opacity:1;fill:#111b09;fill-opacity:1;stroke-width:2.117;stroke-linejoin:round;stroke-miterlimit:3.1;paint-order:markers stroke fill"
         d="m 126.29832,110.43081 c 0.1167,-0.1591 0.93409,-2.02836 -0.3211,-3.57946 -1.2552,-1.55108 -3.91156,-4.0567 -4.23265,-1.35223 -0.32109,2.70447 0.6422,3.89762 0.93411,3.4999 0.29189,-0.39771 0.2627,-0.71589 0.2627,-0.71589 0,0 -0.84652,-1.43178 0.0876,-1.78972 0.93411,-0.35795 2.13093,3.97717 2.5688,4.13625 0.43785,0.15909 0.70056,-0.19885 0.70056,-0.19885 z"
         id="path73" />
    </g>
  </g>
</svg>
