<?xml version="1.0" encoding="UTF-8" standalone="no"?>
<!-- Created with Inkscape (http://www.inkscape.org/) -->

<svg
   width="145.7393mm"
   height="91.952065mm"
   viewBox="0 0 145.7393 91.952065"
   version="1.1"
   id="svg1"
   inkscape:version="1.3 (0e150ed6c4, 2023-07-21)"
   sodipodi:docname="wok_back.svg"
   xmlns:inkscape="http://www.inkscape.org/namespaces/inkscape"
   xmlns:sodipodi="http://sodipodi.sourceforge.net/DTD/sodipodi-0.dtd"
   xmlns="http://www.w3.org/2000/svg"
   xmlns:svg="http://www.w3.org/2000/svg">
  <sodipodi:namedview
     id="namedview1"
     pagecolor="#ffffff"
     bordercolor="#000000"
     borderopacity="0.25"
     inkscape:showpageshadow="2"
     inkscape:pageopacity="0.0"
     inkscape:pagecheckerboard="0"
     inkscape:deskcolor="#d1d1d1"
     inkscape:document-units="mm"
     inkscape:zoom="0.46551693"
     inkscape:cx="219.11126"
     inkscape:cy="-31.148169"
     inkscape:window-width="1920"
     inkscape:window-height="974"
     inkscape:window-x="-11"
     inkscape:window-y="-11"
     inkscape:window-maximized="1"
     inkscape:current-layer="layer22" />
  <defs
     id="defs1">
    <pattern
       id="EMFhbasepattern"
       patternUnits="userSpaceOnUse"
       width="6"
       height="6"
       x="0"
       y="0" />
    <pattern
       id="EMFhbasepattern-1"
       patternUnits="userSpaceOnUse"
       width="6"
       height="6"
       x="0"
       y="0" />
  </defs>
  <g
     inkscape:groupmode="layer"
     id="layer21"
     inkscape:label="Layer 2"
     transform="translate(-31.091158,-119.26874)">
    <g
       inkscape:groupmode="layer"
       id="layer22"
       inkscape:label="F">
      <path
         id="path11"
         style="opacity:1;fill:#5e6b92;fill-opacity:1;stroke-width:2.117;stroke-linejoin:round;stroke-miterlimit:3.1;paint-order:markers stroke fill"
         d="m 152.41809,121.02465 c -3.74715,-0.0829 -8.08755,0.74921 -10.34821,1.50275 -3.61705,1.20568 -7.18401,4.97342 -7.4352,5.17437 -0.25118,0.20095 -4.672,-0.70328 -7.98763,-0.95447 -3.31563,-0.25118 -16.09999,-0.71263 -21.35735,-0.85473 -5.25737,-0.14209 -13.782761,0.71081 -22.450312,2.55799 -8.667553,1.84719 -14.067074,4.26266 -23.445081,7.10447 -9.378003,2.84182 -16.625091,10.51469 -18.614367,11.08305 -1.989273,0.56837 -3.267865,6.3941 -5.967595,15.34583 -2.699728,8.95174 -1.136826,19.04042 -0.710551,20.7455 0.426272,1.7051 2.841782,6.67812 3.552238,10.23039 0.710456,3.55227 1.279068,0.99462 1.847433,-0.14211 0.568363,-1.13673 19.026634,-9.32463 20.03045,-9.28174 2.518979,0.10762 1.989486,3.83661 5.399671,4.97334 3.410184,1.13673 7.530577,4.54713 9.661942,5.39967 2.131365,0.85255 2.700094,-2.13165 2.700094,-2.13165 0,0 -0.85285,3.12596 1.562695,3.55224 2.415549,0.42627 3.83667,0.28437 5.399671,1.4211 1.563003,1.13673 2.55739,0.71038 5.825484,-0.56844 3.268093,-1.27882 4.831289,-0.14189 9.094018,1.56321 4.26273,1.70509 -5.115163,-0.99471 -6.820255,3.26802 -1.705092,4.26274 12.645695,-2.55747 16.055875,-2.55747 3.41018,0 0.28449,-1.84752 2.27376,-2.55798 1.98928,-0.71045 13.36045,13.40218 18.47572,11.69709 5.11529,-1.7051 9.97128,-4.21643 14.99495,-6.72827 5.02368,-2.51184 6.48046,-2.66237 8.48992,-4.069 2.00947,-1.40663 2.96409,-3.06431 3.01429,-3.81786 0.0502,-0.75355 0.40204,-0.25156 1.10536,-1.0051 0.70331,-0.75356 0.30113,-0.65294 0.60255,-2.41123 0.30142,-1.75829 6.80638,1.23558 7.71064,-0.17105 0.90426,-1.40662 5.62653,-6.32984 5.62653,-6.32984 l 4.97334,-15.82436 c 0,0 0.10028,-9.39439 -0.85422,-12.86071 -0.95448,-3.46635 -6.42812,-10.88332 -6.65902,-11.43393 -0.2309,-0.5506 -3.81889,-3.26802 -3.81889,-3.26802 0,0 -1.24321,-0.5332 -1.68723,-0.78186 -0.44404,-0.24865 0.10852,-2.40037 0.10852,-2.40037 0,0 0.7534,-4.62209 1.00459,-7.83725 0.25118,-3.21516 -2.51193,-3.81761 -5.82756,-6.2792 -1.24336,-0.9231 -3.27798,-1.30263 -5.52627,-1.35238 z m -4.5713,5.42138 c 0,0 9.19367,1.23078 9.82162,2.23552 0.62797,1.00474 -1.45694,6.68174 -1.60765,6.80734 0,0 -3.20642,-1.63906 -6.33243,-2.70475 -3.126,-1.06568 -9.20036,-1.77613 -9.30693,-1.91823 -0.10656,-0.14209 0.2844,-0.1774 1.56322,-1.31413 1.27881,-1.13673 5.86217,-3.10575 5.86217,-3.10575 z"
         sodipodi:nodetypes="ssssssssssssssscssssssssssssssccsscscssscscsssc" />
      <path
         style="opacity:1;fill:#9ea7c4;fill-opacity:1;stroke-width:2.117;stroke-linejoin:round;stroke-miterlimit:3.1;paint-order:markers stroke fill"
         d="m 129.18395,130.79153 c 0.12559,-0.15072 1.10521,-1.68294 0.32654,-1.85877 -0.77867,-0.17583 -9.16822,0.20095 -12.13219,0.17583 -2.96397,-0.0251 -18.127635,0.0523 -23.704712,1.57974 -5.577078,1.52748 -8.489948,3.69437 -7.211127,3.76541 1.278822,0.071 19.253349,-3.33914 22.841149,-3.41018 3.58781,-0.0711 5.71917,0 6.42963,0 0.71045,0 6.92694,-0.56837 8.59651,-0.71046 1.66957,-0.14209 3.09048,0.071 3.09048,0.071 z"
         id="path12" />
      <path
         style="opacity:1;fill:#9ea7c4;fill-opacity:1;stroke-width:2.117;stroke-linejoin:round;stroke-miterlimit:3.1;paint-order:markers stroke fill"
         d="m 84.372716,131.21854 c 0,0 -1.833644,1.33127 -2.587196,1.65781 -0.753552,0.32654 -1.08009,0.90426 -1.507104,1.02986 -0.427014,0.12559 -0.251185,1.88388 0.9545,2.16018 1.205683,0.2763 2.511841,-1.2308 3.1398,-2.76302 0.62796,-1.53223 1.431748,-2.23554 0.753552,-2.3109 -0.678196,-0.0753 -0.753552,0.22607 -0.753552,0.22607 z"
         id="path13" />
      <path
         style="opacity:1;fill:#9ea7c4;fill-opacity:1;stroke-width:2.117;stroke-linejoin:round;stroke-miterlimit:3.1;paint-order:markers stroke fill"
         d="m 78.008037,133.56568 c -0.7815,0.28418 -9.768766,2.23793 -12.148791,3.05495 -2.380027,0.81703 -4.369302,1.59853 -3.16153,2.09585 1.207776,0.49732 1.563005,0.4618 7.672922,-1.70509 6.10992,-2.16689 6.820376,-2.77078 7.921583,-2.84183 1.101206,-0.071 1.101206,-0.71045 0.63941,-0.60388 -0.461795,0.10656 -0.923594,0 -0.923594,0 z"
         id="path14" />
      <path
         style="opacity:1;fill:#9ea7c4;fill-opacity:1;stroke-width:2.117;stroke-linejoin:round;stroke-miterlimit:3.1;paint-order:markers stroke fill"
         d="m 55.461434,144.63177 c 0.175829,-0.0754 1.883881,-2.00948 1.908998,-3.03933 0.02511,-1.02986 -0.05024,-2.16018 -0.477251,-1.65782 -0.427011,0.50237 -0.376774,0.85403 -0.703312,0.90427 -0.326541,0.0502 -1.682935,0.15071 -2.436487,1.20568 -0.753552,1.05497 -0.778669,1.6327 -1.205683,1.98435 -0.427013,0.35166 -9.344046,7.83695 -11.253044,13.26252 -1.909,5.42557 -2.813261,7.33457 -2.461604,8.7412 0.351658,1.40663 0.904262,1.75829 1.306156,0.70332 0.401897,-1.05497 0.05024,-2.10995 0.452133,-1.15545 0.401894,0.9545 0.301421,2.31089 0.653079,1.20569 0.351658,-1.10521 0.854025,-2.96398 0.854025,-3.56682 0,-0.60284 1.40663,-4.82273 3.365865,-8.13836 1.959237,-3.31563 5.475811,-6.8322 5.475811,-6.8322 0,0 2.160183,-2.10995 2.562079,-2.26066 0.401895,-0.15071 1.959235,-1.35639 1.959235,-1.35639 z"
         id="path15" />
      <path
         style="opacity:1;fill:#494860;fill-opacity:1;stroke-width:2.117;stroke-linejoin:round;stroke-miterlimit:3.1;paint-order:markers stroke fill"
         d="m 39.586603,171.60893 c 0,0 -0.703315,0.40189 -0.879144,0.37677 -0.175829,-0.0251 -1.406631,-0.37677 -1.431748,0.75356 -0.02511,1.13033 0.904261,3.03932 1.582457,2.00947 0.678199,-1.02986 0.728435,-3.1398 0.728435,-3.1398 z"
         id="path16" />
      <path
         style="fill:#494860;fill-opacity:1;stroke-width:2.117;stroke-linejoin:round;stroke-miterlimit:3.1;paint-order:markers stroke fill"
         d="m 55.983912,197.3646 c -1.563005,-1.84719 -17.477211,-14.20912 -16.908846,-18.89812 0.568365,-4.68901 1.42091,-12.07775 3.126004,-12.9303 1.705094,-0.85254 -1.278821,-0.14209 5.257372,-6.53619 6.536192,-6.3941 10.798926,-7.38874 14.209114,-8.0992 3.410188,-0.71045 3.978553,-9.66219 9.94638,-9.66219 5.967828,0 12.077748,1.70509 20.034851,-1.7051 7.957105,-3.41018 36.943703,-6.53619 35.664873,-3.55228 -1.27881,2.98392 2.98392,9.23593 9.94639,7.53084 6.96246,-1.7051 1.84718,-6.25201 6.67828,-5.25738 4.8311,0.99464 3.2681,1.563 7.24665,5.39947 3.97855,3.83646 7.53083,0.28418 7.53083,0.28418 0,0 9.5201,11.79356 10.65683,13.64075 1.13673,1.84718 1.42092,2.55764 1.42092,2.55764 l -9.37802,29.98123 c 0,0 -44.61662,17.33512 -55.41555,17.6193 C 95.201067,208.02144 55.983912,197.3646 55.983912,197.3646 Z"
         id="path1" />
      <path
         style="opacity:1;fill:#25303e;fill-opacity:1;stroke-width:2.117;stroke-linejoin:round;stroke-miterlimit:3.1;paint-order:markers stroke fill"
         d="m 68.558978,151.32707 c -0.284184,0.42627 -4.689009,4.8311 -7.530833,6.46515 -2.84182,1.63405 -12.361928,5.6126 -7.743965,5.25737 4.617961,-0.35523 9.378013,-4.90215 13.28552,-8.02815 3.907507,-3.12601 3.268097,-3.83646 2.699732,-3.90751 -0.568365,-0.071 -0.710454,0.21314 -0.710454,0.21314 z"
         id="path18" />
      <path
         style="opacity:1;fill:#25303e;fill-opacity:1;stroke-width:2.117;stroke-linejoin:round;stroke-miterlimit:3.1;paint-order:markers stroke fill"
         d="m 60.133457,165.63075 c -0.552606,0.10047 -1.858762,0.60284 -3.265392,1.95923 -1.406631,1.3564 -2.160183,2.26066 -2.813262,2.36113 -0.653079,0.10048 -2.411368,0.50237 -4.872969,2.41137 -2.461604,1.909 -3.064446,3.31563 -2.109946,5.12416 0.954498,1.80852 0.703315,2.26065 1.959234,0.85402 1.255922,-1.40663 13.011333,-11.80565 12.157308,-12.25778 -0.854025,-0.45213 -1.054973,-0.45213 -1.054973,-0.45213 z"
         id="path19" />
      <path
         id="path17"
         style="fill:#25303e;fill-opacity:1;stroke-width:2.117;stroke-linejoin:round;stroke-miterlimit:3.1;paint-order:markers stroke fill"
         d="m 163.72179,146.44016 c -0.85403,-0.15071 -5.52627,1.35658 -2.0097,5.07411 3.51658,3.71751 6.78194,6.83229 5.17436,10.75076 -1.60757,3.91847 -3.9184,11.15244 -4.72219,12.96097 -0.80379,1.80852 1.30645,1.70814 -4.11913,6.53086 -5.42556,4.82274 -11.65511,9.9469 -12.35842,9.84643 -0.70331,-0.10048 -4.7222,6.73159 -12.45867,3.11454 -7.73646,-3.61705 -7.03299,-3.31585 -2.41122,-2.71301 4.62179,0.60284 19.89336,-4.01858 19.19004,-7.43469 -0.7033,-3.4161 -3.61674,-9.04264 1.50741,-11.25306 5.12415,-2.21042 3.61675,-4.42092 -0.80409,-4.42092 -0.96716,-0.21757 -22.44136,-7.42358 -22.97017,-8.47545 -0.85255,-3.55228 8.95165,-6.67796 -4.4049,-9.0935 -13.35655,-2.41555 -16.19856,-1.98937 -20.46129,-0.71055 -4.262727,1.27882 -7.672796,-0.28444 -6.820251,-1.84744 0.852548,-1.56299 -8.099114,1.56313 -10.940935,0.99478 -2.841817,-0.56837 -0.284394,1.56299 -9.236128,3.69434 -8.951732,2.13137 -9.09356,4.12097 -9.519833,6.25233 -0.426274,2.13136 -5.683543,6.53591 0.710551,5.54127 3.664067,-0.56997 6.468571,3.21221 8.772591,7.02438 -4.550037,-0.67707 -9.387064,-0.98113 -14.172261,-0.63046 -9.520096,0.56837 -14.043071,-2.04638 -14.043071,-2.04638 -1.607574,2.41135 -5.023836,7.83688 -6.028572,8.23877 -1.004733,0.4019 -8.037892,-5.62621 -4.219898,2.21072 3.817992,7.83693 3.818086,10.44921 8.640816,16.67857 4.822728,6.22935 -1.808496,-5.42586 11.25306,2.00918 13.061556,7.43504 17.683499,6.43047 36.773466,10.24847 19.089975,3.81799 39.988335,2.00947 43.002545,0 3.01421,-2.00947 -1.00487,-0.80373 3.81785,-2.61225 4.82274,-1.80853 20.29607,-14.2675 22.1046,-17.48265 1.80852,-3.21516 3.21523,-5.82756 4.42092,-8.64082 1.20567,-2.81325 3.31515,-12.91077 3.26491,-14.81976 -0.0502,-1.909 -1.15497,-10.04745 -1.15497,-10.04745 0,0 -3.56681,-3.7175 -4.21989,-5.17436 -0.65308,-1.45687 -0.7035,-3.61702 -1.55753,-3.76773 z" />
    </g>
    <g
       inkscape:groupmode="layer"
       id="layer23"
       inkscape:label="O">
      <path
         style="opacity:1;fill:#111b09;fill-opacity:1;stroke-width:2.117;stroke-linejoin:round;stroke-miterlimit:3.1;paint-order:markers stroke fill"
         d="m 32.85487,162.9682 c 0.50237,-2.41137 0.703316,-3.818 1.406631,-5.92794 0.703316,-2.10995 0.904264,-2.51185 2.109947,-5.22463 1.205682,-2.71279 6.932678,-9.74594 10.750676,-12.65968 3.817996,-2.91373 18.587617,-7.73647 22.204667,-9.24357 3.617052,-1.5071 17.828365,-2.9717 19.249276,-3.36245 1.420913,-0.39075 4.422587,-0.76374 5.381702,-0.87031 0.959117,-0.10657 8.276811,-0.35523 10.017431,-0.53285 1.74061,-0.17761 5.25737,-0.0355 6.00335,-0.0355 0.74598,0 6.03887,0.21314 9.73324,0.21314 3.69437,0 13.85389,2.20241 14.3512,1.70509 0.49732,-0.49732 4.9732,-4.76005 8.95175,-6.3941 3.97855,-1.63405 8.62506,-1.67462 11.63927,-0.79548 3.0142,0.87914 3.91847,1.73317 4.49619,1.98435 0.57772,0.25119 0.52749,-0.12559 1.02986,0.47725 0.50236,0.60285 0.37677,0.9545 0.97961,0.9545 0.60284,0 3.2654,1.60758 3.46634,4.74738 0.20095,3.1398 -1.20568,6.65638 -1.35639,7.25922 -0.15071,0.60284 -0.37678,1.70805 -0.35166,2.36113 0.0251,0.65308 0.9545,0.87915 0.45213,1.2308 -0.50237,0.35166 -0.35165,1.05498 -0.8289,0.15071 -0.47725,-0.90426 -0.37678,-2.43648 -0.30143,-4.89809 0.0754,-2.4616 1.16506,-3.06359 -0.18481,-5.51466 -1.34987,-2.45108 -1.63405,-2.13137 -4.01408,-3.51676 -2.38002,-1.38539 -4.19168,-3.23257 -8.13471,-3.12601 -3.94303,0.10657 -7.92158,1.06569 -10.30161,2.23794 -2.38003,1.17225 -4.54692,3.90751 -5.18633,4.0496 -0.63941,0.14209 -1.13673,-0.14209 -1.13673,-0.14209 0,0 -34.013561,-3.60836 -57.222966,3.62574 -23.209403,7.2341 -26.725981,10.2483 -31.247294,14.36772 -4.521311,4.11942 -9.344046,16.67862 -10.248307,26.62551 -0.904264,9.94689 2.380773,13.78049 1.030909,13.99362 -1.349867,0.21314 -2.699733,-3.16152 -3.694371,-5.36394 -1.89714,-5.05159 0.01632,-13.46806 0.955409,-18.37564 z"
         id="path2"
         sodipodi:nodetypes="ssssssssssssssssssssscssssscssssss" />
      <path
         style="opacity:1;fill:#111b09;fill-opacity:1;stroke-width:2.117;stroke-linejoin:round;stroke-miterlimit:3.1;paint-order:markers stroke fill"
         d="m 163.90214,139.42694 c 4.21771,-0.0178 9.13062,8.04234 11.0831,13.39209 3.99367,10.94259 0.51633,16.88921 -1.20777,25.07908 -0.29494,1.40101 -1.16381,3.25581 -1.54058,4.00936 -0.37678,0.75356 -0.30142,0.15072 -0.77867,1.05498 -0.47725,0.90426 -2.1853,3.39098 -3.06445,4.49619 -0.87914,1.10521 -0.31165,0.20939 -0.9545,0.72844 -1.82811,1.47606 0.70934,-3.40282 1.15545,-4.64691 0.3276,-0.9136 3.48298,-6.65407 4.32037,-10.27343 1.4669,-6.34025 2.95655,-13.25304 1.10521,-19.49188 -1.65481,-5.57653 -8.5608,-14.15692 -10.3313,-14.06374 z"
         id="path3"
         sodipodi:nodetypes="csasssssaacc" />
      <path
         id="path4"
         style="opacity:1;fill:#111b09;fill-opacity:1;stroke-width:2.117;stroke-linejoin:round;stroke-miterlimit:3.1;paint-order:markers stroke fill"
         d="m 148.16357,124.55415 c -0.2531,-0.004 -0.45093,0.007 -0.56638,0.0243 -0.4618,0.071 -0.10633,-0.0356 -1.17202,0.39068 -1.06568,0.42628 -2.73564,2.13134 -3.80132,2.73523 -1.06569,0.60388 -0.60394,0.31957 -1.38544,0.92346 -0.7815,0.60389 0.85262,0.49732 -1.34979,0.95911 -2.20241,0.4618 -3.23233,-0.21317 -3.90726,-0.28422 -0.67494,-0.071 -1.34668,-0.1943 -1.34668,-0.1943 0,0 0.45206,1.45731 2.61224,1.90944 2.16019,0.45213 2.46164,-0.10073 3.26543,0.3514 0.80378,0.45213 -1.35639,0.60307 2.81327,1.30638 4.16964,0.70332 3.76777,0.25085 7.03316,1.55701 3.26539,1.30615 7.33444,4.11972 7.33444,2.91404 0,-1.20568 -0.5023,-1.75841 -0.5023,-2.76314 0,-1.00474 3.7678,-3.71769 1.15549,-6.02857 -2.61231,-2.31089 -5.74028,-2.39116 -7.12567,-3.10162 -1.03904,-0.53284 -2.29788,-0.68586 -3.05717,-0.69919 z m -0.0506,2.68201 c 1.12058,0.002 1.72215,0.50615 3.85351,1.07229 2.27346,0.60389 5.22164,0.46168 5.15059,2.02468 -0.071,1.563 -1.24294,3.01924 -1.27847,3.37447 -0.0355,0.35522 0.67465,0.78185 -0.21342,0.63976 -0.88807,-0.14209 -4.26264,-2.41547 -7.92148,-3.26802 -3.65884,-0.85255 -5.15059,-1.38545 -5.15059,-1.38545 0.67493,-0.39075 3.51689,-2.23837 3.87211,-2.30942 0.35523,-0.071 0.17742,-0.071 1.45624,-0.14211 0.0799,-0.004 0.15681,-0.006 0.23151,-0.006 z" />
      <path
         style="opacity:1;fill:#111b09;fill-opacity:1;stroke-width:2.117;stroke-linejoin:round;stroke-miterlimit:3.1;paint-order:markers stroke fill"
         d="m 101.2774,130.77897 c -0.15071,0.13815 -3.215156,4.48363 -3.478898,5.21206 -0.263744,0.72844 -0.213505,0.59029 -0.288861,0.99218 -0.07536,0.4019 -0.46469,0.77867 0.08791,0.37678 0.552606,-0.4019 0.288862,-0.38934 0.791231,-0.66564 0.502367,-0.2763 0.954498,-1.06753 2.047158,-3.12724 1.09265,-2.05971 1.75828,-2.87606 1.31871,-3.02677 -0.43957,-0.15071 -0.47725,0.23863 -0.47725,0.23863 z"
         id="path5" />
      <path
         style="opacity:1;fill:#111b09;fill-opacity:1;stroke-width:2.117;stroke-linejoin:round;stroke-miterlimit:3.1;paint-order:markers stroke fill"
         d="m 106.8703,129.58712 c -0.24866,0.19538 -2.25569,2.16689 -2.96615,3.78318 -0.71046,1.61629 -1.81166,3.62333 -0.79926,2.96615 1.0124,-0.65717 4.90214,-6.8559 4.44035,-6.92694 -0.4618,-0.071 -0.67494,0.17761 -0.67494,0.17761 z"
         id="path6" />
      <path
         style="opacity:1;fill:#111b09;fill-opacity:1;stroke-width:2.117;stroke-linejoin:round;stroke-miterlimit:3.1;paint-order:markers stroke fill"
         d="m 108.73525,131.64744 c 0,0 -0.63941,0.71046 4.44035,0.35523 5.07976,-0.35523 9.09383,-1.1012 12.14879,-1.24329 3.05496,-0.1421 4.93767,0.85254 4.54692,0.17761 -0.39076,-0.67493 -1.81167,-0.85255 -5.50604,-0.92359 -3.69436,-0.071 -8.98726,0.81702 -11.93565,1.34986 -2.94839,0.53284 -3.69437,0.28418 -3.69437,0.28418 z"
         id="path7" />
      <path
         style="opacity:1;fill:#111b09;fill-opacity:1;stroke-width:2.117;stroke-linejoin:round;stroke-miterlimit:3.1;paint-order:markers stroke fill"
         d="m 55.561907,144.38058 c -0.200946,0 -5.827469,2.05971 -10.449256,9.34405 -4.621787,7.28433 -4.571547,13.61417 -3.61705,11.75541 0.9545,-1.85876 2.662552,-8.33931 6.12889,-12.70991 3.466341,-4.37061 5.425575,-6.17913 6.78197,-6.93268 1.356394,-0.75355 1.758288,-1.15545 1.758288,-1.15545 z"
         id="path8" />
      <path
         style="opacity:1;fill:#111b09;fill-opacity:1;stroke-width:2.117;stroke-linejoin:round;stroke-miterlimit:3.1;paint-order:markers stroke fill"
         d="m 161.71749,142.26876 c 0,0 -1.1545,-0.30194 -4.03184,-1.81166 -2.87735,-1.50972 -3.19705,-2.4866 -3.28586,-1.82943 -0.0888,0.65718 2.06032,3.76542 4.81334,4.19169 2.75301,0.42627 3.69437,-0.42627 3.28586,-0.5506 -0.40852,-0.12433 -0.7815,0 -0.7815,0 z"
         id="path9" />
      <path
         style="opacity:1;fill:#111b09;fill-opacity:1;stroke-width:2.117;stroke-linejoin:round;stroke-miterlimit:3.1;paint-order:markers stroke fill"
         d="m 170.79356,166.31768 c 0.35522,-0.35522 0.36324,-7.61961 -0.49079,-11.5632 -0.85402,-3.94359 -3.44122,-7.43505 -3.79288,-7.2341 -0.35165,0.20095 2.5872,7.86206 2.8635,10.7758 0.2763,2.91373 0.85403,6.75685 0.92938,7.56063 0.0754,0.80379 0.49079,0.46087 0.49079,0.46087 z"
         id="path10" />
    </g>
  </g>
</svg>
