<?xml version="1.0" encoding="UTF-8" standalone="no"?>
<!-- Created with Inkscape (http://www.inkscape.org/) -->

<svg
   width="144.37367mm"
   height="54.639908mm"
   viewBox="0 0 144.37367 54.639906"
   version="1.1"
   id="svg1"
   inkscape:version="1.3 (0e150ed6c4, 2023-07-21)"
   sodipodi:docname="wok_front.svg"
   xmlns:inkscape="http://www.inkscape.org/namespaces/inkscape"
   xmlns:sodipodi="http://sodipodi.sourceforge.net/DTD/sodipodi-0.dtd"
   xmlns="http://www.w3.org/2000/svg"
   xmlns:svg="http://www.w3.org/2000/svg">
  <sodipodi:namedview
     id="namedview1"
     pagecolor="#ffffff"
     bordercolor="#000000"
     borderopacity="0.25"
     inkscape:showpageshadow="2"
     inkscape:pageopacity="0.0"
     inkscape:pagecheckerboard="0"
     inkscape:deskcolor="#d1d1d1"
     inkscape:document-units="mm"
     showgrid="false"
     inkscape:zoom="0.46551693"
     inkscape:cx="154.66677"
     inkscape:cy="-46.185217"
     inkscape:window-width="1920"
     inkscape:window-height="974"
     inkscape:window-x="-11"
     inkscape:window-y="-11"
     inkscape:window-maximized="1"
     inkscape:current-layer="svg1" />
  <defs
     id="defs1">
    <pattern
       id="EMFhbasepattern"
       patternUnits="userSpaceOnUse"
       width="6"
       height="6"
       x="0"
       y="0" />
    <pattern
       id="EMFhbasepattern-7"
       patternUnits="userSpaceOnUse"
       width="6"
       height="6"
       x="0"
       y="0" />
  </defs>
  <g
     inkscape:groupmode="layer"
     id="layer5"
     inkscape:label="Art"
     transform="translate(-19.299255,-83.868424)">
    <g
       inkscape:groupmode="layer"
       id="layer6"
       inkscape:label="F">
      <path
         style="opacity:1;fill:#5d6a92;fill-opacity:1;stroke-width:2.117;stroke-linejoin:round;stroke-miterlimit:3.1;paint-order:markers stroke fill"
         d="m 158.90172,94.360734 c 0,0 -13.57171,11.984656 -24.32594,16.763086 -25.94521,11.52826 -35.849557,10.20703 -54.25993,10.31726 -5.489193,0.0329 -16.716053,-3.98743 -16.213686,-2.88222 0.502367,1.10521 1.10521,2.71279 1.10521,2.71279 l -1.607577,-0.40189 c 0,0 -1.205685,-2.51184 -2.612315,-3.11469 -1.406631,-0.60284 -4.923206,-0.70331 -4.923206,-0.70331 l -4.320365,0.30142 c 0,0 -11.253047,-5.52605 -14.568675,-6.32984 -3.315629,-0.80379 -3.416102,-8.33931 -5.526048,-9.64547 -2.109946,-1.30615 -4.018944,-1.10521 -5.325102,-0.80379 -1.306157,0.30143 -2.51184,1.10521 -2.51184,1.10521 0,0 5.927944,13.76489 12.056835,20.09473 6.12889,6.32984 21.802772,11.45399 21.802772,11.45399 0,0 21.601826,4.82273 30.8454,4.21989 9.24357,-0.60284 30.142077,-4.01894 39.184707,-8.43978 9.04263,-4.42084 20.89851,-10.75068 25.82172,-19.99425 4.92321,-9.243573 7.93741,-12.358256 5.62652,-12.358256 -2.31089,0 -0.24848,-2.29488 -0.24848,-2.29488 z"
         id="path12"
         sodipodi:nodetypes="csasccsccssscscssssc" />
      <path
         style="opacity:1;fill:#9ea7c4;fill-opacity:1;stroke-width:2.117;stroke-linejoin:round;stroke-miterlimit:3.1;paint-order:markers stroke fill"
         d="m 54.207772,123.40616 c 0,0 7.246649,3.41019 10.514745,2.91287 3.268096,-0.49732 5.257371,-1.7051 2.770778,-2.34451 -2.486597,-0.63941 -8.951744,-3.33914 -8.951744,-3.33914 0,0 -2.983915,0.21314 -3.339142,0.99464 -0.355227,0.7815 -0.994637,1.77614 -0.994637,1.77614 z"
         id="path13" />
      <path
         style="opacity:1;fill:#9ea7c4;fill-opacity:1;stroke-width:2.117;stroke-linejoin:round;stroke-miterlimit:3.1;paint-order:markers stroke fill"
         d="m 94.445196,126.04415 c 0,0.67839 -18.135487,-1.35449 -20.948749,-1.85877 -2.90866,-0.52138 -3.767761,2.00948 -0.552605,2.61232 3.215155,0.60284 10.700441,2.56208 16.929805,2.0597 4.498886,-0.36281 12.709913,-1.45686 12.709913,-1.45686 0,0 -2.712791,1.5071 -1.20569,2.91374 1.50711,1.40663 1.80853,2.26065 2.81326,1.40663 1.00474,-0.85403 4.11942,-6.22937 4.11942,-6.22937 l -3.86823,-0.15071 z"
         id="path14"
         sodipodi:nodetypes="cssscssccc" />
      <path
         style="opacity:1;fill:#9ea7c4;fill-opacity:1;stroke-width:2.117;stroke-linejoin:round;stroke-miterlimit:3.1;paint-order:markers stroke fill"
         d="m 115.12935,124.89811 c -1.20778,0.35523 -0.53284,-1.27881 -3.30362,0.99464 -2.77078,2.27346 -3.26809,5.47051 -1.06568,4.97319 2.20241,-0.49731 4.12064,-4.40482 4.12064,-4.40482 0,0 1.6687,2.44652 3.67817,1.44179 2.00947,-1.00474 -0.33903,-4.5678 4.77625,-4.5678 5.11528,0 13.92494,-2.27345 19.60858,-7.67292 5.68365,-5.39946 8.52547,-12.07774 8.52547,-12.07774 0,0 -7.67292,7.81501 -8.24129,7.9571 -0.56836,0.14209 -8.09919,4.68901 -9.94638,5.54155 -1.84718,0.85255 -9.23592,3.97856 -10.23056,4.26274 -0.99464,0.28418 -7.21112,1.42091 -7.35321,1.77614 -0.14209,0.35523 -0.56837,1.77613 -0.56837,1.77613 z"
         id="path15"
         sodipodi:nodetypes="csscssscssssc" />
    </g>
    <g
       inkscape:groupmode="layer"
       id="layer7"
       inkscape:label="O">
      <path
         style="opacity:1;fill:#111b09;fill-opacity:1;stroke-width:2.117;stroke-linejoin:round;stroke-miterlimit:3.1;paint-order:markers stroke fill"
         d="m 22.355378,87.261333 c 0,0 -0.924756,16.208357 14.421087,31.270017 15.345844,15.06166 35.380698,17.05094 41.490618,17.61931 1.488861,0.1385 57.261387,1.90361 75.166207,-30.12333 7.10898,-12.716071 7.38874,-21.100533 8.0992,-21.597852 0.71045,-0.497321 2.27346,-0.994639 2.13136,0.07104 -0.14208,1.065684 -3.78253,21.750622 -13.5697,31.260062 -13.57396,13.18879 -31.40812,18.5815 -50.094266,21.58566 -15.411156,2.47765 -32.812092,1.03801 -47.30921,-4.74786 -9.873012,-3.94037 -17.057497,-10.90804 -23.94445,-19.00574 -9.06864,-10.66293 -9.446969,-28.452711 -9.446969,-28.452711 1.092682,-2.20469 3.995254,0.58833 3.056123,2.1214 z"
         id="path1"
         sodipodi:nodetypes="cssssssssscc" />
      <path
         style="opacity:1;fill:#111b09;fill-opacity:1;stroke-width:2.117;stroke-linejoin:round;stroke-miterlimit:3.1;paint-order:markers stroke fill"
         d="m 101.31099,129.16085 c 0,0 -2.202416,-0.60389 -4.866625,0.63941 -2.664209,1.2433 -1.705094,2.13137 -1.243298,2.13137 0.461796,0 0.674933,-0.4618 0.923591,-0.31971 0.248661,0.14209 0.07105,0.24866 1.207776,0.42628 1.136729,0.17761 4.014076,-0.85255 4.014076,-1.31435 0,-0.46179 -0.42627,-0.35522 -0.0355,-0.53284 0.39075,-0.17761 0.67493,-0.42627 0.39075,-0.56836 -0.28418,-0.1421 -0.39075,-0.4618 -0.39075,-0.4618 z"
         id="path8" />
      <path
         style="opacity:1;fill:#111b09;fill-opacity:1;stroke-width:2.117;stroke-linejoin:round;stroke-miterlimit:3.1;paint-order:markers stroke fill"
         d="m 114.59651,119.17895 c 0,0 -0.74598,-1.17226 -1.2433,-0.35523 -0.49732,0.81702 -1.49196,4.58244 -2.23793,4.3693 -0.74598,-0.21314 -0.4618,-0.88807 -1.06569,-0.74598 -0.60389,0.14209 -5.1508,4.61797 -4.47587,5.64813 0.67493,1.03016 0.99464,1.66957 1.52748,1.34986 0.53284,-0.3197 2.55764,-2.87734 2.77078,-2.8063 0.21313,0.071 -0.14209,0.17762 -0.4618,0.7815 -0.3197,0.60389 -2.06032,2.98392 -1.49196,3.83646 0.56837,0.85255 1.56301,0.63941 1.95376,-0.67493 0.39075,-1.31434 2.48659,-5.18632 2.98391,-6.67828 0.49732,-1.49196 1.63405,-3.69437 1.63405,-4.08512 0,-0.39075 0.10657,-0.63941 0.10657,-0.63941 z"
         id="path9" />
      <path
         style="opacity:1;fill:#111b09;fill-opacity:1;stroke-width:2.117;stroke-linejoin:round;stroke-miterlimit:3.1;paint-order:markers stroke fill"
         d="m 63.599797,121.27165 c 0,0 7.83694,3.4161 17.58288,5.02368 9.74594,1.60758 26.826453,-0.50237 26.826453,-0.50237 l 1.50711,-0.90426 c 0,0 -17.080516,0.40189 -25.017931,-0.10048 -7.937416,-0.50236 -20.094723,-4.32036 -20.697566,-4.32036 -0.602842,0 -0.200946,0.80379 -0.200946,0.80379 z"
         id="path10" />
      <path
         style="opacity:1;fill:#111b09;fill-opacity:1;stroke-width:2.117;stroke-linejoin:round;stroke-miterlimit:3.1;paint-order:markers stroke fill"
         d="m 116.15951,120.3512 c 0,0 0.0355,0.31971 -0.88807,2.0248 -0.92359,1.70509 -0.95911,7.06903 -0.60389,6.28753 0.35523,-0.7815 1.17225,-4.76005 1.17225,-4.76005 0,0 18.29247,-3.63657 30.85167,-14.18629 12.5592,-10.549736 14.4682,-17.582887 14.4682,-17.582887 l 1.30616,-6.832206 c 0,0 -4.53859,13.56357 -19.51207,24.341953 -14.71676,10.59358 -26.20342,12.43139 -26.20342,12.43139 0,0 1.15544,-2.46161 0.50237,-2.56208 -0.65308,-0.10047 -1.0932,0.83784 -1.0932,0.83784 z"
         id="path11"
         sodipodi:nodetypes="csscsccscsc" />
    </g>
    <g
       inkscape:groupmode="layer"
       id="layer8"
       inkscape:label="That thingy">
      <g
         inkscape:groupmode="layer"
         id="layer9"
         inkscape:label="That thingy F">
        <path
           style="opacity:1;fill:#5e6b92;fill-opacity:1;stroke-width:2.117;stroke-linejoin:round;stroke-miterlimit:3.1;paint-order:markers stroke fill"
           d="m 34.713632,107.85842 c 0,0 -0.05024,-2.51184 -1.10521,-4.32036 -1.054973,-1.80853 -4.772496,-0.75356 -4.772496,-0.75356 l 0.05024,1.70806 c 0,0 -3.014208,7.13362 -3.164918,10.14783 -0.150711,3.01421 0.602841,5.727 4.521312,8.23884 3.918471,2.51184 9.796177,5.07391 12.961096,5.07391 3.16492,0 10.198071,-5.3251 12.40849,-6.12889 2.210422,-0.80378 4.069183,-1.25592 4.069183,-1.25592 l 0.803788,1.55734 c 0,0 2.160183,2.21042 1.406631,-1.60757 -0.753552,-3.818 -3.968707,-5.47582 -5.777232,-5.57629 -1.808525,-0.10047 -11.504229,5.17439 -13.714648,4.62179 -2.210419,-0.55261 -5.174393,-0.65308 -6.731733,-4.67202 -1.55734,-4.01895 -0.9545,-7.03316 -0.9545,-7.03316 z"
           id="path4" />
        <path
           style="opacity:1;fill:#9ea7c4;fill-opacity:1;stroke-width:2.117;stroke-linejoin:round;stroke-miterlimit:3.1;paint-order:markers stroke fill"
           d="m 31.775427,112.59774 c 0,0 1.71718,-5.15066 1.155193,-5.52588 -0.561988,-0.37521 -1.529853,-1.70551 -2.279168,0.68221 -0.749316,2.38772 -0.686873,5.49176 -0.686873,5.49176 0,0 -0.249771,0.57987 -0.03122,1.50085 0.218552,0.92099 -0.593206,0.6481 1.311304,2.89938 1.90451,2.25128 4.277342,3.3087 4.745664,3.27458 0.468322,-0.0341 1.810845,-1.80784 -0.686873,-4.60488 -2.497719,-2.79705 -3.340698,-2.59238 -3.465585,-3.13815 -0.124884,-0.54576 -0.06244,-0.57987 -0.06244,-0.57987 z"
           id="path5" />
        <path
           style="opacity:1;fill:#9ea7c4;fill-opacity:1;stroke-width:2.117;stroke-linejoin:round;stroke-miterlimit:3.1;paint-order:markers stroke fill"
           d="m 40.954574,125.25481 c 0,0 1.10521,0.25119 0.803788,-0.87914 -0.301421,-1.13033 -4.345482,-3.4161 -5.350218,-2.05971 -1.004737,1.35639 3.792878,4.87297 3.968707,4.01894 0.175829,-0.85402 0.100473,-1.33127 0.326538,-1.18056 0.226066,0.15071 0.251185,0.10047 0.251185,0.10047 z"
           id="path6" />
        <path
           style="opacity:1;fill:#9ea7c4;fill-opacity:1;stroke-width:2.117;stroke-linejoin:round;stroke-miterlimit:3.1;paint-order:markers stroke fill"
           d="m 57.671852,116.34844 c -0.301421,-0.0502 -10.298543,3.61705 -11.654938,4.7725 -1.356394,1.15545 -1.155446,1.65782 -1.155446,1.65782 0,0 -1.054973,0.40189 -0.05024,0.90426 1.004737,0.50237 6.731733,-3.26539 7.887179,-3.86824 1.155449,-0.60284 4.772499,-2.86349 5.475814,-2.91373 0.703315,-0.0502 2.260656,-0.40189 1.205682,-0.70331 -1.054973,-0.30143 -1.708052,0.1507 -1.708051,0.1507 z"
           id="path7" />
      </g>
      <g
         inkscape:groupmode="layer"
         id="layer10"
         inkscape:label="That thingy O">
        <path
           style="opacity:1;fill:#111b09;fill-opacity:1;stroke-width:2.117;stroke-linejoin:round;stroke-miterlimit:3.1;paint-order:markers stroke fill"
           d="m 28.182847,102.83474 c 0,0 1.10521,0.50237 -0.301421,2.21042 -1.406628,1.70805 -4.722258,7.88718 -3.416102,11.55447 1.306158,3.66728 5.526048,8.38954 8.992389,10.04736 3.466341,1.65781 7.736467,3.81799 13.664411,2.00947 5.927942,-1.80853 10.047362,-7.38481 11.80565,-7.08339 1.758289,0.30142 0.854025,1.60758 1.607577,1.35639 0.753552,-0.25118 0.956316,-2.7214 -1.40663,-3.21515 -3.365867,-0.70332 -9.092862,6.63126 -15.472937,7.18386 -6.380073,0.55261 -15.573409,-5.67676 -16.52791,-9.49475 -0.954498,-3.818 -0.552603,-6.32984 0.653079,-8.84168 1.205683,-2.51184 2.836417,-5.26912 1.989666,-6.0577 -1.35239,-1.25948 -1.316867,-0.12737 -1.316867,-0.12737 z"
           id="path2"
           sodipodi:nodetypes="cssssssssssscc" />
        <path
           style="opacity:1;fill:#111b09;fill-opacity:1;stroke-width:2.117;stroke-linejoin:round;stroke-miterlimit:3.1;paint-order:markers stroke fill"
           d="m 33.888738,107.59852 c 0,0 0.650554,0.68255 0.188756,2.28103 -0.461796,1.59853 -0.885874,3.09737 -0.165427,5.72779 0.497285,1.81564 1.757354,2.71456 3.216816,3.58484 3.873663,2.30987 9.152137,1.75889 11.338475,0.23186 2.039512,-1.42448 4.222706,-2.35106 5.042145,-2.80021 0.375789,-0.20597 1.163555,-0.20596 1.777617,-0.2928 0.01572,-0.46436 0.05391,-1.97468 -1.431009,-1.62186 -1.365652,0.32448 -9.712883,6.19736 -15.633595,2.30289 -4.236103,-2.78638 -1.635054,-7.88076 -2.983914,-9.6622 -0.848819,-1.12104 -1.349864,0.24866 -1.349864,0.24866 z"
           id="path3"
           sodipodi:nodetypes="cssssscsssc" />
      </g>
    </g>
  </g>
</svg>
