<?xml version="1.0" encoding="UTF-8" standalone="no"?>
<!-- Created with Inkscape (http://www.inkscape.org/) -->

<svg
   width="78.146591mm"
   height="44.678268mm"
   viewBox="0 0 78.146591 44.678268"
   version="1.1"
   id="svg1"
   sodipodi:docname="eggs.svg"
   inkscape:version="1.3 (0e150ed6c4, 2023-07-21)"
   xmlns:inkscape="http://www.inkscape.org/namespaces/inkscape"
   xmlns:sodipodi="http://sodipodi.sourceforge.net/DTD/sodipodi-0.dtd"
   xmlns="http://www.w3.org/2000/svg"
   xmlns:svg="http://www.w3.org/2000/svg">
  <sodipodi:namedview
     id="namedview1"
     pagecolor="#ffffff"
     bordercolor="#000000"
     borderopacity="0.25"
     inkscape:showpageshadow="2"
     inkscape:pageopacity="0.0"
     inkscape:pagecheckerboard="0"
     inkscape:deskcolor="#d1d1d1"
     inkscape:document-units="mm"
     inkscape:zoom="0.93103385"
     inkscape:cx="21.481496"
     inkscape:cy="-81.092648"
     inkscape:window-width="1920"
     inkscape:window-height="974"
     inkscape:window-x="-11"
     inkscape:window-y="-11"
     inkscape:window-maximized="1"
     inkscape:current-layer="g2" />
  <defs
     id="defs1">
    <pattern
       id="EMFhbasepattern"
       patternUnits="userSpaceOnUse"
       width="6"
       height="6"
       x="0"
       y="0" />
  </defs>
  <g
     inkscape:groupmode="layer"
     id="layer2"
     inkscape:label="Layer 2"
     transform="translate(-93.132568,-68.688513)">
    <path
       style="opacity:1;fill:#fcffed;fill-opacity:1;stroke-width:2.117;stroke-linejoin:round;stroke-miterlimit:3.1;paint-order:markers stroke fill"
       d="m 160.84718,89.908172 c 0,0 -3.12601,-1.669571 -2.4866,-1.918231 0.63941,-0.248658 1.27882,-0.745977 1.45643,-0.923592 0.17762,-0.177615 2.23794,-1.705094 1.84719,-2.451073 -0.39075,-0.745977 -1.66957,-2.486594 -3.44571,-2.841821 -1.77614,-0.35523 -6.8559,-0.497322 -7.24665,-0.888071 -0.39075,-0.39075 -0.53284,-0.994638 -0.67493,-1.065684 -0.14209,-0.07105 0.35523,-0.852546 -1.95375,-1.42091 -2.30899,-0.568365 -3.62333,-0.923595 -3.87199,-0.923595 -0.24866,0 -6.96246,-3.19705 -6.96246,-3.19705 l -0.0355,-0.994637 c 0,0 -2.09584,-1.847186 -3.30362,-1.563003 -1.20777,0.284181 -3.126,-0.781502 -4.01407,-0.319704 -0.88807,0.461796 -2.06032,0.994638 -2.06032,0.994638 0,0 -8.48995,-0.106569 -8.70309,-0.319707 -0.21313,-0.213135 -1.03016,-1.456433 -2.27345,-1.776137 -1.2433,-0.319707 -5.2929,-0.745979 -6.25202,-0.03552 -0.95911,0.710454 -1.52747,-0.390753 -2.13136,0.7815 -0.60389,1.172252 0.10657,3.410188 -0.071,3.410188 -0.17761,0 -1.38539,-0.568365 -2.66421,-0.07105 -1.27882,0.497319 -2.98391,1.918232 -3.44571,3.268096 -0.46179,1.349867 0.56837,4.902145 0.56837,4.902145 0,0 -1.34987,0.284183 -1.74062,0.284183 -0.39075,0 -4.227211,-0.674933 -6.003348,1.13673 -1.77614,1.81166 -1.953755,3.765415 -1.953755,3.765415 0,0 8.596513,3.445708 8.596513,3.5878 0,0.142092 3.97855,2.628686 3.97855,2.628686 0,0 -1.98927,3.090484 -1.1012,5.044236 0.88807,1.953756 -0.81703,0.568364 3.09048,3.161526 3.90751,2.59317 16.87332,1.49196 16.87332,1.49196 0,0 12.00671,6.71381 13.92493,7.28217 1.91824,0.56837 10.15952,-3.76541 10.15952,-3.76541 0,0 4.68901,0 9.94638,-1.2433 5.25737,-1.2433 11.15416,-5.36394 11.04759,-10.017428 -0.10657,-4.653486 -9.09383,-6.003351 -9.09383,-6.003351 z"
       id="path17" />
    <path
       style="display:inline;fill:#d0d3c0;fill-opacity:1;stroke-width:2.117;stroke-linejoin:round;stroke-miterlimit:3.1;paint-order:markers stroke fill"
       d="m 117.39809,72.373086 c 0,0 -4.93766,-0.461796 -6.82037,0.74598 -1.88271,1.207775 -2.8063,2.8063 -2.09585,4.866621 0.71046,2.060321 1.81167,1.953755 1.88271,2.16689 0.071,0.213138 -0.92359,-0.106569 0,1.598525 0.9236,1.705094 0.95912,1.527479 3.51676,1.811663 2.55764,0.284181 3.72989,0.248658 4.01407,0.142092 0.28418,-0.106569 7.53083,-3.481234 6.99799,-5.648124 -0.53284,-2.16689 -7.49531,-5.683647 -7.49531,-5.683647 z"
       id="path22" />
    <path
       style="fill:#d0d3c0;fill-opacity:1;stroke-width:2.117;stroke-linejoin:round;stroke-miterlimit:3.1;paint-order:markers stroke fill"
       d="m 115.4104,89.752513 0.25119,-3.265392 c 0,0 -2.66256,-0.200946 -4.16966,0.854027 -1.5071,1.054973 -0.90426,0.60284 -2.81326,1.356392 -1.909,0.753552 -2.31089,0.703315 -3.31563,2.109946 -1.00474,1.406631 -0.10047,2.310895 -0.10047,2.310895 l 0.85402,0.602839 c 0,0 9.44452,-3.315628 9.44452,-3.516574 0,-0.200948 -0.15071,-0.452133 -0.15071,-0.452133 z"
       id="path23" />
    <path
       style="opacity:1;fill:#d0d3c0;fill-opacity:1;stroke-width:2.117;stroke-linejoin:round;stroke-miterlimit:3.1;paint-order:markers stroke fill"
       d="m 168.48457,99.605892 c -0.49731,-0.03552 -1.91822,-0.63941 -4.19168,0.284181 -2.27346,0.923597 -7.77949,2.770777 -8.66756,2.699737 -0.88807,-0.071 0.67493,-1.13673 -1.7051,-1.34987 -2.38002,-0.21314 -3.94303,1.95375 -5.11528,2.69973 -1.17225,0.74598 -2.48659,0.92359 -1.66957,2.27346 0.81703,1.34987 1.63405,0.99464 2.73525,0.99464 1.10121,0 3.01944,1.20777 9.05832,-0.88807 6.03887,-2.09584 9.55562,-6.713808 9.55562,-6.713808 z"
       id="path18" />
    <path
       style="opacity:1;fill:#d0d3c0;fill-opacity:1;stroke-width:2.117;stroke-linejoin:round;stroke-miterlimit:3.1;paint-order:markers stroke fill"
       d="m 138.25169,111.12382 c 0,0 2.38625,-0.47725 2.93885,-1.40663 0.55261,-0.92939 0.60284,-1.48199 0.60284,-1.48199 0,0 1.78341,0.72843 2.73791,-0.12559 0.9545,-0.85403 1.18057,-1.60758 0.15071,-1.40663 -1.02985,0.20094 -3.54169,0.17582 -3.96871,-0.0251 -0.42701,-0.20095 -1.10521,-2.51184 -3.36586,-3.49146 -2.26066,-0.97962 -4.67203,-0.80379 -5.07392,-0.30142 -0.40189,0.50236 -0.0502,0.52748 -0.80379,0.72843 -0.75355,0.20095 -3.80083,0.89462 -3.05485,1.8715 0.74598,0.97688 9.83682,5.6389 9.83682,5.6389 z"
       id="path19" />
    <path
       style="opacity:1;fill:#d0d3c0;fill-opacity:1;stroke-width:2.117;stroke-linejoin:round;stroke-miterlimit:3.1;paint-order:markers stroke fill"
       d="m 127.13605,87.883372 c 0,0 -1.31434,-0.106566 -3.30362,0.745979 -1.98927,0.852549 -2.41555,2.522117 -2.30898,2.983916 0.10657,0.461795 0.81702,0.710453 0.35523,0.817022 -0.4618,0.106569 -2.66421,0.319707 -4.01407,0.852549 -1.34987,0.532841 -1.2433,0.852545 -2.80631,0.781499 -1.563,-0.07105 -4.22721,-0.142091 -3.26809,1.634049 0.95911,1.776139 0.74598,1.101206 1.27882,1.918231 0.53284,0.817023 -0.39075,1.101207 2.3445,1.314342 2.73526,0.213138 7.35322,-1.740617 7.35322,-1.740617 L 127.77546,95.876 c 0,0 -1.17225,-0.674933 -1.06568,-2.593162 0.10657,-1.918232 0.42627,-5.399466 0.42627,-5.399466 z"
       id="path20" />
    <path
       style="opacity:1;fill:#d0d3c0;fill-opacity:1;stroke-width:2.117;stroke-linejoin:round;stroke-miterlimit:3.1;paint-order:markers stroke fill"
       d="m 147.57998,89.599128 0.0882,1.019498 1.10121,-0.03552 c 0,0 -0.85255,-0.532841 0.10657,-0.781499 0.95911,-0.248661 2.69973,-1.207776 2.94839,-1.811663 0.24866,-0.603888 0.81702,-0.248658 0.74598,-1.669571 -0.071,-1.420911 -1.63405,-1.385388 -1.74062,-1.669571 -0.10657,-0.284181 -0.99464,-1.349865 -2.20241,-1.456434 -1.20778,-0.106569 -2.09585,0.142092 -3.09049,-0.177615 -0.99463,-0.319704 -2.84182,-0.67493 -5.1508,-0.67493 -2.30898,0 -3.87198,0.603884 -4.86662,1.243295 -0.99464,0.639411 -1.88271,1.207775 -0.0711,1.811663 1.81167,0.603888 9.52011,0.07105 10.76341,1.634048 1.2433,1.563002 1.42091,2.237936 1.42091,2.237936 z"
       id="path21"
       sodipodi:nodetypes="cccsscssssssscc" />
    <path
       style="opacity:1;fill:#d0d3c0;fill-opacity:1;stroke-width:2.117;stroke-linejoin:round;stroke-miterlimit:3.1;paint-order:markers stroke fill"
       d="m 102.12801,89.4819 c 0,0 1.74062,-1.403152 1.38539,-1.634048 -0.35523,-0.2309 -2.62869,-1.563005 -2.68197,-2.699735 -0.0533,-1.136726 0.69269,-1.776137 -0.10657,-1.42091 -0.799264,0.355227 -1.154491,1.26106 -1.918232,0.959114 -0.763738,-0.301942 -0.817022,-0.870307 -1.29658,-0.603887 -0.479557,0.266422 -2.912869,3.303619 -2.912869,3.303619 0,0 6.713811,4.298257 7.246651,3.765415 0.53284,-0.532842 0.21314,-1.740614 0.21314,-1.740614 z"
       id="path24" />
    <path
       style="opacity:1;fill:#ffe657;fill-opacity:1;stroke-width:2.117;stroke-linejoin:round;stroke-miterlimit:3.1;paint-order:markers stroke fill"
       d="m 113.24664,78.327744 7.10456,3.658846 c 0,0 9.41354,-1.030161 10.51474,-1.101206 1.10121,-0.07105 1.81167,-4.085119 1.81167,-4.085119 0,0 -3.55228,-3.232574 -7.70845,-4.049599 -4.15616,-0.817023 -7.53083,-0.532842 -8.70308,0.461796 -1.17225,0.994637 -3.09048,3.445711 -3.09048,3.445711 z"
       id="path25" />
    <path
       style="opacity:1;fill:#ffe657;fill-opacity:1;stroke-width:2.117;stroke-linejoin:round;stroke-miterlimit:3.1;paint-order:markers stroke fill"
       d="m 135.626,85.432301 c 0,0 1.59852,0.7815 4.12064,0.7815 2.52212,0 6.89142,1.349867 6.89142,1.349867 0,0 0.7815,3.694369 0.49732,4.298257 -0.28418,0.603887 -3.51675,5.292894 -3.51675,5.292894 0,0 -5.57708,0.142092 -8.02816,0.390752 -2.45107,0.248658 -3.83646,-0.07105 -5.18632,-0.568364 -1.34987,-0.497319 -4.12065,-2.095844 -3.65885,-4.902145 0.4618,-2.8063 0.071,-4.58244 1.66957,-5.967827 1.59853,-1.385391 3.51676,-2.095847 4.01408,-1.953755 0.49732,0.142092 3.19705,1.278821 3.19705,1.278821 z"
       id="path26" />
    <path
       style="opacity:1;fill:#cec268;fill-opacity:1;stroke-width:2.117;stroke-linejoin:round;stroke-miterlimit:3.1;paint-order:markers stroke fill"
       d="m 132.3579,97.65214 c -0.10657,-0.213137 -1.2433,-1.918232 -0.99464,-2.522119 0.24866,-0.603888 -0.17761,-0.177612 0.0355,-0.7815 0.21313,-0.603888 0.56836,-0.142092 1.95375,-0.888071 1.38539,-0.745977 1.91823,-2.983913 1.49196,-3.232574 -0.42628,-0.248658 0.10656,-0.817022 -0.39076,-1.03016 -0.49731,-0.213138 -0.71045,0 -0.71045,-0.426273 0,-0.426273 0.21314,-0.319706 -0.0355,-0.674933 -0.24866,-0.355227 -0.39075,-2.344505 0.53284,-2.451071 0.92359,-0.106569 2.16689,0 2.30898,0.177612 0.14209,0.177615 1.2433,0.284184 1.2433,0.284184 0,0 -0.0355,1.101206 -0.42628,1.81166 -0.39075,0.710456 -1.13673,2.380027 -0.71045,3.054961 0.42627,0.674933 2.8063,2.237936 3.19705,2.202413 0.39075,-0.03552 -0.42627,-0.639411 0.28418,-1.207776 0.71046,-0.568364 2.98392,-0.177614 2.98392,-0.63941 0,-0.461796 0.14209,-0.337466 0,-0.461796 -0.1421,-0.12433 -1.34987,-0.337465 -1.03017,-1.598525 0.31971,-1.26106 1.98928,-1.065684 2.39779,-0.586126 0.40851,0.479557 0.72822,1.598525 0.14209,2.007036 -0.58612,0.408514 -0.76374,0.142092 -0.7815,0.497319 -0.0178,0.35523 1.04792,-0.337465 0.97688,0.586126 -0.0711,0.923594 -1.03016,2.699732 -1.72285,2.557643 -0.6927,-0.142092 -0.17762,0.51508 0.33746,0.532841 0.51508,0.01775 0.90583,-1.456436 1.59853,-1.758378 0.69269,-0.301945 0.8703,0.12433 0.81702,0.195376 -0.0533,0.07104 -2.46883,3.925266 -2.46883,3.925266 0,0 -5.34618,-0.106566 -7.12232,0.03552 -1.77614,0.142092 -3.90751,0.390752 -3.90751,0.390752 z"
       id="path27" />
    <path
       style="opacity:1;fill:#cec268;fill-opacity:1;stroke-width:2.117;stroke-linejoin:round;stroke-miterlimit:3.1;paint-order:markers stroke fill"
       d="m 114.31233,79.073723 c 0.14209,-0.106569 1.17225,-1.669571 2.59316,-1.278821 1.42091,0.39075 1.74062,1.136729 2.69973,0.817023 0.95912,-0.319704 4.01408,-0.745977 6.53619,-0.852546 2.52212,-0.106569 2.91287,0.74598 2.91287,0 0,-0.745979 -0.28418,-2.593163 0.99464,-2.55764 1.27882,0.03552 3.23257,1.847184 2.87735,2.202413 -0.35523,0.355227 -0.63942,3.658846 -2.06033,3.836461 -1.42091,0.177612 -6.50067,0.177612 -6.50067,0.177612 l -4.51139,0.817026 c 0,0 0.0355,-0.923595 -0.24866,-0.959118 -0.28418,-0.03552 -5.29289,-2.20241 -5.29289,-2.20241 z"
       id="path28" />
    <path
       style="opacity:1;fill:#cec268;fill-opacity:1;stroke-width:2.117;stroke-linejoin:round;stroke-miterlimit:3.1;paint-order:markers stroke fill"
       d="m 117.50938,75.09517 c 0,0 -0.31971,1.491957 1.15449,2.04256 1.47419,0.550603 2.32674,0.337465 2.71749,-0.355227 0.39075,-0.692695 0.76374,-2.16689 -0.76374,-2.042562 -1.52748,0.12433 -1.0124,0.444037 -1.49196,0.266422 -0.47955,-0.177615 -0.85254,-0.426273 -1.15449,-0.301942 -0.30194,0.124327 -0.46179,0.390749 -0.46179,0.390749 z"
       id="path29" />
  </g>
  <g
     inkscape:groupmode="layer"
     id="g2"
     inkscape:label="Layer 2"
     style="display:inline"
     transform="translate(-93.132568,-68.688513)">
    <path
       style="opacity:1;fill:#111b09;fill-opacity:1;stroke-width:2.117;stroke-linejoin:round;stroke-miterlimit:3.1;paint-order:markers stroke fill"
       d="m 106.03552,93.620303 c 0,0 0.14209,-0.781502 -0.58613,-1.136729 -0.72822,-0.355227 -3.05496,-0.568365 -3.21481,-1.918229 -0.15985,-1.349868 0.51508,-1.61629 0.19537,-1.687333 -0.3197,-0.07105 -1.75837,0.301943 -0.97687,2.433309 0.7815,2.131367 0.67493,1.989278 2.2557,2.415551 1.58076,0.426273 2.32674,-0.106569 2.32674,-0.106569 z"
       id="path2"
       sodipodi:nodetypes="csscssc" />
    <path
       style="opacity:1;fill:#111b09;fill-opacity:1;stroke-width:2.117;stroke-linejoin:round;stroke-miterlimit:3.1;paint-order:markers stroke fill"
       d="m 102.35749,83.21727 c 0,0 0.4019,-0.577725 -0.20095,-0.904264 -0.60284,-0.326538 -8.414661,-0.577723 -8.866791,2.66255 -0.452131,3.240275 0.02511,3.566814 2.03459,4.872971 2.009473,1.306158 3.767762,1.657816 5.174391,1.833645 1.40663,0.175829 1.40663,-0.703315 1.40663,-0.703315 0,0 -2.536958,-2.260659 -3.667287,-2.310895 -1.130326,-0.05024 -5.802349,-1.708052 -3.11468,-3.717523 2.687669,-2.009473 4.923207,-1.908998 5.526047,-1.883881 0.60284,0.02511 1.70805,0.150712 1.70805,0.150712 z"
       id="path3" />
    <path
       style="opacity:1;fill:#111b09;fill-opacity:1;stroke-width:2.117;stroke-linejoin:round;stroke-miterlimit:3.1;paint-order:markers stroke fill"
       d="m 110.67168,74.476064 c 0,0 -5.72699,-1.632696 -7.63599,0.401894 -1.909,2.034593 -2.5872,2.511841 -2.05971,3.918471 0.52749,1.406631 1.43175,1.657816 1.68293,2.863498 0.25119,1.205685 0,1.708052 0.87915,1.381514 0.87914,-0.32654 1.65781,-2.034593 0.90426,-3.064446 -0.75355,-1.029854 -1.95923,-0.979617 -1.35639,-2.386248 0.60284,-1.406631 2.58719,-2.938854 4.44595,-2.637433 1.85876,0.301421 1.38151,0.854028 2.38625,0.427014 1.00474,-0.427014 0.75355,-0.904264 0.75355,-0.904264 z"
       id="path4" />
    <path
       style="opacity:1;fill:#111b09;fill-opacity:1;stroke-width:2.117;stroke-linejoin:round;stroke-miterlimit:3.1;paint-order:markers stroke fill"
       d="m 108.38002,74.384714 c 0,0 -1.52748,-3.19705 0.81702,-4.440349 2.34451,-1.243298 5.11529,-1.847183 7.70845,-0.461795 2.59316,1.38539 3.16153,1.705094 2.59316,1.847185 -0.56836,0.14209 -2.23793,0.497319 -2.23793,0.497319 l 0.60389,-0.63941 c 0,0 -4.26274,-1.598526 -6.78486,-0.568365 -2.52211,1.03016 -1.98927,3.800938 -2.16689,3.871984 -0.17761,0.07105 -0.53284,-0.106569 -0.53284,-0.106569 z"
       id="path5" />
    <path
       style="opacity:1;fill:#111b09;fill-opacity:1;stroke-width:2.117;stroke-linejoin:round;stroke-miterlimit:3.1;paint-order:markers stroke fill"
       d="m 112.78485,77.688333 c 0,0 -1.17226,-1.740617 -0.90583,-2.184651 0.26642,-0.444034 0.90583,0.444034 1.3321,-0.07105 0.42627,-0.51508 2.06032,-4.387064 7.77949,-4.422587 5.71917,-0.03552 9.91086,1.77614 10.72788,2.664208 0.81703,0.888072 1.49196,3.658849 1.49196,3.658849 0,0 -0.0355,0.106569 -0.4618,0.106569 -0.42627,0 -3.33914,-2.628688 -5.86126,-3.232576 -2.52212,-0.603885 -5.86126,-1.918229 -8.98726,-0.710454 -3.12601,1.207776 -3.51676,1.349865 -3.76542,2.593163 -0.24866,1.243298 0.28418,2.8063 -0.3197,2.628686 -0.60389,-0.177615 -1.03016,-1.030161 -1.03016,-1.030161 z"
       id="path6" />
    <path
       style="opacity:1;fill:#111b09;fill-opacity:1;stroke-width:2.117;stroke-linejoin:round;stroke-miterlimit:3.1;paint-order:markers stroke fill"
       d="m 127.66889,72.253347 c 0,0 1.59853,-1.527479 3.23258,-1.598525 1.63405,-0.07105 1.2433,0.532842 2.62868,0.7815 1.38539,0.24866 2.13137,-0.213135 3.51676,0.817025 1.38539,1.030161 1.27882,2.273459 1.27882,2.273459 l -1.10121,-0.248661 c 0,0 0.71046,-0.7815 -0.56836,-1.136729 -1.27882,-0.355227 -4.76006,-0.03552 -5.47051,-0.426273 -0.71046,-0.39075 -0.28418,-0.888069 -1.03016,-0.461796 -0.74598,0.426273 -1.66957,0.74598 -1.66957,0.74598 z"
       id="path7" />
    <path
       style="opacity:1;fill:#111b09;fill-opacity:1;stroke-width:2.117;stroke-linejoin:round;stroke-miterlimit:3.1;paint-order:markers stroke fill"
       d="m 111.17405,78.545247 c 0,0 0,1.58246 1.25592,1.607577 1.25592,0.02511 3.08956,0.150709 4.67202,0.753552 1.58246,0.602842 2.3109,1.205685 2.3109,1.205685 0,0 1.08009,-0.100476 0.85402,-0.351658 -0.22606,-0.251185 0.55261,-0.452133 -1.83364,-1.833645 -2.38625,-1.381511 -5.70188,-2.235538 -6.30472,-2.059709 -0.60284,0.175828 -0.9545,0.678198 -0.9545,0.678198 z"
       id="path8" />
    <path
       style="opacity:1;fill:#111b09;fill-opacity:1;stroke-width:2.117;stroke-linejoin:round;stroke-miterlimit:3.1;paint-order:markers stroke fill"
       d="m 116.49915,90.978857 c 0,0 -2.76302,-2.05971 -0.45213,-5.726997 2.3109,-3.667286 6.22937,-4.169656 7.78671,-4.320365 1.55734,-0.150712 1.95923,-0.251185 1.95923,-0.251185 0.13701,0 -0.51485,-0.251185 0.9545,-0.351657 3.00886,-0.205741 4.11942,0.401894 4.21989,-0.100473 0.10048,-0.50237 1.40663,-4.270129 2.8635,-5.073917 1.45687,-0.803791 1.15545,-0.50237 1.80853,-0.803791 0.65307,-0.301419 0.90426,-0.904262 2.31089,-0.803789 1.40663,0.100473 6.2796,2.461604 6.73173,3.16492 0.45213,0.703315 1.10521,1.40663 -0.15071,1.306158 -1.25592,-0.100476 -0.75355,-0.200949 -3.01421,-0.904264 -2.26065,-0.703316 -2.05971,-0.05024 -3.56681,-0.502367 -1.5071,-0.452133 -2.10995,-1.10521 -2.10995,-1.10521 0,0 -1.05497,0.100473 -2.05971,1.70805 -1.00473,1.607579 -0.65307,2.260658 -0.80379,3.516577 -0.1507,1.255921 0.35166,1.004736 -0.60284,1.054973 -0.9545,0.05024 -3.21515,0.100473 -4.52131,0.401894 -1.30616,0.301421 -2.03096,0.438587 -2.475,0.207687 -0.44403,-0.230896 -1.30363,-0.03352 -1.30363,-0.03352 0,0 -3.37118,0.44351 -5.50255,2.752492 -2.13136,2.308981 -2.41198,2.982435 -2.05675,3.906026 0.35523,0.923594 -0.0156,1.958756 -0.0156,1.958756 z"
       id="path9"
       sodipodi:nodetypes="csscssssssssscssssscsscc" />
    <path
       style="opacity:1;fill:#111b09;fill-opacity:1;stroke-width:2.117;stroke-linejoin:round;stroke-miterlimit:3.1;paint-order:markers stroke fill"
       d="m 142.94883,77.942405 c 0.10048,1.054973 5.09904,0.602842 6.25448,1.381511 1.15545,0.778671 0.56517,0.740995 0.56517,0.740995 0,0 -0.29304,0.531852 0.14212,0.491886 0.43515,-0.03996 0.39963,-0.164293 0.39519,-0.146531 -0.004,0.01775 0.004,0.492879 -0.16429,0.64385 -0.16874,0.150974 -0.45736,0.532842 0.15541,0.568365 0.61277,0.03552 1.43867,-1.42979 0.79926,-2.246815 -0.63445,-2.585985 -7.62422,-2.552847 -8.14734,-1.433261 z"
       id="path10"
       sodipodi:nodetypes="sscsccsss" />
    <path
       style="opacity:1;fill:#111b09;fill-opacity:1;stroke-width:2.117;stroke-linejoin:round;stroke-miterlimit:3.1;paint-order:markers stroke fill"
       d="m 115.94637,89.51742 c -0.63941,0.142092 -13.00134,2.344505 -12.64611,7.317695 0.35523,4.973195 3.41019,6.323055 7.95711,7.601875 4.54691,1.27882 7.81501,1.13673 11.58043,0.14209 3.76541,-0.99463 3.65884,-2.30898 2.77077,-2.23793 -0.88807,0.071 -0.92359,-0.4618 -1.98927,-0.10657 -1.06569,0.35523 -4.58244,1.27882 -6.64277,1.27882 -2.06032,0 -4.19168,-0.4618 -5.00871,-0.88807 -0.81702,-0.42627 -1.66957,-0.35523 -4.19169,-1.38539 -2.52211,-1.03016 -1.59852,-1.740617 -2.0248,-2.699731 -0.42627,-0.959115 -0.74597,-2.735255 1.59853,-4.440349 2.3445,-1.705094 9.05831,-3.445711 9.05831,-3.445711 z"
       id="path11" />
    <path
       style="opacity:1;fill:#111b09;fill-opacity:1;stroke-width:2.117;stroke-linejoin:round;stroke-miterlimit:3.1;paint-order:markers stroke fill"
       d="m 122.97988,103.15817 c 0.49732,0.35523 6.46515,3.76542 10.01743,6.25201 3.55228,2.4866 4.40483,4.61796 9.16488,3.76542 4.76005,-0.85255 8.66756,-7.38874 7.03351,-7.10456 -1.63405,0.28418 -2.27346,1.13673 -4.26273,2.13137 -1.98928,0.99463 -2.69973,1.98927 -5.47051,1.84718 -2.77078,-0.14209 -6.46515,-3.126 -8.8807,-4.0496 -2.41555,-0.92359 -5.96783,-2.84182 -5.96783,-2.84182 z"
       id="path12" />
    <path
       style="opacity:1;fill:#111b09;fill-opacity:1;stroke-width:2.117;stroke-linejoin:round;stroke-miterlimit:3.1;paint-order:markers stroke fill"
       d="m 148.05897,107.563 c 0.49732,0 3.97855,0.85254 10.86998,-0.7815 6.89142,-1.63405 13.82133,-6.918557 12.07774,-13.072391 -1.20778,-4.262733 -10.72788,-5.754691 -11.79356,-4.831097 -1.06569,0.923592 -0.49732,2.273456 2.13136,2.770777 2.62869,0.497319 9.42738,0.697563 7.17561,5.683645 -1.98928,4.404826 -9.01941,8.835386 -16.1984,9.200406 -4.19168,0.21313 -4.76005,1.03016 -4.76005,1.03016 z"
       id="path13"
       sodipodi:nodetypes="ssssssscs" />
    <path
       style="opacity:1;fill:#111b09;fill-opacity:1;stroke-width:2.117;stroke-linejoin:round;stroke-miterlimit:3.1;paint-order:markers stroke fill"
       d="m 159.07485,88.065122 c 0,0 4.84785,-2.662552 2.41136,-4.973444 -2.43648,-2.310895 -5.24974,-2.511841 -6.70661,-2.662553 -1.45687,-0.150709 -4.24501,0.02511 -2.88862,1.255922 1.3564,1.230802 4.94833,0.653079 6.75685,1.205682 1.80853,0.552606 2.46161,0.828908 2.33602,2.034591 -0.1256,1.205685 -2.26066,2.51184 -2.21043,2.763025 0.0502,0.251185 0.30143,0.376777 0.30143,0.376777 z"
       id="path14" />
    <path
       style="opacity:1;fill:#111b09;fill-opacity:1;stroke-width:2.117;stroke-linejoin:round;stroke-miterlimit:3.1;paint-order:markers stroke fill"
       d="m 143.42608,96.906798 c 0,0 -2.51184,-0.502367 -6.38007,-0.200945 -3.86824,0.301418 -8.1886,0.552603 -8.08813,2.00947 0.10047,1.456867 2.96397,0.854025 6.12889,-0.200945 3.16492,-1.054973 6.58102,-1.054973 7.78671,-0.954501 1.20568,0.100473 2.21042,0.351658 1.75829,0.05024 -0.45214,-0.301421 -0.45214,-0.301421 -0.45214,-0.301421 0,0 2.10995,-4.872969 4.72226,-5.67676 2.61232,-0.803788 3.59743,-1.190919 2.53175,-1.546148 -1.06569,-0.355227 -3.05496,0.390752 -3.16153,0 -0.10657,-0.39075 -0.10657,-1.420911 -0.10657,-1.420911 0,0 0,-0.106569 0.85255,-0.461796 0.85254,-0.355229 1.563,-1.243298 1.563,-1.243298 0,0 0.28418,-1.101206 -1.03016,-0.994637 -1.31434,0.106569 -1.95375,1.42091 -1.95375,1.42091 0,0 -3.2681,-3.410185 -5.50604,-3.410185 -2.23793,0 -5.61259,0.142089 -6.21648,1.314341 -0.60389,1.172252 -0.53284,2.131367 -0.53284,2.131367 0,0 3.30362,-0.994638 6.53619,-0.39075 3.23257,0.603888 4.08512,0.959115 4.33378,2.16689 0.24866,1.207775 0.35409,1.529956 0.35409,1.529956 0,0 -0.30142,0.200948 -0.50237,0.577723 -0.20094,0.376777 0.50237,0.9545 0.50237,0.9545 0,0 -2.58719,2.562077 -2.76302,3.089563 -0.17583,0.527487 -0.37678,1.55734 -0.37678,1.55734 z"
       id="path15" />
    <path
       style="opacity:1;fill:#111b09;fill-opacity:1;stroke-width:2.117;stroke-linejoin:round;stroke-miterlimit:3.1;paint-order:markers stroke fill"
       d="m 132.3991,97.509641 c 0,0 -1.95923,-1.029856 -2.08482,-1.331275 -0.1256,-0.301421 0.0502,-0.828908 -0.72844,-0.854027 -0.77867,-0.02511 -0.85402,0.502369 -1.05497,0.02511 -0.20095,-0.47725 -0.17583,-0.803789 -0.45213,-1.331275 -0.27631,-0.527487 -1.00474,-2.135066 -0.92938,-2.863498 0.0754,-0.728435 1.80852,-4.822735 4.04406,-5.852589 2.23554,-1.029853 4.32036,1.281039 4.32036,1.281039 l 0.65308,-1.180566 c 0,0 -2.81326,-2.66255 -4.47107,-2.210419 -1.65782,0.452131 -2.63744,0.904264 -4.06918,2.53696 -1.43175,1.632696 -0.75356,3.315629 -1.05498,3.993824 -0.30142,0.678199 -0.62796,2.009474 -0.65308,3.064447 -0.0251,1.054973 1.48199,2.66255 1.20569,2.788142 -0.27631,0.125592 -0.72844,0.251185 -1.73317,0.276302 -1.00474,0.02511 -1.45687,0.326541 -1.65782,0.200948 -0.20094,-0.125592 -0.35165,-0.703315 -0.5526,-0.427014 -0.20095,0.276302 -1.2308,1.155446 -1.20568,1.507104 0.0251,0.351658 -0.0251,0.653079 0.25118,0.62796 0.2763,-0.02511 2.66255,-1.331275 4.94833,-1.054971 2.28577,0.276302 3.2905,1.180563 3.51657,1.180563 0.22607,0 1.70805,-0.376775 1.70805,-0.376775 z"
       id="path16" />
  </g>
</svg>
