<?xml version="1.0" encoding="UTF-8" standalone="no"?>
<!-- Created with Inkscape (http://www.inkscape.org/) -->

<svg
   width="934.86371"
   height="934.15002"
   viewBox="0 0 247.34934 247.16054"
   version="1.1"
   id="svg1"
   xml:space="preserve"
   inkscape:version="1.3 (0e150ed6c4, 2023-07-21)"
   sodipodi:docname="frame_thick-f.svg"
   xmlns:inkscape="http://www.inkscape.org/namespaces/inkscape"
   xmlns:sodipodi="http://sodipodi.sourceforge.net/DTD/sodipodi-0.dtd"
   xmlns="http://www.w3.org/2000/svg"
   xmlns:svg="http://www.w3.org/2000/svg"><sodipodi:namedview
     id="namedview1"
     pagecolor="#cab1f8"
     bordercolor="#000000"
     borderopacity="0.25"
     inkscape:showpageshadow="2"
     inkscape:pageopacity="0.0"
     inkscape:pagecheckerboard="0"
     inkscape:deskcolor="#d1d1d1"
     inkscape:document-units="px"
     inkscape:zoom="0.32917017"
     inkscape:cx="475.43798"
     inkscape:cy="909.86373"
     inkscape:window-width="1920"
     inkscape:window-height="974"
     inkscape:window-x="-11"
     inkscape:window-y="-11"
     inkscape:window-maximized="1"
     inkscape:current-layer="svg1" /><defs
     id="defs1" /><path
     style="opacity:1;fill:#ffffff;fill-opacity:1;stroke-width:2.11701;stroke-linejoin:round;stroke-miterlimit:3.1;paint-order:markers stroke fill"
     d="M 8.7819319,1.792257 C 5.5092123,1.3742909 3.1441928,3.314654 2.7222623,5.3361873 1.021986,12.849946 0.59389149,25.141463 0.61748128,35.085557 1.1046257,66.76288 4.3462206,98.442296 6.0501124,130.06838 c 0.8209384,28.93698 -1.2644982,57.93966 -0.9343714,86.92047 0.1367299,10.09223 -0.2289733,20.20855 0.499714,30.28551 1.44026,2.34939 5.705796,1.12282 8.51089,1.12022 11.173953,-1.30996 22.619497,-0.65607 33.859996,-1.71015 13.217295,-0.36956 26.622496,-0.62946 39.707504,-1.18819 26.477475,-0.27174 53.114095,0.42368 79.615655,0.94127 13.29218,0.25783 26.48735,1.2264 39.80786,1.40846 6.13777,1.02737 12.62273,0.81047 18.91582,1.04956 5.06237,-0.17666 11.07002,0.56187 15.243,-1.85392 3.93356,-2.31564 4.42618,-5.98987 4.26998,-9.29448 -0.15363,-4.69595 0.28763,-9.35672 0.48961,-14.05558 -0.14263,-4.90568 1.0227,-9.91635 0.87471,-14.91002 0.18186,-11.01904 0.62495,-21.99983 1.05546,-32.99957 -0.009,-29.01103 -1.2395,-58.03799 -2.58327,-87.009751 -0.75501,-22.66554 -2.60399,-45.177747 -2.62141,-67.997382 -0.46283,-5.537452 0.13491,-11.1754216 -1.00835,-16.6867833 -1.18911,-2.7281175 -7.06878,-1.570168 -10.28382,-1.6603643 -23.05953,-0.048032 -45.17333,0.4410827 -68.19619,0.181559 -17.06282,-0.1607305 -34.22132,0.172 -51.16265,0.6407581 C 91.217801,3.4928935 70.233426,3.9611461 49.447838,3.4132605 35.920914,2.810932 22.356949,1.9740255 8.7819319,1.792257 Z M 245.52199,228.40506 c -0.10286,0.13982 0.0871,-0.14382 0,0 z m -38.92363,19.19409 c -0.10503,-0.0186 -0.44387,-0.27037 0,0 z"
     id="path2"
     sodipodi:nodetypes="ccccccccccccccccccccccccccccc"
     inkscape:export-filename="frame_thick-f.svg"
     inkscape:export-xdpi="96"
     inkscape:export-ydpi="96"
     inkscape:label="f"
     transform="translate(-0.6165714,-1.7350041)" /></svg>
