<?xml version="1.0" encoding="UTF-8" standalone="no"?>
<!-- Created with Inkscape (http://www.inkscape.org/) -->

<svg
   width="940"
   height="948"
   viewBox="0 0 248.70832 250.82501"
   version="1.1"
   id="svg1"
   xml:space="preserve"
   inkscape:version="1.3 (0e150ed6c4, 2023-07-21)"
   sodipodi:docname="frame_thick-o.svg"
   xmlns:inkscape="http://www.inkscape.org/namespaces/inkscape"
   xmlns:sodipodi="http://sodipodi.sourceforge.net/DTD/sodipodi-0.dtd"
   xmlns="http://www.w3.org/2000/svg"
   xmlns:svg="http://www.w3.org/2000/svg"><sodipodi:namedview
     id="namedview1"
     pagecolor="#cab1f8"
     bordercolor="#000000"
     borderopacity="0.25"
     inkscape:showpageshadow="2"
     inkscape:pageopacity="0.0"
     inkscape:pagecheckerboard="0"
     inkscape:deskcolor="#d1d1d1"
     inkscape:document-units="px"
     inkscape:zoom="0.32917017"
     inkscape:cx="475.43798"
     inkscape:cy="909.86373"
     inkscape:window-width="1920"
     inkscape:window-height="974"
     inkscape:window-x="-11"
     inkscape:window-y="-11"
     inkscape:window-maximized="1"
     inkscape:current-layer="svg1" /><defs
     id="defs1" /><path
     id="path1"
     style="opacity:1;fill:#111b09;fill-opacity:1;stroke-width:2.11701;stroke-linejoin:round;stroke-miterlimit:3.1;paint-order:markers stroke fill"
     d="M 6.8543048,0.02808961 C 2.313221,0.19839742 2.3966042,1.8478848 1.0448399,4.4743185 -0.75028907,7.9621953 0.54076732,42.338964 0.40918134,44.45024 0.15061957,48.598827 1.6878619,86.954054 2.967707,103.67463 c 0.6098003,7.96675 2.9322974,28.97025 2.270209,35.49881 -0.6620894,6.52856 -1.3233707,68.51307 -2.4268536,74.36627 -1.103481,5.85319 0.1157702,36.39771 1.6278817,37.20142 0.7063285,0.37544 8.4132599,-0.43136 11.5030059,-0.73154 3.089748,-0.30016 67.643728,-3.37726 104.49999,-3.30225 36.85629,0.075 102.84512,3.75156 111.56262,3.37636 8.71749,-0.37521 12.35925,-1.72473 13.79379,-4.05101 1.43452,-2.32627 2.209,-41.55858 2.83323,-48.98726 0.62422,-7.42866 -0.78158,-62.0835 -0.93762,-70.25504 -0.15613,-8.17155 -3.82302,-80.175702 -3.82302,-80.175702 0,0 -0.39055,-19.778023 0.16114,-30.283759 C 244.58383,5.8251941 243.14886,3.3496906 240.61086,1.9239122 238.07286,0.49813394 227.92168,2.3744886 219.09383,1.7741605 210.26603,1.1738331 170.76198,1.6231959 155.4236,1.473114 140.08521,1.3230321 100.57932,2.6736067 66.812795,2.5985657 33.046274,2.5235248 15.943396,0.34832327 9.1018119,0.04815939 8.2466138,0.0106389 7.5030313,0.00375992 6.8543048,0.02808961 Z M 229.03967,3.1805892 c 5.77948,-0.093801 10.7442,0.1680615 10.79938,1.6688801 0.1104,3.0016385 1.21496,30.9927207 1.546,35.0449287 0.33105,4.052214 1.76493,37.821406 1.32355,41.723538 -0.4414,3.902134 2.20663,40.446634 2.20663,43.673394 0,3.22676 1.10342,51.10341 0.55165,56.2062 -0.55172,5.10279 -1.10307,58.0803 -2.75828,60.93186 -1.65523,2.85156 -3.64183,4.2779 -7.06263,4.65311 -3.42079,0.3752 -32.11158,0.0754 -45.24299,-1.27521 -13.13143,-1.35073 -99.313722,-2.47607 -107.038093,-1.87575 -7.724368,0.60033 -45.903624,1.72599 -45.903624,1.72599 -1.875918,0 -23.946252,0.97505 -26.484258,1.27521 -2.5380071,0.30016 -3.5306612,0.52512 -3.3099654,-0.9757 0.2206974,-1.50082 -0.1112384,-37.37016 -0.1112384,-44.27394 0,-6.90377 1.4347718,-57.03189 1.4347718,-63.11021 0,-6.07831 -3.7516838,-56.430502 -4.1930762,-61.833455 C 4.3561052,71.336483 2.0419756,32.646798 2.5212329,19.950808 2.6962764,15.313736 4.2444636,2.9745993 7.4445591,3.2747631 10.644655,3.574927 72.000032,4.7002704 95.283486,5.1505159 118.56694,5.6007617 136.22139,3.4250125 154.0978,4.2504633 c 17.87639,0.8254504 52.6361,-0.7506321 59.25699,-0.6005497 3.31045,0.075043 9.9054,-0.3755228 15.68488,-0.4693244 z"
     sodipodi:nodetypes="ssssssssssssscssssssssssssssssscsssssssssss"
     inkscape:export-filename="frame_thick-o.svg"
     inkscape:export-xdpi="96"
     inkscape:export-ydpi="96"
     inkscape:label="o"
     transform="translate(-0.08213437,-0.01383062)" /></svg>
