<?xml version="1.0" encoding="UTF-8" standalone="no"?>
<!-- Created with Inkscape (http://www.inkscape.org/) -->

<svg
   width="1920"
   height="1080"
   viewBox="0 0 507.99997 285.75001"
   version="1.1"
   id="svg1"
   xml:space="preserve"
   inkscape:version="1.3 (0e150ed6c4, 2023-07-21)"
   sodipodi:docname="frame_thick-f.svg"
   xmlns:inkscape="http://www.inkscape.org/namespaces/inkscape"
   xmlns:sodipodi="http://sodipodi.sourceforge.net/DTD/sodipodi-0.dtd"
   xmlns="http://www.w3.org/2000/svg"
   xmlns:svg="http://www.w3.org/2000/svg"><sodipodi:namedview
     id="namedview1"
     pagecolor="#cab1f8"
     bordercolor="#000000"
     borderopacity="0.25"
     inkscape:showpageshadow="2"
     inkscape:pageopacity="0.0"
     inkscape:pagecheckerboard="0"
     inkscape:deskcolor="#d1d1d1"
     inkscape:document-units="px"
     inkscape:zoom="0.16458509"
     inkscape:cx="-21.265596"
     inkscape:cy="367.59102"
     inkscape:window-width="1920"
     inkscape:window-height="974"
     inkscape:window-x="-11"
     inkscape:window-y="-11"
     inkscape:window-maximized="1"
     inkscape:current-layer="svg1" /><defs
     id="defs1" /><path
     id="path1"
     style="fill:#ffffff;fill-opacity:1;stroke-width:2.11701;stroke-linejoin:round;stroke-miterlimit:3.1;paint-order:markers stroke fill"
     inkscape:label="o"
     d="m 68.305529,37.768424 c -7.171615,0.142749 -7.039635,1.524952 -9.174444,3.726383 -2.834998,2.923476 -0.796398,31.737693 -1.004209,33.507328 -0.408341,3.477272 2.019542,35.626205 4.040766,49.641095 0.963039,6.67758 4.630898,24.282 3.585282,29.75413 -1.045625,5.47213 -2.09012,57.42668 -3.832828,62.33275 -1.742691,4.90604 0.183132,30.50797 2.571172,31.18164 1.115482,0.31468 13.286558,-0.36149 18.166116,-0.61309 4.879557,-0.25159 105.224136,-1.22675 163.430276,-1.16387 58.20617,0.0628 164.02513,1.54024 177.79245,1.22576 13.76731,-0.31449 19.51846,-1.44566 21.78399,-3.39551 2.2655,-1.94982 3.48854,-34.83376 4.47438,-41.06034 0.98581,-6.22657 -1.2343,-52.03727 -1.48073,-58.88651 -0.73145,-20.31789 -7.15855,-65.755556 -5.78308,-92.585262 0.45305,-8.837125 -1.39489,-10.880613 -5.40309,-12.075675 -4.0082,-1.195063 -20.03978,0.377761 -33.98138,-0.125424 -13.9415,-0.503184 -76.32901,-0.1267 -100.55251,-0.252496 -24.22351,-0.125796 -86.45402,-0.116572 -139.78061,-0.17947 -53.32659,-0.0629 -80.497431,-0.763345 -91.302163,-1.014936 -1.350598,-0.03145 -2.524873,-0.0369 -3.549388,-0.0165 z"
     sodipodi:nodetypes="ccsssssssssscssssssc" /></svg>
