<?xml version="1.0" encoding="UTF-8" standalone="no"?>
<!-- Created with Inkscape (http://www.inkscape.org/) -->

<svg
   width="1920"
   height="1080"
   viewBox="0 0 507.99997 285.75001"
   version="1.1"
   id="svg1"
   xml:space="preserve"
   inkscape:version="1.3 (0e150ed6c4, 2023-07-21)"
   sodipodi:docname="frame_thick-o.svg"
   xmlns:inkscape="http://www.inkscape.org/namespaces/inkscape"
   xmlns:sodipodi="http://sodipodi.sourceforge.net/DTD/sodipodi-0.dtd"
   xmlns="http://www.w3.org/2000/svg"
   xmlns:svg="http://www.w3.org/2000/svg"><sodipodi:namedview
     id="namedview1"
     pagecolor="#cab1f8"
     bordercolor="#000000"
     borderopacity="0.25"
     inkscape:showpageshadow="2"
     inkscape:pageopacity="0.0"
     inkscape:pagecheckerboard="0"
     inkscape:deskcolor="#d1d1d1"
     inkscape:document-units="px"
     inkscape:zoom="0.23275846"
     inkscape:cx="1110.5934"
     inkscape:cy="-36.518544"
     inkscape:window-width="1920"
     inkscape:window-height="974"
     inkscape:window-x="-11"
     inkscape:window-y="-11"
     inkscape:window-maximized="1"
     inkscape:current-layer="svg1" /><defs
     id="defs1" /><path
     id="path1"
     style="opacity:1;fill:#111b09;fill-opacity:1;stroke-width:2.11701;stroke-linejoin:round;stroke-miterlimit:3.1;paint-order:markers stroke fill"
     d="m 67.929443,37.555369 c -7.186151,0.143039 -7.0542,1.528412 -9.193332,3.734305 -2.840747,2.929402 -0.797683,31.801806 -1.005914,33.575027 -0.409167,3.484321 2.02348,35.698169 4.048802,49.741459 0.964994,6.69113 4.640288,24.33157 3.59255,29.81479 -1.047741,5.48322 -2.094202,57.54284 -3.840435,62.45884 -1.746231,4.91598 0.183203,30.56975 2.576081,31.24477 1.117748,0.31532 13.313774,-0.36229 18.203219,-0.61441 4.889448,-0.2521 105.436916,-1.22892 163.761036,-1.16592 58.32415,0.063 164.35738,1.54329 178.15261,1.22816 13.79521,-0.31512 19.5582,-1.44856 21.82832,-3.40236 2.2701,-1.95379 3.49569,-34.90427 4.48352,-41.14348 0.98781,-6.23919 -1.23683,-52.14277 -1.48376,-59.0059 -0.73292,-20.35908 -7.17309,-65.888745 -5.79484,-92.772831 0.45397,-8.855037 -1.39767,-10.902699 -5.41399,-12.100184 -4.01632,-1.197484 -20.0803,0.378431 -34.05016,-0.125773 C 389.82339,38.517657 327.30922,38.895069 303.03662,38.769018 278.764,38.642967 216.40769,38.651985 162.973,38.58896 109.53833,38.525934 82.312702,37.824327 71.486066,37.572226 c -1.353329,-0.03151 -2.530029,-0.03729 -3.556623,-0.01686 z m 351.281237,3.451514 c 9.14589,-0.07878 19.41379,0.462669 19.50111,1.723178 0.17471,2.52102 -0.16721,24.904901 0.35666,28.308274 0.52388,3.403378 3.29513,31.354855 3.45856,34.701795 1.12026,22.94275 3.26459,34.3114 3.26459,37.02149 0,2.7101 1.82594,27.72447 1.34382,50.74321 -0.86458,41.27881 -3.35316,45.24389 -5.97248,47.63885 -2.61936,2.39498 -7.58188,2.11519 -12.99521,2.43032 -5.41331,0.31512 -48.997,1.54111 -69.77712,0.40672 -20.78016,-1.13445 -157.16148,-2.07961 -169.3851,-1.57541 -12.22362,0.50421 -72.64133,1.44963 -72.64133,1.44963 -2.96859,0 -34.825167,-0.43147 -38.841498,-0.17938 -4.016333,0.25211 -7.228139,0.25087 -8.534452,0.31726 -2.037883,0.10356 -4.057068,-2.71335 -4.51176,-20.6747 -0.146739,-5.79649 2.137314,-37.44211 4.638118,-72.2158 0.626692,-8.71415 -8.40567,-25.88561 -9.328185,-96.814233 -0.05078,-3.904098 0.943863,-14.599018 6.007934,-14.346916 5.064072,0.252102 105.226573,1.538276 142.072063,1.916429 36.84548,0.378153 64.7832,-1.449219 93.07217,-0.755939 28.28894,0.693282 83.2953,-0.630441 93.7727,-0.504389 5.2387,0.06302 15.35353,0.488394 24.49941,0.409611 z"
     sodipodi:nodetypes="sssssssssssssssssssssssssssssscssssssssss"
     inkscape:export-filename="frame_thick-o.svg"
     inkscape:export-xdpi="96"
     inkscape:export-ydpi="96"
     inkscape:label="o" /></svg>
