<?xml version="1.0" encoding="UTF-8" standalone="no"?>
<!-- Created with Inkscape (http://www.inkscape.org/) -->

<svg
   width="123.0106mm"
   height="76.708405mm"
   viewBox="0 0 123.0106 76.708403"
   version="1.1"
   id="svg1"
   inkscape:version="1.3 (0e150ed6c4, 2023-07-21)"
   sodipodi:docname="egg.svg"
   xmlns:inkscape="http://www.inkscape.org/namespaces/inkscape"
   xmlns:sodipodi="http://sodipodi.sourceforge.net/DTD/sodipodi-0.dtd"
   xmlns="http://www.w3.org/2000/svg"
   xmlns:svg="http://www.w3.org/2000/svg">
  <sodipodi:namedview
     id="namedview1"
     pagecolor="#ffffff"
     bordercolor="#000000"
     borderopacity="0.25"
     inkscape:showpageshadow="2"
     inkscape:pageopacity="0.0"
     inkscape:pagecheckerboard="0"
     inkscape:deskcolor="#d1d1d1"
     inkscape:document-units="mm"
     inkscape:zoom="0.65834034"
     inkscape:cx="358.4772"
     inkscape:cy="66.075246"
     inkscape:window-width="1920"
     inkscape:window-height="974"
     inkscape:window-x="-11"
     inkscape:window-y="-11"
     inkscape:window-maximized="1"
     inkscape:current-layer="layer3"
     showgrid="false" />
  <defs
     id="defs1">
    <pattern
       id="EMFhbasepattern"
       patternUnits="userSpaceOnUse"
       width="6"
       height="6"
       x="0"
       y="0" />
  </defs>
  <g
     inkscape:groupmode="layer"
     id="layer2"
     inkscape:label="Layer 2"
     transform="translate(-9.2770657,-144.18764)">
    <g
       inkscape:groupmode="layer"
       id="layer3"
       inkscape:label="Layer 3">
      <path
         style="fill:#fced7d;fill-opacity:1;stroke-width:2.117;stroke-linejoin:round;stroke-miterlimit:3.1;paint-order:markers stroke fill"
         d="m 95.186344,146.19522 c 0,0 11.367296,5.11528 12.930296,7.9571 1.563,2.84182 7.9571,4.33378 10.51474,6.74933 2.55765,2.41555 2.98392,5.18633 4.26274,5.47051 1.27882,0.28418 6.96246,2.20241 7.38874,9.09383 0.42627,6.89142 -4.33378,20.39008 -7.3177,21.88204 -2.98391,1.49196 -7.60187,6.46515 -7.31769,6.53619 0.28418,0.0711 -0.21314,3.62333 -3.05496,4.68901 -2.84182,1.06568 -4.8311,0.35523 -9.6622,2.41555 -4.831096,2.06032 -16.908844,9.44906 -20.674259,8.52547 -3.765415,-0.92359 -10.941018,-4.90215 -12.930296,-4.90215 -1.989275,0 -21.882036,0.9236 -25.931632,0 -4.049599,-0.92359 -21.313673,-9.23592 -22.095174,-11.72252 -0.781501,-2.48659 -0.07105,-2.91286 -1.776139,-3.69437 -1.705094,-0.78149 -9.022788,-5.18632 -8.099196,-12.50402 0.923593,-7.31769 3.481234,-13.14343 8.383378,-14.77747 4.902145,-1.63405 8.809651,-4.76006 12.148793,-8.31234 3.339141,-3.55227 11.935657,-13.00134 21.882037,-13.64075 9.946381,-0.63941 16.143444,0.31339 19.609784,-0.33969 3.466341,-0.65308 5.425575,-3.21516 10.901386,-4.11942 5.475814,-0.90426 10.837352,0.6937 10.837352,0.6937 z"
         id="path1" />
      <path
         style="fill:#f8d257;fill-opacity:1;stroke-width:2.117;stroke-linejoin:round;stroke-miterlimit:3.1;paint-order:markers stroke fill"
         d="m 27.05364,169.64026 c 0,0 6.891421,1.63404 13.853887,-2.69973 6.962467,-4.33378 3.339142,-7.67293 1.136729,-8.31234 -2.202413,-0.63941 -6.678284,-0.071 -6.678284,-0.071 z"
         id="path11" />
      <path
         style="fill:#f8d257;fill-opacity:1;stroke-width:2.117;stroke-linejoin:round;stroke-miterlimit:3.1;paint-order:markers stroke fill"
         d="m 27.69305,177.95259 c 0,0 -3.126005,-0.7815 -8.17024,4.19169 -5.044236,4.97319 -0.07105,8.17024 -0.07105,8.17024 l 9.94638,1.91823 c 0,0 2.557641,1.06568 1.207775,-1.49196 -1.349866,-2.55764 -0.355228,-7.9571 0.07105,-9.30697 0.426273,-1.34986 -2.983915,-3.48123 -2.983915,-3.48123 z"
         id="path12" />
      <path
         style="fill:#f8d257;fill-opacity:1;stroke-width:2.117;stroke-linejoin:round;stroke-miterlimit:3.1;paint-order:markers stroke fill"
         d="m 125.23862,194.79039 c 0,0 1.13673,-6.96247 -5.25737,-7.45978 -6.3941,-0.49732 -9.02279,2.06032 -9.02279,2.06032 0,0 -13.214473,0.49731 -12.432974,-0.71046 0.781503,-1.20777 2.415554,-0.71045 0.852549,-2.06032 -1.563005,-1.34987 -7.175603,-2.55764 -7.175603,-2.55764 0,0 -2.770778,-4.68901 -4.404826,-5.04424 -1.634048,-0.35522 -11.154156,-0.63941 -11.154156,-0.63941 0,0 -35.196689,8.61826 -36.301899,9.92442 -1.10521,1.30615 -1.10521,1.30615 -1.10521,1.30615 0,0 -3.315628,-0.20094 -4.219892,-0.20094 -0.904261,0 -4.822733,2.41136 -4.822733,2.41136 0,0 -9.143099,2.10995 -9.946887,4.01895 -0.803789,1.909 -1.607578,2.00947 -0.803789,2.91373 0.803789,0.90427 1.708051,1.60758 1.708051,1.60758 0,0 2.918635,6.86326 8.886464,9.4209 5.967827,2.55764 21.100536,5.89678 21.100536,5.89678 l 4.61796,-0.99464 c 0,0 0.639411,-1.49196 2.202413,-4.54692 1.563002,-3.05496 0.497319,-6.82037 0.497319,-6.82037 0,0 10.727883,-4.68901 15.274798,-4.76006 4.546917,-0.071 20.603218,4.19169 20.603218,4.19169 0,0 0.852545,0.28419 3.765415,-1.42091 2.912866,-1.70509 -0.497319,0.99464 -0.497319,0.99464 0,0 10.798925,-3.19705 13.569705,-3.33914 2.77078,-0.14209 5.18633,2.77078 5.18633,2.77078 0,0 4.33378,-0.42628 5.68364,-2.69974 1.34987,-2.27345 3.19705,-4.26273 3.19705,-4.26273 z"
         id="path13" />
      <path
         style="fill:#f8d257;fill-opacity:1;stroke-width:2.117;stroke-linejoin:round;stroke-miterlimit:3.1;paint-order:markers stroke fill"
         d="m 104.42227,158.27297 c 0,0 -4.617962,0.85254 -9.022788,-0.1421 -4.404826,-0.99463 -11.722521,-0.35522 -11.651475,3.05496 0.07105,3.41019 1.13673,4.12065 1.13673,4.12065 0,0 -0.213138,0.85254 0.994637,1.20777 1.207776,0.35523 5.115282,1.563 5.612601,1.84719 0.497319,0.28418 5.75469,0.56836 10.159515,0.28418 4.40483,-0.28418 10.51475,-2.69973 8.0992,-7.3177 -2.41555,-4.61796 -5.32842,-3.05495 -5.32842,-3.05495 z"
         id="path14" />
      <path
         style="fill:#f8d257;fill-opacity:1;stroke-width:2.117;stroke-linejoin:round;stroke-miterlimit:3.1;paint-order:markers stroke fill"
         d="m 58.92917,170.51945 c 0,0 1.054973,-3.11468 -8.289073,-0.45213 -9.344046,2.66255 -10.198073,4.52131 -6.480548,6.88244 3.717523,2.36113 13.262518,0.25118 13.262518,0.25118 0,0 -0.351658,1.30616 5.224626,1.65782 5.576287,0.35166 15.171515,-3.21516 13.764884,-5.3251 -1.406631,-2.10995 -8.339309,-3.41611 -9.946886,-2.81327 -1.607579,0.60285 -7.535521,-0.20094 -7.535521,-0.20094 z"
         id="path15" />
      <path
         style="fill:#e7a441;fill-opacity:1;stroke-width:2.117;stroke-linejoin:round;stroke-miterlimit:3.1;paint-order:markers stroke fill"
         d="m 71.954444,156.63892 c 0,0 0.639407,0.63941 2.84182,0.63941 2.202413,0 3.694372,-5.75469 3.694372,-5.75469 0,0 2.113605,0.071 2.824062,-2.09585 0.710454,-2.16689 0.763738,-2.45107 0.763738,-2.45107 0,0 -4.712358,1.08687 -6.370174,1.73995 -1.657813,0.65308 -5.475811,2.56208 -5.475811,2.56208 z"
         id="path16" />
      <path
         style="fill:#ce772b;fill-opacity:1;stroke-width:2.117;stroke-linejoin:round;stroke-miterlimit:3.1;paint-order:markers stroke fill"
         d="m 62.469859,149.96063 c 0.177615,0.071 1.243298,-0.42627 1.918229,1.34987 0.674933,1.77614 -0.426273,2.8063 0.213138,3.2681 0.63941,0.46179 4.262733,5.00871 7.069034,5.00871 2.8063,0 5.186328,-1.70509 4.298257,-2.20242 -0.888069,-0.49731 -4.191688,-1.59852 -3.765415,-2.77077 0.426272,-1.17225 1.598525,-0.74598 0.63941,-3.09048 -0.959114,-2.34451 -3.836461,-1.17226 -3.836461,-1.17226 z"
         id="path17" />
      <path
         style="fill:#fffccb;fill-opacity:1;stroke-width:2.117;stroke-linejoin:round;stroke-miterlimit:3.1;paint-order:markers stroke fill"
         d="m 54.690368,150.67109 c 0,0 0.745979,3.33914 3.374665,3.33914 2.628686,0 4.298257,-1.81166 4.014076,-2.73525 -0.284184,-0.9236 -0.177615,-1.03017 -0.461799,-1.03017 -0.284181,0 -6.926942,0.42628 -6.926942,0.42628 z"
         id="path18" />
      <path
         style="fill:#fffccb;fill-opacity:1;stroke-width:2.117;stroke-linejoin:round;stroke-miterlimit:3.1;paint-order:markers stroke fill"
         d="m 63.74868,158.98342 c 0,0 1.882706,-1.52748 2.060321,-3.16153 0.177615,-1.63405 -5.292897,-1.13673 -5.399463,-0.071 -0.106569,1.06568 1.669571,3.16153 2.273458,3.26809 0.603885,0.10657 1.065684,-0.0355 1.065684,-0.0355 z"
         id="path19" />
      <path
         style="fill:#fffccb;fill-opacity:1;stroke-width:2.117;stroke-linejoin:round;stroke-miterlimit:3.1;paint-order:markers stroke fill"
         d="m 40.090504,177.18885 c -0.781506,-0.30195 -3.960792,-0.49732 -3.889746,0.69269 0.07105,1.19002 0.497319,2.75302 1.989275,3.07272 1.491957,0.31971 1.935994,-0.42627 2.52212,-1.563 0.586126,-1.13673 0.748335,-1.6731 -0.621649,-2.20241 z"
         id="path20"
         sodipodi:nodetypes="sssss" />
      <path
         style="fill:#fffccb;fill-opacity:1;stroke-width:2.117;stroke-linejoin:round;stroke-miterlimit:3.1;paint-order:markers stroke fill"
         d="m 38.558146,182.57628 c 0,0 -1.255922,-0.0502 -2.56208,1.18057 -1.306155,1.2308 -1.481984,2.56207 -0.904261,3.56681 0.577723,1.00474 3.240273,0.57772 3.993827,-0.82891 0.753552,-1.40663 0.904261,-2.51184 0.577723,-3.26539 -0.326541,-0.75355 -1.105209,-0.65308 -1.105209,-0.65308 z"
         id="path21" />
      <path
         style="fill:#fffccb;fill-opacity:1;stroke-width:2.117;stroke-linejoin:round;stroke-miterlimit:3.1;paint-order:markers stroke fill"
         d="m 25.119799,174.99052 c 0,0 -5.877707,0.25119 -8.213718,2.93886 -2.336012,2.68767 0.452131,6.48055 0.879144,4.92321 0.427013,-1.55735 0.602842,-3.64217 2.386248,-4.39573 1.783407,-0.75355 4.370602,-0.57772 5.249747,-1.55734 0.879144,-0.97962 1.10521,-2.41136 0.502368,-2.31089 -0.602842,0.10047 -0.803789,0.40189 -0.803789,0.40189 z"
         id="path22" />
      <path
         style="fill:#fffccb;fill-opacity:1;stroke-width:2.117;stroke-linejoin:round;stroke-miterlimit:3.1;paint-order:markers stroke fill"
         d="m 70.131978,199.70703 c 0,0 -6.681497,-4.52131 -10.650204,-2.36113 -3.968708,2.16018 -3.365865,5.12416 -0.954498,6.07866 2.411365,0.9545 8.037888,1.35639 9.193334,0.85402 1.155446,-0.50237 1.758289,-2.36113 1.758289,-2.36113 0,0 -1.55734,0.50237 3.215155,0.90427 4.772496,0.40189 6.078654,-2.3109 5.274866,-3.21516 -0.803791,-0.90426 -1.10521,-1.60758 -2.913734,-1.05497 -1.808525,0.5526 -2.963974,1.35639 -3.767762,1.25592 -0.803789,-0.10048 -1.155446,-0.10048 -1.155446,-0.10048 z"
         id="path23" />
      <path
         style="fill:#fffccb;fill-opacity:1;stroke-width:2.117;stroke-linejoin:round;stroke-miterlimit:3.1;paint-order:markers stroke fill"
         d="m 71.705783,209.17712 c 0,0 -5.896782,-1.63405 -5.861259,0.21314 0.03552,1.84718 3.623323,2.73525 3.836461,2.16689 0.213135,-0.56837 0.461796,-0.85255 1.136729,-0.88808 0.674931,-0.0355 1.634048,-0.74597 1.278819,-1.03016 -0.355227,-0.28418 -0.39075,-0.46179 -0.39075,-0.46179 z"
         id="path24" />
      <path
         style="fill:#fffccb;fill-opacity:1;stroke-width:2.117;stroke-linejoin:round;stroke-miterlimit:3.1;paint-order:markers stroke fill"
         d="m 104.09206,177.5526 c 0,0 1.25592,-1.20568 -1.85876,-2.4616 -3.114687,-1.25592 -8.088128,-1.70805 -6.832209,0.25118 1.255921,1.95924 3.416104,2.8635 3.817998,3.31563 0.401894,0.45213 -2.009473,-0.60284 -1.205685,0.9545 0.803791,1.55734 -0.150709,1.95924 3.164916,2.76303 3.31563,0.80378 5.67676,0.70331 6.83221,-0.10048 1.15544,-0.80379 1.5071,-2.76302 0,-3.16492 -1.5071,-0.40189 -3.91847,-1.55734 -3.91847,-1.55734 z"
         id="path27" />
      <path
         style="fill:#fffccb;fill-opacity:1;stroke-width:2.117;stroke-linejoin:round;stroke-miterlimit:3.1;paint-order:markers stroke fill"
         d="m 97.246668,151.98543 c 0,0 1.527479,-2.27346 -2.237936,-2.52212 -3.765418,-0.24866 -5.683647,-0.49731 -5.825739,1.13673 -0.142091,1.63405 -0.390749,1.66958 0.213138,2.34451 0.603888,0.67493 3.623323,0.14209 3.978553,0.60388 0.355227,0.4618 -0.603888,0.31971 1.101206,0.71046 1.705092,0.39075 7.9571,0.0355 8.95174,0.17761 0.99464,0.1421 0.9236,0.9236 1.10121,0.28419 0.17761,-0.63941 -0.0355,-1.13673 -1.81166,-1.66958 -1.77614,-0.53284 -5.470512,-1.06568 -5.470512,-1.06568 z"
         id="path28" />
      <path
         style="fill:#fffccb;fill-opacity:1;stroke-width:2.117;stroke-linejoin:round;stroke-miterlimit:3.1;paint-order:markers stroke fill"
         d="m 90.639429,173.83194 c 0,0 -1.563004,-0.56836 -4.546917,0.56837 -2.983915,1.13673 -5.257374,1.91823 -5.896782,1.70509 -0.639411,-0.21313 -0.142092,-1.98927 -4.333782,-2.06032 -4.191688,-0.071 -7.601876,1.13673 -7.957103,1.84719 -0.355227,0.71045 -0.355227,1.42091 -0.852546,1.42091 -0.497321,0 -3.126007,-0.42627 -5.541555,0.28418 -2.41555,0.71046 -4.049598,0.85255 -2.912869,2.41555 1.136729,1.563 0.994637,2.3445 2.486594,2.41555 1.491959,0.071 5.96783,-0.0711 6.323057,-0.42627 0.355227,-0.35523 0.710457,-0.99464 0.710457,-0.99464 0,0 -0.497319,0.71045 1.918229,0.85255 2.41555,0.14209 6.962465,-1.7051 8.17024,-1.42092 1.207776,0.28419 1.207776,0.28419 1.207776,0.28419 l 0.142091,-0.85255 c 0,0 7.246649,-4.68901 8.880698,-5.11528 1.634048,-0.42627 4.262733,-0.21314 3.694369,-0.49732 -0.568365,-0.28418 -1.491957,-0.42628 -1.491957,-0.42628 z"
         id="path29" />
      <path
         style="fill:#e7a441;fill-opacity:1;stroke-width:2.117;stroke-linejoin:round;stroke-miterlimit:3.1;paint-order:markers stroke fill"
         d="m 64.103562,168.66069 c 0,0 1.908997,1.75829 3.014207,1.70805 1.105209,-0.0502 1.607576,-1.40663 1.607576,-1.40663 0,0 4.722263,-1.55734 2.109947,-3.46634 -2.612314,-1.909 -5.777233,-0.75355 -6.73173,0.75355 -0.954501,1.50711 0,2.41137 0,2.41137 z"
         id="path30" />
      <path
         style="fill:#ce772b;fill-opacity:1;stroke-width:2.117;stroke-linejoin:round;stroke-miterlimit:3.1;paint-order:markers stroke fill"
         d="m 65.635784,169.13794 c 0,0 -0.577723,0.15071 -0.929381,-0.20095 -0.351658,-0.35166 0.678196,-1.15545 -1.054973,-1.28104 -1.733169,-0.12559 -6.028418,1.33128 -6.882442,2.31089 -0.854028,0.97962 -0.05024,3.16492 2.109946,3.31563 2.160182,0.15071 6.530784,-0.9545 7.083388,-2.61231 0.552606,-1.65782 -0.326538,-1.53222 -0.326538,-1.53222 z"
         id="path31" />
      <path
         style="fill:#e7a441;fill-opacity:1;stroke-width:2.117;stroke-linejoin:round;stroke-miterlimit:3.1;paint-order:markers stroke fill"
         d="m 37.025922,170.67016 c -0.854027,-0.15071 -1.55734,-1.10521 -4.471076,0.10047 -2.913735,1.20569 -5.827469,2.8635 -5.425575,3.86824 0.401895,1.00473 0.703315,0.70331 0.602842,1.5071 -0.100474,0.80379 -1.607578,2.16018 -1.004736,4.3706 0.602841,2.21042 3.064445,3.2654 3.064445,3.2654 0,0 1.959235,-6.12889 3.76776,-7.33458 1.808525,-1.20568 3.635814,-2.49111 3.564768,-2.59768 -0.07105,-0.10657 -0.994638,-1.04793 -0.7815,-1.90047 0.213135,-0.85255 0.683072,-1.27908 0.683072,-1.27908 z"
         id="path32" />
      <path
         style="fill:#f8d257;fill-opacity:1;stroke-width:2.117;stroke-linejoin:round;stroke-miterlimit:3.1;paint-order:markers stroke fill"
         d="m 27.05364,169.85339 c 0,0 3.552279,0.85255 8.880696,-0.92359 5.32842,-1.77614 8.596516,-4.90214 9.093835,-7.1756 0.497319,-2.27346 -1.918232,-2.69973 -3.19705,-3.19705 -1.278821,-0.49732 -5.115282,0.071 -5.115282,0.071 0,0 -6.252011,8.17024 -7.957105,9.02279 -1.705094,0.85255 -1.705094,2.20241 -1.705094,2.20241 z"
         id="path33" />
      <path
         style="fill:#ce772b;fill-opacity:1;stroke-width:2.117;stroke-linejoin:round;stroke-miterlimit:3.1;paint-order:markers stroke fill"
         d="m 40.115486,168.96211 c 0,0 1.833644,0.0251 0.602842,-1.20569 -1.230802,-1.2308 -3.516577,-2.23553 -6.15401,-0.50236 -2.637432,1.73317 1.205683,4.24501 1.205683,4.24501 z"
         id="path34" />
      <path
         style="fill:#e7a441;fill-opacity:1;stroke-width:2.117;stroke-linejoin:round;stroke-miterlimit:3.1;paint-order:markers stroke fill"
         d="m 21.151091,200.56106 c 0,0 4.219892,-1.10521 6.932679,0.30142 2.712788,1.40663 4.420839,2.16018 8.188601,3.06445 3.767759,0.90426 5.827469,-0.20095 8.540255,1.30615 2.712788,1.50711 3.365867,1.80853 4.57155,2.51184 1.205685,0.70332 1.708052,0.10048 2.05971,1.25592 0.351657,1.15545 -0.251185,1.50711 0.45213,2.00947 0.703316,0.50237 1.306158,0.60285 1.557343,1.60758 0.251182,1.00474 0.401894,1.70805 0.401894,1.70805 0,0 -6.882442,1.10521 -9.645467,0.65308 -2.763025,-0.45213 -7.485285,-2.05971 -11.906124,-4.67202 -4.420839,-2.61232 -11.152571,-9.74594 -11.152571,-9.74594 z"
         id="path35" />
      <path
         style="fill:#ce772b;fill-opacity:1;stroke-width:2.117;stroke-linejoin:round;stroke-miterlimit:3.1;paint-order:markers stroke fill"
         d="m 51.494122,214.22547 c 0,0 -0.502367,-2.51184 -2.310892,-3.21516 -1.808525,-0.70331 -4.169656,0.4019 -4.772499,1.10522 -0.602839,0.70331 -1.054973,1.65781 -0.854024,1.90899 0.200948,0.25119 7.937415,0.20095 7.937415,0.20095 z"
         id="path36" />
      <path
         style="fill:#ce772b;fill-opacity:1;stroke-width:2.117;stroke-linejoin:round;stroke-miterlimit:3.1;paint-order:markers stroke fill"
         d="m 38.131132,212.81884 c 0,0 1.205682,-2.66255 0.301421,-4.32037 -0.904264,-1.65781 -3.667286,-1.35639 -5.023681,-0.60284 -1.356394,0.75355 -1.456868,1.85876 -1.456868,1.85876 z"
         id="path37" />
      <path
         style="fill:#e7a441;fill-opacity:1;stroke-width:2.117;stroke-linejoin:round;stroke-miterlimit:3.1;paint-order:markers stroke fill"
         d="m 29.942532,192.0208 c 0,0 -2.763024,-4.27013 -5.174391,-5.22463 -2.411366,-0.95449 -8.49002,0.70332 -9.243572,3.16492 -0.753552,2.46161 1.708051,3.31563 2.059709,3.61705 0.351658,0.30142 2.562077,2.61232 4.923207,2.96397 2.36113,0.35166 6.329838,-2.86349 6.329838,-2.86349 z"
         id="path38" />
      <path
         style="fill:#ce772b;fill-opacity:1;stroke-width:2.117;stroke-linejoin:round;stroke-miterlimit:3.1;paint-order:markers stroke fill"
         d="m 30.073077,181.32725 c 0,0 -1.705094,0.28419 -2.273458,1.98928 -0.568365,1.70509 -0.355228,6.74933 -1.207775,6.28753 -0.852547,-0.46179 -0.106568,-0.60388 -0.852547,-0.46179 -0.745978,0.14209 -1.776139,0.56836 -2.522118,0.85254 -0.745978,0.28418 -2.948391,1.95376 -3.587801,2.23794 -0.63941,0.28418 -1.563003,0.35523 -1.27882,1.06568 0.284182,0.71046 -0.106569,0.92359 2.024799,2.69973 2.131367,1.77614 4.689007,0.49732 5.861259,-0.14209 1.172252,-0.63941 1.598526,-1.03016 1.598526,-1.03016 0,0 3.516756,-3.76541 3.161528,-4.26273 -0.355228,-0.49732 -0.817024,-2.94839 -0.88807,-5.64813 -0.07104,-2.69973 -0.03552,-3.5878 -0.03552,-3.5878 z"
         id="path39" />
      <path
         style="fill:#ce772b;fill-opacity:1;stroke-width:2.117;stroke-linejoin:round;stroke-miterlimit:3.1;paint-order:markers stroke fill"
         d="m 33.625356,195.78503 c 0,0 -0.568365,0.39075 -0.994638,0.26642 -0.426274,-0.12433 -1.953753,-1.06568 -2.983914,-0.4618 -1.030161,0.60389 -0.781501,1.11897 -0.497319,1.54524 0.284182,0.42628 1.40315,1.29659 1.811662,1.17226 0.408512,-0.12433 0.51508,-0.49732 0.674933,-0.26643 0.159853,0.2309 1.190013,1.84719 2.04256,1.91824 0.852547,0.071 4.70677,-0.26643 5.48827,-1.06569 0.781502,-0.79926 0.51508,-2.18465 -0.213136,-2.68197 -0.728218,-0.49732 -2.468835,-0.99464 -3.126004,-0.85255 -0.657172,0.1421 -2.202414,0.42628 -2.202414,0.42628 z"
         id="path40" />
      <path
         style="fill:#e7a441;fill-opacity:1;stroke-width:2.117;stroke-linejoin:round;stroke-miterlimit:3.1;paint-order:markers stroke fill"
         d="m 49.924222,196.83097 c 0,0 -1.308251,-0.22892 -1.947661,0.0197 -0.639408,0.24866 -1.278819,0.60389 -1.935991,0.72822 -0.657172,0.12433 -1.882709,0.85255 -1.527479,1.26106 0.355227,0.40851 0.710454,1.91823 2.308979,1.98928 1.598528,0.071 2.326743,0.0533 3.001677,-0.37299 0.674933,-0.42628 -0.03552,-0.60389 0.603887,-0.76374 0.639411,-0.15985 1.491957,-0.97688 1.047922,-1.7051 -0.444034,-0.72821 -1.551334,-1.15646 -1.551334,-1.15646 z"
         id="path41" />
      <path
         style="fill:#e7a441;fill-opacity:1;stroke-width:2.117;stroke-linejoin:round;stroke-miterlimit:3.1;paint-order:markers stroke fill"
         d="m 44.459806,187.61479 c 0,0 -4.19169,0.92359 -4.262733,2.16689 -0.07105,1.24329 1.847183,2.20241 2.237933,2.84182 0.390752,0.63941 1.811663,1.52748 3.16153,1.77614 1.349864,0.24866 2.877343,-0.10657 4.475871,-0.49732 1.598525,-0.39075 2.841821,-1.06568 2.983913,-2.94839 0.142092,-1.88271 0.177615,-1.91823 -0.497319,-2.38003 -0.674933,-0.4618 -3.907507,-1.17225 -3.907507,-1.17225 0,0 1.888128,-0.30406 3.294759,-0.45476 1.40663,-0.15072 2.963973,-3.61705 2.612315,-5.22463 -0.351657,-1.60758 -4.370604,-3.61705 -7.334575,-2.21042 -2.963971,1.40663 -3.315629,2.96397 -3.014207,4.16965 0.301421,1.20569 1.105209,2.41137 1.155446,2.61232 0.05024,0.20094 -0.905426,1.32098 -0.905426,1.32098 z"
         id="path42" />
      <path
         style="fill:#ce772b;fill-opacity:1;stroke-width:2.117;stroke-linejoin:round;stroke-miterlimit:3.1;paint-order:markers stroke fill"
         d="m 50.991755,182.50093 c 0,0 -3.390985,1.05497 -3.968708,2.08482 -0.577723,1.02986 0.15071,1.75829 0.15071,2.03459 0,0.27631 -3.466341,-0.8289 -4.0943,-0.8289 -0.62796,0 -0.678196,1.33127 0.401894,1.83364 1.080092,0.50237 1.532223,0.62796 1.406631,0.6782 -0.125593,0.0502 -0.226066,1.10521 0.150712,1.73317 0.376774,0.62796 0.728432,1.45687 1.029853,1.65781 0.301421,0.20095 0.703316,0.32654 0.9545,0.52749 0.251183,0.20095 0.477248,0.47725 0.954498,-0.10047 0.47725,-0.57773 0.125592,-1.02986 0.602843,-1.20569 0.47725,-0.17583 1.959234,-1.88388 2.109946,-3.11468 0.150709,-1.2308 0.251185,-1.15545 -0.326541,-1.68293 -0.577723,-0.52749 -1.180563,-0.50237 -1.029854,-1.00474 0.15071,-0.50237 1.381512,-1.25592 1.783408,-1.35639 0.401895,-0.10048 0.527487,-1.6327 0.12559,-1.48199 -0.401894,0.15071 -0.251182,0.22607 -0.251182,0.22607 z"
         id="path43" />
      <path
         style="fill:#ce772b;fill-opacity:1;stroke-width:2.117;stroke-linejoin:round;stroke-miterlimit:3.1;paint-order:markers stroke fill"
         d="m 69.716508,192.97873 c 0,0 -0.817026,-0.53284 -2.486597,-0.0355 -1.669571,0.49731 -3.552277,0.42627 -3.871984,1.52748 -0.319704,1.1012 0.142092,1.13672 0.177615,1.59852 0.03552,0.4618 -0.781502,0.63941 0.639411,1.17225 1.42091,0.53284 4.333779,-0.92359 4.937667,-0.85255 0.603888,0.071 1.953752,-0.60388 2.273459,-1.49195 0.319704,-0.88807 0.745977,-1.06569 -0.213138,-1.52748 -0.959114,-0.4618 -1.456433,-0.39075 -1.456433,-0.39075 z"
         id="path44" />
      <path
         style="fill:#e7a441;fill-opacity:1;stroke-width:2.117;stroke-linejoin:round;stroke-miterlimit:3.1;paint-order:markers stroke fill"
         d="m 67.194388,186.19388 c 0,0 1.491959,-0.88807 1.13673,-0.95912 -0.355227,-0.071 -1.172253,-0.39075 -1.172253,-0.39075 0,0 -0.106566,-0.56837 -1.03016,-0.60389 -0.923592,-0.0355 -1.740617,-0.24866 -3.126005,0.0711 -1.38539,0.3197 -2.060321,-0.28418 -3.019438,0.49732 -0.959114,0.7815 -1.740614,0.81702 -0.461796,1.49195 1.278822,0.67494 4.227214,0.74598 4.475872,0.85255 0.248661,0.10657 -0.531225,0.96633 0.462605,1.72646 0.993828,0.76014 2.379218,1.57716 3.480425,1.18641 1.101206,-0.39075 1.953752,-2.73525 1.03016,-3.23257 -0.923591,-0.49732 -1.563002,-0.21314 -1.77614,-0.39076 -0.213135,-0.17761 0,-0.24865 0,-0.24865 z"
         id="path45" />
      <path
         style="fill:#e7a441;fill-opacity:1;stroke-width:2.117;stroke-linejoin:round;stroke-miterlimit:3.1;paint-order:markers stroke fill"
         d="m 79.777445,163.0844 c -0.200948,0.15071 -1.909,0.25119 -3.416104,0.70332 -1.507104,0.45213 -0.703316,1.5071 -0.502367,1.70805 0.200946,0.20094 -0.803788,0.5526 -0.351658,1.10521 0.452131,0.5526 2.009471,0.9545 2.461604,0.90426 0.452131,-0.0502 1.456867,0.50237 1.908998,-0.60284 0.45213,-1.10521 0.703315,-2.56208 0.552606,-2.81326 -0.150712,-0.25119 -0.50237,-0.75355 -0.50237,-0.75355 z"
         id="path46" />
      <path
         style="fill:#e7a441;fill-opacity:1;stroke-width:2.117;stroke-linejoin:round;stroke-miterlimit:3.1;paint-order:markers stroke fill"
         d="m 58.278171,193.19186 c 0,0 -1.38539,-0.74597 1.385387,-1.20777 2.770778,-0.4618 5.221851,-1.03016 6.252012,-0.10657 1.03016,0.92359 1.81166,0.95912 1.136729,2.09585 -0.674933,1.13673 0.284181,1.13673 -1.847186,1.52748 -2.131367,0.39075 -5.825736,0.88806 -6.820376,0.3197 -0.994637,-0.56836 -1.776137,-1.84718 -1.17225,-2.3445 0.603885,-0.49732 1.065684,-0.28419 1.065684,-0.28419 z"
         id="path47" />
      <path
         style="fill:#e7a441;fill-opacity:1;stroke-width:2.117;stroke-linejoin:round;stroke-miterlimit:3.1;paint-order:markers stroke fill"
         d="m 78.370814,205.23308 c 0,0 -0.150712,-3.51657 2.763023,-4.47107 2.913737,-0.9545 4.320365,-2.3109 6.430311,-2.3109 2.109946,0 6.768859,1.36272 7.686233,0.65308 5.542389,-4.28733 -8.766568,-5.75934 -7.381729,-10.13954 1.504621,-4.75907 11.477427,-3.18988 13.356568,-2.84182 1.82834,0.33865 4.19169,1.27882 4.19169,1.27882 0,0 2.41555,-1.2433 4.04959,-0.81702 1.63405,0.42627 1.27883,2.48659 1.27883,2.48659 0,0 -6.10992,5.25737 -7.21113,6.67828 -1.10121,1.42092 -7.708445,7.56636 -8.560991,8.02816 -0.852548,0.46179 -7.175603,-0.1421 -7.175603,-0.1421 0,0 -6.252011,0.4618 -7.388741,0.95912 -1.136729,0.49732 -2.038051,0.6384 -2.038051,0.6384 z"
         id="path48"
         sodipodi:nodetypes="cssssscscsscsc" />
      <path
         style="fill:#ce772b;fill-opacity:1;stroke-width:2.117;stroke-linejoin:round;stroke-miterlimit:3.1;paint-order:markers stroke fill"
         d="m 94.937686,191.842 c 0,0 -3.623326,-0.74598 -5.541555,0 -1.918232,0.74598 -3.019438,1.88271 -1.278821,2.77078 1.740617,0.88807 1.456433,0.71045 3.374665,0.7815 1.918229,0.071 4.191688,0.67493 3.623323,0.99463 -0.568364,0.31971 -3.836461,3.23258 -3.836461,3.90751 0,0.67493 0.639411,2.16689 1.669571,1.563 1.030161,-0.60388 1.420913,-1.17225 2.735255,-1.17225 1.314344,0 1.77614,0.17762 1.77614,0.17762 l 1.989275,-1.38539 c 0,0 -3.410185,0 -3.090481,-0.24866 0.319706,-0.24866 2.202412,-1.74062 2.344504,-3.72989 0.142092,-1.98928 -1.563002,-3.2681 -2.131367,-3.30362 -0.568364,-0.0355 -1.634048,-0.35523 -1.634048,-0.35523 z"
         id="path49" />
      <path
         style="fill:#e7a441;fill-opacity:1;stroke-width:2.117;stroke-linejoin:round;stroke-miterlimit:3.1;paint-order:markers stroke fill"
         d="m 121.6247,179.86349 c -0.75274,-0.51599 -3.0142,-1.5071 -5.62652,-1.25592 -2.61231,0.25119 -5.97818,0.85403 -6.02841,2.41137 -0.0502,1.55734 0.75355,4.11942 2.66255,4.52131 1.90899,0.4019 5.92794,1.30616 8.69096,-0.5526 2.76303,-1.85876 1.10829,-4.57106 0.30142,-5.12416 z"
         id="path50"
         sodipodi:nodetypes="ssssss" />
      <path
         style="fill:#e7a441;fill-opacity:1;stroke-width:2.117;stroke-linejoin:round;stroke-miterlimit:3.1;paint-order:markers stroke fill"
         d="m 115.64747,170.06653 c 0,0 -2.98392,-2.94839 -3.87198,-4.33378 -0.88807,-1.38539 -1.52748,-2.06032 -2.87735,-2.41555 -1.34986,-0.35523 -4.58244,0.67493 -4.61796,0.35523 -0.0355,-0.3197 -0.39075,-2.09584 -2.45107,-2.38003 -2.060325,-0.28418 -5.861263,0.35523 -5.399468,2.13137 0.461796,1.77614 0.248661,2.62869 2.451074,3.12601 2.202414,0.49731 4.049594,-0.9236 3.943024,-0.28419 -0.10656,0.63941 -2.77077,2.20241 0.31971,4.61797 3.09048,2.41554 8.52547,3.48123 9.62667,3.05495 1.10121,-0.42627 1.52748,-0.85254 1.52748,-0.85254 0,0 0.67494,-0.10657 1.95376,-0.10657 1.27882,0 2.23793,-0.67493 2.23793,-0.67493 l -2.69973,-1.91823 z"
         id="path51" />
      <path
         style="fill:#e7a441;fill-opacity:1;stroke-width:2.117;stroke-linejoin:round;stroke-miterlimit:3.1;paint-order:markers stroke fill"
         d="m 89.311279,185.79461 c 0,0 0.938375,0.0575 0.509988,-0.88205 -0.428391,-0.93957 -0.754784,-1.49565 -1.591161,-1.24637 -0.836377,0.24928 -1.754351,0.28762 -2.427537,0.0959 -0.673179,-0.19174 -2.753927,-0.47937 -3.325112,0.13423 -0.571184,0.6136 -0.34679,1.47647 -0.0612,1.61069 0.285593,0.13423 0.265192,0.55608 0.265192,0.55608 0,0 0.530389,-0.0384 1.468763,0.24927 0.938375,0.28763 3.263915,0.40267 4.100292,0.17258 0.836377,-0.2301 1.060772,-0.6903 1.060772,-0.6903 z"
         id="path52" />
      <path
         style="fill:#ce772b;fill-opacity:1;stroke-width:2.117;stroke-linejoin:round;stroke-miterlimit:3.1;paint-order:markers stroke fill"
         d="m 83.641438,194.86144 c 0,0 0.142092,-0.31971 -0.852545,0.14209 -0.994638,0.46179 -0.355227,2.38002 0.603887,2.13136 0.959115,-0.24866 1.563003,-0.7815 1.278819,-1.45643 -0.284181,-0.67493 -1.030161,-0.81702 -1.030161,-0.81702 z"
         id="path53" />
      <path
         style="fill:#e7a441;fill-opacity:1;stroke-width:2.117;stroke-linejoin:round;stroke-miterlimit:3.1;paint-order:markers stroke fill"
         d="m 76.714496,199.19521 c -0.408511,0.17762 -0.532842,0.40852 -0.870307,0.44404 -0.337468,0.0355 -2.486597,-0.0533 -3.001677,0.67493 -0.51508,0.72822 0.372989,2.62869 1.474195,3.05496 1.101206,0.42628 2.522119,0.21314 3.410188,-0.3197 0.888069,-0.53284 0.728218,-1.38539 1.101206,-1.42091 0.372989,-0.0355 1.049817,0.36428 1.828488,0.16333 0.778669,-0.20095 2.235536,-0.97962 2.109946,-1.58246 -0.125592,-0.60284 -0.401896,-1.10521 -1.180565,-1.00473 -0.778671,0.10047 -2.386248,0.42701 -2.486724,0.47725 -0.100472,0.0502 -0.326538,-0.85403 -0.326538,-1.78341 0,-0.92938 -2.712788,-3.16492 -3.039327,-3.59193 -0.326538,-0.42702 -1.858761,-1.25592 -2.235538,-0.27631 -0.376775,0.97962 0.678198,2.81326 1.406631,3.19004 0.728435,0.37678 2.084826,1.30616 1.810022,1.9749 z"
         id="path54" />
      <path
         style="fill:#e7a441;fill-opacity:1;stroke-width:2.117;stroke-linejoin:round;stroke-miterlimit:3.1;paint-order:markers stroke fill"
         d="m 47.727903,172.83731 c -0.39075,-0.0355 -4.298257,-0.60389 -5.541555,0.28418 -1.243299,0.88807 0.106569,2.23794 1.740617,2.48659 1.634048,0.24867 4.049596,-0.35522 4.333779,-1.34986 0.284181,-0.99464 -0.532841,-1.42091 -0.532841,-1.42091 z"
         id="path55" />
      <path
         style="fill:#e7a441;fill-opacity:1;stroke-width:2.117;stroke-linejoin:round;stroke-miterlimit:3.1;paint-order:markers stroke fill"
         d="m 51.770424,154.8958 c -0.452131,0 -2.411365,-0.22606 -3.566814,0.57773 -1.155446,0.80378 -2.536957,1.63269 -1.180563,2.48672 1.356392,0.85402 2.536958,2.08482 3.315629,1.75829 0.778671,-0.32655 1.682933,-2.63744 2.009471,-3.11469 0.326541,-0.47725 0.527486,-1.38151 0.100475,-1.53222 -0.427013,-0.15071 -0.678198,-0.17583 -0.678198,-0.17583 z"
         id="path56" />
      <path
         style="fill:#ce772b;fill-opacity:1;stroke-width:2.117;stroke-linejoin:round;stroke-miterlimit:3.1;paint-order:markers stroke fill"
         d="m 49.734939,162.09167 c 0,0 2.113606,-2.84183 1.598525,-3.46348 -0.51508,-0.62165 -0.959114,-0.92359 -1.54524,-0.83478 -0.586127,0.0888 -1.545241,0.51508 -1.864948,0.46179 -0.319704,-0.0533 -1.42091,-0.51508 -1.829421,0.30195 -0.408512,0.81702 1.065683,2.91287 1.634048,2.94839 0.568364,0.0355 0.941353,-0.33747 1.190013,0.0888 0.248659,0.42627 0.817023,0.49732 0.817023,0.49732 z"
         id="path57" />
      <path
         style="fill:#ce772b;fill-opacity:1;stroke-width:2.117;stroke-linejoin:round;stroke-miterlimit:3.1;paint-order:markers stroke fill"
         d="m 112.2728,179.23141 c 0.0777,0.31903 0.071,0.35523 0.88807,0.42627 0.81703,0.0711 1.83258,-0.72357 3.33968,-0.57286 1.5071,0.15072 2.91373,0.77867 2.48672,1.38152 -0.42701,0.60284 0.37678,0.15071 -0.50237,1.08009 -0.87914,0.92938 -2.33601,0.85402 -3.21515,1.13033 -0.87915,0.2763 -2.71279,0.95449 -2.88862,0.80378 -0.17583,-0.1507 -0.20095,-0.52748 -0.47725,-0.5526 -0.2763,-0.0251 -1.98435,-0.30142 -2.51184,-1.38151 -0.52748,-1.08009 -1.78341,-1.68294 -0.75355,-3.03933 1.02985,-1.35639 3.08956,-1.73317 3.76776,-1.65781 0.6782,0.0754 1.33128,0.20094 1.05497,0.80379 -0.2763,0.60284 -1.34429,0.93847 -1.18842,1.57833 z"
         id="path58"
         sodipodi:nodetypes="scsssssssscss" />
      <path
         style="fill:#e7a441;fill-opacity:1;stroke-width:2.117;stroke-linejoin:round;stroke-miterlimit:3.1;paint-order:markers stroke fill"
         d="m 106.05129,177.80378 c 0,0 -2.58719,-0.30142 -4.39572,0.0502 -1.808522,0.35166 -2.989087,0.47725 -2.587193,1.43175 0.401894,0.9545 0.778671,2.41137 2.813263,2.63743 2.03459,0.22607 3.34075,-0.25118 4.11942,-0.0502 0.77867,0.20094 1.68293,0.0502 1.58246,-0.75356 -0.10048,-0.80378 0.85402,-2.1853 0.30142,-2.63743 -0.55261,-0.45213 -1.83365,-0.6782 -1.83365,-0.6782 z"
         id="path59" />
      <path
         style="fill:#e7a441;fill-opacity:1;stroke-width:2.117;stroke-linejoin:round;stroke-miterlimit:3.1;paint-order:markers stroke fill"
         d="m 74.33447,216.38825 c 0,0 2.308979,-0.42628 2.308979,-2.59317 0,-2.16689 -3.800938,-1.59852 -4.724529,-1.17225 -0.923592,0.42627 -0.923592,2.0248 -0.923592,2.0248 l 3.445708,1.95375 z"
         id="path60" />
      <path
         style="fill:#e7a441;fill-opacity:1;stroke-width:2.117;stroke-linejoin:round;stroke-miterlimit:3.1;paint-order:markers stroke fill"
         d="m 81.545595,218.80379 c -0.03552,-0.28418 -2.91287,-1.77613 -1.349865,-3.48123 1.563002,-1.70509 4.795576,-1.77614 6.038874,-1.77614 1.243295,0 2.237936,0.42627 2.522117,0.0355 0.284181,-0.39075 7.069034,-6.96246 9.626674,-7.53083 2.557645,-0.56836 2.060325,0.81703 2.557645,0.99464 0.49732,0.17762 0.63941,-0.42627 1.84718,0.14209 1.20778,0.56837 2.23794,1.77614 1.56301,1.59853 -0.67494,-0.17762 -1.45644,-0.31971 -1.45644,-0.31971 0,0 0,1.10121 -0.17761,1.45644 -0.17762,0.35522 -13.44498,8.82368 -15.95682,9.42653 -2.51184,0.60284 -5.214765,-0.54584 -5.214765,-0.54584 z"
         id="path61" />
      <path
         style="fill:#fffccb;fill-opacity:1;stroke-width:2.117;stroke-linejoin:round;stroke-miterlimit:3.1;paint-order:markers stroke fill"
         d="m 84.544422,214.54776 c -0.05172,-0.57595 -1.331275,-0.30142 -1.431748,-0.97962 -0.100472,-0.67819 -0.527486,-1.48198 -1.858761,-1.38151 -1.331275,0.10048 -3.114683,0.85403 -3.566813,1.65782 -0.452131,0.80378 0.904261,2.68767 4.822732,2.71278 3.918471,0.0251 2.119853,-1.06008 2.03459,-2.00947 z"
         id="path25"
         sodipodi:nodetypes="ssssss" />
      <path
         style="fill:#fffccb;fill-opacity:1;stroke-width:2.117;stroke-linejoin:round;stroke-miterlimit:3.1;paint-order:markers stroke fill"
         d="m 94.763762,210.14266 c 0,0 -1.509718,-0.37299 -2.184651,-0.10657 -0.674934,0.26642 -1.26106,0.74598 -2.04256,0.76374 -0.781502,0.0177 -1.207775,0.60389 0.08881,0.92359 1.29658,0.31971 4.422588,-0.60389 4.316019,-1.17225 -0.106569,-0.56836 -0.177615,-0.40851 -0.177615,-0.40851 z"
         id="path26" />
      <path
         style="fill:#e7a441;fill-opacity:1;stroke-width:2.117;stroke-linejoin:round;stroke-miterlimit:3.1;paint-order:markers stroke fill"
         d="m 86.891773,206.8859 -0.426273,0.14209 c 0,0 -1.509717,-0.30194 -2.184651,-0.10657 -0.674933,0.19538 -1.935991,0.49732 -1.77614,1.13673 0.159853,0.63941 0.781503,2.20241 2.024801,2.5754 1.243295,0.37299 1.758378,-0.17761 2.131367,0.0178 0.372988,0.19537 0.994637,-0.14209 1.190013,-0.42628 0.195374,-0.28418 0.05328,-0.46179 0.230897,-0.40851 0.177615,0.0533 0.195376,0.21314 0.532842,0.26642 0.337468,0.0533 0.568364,-0.071 0.51508,-0.17761 -0.05328,-0.10657 0.959117,-0.6927 0.497319,-1.563 -0.461796,-0.87031 -2.628686,-1.79391 -2.770778,-1.74062 -0.142089,0.0533 0.03552,0.28418 0.03552,0.28418 z"
         id="path62" />
      <path
         style="fill:#e7a441;fill-opacity:1;stroke-width:2.117;stroke-linejoin:round;stroke-miterlimit:3.1;paint-order:markers stroke fill"
         d="m 58.351447,206.99137 c 0,0 0.02511,0.52749 1.08009,1.02986 1.054973,0.50236 1.783408,0.2763 2.436485,0.45213 0.653079,0.17582 3.667289,0.30142 3.94359,-0.92938 0.276302,-1.23081 0.577723,-2.23554 -0.502369,-3.08957 -1.08009,-0.85403 -1.959235,-1.33127 -3.541694,-1.38151 -1.58246,-0.0502 -2.66255,0.5526 -2.66255,0.5526 z"
         id="path63" />
      <path
         style="fill:#ce772b;fill-opacity:1;stroke-width:2.117;stroke-linejoin:round;stroke-miterlimit:3.1;paint-order:markers stroke fill"
         d="m 87.061781,154.19249 c -2.260655,-0.10048 -4.646903,0.80379 -4.948324,1.83364 -0.301422,1.02985 -0.07536,1.55734 -0.200949,1.68293 -0.125592,0.12559 0,1.45687 1.029856,2.00948 1.029854,0.5526 2.084827,0.92938 2.562077,0.92938 0.477248,0 0.854025,-0.30143 1.054973,0.15071 0.200946,0.45213 0.02511,0.90426 1.356392,1.02985 1.331277,0.12559 3.692406,0.15071 3.61705,-0.92938 -0.07535,-1.08009 -2.082777,-6.09565 -3.390985,-6.43031 z"
         id="path64"
         sodipodi:nodetypes="cssssssssc" />
      <path
         style="fill:#e7a441;fill-opacity:1;stroke-width:2.117;stroke-linejoin:round;stroke-miterlimit:3.1;paint-order:markers stroke fill"
         d="m 90.710473,154.04576 c 0,0 0.817025,-0.71046 -0.674931,-1.56301 -1.491959,-0.85255 -4.440349,-0.56836 -6.003351,-0.28418 -1.563005,0.28418 -1.77614,2.30898 -1.065683,3.05496 0.710453,0.74598 1.207772,0.53284 1.385387,1.27882 0.177615,0.74598 0.888069,1.03016 1.349867,1.17225 0.461796,0.14209 1.243296,-0.31971 1.349865,0.14209 0.106568,0.4618 -0.03552,1.59853 0.923591,2.16689 0.959117,0.56837 1.349867,0.95912 2.806301,1.31434 1.456436,0.35523 3.303619,0.10657 3.587802,-0.24865 0.284181,-0.35523 -0.284183,-0.60389 0,-0.99464 0.284181,-0.39075 1.420911,-1.20778 0.319704,-1.95376 -1.101206,-0.74598 -4.191687,-0.74598 -3.765415,-1.24329 0.426273,-0.49732 1.278822,-0.28419 0.710457,-1.34987 -0.568365,-1.06568 -1.101206,-1.38539 -1.101206,-1.38539 z"
         id="path65" />
      <path
         style="fill:#e7a441;fill-opacity:1;stroke-width:2.117;stroke-linejoin:round;stroke-miterlimit:3.1;paint-order:markers stroke fill"
         d="m 82.854449,156.70433 c -0.251185,-0.0502 -0.401895,0.13815 -0.879145,0.18838 -0.47725,0.0502 -2.336011,-0.0126 -1.896438,0.94194 0.439571,0.9545 1.054973,1.30616 1.507104,1.28104 0.452131,-0.0251 0.954498,-0.35165 0.954498,-0.85402 0,-0.50237 -0.452131,-0.55261 -0.238623,-0.82891 0.213506,-0.2763 0.891702,-0.3391 0.803788,-0.52749 -0.08791,-0.18838 -0.251184,-0.20094 -0.251184,-0.20094 z"
         id="path66" />
      <path
         style="fill:#ce772b;fill-opacity:1;stroke-width:2.117;stroke-linejoin:round;stroke-miterlimit:3.1;paint-order:markers stroke fill"
         d="m 93.99633,173.92075 c -0.07104,-0.10656 -2.255694,-1.15449 -3.783176,-1.3321 -1.527479,-0.17762 -3.46347,0.28418 -3.019436,1.91823 0.444035,1.63405 3.996315,1.74062 5.23961,1.3321 1.243298,-0.40851 3.072723,-0.88807 2.415551,-1.20777 -0.657172,-0.31971 -0.852549,-0.71046 -0.852549,-0.71046 z"
         id="path67" />
      <path
         style="fill:#e7a441;fill-opacity:1;stroke-width:2.117;stroke-linejoin:round;stroke-miterlimit:3.1;paint-order:markers stroke fill"
         d="m 91.382147,175.06588 c 0,0 -0.125593,-0.70332 0.904263,-0.87914 1.029854,-0.17583 3.642167,-0.55261 3.792879,0.22606 0.150709,0.77867 0.02511,1.55734 -0.125592,1.65782 -0.150712,0.10047 0.150709,0.77867 -0.97962,1.28103 -1.130326,0.50237 -2.009471,0.45213 -2.788142,0.32654 -0.778669,-0.12559 -2.737906,-0.32654 -2.436485,-1.35639 0.301422,-1.02986 1.632697,-1.25592 1.632697,-1.25592 z"
         id="path68" />
    </g>
    <g
       inkscape:groupmode="layer"
       id="g2"
       inkscape:label="Layer 3">
      <path
         style="opacity:1;fill:#111b09;fill-opacity:1;stroke-width:2.117;stroke-linejoin:round;stroke-miterlimit:3.1;paint-order:markers stroke fill"
         d="m 40.069703,168.5201 c 0,0 -1.764138,0.16254 -2.404657,0.41372 -0.64052,0.25118 -1.004737,0.85403 -1.331275,1.00473 -0.326541,0.15072 -0.703316,0.4647 -0.678199,1.70806 0.02511,1.24336 1.168006,2.14762 1.168006,2.14762 l 0.577723,-0.31398 c 0,0 -0.175829,-0.9545 -0.389334,-1.35639 -0.213506,-0.4019 -0.301422,-0.46469 -0.138152,-0.56517 0.163271,-0.10047 2.449044,-1.53222 2.938854,-1.54478 0.489809,-0.0126 0.602842,0.25119 0.866584,0.23863 0.263745,-0.0126 0.50237,-0.10048 0.50237,-0.10048 0,0 -0.01257,-0.5526 -0.03768,-0.90426 -0.02511,-0.35166 -0.226065,-0.50237 -0.502367,-0.60284 -0.276301,-0.10048 -0.571873,-0.12486 -0.571873,-0.12486 z"
         id="path2" />
      <path
         style="opacity:1;fill:#111b09;fill-opacity:1;stroke-width:2.117;stroke-linejoin:round;stroke-miterlimit:3.1;paint-order:markers stroke fill"
         d="m 39.63684,172.41272 c 0,0 -0.251185,0.40189 -1.507104,0.65308 -1.255921,0.25118 -3.61705,1.35639 -6.480548,4.82273 -2.863498,3.46634 -3.621709,9.13894 -3.319767,10.96836 0.301945,1.82943 1.349867,2.2557 1.047922,2.43331 -0.301942,0.17762 -1.207772,0.17762 -2.078082,1.08345 -0.870308,0.90583 -1.40315,1.19001 -0.905831,2.04256 0.497319,0.85254 0.426274,0.47956 0.710455,1.08344 0.284183,0.60389 0.586126,0.79927 0.852548,0.76374 0.266419,-0.0355 0.444034,-0.0888 0.532842,-0.14209 0.08881,-0.0533 0.372988,-1.11896 0.710456,-1.65181 0.337466,-0.53284 2.113606,-1.13673 2.628686,-0.7815 0.51508,0.35523 0.799261,0.97688 1.118968,0.7815 0.319704,-0.19537 0.674933,-1.24329 0.301942,-1.93599 -0.372988,-0.69269 -1.491956,-0.4618 -1.634048,-1.11897 -0.142092,-0.65717 -1.875089,-2.92604 -0.518697,-7.69853 1.356394,-4.7725 3.626943,-8.55314 6.522048,-9.56554 2.895108,-1.0124 2.664208,-1.31434 2.522119,-1.563 -0.142092,-0.24866 -0.503909,-0.17474 -0.503909,-0.17474 z"
         id="path3" />
      <path
         style="opacity:1;fill:#111b09;fill-opacity:1;stroke-width:2.117;stroke-linejoin:round;stroke-miterlimit:3.1;paint-order:markers stroke fill"
         d="m 55.699728,200.38404 c 0,0 -1.349864,0.24866 -2.273459,0.88807 -0.923591,0.63941 -1.207772,1.63404 -0.710453,1.66957 0.497318,0.0355 3.800937,-0.21314 4.689006,0.53284 0.888069,0.74598 0.355227,1.49195 0.461796,1.63405 0,0 0.08881,-0.24866 0.10657,0.30194 0.01776,0.55061 -0.05328,2.89511 0.213136,3.07272 0.266421,0.17762 0.408513,0.87031 0.603888,0.6927 0.195375,-0.17761 1.172252,-2.29122 0.852547,-4.8311 -0.319705,-2.53988 -1.829424,-3.46347 -2.380027,-3.65885 -0.550603,-0.19537 -1.563004,-0.30194 -1.563004,-0.30194 z"
         id="path4" />
      <path
         style="opacity:1;fill:#111b09;fill-opacity:1;stroke-width:2.117;stroke-linejoin:round;stroke-miterlimit:3.1;paint-order:markers stroke fill"
         d="m 44.961942,166.43454 c 0,0 0.897974,-1.64433 1.395293,-2.35479 0.497319,-0.71046 2.415551,-2.84182 6.038874,-3.62332 3.623326,-0.78151 4.049599,-0.10657 7.743968,-0.9236 3.694369,-0.81702 3.729892,-1.95375 3.729892,-1.95375 0,0 1.172252,0.24866 0.63941,1.38539 -0.532841,1.13673 -3.836461,2.3445 -5.896782,2.62868 -2.060321,0.28419 -6.642761,0.88807 -9.520107,2.94839 -2.877344,2.06033 -3.197051,2.30899 -3.765415,2.16689 -0.568365,-0.14208 -0.365133,-0.27389 -0.365133,-0.27389 z"
         id="path5" />
      <path
         style="opacity:1;fill:#111b09;fill-opacity:1;stroke-width:2.117;stroke-linejoin:round;stroke-miterlimit:3.1;paint-order:markers stroke fill"
         d="m 109.466,168.59472 c 0,0 2.21042,2.26066 4.21989,2.71279 2.00947,0.45213 9.54499,2.66255 10.04736,6.22936 0.50237,3.56682 0.75356,4.7725 1.10521,4.92321 0.35166,0.15071 0.60284,-4.92321 -0.45213,-7.28434 -1.05497,-2.36113 -5.56261,-4.70189 -7.37427,-5.23473 -1.81166,-0.53284 -3.80094,-2.06032 -4.8311,-2.09585 -1.03016,-0.0355 -2.55764,0.28419 -2.55764,0.28419 z"
         id="path6" />
      <path
         style="opacity:1;fill:#111b09;fill-opacity:1;stroke-width:2.117;stroke-linejoin:round;stroke-miterlimit:3.1;paint-order:markers stroke fill"
         d="m 71.738158,210.59269 c 0,0 6.78197,-4.82273 10.700441,-5.67676 3.918471,-0.85402 7.937415,-0.60284 7.937415,-0.60284 0,0 4.967145,1.15071 6.103874,0.44025 1.136729,-0.71046 5.115282,-5.54156 6.749332,-7.24665 1.63404,-1.70509 5.08133,-5.70256 8.39696,-7.03384 3.31563,-1.33128 6.58102,-2.43649 6.75685,-2.91374 0.17583,-0.47724 -0.0251,-0.75355 -0.35166,-0.67819 -0.32653,0.0753 -8.69223,0.60834 -12.5287,4.87108 -3.83646,4.26273 -7.815009,9.30697 -9.804284,9.87534 -1.989276,0.56836 -3.187309,0.90234 -3.639439,1.27912 -0.452131,0.37678 -0.301422,0.57772 -0.854025,0.57772 -0.552606,0 -8.010557,-1.07534 -10.710288,0.13243 -2.699732,1.20778 -6.897714,3.55998 -7.701503,4.06235 -0.803788,0.50236 -1.230801,2.44904 -1.281038,2.75046 -0.05024,0.30142 0.226065,0.16327 0.226065,0.16327 z"
         id="path7" />
      <path
         style="opacity:1;fill:#111b09;fill-opacity:1;stroke-width:2.117;stroke-linejoin:round;stroke-miterlimit:3.1;paint-order:markers stroke fill"
         d="m 78.972258,164.67625 c 0,0 4.672023,-0.6782 5.299985,0.62796 0.62796,1.30616 0.276302,1.48199 0.276302,1.48199 0,0 -0.929381,0.75355 -1.130329,1.15544 -0.200946,0.4019 -0.904261,0.85403 0,0.62796 0.904264,-0.22606 1.934117,-1.25592 2.763025,-1.02985 0.828908,0.22606 2.436485,1.2308 4.847852,1.63269 2.411365,0.4019 2.310892,0.15072 1.959234,-0.37677 -0.351657,-0.52749 -1.08009,-1.75829 -1.858761,-1.98436 -0.778672,-0.22606 -3.1398,-0.77867 -3.717523,-0.77867 -0.577723,0 -1.682932,0 -1.682932,0 0,0 0.351657,-1.88388 -1.356395,-2.66255 -1.708052,-0.77867 -3.566813,-2.08483 -4.747379,-0.70331 -1.180565,1.38151 -0.653079,2.00947 -0.653079,2.00947 z"
         id="path8" />
      <path
         style="opacity:1;fill:#111b09;fill-opacity:1;stroke-width:2.117;stroke-linejoin:round;stroke-miterlimit:3.1;paint-order:markers stroke fill"
         d="m 65.910689,148.5 c 0,0 -11.403755,0.0502 -15.573409,0.85402 -4.169656,0.80379 -11.052098,3.36587 -12.157308,4.52132 -1.105209,1.15544 -5.02368,6.63126 -6.832205,8.08812 -1.808525,1.45687 -4.88329,4.88707 -5.096428,5.20677 -0.213137,0.31971 0.461796,0.39075 -0.355228,0.95912 -0.817024,0.56836 -1.385389,1.06568 -1.385389,1.06568 0,0 -3.511737,-0.0979 -7.631155,2.46414 -4.119418,2.56207 -3.717524,3.81799 -4.370602,4.16965 -0.653079,0.35166 -5.2534437,6.63692 -2.188999,13.31841 3.064445,6.6815 3.89705,8.18294 4.550129,9.18768 0.653078,1.00474 0.401894,1.95923 1.205683,2.00947 0.803789,0.0502 0.904262,0.50237 2.009472,0.60284 1.10521,0.10048 1.657815,-0.45213 1.657815,-0.20094 0,0.25118 -0.854026,0.85402 -0.301421,1.5071 0.552605,0.65308 4.219892,6.22936 9.796177,8.84168 5.576286,2.61231 5.174392,2.8635 6.329838,3.4161 1.155446,0.55261 9.830462,2.39097 16.4377,2.88829 6.607238,0.49732 15.345844,-2.62868 18.187667,-1.563 2.841824,1.06568 6.252009,4.19169 12.717156,4.97319 6.465149,0.7815 13.49866,-3.97855 15.061662,-4.61796 1.563002,-0.63941 4.973186,-3.55228 5.044236,-3.83646 0.071,-0.28419 0.21314,-0.35523 0.21314,-0.35523 0,0 5.75469,-1.77614 6.74933,-1.77614 0.99463,0 3.33914,-0.42627 3.76541,-0.7815 0.42627,-0.35523 3.5841,-1.93922 3.78505,-7.03826 0.20094,-5.09904 -2.98909,-4.92321 -3.86824,-4.04406 -0.87914,0.87914 0.2763,3.01421 0.84147,3.51657 0.56516,0.50237 0.74099,0.30143 0.77867,0.66564 0.0377,0.36422 -0.22607,2.97653 -1.59502,3.90591 -1.36895,0.92939 -2.51184,1.31872 -2.51184,1.31872 0,0 -7.98036,0.82293 -10.18277,2.10175 -2.202413,1.27882 -12.25536,8.73861 -19.288871,8.17024 -7.033511,-0.56836 -10.301608,-4.47587 -10.301608,-4.47587 0,0 0.400154,0.069 0.199208,-0.43334 -0.200949,-0.50237 -0.188389,-0.0628 -0.715875,-0.12559 -0.527487,-0.0628 -15.121279,0.45213 -16.728858,0.65307 -1.607577,0.20095 -9.293807,0.4019 -12.40849,-0.40189 -3.114683,-0.80379 -16.929804,-6.8322 -18.386671,-11.35352 -1.456868,-4.52131 -1.469198,-3.37375 -1.708977,-3.48032 -0.239779,-0.10657 -0.664712,-0.55118 -1.179639,-0.5763 -0.514928,-0.0251 0.653078,0.60284 -1.155447,-0.18839 -1.808525,-0.79123 -2.181997,-1.42987 -3.139801,-2.43648 -3.143616,-3.3038 -7.2668119,-16.45849 4.270129,-22.35538 3.479926,-1.7787 8.640731,-1.60758 8.992389,-2.31089 0.351658,-0.70332 0.301421,-1.15545 -0.05024,-1.30616 -0.351658,-0.15071 -0.753552,-0.30142 -0.50237,-0.55261 0.251185,-0.25118 4.521314,-4.77249 5.626523,-5.72699 1.10521,-0.9545 3.466338,-5.82747 8.439782,-8.08813 4.973445,-2.26065 8.037891,-3.21515 12.408493,-3.26539 4.370602,-0.0502 2.763022,-0.45213 7.384809,-0.55261 4.621787,-0.10047 4.219892,0.25119 4.219892,0.25119 0,0 -0.803788,0.55261 0.753552,1.15545 1.55734,0.60284 4.672023,-1.05498 7.284337,-2.21042 2.612315,-1.15545 9.444518,-4.21989 14.870096,-3.2654 5.425575,0.9545 8.590492,2.05971 10.851157,3.06445 2.26065,1.00473 6.78197,4.67202 6.78197,4.67202 0,0 -1.45687,-0.35165 -2.00948,0.0502 -0.5526,0.40189 -0.35166,2.00947 1.05498,2.91373 1.40663,0.90427 2.76302,1.00474 6.07865,1.75829 3.31563,0.75355 7.93741,4.32037 7.28434,4.3706 -0.65308,0.0502 -2.81327,0.10048 -2.81327,0.80379 0,0.70332 0.50237,0.65308 1.20569,0.80379 0.70331,0.15071 6.68149,1.40663 8.79144,5.42558 2.10995,4.01894 2.81326,7.38481 2.51184,9.49475 -0.30142,2.10995 -1.909,11.454 -6.93268,14.61891 -5.02368,3.16492 -6.07865,6.93268 -6.07865,6.93268 l -1.22162,2.56744 0.39075,0.21313 c 0,0 8.27681,-4.26273 11.26072,-10.69235 2.98392,-6.42963 3.01944,-4.97319 3.5878,-9.6622 0.56837,-4.68901 1.7051,-5.89679 1.66957,-6.92695 -0.0355,-1.03016 -1.1012,-5.32841 -4.08511,-8.24128 -2.98392,-2.91287 -3.87199,-3.69437 -5.07976,-3.94303 -1.20778,-0.24866 -0.99464,-0.42627 -0.99464,-0.42627 0,0 0.24866,-1.13673 -0.92359,-3.12601 -1.17225,-1.98928 -6.46515,-4.90214 -7.49531,-5.25737 -1.03016,-0.35523 -3.72989,-1.10121 -3.72989,-1.10121 0,0 -7.9476,-10.3222 -17.894488,-10.97528 -9.946888,-0.65307 -12.458729,1.10521 -15.071042,1.85877 -2.612313,0.75355 -5.978181,2.81326 -5.978181,2.81326 0,0 -1.054973,-1.20569 -2.66255,-1.20569 -1.607579,0 -2.461604,0.70332 -2.461604,0.70332 z"
         id="path9"
         sodipodi:nodetypes="cssssscssssssssssssssccssssssscsscssssssssssssssscscssssccsssssssscccssssscsscsscscc" />
      <path
         style="opacity:1;fill:#111b09;fill-opacity:1;stroke-width:8.00126;stroke-linejoin:round;stroke-miterlimit:3.1;paint-order:markers stroke fill"
         d="m 170.88426,628.97542 c 0,-1.87375 5.36746,-10.02451 8.45169,-12.83433 4.23654,-3.85961 12.42012,-7.82371 19.07694,-9.24082 3.02994,-0.64502 10.12286,-1.53877 15.76204,-1.98612 5.63918,-0.44735 12.30367,-1.33891 14.80997,-1.98124 5.25282,-1.34624 11.48539,-4.51455 12.1166,-6.15945 0.3486,-0.90844 0.65296,-0.94545 1.56313,-0.19008 1.62732,1.35056 1.3941,3.28345 -0.66412,5.50432 -3.70574,3.99855 -11.29368,6.76106 -24.72167,9.00031 -15.75034,2.62652 -25.07751,5.81746 -33.12293,11.33175 -3.83421,2.62795 -10.19005,6.36728 -11.94255,7.02616 -0.83297,0.31317 -1.3291,0.13753 -1.3291,-0.4705 z"
         id="path10"
         transform="scale(0.26458333)" />
    </g>
  </g>
</svg>
