<?xml version="1.0" encoding="UTF-8" standalone="no"?>
<!-- Created with Inkscape (http://www.inkscape.org/) -->

<svg
   width="200"
   height="200"
   viewBox="0 0 200 199.99999"
   version="1.1"
   id="svg1"
   inkscape:version="1.3 (0e150ed6c4, 2023-07-21)"
   sodipodi:docname="hand.svg"
   xml:space="preserve"
   inkscape:export-filename="hand.png"
   inkscape:export-xdpi="96"
   inkscape:export-ydpi="96"
   xmlns:inkscape="http://www.inkscape.org/namespaces/inkscape"
   xmlns:sodipodi="http://sodipodi.sourceforge.net/DTD/sodipodi-0.dtd"
   xmlns="http://www.w3.org/2000/svg"
   xmlns:svg="http://www.w3.org/2000/svg"><sodipodi:namedview
     id="namedview1"
     pagecolor="#6c6c6c"
     bordercolor="#000000"
     borderopacity="0.25"
     inkscape:showpageshadow="2"
     inkscape:pageopacity="0.0"
     inkscape:pagecheckerboard="0"
     inkscape:deskcolor="#d1d1d1"
     inkscape:document-units="px"
     inkscape:zoom="2.6333614"
     inkscape:cx="49.936177"
     inkscape:cy="-4.7467849"
     inkscape:window-width="1920"
     inkscape:window-height="974"
     inkscape:window-x="-11"
     inkscape:window-y="-11"
     inkscape:window-maximized="1"
     inkscape:current-layer="layer6"
     showgrid="false" /><defs
     id="defs1"><pattern
       id="EMFhbasepattern"
       patternUnits="userSpaceOnUse"
       width="6"
       height="6"
       x="0"
       y="0" /><pattern
       id="EMFhbasepattern-6"
       patternUnits="userSpaceOnUse"
       width="6"
       height="6"
       x="0"
       y="0" /><pattern
       id="EMFhbasepattern-7"
       patternUnits="userSpaceOnUse"
       width="6"
       height="6"
       x="0"
       y="0" /></defs><g
     inkscape:groupmode="layer"
     id="layer6"
     inkscape:label="Layer 3"
     transform="translate(10.346243,-143.45425)"><path
       style="opacity:1;fill:#ec5f44;fill-opacity:1;stroke-width:2.11699;stroke-linejoin:round;stroke-miterlimit:3.1;paint-order:markers stroke fill"
       d="m 54.03759,186.34267 -15.529362,25.80078 c 0,0 -5.330903,3.01652 -8.707315,-2.49651 -3.086225,-6.79594 -4.552301,-15.71756 -4.080716,-16.22191 0.471593,-0.50441 8.946872,-13.01591 16.1323,-13.62354 7.185392,-0.6076 10.791588,-2.93353 15.103235,1.80707 4.31165,4.7406 -2.918142,4.73411 -2.918142,4.73411 z"
       id="path7"
       sodipodi:nodetypes="cccscsc" /><path
       style="opacity:1;fill:#dcb195;fill-opacity:1;stroke-width:2.11699;stroke-linejoin:round;stroke-miterlimit:3.1;paint-order:markers stroke fill"
       d="m 73.385237,187.39847 c -4.246663,-1.4791 -13.644244,-4.28218 -21.139976,0.13019 -7.495759,4.41232 -11.579825,15.12601 -12.582899,17.63599 -1.270506,3.17911 1.878428,20.49272 4.287471,19.69771 0,0 2.384175,5.80409 7.900144,9.10828 5.516024,3.30417 14.821395,1.2814 24.711052,-5.75589 9.889695,-7.03717 12.257218,-13.95862 8.145607,-22.30459 -4.111644,-8.34598 -7.852385,-15.20645 -11.321399,-18.51169 z"
       id="path8"
       sodipodi:nodetypes="ccsccssc" /><path
       style="opacity:1;fill:#c08167;fill-opacity:1;stroke-width:2.11699;stroke-linejoin:round;stroke-miterlimit:3.1;paint-order:markers stroke fill"
       d="m 41.686662,218.19512 c 0,0 7.161479,16.39993 8.508631,-2.45401 0.699495,-9.78971 -1.386576,-16.7035 8.977239,-30.0638 5.656148,-2.26532 22.565766,1.46401 26.457574,10.41457 6.26319,16.01093 0.413394,22.62524 -2.15067,27.66676 -3.308904,4.24506 -12.321555,10.81169 -19.800587,12.56631 -1.166272,-0.15449 -8.88432,-0.0543 -14.619756,-3.73211 -5.735435,-3.67782 -7.839449,-13.89825 -7.839449,-13.89825 z"
       id="path9"
       sodipodi:nodetypes="csccccscc" /><path
       style="fill:#fffff0;fill-opacity:1;stroke-width:2.11699;stroke-linejoin:round;stroke-miterlimit:3.1;paint-order:markers stroke fill"
       d="m 22.574255,152.13175 c -1.626825,-1.00487 -6.906138,-9.94058 -16.6058093,-0.93912 -9.6996972,9.0014 -10.2861095,15.93364 -8.0807335,21.35188 2.20538031,5.41822 28.9697168,29.23859 28.9697168,29.23859 0,0 -1.902063,-7.22126 7.365437,-18.51937 3.893278,-4.74628 14.103163,-4.07078 13.5825,-4.85022 -8.155909,-12.20843 -12.50387,-16.39293 -25.231111,-26.28172 z"
       id="path13"
       sodipodi:nodetypes="ccccssc" /><path
       id="path12"
       style="fill:#edd2b8;fill-opacity:1;stroke-width:2.11699;stroke-linejoin:round;stroke-miterlimit:3.1;paint-order:markers stroke fill"
       d="m 25.106466,182.91702 c -3.157587,0.40355 -3.312723,-1.03153 -6.393557,-3.91228 -2.281968,-2.13371 -13.2814043,-14.96709 -19.1757786,-22.53503 -5.7929557,6.48293 -6.9180513,11.13463 -5.1116891,15.57249 2.2053983,5.41824 31.6458887,30.13337 31.6458887,30.13337 0,0 1.861966,-9.80828 5.771458,-15.02575 4.543087,-5.27249 16.155246,-7.92926 15.47062,-8.56945 -0.131529,-0.12306 -3.195742,-6.13491 -4.879391,-7.8165 -4.148298,-0.0186 -16.521899,12.05018 -17.327551,12.15315 z"
       sodipodi:nodetypes="ccccccccc" /></g><g
     inkscape:groupmode="layer"
     id="layer5"
     inkscape:label="Layer 2"
     transform="translate(10.346243,-143.45425)"><path
       style="opacity:1;fill:#111b09;stroke-width:2.11699;stroke-linejoin:round;stroke-miterlimit:3.1;paint-order:markers stroke fill"
       d="m 60.756838,184.35689 c 0,0 1.060618,-7.52873 -10.32994,-8.48974 -32.934444,-2.77874 -32.728364,48.05354 -11.381064,37.78809 2.442783,-1.32564 1.019587,-4.91541 1.003982,-5.72156 0,0 -4.768017,6.98086 -7.207121,4.09185 -18.83346,-22.30745 18.439999,-42.23127 25.2765,-26.75983 z"
       id="path5"
       sodipodi:nodetypes="csccscc" /><path
       style="opacity:1;fill:#111b09;stroke-width:2.11699;stroke-linejoin:round;stroke-miterlimit:3.1;paint-order:markers stroke fill"
       d="m 36.851732,207.18042 c 0,0 -1.14264,21.68619 9.643471,29.12391 16.214761,11.18108 49.87835,-7.29181 44.442084,-34.61832 -2.867689,-14.41518 -31.373283,-29.32966 -43.917331,-13.06211 -5.285133,6.85389 -4.196337,8.94647 -1.635425,6.47958 28.596719,-27.54641 65.370859,24.30099 19.016033,39.80996 0,0 -17.489296,1.6766 -21.522845,-11.83113 -4.033476,-13.5077 -0.693582,-16.823 -1.872824,-17.36394 -1.179234,-0.54099 -4.153163,1.46205 -4.153163,1.46205 z"
       id="path6"
       sodipodi:nodetypes="csssscssc" /><path
       style="fill:#111b09;fill-opacity:1;stroke-width:2.11699;stroke-linejoin:round;stroke-miterlimit:3.1;paint-order:markers stroke fill"
       d="m 49.351754,178.3476 c -0.356623,-0.33334 -8.059902,-12.54643 -18.04578,-21.88372 -9.985825,-9.33727 -16.445312,-11.54376 -16.445312,-11.54376 l -2.272047,1.44042 c 0,0 7.618701,6.06409 16.635236,13.39969 9.016532,7.33565 13.760868,17.17769 15.893333,18.96737 0.534959,0.50021 4.234566,-0.3799 4.234566,-0.3799 z"
       id="path1"
       sodipodi:nodetypes="cccccccc" /><path
       style="fill:#111b09;fill-opacity:1;stroke-width:2.11699;stroke-linejoin:round;stroke-miterlimit:3.1;paint-order:markers stroke fill"
       d="m -6.3930625,170.76341 c 0,0 -2.996418,1.28999 11.3751872,14.98633 14.3716793,13.69625 22.0846503,18.84318 22.0846503,18.84318 0,0 0.79165,-4.04799 -1.102395,-5.56085 -22.3042205,-17.81436 -32.4223805,-34.40309 -34.0376197,-32.96441 -1.4139177,1.25954 1.6801772,4.69575 1.6801772,4.69575 z"
       id="path2"
       sodipodi:nodetypes="cccccc" /></g></svg>
