<?xml version="1.0" encoding="UTF-8" standalone="no"?>
<!-- Created with Inkscape (http://www.inkscape.org/) -->

<svg
   width="73.362045mm"
   height="67.895554mm"
   viewBox="0 0 73.362045 67.895554"
   version="1.1"
   id="svg1"
   inkscape:version="1.3 (0e150ed6c4, 2023-07-21)"
   sodipodi:docname="video_display_fill.svg"
   xmlns:inkscape="http://www.inkscape.org/namespaces/inkscape"
   xmlns:sodipodi="http://sodipodi.sourceforge.net/DTD/sodipodi-0.dtd"
   xmlns="http://www.w3.org/2000/svg"
   xmlns:svg="http://www.w3.org/2000/svg">
  <sodipodi:namedview
     id="namedview1"
     pagecolor="#ffffff"
     bordercolor="#000000"
     borderopacity="0.25"
     inkscape:showpageshadow="2"
     inkscape:pageopacity="0.0"
     inkscape:pagecheckerboard="0"
     inkscape:deskcolor="#d1d1d1"
     inkscape:document-units="mm"
     inkscape:zoom="0.68506594"
     inkscape:cx="137.94293"
     inkscape:cy="127.72493"
     inkscape:window-width="1920"
     inkscape:window-height="974"
     inkscape:window-x="-11"
     inkscape:window-y="-11"
     inkscape:window-maximized="1"
     inkscape:current-layer="layer1" />
  <defs
     id="defs1" />
  <g
     inkscape:label="Layer 1"
     inkscape:groupmode="layer"
     id="layer1"
     transform="translate(-68.2625,-114.56455)">
    <path
       style="fill:#f9f7f0;fill-opacity:1;stroke:none;stroke-width:5.82083;stroke-linejoin:round;stroke-miterlimit:3.1;stroke-dasharray:none;stroke-opacity:1;paint-order:stroke fill markers"
       d="m 135.59091,115.54489 c -0.49162,0.23185 -0.7785,0.84276 -1.3899,0.70749 -8.35311,0.18788 -16.708,0.31725 -25.06016,0.55607 -11.790482,0.339 -23.587838,0.60919 -35.360952,1.3626 -1.534671,0.17027 -3.136538,0.10862 -4.606806,0.62462 -1.0335,0.4657 -1.215504,1.94563 -0.400577,2.7035 0.875909,1.05718 2.214894,2.06767 2.105287,3.59159 0.155004,10.5385 0.07002,21.12589 5.29e-4,31.68362 -0.04965,6.83621 -0.149185,13.65299 -0.543499,20.48423 -0.0034,0.64086 0.413057,1.25517 1.012262,1.47256 -0.02138,1.21249 0.01998,2.76215 1.257842,3.39636 1.328748,0.63261 2.841816,0.18502 4.238779,0.0937 6.986646,-0.86448 13.918676,-2.13478 20.914635,-2.92374 3.40778,-0.28741 6.819,-0.15649 10.25205,-0.0912 8.64425,0.27627 17.27883,1.25187 25.93855,1.59229 1.08142,-0.0316 2.29469,0.10115 3.24134,-0.48678 0.98207,-0.74888 2.41759,-2.54545 2.51852,-3.60262 3.92056,-20.57173 0.60238,-40.9919 0.64334,-61.67774 -0.0279,-1.1242 -3.72228,0.0796 -4.76122,0.51344 z"
       id="path4"
       sodipodi:nodetypes="scccccccccccccccccss" />
  </g>
</svg>
