<?xml version="1.0" encoding="UTF-8" standalone="no"?>
<!-- Created with Inkscape (http://www.inkscape.org/) -->

<svg
   width="79.723763mm"
   height="73.022743mm"
   viewBox="0 0 79.723763 73.022743"
   version="1.1"
   id="svg1"
   inkscape:version="1.3 (0e150ed6c4, 2023-07-21)"
   sodipodi:docname="video_display_outline.svg"
   xmlns:inkscape="http://www.inkscape.org/namespaces/inkscape"
   xmlns:sodipodi="http://sodipodi.sourceforge.net/DTD/sodipodi-0.dtd"
   xmlns="http://www.w3.org/2000/svg"
   xmlns:svg="http://www.w3.org/2000/svg">
  <sodipodi:namedview
     id="namedview1"
     pagecolor="#ffffff"
     bordercolor="#000000"
     borderopacity="0.25"
     inkscape:showpageshadow="2"
     inkscape:pageopacity="0.0"
     inkscape:pagecheckerboard="0"
     inkscape:deskcolor="#d1d1d1"
     inkscape:document-units="mm"
     inkscape:zoom="0.96882954"
     inkscape:cx="-248.23768"
     inkscape:cy="1.54826"
     inkscape:window-width="1920"
     inkscape:window-height="974"
     inkscape:window-x="-11"
     inkscape:window-y="-11"
     inkscape:window-maximized="1"
     inkscape:current-layer="layer1" />
  <defs
     id="defs1" />
  <g
     inkscape:label="Layer 1"
     inkscape:groupmode="layer"
     id="layer1"
     transform="translate(19.314583,-17.462501)">
    <path
       style="fill:#111b09;fill-opacity:1;stroke:none;stroke-width:5.82083;stroke-linejoin:round;stroke-miterlimit:3.1;stroke-dasharray:none;stroke-opacity:1;paint-order:stroke fill markers"
       d="m -14.32245,28.694646 c 0,0 -13.245149,-6.144657 3.413698,-7.510136 16.658848,-1.36548 54.209532,-1.775124 61.036922,-1.775124 6.8274,0 7.91978,-9.012163 8.46598,11.743122 0.54619,20.755286 5.73501,54.892273 -4.36954,56.257753 -10.10455,1.36548 -40.964377,-3.00406 -52.980595,1.09238 -12.016219,4.09644 -22.393861,1.36548 -15.566465,-3.82334 6.827397,-5.188826 1.775123,1.91167 5.052274,1.77512 3.27715,-0.13655 10.923835,-1.50203 21.711122,-3.00405 10.787285,-1.502033 36.048654,1.91167 40.145094,1.22893 4.09644,-0.68274 3.710224,-15.860151 4.15986,-18.200873 0.128795,-0.67048 -0.2731,-34.718661 -1.01926,-43.509091 -0.222151,-2.61714 -4.049582,0.922703 -5.005422,0.786155 -0.95583,-0.136548 -65.58986,0.842716 -64.360928,2.071647 1.228931,1.228931 2.695114,2.173303 3.140603,3.891616 0.9558353,3.686794 -10e-7,53.048871 -1.502028,56.326026 -1.502027,3.27715 -3.550246,4.77917 -3.686794,0.27309 -0.136548,-4.506079 1.502027,-25.807557 2.048219,-34.410077 0.546192,-8.60252 -0.68274,-23.213148 -0.68274,-23.213148 z"
       id="path3"
       sodipodi:nodetypes="csssssssssssssssssc" />
  </g>
</svg>
