<?xml version="1.0" encoding="UTF-8" standalone="no"?>
<!-- Created with Inkscape (http://www.inkscape.org/) -->

<svg
   width="43.035198mm"
   height="33.461815mm"
   viewBox="0 0 43.035199 33.461815"
   version="1.1"
   id="svg1"
   inkscape:version="1.3 (0e150ed6c4, 2023-07-21)"
   sodipodi:docname="chili_peppers.svg"
   xmlns:inkscape="http://www.inkscape.org/namespaces/inkscape"
   xmlns:sodipodi="http://sodipodi.sourceforge.net/DTD/sodipodi-0.dtd"
   xmlns="http://www.w3.org/2000/svg"
   xmlns:svg="http://www.w3.org/2000/svg">
  <sodipodi:namedview
     id="namedview1"
     pagecolor="#ffffff"
     bordercolor="#000000"
     borderopacity="0.25"
     inkscape:showpageshadow="2"
     inkscape:pageopacity="0.0"
     inkscape:pagecheckerboard="0"
     inkscape:deskcolor="#d1d1d1"
     inkscape:document-units="mm"
     showguides="false"
     inkscape:zoom="1.3166807"
     inkscape:cx="-33.417365"
     inkscape:cy="11.012541"
     inkscape:window-width="1920"
     inkscape:window-height="974"
     inkscape:window-x="-11"
     inkscape:window-y="-11"
     inkscape:window-maximized="1"
     inkscape:current-layer="layer8" />
  <defs
     id="defs1">
    <pattern
       id="EMFhbasepattern"
       patternUnits="userSpaceOnUse"
       width="6"
       height="6"
       x="0"
       y="0" />
  </defs>
  <g
     inkscape:groupmode="layer"
     id="layer8"
     inkscape:label="Art"
     transform="translate(-75.520062,-138.8259)">
    <path
       id="path1"
       style="opacity:0.5;fill:#000000;fill-opacity:1;stroke-width:2.117;stroke-linejoin:round;stroke-miterlimit:3.1;paint-order:markers stroke fill"
       d="m 100.29103,145.07771 -1.349787,1.70533 c 0.213137,0.42628 1.492007,3.97876 7.957137,5.39967 6.46512,1.42091 8.80928,-3.90777 8.80928,-3.90777 0,0 -7.10451,0.42616 -9.16481,-0.71056 -2.06032,-1.13671 -6.25182,-2.48667 -6.25182,-2.48667 z m -4.838979,4.39819 c -0.703315,0.60284 -0.201175,1.3063 -2.713013,1.80867 -2.511838,0.50237 -2.913667,0.80395 -4.018876,4.62194 -1.105209,3.818 -0.602919,4.72205 -1.607654,5.02347 -1.004735,0.30143 -6.128898,-0.4019 -5.62653,1.40663 0.502367,1.80852 -3.616911,1.60765 -5.224487,3.7176 -1.607577,2.10994 -0.100253,3.81786 -0.100253,3.81786 0,0 -0.803855,-1.30594 2.612244,-0.80357 3.4161,0.50236 4.320091,-0.50259 10.448975,0.80357 6.128884,1.30615 9.645922,-1.90893 9.645922,-1.90893 0,0 3.114621,-8.84169 4.722191,-9.14311 1.60758,-0.30142 4.92322,-1.10514 4.2199,-3.31556 -0.70331,-2.21042 -2.00948,-3.6172 -2.81327,-3.21531 -0.80377,0.4019 -9.545149,-2.81326 -9.545149,-2.81326 z m 12.085569,3.77238 c 0,0 1.70532,4.83122 1.70532,8.52557 0,3.69437 -1.98945,5.82566 0.63924,7.10448 2.62868,1.27882 3.62332,0.14219 3.83646,0.71055 0.21314,0.56837 -0.21329,2.20219 0.78134,2.13114 0.99464,-0.071 2.20266,0.071 1.84744,-0.71055 -0.35523,-0.7815 -2.06053,-7.24664 -3.33934,-9.59115 -1.27882,-2.3445 -3.55223,-7.81503 -3.55223,-7.81503 z" />
    <g
       inkscape:groupmode="layer"
       id="layer9"
       inkscape:label="F">
      <path
         style="opacity:1;fill:#44a714;fill-opacity:1;stroke-width:2.117;stroke-linejoin:round;stroke-miterlimit:3.1;paint-order:markers stroke fill"
         d="m 100.76926,164.657 c 0,0 0.55061,1.98927 0.59501,2.69084 0.0444,0.70158 -1.03904,0.86143 0.0888,0.90584 1.12785,0.0444 1.63405,-0.20426 2.06032,-0.77262 0.42627,-0.56837 0.56836,-1.0124 0.56836,-1.0124 0,0 1.44756,0.23977 2.18466,0.0178 0.73709,-0.22202 1.25217,-0.81702 0.96799,-1.40315 -0.28418,-0.58613 -3.37466,0.28418 -3.6322,-0.0977 -0.25754,-0.38187 -0.34635,-0.94135 -0.31083,-0.92359 0.0355,0.0178 -2.52212,0.59501 -2.52212,0.59501 z"
         id="path20" />
      <path
         style="opacity:1;fill:#e02304;fill-opacity:1;stroke-width:2.117;stroke-linejoin:round;stroke-miterlimit:3.1;paint-order:markers stroke fill"
         d="m 106.15037,158.2585 c 0.10047,0.65308 0.32654,2.08483 -0.10047,2.5244 -0.42701,0.43957 -1.30616,1.05497 -1.30616,1.05497 0,0 0.11303,0.45213 0.59028,0.79123 0.47725,0.3391 0.66564,0.37678 0.55261,0.45213 -0.11304,0.0754 -1.02986,0.17583 -1.33128,0.42701 -0.30142,0.25119 -1.64525,0.6782 -2.1853,0.741 -0.54004,0.0628 -2.14762,0.35166 -3.905911,-0.30142 -1.758286,-0.65308 -4.747377,-1.25592 -5.676757,-1.10521 -0.929381,0.15071 -1.456868,0.15071 -1.708053,0.15071 -0.251184,0 -3.290511,-1.20569 -4.57155,-1.65782 -1.281038,-0.45213 -2.637432,-0.65308 -1.934117,-0.77867 0.703315,-0.12559 1.356394,-0.45213 2.737906,-0.45213 1.381513,0 3.114682,0.35166 4.295248,0.4019 1.180566,0.0502 4.521311,-0.47725 4.521311,-0.47725 0,0 6.103773,-2.13507 6.832203,-2.16019 0.72844,-0.0251 3.19004,0.38934 3.19004,0.38934 z"
         id="path24" />
      <path
         style="opacity:1;fill:#e02305;fill-opacity:1;stroke-width:2.117;stroke-linejoin:round;stroke-miterlimit:3.1;paint-order:markers stroke fill"
         d="m 99.925596,164.25736 1.136734,0.95912 c 0,0 0.3197,2.93063 0.23089,3.00167 -0.0888,0.071 -0.21313,0.83479 -1.527474,0.99464 -1.314344,0.15986 -2.575404,1.13673 -4.813337,0.39075 -2.237936,-0.74597 -6.98023,-2.23793 -9.324732,-2.38003 -2.344504,-0.14208 -3.94303,0.0888 -3.694372,-0.7815 0.248661,-0.8703 1.207776,-1.6518 3.179292,-2.02479 1.971514,-0.37299 5.452748,-1.27882 5.914543,-1.43868 0.461796,-0.15985 2.806301,-0.60389 5.399464,0.0533 2.593162,0.65717 3.498992,1.22553 3.498992,1.22553 z"
         id="path21" />
      <path
         id="path22"
         style="opacity:1;fill:#881c07;fill-opacity:1;stroke-width:2.117;stroke-linejoin:round;stroke-miterlimit:3.1;paint-order:markers stroke fill"
         d="m 89.193005,164.3109 c -0.727258,0.0177 -2.817932,0.46035 -3.664892,0.65422 -1.042412,0.23863 -1.306251,1.74589 -1.48208,2.09755 l 2.713012,0.42685 1.758033,0.50229 4.973856,1.35651 0.206189,0.015 c -0.251937,-0.0813 -0.533827,-0.18747 -0.840775,-0.32815 -1.278817,-0.58613 0.1957,4e-5 1.456758,-0.19534 1.261056,-0.19537 0.941391,-0.76362 2.20245,-0.72812 1.170525,0.033 -0.290414,0.72391 -1.30173,1.36271 l 2.396237,0.17518 3.202907,-0.82889 c 0,0 0.25074,-0.43937 0.48937,-1.09244 0.23862,-0.65308 -0.40152,-2.36134 -0.40152,-2.42414 0,-0.0628 -0.69092,-0.71572 -0.69092,-0.71572 0,0 0.4772,1.26862 0.5023,1.51981 0.0251,0.25118 -0.37679,0.0752 -0.57774,0.42684 -0.200947,0.35166 0.20121,0.0502 0.64078,-0.16329 0.43957,-0.2135 -0.0251,0.15079 -0.16329,0.48989 -0.13815,0.3391 -0.716029,0.0754 -1.105362,-0.25115 -0.389337,-0.32654 -1.306172,-0.13834 -3.102137,-0.43976 -1.795965,-0.30143 -1.004911,0.23861 -1.268656,0.41444 -0.263742,0.17587 -2.272943,7e-5 -2.586922,-0.0501 -0.313981,-0.0502 0.07546,-0.12581 1.067635,-0.60306 0.992176,-0.47725 0.439212,-0.6402 0.690397,-1.14257 0.251182,-0.50236 -0.690412,-0.0879 -2.385901,-0.16329 -1.69549,-0.0753 -1.519647,0.62779 -2.235522,0.67799 -0.715871,0.0502 -0.477659,0.25104 -0.753959,-0.40204 -0.276305,-0.65307 0.464974,-0.26336 0.515214,-0.5271 0.0094,-0.0495 -0.0859,-0.0682 -0.253732,-0.0641 z" />
      <path
         style="opacity:1;fill:#881c07;fill-opacity:1;stroke-width:2.117;stroke-linejoin:round;stroke-miterlimit:3.1;paint-order:markers stroke fill"
         d="m 97.811062,163.19427 c 0,0 1.783406,-0.15072 1.607577,-0.77868 -0.175829,-0.62796 -1.507104,-1.40663 -0.653079,-1.10521 0.854027,0.30143 2.71279,0.82891 3.31563,0.50237 0.60284,-0.32654 0.85403,-0.72843 -0.0502,-0.90426 -0.90426,-0.17583 -2.185298,-0.35166 -1.15544,-0.52749 1.02985,-0.17583 1.13033,0.15071 1.30615,-0.17583 0.17583,-0.32654 0.37678,-0.87914 1.05498,-0.8289 0.67819,0.0502 0.47725,-0.1256 1.80852,-0.35166 1.33128,-0.22607 1.30616,0.52749 1.30616,0.52749 l -0.2763,1.55734 c 0,0 -2.63744,0.60284 -2.41137,0.87914 0.22606,0.2763 1.80852,0.52749 1.80852,0.52749 0,0 0.62797,0.47725 0.50237,0.65308 -0.12559,0.17582 -1.40663,0.72843 -1.60758,0.72843 -0.20094,0 -1.00473,0.85403 -2.51184,0.62796 -1.5071,-0.22607 -3.114677,-0.75355 -3.265389,-0.80379 -0.150709,-0.0502 -0.778669,-0.52748 -0.778669,-0.52748 z"
         id="path23" />
      <path
         style="opacity:1;fill:#93d977;fill-opacity:1;stroke-width:2.117;stroke-linejoin:round;stroke-miterlimit:3.1;paint-order:markers stroke fill"
         d="m 103.69101,165.13655 c -1.26994,0.13321 -2.37114,-0.46179 -1.89158,0.68382 0.47955,1.1456 3.14376,0.5506 2.90398,-0.13321 -0.23978,-0.68382 -1.0124,-0.55061 -1.0124,-0.55061 z"
         id="path25" />
      <path
         style="opacity:1;fill:#45a715;fill-opacity:1;stroke-width:2.117;stroke-linejoin:round;stroke-miterlimit:3.1;paint-order:markers stroke fill"
         d="m 104.70341,161.91286 c 0.0178,0.0888 1.43867,0.62165 1.45644,1.22554 0.0177,0.60388 0,0.76374 0.19537,0.88806 0.19538,0.12433 2.75302,-0.74597 2.64645,-1.40314 -0.10657,-0.65718 -0.35523,-1.08345 -0.35523,-1.08345 0,0 3.28586,-0.19538 3.60556,-0.42627 0.31971,-0.2309 0.60389,-0.53284 0.60389,-0.53284 0,0 0.40851,-1.17226 -0.39075,-1.15449 -0.79926,0.0178 -1.98928,0.40851 -3.00167,0.33746 -1.0124,-0.0711 -2.0248,-0.30194 -1.66958,-0.21313 0.35523,0.0888 0.44404,-1.08345 0.44404,-1.08345 l -0.85255,-0.26642 c 0,0 -1.03016,0.0533 -1.04792,0.12433 -0.0177,0.071 0.0711,2.78854 0.0711,2.78854 l -1.65181,0.67493 z"
         id="path26" />
      <path
         style="opacity:1;fill:#45a715;fill-opacity:1;stroke-width:2.117;stroke-linejoin:round;stroke-miterlimit:3.1;paint-order:markers stroke fill"
         d="m 107.75795,152.04169 0.37678,2.96397 c 0,0 1.65781,-1.68293 1.85876,-2.16018 0.20094,-0.47725 0.15071,-2.58719 0.15071,-2.96397 0,-0.37678 0.0754,-0.72843 0.0754,-0.72843 0,0 2.53696,-2.41137 2.36113,-2.5872 -0.17583,-0.17583 -2.28577,0.4019 -2.28577,0.4019 l -1.78341,1.7834 c 0,0 -2.05971,-0.20094 -3.06444,0.12559 -1.00474,0.32654 -1.53223,0.50237 -1.53223,0.65308 0,0.15071 3.84312,2.51184 3.84312,2.51184 z"
         id="path27" />
      <path
         style="opacity:1;fill:#45a715;fill-opacity:1;stroke-width:2.117;stroke-linejoin:round;stroke-miterlimit:3.1;paint-order:markers stroke fill"
         d="m 117.63371,162.48122 c 0.0178,0.55061 0.49731,1.74062 0.24866,2.64645 -0.24866,0.90583 -1.40315,2.8063 -1.40315,2.8063 l 1.01239,3.16153 c 0,0 -0.51508,0.83479 -1.13673,0.85255 -0.62164,0.0178 -0.76373,-0.0178 -0.76373,-0.0178 0,0 -0.40851,-0.26642 -0.42628,-0.39075 -0.0177,-0.12433 -0.37299,-2.50435 -0.46179,-2.59316 -0.0888,-0.0888 -1.66958,-0.21314 -2.16689,-0.7815 -0.49732,-0.56837 -1.0124,-2.87735 -1.0124,-2.87735 0,0 1.74061,1.54524 2.39779,1.26106 0.65717,-0.28418 1.54524,-0.28418 1.90046,-0.90583 0.35523,-0.62165 1.81167,-3.16153 1.81167,-3.16153 z"
         id="path29" />
      <path
         style="opacity:1;fill:#45a715;fill-opacity:1;stroke-width:2.117;stroke-linejoin:round;stroke-miterlimit:3.1;paint-order:markers stroke fill"
         d="m 100.26306,141.61159 c -0.0533,0.0533 -0.852544,1.02128 -0.745975,1.86494 0.106569,0.84367 0.879185,1.90935 1.030165,1.99816 0.15097,0.0888 0.64829,0.95024 0.81702,-0.0266 0.16873,-0.97688 0.0266,-1.60741 0.7371,-2.12249 0.71045,-0.51508 0.88807,-0.66605 0.88807,-0.66605 0,0 1.50084,0.29306 1.5186,0.19537 0.0178,-0.0977 0.65717,-0.30194 0.58612,-0.76374 -0.071,-0.46179 -1.19889,-1.45643 -1.75838,-1.58076 -0.55948,-0.12433 -2.04256,0.11545 -2.04256,0.11545 0,0 -0.16873,-1.27882 -0.65717,-1.34987 -0.48843,-0.071 -1.527476,0.47956 -1.349862,0.64829 0.177613,0.16874 0.976872,1.68734 0.976872,1.68734 z"
         id="path30" />
      <path
         style="opacity:1;fill:#45a715;fill-opacity:1;stroke-width:2.117;stroke-linejoin:round;stroke-miterlimit:3.1;paint-order:markers stroke fill"
         d="m 95.964808,143.90281 c -0.08881,-0.51508 -0.35523,-2.07809 -0.177615,-2.27346 0.177615,-0.19538 1.243298,-0.39075 1.349867,-0.31971 0.106566,0.071 -0.248661,1.74062 0.124328,1.90047 0.372991,0.15985 2.29122,0.47956 2.29122,0.47956 0,0 -0.337466,0.53284 0,0.67493 0.337468,0.14209 0.994642,0.88807 0.994642,0.88807 0,0 -0.21314,1.50972 -0.53285,1.52748 -0.3197,0.0178 -2.504352,-0.44403 -3.197047,-0.26642 -0.692695,0.17762 -1.669571,0.4618 -1.669571,0.4618 0,0 -0.799261,0.0533 -0.781499,-1.04793 0.01775,-1.1012 0.319704,-1.13672 0.408511,-1.13672 0.08881,0 1.190014,-0.88807 1.190014,-0.88807 z"
         id="path31" />
      <path
         style="opacity:1;fill:#45a715;fill-opacity:1;stroke-width:2.117;stroke-linejoin:round;stroke-miterlimit:3.1;paint-order:markers stroke fill"
         d="m 88.743318,147.89716 c 0.552603,0 1.858761,-0.16327 2.361131,-0.0628 0.502367,0.10047 1.017294,0.43957 1.017294,0.43957 0,0 -1.11777,0.59028 -1.268479,0.84147 -0.150712,0.25118 -0.749718,2.53137 -0.749718,2.53137 0,0 -0.568365,2.62869 -0.692692,2.7175 -0.124331,0.0888 -0.230899,0.21314 -0.959117,-0.17762 -0.728216,-0.39075 -1.024817,-1.3229 -1.083445,-2.23793 -0.06296,-0.98273 0.206138,-2.15841 -0.133216,-2.50436 -1.27861,-1.30346 -1.554122,-2.04256 -1.589642,-2.2557 -0.03552,-0.21313 0.444034,-0.76374 0.497318,-0.83478 0.05329,-0.0711 1.154491,-1.43867 1.278819,-0.95912 0.12433,0.47956 -0.230897,1.04792 0.266422,1.58077 0.497319,0.53284 1.05532,0.92163 1.05532,0.92163 z"
         id="path32"
         sodipodi:nodetypes="sscscsssssssscs" />
      <path
         style="opacity:1;fill:#e02204;fill-opacity:1;stroke-width:2.117;stroke-linejoin:round;stroke-miterlimit:3.1;paint-order:markers stroke fill"
         d="m 110.54609,152.49382 c 0.12559,0.15071 4.29525,3.84312 5.35022,5.4507 1.05497,1.60758 1.58246,4.11942 1.58246,4.11942 l -1.5071,3.6924 c 0,0 -1.10521,0.65308 -2.00948,0.65308 -0.90426,0 -2.56207,-1.38151 -2.56207,-1.38151 0,0 -0.32654,-2.23554 -0.32654,-2.46161 0,-0.22606 0.17583,-1.40663 0.17583,-1.30615 0,0.10047 0.92938,0.0753 1.05497,0.0251 0.12559,-0.0502 0.5526,-0.75356 0.5526,-0.75356 l -0.50236,-1.2308 -1.60758,0.17583 -2.08483,-5.0488 z"
         id="path33" />
      <path
         style="opacity:1;fill:#881c07;fill-opacity:1;stroke-width:2.117;stroke-linejoin:round;stroke-miterlimit:3.1;paint-order:markers stroke fill"
         d="m 111.14893,162.74213 c 0.17583,0.20095 2.07227,0.50237 1.909,1.25592 -0.16327,0.75356 -1.01729,0.89171 -0.0628,0.84147 0.95449,-0.0502 2.44904,-2.5872 3.00164,-2.27322 0.55261,0.31398 0.90427,0.81635 0.89171,0.9545 -0.0126,0.13816 -1.13033,2.5872 -1.33128,2.62488 -0.20094,0.0377 -0.97962,0.2763 -1.2308,0.22606 -0.25118,-0.0502 -2.16018,-0.71587 -2.54952,-1.2936 -0.38933,-0.57772 -0.90426,-2.08482 -0.8289,-2.1225 0.0754,-0.0377 0.20094,-0.21351 0.20094,-0.21351 z"
         id="path34" />
      <path
         style="opacity:1;fill:#e02204;fill-opacity:1;stroke-width:2.117;stroke-linejoin:round;stroke-miterlimit:3.1;paint-order:markers stroke fill"
         d="m 103.58445,142.4819 c 0.14208,0.14209 6.28753,4.38706 6.12768,4.42258 -0.15986,0.0355 -0.95912,1.93599 -1.38539,1.95376 -0.42628,0.0178 -3.41019,0.071 -4.10288,-0.24867 -0.6927,-0.3197 -3.37467,-1.95375 -3.33915,-2.45107 0.0355,-0.49731 0.47956,-0.58612 0.49732,-0.67493 0.0178,-0.0888 0.0178,-1.10121 0.40851,-1.74062 0.39075,-0.6394 0.65718,-0.76374 0.79927,-0.8703 0.14209,-0.10657 0.99464,-0.39075 0.99464,-0.39075 z"
         id="path35" />
      <path
         style="opacity:1;fill:#e02204;fill-opacity:1;stroke-width:2.117;stroke-linejoin:round;stroke-miterlimit:3.1;paint-order:markers stroke fill"
         d="m 112.35857,147.73927 c 0,0 0.83479,0.62165 2.16689,0.3197 1.33211,-0.30194 3.53452,-3.5878 3.62333,-3.26809 0.0888,0.3197 0.2309,0.37299 0.12433,0.71045 -0.10657,0.33747 -1.4742,2.53988 -1.74062,2.8063 -0.26642,0.26642 -2.0248,1.61629 -2.38003,1.77614 -0.35522,0.15986 -1.20777,0.35523 -1.77614,0.30194 -0.56836,-0.0533 -2.39778,-0.30194 -2.32674,-0.60388 0.071,-0.30195 -0.63941,-0.72822 0.40851,-0.85255 1.04793,-0.12433 1.90047,-1.19001 1.90047,-1.19001 z"
         id="path36" />
      <path
         style="opacity:1;fill:#e02204;fill-opacity:1;stroke-width:2.117;stroke-linejoin:round;stroke-miterlimit:3.1;paint-order:markers stroke fill"
         d="m 95.307636,147.1709 c 0,0 0.05328,1.68734 -0.213138,1.72286 -0.26642,0.0355 -3.46347,-0.28419 -3.46347,-0.28419 l -0.603888,0.15986 c 0,0 -0.728218,1.72285 -0.959117,2.30898 -0.230896,0.58613 -0.124328,2.50435 -0.124328,2.50435 0,0 2.55764,1.81167 2.877344,1.66958 0.319707,-0.14209 0.852549,-0.21314 0.763741,0 -0.08881,0.21313 -0.372988,1.95375 -1.207775,2.52212 -0.834784,0.56836 -3.054959,2.36226 -2.877347,2.38002 0.177615,0.0178 2.948393,0.60389 4.17393,0.42628 1.225536,-0.17762 2.735254,-0.85255 2.735254,-0.85255 l 7.903818,-2.13137 c 0,0 3.51676,-2.55764 3.51676,-2.68197 0,-0.12433 0.0178,-2.85958 -0.0533,-2.91287 -0.071,-0.0533 -3.51675,-2.23793 -3.51675,-2.23793 l -1.88271,1.50972 c 0,0 -2.27346,-0.88808 -2.468835,-1.56301 -0.195374,-0.67493 -0.05328,-2.68197 -0.05328,-2.68197 0,0 -2.468835,-0.76374 -3.0372,-0.56836 -0.568364,0.19537 -1.509717,0.71045 -1.509717,0.71045 z"
         id="path37" />
      <path
         style="opacity:1;fill:#881c07;fill-opacity:1;stroke-width:2.117;stroke-linejoin:round;stroke-miterlimit:3.1;paint-order:markers stroke fill"
         d="m 90.828145,149.15308 c 0.175828,0.10047 0.565165,0.62796 0.540046,1.29359 -0.02511,0.66564 -0.728435,1.20569 0.138152,1.4192 0.866585,0.2135 4.707123,1.29062 5.062352,1.73466 0.355227,0.44403 0.26642,0.88807 0.39075,0.72821 0.124331,-0.15985 -0.159853,-0.81702 0.728218,-0.67493 0.888069,0.14209 1.616287,0.40851 1.847183,0.0533 0.2309,-0.35523 0.674934,-0.81703 0.870314,-0.6927 0.19537,0.12433 -0.745983,1.86495 -1.136733,1.88271 -0.390753,0.0178 -5.186328,0.35523 -6.305296,0.0533 -1.118968,-0.30194 -3.001674,-0.67493 -3.054959,-1.22553 -0.05328,-0.55061 -0.24866,-1.72286 0.01775,-2.34451 0.26642,-0.62164 0.902211,-2.22727 0.902211,-2.22727 z"
         id="path38" />
      <path
         style="opacity:1;fill:#881c07;fill-opacity:1;stroke-width:2.117;stroke-linejoin:round;stroke-miterlimit:3.1;paint-order:markers stroke fill"
         d="m 96.817353,146.53149 c 0.195377,0.2309 1.491957,0.47956 1.65181,1.50972 0.159853,1.03016 -0.301942,1.20778 0.195376,1.54524 0.497319,0.33747 0.728216,0.37299 0.728216,0.37299 0,0 0.372991,-0.37299 0.319706,-1.3321 -0.05328,-0.95912 0.159854,-2.13137 0.08881,-1.91823 -0.07105,0.21313 -2.983916,-0.17762 -2.983916,-0.17762 z"
         id="path39" />
      <path
         style="opacity:1;fill:#881c07;fill-opacity:1;stroke-width:2.117;stroke-linejoin:round;stroke-miterlimit:3.1;paint-order:markers stroke fill"
         d="m 91.167243,159.18788 c 0.200948,0.16327 0.665638,0.6782 1.205685,0.59028 0.540046,-0.0879 1.883881,-0.8917 2.612313,-0.76611 0.728435,0.12559 1.406631,0.60284 1.343834,0.6782 -0.0628,0.0754 -1.595019,1.06753 -3.378424,0.81635 -1.783408,-0.25119 -2.298335,-0.38934 -2.323452,-0.48981 -0.02511,-0.10048 -0.301421,-0.66564 -0.07536,-0.72844 0.226065,-0.0628 0.6154,-0.10047 0.6154,-0.10047 z"
         id="path40" />
      <path
         style="opacity:1;fill:#881c07;fill-opacity:1;stroke-width:2.117;stroke-linejoin:round;stroke-miterlimit:3.1;paint-order:markers stroke fill"
         d="m 99.250665,158.75133 c 0,-0.14209 -1.101206,-0.42627 0.319704,-1.13673 1.420911,-0.71045 3.445711,-0.42627 4.014081,-1.49195 0.56836,-1.06569 1.06568,-1.7051 0.35522,-1.7051 -0.71045,0 -2.30898,0.10657 -0.81702,-0.24866 1.49196,-0.35523 2.62868,-0.71045 3.05496,-0.99464 0.42627,-0.28418 0.10657,-1.20777 0.88807,-0.88807 0.7815,0.31971 1.06568,-0.071 0.88806,0.60389 -0.17761,0.67493 -0.21313,1.38539 -0.21313,1.38539 0,0 -0.49732,-0.63941 -0.63941,0.071 -0.14209,0.71045 0.31971,1.13673 0.31971,1.13673 l -3.41019,2.3445 z"
         id="path41"
         sodipodi:nodetypes="cssssssscsccc" />
      <path
         style="opacity:1;fill:#93d977;fill-opacity:1;stroke-width:2.117;stroke-linejoin:round;stroke-miterlimit:3.1;paint-order:markers stroke fill"
         d="m 115.88573,167.71884 c -0.071,-0.009 -0.34635,-0.59501 -0.88807,-0.0355 -0.54172,0.55948 0.1865,2.36226 0.21314,2.39778 0.0266,0.0355 0.43515,1.14561 0.94135,0.48844 0.5062,-0.65717 0.98576,-0.39963 0.4618,-1.13673 -0.52396,-0.73709 -0.33747,-1.6074 -0.37299,-1.59852 -0.0355,0.009 -0.35523,-0.11545 -0.35523,-0.11545 z"
         id="path42" />
      <path
         style="opacity:1;fill:#93d977;fill-opacity:1;stroke-width:2.117;stroke-linejoin:round;stroke-miterlimit:3.1;paint-order:markers stroke fill"
         d="m 109.4032,147.65853 c 0,0 -0.50236,1.02986 0.20095,0.91682 0.70332,-0.11303 0.28886,-0.64052 0.46469,-0.8289 0.17583,-0.18839 0.45213,-0.56517 0.10048,-0.62796 -0.35166,-0.0628 -0.76612,0.54004 -0.76612,0.54004 z"
         id="path43" />
      <path
         style="opacity:1;fill:#93d977;fill-opacity:1;stroke-width:2.117;stroke-linejoin:round;stroke-miterlimit:3.1;paint-order:markers stroke fill"
         d="m 106.70298,151.08719 c -0.10048,-1.21824 0.13815,-2.03459 0.86658,-1.72061 0.72843,0.31398 1.30616,0 1.02986,0.84147 -0.27631,0.84147 -0.0628,1.64526 -0.79124,1.55734 -0.72843,-0.0879 -1.1052,-0.6782 -1.1052,-0.6782 z"
         id="path44" />
      <path
         style="opacity:1;fill:#93d977;fill-opacity:1;stroke-width:2.117;stroke-linejoin:round;stroke-miterlimit:3.1;paint-order:markers stroke fill"
         d="m 101.86159,143.19235 c 0,0 -0.61277,0.60389 -0.90583,-0.0178 -0.29306,-0.62165 -0.70158,-0.84367 -0.35523,-1.13673 0.34635,-0.29306 0.72822,-0.65717 1.03016,-0.21314 0.30195,0.44404 0.47068,1.07456 0.47068,1.07456 z"
         id="path45" />
      <path
         style="opacity:1;fill:#93d977;fill-opacity:1;stroke-width:2.117;stroke-linejoin:round;stroke-miterlimit:3.1;paint-order:markers stroke fill"
         d="m 97.051229,144.30522 c 0.244904,0.65308 0.841468,2.43021 1.205685,2.12879 0.364215,-0.30142 0.866585,-1.78969 0.395613,-2.33601 -0.470969,-0.54633 -0.395613,-0.6782 -0.841465,-0.47725 -0.445852,0.20095 -0.759833,0.68447 -0.759833,0.68447 z"
         id="path46" />
      <path
         style="opacity:1;fill:#93d977;fill-opacity:1;stroke-width:2.117;stroke-linejoin:round;stroke-miterlimit:3.1;paint-order:markers stroke fill"
         d="m 89.339808,149.08913 c 0.284181,0.71046 1.172252,1.86495 0.301942,2.07809 -0.870307,0.21313 -2.397786,-0.26643 -1.705094,-1.0124 0.692695,-0.74598 0.35523,-1.563 0.834787,-1.31435 0.479557,0.24866 0.568365,0.24866 0.568365,0.24866 z"
         id="path47" />
      <path
         style="opacity:1;fill:#93d977;fill-opacity:1;stroke-width:2.117;stroke-linejoin:round;stroke-miterlimit:3.1;paint-order:markers stroke fill"
         d="m 107.42091,160.4209 c -0.26643,0.39075 -0.6927,0.71046 -0.071,1.26106 0.62165,0.5506 3.05496,0.10657 2.48659,-0.5506 -0.56836,-0.65717 -2.41554,-0.71046 -2.41554,-0.71046 z"
         id="path48" />
      <path
         id="path49"
         style="opacity:1;fill:#881c07;fill-opacity:1;stroke-width:2.117;stroke-linejoin:round;stroke-miterlimit:3.1;paint-order:markers stroke fill"
         d="m 102.97614,145.31826 c -0.62043,-0.009 -1.18136,0.30762 -1.82521,0.48524 -6e-5,0.002 -0.0171,0.4624 0.26665,0.87023 0.28418,0.40851 1.97161,1.47375 3.10834,2.0066 0.33367,0.15641 0.9095,0.28605 1.55391,0.39222 0.1124,-0.11074 0.216,-0.20571 0.2713,-0.25838 0.26374,-0.25122 1.62023,0.0752 1.89653,0.0501 0.1562,-0.0142 0.63886,-0.57676 1.04489,-1.09399 -0.11991,-0.047 -0.22411,-0.0829 -0.3085,-0.10232 -0.6927,-0.15981 -1.95369,0.0714 -2.78846,0.0181 -0.83478,-0.0533 -0.81711,-0.99483 -2.00712,-1.90066 -0.44625,-0.33968 -0.84007,-0.46186 -1.21233,-0.46716 z m 7.92097,3.16053 c -0.0602,0.0751 -0.12539,0.15209 -0.20051,0.23461 -0.31001,0.34057 -0.61115,0.61237 -0.90485,0.83044 0.43733,0.21241 1.64029,0.76432 2.33577,0.73536 0.85255,-0.0355 3.21479,-0.83509 3.21479,-0.83509 0,0 -0.88785,-0.31952 -2.27324,-0.35502 -0.65404,-0.0168 -1.44452,-0.30042 -2.17196,-0.6103 z" />
      <path
         style="opacity:1;fill:#881c07;fill-opacity:1;stroke-width:2.117;stroke-linejoin:round;stroke-miterlimit:3.1;paint-order:markers stroke fill"
         d="m 110.44034,152.4638 c 0.74598,0.92359 4.47587,6.53619 2.91287,5.9323 -1.563,-0.60388 -1.59852,-1.1012 -1.17225,-0.39075 0.42627,0.71046 1.98927,2.55764 1.27882,3.83646 -0.71046,1.27882 -0.99464,1.88271 -1.27882,1.81167 -0.28418,-0.0711 -1.20778,-0.31971 -1.17225,-0.53285 0.0355,-0.21313 0.0178,-1.59852 0.15985,-1.68733 0.14209,-0.0888 1.10121,0.15985 1.36763,-0.49732 0.26642,-0.65717 0,-1.26106 0,-1.26106 l -0.62165,-0.37299 c 0,0 -1.43868,0.39075 -1.43868,0.2309 0,-0.15985 -0.58612,-2.55764 -0.67493,-2.61092 -0.0888,-0.0533 0.74598,0.0178 0.47956,-0.40851 -0.26642,-0.42628 -0.7815,0.12433 -0.79926,0.0178 -0.0178,-0.10657 -0.71046,-1.82943 -0.71046,-1.82943 z"
         id="path50" />
      <path
         style="opacity:1;fill:#fd8b79;fill-opacity:1;stroke-width:2.117;stroke-linejoin:round;stroke-miterlimit:3.1;paint-order:markers stroke fill"
         d="m 97.333812,149.60521 c -1.105209,-0.15071 -5.777232,0.2763 -3.61705,0.70331 2.160183,0.42702 3.190036,0.45214 3.541694,0.80379 0.351658,0.35166 1.155446,1.75829 1.004737,1.00474 -0.150712,-0.75355 -1.180566,-1.75829 -0.401894,-1.50711 0.778668,0.25119 1.934117,1.00474 1.40663,0.42702 -0.527486,-0.57773 -1.934117,-1.43175 -1.934117,-1.43175 z"
         id="path51" />
      <path
         style="opacity:1;fill:#fd8b79;fill-opacity:1;stroke-width:2.117;stroke-linejoin:round;stroke-miterlimit:3.1;paint-order:markers stroke fill"
         d="m 99.676938,155.09249 c 0.568362,0.10656 1.669572,0.0355 2.131372,0.14208 0.46179,0.10657 -1.17226,0.74598 -1.77614,0.88808 -0.603892,0.14209 -2.522122,2.59316 -2.131372,1.45643 0.39075,-1.13673 1.77614,-2.48659 1.77614,-2.48659 z"
         id="path52" />
      <path
         style="opacity:1;fill:#fd8b79;fill-opacity:1;stroke-width:2.117;stroke-linejoin:round;stroke-miterlimit:3.1;paint-order:markers stroke fill"
         d="m 91.430987,160.70754 c -1.381511,-0.17583 -2.963971,-0.9545 -3.240275,-0.87914 -0.276302,0.0754 0.627962,1.93411 3.893354,1.98435 3.265392,0.0502 3.365865,-1.05497 3.566814,-0.70331 0.200945,0.35165 2.712786,1.18056 2.00947,0.67819 -0.703315,-0.50237 -0.728432,-1.05497 0.326541,-1.38151 1.054973,-0.32654 2.712789,-1.68293 1.934115,-1.60758 -0.778669,0.0754 -6.354956,1.80853 -6.882442,1.85877 -0.527487,0.0502 -1.607577,0.0502 -1.607577,0.0502 z"
         id="path53" />
      <path
         style="opacity:1;fill:#fd8b79;fill-opacity:1;stroke-width:2.117;stroke-linejoin:round;stroke-miterlimit:3.1;paint-order:markers stroke fill"
         d="m 115.96414,157.79222 c -1.10121,-0.56837 -2.82407,-2.46884 -2.0248,-0.9236 0.79926,1.54525 2.09584,2.07809 2.22017,3.30362 0.12433,1.22554 -0.56836,2.66421 0.14209,1.66957 0.71046,-0.99463 1.2433,-1.61628 0.72822,-2.25569 -0.51508,-0.63941 -1.06568,-1.7939 -1.06568,-1.7939 z"
         id="path54" />
      <path
         style="opacity:1;fill:#fd8b79;fill-opacity:1;stroke-width:2.117;stroke-linejoin:round;stroke-miterlimit:3.1;paint-order:markers stroke fill"
         d="m 106.62762,144.80759 c -1.55734,-0.5526 -3.49146,-0.9545 -2.23554,-0.25118 1.25592,0.70331 2.13506,1.10521 2.48672,1.60757 0.35166,0.50237 -0.35166,-0.50236 0.0754,-0.42701 0.42701,0.0754 1.73317,-0.25118 0.90426,-0.62796 -0.82891,-0.37677 -1.2308,-0.30142 -1.2308,-0.30142 z"
         id="path55" />
    </g>
    <g
       inkscape:groupmode="layer"
       id="layer10"
       inkscape:label="O">
      <path
         id="path2"
         style="opacity:1;fill:#111b09;fill-opacity:1;stroke-width:2.117;stroke-linejoin:round;stroke-miterlimit:3.1;paint-order:markers stroke fill"
         d="m 92.28429,162.40972 c -3.433634,0.0272 -3.175517,0.23152 -3.175517,0.23152 0,0 -1.669226,0.0706 -3.196704,0.6568 -1.527478,0.58613 -0.977203,0.40867 -1.936316,0.65733 -0.959117,0.24866 -2.291334,0.42634 -2.770891,1.52755 -0.479556,1.10121 -0.710434,2.48654 -0.337447,2.45102 0.372991,-0.0355 -0.461624,-0.4084 0.799435,-0.10646 1.261056,0.30195 4.173771,-0.62166 6.056478,0.33745 1.882704,0.95911 7.051672,2.27359 10.177673,1.95389 3.125999,-0.3197 3.978289,-1.49211 3.765149,-3.05512 -0.21313,-1.56299 -0.3197,-2.59299 -1.705077,-3.26792 -1.385386,-0.67494 -3.410207,-0.95927 -5.967844,-1.38554 -0.643864,-0.10731 -1.21842,-0.004 -1.708939,-5.2e-4 z m -0.102837,0.85318 c 2.664207,0 4.263152,0.71036 5.64854,0.99454 1.385386,0.28418 2.557607,0.28429 2.948347,1.35002 0.39075,1.06568 0.46149,2.59276 -0.0713,2.77038 -0.53284,0.17761 -2.521904,1.24325 -6.109703,0.67489 -3.587797,-0.56837 -5.257426,-1.42051 -7.140133,-1.81126 -1.882704,-0.39075 -5.044137,-0.6041 -5.044137,-0.6041 0,0 0.177462,-0.92349 0.781348,-1.20767 0.603888,-0.28419 6.32284,-2.1668 8.987048,-2.1668 z"
         sodipodi:nodetypes="cccssssssssscsssssscsss" />
      <path
         style="opacity:1;fill:#111b09;fill-opacity:1;stroke-width:2.117;stroke-linejoin:round;stroke-miterlimit:3.1;paint-order:markers stroke fill"
         d="m 101.62906,167.87885 c 0,0 -0.0502,0.28885 1.14289,-0.23863 1.19312,-0.52748 0.75247,-1.43444 1.04241,-1.34383 0.20094,0.0628 0.20095,-0.0377 1.33127,0.0251 1.13033,0.0628 1.84621,-0.50237 1.77085,-0.70332 -0.0754,-0.20094 -0.0754,-0.71587 -0.3391,-0.64052 -0.26374,0.0754 -1.46942,0.41446 -2.0597,0.37678 -0.59029,-0.0377 -0.54005,-0.0251 -0.54005,-0.0251 0,0 0.25118,0.76611 -0.26374,0.25119 -0.51493,-0.51493 -0.80379,-1.49455 -0.72844,-1.49455 0.0754,0 0.91682,-0.0251 0.91682,-0.0251 0,0 0,0.69076 0.0754,0.70332 0.0754,0.0126 2.82582,-0.70332 3.36586,-0.42702 0.54005,0.2763 0.64052,1.20568 0.22607,1.77085 -0.41445,0.56516 -0.50237,0.57772 -1.60758,0.69076 -1.10521,0.11303 -1.73218,-0.0407 -1.74572,0.16325 -0.0611,0.92034 -1.36895,1.48199 -2.46161,1.67038 -1.09265,0.18839 -0.12559,-0.75355 -0.12559,-0.75355 z"
         id="path3"
         sodipodi:nodetypes="cssscsscssccssssscc" />
      <path
         style="opacity:1;fill:#111b09;fill-opacity:1;stroke-width:2.117;stroke-linejoin:round;stroke-miterlimit:3.1;paint-order:markers stroke fill"
         d="m 104.96981,163.04355 c 0,0 -1.55734,1.02986 -3.06445,1.0801 -1.5071,0.0502 -2.687667,-0.20095 -2.536958,-0.15072 0.15071,0.0502 1.431748,0.85403 1.431748,0.85403 0,0 1.43175,-0.0502 2.8635,-0.40189 1.43175,-0.35166 2.13506,-0.82891 2.1853,-0.62797 0.0502,0.20095 0.25119,0.77868 0.40189,0.77868 0.15071,0 2.10995,-0.52749 2.63744,-1.43175 0.52748,-0.90427 -0.37678,-1.20569 0.40189,-1.20569 0.77867,0 2.81326,-0.17583 3.4161,-0.8289 0.60285,-0.65308 0.27631,-1.98436 -0.45213,-1.98436 -0.72843,0 -3.08956,0.50237 -3.46634,0.47725 -0.37677,-0.0251 -0.46469,0.0754 -0.48981,-0.26374 -0.0251,-0.3391 0.80379,-0.82891 -0.37677,-1.25592 -1.18057,-0.42701 -1.83364,0.11303 -1.83364,0.11303 0,0 -0.3391,0.4019 0.0754,0.41446 0.41445,0.0126 1.48199,-0.4647 1.70805,0.0502 0.22607,0.51493 -0.8289,1.08009 0.6782,1.34384 1.5071,0.26374 3.55425,-0.37678 3.66729,-0.18839 0.11303,0.18839 0.41445,0.94194 0.12559,1.13033 -0.28886,0.18839 -3.30307,0.35165 -3.62961,0.46469 -0.32654,0.11303 0.43131,0.98156 -0.40348,1.42559 -0.83478,0.44404 -1.90046,1.13673 -1.75837,0.7815 0.14209,-0.35522 0.47955,-0.79926 0.15985,-0.92359 -0.3197,-0.12433 -1.74062,-0.69269 -1.52748,-0.87031 0.21314,-0.17761 1.50972,-0.62165 1.50972,-0.74598 0,-0.12433 -0.0178,-2.82406 -0.0178,-2.82406 l -0.5506,0.10657 c 0,0 -0.30194,0.87031 -0.30194,1.2433 0,0.37299 0.24866,1.17225 0.14209,1.26106 -0.10657,0.0888 -1.50972,0.67493 -1.49196,0.7815 -0.24862,0.51508 1.06565,1.39711 1.06565,1.39711 z"
         id="path4"
         sodipodi:nodetypes="ccscscssssssssccssssssssssccssccc" />
      <path
         style="opacity:1;fill:#111b09;fill-opacity:1;stroke-width:2.117;stroke-linejoin:round;stroke-miterlimit:3.1;paint-order:markers stroke fill"
         d="m 106.53283,158.18297 c 0,0 -1.97637,-1.37056 -5.59342,-0.36582 -3.617048,1.00473 -6.745398,2.56385 -8.729751,2.18708 -1.984354,-0.37678 -3.466341,-0.70332 -5.124156,-0.35166 -1.657813,0.35166 -1.808526,0 -2.536958,0.52749 -0.728435,0.52748 -0.979617,0.12559 -0.728435,0.62796 0.251185,0.50236 0.979617,1.2308 2.562077,1.65781 1.58246,0.42701 7.058271,0.50237 6.756852,0.20095 -0.301421,-0.30142 -1.080092,0.35166 -3.792879,-0.70332 -2.712788,-1.05497 -4.4938,-1.60079 -4.445957,-1.48198 0.125592,0.31188 2.260655,-0.3125 3.566813,-0.17584 1.339048,0.1401 3.215156,0.95451 5.073917,0.67821 1.858762,-0.27631 3.270748,-0.74136 3.948944,-0.96743 0.678198,-0.22606 4.742023,-1.49418 6.224013,-1.64489 1.48198,-0.15071 2.43648,0.47725 2.43648,0.47725 z"
         id="path5"
         sodipodi:nodetypes="cssssssssssssscc" />
      <path
         style="opacity:1;fill:#111b09;fill-opacity:1;stroke-width:2.117;stroke-linejoin:round;stroke-miterlimit:3.1;paint-order:markers stroke fill"
         d="m 94.970168,147.22419 c 0,0 -0.08881,-0.0178 -0.213136,0.49732 -0.12433,0.51508 0.03552,1.36762 0.03552,1.36762 0,0 0.834785,-0.0178 0.817023,-0.10656 -0.01775,-0.0888 -0.142089,-0.72822 -0.01775,-1.29659 l 0.12433,-0.56836 c 0,0 0.852548,-0.42627 1.154491,-0.37299 0.301942,0.0533 0,0.33747 1.580763,0.56836 1.580761,0.2309 1.296583,-0.14209 1.190014,0.071 -0.106569,0.21314 -0.24866,0.88807 -0.230899,1.43867 0.01775,0.55061 0.177615,0.99464 0.177615,0.99464 l 0.550601,0.14209 c 0,0 0.24866,-1.72285 0.24866,-2.27346 0,-0.5506 -0.12433,-0.53284 -0.0178,-0.72821 0.10657,-0.19538 0.2309,-0.95912 0.2309,-0.95912 l -0.24866,-0.81702 c 0,0 -0.24866,1.15449 -0.355232,1.20777 -0.106566,0.0533 0.03552,0.21314 -0.63941,0.0888 -0.674931,-0.12433 -1.68733,-0.56837 -2.664209,-0.37299 -0.976876,0.19538 -1.403149,0.90583 -1.580764,0.69269 -0.177612,-0.21313 -0.888068,-0.7815 -0.15985,-1.74061 0.728215,-0.95912 1.136726,-0.58613 1.136726,-0.58613 0,0 0.515083,0.28418 0.372991,-0.30194 -0.142091,-0.58613 -0.621649,-1.43868 -0.355229,-1.98928 0.266422,-0.5506 0.781502,-0.40851 0.781502,-0.40851 0,0 -0.106569,0.72822 0,1.20777 0.106569,0.47956 0.230899,0.58613 0.230899,0.58613 0,0 0.621647,0.15985 1.207773,0.21314 0.586126,0.0533 0.834787,0.10657 0.834787,0.10657 0,0 0.177615,-0.53285 -0.177615,-0.62165 -0.355227,-0.0888 -1.471072,-0.15661 -1.580764,-0.24866 -0.212251,-0.17811 0.08928,-1.62409 0.05328,-1.74062 -0.29574,-0.95718 -1.880183,-0.0989 -1.880183,0.39048 0,0.35523 0.281658,1.93621 0.033,2.04277 -0.248658,0.10657 -1.589341,0.76115 -1.598525,1.64294 -0.01776,1.70508 0.959114,1.87382 0.959114,1.87382 z"
         id="path6"
         sodipodi:nodetypes="cscsscssssccssccssssscsscscscsssssscc" />
      <path
         style="opacity:1;fill:#111b09;fill-opacity:1;stroke-width:2.117;stroke-linejoin:round;stroke-miterlimit:3.1;paint-order:markers stroke fill"
         d="m 89.318783,160.17551 c 0,0 0.767007,-1.10447 1.88597,-1.88597 1.118967,-0.78151 1.953754,-3.32138 1.953754,-3.32138 0,0 0.639411,-0.1421 0.745977,0.17761 0.106569,0.3197 -0.461796,2.73525 -1.81166,3.57004 -1.349867,0.83479 -1.600311,1.32853 -1.600311,1.32853 z"
         id="path7"
         sodipodi:nodetypes="cscsscc" />
      <path
         style="opacity:1;fill:#111b09;fill-opacity:1;stroke-width:2.117;stroke-linejoin:round;stroke-miterlimit:3.1;paint-order:markers stroke fill"
         d="m 90.050262,154.41755 c 0,0 -0.284181,0.14209 2.202412,0.81702 2.486597,0.67494 5.186329,0.63942 5.186329,0.63942 0,0 3.339137,-1.10121 2.202412,-1.42092 -1.136729,-0.3197 -3.054958,0.42628 -4.689006,0.24866 -1.634051,-0.17761 -5.079759,-1.34986 -5.079759,-1.34986 z"
         id="path8" />
      <path
         style="opacity:1;fill:#111b09;fill-opacity:1;stroke-width:2.117;stroke-linejoin:round;stroke-miterlimit:3.1;paint-order:markers stroke fill"
         d="m 91.400129,148.91152 c 0,0 -1.030161,0.7815 3.374665,0.92359 4.404826,0.14209 7.317696,1.66957 7.495306,1.63405 0.17762,-0.0355 0.95912,-0.21314 0.74598,-0.42627 -0.21314,-0.21314 -3.445711,-1.95376 -5.754692,-2.20242 -2.308979,-0.24866 -3.836461,-0.46179 -4.475872,-0.67493 -0.639408,-0.21313 -0.959114,-0.28418 -0.959114,-0.28418 z"
         id="path9" />
      <path
         style="opacity:1;fill:#111b09;fill-opacity:1;stroke-width:2.117;stroke-linejoin:round;stroke-miterlimit:3.1;paint-order:markers stroke fill"
         d="m 88.554929,147.62085 c 0,0 1.770849,-0.4898 2.637433,-0.2135 0.866585,0.2763 1.218242,0.45213 1.004737,0.56516 -0.213508,0.11303 -0.414454,1.06753 -0.816348,1.19313 -0.401894,0.12559 -1.230802,0.42701 -0.740995,-0.15071 0.48981,-0.57773 1.909,-1.06754 0.452133,-0.82891 -1.456867,0.23862 -2.763025,0.17583 -2.800702,0.0377 -0.03768,-0.13816 -0.690755,-0.38934 -0.891704,-1.08009 -0.200948,-0.69076 0.05024,-1.36896 -0.200948,-1.2936 -0.251182,0.0754 -1.381511,0.62796 -1.142886,1.40663 0.238625,0.77867 2.235538,1.87132 2.147623,2.07227 -0.08791,0.20094 -0.464691,0.41445 -0.301422,0.70331 0.163272,0.28886 0.263745,0.32654 -0.01257,0.36422 -0.276305,0.0377 -0.690759,0 -0.766112,-0.41446 -0.07536,-0.41445 -0.929381,-0.54004 -1.419191,-1.59502 -0.489809,-1.05497 -0.364217,-1.53222 0.07536,-1.97179 0.895577,-0.89558 1.967424,-1.79443 2.022031,-1.02982 0.02511,0.35165 -0.313981,0.97961 0.07536,1.55734 0.389334,0.57772 0.678196,0.67819 0.678196,0.67819 z"
         id="path10"
         sodipodi:nodetypes="cssssssscssssssssscc" />
      <path
         style="opacity:1;fill:#111b09;fill-opacity:1;stroke-width:2.117;stroke-linejoin:round;stroke-miterlimit:3.1;paint-order:markers stroke fill"
         d="m 91.104449,149.01493 c 0,0 -0.326541,1.29359 -0.47725,1.5071 -0.150712,0.21351 -0.226065,1.60758 -0.389337,1.75829 -0.163269,0.15071 -1.117769,-0.41445 -0.854025,-0.99218 0.263742,-0.57772 0.439571,-0.59028 0.816348,-1.33128 0.376777,-0.74099 0.904264,-0.94193 0.904264,-0.94193 z"
         id="path11" />
      <path
         style="opacity:1;fill:#111b09;fill-opacity:1;stroke-width:2.117;stroke-linejoin:round;stroke-miterlimit:3.1;paint-order:markers stroke fill"
         d="m 87.315007,150.15482 c 0,0 -0.532842,1.52748 -0.177612,2.71749 0.355227,1.19001 1.012399,1.43867 1.012399,1.43867 0,0 0.888069,1.2433 1.065683,1.2433 0.177615,0 0.248661,-0.99464 0.39075,-0.88807 0.142092,0.10657 0.674934,0.7815 0.852549,0.42628 0.177612,-0.35523 -0.444035,-3.30362 -0.444035,-3.30362 0,0 -0.266422,-0.4618 -0.266422,-0.33747 0,0.12433 -0.12433,1.74062 -0.266419,2.04256 -0.142092,0.30194 -0.05329,0.7815 -0.213138,0.71045 -0.159853,-0.071 -1.42091,-0.28418 -1.545241,-1.27881 -0.12433,-0.99464 0.08881,-2.77078 0.08881,-2.77078 z"
         id="path12" />
      <path
         id="path13"
         style="opacity:1;fill:#111b09;fill-opacity:1;stroke-width:2.117;stroke-linejoin:round;stroke-miterlimit:3.1;paint-order:markers stroke fill"
         d="m 111.36633,145.51618 c -0.43772,0.005 -0.87712,0.13631 -1.31672,0.48266 -1.17225,0.92359 -1.27907,2.59312 -1.84743,2.59312 -0.56837,0 -1.52724,-0.60417 -3.09025,-0.21342 -1.563,0.39075 -2.55753,0.63954 -2.02468,0.99477 0.39082,0.26055 0.0388,0.71077 0.29869,0.76481 -0.49674,0.47688 -1.61751,1.74795 -2.82102,2.71663 -1.45643,1.17225 -4.511544,5.64812 -4.973339,5.75469 -0.461794,0.10657 -2.62851,-0.17769 -1.598352,0.39067 1.030159,0.56836 2.451013,0.56844 2.451013,0.56844 l 0.923458,-0.21342 c 0,0 -1.704727,-0.0356 -1.136365,-0.56844 0.568365,-0.53284 4.369255,-4.12062 5.470465,-5.61258 0.87798,-1.18951 1.83928,-2.34166 2.45418,-2.56992 0.30894,0.22746 0.51445,0.2979 1.32854,0.70905 1.24336,0.62796 2.12287,1.08034 2.12287,1.18081 0,0.10048 -0.0628,2.24784 -0.25115,2.46135 -0.18838,0.2135 -1.51967,1.13019 -2.10995,1.58233 -0.59028,0.45213 -1.19321,1.05523 -1.19321,1.05523 0,0 0.26352,0.20074 0.5147,0.10026 0.25119,-0.10047 0.82901,-0.4645 1.06763,-0.678 0.17183,-0.15374 1.2723,-0.84115 1.87637,-1.50016 0.007,0.15175 0.10552,0.21128 0.6196,-0.0672 0.85255,-0.46179 2.80653,-2.55797 2.66444,-4.33411 -0.14209,-1.77612 -0.24908,-1.81126 -0.24908,-1.81126 0,0 4.12103,-2.69976 2.98431,-3.16156 -0.71044,-0.28862 -1.43518,-0.63275 -2.16472,-0.62477 z m 0.51263,1.2945 c 0.29043,-0.003 0.42558,0.0753 0.23719,0.29507 -0.37677,0.43957 -1.97179,1.88381 -2.10994,1.90893 -0.13816,0.0251 -0.25115,-0.12558 -0.25115,0.0377 0,0.16327 0.17558,0.27668 -0.0631,0.30179 -0.23863,0.0251 -0.66542,-0.52741 -0.38912,0.20102 0.2763,0.72844 1.10487,2.39837 0.56482,3.01377 -0.54004,0.6154 -1.59487,2.77564 -1.7079,1.60766 -0.11303,-1.16801 -0.16314,-2.10988 -0.1757,-2.32338 -0.009,-0.15555 -1.76339,-1.48451 -2.89285,-2.27583 0.6447,-0.25522 1.24747,-0.45268 2.15181,-0.45268 1.38539,0 1.4211,-0.17777 1.4211,-0.17777 0,0 1.17877,-1.72797 2.04535,-1.94148 0.4333,-0.10675 0.87901,-0.19168 1.16944,-0.19482 z"
         sodipodi:nodetypes="ssssscsssccsscsssscsscsscssssssssssscscss" />
      <path
         style="opacity:1;fill:#111b09;fill-opacity:1;stroke-width:2.117;stroke-linejoin:round;stroke-miterlimit:3.1;paint-order:markers stroke fill"
         d="m 108.56174,154.90519 c 0,0 0.5526,1.88388 1.02985,2.78814 0.47725,0.90427 0.47725,1.88389 0.47725,1.88389 0,0 0.85403,0 0.82891,-0.17583 -0.0251,-0.17583 -1.40663,-3.94359 -1.78341,-4.39573 -0.37677,-0.45213 -0.45213,-0.52748 -0.45213,-0.52748 z"
         id="path14" />
      <path
         style="opacity:1;fill:#111b09;fill-opacity:1;stroke-width:2.117;stroke-linejoin:round;stroke-miterlimit:3.1;paint-order:markers stroke fill"
         d="m 109.92549,152.7676 c 0,0 4.72278,3.62472 5.71964,5.45322 1.60095,2.93656 1.60758,3.11468 1.18056,4.49619 -0.42701,1.38152 -0.87915,2.78815 -1.53222,2.83838 -0.65308,0.0502 -0.42701,0.9545 -1.58246,0.4019 -1.15545,-0.55261 -1.909,-0.45213 -2.23554,-1.78341 -0.32654,-1.33127 -0.0754,-2.63743 -0.0754,-2.63743 l -0.37678,0.0502 c 0,0 -0.80379,1.48198 -0.0502,2.96397 0.75356,1.48198 1.93412,2.31089 2.51184,2.31089 0.57773,0 0.37678,-0.0502 0.92939,-0.22606 0.5526,-0.17583 1.06746,0.0908 1.93411,-1.13033 0.55261,-0.77867 2.13507,-3.1398 1.13033,-5.3251 -1.00474,-2.1853 -1.25592,-2.93886 -3.49146,-4.7725 -2.23553,-1.83365 -3.61705,-3.44122 -3.61705,-3.44122 z"
         id="path15"
         sodipodi:nodetypes="csssssccsssssscc" />
      <path
         style="opacity:1;fill:#111b09;fill-opacity:1;stroke-width:2.117;stroke-linejoin:round;stroke-miterlimit:3.1;paint-order:markers stroke fill"
         d="m 111.27453,165.00279 c 0,0.10047 -0.20095,1.30616 0.75355,3.08956 0.9545,1.78341 2.03459,0.32654 2.53696,1.25592 0.50236,0.92938 0,2.33601 1.02985,2.83838 1.02985,0.50237 2.61231,-1.01729 2.49928,-1.2936 -0.56336,-1.37715 -1.31871,-3.02676 -1.31871,-3.02676 0,0 1.53222,-0.9545 1.28103,-3.46634 -0.25118,-2.51184 -0.5526,-2.66255 -0.5526,-2.66255 0,0 -0.10047,1.02985 -0.10047,1.13032 0,0.10048 0.45213,1.10521 0.0251,2.63744 -0.42701,1.53222 -1.65781,2.56207 -1.65781,2.98909 0,0.42701 0,0.72843 0.10047,0.47725 0.10048,-0.25119 -0.0502,-0.50237 0.27631,-0.37678 0.32653,0.12559 1.10521,1.83364 1.13032,2.1853 0.0251,0.35166 -0.43799,0.62834 -1.17428,0.88543 -0.49002,0.1711 -0.75759,-0.003 -0.77239,-0.29515 0.0502,-0.90426 0.26374,-2.32345 -0.3391,-2.62487 -0.60284,-0.30142 -1.60758,-0.0502 -2.33601,-0.80379 -0.72844,-0.75355 -0.6782,-2.36113 -0.6782,-2.36113 z"
         id="path16"
         sodipodi:nodetypes="csssscscssssssscsscc" />
      <path
         style="opacity:1;fill:#111b09;fill-opacity:1;stroke-width:2.117;stroke-linejoin:round;stroke-miterlimit:3.1;paint-order:markers stroke fill"
         d="m 100.29859,145.66119 c 0,0 0.35522,1.29658 1.70509,2.13136 1.34987,0.83479 1.91822,1.15449 1.91822,1.15449 l 0.97689,-0.33746 c 0,0 -1.58077,-0.56837 -2.55764,-1.50972 -0.97688,-0.94136 -0.79927,-0.95912 -0.74598,-1.11897 0.0533,-0.15985 -0.10655,-1.84719 0.44404,-1.936 0.5506,-0.0888 0.71045,-1.47419 1.26105,-1.15448 0.5506,0.3197 4.26274,2.93063 5.02648,3.28586 0.76374,0.35522 1.15449,0.88807 1.15449,0.88807 0,0 1.15449,-0.30195 0.90583,-0.42627 -0.24866,-0.12433 0.69269,0.30194 -2.43332,-1.63405 -3.126,-1.936 -3.17928,-2.13137 -3.17928,-2.13137 0,0 1.29658,-0.39075 -0.0888,-2.09585 -1.38539,-1.70509 -1.88271,-0.53284 -1.86495,-0.12433 0.0178,0.40851 0,-0.071 0.9236,0.56837 0.92359,0.63941 1.43867,0.81702 1.04792,1.15449 l -0.39075,0.33746 c 0,0 -0.63941,-0.87031 -1.03016,-0.95911 -0.39075,-0.0888 -0.40852,0.21314 -0.21314,0.39075 0.19538,0.17761 -0.58612,-0.40851 -0.58612,0 v 0.44403 c 0,0 -0.58613,-0.0533 -0.99464,0.81703 -0.40852,0.8703 -0.30195,1.74061 -0.51508,1.72285 -0.21314,-0.0178 -0.55061,-0.53284 -0.72822,-0.19537 -0.17761,0.33747 -0.0355,0.72822 -0.0355,0.72822 z"
         id="path17"
         sodipodi:nodetypes="csccssssscsscsccscssscscscc" />
      <path
         style="opacity:1;fill:#111b09;fill-opacity:1;stroke-width:2.117;stroke-linejoin:round;stroke-miterlimit:3.1;paint-order:markers stroke fill"
         d="m 99.836792,141.66487 c -0.07993,0.21314 -0.701576,1.07456 -0.719337,1.96263 -0.01775,0.88807 0.994635,1.75838 0.985755,1.34099 -0.009,-0.41739 -0.364108,-0.24866 -0.186493,-1.48308 0.177613,-1.23441 0.657173,-1.50083 0.630533,-1.87382 -0.0267,-0.37299 -1.012404,-1.55412 -0.621654,-1.86495 0.390754,-0.31082 0.737104,-0.35523 0.825904,0.0178 0.0888,0.37298 0.22202,1.38538 0.56837,1.29658 0.34634,-0.0888 1.09232,-0.0977 1.26106,-0.39075 0.16873,-0.29307 -0.98576,-0.11545 -0.99464,-0.43516 -0.009,-0.3197 -0.50455,-1.40017 -1.03737,-1.40906 -0.53284,-0.009 -1.085119,0.3789 -1.466987,0.75189 -0.381871,0.37299 0.754859,2.08697 0.754859,2.08697 z"
         id="path18"
         sodipodi:nodetypes="cscscssssccscc" />
      <path
         style="opacity:1;fill:#111b09;fill-opacity:1;stroke-width:2.117;stroke-linejoin:round;stroke-miterlimit:3.1;paint-order:markers stroke fill"
         d="m 112.64816,147.56304 c 0.26968,-0.0699 0.75339,0.69707 1.909,0 2.35247,-1.41903 3.13962,-3.37429 3.74264,-3.16491 1.27505,0.51699 -2.34356,8.6573 -8.16348,5.77723 l 0.0251,-0.69075 c 0,0 1.52059,1.24998 3.56682,0.36421 1.33558,-0.57815 1.909,-1.08009 2.91374,-2.00947 1.00474,-0.92938 1.60757,-2.81326 1.38151,-2.56208 -0.22607,0.25118 -1.98436,2.38625 -3.11469,2.81327 -1.13032,0.42701 -1.13032,0.36421 -1.75828,0.38933 -0.62796,0.0251 -1.69549,-0.55261 -1.36895,-0.60284 0.32654,-0.0502 0.86658,-0.31399 0.86658,-0.31399 z"
         id="path19"
         sodipodi:nodetypes="cscccssssssc" />
    </g>
  </g>
</svg>
