<?xml version="1.0" encoding="UTF-8" standalone="no"?>
<!-- Created with Inkscape (http://www.inkscape.org/) -->

<svg
   width="33.251904mm"
   height="29.387707mm"
   viewBox="0 0 33.251904 29.387707"
   version="1.1"
   id="svg1"
   inkscape:version="1.3 (0e150ed6c4, 2023-07-21)"
   sodipodi:docname="merica_pepper.svg"
   xmlns:inkscape="http://www.inkscape.org/namespaces/inkscape"
   xmlns:sodipodi="http://sodipodi.sourceforge.net/DTD/sodipodi-0.dtd"
   xmlns="http://www.w3.org/2000/svg"
   xmlns:svg="http://www.w3.org/2000/svg">
  <sodipodi:namedview
     id="namedview1"
     pagecolor="#ffffff"
     bordercolor="#000000"
     borderopacity="0.25"
     inkscape:showpageshadow="2"
     inkscape:pageopacity="0.0"
     inkscape:pagecheckerboard="0"
     inkscape:deskcolor="#d1d1d1"
     inkscape:document-units="mm"
     inkscape:zoom="2.6333614"
     inkscape:cx="42.151449"
     inkscape:cy="47.65772"
     inkscape:window-width="1920"
     inkscape:window-height="974"
     inkscape:window-x="-11"
     inkscape:window-y="-11"
     inkscape:window-maximized="1"
     inkscape:current-layer="layer2" />
  <defs
     id="defs1">
    <pattern
       id="EMFhbasepattern"
       patternUnits="userSpaceOnUse"
       width="6"
       height="6"
       x="0"
       y="0" />
  </defs>
  <g
     inkscape:groupmode="layer"
     id="layer2"
     inkscape:label="Layer 2"
     transform="translate(-68.522297,-123.79494)">
    <path
       style="opacity:0.5;fill:#000000;stroke-width:2.117;stroke-linejoin:round;stroke-miterlimit:3.1;paint-order:markers stroke fill"
       d="m 98.879124,143.68871 c -0.342778,-5.1267 -10.906931,-7.03771 -15.071044,-7.53552 -6.687446,-0.79948 -14.875335,0.64373 -15.271989,6.73174 -0.4606,7.06948 10.718977,10.77526 17.78383,10.2483 4.864833,-0.36286 12.88465,-4.57704 12.559203,-9.44452 z"
       id="path1"
       sodipodi:nodetypes="sssss" />
    <g
       inkscape:groupmode="layer"
       id="layer3"
       inkscape:label="Layer 3">
      <path
         style="opacity:1;fill:#c38a72;fill-opacity:1;stroke-width:2.117;stroke-linejoin:round;stroke-miterlimit:3.1;paint-order:markers stroke fill"
         d="m 99.24281,130.33939 1.53089,3.24849 c 0,0 0.55394,4.61357 0.27763,5.04058 -0.2763,0.42702 -1.481982,3.91848 -1.481982,3.91848 0,0 -1.783405,2.81326 -2.336009,3.11468 -0.552606,0.30142 -4.621786,2.48672 -4.621786,2.48672 0,0 -5.124157,1.02986 -6.480548,0.85403 -1.356395,-0.17583 -1.230802,-1.00474 -2.662553,-0.72844 -1.431747,0.27631 -3.365865,-0.30142 -4.54643,-1.08009 -1.180566,-0.77867 -7.133627,-4.3706 -8.113244,-6.15401 -0.979617,-1.7834 -0.979617,-3.29051 -0.979617,-4.42084 0,-1.13032 1.105209,-4.32036 2.109946,-5.42557 1.004736,-1.10521 3.541694,-3.16492 5.777232,-3.74264 2.235539,-0.57773 9.017506,-1.6327 9.444519,-1.6327 0.427014,0 0.452131,0.12559 0.62796,0 0.175829,-0.12559 0.728435,-0.82891 0.728435,-0.82891 0,0 0.401894,-0.77867 0.577723,-0.47725 0.175828,0.30142 2.260655,1.93412 2.411367,2.00948 0.150709,0.0754 0.803788,-0.35166 1.130327,-0.25119 0.32654,0.10047 0.854027,0.12559 0.92938,0.35166 0.07536,0.22606 0.02511,0.30142 0.125593,0.47725 0.100473,0.17583 2.235538,1.13033 3.315628,1.83364 1.080093,0.70332 2.235539,1.40663 2.235539,1.40663 z"
         id="path28" />
      <path
         id="path29"
         style="opacity:1;fill:#eac1b9;fill-opacity:1;stroke-width:2.117;stroke-linejoin:round;stroke-miterlimit:3.1;paint-order:markers stroke fill"
         d="m 70.264151,134.13384 -0.461988,2.23811 c 0,0 -0.852682,1.77639 -0.03566,1.84743 0.817022,0.0711 0.817311,-0.78178 1.172538,-0.21342 0.35523,0.56837 2.238068,2.73525 2.913,3.83646 0.222789,0.36349 0.379577,0.53333 0.500228,0.63768 -0.120322,0.043 -0.250063,0.0932 -0.390674,0.15348 -1.054975,0.45213 -0.225955,1.25622 -0.05013,1.5074 l 0.929142,0.75345 0.06201,-0.25012 c 1.133866,0.92018 4.249271,2.9624 5.41414,3.20136 1.385389,0.28418 2.451436,0.49764 2.700094,0.49764 0.24866,0 1.029911,-0.21342 1.029911,-0.21342 0,0 1.705111,-0.63937 0.14211,-1.63401 -1.563,-0.99464 -2.451089,-1.49168 -2.060339,-1.70481 0.390749,-0.21314 1.350016,0.71001 1.136881,-0.39119 -0.213138,-1.10121 0.7815,-0.99427 -1.918229,-1.13636 -2.699728,-0.1421 -3.978434,-1.10124 -5.861141,-2.20245 -1.882704,-1.1012 -3.090365,-2.16687 -3.942912,-2.73523 -0.852545,-0.56837 0.319361,-0.53279 0.319361,-0.53279 z" />
      <path
         style="opacity:1;fill:#eac1b9;fill-opacity:1;stroke-width:2.117;stroke-linejoin:round;stroke-miterlimit:3.1;paint-order:markers stroke fill"
         d="m 89.623989,144.34684 c -0.159851,0 -1.172252,-0.51508 -2.344502,-0.2309 -1.172252,0.28419 -2.681973,0.72822 -1.793902,0.81703 0.888069,0.0888 2.841824,0.24866 3.889746,-0.0355 1.047922,-0.28418 0.248658,-0.5506 0.248658,-0.5506 z"
         id="path33" />
      <path
         style="opacity:1;fill:#eac1b9;fill-opacity:1;stroke-width:2.117;stroke-linejoin:round;stroke-miterlimit:3.1;paint-order:markers stroke fill"
         d="m 99.996642,131.8961 c 0,0 -1.190014,0.47956 -0.710454,1.84719 0.479558,1.36763 0.834782,3.97855 0.479558,5.062 -0.35523,1.08344 -3.250335,3.69437 -3.712131,3.87198 -0.461798,0.17761 -1.154491,0.42628 -0.12433,0.56836 1.03016,0.1421 1.278818,0.21314 2.610924,-0.65717 1.332106,-0.8703 1.918231,-1.95375 1.918231,-1.95375 0,0 1.06568,-3.80094 1.08344,-4.42259 0.0178,-0.62165 -0.87988,-2.87736 -1.04943,-3.29181 -0.16955,-0.41445 -0.45213,-0.83519 -0.45213,-0.83519 z"
         id="path34" />
      <path
         style="opacity:1;fill:#eac1b9;fill-opacity:1;stroke-width:2.117;stroke-linejoin:round;stroke-miterlimit:3.1;paint-order:markers stroke fill"
         d="m 72.893604,131.06783 c 0,0 0.50237,-0.17583 -0.276301,1.53222 -0.778672,1.70805 -1.10521,0.97962 -1.205683,2.48672 -0.100473,1.5071 0.703316,2.33601 0.703316,2.33601 0,0 -1.481987,-1.25592 -1.632696,-2.16018 -0.150712,-0.90426 -0.07536,-2.00947 0.100472,-2.08483 0.175829,-0.0754 2.310892,-2.10994 2.310892,-2.10994 z"
         id="path35" />
      <path
         style="opacity:1;fill:#f9e8a9;fill-opacity:1;stroke-width:2.117;stroke-linejoin:round;stroke-miterlimit:3.1;paint-order:markers stroke fill"
         d="m 72.750666,138.00602 c -0.213138,-0.37298 -0.301943,-1.77614 -0.26642,-2.02479 0.03552,-0.24866 1.491957,-0.85255 1.491957,-0.85255 0,0 1.722855,-0.87031 1.474194,-1.08345 -0.248658,-0.21313 -0.90583,-0.8703 -0.674933,-1.38538 0.230899,-0.51508 1.296583,-0.65718 1.296583,-0.65718 0,0 0.08881,-1.7939 0.728218,-2.1136 0.63941,-0.31971 1.669571,0.0533 1.669571,0.0533 l 1.278818,-0.21313 c 0,0 -0.603887,-0.95912 0.05329,-1.19002 0.657172,-0.2309 1.90047,0.2309 1.90047,0.2309 0,0 0.657172,-0.30194 0.657172,-0.37299 0,-0.071 -0.47956,-1.17225 0.621646,-1.22553 1.101207,-0.0533 2.095847,0.47955 2.095847,0.47955 0,0 0.692692,0.47956 1.243296,0.26642 0.550603,-0.21313 1.314344,0.76374 1.314344,0.76374 0,0 -0.03552,-2.46883 0.301942,-3.10824 0.337468,-0.63941 1.38539,-1.11897 1.456436,-1.10121 0.07105,0.0178 1.438672,3.42795 1.545241,3.42795 0.106569,0 0.337465,-0.19537 0.444034,-0.2309 0.106569,-0.0355 -0.213137,-0.74598 0.337466,-1.04792 0.550603,-0.30194 1.367628,-0.76374 1.491959,-0.40851 0.124327,0.35523 0.479557,1.19001 0.479557,1.19001 0,0 1.456433,1.17225 1.598525,1.45644 0.142092,0.28418 0.621649,1.06568 0.621649,1.06568 l -0.12433,0.42627 c 0,0 -0.230899,1.19002 -0.692695,1.19002 -0.461796,0 -0.976876,-0.35523 -0.976876,-0.35523 0,0 -0.159853,0.83479 0.03552,1.13673 0.195376,0.30194 0.408511,0.62165 0.408511,0.62165 0,0 0.03552,-0.51508 0.568365,-0.47956 0.532842,0.0355 1.047922,0.15985 1.047922,0.15985 0,0 0.142092,-0.81702 1.172252,-0.17761 1.030161,0.63941 1.456433,1.08344 1.456433,1.08344 l -0.603885,0.90583 -0.905832,0.76374 c 0,0 0.905832,-0.65717 1.509717,-0.49731 0.603888,0.15985 0.74598,0.5506 0.74598,0.5506 l -1.42091,3.42795 -5.143371,2.83612 c 0,0 -7.133627,0.70332 -7.334572,0.70332 -0.200949,0 -6.807089,-0.75355 -8.439785,-1.48199 -1.632696,-0.72843 -4.463304,-2.73239 -4.463304,-2.73239 z"
         id="path36" />
      <path
         style="opacity:1;fill:#f7f0d7;fill-opacity:1;stroke-width:2.117;stroke-linejoin:round;stroke-miterlimit:3.1;paint-order:markers stroke fill"
         d="m 81.382702,136.99363 c -1.083445,0.26642 -2.646447,1.34986 -0.959114,2.04256 1.687332,0.69269 1.90047,-0.94136 1.90047,-0.94136 l -0.266422,-0.5506 z"
         id="path38" />
      <path
         style="fill:#f7f0d7;fill-opacity:1;stroke-width:2.117;stroke-linejoin:round;stroke-miterlimit:3.1;paint-order:markers stroke fill"
         d="m 86.938974,132.47173 c -1.083445,0.26642 -2.646447,1.34986 -0.959114,2.04256 1.687332,0.69269 1.90047,-0.94136 1.90047,-0.94136 l -0.266422,-0.5506 z"
         id="path38-2" />
      <path
         style="fill:#f7f0d7;fill-opacity:1;stroke-width:2.117;stroke-linejoin:round;stroke-miterlimit:3.1;paint-order:markers stroke fill"
         d="m 83.180903,130.35384 c -1.083445,0.26642 -2.646447,1.34986 -0.959114,2.04256 1.687332,0.69269 1.90047,-0.94136 1.90047,-0.94136 l -0.266422,-0.5506 z"
         id="path38-3" />
      <path
         style="fill:#f7f0d7;fill-opacity:1;stroke-width:2.117;stroke-linejoin:round;stroke-miterlimit:3.1;paint-order:markers stroke fill"
         d="m 77.739795,134.50511 c -1.083445,0.26642 -2.646447,1.34986 -0.959114,2.04256 1.687332,0.69269 1.90047,-0.94136 1.90047,-0.94136 l -0.266422,-0.5506 z"
         id="path38-31" />
      <path
         style="fill:#f7f0d7;fill-opacity:1;stroke-width:2.117;stroke-linejoin:round;stroke-miterlimit:3.1;paint-order:markers stroke fill"
         d="m 90.852608,133.19688 c -1.083445,0.26642 -2.646447,1.34986 -0.959114,2.04256 1.687332,0.69269 1.90047,-0.94136 1.90047,-0.94136 l -0.266422,-0.5506 z"
         id="path38-5" />
      <path
         style="fill:#f7f0d7;fill-opacity:1;stroke-width:2.117;stroke-linejoin:round;stroke-miterlimit:3.1;paint-order:markers stroke fill"
         d="m 89.178128,128.37681 c -1.083445,0.26642 -2.646447,1.34986 -0.959114,2.04256 1.687332,0.69269 1.90047,-0.94136 1.90047,-0.94136 l -0.266422,-0.5506 z"
         id="path38-6" />
      <path
         style="fill:#f7f0d7;fill-opacity:1;stroke-width:2.117;stroke-linejoin:round;stroke-miterlimit:3.1;paint-order:markers stroke fill"
         d="m 85.476048,139.75392 c -0.790105,0.19429 -1.929929,0.98439 -0.699436,1.48954 1.230492,0.50515 1.385923,-0.68649 1.385923,-0.68649 l -0.194289,-0.40152 z"
         id="path38-7" />
      <path
         style="fill:#f7f0d7;fill-opacity:1;stroke-width:2.117;stroke-linejoin:round;stroke-miterlimit:3.1;paint-order:markers stroke fill"
         d="m 89.691215,139.50993 c -0.790105,0.19429 -1.929929,0.98439 -0.699436,1.48954 1.230492,0.50515 1.385923,-0.68649 1.385923,-0.68649 l -0.194289,-0.40152 z"
         id="path38-7-4" />
      <path
         style="fill:#f7f0d7;fill-opacity:1;stroke-width:2.117;stroke-linejoin:round;stroke-miterlimit:3.1;paint-order:markers stroke fill"
         d="m 87.931289,134.56245 c -0.790105,0.19429 -1.929929,0.98439 -0.699436,1.48954 1.230492,0.50515 1.385923,-0.68649 1.385923,-0.68649 l -0.194289,-0.40152 z"
         id="path38-7-2" />
      <path
         style="fill:#d8be62;fill-opacity:1;stroke-width:2.117;stroke-linejoin:round;stroke-miterlimit:3.1;paint-order:markers stroke fill"
         d="m 86.669464,137.07761 c -0.849069,-0.66071 -2.558453,1.24478 -0.927223,1.88355 1.631229,0.63877 1.617808,-0.22728 1.83728,-0.86808 0.06149,-0.17954 -0.13684,-0.36131 -0.257564,-0.50773 -0.175314,-0.21264 -0.652493,-0.50774 -0.652493,-0.50774 z"
         id="path38-7-9"
         sodipodi:nodetypes="sssss" />
      <path
         style="fill:#d8be62;fill-opacity:1;stroke-width:2.117;stroke-linejoin:round;stroke-miterlimit:3.1;paint-order:markers stroke fill"
         d="m 88.66943,137.90098 c -0.924985,-0.50545 -2.787206,0.95227 -1.010127,1.44094 1.777078,0.48867 1.762457,-0.17387 2.001552,-0.66409 0.06699,-0.13735 -0.149075,-0.27641 -0.280593,-0.38842 -0.190988,-0.16268 -0.710832,-0.38843 -0.710832,-0.38843 z"
         id="path38-7-9-3"
         sodipodi:nodetypes="sssss" />
      <path
         style="fill:#d8be62;fill-opacity:1;stroke-width:2.117;stroke-linejoin:round;stroke-miterlimit:3.1;paint-order:markers stroke fill"
         d="m 90.975647,130.47642 c -0.849069,-0.66071 -2.558453,1.24478 -0.927223,1.88355 1.631229,0.63877 1.617808,-0.22728 1.83728,-0.86808 0.06149,-0.17954 -0.13684,-0.36131 -0.257564,-0.50773 -0.175314,-0.21264 -0.652493,-0.50774 -0.652493,-0.50774 z"
         id="path38-7-9-9"
         sodipodi:nodetypes="sssss" />
      <path
         style="fill:#d8be62;fill-opacity:1;stroke-width:2.117;stroke-linejoin:round;stroke-miterlimit:3.1;paint-order:markers stroke fill"
         d="m 84.036289,132.93041 c -0.849069,-0.3502 -2.558453,0.65977 -0.927223,0.99833 1.631229,0.33857 1.617808,-0.12046 1.83728,-0.46011 0.06149,-0.0952 -0.13684,-0.1915 -0.257564,-0.26911 -0.175314,-0.1127 -0.652493,-0.26911 -0.652493,-0.26911 z"
         id="path38-7-9-4"
         sodipodi:nodetypes="sssss" />
      <path
         style="opacity:1;fill:#d8be62;fill-opacity:1;stroke-width:2.117;stroke-linejoin:round;stroke-miterlimit:3.1;paint-order:markers stroke fill"
         d="m 79.055962,138.10371 c -0.08881,-0.0622 0.150971,-1.27882 -0.808144,-0.40851 -0.959117,0.87031 -0.630531,1.66069 -0.630531,1.66069 0,0 -0.621649,-0.63053 -1.056801,-0.24866 -0.435155,0.38187 -0.781503,1.7939 0.355227,1.82943 1.136729,0.0355 1.269939,-0.67494 1.269939,-0.67494 0,0 0.639411,0.77262 1.243298,-0.0888 0.603888,-0.86142 0.25754,-1.0568 -0.05328,-1.21665 -0.310825,-0.15985 -0.319704,-0.85255 -0.319704,-0.85255 z"
         id="path39" />
      <path
         style="opacity:1;fill:#d8be62;fill-opacity:1;stroke-width:2.117;stroke-linejoin:round;stroke-miterlimit:3.1;paint-order:markers stroke fill"
         d="m 95.123393,136.29245 c 0,0 1.412909,0.47725 1.155446,-0.42701 -0.257463,-0.90426 -2.499281,-1.08009 -2.078548,-0.35166 0.420732,0.72844 0.923102,0.77867 0.923102,0.77867 z"
         id="path40" />
      <path
         style="opacity:1;fill:#d8be62;fill-opacity:1;stroke-width:2.117;stroke-linejoin:round;stroke-miterlimit:3.1;paint-order:markers stroke fill"
         d="m 81.182677,130.71617 c -0.200945,-0.15071 -1.130326,-1.5071 -1.632696,-0.40189 -0.502367,1.1052 -0.502367,1.18056 -0.502367,1.18056 0,0 -1.105209,-1.50711 -1.55734,-0.25118 -0.452133,1.25591 1.934117,0.9545 1.934117,0.9545 0,0 1.054971,0.42701 1.632697,0.12559 0.577723,-0.30142 0.703315,-0.82891 0.703315,-0.82891 z"
         id="path41" />
    </g>
    <g
       inkscape:groupmode="layer"
       id="layer4"
       inkscape:label="Layer 4">
      <path
         style="opacity:1;fill:#111b09;fill-opacity:1;stroke-width:2.117;stroke-linejoin:round;stroke-miterlimit:3.1;paint-order:markers stroke fill"
         d="m 69.879397,134.28298 c 0,0.90426 -2.160183,4.27013 1.456867,8.08813 3.61705,3.818 7.284336,5.97818 9.042625,6.48055 1.758289,0.50236 3.265392,-0.30143 4.169656,0.10047 0.904261,0.40189 2.612313,0.40189 3.968708,0.40189 1.356394,0 7.284336,-1.20568 9.896649,-4.21989 2.612318,-3.0142 4.069188,-8.84168 3.014208,-11.10233 -1.05497,-2.26066 -1.21833,-1.60285 -1.21833,-1.60285 0,0 0.3197,1.1012 0.56836,2.69973 0.24866,1.59852 -0.17761,6.96246 -2.841819,9.30697 -2.664208,2.3445 -4.902144,3.37466 -8.028149,3.80094 -3.126007,0.42627 -4.600201,0.14209 -5.079759,-0.0711 -0.479557,-0.21313 -0.461795,-0.67493 -1.456433,-0.69269 -0.994638,-0.0178 -0.976879,0.30194 -1.367629,0.26642 -0.390749,-0.0355 -5.34194,-2.289 -7.803544,-3.89658 -2.461602,-1.60758 -4.159555,-4.85068 -4.174271,-5.86908 -0.02396,-1.65841 0.405468,-3.74086 0.405468,-3.74086 z"
         id="path2"
         sodipodi:nodetypes="csssssscsssccssscc" />
      <path
         id="path3"
         style="opacity:1;fill:#111b09;fill-opacity:1;stroke-width:2.117;stroke-linejoin:round;stroke-miterlimit:3.1;paint-order:markers stroke fill"
         d="m 85.710014,125.45229 c -2.88455,-0.0374 -5.577439,0.53818 -8.874394,2.0035 -4.795573,2.13136 -5.221829,4.12058 -5.612577,4.36924 -0.39075,0.24866 -0.710342,0.21303 -1.065568,1.06557 -0.355229,0.85255 -0.248564,1.52755 -0.248564,1.52755 0,0 0.781408,5.82577 10.798824,7.95714 10.017414,2.13136 17.832331,-2.06039 18.471741,-4.4049 0.639409,-2.3445 0.923644,-3.33908 0.42633,-3.41013 -0.497317,-0.071 -0.141864,6.32298 -11.722281,7.10448 -11.580415,0.7815 -16.269331,-4.97289 -16.553512,-5.39916 -0.284183,-0.42628 -0.639429,-2.55761 -0.14211,-2.73523 0.497317,-0.17761 0.745846,-0.24876 0.923458,-0.71055 0.177614,-0.4618 2.024493,-3.87193 7.317382,-5.32836 3.477027,-0.95677 5.574502,-1.40458 8.181413,-1.26297 0.0558,-0.22875 0.131939,-0.44607 0.214974,-0.64492 -0.722629,-0.0752 -1.42534,-0.12232 -2.115116,-0.13126 z m 7.932849,1.5198 c -0.0656,0.22492 -0.134891,0.44885 -0.205155,0.66198 0.961191,0.38974 1.815131,0.80585 2.438094,1.1715 1.634046,0.95912 3.729889,2.48676 3.836458,3.05512 0.106569,0.56836 -0.24862,1.20775 0.28422,0.817 0.53284,-0.39076 0.53278,-1.45661 -0.42633,-2.23811 -0.685309,-0.5584 -2.970112,-2.25673 -5.927287,-3.46749 z" />
      <path
         style="opacity:1;fill:#111b09;fill-opacity:1;stroke-width:2.117;stroke-linejoin:round;stroke-miterlimit:3.1;paint-order:markers stroke fill"
         d="m 87.687998,124.79155 c -0.01775,0.2309 -0.781502,1.93599 -0.08881,2.2557 0.692695,0.3197 1.278821,0.14209 0.90583,-0.0888 -0.372988,-0.2309 -0.39075,-0.24866 -0.195374,-0.42628 0.195374,-0.17761 -0.426275,-1.13672 0.177612,-1.27882 0.603888,-0.14209 0.301946,-0.26642 1.030161,0.31971 0.728218,0.58613 0.834787,1.65181 1.296583,1.74061 0.461795,0.0888 1.012401,-1.58076 0.31971,-2.3445 -0.692695,-0.76374 -0.657172,-1.20777 -1.847186,-1.17225 -1.190013,0.0355 -1.598525,0.99464 -1.598525,0.99464 z"
         id="path4"
         sodipodi:nodetypes="ssssssssscs" />
      <path
         style="opacity:1;fill:#111b09;fill-opacity:1;stroke-width:2.117;stroke-linejoin:round;stroke-miterlimit:3.1;paint-order:markers stroke fill"
         d="m 88.981943,127.72708 c -0.626476,-0.3199 -2.67511,0.0754 -1.984354,1.99692 0.690756,1.92155 1.042414,1.31871 1.042414,0.70331 0,-0.6154 -0.62796,-0.77867 -0.251185,-1.26848 0.376777,-0.48981 1.44431,-0.87915 1.720612,-0.20095 0.276301,0.6782 0.427013,1.11777 0.200945,1.30616 -0.226065,0.18839 -0.288861,0.62796 -0.05024,0.37677 0.238625,-0.25118 0.778671,0.11304 0.590283,-0.87914 -0.188389,-0.99218 -0.261797,-1.2733 -0.678197,-1.73317 -0.148287,-0.16377 -0.590278,-0.30142 -0.590278,-0.30142 z"
         id="path5"
         sodipodi:nodetypes="ssssssssss" />
      <path
         style="opacity:1;fill:#111b09;fill-opacity:1;stroke-width:2.117;stroke-linejoin:round;stroke-miterlimit:3.1;paint-order:markers stroke fill"
         d="m 91.807763,127.22472 c 0,0 -1.281038,-0.48981 -1.43175,0.42701 -0.15071,0.91682 0.891704,2.02203 0.96706,1.39407 0.07536,-0.62796 -0.326541,-0.70331 -0.02511,-0.69076 0.301421,0.0126 1.029856,-0.0502 1.080092,0.32654 0.05024,0.37678 -0.313981,0.6782 -0.313981,0.6782 0,0 0.816348,0.42701 0.690756,-0.57772 -0.125592,-1.00474 -0.967057,-1.55734 -0.967057,-1.55734 z"
         id="path6" />
      <path
         style="opacity:1;fill:#111b09;fill-opacity:1;stroke-width:2.117;stroke-linejoin:round;stroke-miterlimit:3.1;paint-order:markers stroke fill"
         d="m 93.33612,127.79322 c 0.12433,-0.0355 1.277785,-0.75209 0.372991,-1.58076 -0.900098,-0.82437 -1.849709,-0.33137 -2.187177,0.006 -0.337466,0.33747 -0.259123,1.28519 0.07357,1.11287 0.337041,-0.17458 -0.07533,-0.22538 0.586126,-0.55061 0.967035,-0.47548 1.420913,0.19538 1.136729,0.44404 -0.284181,0.24866 -0.07105,0.56836 -0.07105,0.56836 z"
         id="path7"
         sodipodi:nodetypes="cssssscc" />
      <path
         style="opacity:1;fill:#111b09;fill-opacity:1;stroke-width:2.117;stroke-linejoin:round;stroke-miterlimit:3.1;paint-order:markers stroke fill"
         d="m 86.884557,131.34413 c -0.301422,0.10047 -1.808525,-0.80379 -2.562077,1.15544 -0.753552,1.95924 1.180563,2.61232 1.054973,2.0346 -0.125593,-0.57773 -0.200949,-1.909 0.627959,-1.83365 0.828908,0.0754 1.58246,0.4019 1.58246,0.57773 0,0.17582 0,0.8289 0,0.8289 l 0.502367,0.42702 c 0,0 0.879144,-0.87915 0.05024,-1.98436 -0.828907,-1.10521 -1.255918,-1.20568 -1.255918,-1.20568 z"
         id="path8" />
      <path
         style="fill:#111b09;fill-opacity:1;stroke-width:2.117;stroke-linejoin:round;stroke-miterlimit:3.1;paint-order:markers stroke fill"
         d="m 96.944331,135.06596 c 0.21045,0.0847 1.262694,-0.67743 1.788817,0.97379 0.526122,1.65123 -0.824258,2.20165 -0.736573,1.71474 0.0877,-0.4869 0.140301,-1.60889 -0.438435,-1.54538 -0.578735,0.0636 -1.104857,0.33872 -1.104857,0.48691 0,0.14818 0,0.69859 0,0.69859 l -0.350747,0.35988 c 0,0 -0.61381,-0.74094 -0.03508,-1.6724 0.578735,-0.93146 0.87687,-1.01613 0.876871,-1.01613 z"
         id="path8-6" />
      <path
         style="opacity:1;fill:#111b09;fill-opacity:1;stroke-width:2.117;stroke-linejoin:round;stroke-miterlimit:3.1;paint-order:markers stroke fill"
         d="m 87.864174,133.98156 c -0.427014,0.10047 -1.758289,-0.62796 -1.858762,0.72844 -0.100473,1.35639 1.230802,2.88861 1.255919,1.90899 0.02511,-0.97961 -0.125592,-2.13506 0.276305,-1.83364 0.401894,0.30142 1.255918,0.82891 1.180562,1.28104 -0.07535,0.45213 -0.401894,0.72843 -0.175828,0.57772 0.226067,-0.15071 1.230801,0.0502 0.778671,-0.90426 -0.452131,-0.9545 -1.456867,-1.75829 -1.456867,-1.75829 z"
         id="path9" />
      <path
         style="opacity:1;fill:#111b09;fill-opacity:1;stroke-width:2.117;stroke-linejoin:round;stroke-miterlimit:3.1;paint-order:markers stroke fill"
         d="m 89.00706,132.33614 c -0.879144,0.75355 0.03768,2.39881 0.188389,2.07227 0.150711,-0.32654 -0.276302,-0.97961 0.238625,-1.19312 0.514926,-0.21351 1.519663,-0.0377 1.89644,0.52748 0.376775,0.56517 0.100473,1.68294 0.288862,1.54479 0.188386,-0.13816 0.715872,0.36421 0.489807,-0.76611 0.07824,-2.5432 -1.283508,-2.73697 -3.102123,-2.18531 z"
         id="path10"
         sodipodi:nodetypes="csssscc" />
      <path
         style="opacity:1;fill:#111b09;fill-opacity:1;stroke-width:2.117;stroke-linejoin:round;stroke-miterlimit:3.1;paint-order:markers stroke fill"
         d="m 94.011053,134.79121 c -0.355227,-0.0888 -2.895107,-0.56836 -2.593164,1.36763 0.158205,1.01437 2.024799,1.49196 1.811664,0.69269 -0.213138,-0.79926 -0.817024,-0.97687 -0.195375,-1.1012 0.621647,-0.12433 2.078081,0.39075 1.580763,0.72822 -0.497319,0.33746 -0.532842,0.47955 -0.319704,0.44403 0.213135,-0.0355 0.799261,0.37299 0.817022,-0.42627 0.01775,-0.79927 -0.185861,-1.47628 -1.101206,-1.7051 z"
         id="path11"
         sodipodi:nodetypes="ssssssss" />
      <path
         style="opacity:1;fill:#111b09;fill-opacity:1;stroke-width:2.117;stroke-linejoin:round;stroke-miterlimit:3.1;paint-order:markers stroke fill"
         d="m 97.803112,132.14477 c 0,0 -1.554123,-0.0444 -1.190014,0.31082 0.364109,0.35523 2.264576,0.83478 1.571884,1.70509 -0.692695,0.87031 -1.269942,1.03016 -0.932474,1.11009 0.337466,0.0799 2.317861,-0.5506 1.625166,-1.90935 -0.692692,-1.35875 -1.074562,-1.21665 -1.074562,-1.21665 z"
         id="path12" />
      <path
         style="opacity:1;fill:#111b09;fill-opacity:1;stroke-width:2.117;stroke-linejoin:round;stroke-miterlimit:3.1;paint-order:markers stroke fill"
         d="m 93.957769,133.1394 c -0.420458,1.30829 1.740617,1.66957 1.38539,1.15449 -0.35523,-0.51508 -0.834787,-0.3197 -0.639411,-1.08344 0.195376,-0.76374 1.403149,-0.53284 1.474195,-0.0178 0.07105,0.51508 -0.142089,1.08344 0.12433,1.15449 0.266422,0.071 0.87702,-1.12679 0.319704,-1.59853 -0.800631,-0.67769 -1.996201,-1.68776 -2.664208,0.39079 z"
         id="path13"
         sodipodi:nodetypes="sssscss" />
      <path
         style="opacity:1;fill:#111b09;fill-opacity:1;stroke-width:2.117;stroke-linejoin:round;stroke-miterlimit:3.1;paint-order:markers stroke fill"
         d="m 93.229551,130.11996 c -0.900964,-0.28491 -2.308979,0.0887 -2.007037,1.13673 0.301945,1.04793 1.278821,1.32323 1.012402,0.95912 -0.266423,-0.36411 0.05328,-1.45643 0.666051,-1.11897 0.612767,0.33747 0.932474,0.71046 0.808143,1.12785 -0.12433,0.41739 -0.64829,0.33747 -0.399631,0.47068 0.24866,0.13321 0.657172,0.80814 1.03016,-0.12433 0.372988,-0.93248 0.465873,-1.95271 -1.110088,-2.45108 z"
         id="path14"
         sodipodi:nodetypes="scssssss" />
      <path
         style="opacity:1;fill:#111b09;fill-opacity:1;stroke-width:2.117;stroke-linejoin:round;stroke-miterlimit:3.1;paint-order:markers stroke fill"
         d="m 81.559455,136.29245 c 0.138152,-0.0251 1.758288,0.10048 1.494543,-1.02985 -0.263742,-1.13033 -3.428661,-1.88388 -3.59193,-0.28886 -0.163269,1.59502 1.168006,1.73317 1.09265,1.25592 -0.07536,-0.47725 -0.755074,-0.79937 0.211983,-1.32685 0.96706,-0.52749 1.483509,0.62353 1.282563,0.96263 -0.200948,0.3391 -0.313981,-0.0251 -0.46469,0.18839 -0.150712,0.21351 -0.02511,0.23862 -0.02511,0.23862 z"
         id="path15"
         sodipodi:nodetypes="ssssssscs" />
      <path
         style="opacity:1;fill:#111b09;fill-opacity:1;stroke-width:2.117;stroke-linejoin:round;stroke-miterlimit:3.1;paint-order:markers stroke fill"
         d="m 82.963466,129.64041 c -0.124328,0 -1.598525,-0.37299 -1.847183,1.15449 -0.248661,1.52748 0.888068,2.38003 0.994637,1.75838 0.106569,-0.62165 0.301943,-0.2309 0.03552,-0.60389 -0.266422,-0.37299 -0.230899,-1.38539 0.532842,-1.33211 0.763741,0.0533 1.438672,0.31971 1.527479,0.85255 0.08881,0.53284 -0.284181,0.76374 -0.07105,0.79926 0.213138,0.0355 0.639411,0 0.657172,-0.88807 0.01775,-0.88806 -1.829424,-1.74061 -1.829424,-1.74061 z"
         id="path16" />
      <path
         style="opacity:1;fill:#111b09;fill-opacity:1;stroke-width:2.117;stroke-linejoin:round;stroke-miterlimit:3.1;paint-order:markers stroke fill"
         d="m 83.658844,126.46938 c -0.939981,0.12831 -1.848205,0.13991 -1.961237,1.24514 -0.113033,1.10521 0.577723,1.15545 0.577723,1.15545 l 0.175829,-0.13815 c 0,0 0.01257,-0.97962 0.92938,-1.08009 0.916821,-0.10048 1.049247,0.24078 0.835741,0.65523 -0.213505,0.41445 -0.659912,0.80163 -0.659912,0.80163 -0.08737,0.17474 0.290839,0.46073 0.715875,-0.16327 0.107922,-0.15844 1.214233,-0.82519 0.941786,-1.43821 -0.251185,-0.56517 -1.129155,-1.09588 -1.555185,-1.03773 z"
         id="path17"
         sodipodi:nodetypes="ssccsscsss" />
      <path
         style="opacity:1;fill:#111b09;fill-opacity:1;stroke-width:2.117;stroke-linejoin:round;stroke-miterlimit:3.1;paint-order:markers stroke fill"
         d="m 94.810317,128.08629 c 0,0 -2.051442,-0.7815 -1.767258,0.48843 0.284181,1.26994 0.728215,0.98576 0.7815,0.81703 0.05328,-0.16874 0.985758,-0.6927 1.527479,0.15097 0.541724,0.84367 -0.213135,0.97688 0.07993,1.12785 0.293063,0.15097 0.825905,-0.15985 0.612767,-1.20777 -0.213138,-1.04793 -1.234416,-1.37651 -1.234416,-1.37651 z"
         id="path18" />
      <path
         style="opacity:1;fill:#111b09;fill-opacity:1;stroke-width:2.117;stroke-linejoin:round;stroke-miterlimit:3.1;paint-order:markers stroke fill"
         d="m 90.627508,136.49631 c -0.115448,0.0178 -2.015918,0.49732 -1.536361,1.50083 0.479557,1.00352 0.967997,0.79927 0.967997,0.79927 0,0 -1.198893,0.23978 -1.713974,0.86142 -0.51508,0.62165 -0.51508,1.34987 -0.159853,1.19002 0.355227,-0.15986 0.728218,-0.88807 1.278821,-1.08345 0.550603,-0.19537 1.332103,-0.0888 1.154488,0.42628 -0.177612,0.51508 -0.39075,0.71045 0.05328,0.44403 0.444037,-0.26642 0.905833,-0.53284 0.372991,-1.19001 -0.532842,-0.65718 -1.38539,-1.93599 -0.74598,-2.29122 0.639411,-0.35523 2.060321,0.10657 2.007037,0.67493 -0.05329,0.56836 -0.284181,0.71046 -0.01775,0.60389 0.266423,-0.10657 0.550604,-0.49732 0.337468,-0.74598 -0.213137,-0.24866 -0.461795,-0.71046 -0.870309,-0.94136 -0.408512,-0.23089 -1.127848,-0.24865 -1.127848,-0.24865 z"
         id="path19" />
      <path
         style="opacity:1;fill:#111b09;fill-opacity:1;stroke-width:2.117;stroke-linejoin:round;stroke-miterlimit:3.1;paint-order:markers stroke fill"
         d="m 76.510654,131.54508 c -0.301418,-0.0502 -2.285772,-0.13816 -2.323451,1.25592 -0.03768,1.39407 1.858761,1.65781 1.695492,1.10521 -0.163269,-0.55261 -0.967058,-0.84147 -0.427011,-1.16801 0.540043,-0.32654 1.770845,-0.25118 1.507103,0.52749 -0.263744,0.77867 -0.301421,0.66563 0.100473,0.47725 0.401895,-0.18839 0.690756,-0.69076 0.464691,-1.21825 -0.226066,-0.52748 -1.017297,-0.97961 -1.017297,-0.97961 z"
         id="path20" />
      <path
         style="opacity:1;fill:#111b09;fill-opacity:1;stroke-width:2.117;stroke-linejoin:round;stroke-miterlimit:3.1;paint-order:markers stroke fill"
         d="m 76.61113,131.99721 c 0,0 -0.427014,-1.55734 0.803788,-1.73317 1.230802,-0.17583 1.356394,1.18056 1.733169,0.70331 0.376777,-0.47725 -1.08009,-2.43648 -2.436484,-1.80852 -1.356395,0.62796 -0.854025,2.31089 -0.828908,2.4616 0.02511,0.15071 0.728435,0.37678 0.728435,0.37678 z"
         id="path21" />
      <path
         style="opacity:1;fill:#111b09;fill-opacity:1;stroke-width:2.117;stroke-linejoin:round;stroke-miterlimit:3.1;paint-order:markers stroke fill"
         d="m 77.199896,133.9653 c -0.325097,-0.0217 -1.704093,0.45824 -1.624168,1.4884 0.07993,1.03016 0.780502,1.46888 0.77162,0.98044 -0.0089,-0.48844 0.12433,-1.3321 0.861428,-1.50084 0.737097,-0.16873 1.758378,0.55949 1.616287,0.86143 -0.142092,0.30194 -0.257541,0.74598 0.03552,0.54172 0.293063,-0.20425 0.64829,-0.8259 0.284181,-1.39427 -0.102513,-0.16002 -0.638996,-0.88982 -1.944868,-0.97688 z"
         id="path22"
         sodipodi:nodetypes="ssssssss" />
      <path
         style="fill:#111b09;fill-opacity:1;stroke-width:2.117;stroke-linejoin:round;stroke-miterlimit:3.1;paint-order:markers stroke fill"
         d="m 79.209016,131.55557 c -0.325097,-0.0217 -1.704093,0.45824 -1.624168,1.4884 0.07993,1.03016 0.780502,1.46888 0.77162,0.98044 -0.0089,-0.48844 0.12433,-1.3321 0.861428,-1.50084 0.737097,-0.16873 1.758378,0.55949 1.616287,0.86143 -0.142092,0.30194 -0.257541,0.74598 0.03552,0.54172 0.293063,-0.20425 0.64829,-0.8259 0.284181,-1.39427 -0.102513,-0.16002 -0.638996,-0.88982 -1.944868,-0.97688 z"
         id="path22-6"
         sodipodi:nodetypes="ssssssss" />
      <path
         style="fill:#111b09;fill-opacity:1;stroke-width:2.117;stroke-linejoin:round;stroke-miterlimit:3.1;paint-order:markers stroke fill"
         d="m 73.610054,134.56138 c -0.279085,-0.0217 -1.688974,0.50848 -1.620361,1.53864 0.06862,1.03016 0.896101,1.41864 0.888476,0.9302 -0.0076,-0.48844 0.106734,-1.3321 0.739508,-1.50084 0.632774,-0.16873 1.509511,0.55949 1.38753,0.86143 -0.121981,0.30194 -0.22109,0.74598 0.03049,0.54172 0.251585,-0.20425 0.556536,-0.8259 0.24396,-1.39427 -0.088,-0.16002 -0.548557,-0.88982 -1.669606,-0.97688 z"
         id="path22-8"
         sodipodi:nodetypes="sssssssss" />
      <path
         style="opacity:1;fill:#111b09;fill-opacity:1;stroke-width:2.117;stroke-linejoin:round;stroke-miterlimit:3.1;paint-order:markers stroke fill"
         d="m 81.345949,129.28442 c 0.05024,-0.0502 1.368952,-0.13815 0.150709,-0.90426 -1.218242,-0.76611 -2.386248,-0.69076 -2.386248,0.62796 0,1.31871 1.959235,1.28104 1.532224,0.85402 -0.427014,-0.42701 -0.96706,-0.99217 -0.238625,-1.05497 0.728432,-0.0628 1.105209,0.23863 0.979617,0.32654 -0.125593,0.0879 -0.03768,0.15071 -0.03768,0.15071 z"
         id="path23" />
      <path
         style="opacity:1;fill:#111b09;fill-opacity:1;stroke-width:2.117;stroke-linejoin:round;stroke-miterlimit:3.1;paint-order:markers stroke fill"
         d="m 82.892423,136.47855 c -0.03552,2.45107 1.740614,1.31434 1.438672,1.15449 -0.301946,-0.15986 -0.657173,-1.34987 -0.142092,-1.42092 0.51508,-0.071 1.101208,0.65717 0.799263,1.13673 -0.301943,0.47956 -0.550603,0.92359 -0.213137,0.92359 0.337468,0 1.225537,-1.3321 0.710456,-2.02479 -0.964414,-1.09966 -2.421984,-1.93554 -2.593162,0.2309 z"
         id="path24"
         sodipodi:nodetypes="sscssss" />
      <path
         style="opacity:1;fill:#111b09;fill-opacity:1;stroke-width:2.117;stroke-linejoin:round;stroke-miterlimit:3.1;paint-order:markers stroke fill"
         d="m 79.624326,139.3026 c 0.106567,-0.17761 -0.515082,-1.54524 0.08881,-2.06032 0.603888,-0.51508 1.38539,-0.37298 1.864948,0.0711 0.479557,0.44403 0.568364,0.30194 0.568364,0.7815 0,0.47956 0.142092,0.92359 0.337466,0.76374 0.195376,-0.15985 0.461795,-1.03016 -0.248658,-1.74062 -3.522512,-3.8526 -4.749205,2.21347 -2.61093,2.1846 z"
         id="path25"
         sodipodi:nodetypes="sscssss" />
      <path
         style="opacity:1;fill:#111b09;fill-opacity:1;stroke-width:2.117;stroke-linejoin:round;stroke-miterlimit:3.1;paint-order:markers stroke fill"
         d="m 85.339774,139.0806 c 0,0 -1.10521,-0.37678 -1.318716,0.84146 -0.213508,1.21825 0.828908,1.88388 0.577723,1.34384 -0.251184,-0.54005 0.514927,-1.53222 1.13033,-1.30616 0.615399,0.22607 0.276301,1.19312 0.427011,1.16801 0.150712,-0.0251 1.268481,-0.13815 0.502369,-0.97962 -0.766111,-0.84147 -1.318717,-1.06753 -1.318717,-1.06753 z"
         id="path26" />
      <path
         style="opacity:1;fill:#111b09;fill-opacity:1;stroke-width:2.117;stroke-linejoin:round;stroke-miterlimit:3.1;paint-order:markers stroke fill"
         d="M 86.306834,140.76353 Z"
         id="path27" />
      <path
         style="opacity:1;fill:#111b09;fill-opacity:1;stroke-width:2.117;stroke-linejoin:round;stroke-miterlimit:3.1;paint-order:markers stroke fill"
         d="m 73.558809,137.33997 c -0.266419,0.6927 -0.02664,1.7495 0.13321,1.40315 0.159853,-0.34635 0.967997,-0.92359 1.38539,-0.7815 0.417393,0.14209 1.305462,0.4618 1.278821,1.00352 -0.02664,0.54172 0.124328,1.00352 0.39963,0.36411 1.223737,-2.02925 -2.719852,-3.22998 -3.197051,-1.98928 z"
         id="path30"
         sodipodi:nodetypes="ssssss" />
      <path
         style="opacity:1;fill:#111b09;fill-opacity:1;stroke-width:2.117;stroke-linejoin:round;stroke-miterlimit:3.1;paint-order:markers stroke fill"
         d="m 92.548756,138.84197 c -0.551361,1.87409 1.281039,1.16801 1.281039,1.16801 0.541727,-0.34474 -0.633559,-0.0295 -0.163269,-0.64052 0.570038,-0.74056 1.54478,-0.75355 1.494544,-0.36422 l -0.05024,0.38934 c -0.167819,0.68913 0.902971,-0.47109 0.715875,-1.04242 -1.23192,-0.931 -2.899191,-0.7976 -3.277949,0.48981 z"
         id="path31"
         sodipodi:nodetypes="scssccs" />
      <path
         style="opacity:1;fill:#111b09;fill-opacity:1;stroke-width:2.117;stroke-linejoin:round;stroke-miterlimit:3.1;paint-order:markers stroke fill"
         d="m 83.061155,141.93129 c 0,0 0.14552,-1.0063 -0.263002,-1.41481 -0.408514,-0.40851 -1.723336,-0.89112 -2.194014,-0.17179 -0.470675,0.71934 0.316764,1.32906 0.316764,1.32906 l 0.595009,0.0178 c 0,0 -0.781503,-0.95912 -0.159854,-1.0124 0.62165,-0.0533 1.26994,0.15097 1.127848,0.61276 -0.142089,0.4618 -0.985756,0.35523 -0.248658,0.65718 0.737097,0.30194 0.825904,-0.0178 0.825904,-0.0178 z"
         id="path32"
         sodipodi:nodetypes="cssccssscc" />
      <path
         style="opacity:1;fill:#111b09;fill-opacity:1;stroke-width:2.117;stroke-linejoin:round;stroke-miterlimit:3.1;paint-order:markers stroke fill"
         d="m 84.579753,127.50016 c 0,0 0.453186,-0.0818 1.278821,-0.15097 1.127059,-0.0945 1.462118,0.74997 1.394269,0.83478 l -0.284181,0.56837 c 0,0 -0.603887,-0.9236 -1.278821,-0.63941 -0.674933,0.28418 -1.233416,0.72059 -0.940353,1.46657 0.293063,0.74598 0.221017,1.40189 -0.320702,0.80689 -0.541721,-0.59501 -0.05328,-2.03368 -0.05328,-2.03368 z"
         id="path37"
         sodipodi:nodetypes="csccssscc" />
    </g>
  </g>
</svg>
