<?xml version="1.0" encoding="UTF-8" standalone="no"?>
<!-- Created with Inkscape (http://www.inkscape.org/) -->

<svg
   width="34.816799mm"
   height="36.50238mm"
   viewBox="0 0 34.816799 36.50238"
   version="1.1"
   id="svg1"
   xml:space="preserve"
   inkscape:version="1.3 (0e150ed6c4, 2023-07-21)"
   sodipodi:docname="pandan_leaves.svg"
   xmlns:inkscape="http://www.inkscape.org/namespaces/inkscape"
   xmlns:sodipodi="http://sodipodi.sourceforge.net/DTD/sodipodi-0.dtd"
   xmlns="http://www.w3.org/2000/svg"
   xmlns:svg="http://www.w3.org/2000/svg"><sodipodi:namedview
     id="namedview1"
     pagecolor="#ffffff"
     bordercolor="#000000"
     borderopacity="0.25"
     inkscape:showpageshadow="2"
     inkscape:pageopacity="0.0"
     inkscape:pagecheckerboard="0"
     inkscape:deskcolor="#d1d1d1"
     inkscape:document-units="mm"
     inkscape:zoom="1.8620677"
     inkscape:cx="-98.009326"
     inkscape:cy="93.175989"
     inkscape:window-width="1920"
     inkscape:window-height="974"
     inkscape:window-x="-11"
     inkscape:window-y="-11"
     inkscape:window-maximized="1"
     inkscape:current-layer="layer5" /><defs
     id="defs1"><pattern
       id="EMFhbasepattern"
       patternUnits="userSpaceOnUse"
       width="6"
       height="6"
       x="0"
       y="0" /></defs><g
     inkscape:groupmode="layer"
     id="layer5"
     inkscape:label="Layer 2"
     transform="translate(-49.110897,-141.47254)"><path
       style="opacity:0.5;fill:#000000;stroke-width:2.117;stroke-linejoin:round;stroke-miterlimit:3.1;paint-order:markers stroke fill"
       d="m 78.990697,167.21289 c -1.107627,-9.34998 -33.633841,-11.20568 -29.520345,0.62268 3.50705,15.57858 30.952541,11.46714 29.520345,-0.62268 z"
       id="path28"
       sodipodi:nodetypes="scs" /><g
       inkscape:groupmode="layer"
       id="layer6"
       inkscape:label="F"><path
         style="opacity:1;fill:#c38107;fill-opacity:1;stroke-width:2.117;stroke-linejoin:round;stroke-miterlimit:3.1;paint-order:markers stroke fill"
         d="m 71.549336,148.72132 c 2.076603,0.39225 7.291187,2.69959 7.291187,2.69959 0,0 3.876326,3.50715 4.199354,5.05307 0.323028,1.54591 -0.784498,6.46054 -1.707429,8.23719 -0.922936,1.77665 -3.299493,5.32995 -5.05307,6.04522 -1.753577,0.71528 -2.39963,1.54592 -2.491925,1.54592 -0.09229,0 -2.307338,1.4767 -4.591601,1.24596 -2.284265,-0.23073 -10.775267,-1.22289 -12.067375,-2.19197 -1.29211,-0.96908 -4.199354,-4.56853 -4.614675,-6.92201 -0.415321,-2.35349 -0.922936,-4.29165 -0.922936,-4.29165 0,0 -0.737097,-1.74678 -0.312898,-3.1499 0.424198,-1.40312 5.98773,-6.47719 6.558767,-6.70561 0.571037,-0.22841 7.459717,-0.87361 9.513246,-1.28893 2.053531,-0.41532 1.730504,-0.62298 2.791879,-0.50762 1.061375,0.11538 1.407476,0.23074 1.407476,0.23074 z"
         id="path15" /><path
         style="opacity:1;fill:#f7c734;fill-opacity:1;stroke-width:2.117;stroke-linejoin:round;stroke-miterlimit:3.1;paint-order:markers stroke fill"
         d="m 60.906159,166.60319 c -0.210039,0.11536 -2.133543,-0.0692 -1.227064,0.43839 0.90648,0.50761 0.45324,-0.0923 1.569756,0.13844 1.116516,0.23074 1.094409,0.46146 2.310416,0.51915 1.216008,0.0577 1.227063,-0.20766 1.304446,0.0692 0.07738,0.27688 0.475349,2.2958 1.625029,2.36502 1.149681,0.0692 1.945614,0.20766 1.901395,0.4384 -0.04422,0.23073 -0.375857,0.3461 -1.083353,0.46146 -0.707496,0.11537 -0.840152,-0.0231 -0.994915,0.11537 -0.154766,0.13844 0.154763,0.66913 -0.530623,0.78449 -0.685387,0.11537 -0.972807,0.0231 -1.105462,0.25381 -0.132656,0.23074 -0.287419,0.57683 -0.176874,0.62298 0.110546,0.0462 5.858949,0.0923 5.858949,-0.0231 0,-0.11538 0.729606,-0.11538 -0.04422,-1.54592 -0.773824,-1.43055 -2.432016,-2.03046 -0.84015,-2.74573 1.591865,-0.71528 2.498343,-0.64606 3.006856,-0.59991 0.508513,0.0461 0.331639,0.29995 0.906479,-0.36918 0.57484,-0.66912 3.183732,-2.21504 5.040908,-2.51499 1.857177,-0.29996 1.724521,1.0383 1.923505,0.99215 0.198983,-0.0462 0.972806,-0.99215 1.437099,-2.26119 0.464296,-1.26904 1.216012,-3.53022 0.818047,-3.41486 -0.397965,0.11537 -2.653113,2.0766 -3.625919,2.49192 -0.972807,0.41532 -2.785765,1.38441 -4.532396,1.8228 -1.746631,0.4384 -3.161622,0.62298 -5.372546,0.66913 -2.210925,0.0461 -3.011414,0.92066 -3.741019,0.45919 -0.729603,-0.46147 -3.449311,-1.9708 -3.559858,-1.69392 -0.289494,0.84228 -0.223831,1.9857 -0.868486,2.52683 z"
         id="path16"
         sodipodi:nodetypes="csssssssssscssscsscsssscscc" /><path
         id="path17"
         style="opacity:1;fill:#f7c734;fill-opacity:1;stroke-width:2.117;stroke-linejoin:round;stroke-miterlimit:3.1;paint-order:markers stroke fill"
         d="m 62.372268,149.22653 c -0.09543,0 -1.603722,0.079 -3.311934,0.3323 -0.602092,0.44364 -1.43139,0.96138 -1.874984,1.21642 0.01121,0.0108 0.03558,0.0342 0.03558,0.0342 l -0.115467,0.0114 c 0.02375,-0.0134 0.05317,-0.0303 0.07989,-0.0457 -0.08882,-0.0855 -0.472382,-0.45825 -0.564577,-0.6119 -0.01424,-0.0238 -0.0292,-0.0585 -0.0443,-0.0994 -0.917246,0.25319 -1.715528,0.57542 -2.165999,0.98985 -1.631532,1.50101 -1.761867,3.91579 -1.761867,3.91579 0,0 -1.370752,1.01171 -1.403384,2.0559 -0.03263,1.04417 0.326594,2.8061 0.326594,2.8061 l 0.587066,3.81777 0.359153,1.1748 c 0.06526,-0.13053 1.468409,-1.27284 2.121022,-1.10969 0.652613,0.16316 2.577851,-0.91365 2.577851,-0.91365 0,0 -3.100209,-0.19577 -3.981237,-2.44729 -0.881027,-2.25151 6.917956,-4.92717 7.505307,-6.42817 0.587353,-1.50101 -0.391567,-1.59887 0.45683,-2.61042 0.848397,-1.01155 1.37049,-1.1419 1.37049,-1.1419 0,0 -2.39e-4,-0.94656 -0.196024,-0.94656 z" /><path
         style="opacity:1;fill:#c38107;fill-opacity:1;stroke-width:2.117;stroke-linejoin:round;stroke-miterlimit:3.1;paint-order:markers stroke fill"
         d="m 68.849751,151.23632 c 1.245962,-0.55376 -0.6922,-1.93817 3.27642,-0.64606 3.968619,1.29211 5.95293,2.07661 7.383479,3.46101 1.43055,1.3844 2.8611,5.21458 2.8611,5.21458 l 0.830641,-2.35348 c 0,0 0.09229,-1.70743 -1.615137,-3.50716 -1.707429,-1.79972 -5.029996,-2.7688 -5.029996,-2.7688 0,0 -3.461005,-1.84587 -4.199354,-1.84587 -0.738348,0 -4.937702,0.0923 -4.937702,0.0923 z"
         id="path18" /><path
         style="opacity:1;fill:#794e30;fill-opacity:1;stroke-width:2.117;stroke-linejoin:round;stroke-miterlimit:3.1;paint-order:markers stroke fill"
         d="m 79.209829,162.84094 c 0.554721,-0.56647 2.4473,-1.79384 3.458851,-3.46179 1.01155,-1.66795 -3.91568,-6.42005 -5.090385,-7.04947 -1.174704,-0.62941 -6.036676,-1.98266 -6.982965,-1.79383 -0.94629,0.18882 -1.305227,0.62941 -1.305227,0.62941 0,0 -0.848398,6.7977 2.153625,9.78743 3.002022,2.98972 7.766101,1.88825 7.766101,1.88825 z"
         id="path19" /><path
         style="opacity:1;fill:#44a714;fill-opacity:1;stroke-width:2.117;stroke-linejoin:round;stroke-miterlimit:3.1;paint-order:markers stroke fill"
         d="m 75.033415,143.85284 c 0,1.01522 4.153209,13.4287 4.268575,14.92847 0.115366,1.49977 -0.276881,3.83018 -0.276881,3.83018 l -6.322104,2.39963 c 0,0 -0.715275,-2.74573 -0.876789,-5.07614 -0.161513,-2.33041 0.207661,-9.09091 0.784495,-10.75219 0.576835,-1.66128 2.330412,-5.92986 2.330412,-5.92986 z"
         id="path20" /><path
         style="opacity:1;fill:#74ce50;fill-opacity:1;stroke-width:2.117;stroke-linejoin:round;stroke-miterlimit:3.1;paint-order:markers stroke fill"
         d="m 75.979392,146.48566 c -0.293676,0.19579 0.163154,1.63154 0.163154,1.63154 0,0 -0.881029,-0.75051 -1.011551,-1.01155 -0.130523,-0.26105 -1.696796,2.70834 -1.468382,4.92723 0.228415,2.21889 0.750507,2.61045 0.652614,4.27461 -0.09789,1.66417 0.358938,2.51257 0.619984,2.74099 0.261045,0.22841 0.326306,0.29367 0.326306,0.29367 0,0 0.03263,-4.24199 0,-4.76408 -0.03263,-0.52209 -0.261045,-2.28415 -0.261045,-2.28415 0,0 0.228415,0.78314 1.109443,2.31678 0.881029,1.53364 1.337859,0.94629 1.01155,1.79469 -0.326306,0.84839 -0.619983,3.68727 0.09789,4.63355 0.717875,0.9463 2.414669,1.40313 2.414669,0.81577 0,-0.58735 -0.48946,-4.20936 -0.848398,-5.97141 -0.358936,-1.76206 -2.806238,-9.39764 -2.806238,-9.39764 z"
         id="path21" /><path
         style="opacity:1;fill:#44a714;fill-opacity:1;stroke-width:2.117;stroke-linejoin:round;stroke-miterlimit:3.1;paint-order:markers stroke fill"
         d="m 62.698705,142.70051 c 0.130523,0.13052 3.067285,3.23043 4.405142,4.95986 1.337858,1.72942 4.666187,7.01559 4.666187,7.01559 0,0 -0.09789,6.03668 -0.195784,5.87353 -0.09789,-0.16316 -3.197806,-3.52411 -5.547214,-5.15565 -2.349409,-1.63153 -2.936762,-4.27462 -3.230438,-5.64511 -0.293676,-1.37049 -0.652614,-3.55674 -0.652614,-3.81779 0,-0.26104 -0.04895,-2.82255 0.08158,-3.21412 0.130523,-0.39157 0.473144,-0.0163 0.473144,-0.0163 z"
         id="path22" /><path
         style="opacity:1;fill:#74ce51;fill-opacity:1;stroke-width:2.117;stroke-linejoin:round;stroke-miterlimit:3.1;paint-order:markers stroke fill"
         d="m 65.065717,145.39875 c -0.230733,0.16152 -0.599907,1.43055 -0.599907,1.43055 0,0 -1.730503,-0.87679 -1.522844,0.3461 0.207662,1.22289 2.191971,5.58376 3.253346,6.43748 1.061376,0.85371 0.969082,-0.80757 1.522844,-0.32303 0.55376,0.48454 3.091832,3.04568 3.507152,3.57637 0.415322,0.53069 0.115368,-2.83802 0.115368,-2.83802 0,0 -0.669127,-1.17675 -1.63821,-2.65344 -0.969082,-1.4767 -3.2072,-5.35303 -3.645593,-5.62991 -0.438394,-0.27687 -0.992156,-0.3461 -0.992156,-0.3461 z"
         id="path23" /><path
         style="opacity:1;fill:#44a714;fill-opacity:1;stroke-width:2.117;stroke-linejoin:round;stroke-miterlimit:3.1;paint-order:markers stroke fill"
         d="m 61.420125,152.66687 c 0,0 6.50669,3.13798 8.35256,5.67605 1.845871,2.53807 3.045687,4.75312 3.045687,4.75312 l -0.138441,2.39962 h -7.198893 c 0,0 -1.917619,-2.67834 -2.341818,-3.41253 -0.424199,-0.73419 -2.887816,-5.04144 -3.181491,-6.62403 -0.293678,-1.58258 0.03263,-2.00678 0.03263,-2.00678 0,0 1.142074,-0.89735 1.239966,-0.8484 0.09789,0.0489 0.1898,0.0629 0.1898,0.0629 z"
         id="path24" /><path
         style="opacity:1;fill:#74ce50;fill-opacity:1;stroke-width:2.117;stroke-linejoin:round;stroke-miterlimit:3.1;paint-order:markers stroke fill"
         d="m 63.773608,154.48967 c -0.576833,0 -0.946007,0.48454 -0.922934,0.69219 0.02307,0.20767 -1.061375,-0.50761 -0.899862,0.55377 0.161514,1.06137 3.368713,5.09921 3.507152,6.09137 0.138441,0.99215 -0.761421,0.46147 0.207662,1.17674 0.969081,0.71527 2.076603,0.71527 1.707429,0.11537 -0.369174,-0.59991 -1.77665,-3.41486 -1.77665,-3.41486 0,0 -0.969081,-3.27642 0.899861,-0.55376 1.868944,2.72265 3.391787,6.06829 4.383942,4.59159 0.992155,-1.47669 0.507615,-4.06091 -0.369174,-4.47623 -0.876788,-0.41532 -6.737426,-4.77618 -6.737426,-4.77618 z"
         id="path25" /><path
         style="opacity:1;fill:#44a714;fill-opacity:1;stroke-width:2.117;stroke-linejoin:round;stroke-miterlimit:3.1;paint-order:markers stroke fill"
         d="m 52.167702,145.6987 c 0,0.20767 5.537608,5.67606 6.160589,6.46056 0.622983,0.78449 1.568991,2.26118 1.568991,2.26118 0,0 0.576833,2.93032 1.269035,4.29165 0.692201,1.36133 1.730502,3.6456 2.538071,4.45316 0.807569,0.80757 2.030459,1.9151 1.77665,1.96124 -0.253807,0.0462 -2.491925,-0.0923 -2.491925,-0.0923 l -2.307336,-0.89987 c 0,0 -3.06876,-0.48454 -3.62252,-1.61513 -0.553762,-1.1306 -4.453163,-6.85279 -5.237656,-9.6216 -0.784495,-2.7688 -0.507615,-4.79926 -0.299955,-5.46839 0.207661,-0.66913 0.599909,-1.86894 0.599909,-1.86894 z"
         id="path26" /><path
         style="opacity:1;fill:#74ce50;fill-opacity:1;stroke-width:2.117;stroke-linejoin:round;stroke-miterlimit:3.1;paint-order:markers stroke fill"
         d="m 57.347274,151.24974 c 0,0 -0.848398,-0.55472 -1.272596,0 -0.4242,0.55473 -0.09789,0.94629 -0.554722,0.71788 -0.45683,-0.22842 -1.239967,-3.19781 -1.827318,-2.0231 -0.587353,1.1747 0.619983,2.8715 1.272595,5.67773 0.652615,2.80624 2.023103,4.82934 1.762058,2.57783 -0.261045,-2.25152 -0.293675,-3.32833 -0.09789,-3.16518 0.195783,0.16316 2.316777,1.79469 3.002021,2.15363 0.685244,0.35894 1.076813,-0.0326 1.076813,-0.0326 l -1.076813,-3.71989 z"
         id="path27" /></g><g
       inkscape:groupmode="layer"
       id="layer7"
       inkscape:label="O"><path
         style="opacity:1;fill:#000000;stroke-width:2.117;stroke-linejoin:round;stroke-miterlimit:3.1;paint-order:markers stroke fill"
         d="m 61.985422,143.44329 c 0,0 -0.330898,2.71607 0.02804,5.29389 0.358936,2.57782 1.95784,4.95986 1.95784,4.95986 l 0.94629,0.55473 c 0,0 -1.696795,-3.55675 -2.088364,-5.61248 -0.391569,-2.05573 -0.750505,-5.3188 -0.554721,-5.02513 0.195783,0.29368 2.055732,4.66619 4.666187,8.61451 2.610454,3.94831 1.762056,4.66618 1.92521,4.14409 0.163154,-0.52209 -0.750505,-4.4704 -2.577823,-7.17875 -1.827319,-2.70835 -3.458853,-5.4167 -2.740978,-4.79671 0.717875,0.61998 3.295698,3.06728 4.437773,4.86197 1.142073,1.79469 3.622006,5.64511 3.622006,5.64511 l -0.03263,-0.78314 c 0,0 -2.894109,-5.94861 -5.677738,-9.13659 -2.171158,-2.48655 -3.785158,-3.68727 -3.980943,-3.49148 -0.195781,0.19578 0.150607,1.35021 0.150607,1.35021 z"
         id="path1"
         sodipodi:nodetypes="csccsssssssccsscc" /><path
         style="opacity:1;fill:#000000;stroke-width:2.117;stroke-linejoin:round;stroke-miterlimit:3.1;paint-order:markers stroke fill"
         d="m 60.08825,152.55497 c 0,0 11.192324,6.62403 11.812307,9.85447 0.619982,3.23043 0.261045,2.8715 0.261045,2.8715 l 0.88103,-0.26105 c 1.904255,-1.11629 -1.612532,-6.58503 -4.241989,-8.67976 -2.445041,-1.94783 -7.407164,-4.79671 -8.1903,-4.5683 -0.783138,0.22842 -0.522093,0.78314 -0.522093,0.78314 z"
         id="path2"
         sodipodi:nodetypes="csccssc" /><path
         style="opacity:1;fill:#000000;stroke-width:2.117;stroke-linejoin:round;stroke-miterlimit:3.1;paint-order:markers stroke fill"
         d="m 60.642973,152.52234 c -0.03263,0.42419 -2.414671,0.0326 0.293676,6.33035 2.708346,6.29772 4.568294,6.36299 4.959863,6.36299 0.391569,0 -1.109444,-1.07682 -2.93676,-3.98095 -1.827319,-2.90413 -2.610454,-5.3188 -2.773608,-6.68929 -0.163155,-1.37049 0.881027,-1.63153 0.881027,-1.63153 z"
         id="path3"
         sodipodi:nodetypes="csssscc" /><path
         style="opacity:1;fill:#000000;stroke-width:2.117;stroke-linejoin:round;stroke-miterlimit:3.1;paint-order:markers stroke fill"
         d="m 61.687154,154.25177 c 0.530034,0.0589 6.066854,10.7606 6.982966,10.93127 1.139133,0.21223 1.370489,1.14207 0,-0.8484 -1.370489,-1.99047 -5.155647,-8.87554 -5.971415,-9.46289 -0.815767,-0.58736 -1.011551,-0.61998 -1.011551,-0.61998 z"
         id="path4"
         sodipodi:nodetypes="csssc" /><path
         style="opacity:1;fill:#000000;stroke-width:2.117;stroke-linejoin:round;stroke-miterlimit:3.1;paint-order:markers stroke fill"
         d="m 74.511011,143.45101 c 0,0 -2.055733,4.8946 -2.90413,8.51661 -0.848398,3.622 -0.261046,7.7661 -0.261046,7.7661 0,0 1.044182,1.33786 1.044182,1.20733 0,-0.13052 -0.619983,-6.72192 0.391569,-10.86601 1.011551,-4.1441 1.794686,-5.54722 1.95784,-5.28617 0.163154,0.26104 3.589375,10.57234 4.111467,13.24806 0.52209,2.67571 0.06526,4.43776 0.06526,4.43776 l 0.848396,-0.45682 c 0,0 0.685245,-1.07682 -1.142072,-7.96189 -1.827319,-6.88507 -3.148861,-10.36024 -3.230437,-11.19232 -0.08158,-0.83209 0.293675,-1.4847 -0.4242,-0.91366 -0.717875,0.57104 -0.45683,1.50101 -0.456829,1.50101 z"
         id="path5"
         sodipodi:nodetypes="cscssssccsssc" /><path
         style="opacity:1;fill:#000000;stroke-width:2.117;stroke-linejoin:round;stroke-miterlimit:3.1;paint-order:markers stroke fill"
         d="m 74.960332,151.18448 c 0,0.78314 0.863268,4.07884 0.728382,7.92926 -0.134886,3.85041 0.134886,4.76408 -0.242794,4.99249 -0.377679,0.22841 -0.566519,0.22841 -0.566519,0.22841 0,0 0.169792,-2.723 0.107908,-6.85244 -0.08635,-5.76213 -0.264408,-7.65167 -0.215817,-7.37453 0.04604,0.26256 0.18884,1.07681 0.18884,1.07681 z"
         id="path6"
         sodipodi:nodetypes="csscssc" /><path
         id="path7"
         style="opacity:1;fill:#000000;stroke-width:2.117;stroke-linejoin:round;stroke-miterlimit:3.1;paint-order:markers stroke fill"
         d="m 51.89807,145.0825 c -0.522089,-0.0653 -0.261142,1.17481 -0.261142,1.17481 0,0 -1.664016,3.29553 0.391713,8.15748 2.05573,4.86197 4.143841,7.86403 4.535406,8.05981 0.391569,0.19579 2.414795,0.52207 1.925333,0.16313 -0.489459,-0.35894 -2.610366,-1.43573 -3.850329,-4.73143 -1.239962,-3.29568 -3.230394,-6.59143 -3.067241,-8.51664 0.163154,-1.92521 0.618953,-2.76816 0.618953,-2.76816 0,0 0.87665,0.55388 0.853578,0.92305 -0.09292,1.4867 3.668753,8.72188 5.007006,10.98306 1.338253,2.26119 4.189414,4.12586 3.460967,2.99944 -0.124966,-0.19324 -3.987538,-5.46422 -4.041157,-5.58384 l -3.400039,-7.58536 c -0.50823,-1.13384 4.2062,4.34398 4.630398,4.62134 0.424199,0.27736 1.011336,1.90888 1.011336,1.90888 l 0.09801,-1.12579 c 0,0 -0.440562,-1.56627 -3.409947,-4.2746 -2.969387,-2.70835 -3.980756,-4.33991 -4.502848,-4.40518 z"
         sodipodi:nodetypes="scssssscssssssccss" /><path
         style="opacity:1;fill:#000000;stroke-width:2.117;stroke-linejoin:round;stroke-miterlimit:3.1;paint-order:markers stroke fill"
         d="m 57.086228,150.7766 c 0.277361,-0.27736 1.762057,-1.45207 2.430986,-1.64785 0.66893,-0.19578 2.83887,-0.29368 2.83887,-0.29368 l 0.01631,0.8484 c 0,0 -2.740977,0.58735 -3.736212,0.76682 -0.995236,0.17947 -1.549959,0.32631 -1.549959,0.32631 z"
         id="path8" /><path
         style="opacity:1;fill:#000000;stroke-width:2.117;stroke-linejoin:round;stroke-miterlimit:3.1;paint-order:markers stroke fill"
         d="m 72.899127,148.19063 c -1.892015,0.0115 -2.295799,-0.11537 -3.299491,-0.0346 -1.003693,0.0808 -1.799723,0.44994 -1.072912,0.71528 0.726812,0.26534 0.830641,0.53069 1.67282,0.48454 0.842178,-0.0461 2.457314,-0.13844 2.457314,-0.13844 z"
         id="path9" /><path
         style="opacity:1;fill:#000000;stroke-width:2.117;stroke-linejoin:round;stroke-miterlimit:3.1;paint-order:markers stroke fill"
         d="m 59.828061,161.71163 c -0.253806,0.43839 -2.376557,2.28427 -1.545917,2.93032 0.830642,0.64605 0.646056,1.31518 0.738348,0.11537 0.09229,-1.19982 1.153669,-2.81495 1.01523,-2.88418 -0.13844,-0.0692 -0.207661,-0.16151 -0.207661,-0.16151 z"
         id="path10" /><path
         style="opacity:1;fill:#000000;stroke-width:2.117;stroke-linejoin:round;stroke-miterlimit:3.1;paint-order:markers stroke fill"
         d="m 61.027878,163.16525 c -0.438395,0.96908 -1.038303,1.06138 -0.87679,1.79972 0.161515,0.73835 -0.253806,2.23812 0.207662,1.52285 0.461466,-0.71528 0.992154,-2.14582 0.922934,-2.67651 -0.06922,-0.53069 0.369174,-0.83065 0.138441,-0.83065 -0.230735,0 -0.392247,0.18459 -0.392247,0.18459 z"
         id="path11" /><path
         style="opacity:1;fill:#000000;stroke-width:2.117;stroke-linejoin:round;stroke-miterlimit:3.1;paint-order:markers stroke fill"
         d="m 62.568183,164.95463 c 0,0 1.501011,1.63153 6.330352,1.37048 4.829341,-0.26104 9.397635,-2.61045 10.898647,-3.45885 1.501011,-0.84839 5.68847,-4.01573 3.519574,-8.09972 -2.168896,-4.08398 -6.252883,-4.5916 -6.252883,-4.5916 0,0 0.530687,1.15367 0.576834,1.29211 0.04615,0.13844 6.045226,3.04569 4.845407,6.36825 -1.199813,3.32257 -1.961235,3.59945 -3.114904,4.19936 -1.153669,0.59991 -5.81449,2.99954 -8.491002,2.99954 -2.67651,0 -7.360406,-0.23074 -7.72958,-0.13845 -0.369174,0.0923 -0.582445,0.0589 -0.582445,0.0589 z"
         id="path12" /><path
         style="opacity:1;fill:#000000;stroke-width:2.117;stroke-linejoin:round;stroke-miterlimit:3.1;paint-order:markers stroke fill"
         d="m 52.322149,154.67596 c 0,0 -3.654636,3.7199 -0.03263,6.52614 3.622005,2.80624 5.971414,2.21889 6.134567,1.92521 0.163154,-0.29367 0.978921,-0.68524 0.326308,-0.68524 -0.652614,0 -3.230437,0.0326 -5.155647,-1.30523 -1.925212,-1.33786 -2.251518,-3.32833 -1.794688,-4.30725 0.45683,-0.97892 1.076812,-1.43575 1.076812,-1.43575 z"
         id="path13" /><path
         style="opacity:1;fill:#000000;stroke-width:2.117;stroke-linejoin:round;stroke-miterlimit:3.1;paint-order:markers stroke fill"
         d="m 51.267839,159.45044 c 0,0 0.138441,11.90586 9.367791,13.70558 9.22935,1.79973 10.400774,0.33559 12.569672,-0.31047 2.168897,-0.64605 0.905179,-0.65861 3.074076,-1.58154 2.168897,-0.92294 4.430087,-4.29165 5.67605,-6.92201 1.245963,-2.63037 1.707427,-7.06046 1.615134,-6.87587 -0.09229,0.18459 -1.338254,1.89202 -1.338254,1.89202 0,0 -0.08299,6.4083 -6.460545,11.3521 -1.280088,0.99231 -3.822259,2.12469 -4.393296,2.07574 -0.571037,-0.049 3.002021,-1.56627 2.104678,-1.63154 -0.897343,-0.0652 -4.13251,1.84476 -8.786602,1.40167 -9.268673,-0.88243 -12.009553,-6.4236 -12.828795,-12.36734 z"
         id="path14"
         sodipodi:nodetypes="cssssscsssscc" /></g></g></svg>
