<?xml version="1.0" encoding="UTF-8" standalone="no"?>
<!-- Created with Inkscape (http://www.inkscape.org/) -->

<svg
   width="26.645887mm"
   height="37.738258mm"
   viewBox="0 0 26.645888 37.738259"
   version="1.1"
   id="svg1"
   inkscape:version="1.3 (0e150ed6c4, 2023-07-21)"
   sodipodi:docname="salt.svg"
   xmlns:inkscape="http://www.inkscape.org/namespaces/inkscape"
   xmlns:sodipodi="http://sodipodi.sourceforge.net/DTD/sodipodi-0.dtd"
   xmlns="http://www.w3.org/2000/svg"
   xmlns:svg="http://www.w3.org/2000/svg">
  <sodipodi:namedview
     id="namedview1"
     pagecolor="#ffffff"
     bordercolor="#000000"
     borderopacity="0.25"
     inkscape:showpageshadow="2"
     inkscape:pageopacity="0.0"
     inkscape:pagecheckerboard="0"
     inkscape:deskcolor="#d1d1d1"
     inkscape:document-units="mm"
     inkscape:zoom="1.8620677"
     inkscape:cx="70.888937"
     inkscape:cy="-4.0277805"
     inkscape:window-width="1920"
     inkscape:window-height="974"
     inkscape:window-x="-11"
     inkscape:window-y="-11"
     inkscape:window-maximized="1"
     inkscape:current-layer="layer6" />
  <defs
     id="defs1">
    <pattern
       id="EMFhbasepattern"
       patternUnits="userSpaceOnUse"
       width="6"
       height="6"
       x="0"
       y="0" />
  </defs>
  <g
     inkscape:groupmode="layer"
     id="layer6"
     inkscape:label="Layer 2"
     transform="translate(-80.057092,-184.7424)">
    <path
       style="opacity:0.5;fill:#131b1a;fill-opacity:1;stroke-width:2.117;stroke-linejoin:round;stroke-miterlimit:3.1;paint-order:markers stroke fill"
       d="m 99.770497,211.19427 c -3.560087,0.0294 -14.575914,4.42433 -14.575914,4.42433 0,0 -4.120702,-1.1808 -4.933907,0.0418 -0.813205,1.22258 0.934512,7.79597 3.031182,6.69689 2.09667,-1.09907 1.817465,-1.21159 2.232204,-1.30284 0.414741,-0.0913 13.214561,-1.65716 16.140778,-3.20309 3.19722,-1.68908 4.78957,-3.77887 3.45058,-5.33974 -1.339,-1.56085 -5.344923,-1.31734 -5.344923,-1.31734 z"
       id="path1"
       sodipodi:nodetypes="ccsssscc" />
    <g
       inkscape:groupmode="layer"
       id="layer7"
       inkscape:label="F">
      <path
         style="opacity:1;fill:#defcf9;fill-opacity:1;stroke-width:2.117;stroke-linejoin:round;stroke-miterlimit:3.1;paint-order:markers stroke fill"
         d="m 99.569348,192.90934 c 0.376777,0.12559 2.285772,1.30615 2.938852,1.88387 0.65308,0.57773 1.40663,1.30616 1.40663,1.40663 0,0.10048 2.10995,17.13076 2.10995,17.13076 l -5.62652,2.41136 c 0,0 -4.521315,0.80379 -5.048802,0.77867 -0.527486,-0.0251 -6.60614,-1.75829 -6.781969,-1.88388 -0.175829,-0.12559 -0.577723,-1.53222 -0.577723,-1.53222 0,0 -0.427014,-2.81326 -0.427014,-2.96397 0,-0.15071 -0.07536,-4.74738 0.301422,-6.6815 0.376777,-1.93411 1.356394,-6.95779 1.858761,-7.56064 0.50237,-0.60284 3.390985,-3.0142 3.390985,-3.0142 0,0 2.160182,0.2763 3.642169,0.5526 1.481984,0.2763 2.813259,-0.52748 2.813259,-0.52748 z"
         id="path24" />
      <path
         style="opacity:1;fill:#fcfcfc;fill-opacity:1;stroke-width:2.117;stroke-linejoin:round;stroke-miterlimit:3.1;paint-order:markers stroke fill"
         d="m 102.53652,203.26138 c 0,0 1.15449,5.09752 1.15449,6.03888 0,0.94135 0.15985,2.71749 0.15985,2.71749 0,0 -4.458105,1.93599 -5.133036,1.95375 -0.674934,0.0178 -5.98559,-0.35522 -6.696046,-1.22553 -0.710457,-0.87031 -1.793902,-0.71046 -1.793902,-0.71046 0,0 -0.710456,-2.18465 -0.159853,-3.17929 0.550603,-0.99464 1.864948,-6.19872 1.864948,-6.19872 0,0 4.511394,-1.0124 6.90918,-0.60389 2.397789,0.40851 3.694369,1.20777 3.694369,1.20777 z"
         id="path23" />
      <path
         style="opacity:1;fill:#d5d7d4;fill-opacity:1;stroke-width:2.117;stroke-linejoin:round;stroke-miterlimit:3.1;paint-order:markers stroke fill"
         d="m 90.576962,189.24205 1.908998,3.39098 c 0,0 0.879145,0.65308 2.788142,0.90427 1.908998,0.25118 4.621787,-0.82891 4.621787,-0.82891 v 0 0 l 1.657811,-0.32654 c 0,0 1.33128,-3.36587 0.9545,-3.66729 -0.37677,-0.30142 -0.35166,-1.10521 -0.60284,-1.2308 -0.25118,-0.12559 -2.210419,-1.88388 -3.089564,-1.95924 -0.879144,-0.0753 -4.797613,-0.0502 -4.797613,-0.0502 l -2.51184,2.28577 z"
         id="path25" />
      <path
         style="opacity:1;fill:#f8f9f6;fill-opacity:1;stroke-width:2.117;stroke-linejoin:round;stroke-miterlimit:3.1;paint-order:markers stroke fill"
         d="m 96.799592,190.11795 c -1.243298,-0.14209 -2.806301,-0.19537 -3.712131,-0.28418 -0.90583,-0.0888 -1.54524,-0.95912 -1.15449,-0.17761 0.390749,0.7815 1.456433,2.36226 1.758378,2.29121 0.301942,-0.071 1.047922,-1.19001 2.149128,-0.90583 1.101207,0.28419 1.243299,0.71046 2.788539,0.28419 1.545244,-0.42628 2.468834,-1.19002 2.699734,-1.84719 0.23089,-0.65717 -0.4618,-0.44403 -0.4618,-0.44403 l -2.024799,0.76374 z"
         id="path26" />
      <path
         style="opacity:1;fill:#e6e6e6;fill-opacity:1;stroke-width:2.117;stroke-linejoin:round;stroke-miterlimit:3.1;paint-order:markers stroke fill"
         d="m 91.186991,204.43363 c 0.284184,0.0711 2.664211,1.49196 4.546917,1.49196 1.882709,0 5.861262,-2.38003 5.790212,-1.31434 -0.071,1.06568 0.99464,4.19169 0,4.01407 -0.99464,-0.17761 -1.38539,-0.63941 -1.811659,-0.21313 -0.426273,0.42627 1.385389,2.41555 -0.710456,2.27345 -2.095844,-0.14209 1.420915,2.20242 -2.522117,1.59853 -3.94303,-0.60389 -5.577078,-0.21314 -5.577078,-0.21314 0,0 -1.349867,-3.19705 -1.065683,-4.33378 0.284181,-1.13672 1.349864,-3.30362 1.349864,-3.30362 z"
         id="path27" />
      <path
         style="opacity:1;fill:#aec6c4;fill-opacity:1;stroke-width:2.117;stroke-linejoin:round;stroke-miterlimit:3.1;paint-order:markers stroke fill"
         d="m 97.40348,206.61829 c 0,0 -0.124331,0.46179 0.142091,0.5506 0.26642,0.0888 0.994638,-0.31971 0.515081,-0.47956 -0.479558,-0.15985 -0.657172,-0.071 -0.657172,-0.071 z"
         id="path28" />
      <path
         style="fill:#aec6c4;fill-opacity:1;stroke-width:2.117;stroke-linejoin:round;stroke-miterlimit:3.1;paint-order:markers stroke fill"
         d="m 94.789222,208.97941 c 0,0 -0.205003,-0.67122 -0.641865,-0.53235 -0.436842,0.1389 -1.101778,1.30328 -0.315446,1.05329 0.786335,-0.25 0.957278,-0.52099 0.957278,-0.52099 z"
         id="path28-8" />
    </g>
    <g
       inkscape:groupmode="layer"
       id="layer8"
       inkscape:label="O">
      <path
         style="opacity:1;fill:#111b09;fill-opacity:1;stroke-width:2.117;stroke-linejoin:round;stroke-miterlimit:3.1;paint-order:markers stroke fill"
         d="m 102.40011,193.63955 c 0.96212,1.20599 1.79102,1.4802 2.04221,2.8366 0.25118,1.35639 2.26066,15.0208 2.26066,15.92507 0,0.90426 -0.9545,0.95449 -1.25592,0.10047 -0.30143,-0.85403 0.20094,-2.26066 -0.30143,-3.71752 -0.50236,-1.45687 -1.53222,-12.10708 -1.80852,-12.53409 -0.2763,-0.42701 -2.62451,-2.03132 -2.52403,-2.70952 0.10047,-0.67819 0.0101,-0.56248 0.53762,-0.56248 0.41541,-0.0594 0.80522,0.35539 1.04941,0.66147 z"
         id="path2"
         sodipodi:nodetypes="sssssssss" />
      <path
         style="opacity:1;fill:#111b09;fill-opacity:1;stroke-width:2.117;stroke-linejoin:round;stroke-miterlimit:3.1;paint-order:markers stroke fill"
         d="m 88.487259,213.63404 c 0,0 -0.497318,0.39077 1.225538,0.85254 2.29068,0.61395 3.409663,0.0969 4.226689,0.70079 0.817022,0.60389 -0.443513,0.3649 1.687854,0.6846 2.131366,0.31971 3.019437,-0.10657 3.516758,-0.42627 0.49732,-0.31971 1.030162,-0.74598 1.918232,-0.95912 0.88807,-0.21314 2.52212,-1.13673 3.30361,-1.20777 0.78151,-0.071 1.77614,-0.49732 1.77614,-0.49732 0,0 0.60389,0.67493 0,1.1012 -0.60388,0.42628 -5.11528,2.13137 -8.241282,2.80631 -3.126004,0.67493 -4.795575,0.21313 -5.399463,0.0355 -0.603887,-0.17762 -2.948392,-0.51508 -4.102883,-1.22554 -1.154488,-0.71045 -0.337465,-1.50972 -0.603885,-1.91823 -0.266422,-0.40851 -0.87031,-0.7815 -0.461798,-0.87031 0.408514,-0.0888 1.065683,-0.42627 1.474197,0.0533 0.408511,0.47955 0.337466,0.72822 0,0.72822 z"
         id="path3"
         sodipodi:nodetypes="csssssscssssssscc" />
      <path
         id="path4"
         style="opacity:1;fill:#111b09;fill-opacity:1;stroke-width:2.117;stroke-linejoin:round;stroke-miterlimit:3.1;paint-order:markers stroke fill"
         d="m 92.505465,192.66473 c -0.08653,4e-4 -0.158855,0.016 -0.199471,0.0465 -0.124328,0 -0.34701,0.0641 -0.763778,0.26614 -0.236102,0.11446 -0.371471,0.61744 -1.879989,2.12648 -0.562271,0.56247 -1.192692,1.01751 -1.192692,1.01751 0,0 -0.160031,-0.0176 0.01757,0.51522 0.03099,0.093 0.06669,0.17553 0.10387,0.24959 -0.279522,1.84669 -1.528395,10.17219 -1.560112,11.91659 -0.03552,1.95375 -0.03543,3.7301 0.710551,4.44055 0.745977,0.71045 1.101188,0.5328 0.817005,-0.28422 -0.284181,-0.81702 -0.532784,-1.31438 -0.532784,-2.20245 0,-0.88806 1.278493,-10.51473 1.420585,-11.50937 0.08765,-0.61354 0.255972,-1.41504 0.330729,-2.04019 0.027,-0.0171 0.05341,-0.0353 0.07803,-0.0558 0.319704,-0.26642 0.479558,-0.8878 0.479558,-0.8878 0,0 1.28689,-1.63443 2.202449,-2.18488 0.110814,-0.0666 0.340014,-0.31814 0.501262,-0.52038 0.486592,-0.61028 -0.157816,-0.89522 -0.532784,-0.89348 z" />
      <path
         id="path6"
         style="opacity:1;fill:#111b09;fill-opacity:1;stroke-width:2.117;stroke-linejoin:round;stroke-miterlimit:3.1;paint-order:markers stroke fill"
         d="m 96.597721,184.74428 c -0.959172,0.0204 -1.807193,0.20889 -2.32854,0.45372 -2.875915,1.35056 -3.755512,2.52677 -3.906221,3.20497 -0.150712,0.6782 -0.06876,0.92884 -0.04754,1.02061 0.03186,0.13782 0.163299,0.31626 0.163298,0.31626 0,0 0.349373,1.46142 0.801501,2.03915 0.452133,0.57772 1.406511,1.78318 3.692282,2.2102 2.285769,0.42701 4.496283,-0.67816 5.124229,-1.08003 0.62797,-0.4019 1.07997,-0.72831 0.87902,-0.87902 -0.20095,-0.15071 -0.67798,0.5277 -1.506883,0.72864 -0.828906,0.20095 -2.888384,0.60277 -4.445724,0.0501 -0.877048,-0.31121 -1.375647,-0.33428 -1.701704,-0.32763 -0.469005,-0.47433 -1.464029,-1.06269 -1.639177,-1.63194 -0.200948,-0.65308 -0.502702,-1.18046 -0.552938,-1.45676 -0.05024,-0.2763 1.20571,-2.88863 3.391008,-3.391 2.185299,-0.50236 3.251906,-0.51091 4.722709,0.0501 1.153189,0.43988 2.662349,2.05978 2.787939,2.43655 0.12559,0.37678 -0.27656,0.0504 -0.35192,0.97978 -0.0754,0.92939 -0.50188,2.68768 -0.45165,2.81327 0.0502,0.1256 0.12534,0.80382 0.3514,0.45217 0.22607,-0.35166 1.58257,-3.11495 1.35651,-3.8685 -0.22607,-0.75355 -1.40676,-2.71269 -3.340879,-3.56671 -0.967057,-0.42701 -2.037545,-0.5744 -2.996717,-0.55397 z"
         sodipodi:nodetypes="sssscsssssscsssssssssss" />
      <path
         style="opacity:1;fill:#111b09;fill-opacity:1;stroke-width:2.117;stroke-linejoin:round;stroke-miterlimit:3.1;paint-order:markers stroke fill"
         d="m 94.739271,189.88705 c 0,0 0.372988,0.51508 2.29122,0.40851 1.918229,-0.10656 4.529149,-1.38538 4.085119,-1.49195 -0.44403,-0.10657 -1.509718,0.94135 -3.19705,0.94135 -1.687333,0 -1.314342,-0.21313 -2.468833,-0.0177 -1.15449,0.19537 -0.710456,0.15985 -0.710456,0.15985 z"
         id="path7" />
      <path
         style="opacity:1;fill:#111b09;fill-opacity:1;stroke-width:2.117;stroke-linejoin:round;stroke-miterlimit:3.1;paint-order:markers stroke fill"
         d="m 94.118656,188.46338 c -0.0628,-0.0251 -1.080092,-0.0126 -0.841467,0.48981 0.238625,0.50236 0.565166,0.32654 0.879144,0.26374 0.313981,-0.0628 1.042413,-0.47725 0.615402,-0.56516 -0.427013,-0.0879 -0.653079,-0.18839 -0.653079,-0.18839 z"
         id="path8" />
      <path
         style="opacity:1;fill:#111b09;fill-opacity:1;stroke-width:2.117;stroke-linejoin:round;stroke-miterlimit:3.1;paint-order:markers stroke fill"
         d="m 95.876945,188.24987 c 0,0 0.565163,-0.21351 0.163269,-0.35166 -0.401894,-0.13815 -0.627959,0.0377 -0.627959,0.0377 0,0 -0.828908,-0.11303 -0.364218,0.12559 0.46469,0.23863 0.828908,0.18839 0.828908,0.18839 z"
         id="path9" />
      <path
         style="opacity:1;fill:#111b09;fill-opacity:1;stroke-width:2.117;stroke-linejoin:round;stroke-miterlimit:3.1;paint-order:markers stroke fill"
         d="m 98.673419,188.22636 c 0.328586,0.44404 0.905832,0.58613 1.314344,0.32859 0.408507,-0.25754 0.390747,-0.29306 0.204257,-0.37299 -0.1865,-0.0799 0.11545,-0.16873 -0.0622,-0.23978 -0.808483,-0.32365 -1.672309,-0.008 -1.456401,0.28418 z"
         id="path10"
         sodipodi:nodetypes="ssscs" />
      <path
         style="opacity:1;fill:#111b09;fill-opacity:1;stroke-width:2.117;stroke-linejoin:round;stroke-miterlimit:3.1;paint-order:markers stroke fill"
         d="m 97.283592,188.46614 c 0,0 -0.550604,-0.0488 -0.599448,0.009 -0.04885,0.0577 -0.506201,-0.18205 -0.377431,0.17762 0.12877,0.35967 1.669571,0.34635 1.412031,0.0799 -0.25754,-0.26642 -0.435152,-0.26642 -0.435152,-0.26642 z"
         id="path11" />
      <path
         style="opacity:1;fill:#111b09;fill-opacity:1;stroke-width:2.117;stroke-linejoin:round;stroke-miterlimit:3.1;paint-order:markers stroke fill"
         d="m 98.43364,187.07187 c 0,0 -0.337465,-0.19537 -0.701574,0.0533 -0.364109,0.24866 -0.444035,0.53284 -0.266423,0.58612 0.177615,0.0533 -0.106566,0.24866 0.337469,0.30195 0.444034,0.0533 1.403148,-0.42628 1.110085,-0.65718 -0.293063,-0.23089 -0.479557,-0.28418 -0.479557,-0.28418 z"
         id="path12" />
      <path
         style="opacity:1;fill:#111b09;fill-opacity:1;stroke-width:2.117;stroke-linejoin:round;stroke-miterlimit:3.1;paint-order:markers stroke fill"
         d="m 97.301353,186.40138 c 0,0 -0.830347,-0.18649 -0.928034,0.18205 -0.09769,0.36855 0.546164,0.79039 0.754859,0.63941 0.208695,-0.15097 0.346347,-0.22201 0.435155,-0.24421 0.08881,-0.0222 0.745977,-0.1421 0.38187,-0.42184 -0.364109,-0.27974 -0.64385,-0.15541 -0.64385,-0.15541 z"
         id="path13" />
      <path
         style="opacity:1;fill:#111b09;fill-opacity:1;stroke-width:2.117;stroke-linejoin:round;stroke-miterlimit:3.1;paint-order:markers stroke fill"
         d="m 94.972681,186.64229 c 0,0 -0.627959,-0.20094 -0.678196,0.28886 -0.05024,0.48981 0.678196,0.27631 0.841465,0.25119 0.163272,-0.0251 0.728435,-0.0879 0.389337,-0.32654 -0.339098,-0.23862 -0.552606,-0.21351 -0.552606,-0.21351 z"
         id="path14" />
      <path
         style="opacity:1;fill:#111b09;fill-opacity:1;stroke-width:2.117;stroke-linejoin:round;stroke-miterlimit:3.1;paint-order:markers stroke fill"
         d="m 98.690207,195.11975 c 0,0 0.427011,1.62014 0.577722,2.13507 0.15071,0.51492 -0.02511,0.85403 0.13815,0.91682 0.163272,0.0628 0.389337,-0.3391 0.313981,-0.59028 -0.07536,-0.25119 -0.05024,-1.2308 -0.251185,-1.6327 -0.200946,-0.40189 -0.766111,-1.41919 -0.791228,-1.28104 -0.02511,0.13815 0.01257,0.45213 0.01257,0.45213 z"
         id="path18" />
      <path
         id="path22"
         style="fill:#aec6c4;fill-opacity:1;stroke-width:2.117;stroke-linejoin:round;stroke-miterlimit:3.1;paint-order:markers stroke fill"
         d="m 96.64619,201.73309 c -1.344314,0.001 -2.634101,0.31187 -4.250387,0.6227 -1.847184,0.35523 -0.817159,0.92361 -0.994771,0.95911 -0.177615,0.0355 -1.207677,0.28434 -1.385292,1.3145 -0.177614,1.03016 -0.994714,5.82596 -0.390827,7.2824 0.603886,1.45642 1.421044,0.63923 1.953886,0.63923 0.53284,0 0.177404,0.74602 1.314132,1.24334 1.136727,0.49726 3.339293,0.78158 4.973339,0.56844 0.773923,-0.10094 1.254037,-0.2649 1.552357,-0.41031 0.14641,0.0929 0.32395,0.13192 0.4899,0.0904 0.568363,-0.1421 -0.17733,-0.10641 1.172543,-0.78135 1.34986,-0.67492 3.14351,-0.92349 2.94814,-1.20767 -0.0702,-0.10207 -0.0642,-0.23861 -0.0465,-0.37156 0.15088,-0.16505 -0.0461,-1.27832 -0.0775,-2.75435 -0.0355,-1.66957 -0.99477,-5.29322 -0.99477,-5.29322 0,0 0.1065,-0.24845 0.39067,-0.35502 0.28418,-0.10656 -1.42079,-0.81692 -2.98379,-1.20767 -1.563009,-0.39071 -1.527773,-0.21331 -3.090774,-0.31988 -0.195375,-0.0133 -0.388281,-0.0193 -0.580326,-0.0191 z m 5.37592,1.93733 c 0.26415,0.46818 0.9239,6.53629 0.9594,7.3178 0.0252,0.55368 0.51361,-0.28502 0.68958,0.27814 -0.18114,0.13324 -0.0858,0.50333 -0.0858,0.50333 0,0 -3.14354,0.23076 -4.049373,0.92345 -0.3858,0.29502 -0.47814,0.60924 -0.41341,0.86197 -0.606913,-0.0623 -2.324857,-0.0515 -3.352253,-0.22273 -1.278819,-0.21313 -2.912657,-1.13627 -3.232361,-1.38493 -0.319706,-0.24866 -0.639371,-0.16917 -1.207735,-0.28462 -1.174351,-0.23854 -0.477215,-4.78694 -0.264075,-5.60396 0.213138,-0.81703 0.33516,-1.71337 0.583818,-1.99756 0.24866,-0.28418 2.08946,-0.81613 2.764394,-0.9227 0.67493,-0.10657 2.518679,-0.43831 3.727561,-0.42341 2.452214,0.31682 3.731774,0.69206 3.880254,0.95522 z"
         sodipodi:nodetypes="sssssscsccsscscsssssscccscsssssscs" />
      <path
         style="fill:#111b09;fill-opacity:1;stroke-width:2.117;stroke-linejoin:round;stroke-miterlimit:3.1;paint-order:markers stroke fill"
         d="m 92.397159,200.64929 c 0,0 -0.355229,8.4189 -0.24866,9.52011 0.106568,1.1012 0.568364,1.42091 0.63941,0.81702 0.07105,-0.60389 0.319704,-1.66957 0.284181,-3.19705 -0.03552,-1.52748 -0.106566,-4.61796 -0.106566,-5.11528 0,-0.49732 0.142089,-2.06032 -0.03552,-2.34451 -0.177615,-0.28418 -0.568365,0.0355 -0.532842,0.31971 z"
         id="path15" />
      <path
         style="fill:#111b09;fill-opacity:1;stroke-width:2.117;stroke-linejoin:round;stroke-miterlimit:3.1;paint-order:markers stroke fill"
         d="m 95.411546,201.31129 c 0,0 -0.385701,2.60609 -0.350178,3.49417 0.03552,0.88806 -0.532842,2.77077 -0.03552,3.76541 0.497319,0.99464 1.172252,2.20241 0.994637,0.7815 -0.177614,-1.42091 -0.390749,-4.97319 -0.03552,-5.96783 0.355227,-0.99463 0.911302,-1.32592 0.77315,-1.51431 -0.13815,-0.18838 -0.13815,-0.0879 -0.213506,-0.40189 -0.07536,-0.31398 -0.351657,-1.2308 -0.615399,-0.80379 -0.263745,0.42701 -0.140882,1.02352 -0.140882,1.02352 z"
         id="path16"
         sodipodi:nodetypes="cssssssscc" />
      <path
         style="fill:#111b09;fill-opacity:1;stroke-width:2.117;stroke-linejoin:round;stroke-miterlimit:3.1;paint-order:markers stroke fill"
         d="m 100.38772,200.12451 c 0,0 -0.12559,10.44925 0.10047,11.12745 0.22607,0.6782 0.77867,0.85402 0.77867,0.45213 0,-0.4019 -0.1507,-0.92938 -0.30142,-2.38625 -0.15071,-1.45687 -0.0502,-9.06774 -0.17583,-9.21845 -0.12559,-0.15071 -0.40189,0.0251 -0.40189,0.0251 z"
         id="path17" />
      <path
         style="opacity:1;fill:#111b09;fill-opacity:1;stroke-width:2.117;stroke-linejoin:round;stroke-miterlimit:3.1;paint-order:markers stroke fill"
         d="m 93.176716,198.28467 c 0,0 -0.527487,0.0754 -0.502367,0.1256 0.02511,0.0502 -0.113033,0.23862 0.816348,0.46469 0.929381,0.22606 2.976531,-0.11304 3.152359,-0.11304 0.175829,0 1.645254,-0.23862 1.921558,-0.22606 0.276302,0.0126 1.029854,0.0377 0.766112,-0.13815 -0.263745,-0.17583 -0.590283,-0.26375 -0.778672,-0.26375 -0.188388,0 -1.670372,0.20095 -2.197859,0.21351 -0.527487,0.0126 -2.461604,0.15071 -2.474164,0.0126 -0.01257,-0.13815 0.502367,-1.28104 0.427014,-1.38151 -0.07536,-0.10048 -0.326541,-0.35166 -0.602843,0.32653 -0.276301,0.6782 -0.364217,1.00474 -0.427013,1.00474 -0.0628,0 -0.100473,-0.0251 -0.100473,-0.0251 z"
         id="path19" />
      <path
         style="opacity:1;fill:#111b09;fill-opacity:1;stroke-width:2.117;stroke-linejoin:round;stroke-miterlimit:3.1;paint-order:markers stroke fill"
         d="m 91.524459,197.29356 c -0.115448,-0.0533 0.12433,-0.21314 -0.452916,-0.28419 -0.577244,-0.071 -0.346348,0.14209 -0.25754,0.17762 0.08881,0.0355 0.07105,0.81702 0.417393,0.95911 0.346348,0.14209 0.621649,0.4618 0.745977,0.32859 0.12433,-0.13321 -0.07104,-0.66605 -0.213135,-0.83479 -0.142092,-0.16873 -0.239779,-0.34634 -0.239779,-0.34634 z"
         id="path20" />
      <path
         style="opacity:1;fill:#111b09;fill-opacity:1;stroke-width:2.117;stroke-linejoin:round;stroke-miterlimit:3.1;paint-order:markers stroke fill"
         d="m 102.18129,197.02713 c 0,0 -1.75837,0.79927 -1.90046,1.17226 -0.1421,0.37298 -0.674938,0.46179 -0.26643,0.5506 0.40852,0.0888 2.98392,-1.58076 2.64645,-1.63405 -0.33746,-0.0533 -0.47956,-0.0888 -0.47956,-0.0888 z"
         id="path21" />
      <path
         style="opacity:1;fill:#aec6c4;fill-opacity:1;stroke-width:2.117;stroke-linejoin:round;stroke-miterlimit:3.1;paint-order:markers stroke fill"
         d="m 98.184982,209.54892 c 0,0 -0.532842,0.67493 0.284181,0.60388 0.817025,-0.071 1.491956,-0.21313 1.065683,-0.71045 -0.426272,-0.49732 -1.349864,0.10657 -1.349864,0.10657 z"
         id="path29" />
      <path
         style="opacity:1;fill:#aec6c4;fill-opacity:1;stroke-width:2.117;stroke-linejoin:round;stroke-miterlimit:3.1;paint-order:markers stroke fill"
         d="m 95.911523,212.14208 c 0.07105,0.67493 0.355227,1.31434 0.817023,0.71045 0.461796,-0.60388 0.497319,-1.24329 -0.03552,-1.06568 -0.532842,0.17762 -0.7815,0.35523 -0.7815,0.35523 z"
         id="path30" />
    </g>
  </g>
</svg>
