<?xml version="1.0" encoding="UTF-8" standalone="no"?>
<!-- Created with Inkscape (http://www.inkscape.org/) -->

<svg
   width="41.362869mm"
   height="46.316967mm"
   viewBox="0 0 41.362869 46.316967"
   version="1.1"
   id="svg1"
   inkscape:version="1.3 (0e150ed6c4, 2023-07-21)"
   sodipodi:docname="sugar.svg"
   xmlns:inkscape="http://www.inkscape.org/namespaces/inkscape"
   xmlns:sodipodi="http://sodipodi.sourceforge.net/DTD/sodipodi-0.dtd"
   xmlns="http://www.w3.org/2000/svg"
   xmlns:svg="http://www.w3.org/2000/svg">
  <sodipodi:namedview
     id="namedview1"
     pagecolor="#ffffff"
     bordercolor="#000000"
     borderopacity="0.25"
     inkscape:showpageshadow="2"
     inkscape:pageopacity="0.0"
     inkscape:pagecheckerboard="0"
     inkscape:deskcolor="#d1d1d1"
     inkscape:document-units="mm"
     inkscape:zoom="1.3166807"
     inkscape:cx="-47.847591"
     inkscape:cy="20.126368"
     inkscape:window-width="1920"
     inkscape:window-height="974"
     inkscape:window-x="-11"
     inkscape:window-y="-11"
     inkscape:window-maximized="1"
     inkscape:current-layer="layer2" />
  <defs
     id="defs1">
    <pattern
       id="EMFhbasepattern"
       patternUnits="userSpaceOnUse"
       width="6"
       height="6"
       x="0"
       y="0" />
  </defs>
  <g
     inkscape:groupmode="layer"
     id="layer2"
     inkscape:label="Layer 2"
     transform="translate(-79.572346,-175.92331)">
    <path
       id="path1"
       style="opacity:0.5;fill:#000000;fill-opacity:1;stroke-width:2.117;stroke-linejoin:round;stroke-miterlimit:3.1;paint-order:markers stroke fill"
       d="m 90.046245,201.71792 c -0.536946,0.0554 -0.896623,0.15173 -0.896623,0.15173 0,0 -4.836399,1.21385 -5.652622,3.01532 -0.530934,1.17182 0.13089,3.34577 0.659103,4.72597 l -2.800588,1.72877 c 0,0 -0.846108,-1.66697 -1.629404,-0.10204 -0.783297,1.56493 1.567227,6.04541 3.854739,7.29399 2.287512,1.24858 13.887503,3.83186 16.43801,3.70404 2.55051,-0.12782 3.34285,-0.64406 5.0235,-1.35691 1.68066,-0.71287 -1.38763,-0.89833 -0.86503,-1.50007 2.09495,-0.62062 17.07918,-14.50525 14.6719,-16.11009 l -24.157812,0.88367 c -0.727779,-0.93173 -1.803521,-2.13208 -2.685139,-2.33795 -0.708774,-0.16552 -1.423118,-0.15176 -1.960065,-0.0965 z m 0.0198,2.2548 c 0.669096,-0.0623 1.248163,0.0386 1.58422,0.40653 0.125569,0.13747 0.238164,0.26897 0.341522,0.39518 l -4.601607,2.78469 c -0.506946,-0.99264 -1.197515,-1.53892 -0.629602,-2.00828 0.725377,-0.59947 1.83342,-1.44146 3.305467,-1.57812 z"
       sodipodi:nodetypes="ccsccsssscccsscsccccs" />
    <g
       inkscape:groupmode="layer"
       id="layer3"
       inkscape:label="F">
      <path
         style="opacity:1;fill:#67b32f;fill-opacity:1;stroke-width:2.117;stroke-linejoin:round;stroke-miterlimit:3.1;paint-order:markers stroke fill"
         d="m 85.943571,187.6709 c 0,0 5.657432,2.95237 8.134834,3.95972 2.477401,1.00735 11.183145,3.64568 12.177445,3.49276 0.9943,-0.1529 10.26803,-8.17868 10.26803,-8.17868 l 3.13256,-3.9084 c 0,0 -1.63968,-1.69968 -2.16515,-1.89806 -0.52545,-0.19839 -1.91225,-0.91406 -3.21819,-1.33506 -1.30594,-0.42099 -12.48092,-3.00697 -12.48092,-3.00697 0,0 -9.282787,4.99652 -11.144189,6.04682 -1.861406,1.0503 -3.938144,1.97129 -4.03658,2.48645 -0.09844,0.51517 -0.66784,2.34142 -0.66784,2.34142 z"
         id="path26" />
      <path
         style="fill:#addb5b;fill-opacity:1;stroke-width:2.117;stroke-linejoin:round;stroke-miterlimit:3.1;paint-order:markers stroke fill"
         d="m 95.727275,186.7257 c 0,0 5.165335,-2.80475 6.382245,-3.73815 1.21692,-0.93341 5.507,-3.9005 5.1911,-2.55489 -0.31591,1.34562 -2.07373,1.93072 -1.25872,1.99827 0.815,0.0676 4.774,1.73031 5.49784,1.40323 0.72384,-0.32708 6.22657,-2.30804 6.01639,-2.38739 -0.21019,-0.0794 -2.53919,-1.60701 -2.53919,-1.60701 l -4.86213,-1.1152 -7.87894,-1.96598 c 0,0 -12.037911,4.72481 -11.039712,7.55113 0.9982,2.82632 4.491117,2.41599 4.491117,2.41599 z"
         id="path29" />
      <path
         style="opacity:1;fill:#648a40;fill-opacity:1;stroke-width:2.117;stroke-linejoin:round;stroke-miterlimit:3.1;paint-order:markers stroke fill"
         d="m 114.4435,188.32058 c 0,0 -2.06306,-2.86813 -1.39433,-3.24004 1.63391,-0.90869 5.65992,-2.90619 5.65992,-2.90619 l 1.05758,0.9516 z"
         id="path27"
         sodipodi:nodetypes="csccc" />
      <path
         style="opacity:1;fill:#648a40;fill-opacity:1;stroke-width:2.117;stroke-linejoin:round;stroke-miterlimit:3.1;paint-order:markers stroke fill"
         d="m 104.11583,194.93981 c 0,0 0.94495,-1.61242 0.0579,-2.37959 -0.88708,-0.76715 -1.39798,-2.78513 -1.04302,-2.7712 0.35495,0.0139 1.83353,-0.3404 0.93251,-0.7526 -0.901,-0.4122 -0.80469,0.0324 -1.59032,-0.24019 -0.78562,-0.27259 -4.555022,-2.05588 -5.545681,-2.35784 -0.99066,-0.30198 -3.781829,-0.92348 -3.473207,-1.3593 0.308621,-0.43581 3.447827,-3.78937 5.010911,-4.30392 1.563067,-0.51453 6.773257,-3.3744 6.773257,-3.3744 0,0 -2.1055,-0.33862 -2.4656,-0.40253 -0.36011,-0.0639 -2.06432,0.0611 -2.66762,0.57783 -0.603313,0.51667 -7.721222,3.97708 -7.721222,3.97708 0,0 -5.444591,3.03553 -6.094854,4.56709 -0.650266,1.53157 -0.09906,1.97982 -0.09906,1.97982 0,0 8.448602,3.57387 11.177372,5.06036 2.728774,1.48648 6.748664,1.77939 6.748664,1.77939 z"
         id="path28" />
      <path
         style="opacity:1;fill:#d6fdf9;fill-opacity:1;stroke-width:2.117;stroke-linejoin:round;stroke-miterlimit:3.1;paint-order:markers stroke fill"
         d="m 118.87685,184.7832 c 0,0 1.16374,0.5114 1.34499,1.78055 0.18121,1.26914 -1.40972,16.7101 -1.40972,16.7101 0,0 -13.43734,7.31835 -14.14027,7.113 -0.70294,-0.20534 -15.67187,-3.58729 -16.387683,-3.91756 -0.715811,-0.33029 -1.482559,-8.50849 -1.482559,-8.50849 0,0 -0.813087,-8.62795 -0.678607,-8.7933 0.13447,-0.16537 0.638901,-1.15163 0.638901,-1.15163 0,0 9.647314,4.91497 11.473566,5.48437 1.826252,0.5694 7.926332,1.93584 8.467562,1.55182 0.54121,-0.38403 9.49862,-8.04891 9.70547,-8.24698 0.20686,-0.19807 2.57601,-1.95722 2.57601,-1.95722 z"
         id="path30" />
      <path
         style="opacity:1;fill:#f8f7e8;fill-opacity:1;stroke-width:2.117;stroke-linejoin:round;stroke-miterlimit:3.1;paint-order:markers stroke fill"
         d="m 117.72676,194.6992 c 0,0 -0.50203,4.73941 -0.34816,5.36635 0.15386,0.62695 0.18724,2.33762 0.18724,2.33762 0,0 -9.1884,3.5356 -9.58514,3.84431 -0.39672,0.3087 -3.28688,1.89203 -3.88577,1.97158 -0.59888,0.0796 -2.96123,-0.31988 -2.96123,-0.31988 0,0 -5.795791,-2.00981 -6.816135,-2.20825 -1.020342,-0.19842 -4.759502,-0.61672 -4.878784,-0.90797 -0.119274,-0.29125 -0.178587,-1.21362 -0.178587,-1.21362 l -0.471246,-9.25411 c 0,0 -0.214149,-0.69216 0.06179,-0.61345 0.275942,0.0787 1.353683,-0.0323 2.4795,-0.0233 1.125818,0.009 7.244588,-1.08558 7.244588,-1.08558 0,0 5.853494,2.3967 6.677134,2.41897 0.82364,0.0223 2.85385,-0.72252 3.08664,-0.88934 0.23279,-0.16683 1.58327,-1.27014 1.76359,-1.25301 0.18032,0.0171 5.24745,0.67358 5.24745,0.67358 l 2.18932,0.45298 z"
         id="path31" />
      <path
         style="opacity:1;fill:#d6fdf9;fill-opacity:1;stroke-width:2.117;stroke-linejoin:round;stroke-miterlimit:3.1;paint-order:markers stroke fill"
         d="m 86.284953,183.14099 1.693287,1.23963 c 0,0 4.522054,-1.45064 3.637553,-2.19282 -0.8845,-0.74218 -4.659492,-3.5602 -5.359105,-3.48813 -0.699613,0.0721 -2.148811,0.22137 -2.938693,1.86832 -0.789886,1.64696 -1.685356,6.43595 -1.250476,8.94154 0.434881,2.50559 0.871267,5.51605 1.936573,6.5426 1.065306,1.02657 2.439233,1.61731 2.439233,1.61731 0,0 -0.259483,-5.70531 -0.353969,-6.37737 -0.09448,-0.67205 -0.435192,-1.77325 -0.717449,-2.55222 -0.282259,-0.77897 0.400713,-2.23815 0.483707,-2.90323 0.08299,-0.66509 0.492934,-2.32341 0.492934,-2.32341 z"
         id="path32" />
      <path
         style="opacity:1;fill:#a8c6c4;fill-opacity:1;stroke-width:2.117;stroke-linejoin:round;stroke-miterlimit:3.1;paint-order:markers stroke fill"
         d="m 82.758021,186.7079 c -0.175441,1.09258 0.175318,3.41763 1.07475,5.28521 1.197927,2.48737 1.978202,-0.16167 0.971274,-1.1118 -1.006932,-0.95015 -0.866892,-2.77728 -0.782784,-3.18642 0.08411,-0.40915 1.028003,-2.27692 -0.05285,-2.2288 -1.080851,0.0481 -1.131497,0.75048 -1.210392,1.24181 z"
         id="path33"
         sodipodi:nodetypes="sscscs" />
    </g>
    <g
       inkscape:groupmode="layer"
       id="layer5"
       inkscape:label="I">
      <path
         style="opacity:1;fill:#a8c6c4;fill-opacity:1;stroke-width:2.117;stroke-linejoin:round;stroke-miterlimit:3.1;paint-order:markers stroke fill"
         d="m 93.57438,200.42965 c -1.353676,-1.65579 -0.06246,2.36991 4.319658,1.76697 4.382122,-0.60295 3.989622,-1.47156 5.819512,-1.35706 1.8299,0.11451 13.3136,-6.06828 13.52014,-5.53404 0.20655,0.53426 0.32256,-0.79077 0.32256,-0.79077 0,0 -10.05447,4.36898 -12.38258,4.81083 -2.32811,0.44185 -7.514143,1.95657 -8.007401,2.02577 -1.473297,0.20666 -3.591889,-0.9217 -3.591889,-0.9217 z"
         id="path10"
         sodipodi:nodetypes="cssscssc" />
      <path
         style="opacity:1;fill:#a8c6c4;fill-opacity:1;stroke-width:2.117;stroke-linejoin:round;stroke-miterlimit:3.1;paint-order:markers stroke fill"
         d="m 109.75719,193.33357 c 0.46665,0.0234 4.14263,0.002 5.65328,0.45322 1.51066,0.45146 1.91648,0.23111 1.88328,0.94874 -0.0332,0.71764 -0.11594,6.1542 0.0811,7.02667 0.19701,0.87247 0.38462,0.96028 0.38462,0.96028 0,0 -0.19402,-2.22979 -0.11668,-3.55906 0.0773,-1.32926 1.36166,-4.46128 0.18252,-5.16115 -1.17914,-0.69989 -7.12708,-1.58698 -7.21489,-1.39939 -0.0878,0.18761 -0.85321,0.73069 -0.85321,0.73069 z"
         id="path11" />
      <path
         style="opacity:1;fill:#a8c6c4;fill-opacity:1;stroke-width:2.117;stroke-linejoin:round;stroke-miterlimit:3.1;paint-order:markers stroke fill"
         d="m 96.068565,192.52968 c 0,0 -3.815197,0.75015 -5.444284,0.88225 -1.629083,0.13214 -1.387507,-0.64269 -1.911768,0.16126 -0.524264,0.80394 0.403552,10.85022 0.403552,10.85022 0,0 -0.506062,0.98061 0.109207,1.06007 0.615269,0.0795 1.472115,-0.61589 6.555946,0.8959 5.083832,1.51179 5.720932,1.80326 5.961012,1.70711 0.24006,-0.0962 1.1588,-0.19086 -0.0229,-0.56902 -1.18171,-0.37821 -7.786043,-2.09046 -9.183405,-2.48217 -1.397364,-0.3917 -3.062853,-0.61296 -3.062853,-0.61296 0,0 -0.440936,-7.36045 -0.409958,-8.28532 0.03098,-0.92487 -0.289507,-1.9524 0.15032,-1.97246 0.439829,-0.0201 0.343748,0.0277 0.375922,0.34003 0.03218,0.31233 0.43109,3.32665 1.408564,4.23601 0.977477,0.90935 1.62696,1.20859 1.063042,0.26925 -0.563917,-0.93932 -1.697968,-2.38809 -1.673268,-3.74157 0.0247,-1.35349 -0.149452,-1.08304 0.09821,-1.00755 0.247663,0.0755 0.207237,-0.0718 0.851727,-0.18875 0.644494,-0.11686 2.074762,-0.32737 3.245251,-0.48583 1.170484,-0.15848 1.843073,-0.49288 1.843073,-0.49288 z"
         id="path12" />
      <path
         style="opacity:1;fill:#a8c6c4;fill-opacity:1;stroke-width:2.117;stroke-linejoin:round;stroke-miterlimit:3.1;paint-order:markers stroke fill"
         d="m 102.81428,208.44027 c 0,0 -0.0587,0.47028 1.70084,0.2176 1.75949,-0.25273 2.69945,-1.52797 4.43969,-2.31433 1.74023,-0.78637 8.86545,-3.37735 8.801,-3.6564 -0.0644,-0.27905 0.84485,-1.15836 -2.53327,0.3681 -3.37811,1.52647 -6.26729,2.25264 -7.46657,3.09041 -1.19929,0.83776 -0.44738,0.51032 -1.78544,1.04098 -1.33805,0.53066 -2.64183,0.70068 -2.9635,0.69811 -0.32165,-0.003 -0.33773,0.53475 -0.19275,0.55553 z"
         id="path13" />
      <path
         style="opacity:1;fill:#a8c6c4;fill-opacity:1;stroke-width:2.117;stroke-linejoin:round;stroke-miterlimit:3.1;paint-order:markers stroke fill"
         d="m 97.388375,199.79478 c 0,0 -0.317488,0.21126 0.365079,0.33735 0.682565,0.12609 0.504181,-0.13226 0.679948,-0.15931 0.175755,-0.0272 0.444536,-0.27792 0.08727,-0.3661 -0.357262,-0.0882 -0.570831,0.005 -0.770638,-0.0277 -0.199809,-0.033 -0.361658,0.21582 -0.361658,0.21582 z"
         id="path14" />
      <path
         style="opacity:1;fill:#a8c6c4;fill-opacity:1;stroke-width:2.117;stroke-linejoin:round;stroke-miterlimit:3.1;paint-order:markers stroke fill"
         d="m 90.87903,202.24382 c -0.156088,0.0201 -0.630901,0.065 -0.180365,0.70036 0.450538,0.63538 0.91708,-0.14112 0.68296,-0.41755 -0.186864,-0.22064 -0.313253,-0.30675 -0.502595,-0.28281 z"
         id="path15"
         sodipodi:nodetypes="ssss" />
      <path
         style="opacity:1;fill:#a8c6c4;fill-opacity:1;stroke-width:2.117;stroke-linejoin:round;stroke-miterlimit:3.1;paint-order:markers stroke fill"
         d="m 100.89955,204.28587 c -0.22617,0.0106 -1.128401,0.44452 -0.86438,0.5562 0.26402,0.11168 0.48579,0.30348 0.65296,0.2105 0.16718,-0.093 0.0414,0.0336 0.38434,-0.19111 0.34299,-0.22471 0.62534,-0.67045 0.26305,-0.63313 -0.36231,0.0373 -0.43597,0.0576 -0.43597,0.0576 z"
         id="path16" />
      <path
         style="opacity:1;fill:#a8c6c4;fill-opacity:1;stroke-width:2.117;stroke-linejoin:round;stroke-miterlimit:3.1;paint-order:markers stroke fill"
         d="m 100.14161,205.75279 c -0.198978,-0.0931 -0.90964,-0.37345 -1.092265,-0.43039 -0.18263,-0.057 -0.374414,0.16483 0.217374,0.39425 0.591789,0.22942 1.034571,0.36057 0.874891,0.0361 z"
         id="path17" />
      <path
         style="opacity:1;fill:#a8c6c4;fill-opacity:1;stroke-width:2.117;stroke-linejoin:round;stroke-miterlimit:3.1;paint-order:markers stroke fill"
         d="m 103.11557,206.06506 c -0.39373,-0.0226 -0.10601,0.074 -0.47731,0.0239 -0.37131,-0.0501 -0.67774,0.28445 -0.34997,0.40219 0.32777,0.11775 0.30264,0.48648 0.82825,0.3187 0.52562,-0.16778 0.51844,-0.48268 0.34315,-0.59088 -0.17528,-0.1082 -0.34412,-0.15393 -0.34412,-0.15393 z"
         id="path18" />
      <path
         style="opacity:1;fill:#a8c6c4;fill-opacity:1;stroke-width:2.117;stroke-linejoin:round;stroke-miterlimit:3.1;paint-order:markers stroke fill"
         d="m 111.12594,201.83092 c 0,0 -0.85649,0.265 -0.97332,0.47905 -0.11683,0.21403 -0.46385,0.76744 0.0811,0.78706 0.54492,0.0197 1.39015,-1.09014 0.89224,-1.26611 z"
         id="path19" />
      <path
         style="opacity:1;fill:#a8c6c4;fill-opacity:1;stroke-width:2.117;stroke-linejoin:round;stroke-miterlimit:3.1;paint-order:markers stroke fill"
         d="m 114.40613,199.23301 c -0.0823,0.0589 -0.63881,-0.0731 -0.38011,0.35479 0.25872,0.42788 0.61352,0.80798 0.6697,0.37292 0.0562,-0.43507 0.0679,-0.68879 -0.0608,-0.7134 -0.12879,-0.0246 -0.22874,-0.0143 -0.22874,-0.0143 z"
         id="path20" />
      <path
         style="opacity:1;fill:#a8c6c4;fill-opacity:1;stroke-width:2.117;stroke-linejoin:round;stroke-miterlimit:3.1;paint-order:markers stroke fill"
         d="m 113.48773,201.2846 c -0.15027,-0.0706 -0.29853,0.13891 -0.27536,0.36379 0.0232,0.22487 0.0182,0.45811 0.22205,0.29824 0.20378,-0.15988 0.38281,-0.50727 0.0533,-0.66203 z"
         id="path21"
         sodipodi:nodetypes="ssss" />
      <path
         style="opacity:1;fill:#a8c6c4;fill-opacity:1;stroke-width:2.117;stroke-linejoin:round;stroke-miterlimit:3.1;paint-order:markers stroke fill"
         d="m 116.02918,201.52586 c 0,0 -0.23279,0.16683 -0.46091,0.11896 -0.22813,-0.048 -0.53925,0.22518 -0.338,0.44549 0.20126,0.22032 0.41782,0.24264 0.45107,0.13208 0.0332,-0.11054 0.047,-0.23696 0.32385,-0.14942 0.27686,0.0875 0.42067,0.0103 0.31814,-0.29168 -0.10248,-0.3019 -0.29414,-0.25538 -0.29414,-0.25538 z"
         id="path22" />
      <path
         style="opacity:1;fill:#a8c6c4;fill-opacity:1;stroke-width:2.117;stroke-linejoin:round;stroke-miterlimit:3.1;paint-order:markers stroke fill"
         d="m 115.47657,200.23471 c -0.17706,0.0808 -0.57196,0.51423 -0.20249,0.5476 0.36947,0.0333 0.82322,-0.41514 0.60639,-0.52672 -0.21684,-0.11157 -0.30151,-0.0676 -0.4039,-0.0209 z"
         id="path23"
         sodipodi:nodetypes="scss" />
      <path
         style="opacity:1;fill:#a8c6c4;fill-opacity:1;stroke-width:2.117;stroke-linejoin:round;stroke-miterlimit:3.1;paint-order:markers stroke fill"
         d="m 94.012823,198.96026 c 0,0 0.235548,0.203 0.339354,0.23019 0.103809,0.0272 -0.08208,0.55135 0.474581,0.31724 0.556663,-0.2341 0.697728,-0.70316 0.378966,-0.73344 -0.318764,-0.0303 -0.04354,0.0676 -0.444984,-0.03 -0.401444,-0.0975 -0.869213,-0.2261 -0.877469,-0.0611 -0.0082,0.16498 0.08692,0.23093 0.129547,0.27704 z"
         id="path24" />
      <path
         style="opacity:1;fill:#a8c6c4;fill-opacity:1;stroke-width:2.117;stroke-linejoin:round;stroke-miterlimit:3.1;paint-order:markers stroke fill"
         d="m 116.56615,197.47094 c -0.0815,-0.007 -0.29398,-0.0144 -0.16468,0.23122 0.1293,0.24558 0.39754,0.43051 0.38943,0.12059 -0.004,-0.16918 -0.11428,-0.34236 -0.22475,-0.35181 z"
         id="path25"
         sodipodi:nodetypes="assa" />
    </g>
    <g
       inkscape:groupmode="layer"
       id="layer4"
       inkscape:label="O">
      <path
         style="opacity:1;fill:#111b09;fill-opacity:1;stroke-width:2.117;stroke-linejoin:round;stroke-miterlimit:3.1;paint-order:markers stroke fill"
         d="m 85.458048,187.98045 c 8.056127,4.97712 18.674132,8.04108 20.029912,7.93558 2.83413,-0.22059 9.30323,-7.10066 11.93717,-9.26468 2.63392,-2.16401 3.51455,-4.36166 2.38746,-4.20985 -1.12711,0.15181 -0.55019,1.59225 -6.25193,6.21496 -4.06381,3.29474 -6.05084,6.08708 -8.00629,5.8243 -1.95546,-0.2628 -10.249258,-3.12231 -14.059932,-4.40815 -3.810675,-1.28583 -5.42796,-3.11903 -5.859269,-3.14602 -0.431315,-0.027 -0.177121,1.05386 -0.177121,1.05386 z"
         id="path2"
         sodipodi:nodetypes="ccssssscc" />
      <path
         style="opacity:1;fill:#111b09;fill-opacity:1;stroke-width:2.117;stroke-linejoin:round;stroke-miterlimit:3.1;paint-order:markers stroke fill"
         d="m 85.870092,187.47376 c 0,0 0.774278,0.0631 1.586157,-0.89548 0.811876,-0.95854 -0.650918,-0.77214 1.611011,-2.04077 2.261932,-1.26863 6.932283,-4.46378 8.817506,-5.22937 1.885229,-0.76558 6.132174,-2.52439 5.456084,-2.84756 -0.67608,-0.32317 -0.16163,-0.87613 -1.66913,-0.25658 -1.50745,0.61954 -7.260779,3.35487 -8.897586,4.45198 -1.636808,1.0971 -7.492137,4.75995 -7.554539,5.62492 -0.0624,0.86498 0.650497,1.19286 0.650497,1.19286 z"
         id="path3"
         sodipodi:nodetypes="csssssssc" />
      <path
         style="opacity:1;fill:#111b09;fill-opacity:1;stroke-width:2.117;stroke-linejoin:round;stroke-miterlimit:3.1;paint-order:markers stroke fill"
         d="m 119.64682,182.56572 c 0,0 -0.49274,-1.66336 -4.17921,-2.78344 -3.68647,-1.12008 -12.675,-3.44378 -12.675,-3.44378 l -1.23461,0.84141 c 0,0 8.95833,1.68401 12.25975,2.87947 3.30141,1.19546 5.66439,2.98755 5.66439,2.98755 z"
         id="path4" />
      <path
         style="opacity:1;fill:#111b09;fill-opacity:1;stroke-width:2.117;stroke-linejoin:round;stroke-miterlimit:3.1;paint-order:markers stroke fill"
         d="m 86.521764,187.90658 c 0,0 -0.753415,1.00609 -0.784043,1.40208 -0.03063,0.39597 1.156454,16.77205 2.123575,17.49378 0.967119,0.72171 1.507009,0.41612 2.515678,0.84786 1.008668,0.43175 5.360303,1.769 8.253756,2.47082 2.89345,0.70183 5.14145,0.68451 5.7323,0.87362 0.59086,0.18911 7.67753,-3.46924 9.42762,-4.50659 1.7501,-1.03735 5.09546,-2.88183 5.09546,-2.88183 0,0 0.67715,0.68016 0.8834,-0.091 0.20623,-0.77117 0.14077,-7.2995 0.40251,-9.61196 0.26172,-2.31245 0.23481,-7.77342 0.23481,-7.77342 0,0 0.95557,-0.77696 0.29662,-1.28044 -0.65896,-0.50349 -1.14123,-1.02518 -1.14123,-1.02518 l -1.3297,0.95833 1.02536,1.28709 c 0,0 -6.37784,4.29954 -7.43578,5.12274 -1.05793,0.8232 -4.09405,3.24291 -3.91374,3.26004 0.18033,0.0171 3.14169,-1.39497 3.56102,-1.83099 0.41932,-0.43601 8.82309,-6.90835 8.51448,-6.09092 -0.30861,0.81743 -1.23715,15.37596 -1.5359,15.94239 -0.29876,0.56644 0.0229,0.56902 0.0229,0.56902 0,0 -2.76028,1.28426 -4.10454,2.10125 -1.34427,0.81698 -9.5133,4.42052 -9.66299,4.00742 -0.14968,-0.41311 -0.18674,-8.27792 -2e-4,-8.54711 0.18652,-0.26919 0.37616,-0.68155 0.25452,-1.16897 -0.12158,-0.48742 -0.031,-4.46065 -0.031,-4.46065 l -1.05644,0.14452 c 0,0 -0.27609,4.59942 -0.18145,5.51815 0.0947,0.91874 0.13675,7.91371 -0.007,8.24994 -0.14392,0.33622 -0.22444,0.59449 -0.22444,0.59449 0,0 -6.403684,-0.80445 -10.362984,-2.1464 -3.959299,-1.34195 -4.628543,-0.55879 -4.824049,-2.10992 -0.195503,-1.55114 -1.853133,-14.52194 -1.777313,-15.17254 0.07582,-0.65061 0.02894,-2.14563 0.02894,-2.14563 z"
         id="path5"
         sodipodi:nodetypes="csssssscsscscccssssscssscccsscssscc" />
      <path
         style="opacity:1;fill:#111b09;fill-opacity:1;stroke-width:2.117;stroke-linejoin:round;stroke-miterlimit:3.1;paint-order:markers stroke fill"
         d="m 87.864244,184.12578 c 0,0 -0.09722,-0.59707 -0.812814,-1.13043 -0.715595,-0.53336 -1.090268,-0.8671 -1.186636,-0.25272 -0.150872,0.96188 0.590635,0.70693 1.092396,1.24447 0.50176,0.53754 0.786268,0.52609 0.786268,0.52609 z"
         id="path6"
         sodipodi:nodetypes="cssscc" />
      <path
         style="opacity:1;fill:#111b09;fill-opacity:1;stroke-width:2.117;stroke-linejoin:round;stroke-miterlimit:3.1;paint-order:markers stroke fill"
         d="m 87.033009,183.3365 c 0.01274,0.12368 -0.585302,1.07805 -0.645807,1.53067 -0.06051,0.45262 -0.182579,1.00086 -0.182579,1.00086 0,0 -0.508944,0.606 -0.585076,0.56026 -0.07614,-0.0457 -0.235236,-1.2435 0.211076,-2.11082 0.44631,-0.86733 0.494074,-1.44362 0.494074,-1.44362 z"
         id="path7"
         sodipodi:nodetypes="cscsscc" />
      <path
         style="opacity:1;fill:#111b09;fill-opacity:1;stroke-width:2.117;stroke-linejoin:round;stroke-miterlimit:3.1;paint-order:markers stroke fill"
         d="m 85.314795,186.76319 c 0,0 -0.502422,1.01595 -0.23314,2.41664 0.269284,1.40069 1.016044,1.71658 1.016044,1.71658 l -0.08585,-1.52672 c 0,0 -0.3661,-0.0873 -0.373693,-0.85428 -0.0076,-0.767 0.157853,-1.58753 0.157853,-1.58753 z"
         id="path8" />
      <path
         style="opacity:1;fill:#111b09;fill-opacity:1;stroke-width:2.117;stroke-linejoin:round;stroke-miterlimit:3.1;paint-order:markers stroke fill"
         d="m 91.764203,181.66748 c -0.282566,-0.0466 -3.028605,-1.45559 -4.543352,-3.16814 -1.514745,-1.71256 -5.232715,1.17034 -5.646479,5.73296 -0.413766,4.56262 -0.01705,7.67816 0.455239,9.32135 0.472295,1.64319 2.715183,4.14219 2.916809,4.19285 0.201623,0.0506 0.207088,0.10365 0.345858,0.41075 0.13877,0.3071 1.464172,0.86692 1.464172,0.86692 0,0 0.01287,-1.60831 -0.286199,-1.7382 -0.299066,-0.12989 -2.421217,-2.35746 -3.122877,-4.14213 -0.701661,-1.78467 -1.235744,-3.85058 -1.155625,-5.84466 0.110218,-2.74322 1.876323,-8.4782 3.47478,-8.21433 1.598459,0.26385 1.278395,0.79678 3.075152,1.77228 1.796756,0.9755 2.175595,1.18645 2.175595,1.18645 z"
         id="path9"
         sodipodi:nodetypes="cssscscssssscc" />
    </g>
  </g>
</svg>
