<?xml version="1.0" encoding="UTF-8" standalone="no"?>
<!-- Created with Inkscape (http://www.inkscape.org/) -->

<svg
   width="39.666046mm"
   height="32.213108mm"
   viewBox="0 0 39.666046 32.213108"
   version="1.1"
   id="svg1"
   inkscape:version="1.3 (0e150ed6c4, 2023-07-21)"
   sodipodi:docname="tapioca.svg"
   xmlns:inkscape="http://www.inkscape.org/namespaces/inkscape"
   xmlns:sodipodi="http://sodipodi.sourceforge.net/DTD/sodipodi-0.dtd"
   xmlns="http://www.w3.org/2000/svg"
   xmlns:svg="http://www.w3.org/2000/svg">
  <sodipodi:namedview
     id="namedview1"
     pagecolor="#ffffff"
     bordercolor="#000000"
     borderopacity="0.25"
     inkscape:showpageshadow="2"
     inkscape:pageopacity="0.0"
     inkscape:pagecheckerboard="0"
     inkscape:deskcolor="#d1d1d1"
     inkscape:document-units="mm"
     inkscape:zoom="0.93103385"
     inkscape:cx="-13.962972"
     inkscape:cy="-117.61119"
     inkscape:window-width="1920"
     inkscape:window-height="974"
     inkscape:window-x="-11"
     inkscape:window-y="-11"
     inkscape:window-maximized="1"
     inkscape:current-layer="layer2" />
  <defs
     id="defs1">
    <pattern
       id="EMFhbasepattern"
       patternUnits="userSpaceOnUse"
       width="6"
       height="6"
       x="0"
       y="0" />
  </defs>
  <g
     inkscape:groupmode="layer"
     id="layer2"
     inkscape:label="Layer 2"
     transform="translate(-92.10909,-108.63982)">
    <path
       style="opacity:0.5;fill:#000000;fill-opacity:1;stroke-width:2.11701;stroke-linejoin:round;stroke-miterlimit:3.1;paint-order:markers stroke fill"
       d="m 127.55457,129.57447 c -2.39898,-7.19868 -16.72269,-8.12808 -25.88765,-7.70188 -3.175214,0.14766 -7.384512,1.1358 -8.543355,3.48269 -5.02201,10.17059 9.774055,15.5201 18.692925,15.49758 6.24125,-0.0157 18.5867,-2.73047 15.73808,-11.27839 z"
       id="path44"
       sodipodi:nodetypes="sssss" />
    <g
       inkscape:groupmode="layer"
       id="layer3"
       inkscape:label="F">
      <path
         style="opacity:1;fill:#e05156;fill-opacity:1;stroke-width:2.117;stroke-linejoin:round;stroke-miterlimit:3.1;paint-order:markers stroke fill"
         d="m 130.16356,118.2072 c 0,0 0.9545,2.05971 0.87915,4.32037 -0.0754,2.26066 -0.47725,7.18386 -2.33601,8.49002 -1.85877,1.30616 -3.76776,2.98909 -5.42558,3.79288 -1.65781,0.80379 -1.28104,1.93412 -3.08956,2.1853 -1.80853,0.25118 -5.65164,0.97962 -8.1886,0.80379 -2.53696,-0.17583 -6.60614,-1.78341 -7.98765,-2.5872 -1.38152,-0.80378 -4.546435,-3.71752 -5.651644,-4.94832 -1.10521,-1.2308 -2.336012,-4.3706 -2.336012,-4.74738 0,-0.37678 0.276302,-6.05353 0.904264,-7.53552 0.627959,-1.48199 -0.150712,-2.28578 2.059707,-3.69241 2.210425,-1.40663 6.681495,-3.81799 9.972005,-4.3706 3.29051,-0.5526 5.85259,-0.90426 6.32984,-0.85402 0.47725,0.0502 6.62073,1.19862 9.8533,3.25894 3.23258,2.06032 5.01679,5.88415 5.01679,5.88415 z"
         id="path39" />
      <path
         style="opacity:1;fill:#f8f7f1;fill-opacity:1;stroke-width:2.117;stroke-linejoin:round;stroke-miterlimit:3.1;paint-order:markers stroke fill"
         d="m 122.73123,114.29456 c 0,0 -0.37299,0.30195 1.20777,1.13673 1.58077,0.83479 3.57004,2.22018 4.08512,3.28586 0.51508,1.06568 1.19001,2.04256 1.19001,2.04256 0,0 0.30195,1.82942 0.37299,2.38003 0.0711,0.5506 -2.93062,3.60556 -2.93062,3.60556 0,0 -4.15405,3.14196 -5.91234,3.44338 -1.75828,0.30142 -1.50305,-0.37066 -2.31119,-0.0865 -0.80814,0.28419 -1.11009,0.28419 -1.11009,0.28419 l -6.2493,0.43025 c 0,0 -7.33458,-2.05971 -8.84168,-3.11468 -1.5071,-1.05497 -4.872971,-4.57155 -4.872971,-4.57155 0,0 0.46469,-0.31398 0.452133,-0.81635 -0.01257,-0.50236 -0.414454,-0.65308 -0.175829,-1.2308 0.238625,-0.57772 0.251183,-1.2936 0.728433,-1.45687 0.47725,-0.16326 0.389334,-0.0377 0.48981,-0.17582 0.100472,-0.13816 0.125592,-2.54952 1.243354,-3.51658 1.11777,-0.96706 2.00948,-1.15545 2.00948,-1.15545 0,0 2.42393,-1.09265 3.1398,-1.39407 0.71587,-0.30142 4.72226,-0.65308 4.72226,-0.65308 0,0 1.79597,-0.45213 2.23554,-0.22606 0.43957,0.22606 2.10994,0.91682 2.10994,0.91682 z"
         id="path38" />
      <path
         style="opacity:1;fill:#d3cebb;fill-opacity:1;stroke-width:2.117;stroke-linejoin:round;stroke-miterlimit:3.1;paint-order:markers stroke fill"
         d="m 110.67124,115.43129 c -0.60389,-0.10657 -0.53284,-0.81702 -2.3445,-0.10657 -1.81167,0.71046 -2.45107,1.58077 -1.43868,1.59853 1.0124,0.0178 1.82943,-0.33747 1.45644,-0.0888 -0.37299,0.24866 -2.50436,0.62165 -2.11361,1.17225 0.39075,0.55061 1.27882,0.62165 1.11897,0.90584 -0.15985,0.28418 -0.14209,0.35522 -0.56836,0.39075 -0.42628,0.0355 -1.7051,-0.63941 -1.68734,0.12433 0.0178,0.76374 0.60389,0.92359 -0.14209,0.99464 -0.74598,0.071 -0.90583,0.51508 -1.52748,0.46179 -0.62165,-0.0533 -1.36762,-0.0177 -1.66957,0.35523 -0.30194,0.37299 -0.62165,0.53284 -1.13673,0.53284 -0.51508,0 -3.001673,0.88807 -1.43867,0.92359 1.563,0.0355 1.86494,-0.33746 2.3445,0.0533 0.47956,0.39075 2.82406,0.17761 1.91823,-0.15986 -0.90583,-0.33746 -1.93599,-0.46179 -1.58076,-0.47955 0.35523,-0.0178 1.66957,-0.35523 2.00704,-0.17762 0.33746,0.17762 0.67493,0.28419 1.17225,0.28419 0.49732,0 -0.81702,0.3197 0.74598,0.65717 1.563,0.33746 1.93599,0.17761 1.93599,0.49732 0,0.3197 0.76374,1.0124 0.071,0.99463 -0.69269,-0.0177 -2.82406,-0.47955 -3.126,-0.24866 -0.30195,0.2309 -0.47956,-0.33746 -0.53284,0.40852 -0.0533,0.74598 0,0.69269 1.04792,1.20777 1.04792,0.51508 0.81702,-0.21313 1.4742,-0.0355 0.65717,0.17761 0.69269,0.51508 1.7939,0.17761 1.1012,-0.33746 0.46179,-0.14209 1.06568,-0.5506 0.60389,-0.40851 0.67493,-0.7815 0.83478,-0.99464 0.15986,-0.21314 2.14913,0.55061 2.85959,0.15986 0.71046,-0.39076 0.63941,-0.83479 0.63941,-0.83479 0,0 -1.68733,-1.03016 -2.5754,-0.81702 -0.88807,0.21313 0.3197,-0.15986 -0.72822,-0.62165 -1.04792,-0.4618 -3.00167,-0.31971 -2.20241,-0.71046 0.79926,-0.39075 4.77781,-1.45643 4.9199,-1.34987 0.1421,0.10657 1.04793,0.14209 0.62165,0.33747 -0.42627,0.19538 -1.15449,-0.99464 -0.58612,0.14209 0.56836,1.13673 1.95375,1.54524 2.23793,2.20242 0.28418,0.65717 0.60389,0.35522 1.4742,0.35522 0.87031,0 1.36763,-0.17761 1.45643,0.30195 0.0888,0.47956 0.12433,0.37299 0.24866,0.63941 0.12433,0.26642 -1.04792,0.30194 -0.97687,1.1012 0.071,0.79927 0.90583,0.87031 0.12433,0.99464 -0.78151,0.12433 -1.81167,0.0355 -1.84719,0.2309 -0.0355,0.19538 -0.19538,0.53284 -0.14209,0.72822 0.0533,0.19537 -0.40851,0.26642 -1.06569,0.37299 -0.65717,0.10656 -0.24865,-0.30195 -0.90583,0.58612 -0.65717,0.88807 0.99464,0.94135 0.0888,1.15449 -0.90583,0.21314 -1.20777,0.24866 -1.77614,0.0355 -0.56836,-0.21314 -1.54524,0.0533 -2.0248,0 -0.47955,-0.0533 -3.37466,0 -3.16153,0.0888 0.21314,0.0888 3.12601,1.29658 5.73693,1.29658 2.61093,0 6.57172,-0.46179 6.57172,-0.46179 l 2.96615,-0.39075 c 0,0 -1.20777,0.17761 -1.20777,-1.06569 0,-1.24329 0.35523,-2.73525 0.81702,-2.87734 0.4618,-0.14209 1.98928,0.7815 2.23794,0.28418 0.24866,-0.49732 0.35523,-0.71046 0.81702,-0.81702 0.4618,-0.10657 0.63941,-0.49732 0.71046,-1.45644 0.071,-0.95912 -0.10657,-1.563 -0.71046,-1.95375 -0.60389,-0.39075 -3.126,-0.39075 -3.41019,-0.63941 -0.28418,-0.24866 -0.56836,-0.97688 -2.02479,-1.33211 -1.45644,-0.35523 -2.38003,-0.5506 -2.38003,-0.5506 0,0 -1.90047,-0.14209 -2.38003,-0.44403 -0.47956,-0.30195 -0.76374,-0.12433 -0.53284,-0.74598 0.2309,-0.62165 0.7815,-1.11897 0.21314,-1.31435 -0.56837,-0.19537 -0.15986,-1.03016 -0.37299,-1.22553 -0.21314,-0.19538 -1.03016,-0.40852 -1.65181,-0.24866 -0.62165,0.15985 -1.52748,0.3197 -1.58077,0.24866 -0.0533,-0.071 -0.17761,-0.30195 -0.17761,-0.30195 z"
         id="path36" />
      <path
         style="opacity:1;fill:#d3cebb;fill-opacity:1;stroke-width:2.117;stroke-linejoin:round;stroke-miterlimit:3.1;paint-order:markers stroke fill"
         d="m 116.33712,113.06903 c -0.74597,0.21314 -5.64812,0.63941 -3.33914,1.45643 2.30898,0.81703 4.08512,0.39075 4.90215,1.20778 0.81702,0.81702 -1.56301,1.13673 0.92359,1.1012 2.48659,-0.0355 1.88271,-0.24866 2.87735,-0.10656 0.99463,0.14209 2.02479,-1.45644 2.02479,-1.45644 0,0 0.32859,0.0622 0.0267,-0.29306 -0.30195,-0.35523 -0.7371,-0.56837 -0.7371,-0.56837 0,0 -2.27125,-0.37246 -2.97456,-0.62364 -0.70332,-0.25119 -3.70373,-0.71734 -3.70373,-0.71734 z"
         id="path37" />
      <path
         style="opacity:1;fill:#fd91a9;fill-opacity:1;stroke-width:2.117;stroke-linejoin:round;stroke-miterlimit:3.1;paint-order:markers stroke fill"
         d="m 130.36451,122.0252 c -0.40189,-1.53222 -0.92938,-4.74738 -2.7379,-6.12889 -1.80853,-1.38151 -1.45687,-1.35639 -3.1398,-2.1853 -1.68294,-0.82891 -2.96398,-1.13033 -4.64691,-1.53222 -1.68293,-0.4019 -2.03459,-1.3564 -4.92321,-1.02986 -2.88861,0.32654 -6.88244,0.72844 -8.01277,1.15545 -1.13033,0.42701 -1.90899,0.85403 -2.76302,1.13033 -0.85403,0.2763 -3.24027,1.53222 -4.948326,3.08956 -1.708053,1.55734 -1.331275,3.94359 -1.331275,3.94359 l -0.226066,2.48672 c 0,0 -0.753551,-0.77867 -0.92938,-1.45686 -0.175829,-0.6782 -0.175829,-2.03459 -0.175829,-2.03459 0,0 0.653076,-2.68767 1.255919,-3.69241 0.602842,-1.00474 2.285777,-2.41137 4.496197,-3.31563 2.21042,-0.90426 8.11324,-2.96397 10.3739,-3.1398 2.26065,-0.17583 6.90756,0.0502 10.29854,1.68293 3.39099,1.6327 4.42084,2.71279 5.80235,4.82274 1.38152,2.10994 2.0346,2.93885 2.08483,3.99382 0.0502,1.05498 -0.47725,2.21042 -0.47725,2.21042 z"
         id="path40" />
      <path
         style="opacity:1;fill:#fd91a9;fill-opacity:1;stroke-width:2.117;stroke-linejoin:round;stroke-miterlimit:3.1;paint-order:markers stroke fill"
         d="m 123.35288,131.75401 c -0.97688,0.14209 -3.25034,0.0355 -4.38707,0.71046 -1.13673,0.67493 0.28418,0.39075 0.92359,0.88807 0.63941,0.49732 -0.67493,0.88807 1.27882,0.60389 1.95376,-0.28419 3.42795,-1.59853 2.78854,-1.90047 -0.63941,-0.30195 -0.60388,-0.30195 -0.60388,-0.30195 z"
         id="path41" />
      <path
         style="opacity:1;fill:#fd91a9;fill-opacity:1;stroke-width:2.117;stroke-linejoin:round;stroke-miterlimit:3.1;paint-order:markers stroke fill"
         d="m 127.13605,129.56048 c 0,0 -1.03904,0.20426 -1.41203,0.44404 -0.37299,0.23978 -0.77262,1.3765 -0.0177,1.22553 0.75486,-0.15097 1.84718,-1.6074 1.75838,-1.66957 -0.0888,-0.0622 -0.32859,0 -0.32859,0 z"
         id="path42" />
      <path
         style="opacity:1;fill:#fd91a9;fill-opacity:1;stroke-width:2.117;stroke-linejoin:round;stroke-miterlimit:3.1;paint-order:markers stroke fill"
         d="m 102.14577,128.73458 c 2.18465,1.54524 2.46884,1.52748 3.17929,1.82942 0.71046,0.30194 0.51508,0.2309 0.7815,0.39075 0.26642,0.15985 4.12065,0.21314 4.22721,0.74598 0.10657,0.53284 -0.58612,0.60389 0.14209,0.74598 0.72822,0.14209 2.23794,-0.0178 3.64109,-0.071 1.40315,-0.0533 1.75838,-0.0888 1.29658,0.17762 -0.46179,0.26642 -2.41555,0.8703 -3.64108,0.74597 -1.22554,-0.12432 -1.72286,-0.58612 -3.33914,-0.58612 -1.61629,0 -4.38707,-0.49732 -4.77782,-0.88807 -0.39075,-0.39075 -0.97688,-0.90583 -0.15985,-0.88807 0.81702,0.0177 1.45643,-0.24866 0.79926,-0.30194 -0.65717,-0.0533 -4.458108,-1.90047 -5.559315,-3.19705 -0.417893,-0.49203 -1.705094,-1.90047 -1.136729,-1.86495 -0.121164,-0.48067 3.031274,2.10765 4.546914,3.16148 z"
         id="path43"
         sodipodi:nodetypes="csscscscssccscc" />
    </g>
    <g
       inkscape:groupmode="layer"
       id="layer4"
       inkscape:label="O">
      <path
         style="opacity:1;fill:#111b09;fill-opacity:1;stroke-width:2.117;stroke-linejoin:round;stroke-miterlimit:3.1;paint-order:markers stroke fill"
         d="m 96.550934,127.49128 c 0,0 4.245876,9.58207 14.170986,10.91112 8.31127,1.11294 15.07134,-2.77876 19.18669,-8.43062 2.94211,-4.04056 1.5257,-9.97581 1.5257,-9.97581 l -1.91823,4.19169 c 0,0 1.11519,2.4684 -1.13673,5.75469 -3.53308,5.15594 -11.30641,8.68126 -17.40617,7.3177 -10.45275,-2.33664 -13.965909,-10.01022 -13.965909,-10.01022 z"
         id="path2"
         sodipodi:nodetypes="cssccsscc" />
      <path
         style="opacity:1;fill:#111b09;fill-opacity:1;stroke-width:2.117;stroke-linejoin:round;stroke-miterlimit:3.1;paint-order:markers stroke fill"
         d="m 96.586457,121.9142 c 0,0 1.00457,4.73854 8.921273,7.75616 7.44611,2.83825 9.70201,0.82547 12.75624,0.89416 0.32118,0.007 -0.13066,-0.60009 -0.73174,-0.47731 -5.75183,1.17492 -17.981399,-1.39114 -20.725904,-8.91604 z"
         id="path3"
         sodipodi:nodetypes="cssscc" />
      <path
         style="opacity:1;fill:#111b09;fill-opacity:1;stroke-width:2.117;stroke-linejoin:round;stroke-miterlimit:3.1;paint-order:markers stroke fill"
         d="m 118.70957,130.2138 c 0,0 -0.40189,1.45687 3.64217,0.12559 4.04406,-1.33127 7.98765,-6.35495 8.08813,-7.30945 0.10047,-0.9545 1.06549,-2.85636 1.06549,-2.85636 1.20656,-0.20109 -5.49657,-15.87434 -23.9596,-10.35793 -18.197678,5.43712 -9.360778,14.72724 -9.360778,14.72724 -1.112996,-0.24347 -3.423549,-7.39583 3.042188,-11.05794 1.2008,-0.68012 9.13685,-4.72265 16.22648,-3.36587 4.79512,0.91766 9.2235,2.9091 11.75541,7.08339 0.60304,0.99421 1.39489,2.99527 0.90427,4.32036 -1.62118,4.37858 -7.69228,8.82318 -11.40375,8.16348 z"
         id="path4"
         sodipodi:nodetypes="csscscsssscc" />
      <path
         style="opacity:1;fill:#111b09;fill-opacity:1;stroke-width:2.117;stroke-linejoin:round;stroke-miterlimit:3.1;paint-order:markers stroke fill"
         d="m 96.077891,119.23706 c 0,0 -0.766112,5.46325 -0.188386,6.16657 0.577723,0.70331 0.828905,0.31398 0.60284,-1.15545 -0.226066,-1.46943 0.288861,-2.47416 0.288861,-2.47416 z"
         id="path5" />
      <path
         style="opacity:1;fill:#111b09;fill-opacity:1;stroke-width:2.117;stroke-linejoin:round;stroke-miterlimit:3.1;paint-order:markers stroke fill"
         d="m 98.717824,119.42761 c 0,0 -0.728218,-0.33747 -1.172253,1.34986 -0.444034,1.68733 0.248658,2.66421 0.248658,2.66421 0,0 0.159854,1.22554 0.568365,0.6927 0.408514,-0.53285 0.444034,-0.28419 -0.124328,-1.45644 -0.568364,-1.17225 -0.497321,-1.42091 -0.213137,-2.06032 0.284181,-0.63941 0.781499,-0.81702 0.781499,-0.81702 0,0 0.01775,0.94135 0.444037,0.47955 0.426273,-0.46179 -0.12433,-2.71749 0.852545,-3.69437 0.97688,-0.97687 1.4742,-1.42091 1.4742,-1.42091 0,0 -0.22465,0.55561 0.65449,0.20396 0.87914,-0.35166 1.45687,-1.43176 2.96397,-1.83365 1.50711,-0.40189 4.3706,-0.60284 4.3706,-0.60284 l 0.4019,-0.52749 c 0,0 -3.76463,-0.10221 -5.82434,0.77689 -2.05971,0.87915 -3.04246,1.58424 -3.39412,1.76007 -0.35165,0.17583 -1.482045,1.87868 -1.682929,2.47417 -0.351649,1.04241 -0.349161,2.01163 -0.349161,2.01163 z"
         id="path6"
         sodipodi:nodetypes="cscssscsscsscccsscc" />
      <path
         style="opacity:1;fill:#111b09;fill-opacity:1;stroke-width:2.117;stroke-linejoin:round;stroke-miterlimit:3.1;paint-order:markers stroke fill"
         d="m 106.56836,123.90348 c 0,0 0.14209,-0.071 -0.15985,0.24866 -0.30195,0.3197 0.15985,0.3197 0.71045,0.37299 0.5506,0.0533 1.08345,0.17761 1.2433,0.39075 0.15985,0.21313 0.56836,-0.49732 -0.19538,-0.87031 -0.76374,-0.37299 -1.59852,-0.14209 -1.59852,-0.14209 z"
         id="path7" />
      <path
         style="opacity:1;fill:#111b09;fill-opacity:1;stroke-width:2.117;stroke-linejoin:round;stroke-miterlimit:3.1;paint-order:markers stroke fill"
         d="m 112.92694,126.79858 c 0,0 -0.49732,-0.51508 -1.72286,-0.35522 -1.22553,0.15985 -0.79926,0.94135 -0.26642,0.95911 0.53284,0.0178 1.42091,-0.14209 1.58076,0.0533 0.15986,0.19537 -0.0888,0.42627 0.17762,0.35522 0.26642,-0.071 0.2309,-1.0124 0.2309,-1.0124 z"
         id="path8" />
      <path
         style="opacity:1;fill:#111b09;fill-opacity:1;stroke-width:2.117;stroke-linejoin:round;stroke-miterlimit:3.1;paint-order:markers stroke fill"
         d="m 109.99631,122.53585 c 0,0 -1.2433,-0.58613 -1.29659,-0.15985 -0.0533,0.42627 0.4618,1.50972 1.26106,1.2433 0.79927,-0.26642 1.03016,-0.63942 2.16689,-0.26642 1.13673,0.37298 1.65181,1.27881 1.98928,1.01239 0.33747,-0.26642 -0.0533,-1.3321 -1.58076,-1.59852 -1.52748,-0.26642 -2.53988,-0.2309 -2.53988,-0.2309 z"
         id="path9" />
      <path
         style="opacity:1;fill:#111b09;fill-opacity:1;stroke-width:2.117;stroke-linejoin:round;stroke-miterlimit:3.1;paint-order:markers stroke fill"
         d="m 112.91978,117.78019 c 0,0 -1.00524,0.19098 -1.40487,0.75935 -0.39963,0.56836 -0.91472,0.80814 0.0977,0.62165 1.0124,-0.1865 1.62517,-1.18114 1.58965,-1.29658 -0.0355,-0.11546 -0.28246,-0.0844 -0.28246,-0.0844 z"
         id="path10" />
      <path
         style="opacity:1;fill:#111b09;fill-opacity:1;stroke-width:2.117;stroke-linejoin:round;stroke-miterlimit:3.1;paint-order:markers stroke fill"
         d="m 108.20241,119.59634 c 0,0 -0.34635,-0.68381 -0.95912,-0.65717 -0.61277,0.0266 -0.69269,0.15985 -0.55948,0.48844 0.13321,0.32858 0.2309,1.08344 0.88807,0.77262 0.65717,-0.31083 0.63053,-0.60389 0.63053,-0.60389 z"
         id="path11" />
      <path
         style="opacity:1;fill:#111b09;fill-opacity:1;stroke-width:2.117;stroke-linejoin:round;stroke-miterlimit:3.1;paint-order:markers stroke fill"
         d="m 109.61671,112.70627 c 0,0 -0.57772,0.47725 0,0.72844 0.57773,0.25118 1.909,-0.90426 2.42393,-0.71588 0.51492,0.18839 1.14288,0.36422 1.09265,0.27631 -0.0502,-0.0879 -0.4019,-0.76611 -1.50711,-0.76611 -1.10521,0 -1.55734,-0.0251 -1.79596,0.16326 -0.23863,0.18839 -0.21351,0.31398 -0.21351,0.31398 z"
         id="path12" />
      <path
         style="opacity:1;fill:#111b09;fill-opacity:1;stroke-width:2.117;stroke-linejoin:round;stroke-miterlimit:3.1;paint-order:markers stroke fill"
         d="m 113.45983,113.51006 c 0,0 0.47724,-1.10521 2.8635,-1.05497 2.38624,0.0502 1.53222,0.15071 2.7379,0.75355 1.20568,0.60285 1.85876,0.42702 2.78814,0.57773 0.92938,0.1507 2.38625,0.85402 1.70806,0.90426 -0.6782,0.0502 -1.3564,-0.37678 -3.19004,-0.57773 -1.83365,-0.20094 -1.55734,-0.45213 -2.88862,-0.75355 -1.33127,-0.30142 -3.76776,0.82891 -4.01894,0.50237 -0.25119,-0.32654 0,-0.35166 0,-0.35166 z"
         id="path13" />
      <path
         style="opacity:1;fill:#111b09;fill-opacity:1;stroke-width:2.117;stroke-linejoin:round;stroke-miterlimit:3.1;paint-order:markers stroke fill"
         d="m 122.94436,115.48458 c 0,0 2.23794,0.79926 3.41019,1.82942 1.17225,1.03016 0.92359,0.72822 1.563,1.61629 0.63941,0.88807 1.13673,1.88271 1.17225,2.39779 0.0355,0.51508 1.11897,-0.28419 -0.37298,-2.46884 -1.49196,-2.18465 -2.9484,-2.78854 -3.21482,-2.98391 -0.26642,-0.19538 -0.67493,-0.90583 -1.81166,-0.92359 -1.13673,-0.0178 -0.74598,0.53284 -0.74598,0.53284 z"
         id="path14" />
      <path
         style="opacity:1;fill:#111b09;fill-opacity:1;stroke-width:2.117;stroke-linejoin:round;stroke-miterlimit:3.1;paint-order:markers stroke fill"
         d="m 127.02948,119.12566 c 0,0 -0.53284,-0.24866 -0.81702,0.0355 -0.28418,0.28418 -0.14209,0.69269 0.32858,0.80814 0.47068,0.11545 0.83479,0.0355 1.00352,0.37299 0.16874,0.33747 0.85255,0.3197 0.43516,-0.34635 -0.41739,-0.66605 -0.95024,-0.87031 -0.95024,-0.87031 z"
         id="path15" />
      <path
         style="opacity:1;fill:#111b09;fill-opacity:1;stroke-width:2.117;stroke-linejoin:round;stroke-miterlimit:3.1;paint-order:markers stroke fill"
         d="m 125.35103,119.52529 c -0.20426,-0.11544 -0.55948,-0.46179 -1.31434,-0.35522 -0.75486,0.10657 -0.98576,0.16873 -0.31971,0.63941 0.66606,0.47067 1.27882,0.10656 1.35875,0.31082 0.0799,0.20426 0.13321,0.81703 0.25754,0.1865 0.12433,-0.63053 0.0178,-0.78151 0.0178,-0.78151 z"
         id="path16" />
      <path
         style="opacity:1;fill:#111b09;fill-opacity:1;stroke-width:2.117;stroke-linejoin:round;stroke-miterlimit:3.1;paint-order:markers stroke fill"
         d="m 125.99932,122.89108 c 0,0 -0.071,-0.36411 -1.23441,-0.38187 -1.16338,-0.0177 -1.96264,0.14209 -0.68382,0.57724 1.27882,0.43516 1.91823,-0.19537 1.91823,-0.19537 z"
         id="path17" />
      <path
         style="opacity:1;fill:#111b09;fill-opacity:1;stroke-width:2.117;stroke-linejoin:round;stroke-miterlimit:3.1;paint-order:markers stroke fill"
         d="m 126.41464,123.29368 c 0.21979,0.55261 0.6154,0.52749 0.82891,0.41445 0.21351,-0.11303 0.48353,-0.27002 0.60912,-0.0628 0.12559,0.20723 -0.044,0.42701 0.18839,0.27002 0.23234,-0.15699 0.46345,-0.46661 0.18839,-0.56516 -0.70315,-0.25192 -1.64816,-0.79153 -1.81481,-0.0565 z"
         id="path18"
         sodipodi:nodetypes="cssssc" />
      <path
         style="opacity:1;fill:#111b09;fill-opacity:1;stroke-width:2.117;stroke-linejoin:round;stroke-miterlimit:3.1;paint-order:markers stroke fill"
         d="m 122.16335,128.16665 c -0.17582,0 -2.08483,0.3391 -2.03459,0.74099 0.0502,0.4019 0.76611,0.28887 1.53222,-0.0628 0.76612,-0.35166 1.89645,-0.57772 1.51967,-0.76611 -0.37678,-0.18839 -1.0173,0.0879 -1.0173,0.0879 z"
         id="path19" />
      <path
         style="opacity:1;fill:#111b09;fill-opacity:1;stroke-width:2.117;stroke-linejoin:round;stroke-miterlimit:3.1;paint-order:markers stroke fill"
         d="m 120.8572,123.98444 c -0.36422,-0.1256 -1.54479,-0.86659 -1.2936,0 0.25118,0.86658 0.92938,1.2308 1.05497,1.08009 0.12559,-0.15071 -0.18839,-0.30142 0.31398,-0.30142 0.50237,0 1.18057,-0.3391 0.6782,-0.55261 -0.50237,-0.2135 -0.75355,-0.22606 -0.75355,-0.22606 z"
         id="path20" />
      <path
         style="opacity:1;fill:#111b09;fill-opacity:1;stroke-width:2.117;stroke-linejoin:round;stroke-miterlimit:3.1;paint-order:markers stroke fill"
         d="m 118.59654,126.15718 c -0.87914,-0.0628 -0.87914,-0.13815 -1.36895,-0.21351 -0.48981,-0.0754 -1.59502,0.741 -0.84147,0.741 0.75355,0 0.75355,-0.15071 1.59502,-0.0377 0.84147,0.11303 0.6154,-0.48981 0.6154,-0.48981 z"
         id="path21" />
      <path
         style="opacity:1;fill:#111b09;fill-opacity:1;stroke-width:2.117;stroke-linejoin:round;stroke-miterlimit:3.1;paint-order:markers stroke fill"
         d="m 116.33588,121.88705 c 0,0 -0.47724,0.25118 -0.25118,0.81635 0.22607,0.56516 1.45687,0.25118 1.14289,0.10047 -0.31398,-0.15071 -0.46469,-0.32654 -0.43957,-0.48981 0.0251,-0.16327 0.0879,-0.43957 -0.0628,-0.47725 -0.15071,-0.0377 -0.38934,0.0502 -0.38934,0.0502 z"
         id="path22" />
      <path
         style="opacity:1;fill:#111b09;fill-opacity:1;stroke-width:2.117;stroke-linejoin:round;stroke-miterlimit:3.1;paint-order:markers stroke fill"
         d="m 118.3328,119.73943 c -0.38934,-0.13816 -1.84621,-0.85403 -3.06445,-0.6154 -1.21824,0.23862 2.14763,0.47724 2.5244,0.79123 0.37678,0.31398 0.99218,0.52748 0.75355,0.12559 -0.23862,-0.4019 -0.2135,-0.30142 -0.2135,-0.30142 z"
         id="path23" />
      <path
         style="opacity:1;fill:#111b09;fill-opacity:1;stroke-width:2.117;stroke-linejoin:round;stroke-miterlimit:3.1;paint-order:markers stroke fill"
         d="m 122.1194,116.13494 c -0.88543,-0.0754 -1.22453,-0.41446 -1.9718,0.18839 -0.74727,0.60284 1.45059,0.14443 1.63898,0.74727 0.18839,0.60284 0.18839,0.83518 0.43957,0.2135 0.25118,-0.62168 0.55113,-1.09314 -0.10675,-1.14916 z"
         id="path24"
         sodipodi:nodetypes="sssss" />
      <path
         style="opacity:1;fill:#111b09;fill-opacity:1;stroke-width:2.117;stroke-linejoin:round;stroke-miterlimit:3.1;paint-order:markers stroke fill"
         d="m 120.70643,120.71531 c -0.20526,0.16939 0.30194,1.11897 0.92359,1.00352 0.62165,-0.11545 0.17761,-0.36411 0.0888,-0.47956 -0.0888,-0.11545 0.0178,-0.31971 0.31082,-0.2309 0.29307,0.0888 0.71934,-0.18649 0.51508,-0.28418 -0.7705,-0.4475 -1.38813,-0.38038 -1.83829,-0.009 z"
         id="path25"
         sodipodi:nodetypes="sssscs" />
      <path
         style="opacity:1;fill:#111b09;fill-opacity:1;stroke-width:2.117;stroke-linejoin:round;stroke-miterlimit:3.1;paint-order:markers stroke fill"
         d="m 110.24497,128.02412 c -0.49732,-0.0533 -1.27882,-0.33746 -2.07809,-0.0533 -0.79926,0.28418 -0.90583,0.65717 -0.0888,0.60388 0.81702,-0.0533 1.7939,0.28419 2.53988,0.30195 0.74598,0.0178 -0.37299,-0.85255 -0.37299,-0.85255 z"
         id="path26" />
      <path
         style="opacity:1;fill:#111b09;fill-opacity:1;stroke-width:2.117;stroke-linejoin:round;stroke-miterlimit:3.1;paint-order:markers stroke fill"
         d="m 103.5134,123.50385 c 0,0 -1.35875,-0.17762 -1.55412,0.15097 -0.19538,0.32858 0.60388,1.19001 0.61277,0.80814 0.009,-0.38187 0,-0.38187 0.16873,-0.40851 0.16873,-0.0266 0.75486,0.071 0.89695,-0.21314 0.14209,-0.28418 -0.12433,-0.33746 -0.12433,-0.33746 z"
         id="path27" />
      <path
         style="opacity:1;fill:#111b09;fill-opacity:1;stroke-width:2.117;stroke-linejoin:round;stroke-miterlimit:3.1;paint-order:markers stroke fill"
         d="m 104.8011,120.04926 c -0.0977,0.42627 -0.2309,1.12784 -0.5062,1.27882 -0.2753,0.15097 -0.70158,0.93247 -0.0622,0.95911 0.63941,0.0266 1.2877,-0.77262 0.97687,-0.7371 -0.31082,0.0355 -0.37299,-0.25754 -0.15985,-0.71045 0.21314,-0.45292 -0.24866,-0.79038 -0.24866,-0.79038 z"
         id="path28" />
      <path
         style="opacity:1;fill:#111b09;fill-opacity:1;stroke-width:2.117;stroke-linejoin:round;stroke-miterlimit:3.1;paint-order:markers stroke fill"
         d="m 103.50452,117.18079 c -0.0799,-0.0355 -0.5062,-0.79038 -1.23442,0.0888 -0.72821,0.87919 0.33747,1.07456 0.58613,0.92359 0.24866,-0.15097 1.47419,-0.32858 1.25217,-0.56836 -0.22201,-0.23978 -0.60388,-0.44404 -0.60388,-0.44404 z"
         id="path29" />
      <path
         style="opacity:1;fill:#111b09;fill-opacity:1;stroke-width:2.117;stroke-linejoin:round;stroke-miterlimit:3.1;paint-order:markers stroke fill"
         d="m 102.7763,116.21969 c 0,0 -0.7371,-0.0368 -0.83479,0.15246 -0.0977,0.18927 0,0.4942 0.31083,0.34699 0.31082,-0.14721 1.38538,-0.0578 1.1012,-0.27338 -0.28418,-0.21556 -0.57724,-0.22607 -0.57724,-0.22607 z"
         id="path30" />
      <path
         style="opacity:1;fill:#111b09;fill-opacity:1;stroke-width:2.117;stroke-linejoin:round;stroke-miterlimit:3.1;paint-order:markers stroke fill"
         d="m 111.00871,115.32472 c -0.16874,0.009 -0.75486,-0.0177 -0.76374,0.17762 -0.009,0.19538 0.35522,0.31082 -0.0266,0.33746 -0.38187,0.0267 -2.06032,0.22202 -2.158,0.60389 -0.0977,0.38187 0.0977,0.91471 0.58612,0.61277 0.48844,-0.30194 0.31971,-0.3197 1.0124,-0.37299 0.69269,-0.0533 0.60389,-0.23978 1.09233,-0.25754 0.48844,-0.0177 0.595,-0.22202 0.57724,-0.34635 -0.0178,-0.12432 0.49732,-0.31082 0.63941,-0.0533 0.14209,0.25754 0.93247,0.0533 0.31971,-0.26642 -0.61277,-0.3197 -1.27882,-0.43516 -1.27882,-0.43516 z"
         id="path31" />
      <path
         style="opacity:1;fill:#111b09;fill-opacity:1;stroke-width:2.117;stroke-linejoin:round;stroke-miterlimit:3.1;paint-order:markers stroke fill"
         d="m 100.87583,119.28551 c 0,0 -0.0799,0.009 -0.14209,0 -0.0622,-0.009 0.071,-0.24866 -0.13321,-0.18649 -0.20426,0.0622 -0.657172,0.30194 -0.737097,0.32858 -0.07993,0.0266 -0.630531,0.70158 -0.124331,0.97688 0.506198,0.2753 0.967998,0.30194 0.772618,0.15985 -0.19537,-0.14209 -0.39075,-0.80814 -0.009,-0.72821 0.38187,0.0799 0.99464,0.17761 0.84367,-0.11546 -0.15097,-0.29306 -0.47068,-0.43515 -0.47068,-0.43515 z"
         id="path32" />
      <path
         style="opacity:1;fill:#111b09;fill-opacity:1;stroke-width:2.117;stroke-linejoin:round;stroke-miterlimit:3.1;paint-order:markers stroke fill"
         d="m 106.26071,115.55722 c -0.35654,0.2517 -1.485,0.48353 -0.57029,0.54632 0.91473,0.0628 1.118,-0.41445 1.46243,-0.39561 0.34443,0.0188 0.99887,-0.37516 0.67757,-0.41446 -0.5037,-0.0616 -0.94267,-0.17892 -1.56971,0.26375 z"
         id="path33"
         sodipodi:nodetypes="sscss" />
      <path
         style="opacity:1;fill:#111b09;fill-opacity:1;stroke-width:2.117;stroke-linejoin:round;stroke-miterlimit:3.1;paint-order:markers stroke fill"
         d="m 116.73778,114.60271 c 0,0 -0.33282,0.52121 -0.86659,0.55889 -0.53376,0.0377 -1.33127,0.80379 -0.73471,0.99218 0.59656,0.18838 2.4302,-1.15545 2.07227,-1.51967 -0.35794,-0.36422 -0.47097,-0.0314 -0.47097,-0.0314 z"
         id="path34" />
      <path
         style="opacity:1;fill:#111b09;fill-opacity:1;stroke-width:2.117;stroke-linejoin:round;stroke-miterlimit:3.1;paint-order:markers stroke fill"
         d="m 109.5288,113.30912 c 0,0 -1.00474,-0.30143 -1.46943,0.10047 -0.46469,0.4019 0.81635,0.6154 1.11777,0.59028 0.30142,-0.0251 0.12559,1.06753 0.46469,0.38934 0.3391,-0.6782 -0.11303,-1.08009 -0.11303,-1.08009 z"
         id="path35" />
    </g>
  </g>
</svg>
